mtllib 1 1-2 snap seam Pencil Rib.mtl
# Vertex Positions: 
g groupNumber_0
v 13.9109 -1.13434 -16.9263
v 13.9109 0.999431 -16.9263
v 13.9064 1.04455 -16.9263
v 13.8933 1.0866 -16.9263
v 13.8726 1.12468 -16.9263
v 13.8452 1.15787 -16.9263
v 13.812 1.18527 -16.9263
v 13.7739 1.20596 -16.9263
v 13.7319 1.21904 -16.9263
v 13.6868 1.22361 -16.9263
v 13.6423 1.21927 -16.9263
v 13.6009 1.20679 -16.9263
v 13.5633 1.18699 -16.9263
v 13.5304 1.16067 -16.9263
v 13.5031 1.12864 -16.9263
v 13.4822 1.09171 -16.9263
v 13.4684 1.05068 -16.9263
v 13.4627 1.00638 -16.9263
v 13.3964 -1.12815 -16.9263
v 13.3921 -1.14728 -16.9263
v 13.3813 -1.16274 -16.9263
v 13.3655 -1.17308 -16.9263
v 13.3462 -1.17684 -16.9263
v 5.89684 -1.17684 -16.9263
v 5.79708 -0.999259 -16.9263
v 4.47564 -0.999259 -16.9263
v 4.36119 -1.18831 -16.9263
v -4.23972 -1.18831 -16.9263
v -4.39021 -1.00165 -16.9263
v -5.68668 -1.00165 -16.9263
v -5.80747 -1.18831 -16.9263
v -13.7972 -1.18831 -16.9263
v -13.8277 -1.18213 -16.9263
v -13.8526 -1.1653 -16.9263
v -13.8695 -1.14037 -16.9263
v -13.8756 -1.10986 -16.9263
v -13.8756 -0.879794 -16.9263
v -13.8698 -0.850864 -16.9263
v -13.8538 -0.827215 -16.9263
v -13.8302 -0.811257 -16.9263
v -13.8012 -0.805402 -16.9263
v -13.6884 -0.805402 -16.9263
v -13.6632 -0.802094 -16.9263
v -13.6404 -0.792537 -16.9263
v -13.6209 -0.777283 -16.9263
v -13.6057 -0.756882 -16.9263
v -13.5965 -0.734173 -16.9263
v -13.5935 -0.710535 -16.9263
v -13.597 -0.685121 -16.9263
v -13.6076 -0.660979 -16.9263
v -13.8634 -0.244377 -16.9263
v -13.8634 1.14865 -16.9263
v -13.8987 1.14865 -16.9263
v -13.8987 -0.254339 -16.9263
v -13.6377 -0.679456 -16.9263
v -13.6288 -0.710555 -16.9263
v -13.6365 -0.739645 -16.9263
v -13.6583 -0.762022 -16.9263
v -13.6884 -0.770102 -16.9263
v -13.8012 -0.770102 -16.9263
v -13.8439 -0.778736 -16.9263
v -13.8788 -0.802267 -16.9263
v -13.9023 -0.837139 -16.9263
v -13.9109 -0.879794 -16.9263
v -13.9109 -1.10986 -16.9263
v -13.902 -1.1541 -16.9263
v -13.8776 -1.19026 -16.9263
v -13.8414 -1.21466 -16.9263
v -13.7972 -1.22361 -16.9263
v -5.78827 -1.22361 -16.9263
v -5.66748 -1.03695 -16.9263
v -4.40711 -1.03695 -16.9263
v -4.25661 -1.22361 -16.9263
v 4.38111 -1.22361 -16.9263
v 4.49556 -1.03456 -16.9263
v 5.77639 -1.03456 -16.9263
v 5.87616 -1.21214 -16.9263
v 13.3462 -1.21214 -16.9263
v 13.379 -1.20573 -16.9263
v 13.4059 -1.18813 -16.9263
v 13.4243 -1.16182 -16.9263
v 13.4317 -1.12926 -16.9263
v 13.498 1.00527 -16.9263
v 13.5028 1.04261 -16.9263
v 13.5144 1.07718 -16.9263
v 13.532 1.10829 -16.9263
v 13.5551 1.13528 -16.9263
v 13.5828 1.15746 -16.9263
v 13.6144 1.17414 -16.9263
v 13.6493 1.18465 -16.9263
v 13.6868 1.18831 -16.9263
v 13.7248 1.18446 -16.9263
v 13.7602 1.17344 -16.9263
v 13.7923 1.156 -16.9263
v 13.8203 1.13292 -16.9263
v 13.8433 1.10496 -16.9263
v 13.8608 1.07288 -16.9263
v 13.8718 1.03745 -16.9263
v 13.8756 0.999431 -16.9263
v 13.8756 -1.13434 -16.9263
v 13.8714 -1.15533 -16.9263
v 13.8598 -1.17249 -16.9263
v 13.8427 -1.18406 -16.9263
v 13.8217 -1.18831 -16.9263
v 13.8007 -1.18406 -16.9263
v 13.7836 -1.17249 -16.9263
v 13.772 -1.15533 -16.9263
v 13.7677 -1.13434 -16.9263
v 13.7677 -0.942431 -16.9263
v 13.7324 -0.942431 -16.9263
v 13.7324 -1.13434 -16.9263
v 13.7395 -1.16906 -16.9263
v 13.7586 -1.19743 -16.9263
v 13.787 -1.21658 -16.9263
v 13.8217 -1.22361 -16.9263
v 13.8564 -1.21658 -16.9263
v 13.8848 -1.19743 -16.9263
v 13.9039 -1.16906 -16.9263
v 13.9109 -1.13434 16.9263
v 13.9109 0.999431 16.9263
v 13.9064 1.04455 16.9263
v 13.8933 1.0866 16.9263
v 13.8726 1.12468 16.9263
v 13.8452 1.15787 16.9263
v 13.812 1.18527 16.9263
v 13.7739 1.20596 16.9263
v 13.7319 1.21904 16.9263
v 13.6868 1.22361 16.9263
v 13.6423 1.21927 16.9263
v 13.6009 1.20679 16.9263
v 13.5633 1.18699 16.9263
v 13.5304 1.16067 16.9263
v 13.5031 1.12864 16.9263
v 13.4822 1.09171 16.9263
v 13.4684 1.05068 16.9263
v 13.4627 1.00638 16.9263
v 13.3964 -1.12815 16.9263
v 13.3921 -1.14728 16.9263
v 13.3813 -1.16274 16.9263
v 13.3655 -1.17308 16.9263
v 13.3462 -1.17684 16.9263
v 5.89684 -1.17684 16.9263
v 5.79708 -0.999259 16.9263
v 4.47564 -0.999259 16.9263
v 4.36119 -1.18831 16.9263
v -4.23972 -1.18831 16.9263
v -4.39021 -1.00165 16.9263
v -5.68668 -1.00165 16.9263
v -5.80747 -1.18831 16.9263
v -13.7972 -1.18831 16.9263
v -13.8277 -1.18213 16.9263
v -13.8526 -1.1653 16.9263
v -13.8695 -1.14037 16.9263
v -13.8756 -1.10986 16.9263
v -13.8756 -0.879794 16.9263
v -13.8698 -0.850864 16.9263
v -13.8538 -0.827215 16.9263
v -13.8302 -0.811257 16.9263
v -13.8012 -0.805402 16.9263
v -13.6884 -0.805402 16.9263
v -13.6632 -0.802094 16.9263
v -13.6404 -0.792537 16.9263
v -13.6209 -0.777283 16.9263
v -13.6057 -0.756882 16.9263
v -13.5965 -0.734173 16.9263
v -13.5935 -0.710535 16.9263
v -13.597 -0.685121 16.9263
v -13.6076 -0.660979 16.9263
v -13.8634 -0.244377 16.9263
v -13.8634 1.14865 16.9263
v -13.8987 1.14865 16.9263
v -13.8987 -0.254339 16.9263
v -13.6377 -0.679456 16.9263
v -13.6288 -0.710555 16.9263
v -13.6365 -0.739645 16.9263
v -13.6583 -0.762022 16.9263
v -13.6884 -0.770102 16.9263
v -13.8012 -0.770102 16.9263
v -13.8439 -0.778736 16.9263
v -13.8788 -0.802267 16.9263
v -13.9023 -0.837139 16.9263
v -13.9109 -0.879794 16.9263
v -13.9109 -1.10986 16.9263
v -13.902 -1.1541 16.9263
v -13.8776 -1.19026 16.9263
v -13.8414 -1.21466 16.9263
v -13.7972 -1.22361 16.9263
v -5.78827 -1.22361 16.9263
v -5.66748 -1.03695 16.9263
v -4.40711 -1.03695 16.9263
v -4.25661 -1.22361 16.9263
v 4.38111 -1.22361 16.9263
v 4.49556 -1.03456 16.9263
v 5.77639 -1.03456 16.9263
v 5.87616 -1.21214 16.9263
v 13.3462 -1.21214 16.9263
v 13.379 -1.20573 16.9263
v 13.4059 -1.18813 16.9263
v 13.4243 -1.16182 16.9263
v 13.4317 -1.12926 16.9263
v 13.498 1.00527 16.9263
v 13.5028 1.04261 16.9263
v 13.5144 1.07718 16.9263
v 13.532 1.10829 16.9263
v 13.5551 1.13528 16.9263
v 13.5828 1.15746 16.9263
v 13.6144 1.17414 16.9263
v 13.6493 1.18465 16.9263
v 13.6868 1.18831 16.9263
v 13.7248 1.18446 16.9263
v 13.7602 1.17344 16.9263
v 13.7923 1.156 16.9263
v 13.8203 1.13292 16.9263
v 13.8433 1.10496 16.9263
v 13.8608 1.07288 16.9263
v 13.8718 1.03745 16.9263
v 13.8756 0.999431 16.9263
v 13.8756 -1.13434 16.9263
v 13.8714 -1.15533 16.9263
v 13.8598 -1.17249 16.9263
v 13.8427 -1.18406 16.9263
v 13.8217 -1.18831 16.9263
v 13.8007 -1.18406 16.9263
v 13.7836 -1.17249 16.9263
v 13.772 -1.15533 16.9263
v 13.7677 -1.13434 16.9263
v 13.7677 -0.942431 16.9263
v 13.7324 -0.942431 16.9263
v 13.7324 -1.13434 16.9263
v 13.7395 -1.16906 16.9263
v 13.7586 -1.19743 16.9263
v 13.787 -1.21658 16.9263
v 13.8217 -1.22361 16.9263
v 13.8564 -1.21658 16.9263
v 13.8848 -1.19743 16.9263
v 13.9039 -1.16906 16.9263
v 13.9109 -0.0674544 0
v 13.9087 1.02199 0
v 13.8998 1.06558 0
v 13.883 1.10564 0
v 13.8589 1.14127 0
v 13.8286 1.17157 0
v 13.793 1.19561 0
v 13.7529 1.2125 0
v 13.7093 1.22133 0
v 13.6645 1.22144 0
v 13.6216 1.21303 0
v 13.5821 1.19689 0
v 13.5469 1.17383 0
v 13.5168 1.14466 0
v 13.4926 1.11017 0
v 13.4753 1.0712 0
v 13.4655 1.02853 0
v 13.4295 -0.0608873 0
v 13.3943 -1.13772 0
v 13.3867 -1.15501 0
v 13.3734 -1.16791 0
v 13.3558 -1.17496 0
v 9.62153 -1.17684 0
v 5.84696 -1.08805 0
v 5.13636 -0.999259 0
v 4.41841 -1.09378 0
v 0.0607322 -1.18831 0
v -4.31497 -1.09498 0
v -5.03845 -1.00165 0
v -5.74707 -1.09498 0
v -9.80234 -1.18831 0
v -13.8125 -1.18522 0
v -13.8402 -1.17372 0
v -13.8611 -1.15283 0
v -13.8726 -1.12511 0
v -13.8756 -0.994829 0
v -13.8727 -0.865329 0
v -13.8618 -0.839039 0
v -13.842 -0.819236 0
v -13.8157 -0.808329 0
v -13.7448 -0.805402 0
v -13.6758 -0.803748 0
v -13.6518 -0.797316 0
v -13.6306 -0.78491 0
v -13.6133 -0.767082 0
v -13.6011 -0.745527 0
v -13.595 -0.722354 0
v -13.5952 -0.697828 0
v -13.6023 -0.67305 0
v -13.7355 -0.452678 0
v -13.8634 0.452135 0
v -13.881 1.14865 0
v -13.8987 0.447153 0
v -13.7682 -0.466898 0
v -13.6333 -0.695006 0
v -13.6327 -0.7251 0
v -13.6474 -0.750834 0
v -13.6734 -0.766062 0
v -13.7448 -0.770102 0
v -13.8226 -0.774419 0
v -13.8613 -0.790502 0
v -13.8905 -0.819703 0
v -13.9066 -0.858466 0
v -13.9109 -0.994829 0
v -13.9065 -1.13198 0
v -13.8898 -1.17218 0
v -13.8595 -1.20246 0
v -13.8193 -1.21913 0
v -9.79274 -1.22361 0
v -5.72787 -1.13028 0
v -5.03729 -1.03695 0
v -4.33186 -1.13028 0
v 0.062249 -1.22361 0
v 4.43834 -1.12908 0
v 5.13598 -1.03456 0
v 5.82628 -1.12335 0
v 9.61118 -1.21214 0
v 13.3626 -1.20894 0
v 13.3924 -1.19693 0
v 13.4151 -1.17498 0
v 13.428 -1.14554 0
v 13.4648 -0.0619905 0
v 13.5004 1.02394 0
v 13.5086 1.05989 0
v 13.5232 1.09273 0
v 13.5436 1.12179 0
v 13.5689 1.14637 0
v 13.5986 1.1658 0
v 13.6319 1.1794 0
v 13.668 1.18648 0
v 13.7058 1.18638 0
v 13.7425 1.17895 0
v 13.7763 1.16472 0
v 13.8063 1.14446 0
v 13.8318 1.11894 0
v 13.8521 1.08892 0
v 13.8663 1.05516 0
v 13.8737 1.01844 0
v 13.8756 -0.0674544 0
v 13.8735 -1.14484 0
v 13.8656 -1.16391 0
v 13.8512 -1.17827 0
v 13.8322 -1.18618 0
v 13.8112 -1.18618 0
v 13.7921 -1.17827 0
v 13.7778 -1.16391 0
v 13.7699 -1.14484 0
v 13.7677 -1.03839 0
v 13.7501 -0.942431 0
v 13.7324 -1.03839 0
v 13.736 -1.1517 0
v 13.749 -1.18324 0
v 13.7728 -1.20701 0
v 13.8043 -1.22009 0
v 13.839 -1.22009 0
v 13.8706 -1.20701 0
v 13.8943 -1.18324 0
v 13.9074 -1.1517 0


# Vertex Texture Coordinates :
vt 0.391973 0.00125759
vt 0.391973 0.0313181
vt 0.391909 0.0319537
vt 0.391724 0.0325462
vt 0.391433 0.0330826
vt 0.391047 0.0335502
vt 0.390579 0.0339361
vt 0.390043 0.0342277
vt 0.38945 0.034412
vt 0.388815 0.0344763
vt 0.388188 0.0344151
vt 0.387605 0.0342394
vt 0.387076 0.0339604
vt 0.386613 0.0335896
vt 0.386228 0.0331384
vt 0.385932 0.0326181
vt 0.385738 0.0320401
vt 0.385658 0.0314159
vt 0.384725 0.00134476
vt 0.384663 0.00107531
vt 0.384511 0.000857536
vt 0.384288 0.000711879
vt 0.384017 0.000658784
vt 0.279071 0.000658784
vt 0.277665 0.00316061
vt 0.259049 0.00316061
vt 0.257436 0.000497305
vt 0.136267 0.000497305
vt 0.134147 0.00312685
vt 0.115882 0.00312685
vt 0.114181 0.000497305
vt 0.00162148 0.000497305
vt 0.00119182 0.000584301
vt 0.000840584 0.000821385
vt 0.000603583 0.0011727
vt 0.000516625 0.0016024
vt 0.000516625 0.00484363
vt 0.00059911 0.00525119
vt 0.00082392 0.00558436
vt 0.00115709 0.00580917
vt 0.00156466 0.00589166
vt 0.00315395 0.00589166
vt 0.00350933 0.00593826
vt 0.00383088 0.0060729
vt 0.00410536 0.0062878
vt 0.0043195 0.00657521
vt 0.00444901 0.00689512
vt 0.00449211 0.00722814
vt 0.0044421 0.00758617
vt 0.00429231 0.00792629
vt 0.000689274 0.0137954
vt 0.000689274 0.0334202
vt 0.000191969 0.0334202
vt 0.000191969 0.013655
vt 0.00386834 0.00766598
vt 0.00399395 0.00722786
vt 0.00388558 0.00681803
vt 0.00357886 0.00650279
vt 0.00315395 0.00638896
vt 0.00156466 0.00638896
vt 0.00096373 0.00626733
vt 0.000472462 0.00593582
vt 0.000140957 0.00544455
vt 1.93202e-05 0.00484363
vt 1.93202e-05 0.0016024
vt 0.00014543 0.00097924
vt 0.000489126 0.000469836
vt 0.000998458 0.000126113
vt 0.00162148 0
vt 0.114451 0
vt 0.116153 0.00262955
vt 0.133909 0.00262955
vt 0.136029 0
vt 0.257717 0
vt 0.259329 0.0026633
vt 0.277374 0.0026633
vt 0.278779 0.000161478
vt 0.384017 0.000161478
vt 0.384479 0.000251843
vt 0.384858 0.000499764
vt 0.385117 0.000870477
vt 0.385222 0.00132922
vt 0.386155 0.0314004
vt 0.386223 0.0319264
vt 0.386386 0.0324133
vt 0.386635 0.0328517
vt 0.386959 0.0332319
vt 0.38735 0.0335444
vt 0.387795 0.0337794
vt 0.388287 0.0339275
vt 0.388815 0.033979
vt 0.38935 0.0339248
vt 0.389849 0.0337695
vt 0.390301 0.0335239
vt 0.390695 0.0331987
vt 0.391021 0.0328047
vt 0.391266 0.0323528
vt 0.391421 0.0318536
vt 0.391476 0.0313181
vt 0.391476 0.00125759
vt 0.391416 0.000961878
vt 0.391253 0.000720188
vt 0.391011 0.000557127
vt 0.390716 0.000497305
vt 0.39042 0.000557127
vt 0.390178 0.000720188
vt 0.390015 0.000961878
vt 0.389956 0.00125759
vt 0.389956 0.0039612
vt 0.389458 0.0039612
vt 0.389458 0.00125759
vt 0.389557 0.000768518
vt 0.389827 0.000368729
vt 0.390227 9.89738e-05
vt 0.390716 0
vt 0.391205 9.89738e-05
vt 0.391604 0.000368729
vt 0.391874 0.000768518
vt 0.397875 0.00125759
vt 0.397875 0.0313181
vt 0.397939 0.0319537
vt 0.398123 0.0325462
vt 0.398415 0.0330826
vt 0.398801 0.0335502
vt 0.399268 0.0339361
vt 0.399805 0.0342277
vt 0.400397 0.034412
vt 0.401033 0.0344763
vt 0.401659 0.0344151
vt 0.402243 0.0342394
vt 0.402772 0.0339604
vt 0.403235 0.0335896
vt 0.40362 0.0331384
vt 0.403915 0.0326181
vt 0.404109 0.0320401
vt 0.40419 0.0314159
vt 0.405123 0.00134476
vt 0.405184 0.00107531
vt 0.405337 0.000857536
vt 0.405559 0.000711879
vt 0.40583 0.000658784
vt 0.510777 0.000658784
vt 0.512182 0.00316061
vt 0.530799 0.00316061
vt 0.532411 0.000497305
vt 0.65358 0.000497305
vt 0.655701 0.00312685
vt 0.673965 0.00312685
vt 0.675667 0.000497305
vt 0.788226 0.000497305
vt 0.788656 0.000584301
vt 0.789007 0.000821385
vt 0.789244 0.0011727
vt 0.789331 0.0016024
vt 0.789331 0.00484363
vt 0.789248 0.00525119
vt 0.789024 0.00558436
vt 0.78869 0.00580917
vt 0.788283 0.00589166
vt 0.786694 0.00589166
vt 0.786338 0.00593826
vt 0.786017 0.0060729
vt 0.785742 0.0062878
vt 0.785528 0.00657521
vt 0.785399 0.00689512
vt 0.785355 0.00722814
vt 0.785405 0.00758617
vt 0.785555 0.00792629
vt 0.789158 0.0137954
vt 0.789158 0.0334202
vt 0.789656 0.0334202
vt 0.789656 0.013655
vt 0.785979 0.00766598
vt 0.785854 0.00722786
vt 0.785962 0.00681803
vt 0.786269 0.00650279
vt 0.786694 0.00638896
vt 0.788283 0.00638896
vt 0.788884 0.00626733
vt 0.789375 0.00593582
vt 0.789707 0.00544455
vt 0.789828 0.00484363
vt 0.789828 0.0016024
vt 0.789702 0.00097924
vt 0.789358 0.000469836
vt 0.788849 0.000126113
vt 0.788226 0
vt 0.675396 0
vt 0.673695 0.00262955
vt 0.655939 0.00262955
vt 0.653818 0
vt 0.53213 0
vt 0.530518 0.0026633
vt 0.512474 0.0026633
vt 0.511068 0.000161478
vt 0.40583 0.000161478
vt 0.405369 0.000251843
vt 0.40499 0.000499764
vt 0.40473 0.000870477
vt 0.404626 0.00132922
vt 0.403693 0.0314004
vt 0.403625 0.0319264
vt 0.403461 0.0324133
vt 0.403213 0.0328517
vt 0.402888 0.0332319
vt 0.402498 0.0335444
vt 0.402052 0.0337794
vt 0.40156 0.0339275
vt 0.401033 0.033979
vt 0.400497 0.0339248
vt 0.399998 0.0337695
vt 0.399546 0.0335239
vt 0.399152 0.0331987
vt 0.398827 0.0328047
vt 0.398581 0.0323528
vt 0.398426 0.0318536
vt 0.398372 0.0313181
vt 0.398372 0.00125759
vt 0.398432 0.000961878
vt 0.398595 0.000720188
vt 0.398836 0.000557127
vt 0.399132 0.000497305
vt 0.399427 0.000557127
vt 0.399669 0.000720188
vt 0.399832 0.000961878
vt 0.399892 0.00125759
vt 0.399892 0.0039612
vt 0.400389 0.0039612
vt 0.400389 0.00125759
vt 0.40029 0.000768518
vt 0.400021 0.000368729
vt 0.399621 9.89738e-05
vt 0.399132 0
vt 0.398643 9.89738e-05
vt 0.398243 0.000368729
vt 0.397974 0.000768518
vt 8.40314e-06 0.0403503
vt 0.0300689 0.0403503
vt 0.0307078 0.0403503
vt 0.0313282 0.0403503
vt 0.0319387 0.0403503
vt 0.032545 0.0403503
vt 0.0331513 0.0403503
vt 0.0337618 0.0403503
vt 0.0343823 0.0403503
vt 0.0350213 0.0403503
vt 0.0356506 0.0403503
vt 0.0362601 0.0403503
vt 0.0368583 0.0403503
vt 0.0374515 0.0403503
vt 0.0380447 0.0403503
vt 0.038643 0.0403503
vt 0.0392526 0.0403503
vt 0.039882 0.0403503
vt 0.0699676 0.0403503
vt 0.070244 0.0403503
vt 0.0705098 0.0403503
vt 0.0707757 0.0403503
vt 0.0710522 0.0403503
vt 0.175999 0.0403503
vt 0 0.523086
vt 0.00286958 0.523086
vt 0.00871844 0.523086
vt 0.0273348 0.523086
vt 0.0331783 0.523086
vt 0.0362916 0.523086
vt 0.0421478 0.523086
vt 0.163317 0.523086
vt 0.169216 0.523086
vt 0.172593 0.523086
vt 0.181857 0.0403503
vt 0.200122 0.0403503
vt 0.181855 0.523086
vt 0.184987 0.523086
vt 0.206007 0.0403503
vt 0.318566 0.0403503
vt 0.319004 0.0403503
vt 0.319428 0.0403503
vt 0.319852 0.0403503
vt 0.32029 0.0403503
vt 0.323531 0.0403503
vt 0.323947 0.0403503
vt 0.324349 0.0403503
vt 0.324751 0.0403503
vt 0.325167 0.0403503
vt 0.326756 0.0403503
vt 0.327115 0.0403503
vt 0.327463 0.0403503
vt 0.327812 0.0403503
vt 0.32817 0.0403503
vt 0.328515 0.0403503
vt 0.328851 0.0403503
vt 0.329213 0.0403503
vt 0.329584 0.0403503
vt 0.336471 0.0403503
vt 0.356096 0.0403503
vt 0.190857 0.523086
vt 0.191355 0.523086
vt 0.361977 0.0403503
vt 0.381742 0.0403503
vt 0.388769 0.0403503
vt 0.389225 0.0403503
vt 0.389649 0.0403503
vt 0.390089 0.0403503
vt 0.390529 0.0403503
vt 0.392118 0.0403503
vt 0.392731 0.0403503
vt 0.393324 0.0403503
vt 0.393916 0.0403503
vt 0.394529 0.0403503
vt 0.397771 0.0403503
vt 0.398406 0.0403503
vt 0.399021 0.0403503
vt 0.399635 0.0403503
vt 0.400271 0.0403503
vt 0.513101 0.0403503
vt 0.205957 0.523086
vt 0.209089 0.523086
vt 0.214946 0.523086
vt 0.232702 0.523086
vt 0.23861 0.523086
vt 0.241988 0.523086
vt 0.362024 0.523086
vt 0.483712 0.523086
vt 0.4896 0.523086
vt 0.492713 0.523086
vt 0.247869 0.523086
vt 0.265913 0.523086
vt 0.197239 0.523086
vt 0.200109 0.523086
vt 0.518933 0.0403503
vt 0.624171 0.0403503
vt 0.624642 0.0403503
vt 0.625094 0.0403503
vt 0.625547 0.0403503
vt 0.626018 0.0403503
vt 0.656103 0.0403503
vt 0.656634 0.0403503
vt 0.657147 0.0403503
vt 0.657651 0.0403503
vt 0.658151 0.0403503
vt 0.658651 0.0403503
vt 0.659155 0.0403503
vt 0.659669 0.0403503
vt 0.660199 0.0403503
vt 0.660737 0.0403503
vt 0.66126 0.0403503
vt 0.661774 0.0403503
vt 0.662285 0.0403503
vt 0.662796 0.0403503
vt 0.66331 0.0403503
vt 0.663833 0.0403503
vt 0.664371 0.0403503
vt 0.694432 0.0403503
vt 0.694733 0.0403503
vt 0.695025 0.0403503
vt 0.695316 0.0403503
vt 0.695618 0.0403503
vt 0.69592 0.0403503
vt 0.696211 0.0403503
vt 0.696503 0.0403503
vt 0.696804 0.0403503
vt 0.699508 0.0403503
vt 0.498593 0.523086
vt 0.49909 0.523086
vt 0.504958 0.523086
vt 0.507662 0.523086
vt 0.508161 0.523086
vt 0.508643 0.523086
vt 0.509125 0.523086
vt 0.509624 0.523086
vt 0.510123 0.523086
vt 0.510605 0.523086
vt 0.511088 0.523086
vt 0.511587 0.523086
vt 8.40314e-06 0.517264
vt 0.0300689 0.517264
vt 0.0307078 0.517264
vt 0.0313282 0.517264
vt 0.0319387 0.517264
vt 0.032545 0.517264
vt 0.0331513 0.517264
vt 0.0337618 0.517264
vt 0.0343823 0.517264
vt 0.0350213 0.517264
vt 0.0356506 0.517264
vt 0.0362601 0.517264
vt 0.0368583 0.517264
vt 0.0374515 0.517264
vt 0.0380447 0.517264
vt 0.038643 0.517264
vt 0.0392526 0.517264
vt 0.039882 0.517264
vt 0.0699676 0.517264
vt 0.070244 0.517264
vt 0.0705098 0.517264
vt 0.0707757 0.517264
vt 0.0710522 0.517264
vt 0.175999 0.517264
vt 0 1
vt 0.00286958 1
vt 0.00871844 1
vt 0.0273348 1
vt 0.0331783 1
vt 0.0362916 1
vt 0.0421478 1
vt 0.163317 1
vt 0.169216 1
vt 0.172593 1
vt 0.181857 0.517264
vt 0.200122 0.517264
vt 0.181855 1
vt 0.184987 1
vt 0.206007 0.517264
vt 0.318566 0.517264
vt 0.319004 0.517264
vt 0.319428 0.517264
vt 0.319852 0.517264
vt 0.32029 0.517264
vt 0.323531 0.517264
vt 0.323947 0.517264
vt 0.324349 0.517264
vt 0.324751 0.517264
vt 0.325167 0.517264
vt 0.326756 0.517264
vt 0.327115 0.517264
vt 0.327463 0.517264
vt 0.327812 0.517264
vt 0.32817 0.517264
vt 0.328515 0.517264
vt 0.328851 0.517264
vt 0.329213 0.517264
vt 0.329584 0.517264
vt 0.336471 0.517264
vt 0.356096 0.517264
vt 0.190857 1
vt 0.191355 1
vt 0.361977 0.517264
vt 0.381742 0.517264
vt 0.388769 0.517264
vt 0.389225 0.517264
vt 0.389649 0.517264
vt 0.390089 0.517264
vt 0.390529 0.517264
vt 0.392118 0.517264
vt 0.392731 0.517264
vt 0.393324 0.517264
vt 0.393916 0.517264
vt 0.394529 0.517264
vt 0.397771 0.517264
vt 0.398406 0.517264
vt 0.399021 0.517264
vt 0.399635 0.517264
vt 0.400271 0.517264
vt 0.513101 0.517264
vt 0.205957 1
vt 0.209089 1
vt 0.214946 1
vt 0.232702 1
vt 0.23861 1
vt 0.241988 1
vt 0.362024 1
vt 0.483712 1
vt 0.4896 1
vt 0.492713 1
vt 0.247869 1
vt 0.265913 1
vt 0.197239 1
vt 0.200109 1
vt 0.518933 0.517264
vt 0.624171 0.517264
vt 0.624642 0.517264
vt 0.625094 0.517264
vt 0.625547 0.517264
vt 0.626018 0.517264
vt 0.656103 0.517264
vt 0.656634 0.517264
vt 0.657147 0.517264
vt 0.657651 0.517264
vt 0.658151 0.517264
vt 0.658651 0.517264
vt 0.659155 0.517264
vt 0.659669 0.517264
vt 0.660199 0.517264
vt 0.660737 0.517264
vt 0.66126 0.517264
vt 0.661774 0.517264
vt 0.662285 0.517264
vt 0.662796 0.517264
vt 0.66331 0.517264
vt 0.663833 0.517264
vt 0.664371 0.517264
vt 0.694432 0.517264
vt 0.694733 0.517264
vt 0.695025 0.517264
vt 0.695316 0.517264
vt 0.695618 0.517264
vt 0.69592 0.517264
vt 0.696211 0.517264
vt 0.696503 0.517264
vt 0.696804 0.517264
vt 0.699508 0.517264
vt 0.498593 1
vt 0.49909 1
vt 0.504958 1
vt 0.507662 1
vt 0.508161 1
vt 0.508643 1
vt 0.509125 1
vt 0.509624 1
vt 0.510123 1
vt 0.510605 1
vt 0.511088 1
vt 0.511587 1
vt 0.0150386 0.278807
vt 0.0303883 0.278807
vt 0.031018 0.278807
vt 0.0316335 0.278807
vt 0.0322419 0.278807
vt 0.0328482 0.278807
vt 0.0334566 0.278807
vt 0.0340721 0.278807
vt 0.0347018 0.278807
vt 0.0353359 0.278807
vt 0.0359553 0.278807
vt 0.0365592 0.278807
vt 0.0371549 0.278807
vt 0.0377481 0.278807
vt 0.0383439 0.278807
vt 0.0389478 0.278807
vt 0.0395673 0.278807
vt 0.0549248 0.278807
vt 0.0701058 0.278807
vt 0.0703769 0.278807
vt 0.0706427 0.278807
vt 0.070914 0.278807
vt 0.123525 0.278807
vt 0.00143479 0.761543
vt 0.0180266 0.761543
vt 0.0347349 0.761543
vt 0.102732 0.761543
vt 0.170905 0.761543
vt 0.190989 0.278807
vt 0.183421 0.761543
vt 0.262286 0.278807
vt 0.318785 0.278807
vt 0.319216 0.278807
vt 0.31964 0.278807
vt 0.320071 0.278807
vt 0.321911 0.278807
vt 0.323739 0.278807
vt 0.324148 0.278807
vt 0.32455 0.278807
vt 0.324959 0.278807
vt 0.325962 0.278807
vt 0.326935 0.278807
vt 0.327289 0.278807
vt 0.327637 0.278807
vt 0.327991 0.278807
vt 0.328343 0.278807
vt 0.328683 0.278807
vt 0.329032 0.278807
vt 0.329398 0.278807
vt 0.333028 0.278807
vt 0.346283 0.278807
vt 0.191106 0.761543
vt 0.371859 0.278807
vt 0.385255 0.278807
vt 0.388997 0.278807
vt 0.389437 0.278807
vt 0.389869 0.278807
vt 0.390309 0.278807
vt 0.391323 0.278807
vt 0.392424 0.278807
vt 0.393027 0.278807
vt 0.39362 0.278807
vt 0.394223 0.278807
vt 0.39615 0.278807
vt 0.398088 0.278807
vt 0.398714 0.278807
vt 0.399328 0.278807
vt 0.399953 0.278807
vt 0.456686 0.278807
vt 0.207523 0.761543
vt 0.223824 0.761543
vt 0.240299 0.761543
vt 0.422868 0.761543
vt 0.491157 0.761543
vt 0.256891 0.761543
vt 0.198674 0.761543
vt 0.571552 0.278807
vt 0.624407 0.278807
vt 0.624868 0.278807
vt 0.625321 0.278807
vt 0.625782 0.278807
vt 0.64106 0.278807
vt 0.656368 0.278807
vt 0.65689 0.278807
vt 0.657399 0.278807
vt 0.657901 0.278807
vt 0.658401 0.278807
vt 0.658903 0.278807
vt 0.659412 0.278807
vt 0.659934 0.278807
vt 0.660468 0.278807
vt 0.660998 0.278807
vt 0.661517 0.278807
vt 0.66203 0.278807
vt 0.66254 0.278807
vt 0.663053 0.278807
vt 0.663572 0.278807
vt 0.664102 0.278807
vt 0.679401 0.278807
vt 0.694583 0.278807
vt 0.694879 0.278807
vt 0.695171 0.278807
vt 0.695467 0.278807
vt 0.695769 0.278807
vt 0.696065 0.278807
vt 0.696357 0.278807
vt 0.696653 0.278807
vt 0.698156 0.278807
vt 0.498841 0.761543
vt 0.50631 0.761543
vt 0.507911 0.761543
vt 0.508402 0.761543
vt 0.508884 0.761543
vt 0.509375 0.761543
vt 0.509874 0.761543
vt 0.510364 0.761543
vt 0.510846 0.761543
vt 0.511337 0.761543


# Vertex Surface Normals: 
vn 0 0 1
vn 0 0 -1
vn 1 0 0
vn 0.995024 -0.0996342 0
vn 0.998731 0.0503644 -2.94039e-19
vn 0.998731 0.0503644 2.94039e-19
vn 0.995024 -0.0996342 0
vn 0.994927 0.100601 0
vn 0.979832 0.199824 -1.15749e-18
vn 0.979832 0.199824 1.15749e-18
vn 0.954867 0.297033 0
vn 0.921181 0.389134 -2.24104e-18
vn 0.921181 0.389134 2.24104e-18
vn 0.878636 0.477493 0
vn 0.828758 0.559608 2.29436e-18
vn 0.828758 0.559608 -2.29436e-18
vn 0.771229 0.636558 0
vn 0.707125 0.707089 -2.13709e-17
vn 0.707125 0.707089 2.13709e-17
vn 0.636597 0.771197 0
vn 0.559645 0.828732 -2.50455e-17
vn 0.559645 0.828732 2.50455e-17
vn 0.477527 0.878617 0
vn 0.389162 0.921169 0
vn 0.389162 0.921169 0
vn 0.297054 0.954861 0
vn 0.199836 0.979829 -4.66016e-18
vn 0.199836 0.979829 4.66016e-18
vn 0.100606 0.994926 0
vn 0.00175656 0.999998 -4.65951e-18
vn 0.00175656 0.999998 4.65951e-18
vn -0.0971098 0.995274 0
vn -0.193639 0.981073 0
vn -0.193639 0.981073 0
vn -0.288325 0.957532 0
vn -0.379091 0.925359 5.12963e-18
vn -0.379091 0.925359 -5.12963e-18
vn -0.466341 0.884605 0
vn -0.548209 0.836341 5.12901e-18
vn -0.548209 0.836341 -5.12901e-18
vn -0.625126 0.780524 0
vn -0.696025 0.718017 -3.75355e-18
vn -0.696025 0.718017 3.75355e-18
vn -0.760706 0.649096 0
vn -0.818875 0.573972 -5.18971e-18
vn -0.818875 0.573972 5.18971e-18
vn -0.869651 0.493667 0
vn -0.913085 0.407769 -1.43616e-18
vn -0.913085 0.407769 1.43616e-18
vn -0.948059 0.318093 0
vn -0.974534 0.224242 -4.59737e-17
vn -0.974534 0.224242 4.59737e-17
vn -0.991741 0.128258 0
vn -0.996817 0.0797285 -4.58097e-17
vn -0.996817 0.0797285 4.58097e-17
vn -0.999519 0.0310092 0
vn -0.991897 0.127045 0
vn -0.991897 0.127045 0
vn -0.975069 0.221902 0
vn -0.91422 0.405219 0
vn -0.91422 0.405219 0
vn -0.819263 0.573418 0
vn -0.696083 0.717961 -2.57478e-17
vn -0.696083 0.717961 2.57478e-17
vn -0.547799 0.83661 0
vn -0.376916 0.926247 -2.57631e-17
vn -0.376916 0.926247 2.57631e-17
vn -0.191998 0.981395 0
vn -0.0964488 0.995338 0
vn -0.0964488 0.995338 0
vn 0 1 0
vn 0 1 0
vn 0 1 0
vn 0.871844 0.489783 0
vn 0.871844 0.489783 -1.99868e-17
vn 0.871844 0.489783 -1.99868e-17
vn 0.871844 0.489783 1.99868e-17
vn 0.871844 0.489783 1.99868e-17
vn 0 1 0
vn 0 1 0
vn 0 1 0
vn 0 1 0
vn 0 1 0
vn -0.855449 0.517887 0
vn -0.855449 0.517887 -1.96674e-17
vn -0.855449 0.517887 -1.96674e-17
vn -0.855449 0.517887 1.96674e-17
vn -0.855449 0.517887 1.96674e-17
vn 0 1 0
vn 0 1 0
vn 0 1 0
vn 0 1 0
vn 0 1 0
vn 0.778486 0.627663 0
vn 0.778486 0.627663 -1.77918e-17
vn 0.778486 0.627663 -1.77918e-17
vn 0.778486 0.627663 1.77918e-17
vn 0.778486 0.627663 1.77918e-17
vn 0 1 0
vn 0 1 0
vn 0 1 0
vn 0 1 0
vn 0 1 0
vn -0.839535 0.543306 0
vn -0.839535 0.543306 0
vn -0.839535 0.543306 0
vn -0.839535 0.543306 0
vn -0.839535 0.543306 0
vn 0 1 0
vn 0 1 0
vn 0.0997216 0.995015 0
vn 0.0997216 0.995015 0
vn 0 1 0
vn 0.198449 0.980111 0
vn 0.386435 0.922317 2.63403e-17
vn 0.386435 0.922317 -2.63403e-17
vn 0.559474 0.828848 0
vn 0.707203 0.70701 2.63133e-17
vn 0.707203 0.70701 -2.63133e-17
vn 0.829001 0.559248 0
vn 0.922389 0.386262 0
vn 0.922389 0.386262 0
vn 0.980131 0.198349 0
vn 0.99502 0.0996708 0
vn 0.99502 0.0996708 0
vn 1 0 0
vn 0.99502 -0.0996771 0
vn 0.99502 -0.0996771 0
vn 0.980129 -0.198361 0
vn 0.922366 -0.386317 0
vn 0.922366 -0.386317 0
vn 0.828941 -0.559336 0
vn 0.707107 -0.707107 0
vn 0.707107 -0.707107 0
vn 0.559336 -0.828941 0
vn 0.386317 -0.922366 0
vn 0.386317 -0.922366 0
vn 0.198361 -0.980129 0
vn 0.0996771 -0.99502 0
vn 0.0996771 -0.99502 0
vn 0 -1 0
vn 0.0651498 -0.997875 0
vn 0.0651498 -0.997875 0
vn 0.130023 -0.991511 0
vn 0.260421 -0.965495 -1.79767e-17
vn 0.260421 -0.965495 1.79767e-17
vn 0.386215 -0.922409 0
vn 0.505874 -0.862607 -1.79786e-17
vn 0.505874 -0.862607 1.79786e-17
vn 0.616481 -0.78737 0
vn 0.715509 -0.698604 3.73273e-17
vn 0.715509 -0.698604 -3.73273e-17
vn 0.801882 -0.597482 0
vn 0.871521 -0.490358 3.73017e-17
vn 0.871521 -0.490358 -3.73017e-17
vn 0.926932 -0.375229 0
vn 0.967237 -0.253873 0
vn 0.967237 -0.253873 0
vn 0.991727 -0.128366 0
vn 0.999987 0.00503254 0
vn 0.999987 0.00503254 0
vn 0.990385 0.138342 0
vn 0.961929 0.273301 0
vn 0.961929 0.273301 0
vn 0.915173 0.40306 0
vn 0.885736 0.464189 0
vn 0.885736 0.464189 0
vn 0.852222 0.52318 0
vn 0.962347 0.271825 0
vn 0.962347 0.271825 0
vn 1 0 0
vn 1 0 0
vn 1 0 0
vn 0 1 0
vn 0 1 0
vn 0 1 0
vn 0 1 0
vn 0 1 0
vn -1 0 0
vn -1 0 0
vn -0.962352 -0.271807 0
vn -0.962352 -0.271807 0
vn -1 0 0
vn -0.852241 -0.523149 0
vn -0.915163 -0.403083 4.47751e-17
vn -0.915163 -0.403083 -4.47751e-17
vn -0.961269 -0.275611 0
vn -0.999946 -0.0103488 4.60172e-17
vn -0.999946 -0.0103488 -4.60172e-17
vn -0.966768 0.255657 0
vn -0.87024 0.492628 0
vn -0.87024 0.492628 0
vn -0.716736 0.697344 0
vn -0.505896 0.862594 0
vn -0.505896 0.862594 0
vn -0.258753 0.965943 0
vn -0.130492 0.991449 0
vn -0.130492 0.991449 0
vn 0 1 0
vn -0.0996921 0.995018 0
vn -0.0996921 0.995018 0
vn -0.198391 0.980123 0
vn -0.386342 0.922356 0
vn -0.386342 0.922356 0
vn -0.559356 0.828928 0
vn -0.707107 0.707107 0
vn -0.707107 0.707107 0
vn -0.828928 0.559356 0
vn -0.922356 0.386342 -4.61114e-17
vn -0.922356 0.386342 4.61114e-17
vn -0.980123 0.198391 0
vn -0.995018 0.0996922 -4.54464e-17
vn -0.995018 0.0996922 4.54464e-17
vn -1 0 0
vn -0.99502 -0.0996713 0
vn -0.99502 -0.0996713 0
vn -0.980131 -0.19835 0
vn -0.922376 -0.386293 3.89832e-17
vn -0.922376 -0.386293 -3.89832e-17
vn -0.828964 -0.559303 0
vn -0.707143 -0.707071 3.89439e-17
vn -0.707143 -0.707071 -3.89439e-17
vn -0.559387 -0.828907 0
vn -0.386363 -0.922347 0
vn -0.386363 -0.922347 0
vn -0.198399 -0.980121 0
vn -0.099696 -0.995018 0
vn -0.099696 -0.995018 0
vn 0 -1 0
vn 0 -1 0
vn 0 -1 0
vn 0.839535 -0.543306 0
vn 0.839535 -0.543306 -1.93711e-17
vn 0.839535 -0.543306 -1.93711e-17
vn 0.839535 -0.543306 1.93711e-17
vn 0.839535 -0.543306 1.93711e-17
vn 0 -1 0
vn 0 -1 0
vn 0 -1 0
vn 0 -1 0
vn 0 -1 0
vn -0.778486 -0.627663 0
vn -0.778486 -0.627663 -1.77918e-17
vn -0.778486 -0.627663 -1.77918e-17
vn -0.778486 -0.627663 1.77918e-17
vn -0.778486 -0.627663 1.77918e-17
vn 0 -1 0
vn 0 -1 0
vn 0 -1 0
vn 0 -1 0
vn 0 -1 0
vn 0.855449 -0.517887 0
vn 0.855449 -0.517887 -1.96674e-17
vn 0.855449 -0.517887 -1.96674e-17
vn 0.855449 -0.517887 1.96674e-17
vn 0.855449 -0.517887 1.96674e-17
vn 0 -1 0
vn 0 -1 0
vn 0 -1 0
vn 0 -1 0
vn 0 -1 0
vn -0.871844 -0.489783 0
vn -0.871844 -0.489783 -1.99868e-17
vn -0.871844 -0.489783 -1.99868e-17
vn -0.871844 -0.489783 1.99868e-17
vn -0.871844 -0.489783 1.99868e-17
vn 0 -1 0
vn 0 -1 0
vn 0.0964721 -0.995336 0
vn 0.0964721 -0.995336 0
vn 0 -1 0
vn 0.192044 -0.981386 0
vn 0.376902 -0.926253 0
vn 0.376902 -0.926253 0
vn 0.547734 -0.836652 0
vn 0.69592 -0.718119 0
vn 0.69592 -0.718119 0
vn 0.819046 -0.573728 0
vn 0.914 -0.405715 0
vn 0.914 -0.405715 0
vn 0.974912 -0.222592 0
vn 0.991852 -0.127396 -4.45082e-17
vn 0.991852 -0.127396 4.45082e-17
vn 0.999519 -0.0310092 0
vn 0.996823 -0.0796539 -4.43527e-17
vn 0.996823 -0.0796539 4.43527e-17
vn 0.99176 -0.128109 0
vn 0.97456 -0.224126 9.21972e-19
vn 0.97456 -0.224126 -9.21972e-19
vn 0.948088 -0.318009 0
vn 0.913111 -0.407712 4.40966e-17
vn 0.913111 -0.407712 -4.40966e-17
vn 0.869669 -0.493635 0
vn 0.818886 -0.573956 4.31696e-17
vn 0.818886 -0.573956 -4.31696e-17
vn 0.760709 -0.649094 0
vn 0.696023 -0.71802 0
vn 0.696023 -0.71802 0
vn 0.625117 -0.780531 0
vn 0.548201 -0.836347 0
vn 0.548201 -0.836347 0
vn 0.466333 -0.884609 0
vn 0.379087 -0.925361 0
vn 0.379087 -0.925361 0
vn 0.288325 -0.957533 0
vn 0.193641 -0.981072 -4.50316e-18
vn 0.193641 -0.981072 4.50316e-18
vn 0.0971135 -0.995273 0
vn -0.00175717 -0.999998 -4.50379e-18
vn -0.00175717 -0.999998 4.50379e-18
vn -0.100611 -0.994926 0
vn -0.199841 -0.979828 0
vn -0.199841 -0.979828 0
vn -0.297058 -0.95486 0
vn -0.389161 -0.92117 -2.72286e-17
vn -0.389161 -0.92117 2.72286e-17
vn -0.477521 -0.87862 0
vn -0.559634 -0.82874 -2.72233e-17
vn -0.559634 -0.82874 2.72233e-17
vn -0.636581 -0.77121 0
vn -0.707107 -0.707107 0
vn -0.707107 -0.707107 0
vn -0.77121 -0.636581 0
vn -0.82874 -0.559634 -4.07412e-17
vn -0.82874 -0.559634 4.07412e-17
vn -0.87862 -0.477521 0
vn -0.92117 -0.389161 -4.16215e-17
vn -0.92117 -0.389161 4.16215e-17
vn -0.95486 -0.297058 0
vn -0.979828 -0.199841 -8.72596e-19
vn -0.979828 -0.199841 8.72596e-19
vn -0.994926 -0.100611 0
vn -0.998731 -0.0503693 0
vn -0.998731 -0.0503693 0
vn -1 0 0
vn -0.995024 0.0996309 0
vn -0.995024 0.0996309 0
vn -0.980147 0.19827 0
vn -0.922411 0.38621 -3.90259e-17
vn -0.922411 0.38621 3.90259e-17
vn -0.829019 0.559221 0
vn -0.707182 0.707031 -3.89869e-17
vn -0.707182 0.707031 3.89869e-17
vn -0.559398 0.828899 0
vn -0.386357 0.922349 0
vn -0.386357 0.922349 0
vn -0.198373 0.980127 0
vn -6.00314e-08 1 0
vn -6.00314e-08 1 0
vn 0.198373 0.980127 0
vn 0.386357 0.922349 0
vn 0.386357 0.922349 0
vn 0.559398 0.828899 0
vn 0.707182 0.707031 0
vn 0.707182 0.707031 0
vn 0.829019 0.559221 0
vn 0.922411 0.38621 0
vn 0.922411 0.38621 0
vn 0.980147 0.19827 0
vn 0.995024 0.0996309 0
vn 0.995024 0.0996309 0
vn 1 0 0
vn 1 0 0
vn 1 0 0
vn 0 1 0
vn 0 1 0
vn 0 1 0
vn 0 1 0
vn 0 1 0
vn -1 0 0
vn -1 0 0
vn -0.995024 -0.0996342 0
vn -0.995024 -0.0996342 0
vn -1 0 0
vn -0.980146 -0.198277 0
vn -0.922412 -0.386207 -3.89981e-17
vn -0.922412 -0.386207 3.89981e-17
vn -0.829026 -0.55921 0
vn -0.707192 -0.707022 -3.89592e-17
vn -0.707192 -0.707022 3.89592e-17
vn -0.559409 -0.828892 0
vn -0.386359 -0.922349 9.33819e-18
vn -0.386359 -0.922349 -9.33819e-18
vn -0.198365 -0.980128 0
vn 8.75816e-15 -1 9.34325e-18
vn 8.75816e-15 -1 -9.34325e-18
vn 0.198365 -0.980128 0
vn 0.386359 -0.922349 0
vn 0.386359 -0.922349 0
vn 0.559409 -0.828892 0
vn 0.707192 -0.707022 -3.89592e-17
vn 0.707192 -0.707022 3.89592e-17
vn 0.829026 -0.55921 0
vn 0.922412 -0.386207 -3.89981e-17
vn 0.922412 -0.386207 3.89981e-17
vn 0.980146 -0.198277 0


# Faces: 
usemtl material0
f 185/67/1 186/68/1 151/33/1
f 151/33/1 186/68/1 150/32/1
f 185/67/1 151/33/1 152/34/1
f 187/69/1 188/70/1 149/31/1
f 149/31/1 150/32/1 187/69/1
f 188/70/1 189/71/1 149/31/1
f 187/69/1 150/32/1 186/68/1
f 154/36/1 183/65/1 153/35/1
f 153/35/1 183/65/1 184/66/1
f 155/37/1 183/65/1 154/36/1
f 153/35/1 184/66/1 185/67/1
f 148/30/1 189/71/1 147/29/1
f 149/31/1 189/71/1 148/30/1
f 185/67/1 152/34/1 153/35/1
f 191/73/1 145/27/1 146/28/1
f 145/27/1 191/73/1 192/74/1
f 191/73/1 146/28/1 190/72/1
f 145/27/1 192/74/1 193/75/1
f 195/77/1 196/78/1 142/24/1
f 197/79/1 140/22/1 196/78/1
f 146/28/1 147/29/1 190/72/1
f 144/26/1 193/75/1 194/76/1
f 145/27/1 193/75/1 144/26/1
f 190/72/1 147/29/1 189/71/1
f 141/23/1 142/24/1 196/78/1
f 139/21/1 140/22/1 197/79/1
f 141/23/1 196/78/1 140/22/1
f 142/24/1 143/25/1 194/76/1
f 142/24/1 194/76/1 195/77/1
f 197/79/1 198/80/1 139/21/1
f 182/64/1 155/37/1 181/63/1
f 182/64/1 183/65/1 155/37/1
f 181/63/1 155/37/1 156/38/1
f 181/63/1 156/38/1 180/62/1
f 158/40/1 159/41/1 179/61/1
f 180/62/1 156/38/1 157/39/1
f 180/62/1 157/39/1 158/40/1
f 173/55/1 169/51/1 172/54/1
f 171/53/1 169/51/1 170/52/1
f 169/51/1 171/53/1 172/54/1
f 158/40/1 179/61/1 180/62/1
f 159/41/1 178/60/1 179/61/1
f 177/59/1 178/60/1 160/42/1
f 159/41/1 160/42/1 178/60/1
f 177/59/1 161/43/1 176/58/1
f 161/43/1 177/59/1 160/42/1
f 176/58/1 161/43/1 162/44/1
f 143/25/1 144/26/1 194/76/1
f 162/44/1 163/45/1 176/58/1
f 175/57/1 176/58/1 163/45/1
f 167/49/1 173/55/1 174/56/1
f 173/55/1 168/50/1 169/51/1
f 167/49/1 168/50/1 173/55/1
f 174/56/1 175/57/1 165/47/1
f 166/48/1 174/56/1 165/47/1
f 167/49/1 174/56/1 166/48/1
f 165/47/1 175/57/1 164/46/1
f 175/57/1 163/45/1 164/46/1
f 139/21/1 199/81/1 138/20/1
f 199/81/1 139/21/1 198/80/1
f 200/82/1 138/20/1 199/81/1
f 230/112/1 231/113/1 225/107/1
f 229/111/1 225/107/1 226/108/1
f 225/107/1 229/111/1 230/112/1
f 231/113/1 224/106/1 225/107/1
f 200/82/1 201/83/1 137/19/1
f 200/82/1 137/19/1 138/20/1
f 228/110/1 226/108/1 227/109/1
f 136/18/1 137/19/1 201/83/1
f 229/111/1 226/108/1 228/110/1
f 202/84/1 136/18/1 201/83/1
f 232/114/1 233/115/1 223/105/1
f 223/105/1 233/115/1 222/104/1
f 223/105/1 224/106/1 231/113/1
f 234/116/1 235/117/1 221/103/1
f 222/104/1 233/115/1 221/103/1
f 235/117/1 220/102/1 221/103/1
f 221/103/1 233/115/1 234/116/1
f 218/100/1 219/101/1 119/1/1
f 235/117/1 219/101/1 220/102/1
f 217/99/1 218/100/1 119/1/1
f 119/1/1 120/2/1 217/99/1
f 119/1/1 219/101/1 236/118/1
f 235/117/1 236/118/1 219/101/1
f 223/105/1 231/113/1 232/114/1
f 216/98/1 217/99/1 120/2/1
f 134/16/1 135/17/1 203/85/1
f 202/84/1 135/17/1 136/18/1
f 203/85/1 135/17/1 202/84/1
f 204/86/1 133/15/1 134/16/1
f 133/15/1 205/87/1 132/14/1
f 205/87/1 133/15/1 204/86/1
f 204/86/1 134/16/1 203/85/1
f 205/87/1 131/13/1 132/14/1
f 131/13/1 205/87/1 206/88/1
f 130/12/1 131/13/1 206/88/1
f 206/88/1 207/89/1 130/12/1
f 207/89/1 208/90/1 129/11/1
f 128/10/1 208/90/1 209/91/1
f 208/90/1 128/10/1 129/11/1
f 207/89/1 129/11/1 130/12/1
f 214/96/1 215/97/1 123/5/1
f 124/6/1 213/95/1 214/96/1
f 216/98/1 121/3/1 122/4/1
f 121/3/1 216/98/1 120/2/1
f 123/5/1 215/97/1 122/4/1
f 122/4/1 215/97/1 216/98/1
f 124/6/1 214/96/1 123/5/1
f 127/9/1 210/92/1 126/8/1
f 127/9/1 128/10/1 210/92/1
f 210/92/1 211/93/1 126/8/1
f 210/92/1 128/10/1 209/91/1
f 212/94/1 124/6/1 125/7/1
f 124/6/1 212/94/1 213/95/1
f 126/8/1 211/93/1 125/7/1
f 125/7/1 211/93/1 212/94/1
f 68/186/2 67/185/2 33/151/2
f 68/186/2 33/151/2 32/150/2
f 33/151/2 67/185/2 34/152/2
f 70/188/2 69/187/2 31/149/2
f 32/150/2 31/149/2 69/187/2
f 71/189/2 70/188/2 31/149/2
f 32/150/2 69/187/2 68/186/2
f 65/183/2 36/154/2 35/153/2
f 65/183/2 35/153/2 66/184/2
f 65/183/2 37/155/2 36/154/2
f 66/184/2 35/153/2 67/185/2
f 71/189/2 30/148/2 29/147/2
f 71/189/2 31/149/2 30/148/2
f 34/152/2 67/185/2 35/153/2
f 27/145/2 73/191/2 28/146/2
f 73/191/2 27/145/2 74/192/2
f 28/146/2 73/191/2 72/190/2
f 74/192/2 27/145/2 75/193/2
f 78/196/2 77/195/2 24/142/2
f 22/140/2 79/197/2 78/196/2
f 29/147/2 28/146/2 72/190/2
f 75/193/2 26/144/2 76/194/2
f 75/193/2 27/145/2 26/144/2
f 29/147/2 72/190/2 71/189/2
f 24/142/2 23/141/2 78/196/2
f 22/140/2 21/139/2 79/197/2
f 78/196/2 23/141/2 22/140/2
f 25/143/2 24/142/2 76/194/2
f 76/194/2 24/142/2 77/195/2
f 80/198/2 79/197/2 21/139/2
f 37/155/2 64/182/2 63/181/2
f 65/183/2 64/182/2 37/155/2
f 37/155/2 63/181/2 38/156/2
f 38/156/2 63/181/2 62/180/2
f 41/159/2 40/158/2 61/179/2
f 38/156/2 62/180/2 39/157/2
f 39/157/2 62/180/2 40/158/2
f 51/169/2 55/173/2 54/172/2
f 51/169/2 53/171/2 52/170/2
f 53/171/2 51/169/2 54/172/2
f 61/179/2 40/158/2 62/180/2
f 60/178/2 41/159/2 61/179/2
f 60/178/2 59/177/2 42/160/2
f 42/160/2 41/159/2 60/178/2
f 43/161/2 59/177/2 58/176/2
f 59/177/2 43/161/2 42/160/2
f 43/161/2 58/176/2 44/162/2
f 26/144/2 25/143/2 76/194/2
f 45/163/2 44/162/2 58/176/2
f 58/176/2 57/175/2 45/163/2
f 55/173/2 49/167/2 56/174/2
f 50/168/2 55/173/2 51/169/2
f 50/168/2 49/167/2 55/173/2
f 57/175/2 56/174/2 47/165/2
f 56/174/2 48/166/2 47/165/2
f 56/174/2 49/167/2 48/166/2
f 57/175/2 47/165/2 46/164/2
f 45/163/2 57/175/2 46/164/2
f 81/199/2 21/139/2 20/138/2
f 21/139/2 81/199/2 80/198/2
f 20/138/2 82/200/2 81/199/2
f 113/231/2 112/230/2 107/225/2
f 107/225/2 111/229/2 108/226/2
f 111/229/2 107/225/2 112/230/2
f 106/224/2 113/231/2 107/225/2
f 83/201/2 82/200/2 19/137/2
f 19/137/2 82/200/2 20/138/2
f 108/226/2 110/228/2 109/227/2
f 19/137/2 18/136/2 83/201/2
f 108/226/2 111/229/2 110/228/2
f 18/136/2 84/202/2 83/201/2
f 115/233/2 114/232/2 105/223/2
f 115/233/2 105/223/2 104/222/2
f 106/224/2 105/223/2 113/231/2
f 117/235/2 116/234/2 103/221/2
f 115/233/2 104/222/2 103/221/2
f 102/220/2 117/235/2 103/221/2
f 115/233/2 103/221/2 116/234/2
f 101/219/2 100/218/2 1/119/2
f 101/219/2 117/235/2 102/220/2
f 100/218/2 99/217/2 1/119/2
f 2/120/2 1/119/2 99/217/2
f 101/219/2 1/119/2 118/236/2
f 118/236/2 117/235/2 101/219/2
f 113/231/2 105/223/2 114/232/2
f 99/217/2 98/216/2 2/120/2
f 17/135/2 16/134/2 85/203/2
f 17/135/2 84/202/2 18/136/2
f 17/135/2 85/203/2 84/202/2
f 15/133/2 86/204/2 16/134/2
f 87/205/2 15/133/2 14/132/2
f 15/133/2 87/205/2 86/204/2
f 16/134/2 86/204/2 85/203/2
f 13/131/2 87/205/2 14/132/2
f 87/205/2 13/131/2 88/206/2
f 13/131/2 12/130/2 88/206/2
f 89/207/2 88/206/2 12/130/2
f 90/208/2 89/207/2 11/129/2
f 90/208/2 10/128/2 91/209/2
f 10/128/2 90/208/2 11/129/2
f 11/129/2 89/207/2 12/130/2
f 97/215/2 96/214/2 5/123/2
f 95/213/2 6/124/2 96/214/2
f 3/121/2 98/216/2 4/122/2
f 98/216/2 3/121/2 2/120/2
f 97/215/2 5/123/2 4/122/2
f 97/215/2 4/122/2 98/216/2
f 96/214/2 6/124/2 5/123/2
f 92/210/2 9/127/2 8/126/2
f 10/128/2 9/127/2 92/210/2
f 93/211/2 92/210/2 8/126/2
f 10/128/2 92/210/2 91/209/2
f 6/124/2 94/212/2 7/125/2
f 94/212/2 6/124/2 95/213/2
f 93/211/2 8/126/2 7/125/2
f 93/211/2 7/125/2 94/212/2
f 237/515/3 1/237/4 2/238/5
f 237/515/3 2/238/5 120/377/6
f 237/515/3 120/377/6 119/376/7
f 237/515/3 119/376/7 1/237/4
f 238/516/8 2/238/5 3/239/9
f 238/516/8 3/239/9 121/378/10
f 238/516/8 121/378/10 120/377/6
f 238/516/8 120/377/6 2/238/5
f 239/517/11 3/239/9 4/240/12
f 239/517/11 4/240/12 122/379/13
f 239/517/11 122/379/13 121/378/10
f 239/517/11 121/378/10 3/239/9
f 240/518/14 4/240/12 5/241/15
f 240/518/14 5/241/15 123/380/16
f 240/518/14 123/380/16 122/379/13
f 240/518/14 122/379/13 4/240/12
f 241/519/17 5/241/15 6/242/18
f 241/519/17 6/242/18 124/381/19
f 241/519/17 124/381/19 123/380/16
f 241/519/17 123/380/16 5/241/15
f 242/520/20 6/242/18 7/243/21
f 242/520/20 7/243/21 125/382/22
f 242/520/20 125/382/22 124/381/19
f 242/520/20 124/381/19 6/242/18
f 243/521/23 7/243/21 8/244/24
f 243/521/23 8/244/24 126/383/25
f 243/521/23 126/383/25 125/382/22
f 243/521/23 125/382/22 7/243/21
f 244/522/26 8/244/24 9/245/27
f 244/522/26 9/245/27 127/384/28
f 244/522/26 127/384/28 126/383/25
f 244/522/26 126/383/25 8/244/24
f 245/523/29 9/245/27 10/246/30
f 245/523/29 10/246/30 128/385/31
f 245/523/29 128/385/31 127/384/28
f 245/523/29 127/384/28 9/245/27
f 246/524/32 10/246/30 11/247/33
f 246/524/32 11/247/33 129/386/34
f 246/524/32 129/386/34 128/385/31
f 246/524/32 128/385/31 10/246/30
f 247/525/35 11/247/33 12/248/36
f 247/525/35 12/248/36 130/387/37
f 247/525/35 130/387/37 129/386/34
f 247/525/35 129/386/34 11/247/33
f 248/526/38 12/248/36 13/249/39
f 248/526/38 13/249/39 131/388/40
f 248/526/38 131/388/40 130/387/37
f 248/526/38 130/387/37 12/248/36
f 249/527/41 13/249/39 14/250/42
f 249/527/41 14/250/42 132/389/43
f 249/527/41 132/389/43 131/388/40
f 249/527/41 131/388/40 13/249/39
f 250/528/44 14/250/42 15/251/45
f 250/528/44 15/251/45 133/390/46
f 250/528/44 133/390/46 132/389/43
f 250/528/44 132/389/43 14/250/42
f 251/529/47 15/251/45 16/252/48
f 251/529/47 16/252/48 134/391/49
f 251/529/47 134/391/49 133/390/46
f 251/529/47 133/390/46 15/251/45
f 252/530/50 16/252/48 17/253/51
f 252/530/50 17/253/51 135/392/52
f 252/530/50 135/392/52 134/391/49
f 252/530/50 134/391/49 16/252/48
f 253/531/53 17/253/51 18/254/54
f 253/531/53 18/254/54 136/393/55
f 253/531/53 136/393/55 135/392/52
f 253/531/53 135/392/52 17/253/51
f 254/532/56 18/254/54 19/255/57
f 254/532/56 19/255/57 137/394/58
f 254/532/56 137/394/58 136/393/55
f 254/532/56 136/393/55 18/254/54
f 255/533/59 19/255/57 20/256/60
f 255/533/59 20/256/60 138/395/61
f 255/533/59 138/395/61 137/394/58
f 255/533/59 137/394/58 19/255/57
f 256/534/62 20/256/60 21/257/63
f 256/534/62 21/257/63 139/396/64
f 256/534/62 139/396/64 138/395/61
f 256/534/62 138/395/61 20/256/60
f 257/535/65 21/257/63 22/258/66
f 257/535/65 22/258/66 140/397/67
f 257/535/65 140/397/67 139/396/64
f 257/535/65 139/396/64 21/257/63
f 258/536/68 22/258/66 23/259/69
f 258/536/68 23/259/69 141/398/70
f 258/536/68 141/398/70 140/397/67
f 258/536/68 140/397/67 22/258/66
f 259/537/71 23/259/69 24/260/72
f 259/537/71 24/260/72 142/399/73
f 259/537/71 142/399/73 141/398/70
f 259/537/71 141/398/70 23/259/69
f 260/538/74 24/261/75 25/262/76
f 260/538/74 25/262/76 143/401/77
f 260/538/74 143/401/77 142/400/78
f 260/538/74 142/400/78 24/261/75
f 261/539/79 25/263/80 26/264/81
f 261/539/79 26/264/81 144/403/82
f 261/539/79 144/403/82 143/402/83
f 261/539/79 143/402/83 25/263/80
f 262/540/84 26/265/85 27/266/86
f 262/540/84 27/266/86 145/405/87
f 262/540/84 145/405/87 144/404/88
f 262/540/84 144/404/88 26/265/85
f 263/541/89 27/267/90 28/268/91
f 263/541/89 28/268/91 146/407/92
f 263/541/89 146/407/92 145/406/93
f 263/541/89 145/406/93 27/267/90
f 264/542/94 28/269/95 29/270/96
f 264/542/94 29/270/96 147/409/97
f 264/542/94 147/409/97 146/408/98
f 264/542/94 146/408/98 28/269/95
f 265/543/99 29/271/100 30/272/101
f 265/543/99 30/272/101 148/411/102
f 265/543/99 148/411/102 147/410/103
f 265/543/99 147/410/103 29/271/100
f 266/544/104 30/273/105 31/274/106
f 266/544/104 31/274/106 149/413/107
f 266/544/104 149/413/107 148/412/108
f 266/544/104 148/412/108 30/273/105
f 267/545/109 31/275/110 32/276/111
f 267/545/109 32/276/111 150/415/112
f 267/545/109 150/415/112 149/414/113
f 267/545/109 149/414/113 31/275/110
f 268/546/114 32/276/111 33/277/115
f 268/546/114 33/277/115 151/416/116
f 268/546/114 151/416/116 150/415/112
f 268/546/114 150/415/112 32/276/111
f 269/547/117 33/277/115 34/278/118
f 269/547/117 34/278/118 152/417/119
f 269/547/117 152/417/119 151/416/116
f 269/547/117 151/416/116 33/277/115
f 270/548/120 34/278/118 35/279/121
f 270/548/120 35/279/121 153/418/122
f 270/548/120 153/418/122 152/417/119
f 270/548/120 152/417/119 34/278/118
f 271/549/123 35/279/121 36/280/124
f 271/549/123 36/280/124 154/419/125
f 271/549/123 154/419/125 153/418/122
f 271/549/123 153/418/122 35/279/121
f 272/550/126 36/280/124 37/281/127
f 272/550/126 37/281/127 155/420/128
f 272/550/126 155/420/128 154/419/125
f 272/550/126 154/419/125 36/280/124
f 273/551/129 37/281/127 38/282/130
f 273/551/129 38/282/130 156/421/131
f 273/551/129 156/421/131 155/420/128
f 273/551/129 155/420/128 37/281/127
f 274/552/132 38/282/130 39/283/133
f 274/552/132 39/283/133 157/422/134
f 274/552/132 157/422/134 156/421/131
f 274/552/132 156/421/131 38/282/130
f 275/553/135 39/283/133 40/284/136
f 275/553/135 40/284/136 158/423/137
f 275/553/135 158/423/137 157/422/134
f 275/553/135 157/422/134 39/283/133
f 276/554/138 40/284/136 41/285/139
f 276/554/138 41/285/139 159/424/140
f 276/554/138 159/424/140 158/423/137
f 276/554/138 158/423/137 40/284/136
f 277/555/141 41/285/139 42/286/142
f 277/555/141 42/286/142 160/425/143
f 277/555/141 160/425/143 159/424/140
f 277/555/141 159/424/140 41/285/139
f 278/556/144 42/286/142 43/287/145
f 278/556/144 43/287/145 161/426/146
f 278/556/144 161/426/146 160/425/143
f 278/556/144 160/425/143 42/286/142
f 279/557/147 43/287/145 44/288/148
f 279/557/147 44/288/148 162/427/149
f 279/557/147 162/427/149 161/426/146
f 279/557/147 161/426/146 43/287/145
f 280/558/150 44/288/148 45/289/151
f 280/558/150 45/289/151 163/428/152
f 280/558/150 163/428/152 162/427/149
f 280/558/150 162/427/149 44/288/148
f 281/559/153 45/289/151 46/290/154
f 281/559/153 46/290/154 164/429/155
f 281/559/153 164/429/155 163/428/152
f 281/559/153 163/428/152 45/289/151
f 282/560/156 46/290/154 47/291/157
f 282/560/156 47/291/157 165/430/158
f 282/560/156 165/430/158 164/429/155
f 282/560/156 164/429/155 46/290/154
f 283/561/159 47/291/157 48/292/160
f 283/561/159 48/292/160 166/431/161
f 283/561/159 166/431/161 165/430/158
f 283/561/159 165/430/158 47/291/157
f 284/562/162 48/292/160 49/293/163
f 284/562/162 49/293/163 167/432/164
f 284/562/162 167/432/164 166/431/161
f 284/562/162 166/431/161 48/292/160
f 285/563/165 49/293/163 50/294/166
f 285/563/165 50/294/166 168/433/167
f 285/563/165 168/433/167 167/432/164
f 285/563/165 167/432/164 49/293/163
f 286/564/168 50/294/166 51/295/169
f 286/564/168 51/295/169 169/434/170
f 286/564/168 169/434/170 168/433/167
f 286/564/168 168/433/167 50/294/166
f 287/565/171 51/295/169 52/296/172
f 287/565/171 52/296/172 170/435/173
f 287/565/171 170/435/173 169/434/170
f 287/565/171 169/434/170 51/295/169
f 288/566/174 52/297/175 53/298/176
f 288/566/174 53/298/176 171/437/177
f 288/566/174 171/437/177 170/436/178
f 288/566/174 170/436/178 52/297/175
f 289/567/179 53/299/180 54/300/181
f 289/567/179 54/300/181 172/439/182
f 289/567/179 172/439/182 171/438/183
f 289/567/179 171/438/183 53/299/180
f 290/568/184 54/300/181 55/301/185
f 290/568/184 55/301/185 173/440/186
f 290/568/184 173/440/186 172/439/182
f 290/568/184 172/439/182 54/300/181
f 291/569/187 55/301/185 56/302/188
f 291/569/187 56/302/188 174/441/189
f 291/569/187 174/441/189 173/440/186
f 291/569/187 173/440/186 55/301/185
f 292/570/190 56/302/188 57/303/191
f 292/570/190 57/303/191 175/442/192
f 292/570/190 175/442/192 174/441/189
f 292/570/190 174/441/189 56/302/188
f 293/571/193 57/303/191 58/304/194
f 293/571/193 58/304/194 176/443/195
f 293/571/193 176/443/195 175/442/192
f 293/571/193 175/442/192 57/303/191
f 294/572/196 58/304/194 59/305/197
f 294/572/196 59/305/197 177/444/198
f 294/572/196 177/444/198 176/443/195
f 294/572/196 176/443/195 58/304/194
f 295/573/199 59/305/197 60/306/200
f 295/573/199 60/306/200 178/445/201
f 295/573/199 178/445/201 177/444/198
f 295/573/199 177/444/198 59/305/197
f 296/574/202 60/306/200 61/307/203
f 296/574/202 61/307/203 179/446/204
f 296/574/202 179/446/204 178/445/201
f 296/574/202 178/445/201 60/306/200
f 297/575/205 61/307/203 62/308/206
f 297/575/205 62/308/206 180/447/207
f 297/575/205 180/447/207 179/446/204
f 297/575/205 179/446/204 61/307/203
f 298/576/208 62/308/206 63/309/209
f 298/576/208 63/309/209 181/448/210
f 298/576/208 181/448/210 180/447/207
f 298/576/208 180/447/207 62/308/206
f 299/577/211 63/309/209 64/310/212
f 299/577/211 64/310/212 182/449/213
f 299/577/211 182/449/213 181/448/210
f 299/577/211 181/448/210 63/309/209
f 300/578/214 64/310/212 65/311/215
f 300/578/214 65/311/215 183/450/216
f 300/578/214 183/450/216 182/449/213
f 300/578/214 182/449/213 64/310/212
f 301/579/217 65/311/215 66/312/218
f 301/579/217 66/312/218 184/451/219
f 301/579/217 184/451/219 183/450/216
f 301/579/217 183/450/216 65/311/215
f 302/580/220 66/312/218 67/313/221
f 302/580/220 67/313/221 185/452/222
f 302/580/220 185/452/222 184/451/219
f 302/580/220 184/451/219 66/312/218
f 303/581/223 67/313/221 68/314/224
f 303/581/223 68/314/224 186/453/225
f 303/581/223 186/453/225 185/452/222
f 303/581/223 185/452/222 67/313/221
f 304/582/226 68/314/224 69/315/227
f 304/582/226 69/315/227 187/454/228
f 304/582/226 187/454/228 186/453/225
f 304/582/226 186/453/225 68/314/224
f 305/583/229 69/315/227 70/316/230
f 305/583/229 70/316/230 188/455/231
f 305/583/229 188/455/231 187/454/228
f 305/583/229 187/454/228 69/315/227
f 306/584/232 70/317/233 71/318/234
f 306/584/232 71/318/234 189/457/235
f 306/584/232 189/457/235 188/456/236
f 306/584/232 188/456/236 70/317/233
f 307/585/237 71/319/238 72/320/239
f 307/585/237 72/320/239 190/459/240
f 307/585/237 190/459/240 189/458/241
f 307/585/237 189/458/241 71/319/238
f 308/586/242 72/321/243 73/322/244
f 308/586/242 73/322/244 191/461/245
f 308/586/242 191/461/245 190/460/246
f 308/586/242 190/460/246 72/321/243
f 309/587/247 73/323/248 74/324/249
f 309/587/247 74/324/249 192/463/250
f 309/587/247 192/463/250 191/462/251
f 309/587/247 191/462/251 73/323/248
f 310/588/252 74/325/253 75/326/254
f 310/588/252 75/326/254 193/465/255
f 310/588/252 193/465/255 192/464/256
f 310/588/252 192/464/256 74/325/253
f 311/589/257 75/327/258 76/328/259
f 311/589/257 76/328/259 194/467/260
f 311/589/257 194/467/260 193/466/261
f 311/589/257 193/466/261 75/327/258
f 312/590/262 76/329/263 77/330/264
f 312/590/262 77/330/264 195/469/265
f 312/590/262 195/469/265 194/468/266
f 312/590/262 194/468/266 76/329/263
f 313/591/267 77/331/268 78/332/269
f 313/591/267 78/332/269 196/471/270
f 313/591/267 196/471/270 195/470/271
f 313/591/267 195/470/271 77/331/268
f 314/592/272 78/332/269 79/333/273
f 314/592/272 79/333/273 197/472/274
f 314/592/272 197/472/274 196/471/270
f 314/592/272 196/471/270 78/332/269
f 315/593/275 79/333/273 80/334/276
f 315/593/275 80/334/276 198/473/277
f 315/593/275 198/473/277 197/472/274
f 315/593/275 197/472/274 79/333/273
f 316/594/278 80/334/276 81/335/279
f 316/594/278 81/335/279 199/474/280
f 316/594/278 199/474/280 198/473/277
f 316/594/278 198/473/277 80/334/276
f 317/595/281 81/335/279 82/336/282
f 317/595/281 82/336/282 200/475/283
f 317/595/281 200/475/283 199/474/280
f 317/595/281 199/474/280 81/335/279
f 318/596/284 82/336/282 83/337/285
f 318/596/284 83/337/285 201/476/286
f 318/596/284 201/476/286 200/475/283
f 318/596/284 200/475/283 82/336/282
f 319/597/287 83/337/285 84/338/288
f 319/597/287 84/338/288 202/477/289
f 319/597/287 202/477/289 201/476/286
f 319/597/287 201/476/286 83/337/285
f 320/598/290 84/338/288 85/339/291
f 320/598/290 85/339/291 203/478/292
f 320/598/290 203/478/292 202/477/289
f 320/598/290 202/477/289 84/338/288
f 321/599/293 85/339/291 86/340/294
f 321/599/293 86/340/294 204/479/295
f 321/599/293 204/479/295 203/478/292
f 321/599/293 203/478/292 85/339/291
f 322/600/296 86/340/294 87/341/297
f 322/600/296 87/341/297 205/480/298
f 322/600/296 205/480/298 204/479/295
f 322/600/296 204/479/295 86/340/294
f 323/601/299 87/341/297 88/342/300
f 323/601/299 88/342/300 206/481/301
f 323/601/299 206/481/301 205/480/298
f 323/601/299 205/480/298 87/341/297
f 324/602/302 88/342/300 89/343/303
f 324/602/302 89/343/303 207/482/304
f 324/602/302 207/482/304 206/481/301
f 324/602/302 206/481/301 88/342/300
f 325/603/305 89/343/303 90/344/306
f 325/603/305 90/344/306 208/483/307
f 325/603/305 208/483/307 207/482/304
f 325/603/305 207/482/304 89/343/303
f 326/604/308 90/344/306 91/345/309
f 326/604/308 91/345/309 209/484/310
f 326/604/308 209/484/310 208/483/307
f 326/604/308 208/483/307 90/344/306
f 327/605/311 91/345/309 92/346/312
f 327/605/311 92/346/312 210/485/313
f 327/605/311 210/485/313 209/484/310
f 327/605/311 209/484/310 91/345/309
f 328/606/314 92/346/312 93/347/315
f 328/606/314 93/347/315 211/486/316
f 328/606/314 211/486/316 210/485/313
f 328/606/314 210/485/313 92/346/312
f 329/607/317 93/347/315 94/348/318
f 329/607/317 94/348/318 212/487/319
f 329/607/317 212/487/319 211/486/316
f 329/607/317 211/486/316 93/347/315
f 330/608/320 94/348/318 95/349/321
f 330/608/320 95/349/321 213/488/322
f 330/608/320 213/488/322 212/487/319
f 330/608/320 212/487/319 94/348/318
f 331/609/323 95/349/321 96/350/324
f 331/609/323 96/350/324 214/489/325
f 331/609/323 214/489/325 213/488/322
f 331/609/323 213/488/322 95/349/321
f 332/610/326 96/350/324 97/351/327
f 332/610/326 97/351/327 215/490/328
f 332/610/326 215/490/328 214/489/325
f 332/610/326 214/489/325 96/350/324
f 333/611/329 97/351/327 98/352/330
f 333/611/329 98/352/330 216/491/331
f 333/611/329 216/491/331 215/490/328
f 333/611/329 215/490/328 97/351/327
f 334/612/332 98/352/330 99/353/333
f 334/612/332 99/353/333 217/492/334
f 334/612/332 217/492/334 216/491/331
f 334/612/332 216/491/331 98/352/330
f 335/613/335 99/353/333 100/354/336
f 335/613/335 100/354/336 218/493/337
f 335/613/335 218/493/337 217/492/334
f 335/613/335 217/492/334 99/353/333
f 336/614/338 100/354/336 101/355/339
f 336/614/338 101/355/339 219/494/340
f 336/614/338 219/494/340 218/493/337
f 336/614/338 218/493/337 100/354/336
f 337/615/341 101/355/339 102/356/342
f 337/615/341 102/356/342 220/495/343
f 337/615/341 220/495/343 219/494/340
f 337/615/341 219/494/340 101/355/339
f 338/616/344 102/356/342 103/357/345
f 338/616/344 103/357/345 221/496/346
f 338/616/344 221/496/346 220/495/343
f 338/616/344 220/495/343 102/356/342
f 339/617/347 103/357/345 104/358/348
f 339/617/347 104/358/348 222/497/349
f 339/617/347 222/497/349 221/496/346
f 339/617/347 221/496/346 103/357/345
f 340/618/350 104/358/348 105/359/351
f 340/618/350 105/359/351 223/498/352
f 340/618/350 223/498/352 222/497/349
f 340/618/350 222/497/349 104/358/348
f 341/619/353 105/359/351 106/360/354
f 341/619/353 106/360/354 224/499/355
f 341/619/353 224/499/355 223/498/352
f 341/619/353 223/498/352 105/359/351
f 342/620/356 106/360/354 107/361/357
f 342/620/356 107/361/357 225/500/358
f 342/620/356 225/500/358 224/499/355
f 342/620/356 224/499/355 106/360/354
f 343/621/359 107/361/357 108/362/360
f 343/621/359 108/362/360 226/501/361
f 343/621/359 226/501/361 225/500/358
f 343/621/359 225/500/358 107/361/357
f 344/622/362 108/362/360 109/363/363
f 344/622/362 109/363/363 227/502/364
f 344/622/362 227/502/364 226/501/361
f 344/622/362 226/501/361 108/362/360
f 345/623/365 109/364/366 110/365/367
f 345/623/365 110/365/367 228/504/368
f 345/623/365 228/504/368 227/503/369
f 345/623/365 227/503/369 109/364/366
f 346/624/370 110/366/371 111/367/372
f 346/624/370 111/367/372 229/506/373
f 346/624/370 229/506/373 228/505/374
f 346/624/370 228/505/374 110/366/371
f 347/625/375 111/367/372 112/368/376
f 347/625/375 112/368/376 230/507/377
f 347/625/375 230/507/377 229/506/373
f 347/625/375 229/506/373 111/367/372
f 348/626/378 112/368/376 113/369/379
f 348/626/378 113/369/379 231/508/380
f 348/626/378 231/508/380 230/507/377
f 348/626/378 230/507/377 112/368/376
f 349/627/381 113/369/379 114/370/382
f 349/627/381 114/370/382 232/509/383
f 349/627/381 232/509/383 231/508/380
f 349/627/381 231/508/380 113/369/379
f 350/628/384 114/370/382 115/371/385
f 350/628/384 115/371/385 233/510/386
f 350/628/384 233/510/386 232/509/383
f 350/628/384 232/509/383 114/370/382
f 351/629/387 115/371/385 116/372/388
f 351/629/387 116/372/388 234/511/389
f 351/629/387 234/511/389 233/510/386
f 351/629/387 233/510/386 115/371/385
f 352/630/390 116/372/388 117/373/391
f 352/630/390 117/373/391 235/512/392
f 352/630/390 235/512/392 234/511/389
f 352/630/390 234/511/389 116/372/388
f 353/631/393 117/373/391 118/374/394
f 353/631/393 118/374/394 236/513/395
f 353/631/393 236/513/395 235/512/392
f 353/631/393 235/512/392 117/373/391
f 354/632/396 118/374/394 1/375/4
f 354/632/396 1/375/4 119/514/7
f 354/632/396 119/514/7 236/513/395
f 354/632/396 236/513/395 118/374/394
