mtllib 1in Mechanical Lock.mtl
# Vertex Positions: 
g groupNumber_0
v 13.9748 0.660643 -16.9263
v 13.9748 1.35084 -16.9263
v 13.972 1.37817 -16.9263
v 13.9641 1.40364 -16.9263
v 13.9515 1.42671 -16.9263
v 13.935 1.44682 -16.9263
v 13.9148 1.46341 -16.9263
v 13.8918 1.47595 -16.9263
v 13.8663 1.48388 -16.9263
v 13.839 1.48664 -16.9263
v 13.058 1.48664 -16.9263
v 13.0307 1.48388 -16.9263
v 13.0052 1.47595 -16.9263
v 12.9822 1.46341 -16.9263
v 12.9621 1.44682 -16.9263
v 12.9455 1.42671 -16.9263
v 12.9329 1.40364 -16.9263
v 12.925 1.37817 -16.9263
v 12.9222 1.35084 -16.9263
v 12.9222 -1.34524 -16.9263
v 12.9197 -1.37079 -16.9263
v 12.9123 -1.39461 -16.9263
v 12.9005 -1.41617 -16.9263
v 12.885 -1.43497 -16.9263
v 12.8662 -1.45049 -16.9263
v 12.8447 -1.46221 -16.9263
v 12.8208 -1.46961 -16.9263
v 12.7953 -1.4722 -16.9263
v 3.77376 -1.4722 -16.9263
v 3.69936 -1.3844 -16.9263
v 3.10171 -1.38284 -16.9263
v 3.02205 -1.47782 -16.9263
v -4.06855 -1.47782 -16.9263
v -4.14758 -1.38284 -16.9263
v -4.76741 -1.38284 -16.9263
v -4.84622 -1.47782 -16.9263
v -13.8457 -1.47782 -16.9263
v -13.8925 -1.46836 -16.9263
v -13.9307 -1.44257 -16.9263
v -13.9565 -1.40436 -16.9263
v -13.9659 -1.35761 -16.9263
v -13.9659 1.24221 -16.9263
v -13.9565 1.28896 -16.9263
v -13.9307 1.32717 -16.9263
v -13.8925 1.35296 -16.9263
v -13.8457 1.36242 -16.9263
v -13.1863 1.36242 -16.9263
v -13.8457 1.37124 -16.9263
v -13.8717 1.36862 -16.9263
v -13.8959 1.36109 -16.9263
v -13.9178 1.34918 -16.9263
v -13.9369 1.33341 -16.9263
v -13.9527 1.31431 -16.9263
v -13.9646 1.29239 -16.9263
v -13.9721 1.26819 -16.9263
v -13.9748 1.24221 -16.9263
v -13.9748 -1.35761 -16.9263
v -13.9721 -1.38358 -16.9263
v -13.9646 -1.40779 -16.9263
v -13.9527 -1.4297 -16.9263
v -13.9369 -1.44881 -16.9263
v -13.9178 -1.46458 -16.9263
v -13.8959 -1.47649 -16.9263
v -13.8717 -1.48402 -16.9263
v -13.8457 -1.48664 -16.9263
v -4.84208 -1.48664 -16.9263
v -4.76328 -1.39167 -16.9263
v -4.15171 -1.39167 -16.9263
v -4.07269 -1.48664 -16.9263
v 3.02618 -1.48664 -16.9263
v 3.10585 -1.39167 -16.9263
v 3.69395 -1.39167 -16.9263
v 3.76834 -1.47947 -16.9263
v 12.7953 -1.48102 -16.9263
v 12.8226 -1.47826 -16.9263
v 12.8481 -1.47034 -16.9263
v 12.8712 -1.4578 -16.9263
v 12.8913 -1.44121 -16.9263
v 12.9079 -1.4211 -16.9263
v 12.9204 -1.39804 -16.9263
v 12.9283 -1.37257 -16.9263
v 12.9311 -1.34524 -16.9263
v 12.9311 1.35084 -16.9263
v 12.9337 1.37639 -16.9263
v 12.9411 1.40021 -16.9263
v 12.9528 1.42178 -16.9263
v 12.9683 1.44058 -16.9263
v 12.9871 1.4561 -16.9263
v 13.0087 1.46782 -16.9263
v 13.0325 1.47523 -16.9263
v 13.058 1.47782 -16.9263
v 13.839 1.47782 -16.9263
v 13.8645 1.47523 -16.9263
v 13.8884 1.46782 -16.9263
v 13.9099 1.4561 -16.9263
v 13.9287 1.44058 -16.9263
v 13.9442 1.42178 -16.9263
v 13.956 1.40021 -16.9263
v 13.9634 1.37639 -16.9263
v 13.9659 1.35084 -16.9263
v 13.9659 0.660643 -16.9263
v 13.9748 0.660643 16.9263
v 13.9748 1.35084 16.9263
v 13.972 1.37817 16.9263
v 13.9641 1.40364 16.9263
v 13.9515 1.42671 16.9263
v 13.935 1.44682 16.9263
v 13.9148 1.46341 16.9263
v 13.8918 1.47595 16.9263
v 13.8663 1.48388 16.9263
v 13.839 1.48664 16.9263
v 13.058 1.48664 16.9263
v 13.0307 1.48388 16.9263
v 13.0052 1.47595 16.9263
v 12.9822 1.46341 16.9263
v 12.9621 1.44682 16.9263
v 12.9455 1.42671 16.9263
v 12.9329 1.40364 16.9263
v 12.925 1.37817 16.9263
v 12.9222 1.35084 16.9263
v 12.9222 -1.34524 16.9263
v 12.9197 -1.37079 16.9263
v 12.9123 -1.39461 16.9263
v 12.9005 -1.41617 16.9263
v 12.885 -1.43497 16.9263
v 12.8662 -1.45049 16.9263
v 12.8447 -1.46221 16.9263
v 12.8208 -1.46961 16.9263
v 12.7953 -1.4722 16.9263
v 3.77376 -1.4722 16.9263
v 3.69936 -1.3844 16.9263
v 3.10171 -1.38284 16.9263
v 3.02205 -1.47782 16.9263
v -4.06855 -1.47782 16.9263
v -4.14758 -1.38284 16.9263
v -4.76741 -1.38284 16.9263
v -4.84622 -1.47782 16.9263
v -13.8457 -1.47782 16.9263
v -13.8925 -1.46836 16.9263
v -13.9307 -1.44257 16.9263
v -13.9565 -1.40436 16.9263
v -13.9659 -1.35761 16.9263
v -13.9659 1.24221 16.9263
v -13.9565 1.28896 16.9263
v -13.9307 1.32717 16.9263
v -13.8925 1.35296 16.9263
v -13.8457 1.36242 16.9263
v -13.1863 1.36242 16.9263
v -13.8457 1.37124 16.9263
v -13.8717 1.36862 16.9263
v -13.8959 1.36109 16.9263
v -13.9178 1.34918 16.9263
v -13.9369 1.33341 16.9263
v -13.9527 1.31431 16.9263
v -13.9646 1.29239 16.9263
v -13.9721 1.26819 16.9263
v -13.9748 1.24221 16.9263
v -13.9748 -1.35761 16.9263
v -13.9721 -1.38358 16.9263
v -13.9646 -1.40779 16.9263
v -13.9527 -1.4297 16.9263
v -13.9369 -1.44881 16.9263
v -13.9178 -1.46458 16.9263
v -13.8959 -1.47649 16.9263
v -13.8717 -1.48402 16.9263
v -13.8457 -1.48664 16.9263
v -4.84208 -1.48664 16.9263
v -4.76328 -1.39167 16.9263
v -4.15171 -1.39167 16.9263
v -4.07269 -1.48664 16.9263
v 3.02618 -1.48664 16.9263
v 3.10585 -1.39167 16.9263
v 3.69395 -1.39167 16.9263
v 3.76834 -1.47947 16.9263
v 12.7953 -1.48102 16.9263
v 12.8226 -1.47826 16.9263
v 12.8481 -1.47034 16.9263
v 12.8712 -1.4578 16.9263
v 12.8913 -1.44121 16.9263
v 12.9079 -1.4211 16.9263
v 12.9204 -1.39804 16.9263
v 12.9283 -1.37257 16.9263
v 12.9311 -1.34524 16.9263
v 12.9311 1.35084 16.9263
v 12.9337 1.37639 16.9263
v 12.9411 1.40021 16.9263
v 12.9528 1.42178 16.9263
v 12.9683 1.44058 16.9263
v 12.9871 1.4561 16.9263
v 13.0087 1.46782 16.9263
v 13.0325 1.47523 16.9263
v 13.058 1.47782 16.9263
v 13.839 1.47782 16.9263
v 13.8645 1.47523 16.9263
v 13.8884 1.46782 16.9263
v 13.9099 1.4561 16.9263
v 13.9287 1.44058 16.9263
v 13.9442 1.42178 16.9263
v 13.956 1.40021 16.9263
v 13.9634 1.37639 16.9263
v 13.9659 1.35084 16.9263
v 13.9659 0.660643 16.9263
v 13.9748 1.00574 0
v 13.9734 1.3645 0
v 13.968 1.39091 0
v 13.9578 1.41518 0
v 13.9432 1.43676 0
v 13.9249 1.45512 0
v 13.9033 1.46968 0
v 13.879 1.47991 0
v 13.8526 1.48526 0
v 13.4485 1.48664 0
v 13.0444 1.48526 0
v 13.018 1.47991 0
v 12.9937 1.46968 0
v 12.9721 1.45512 0
v 12.9538 1.43676 0
v 12.9392 1.41518 0
v 12.929 1.39091 0
v 12.9236 1.3645 0
v 12.9222 0.0028009 0
v 12.921 -1.35801 0
v 12.916 -1.3827 0
v 12.9064 -1.40539 0
v 12.8928 -1.42557 0
v 12.8756 -1.44273 0
v 12.8554 -1.45635 0
v 12.8328 -1.46591 0
v 12.8081 -1.47091 0
v 8.28452 -1.4722 0
v 3.73656 -1.4283 0
v 3.40054 -1.38362 0
v 3.06188 -1.43033 0
v -0.523252 -1.47782 0
v -4.10806 -1.43033 0
v -4.4575 -1.38284 0
v -4.80682 -1.43033 0
v -9.34598 -1.47782 0
v -13.8691 -1.47309 0
v -13.9116 -1.45546 0
v -13.9436 -1.42347 0
v -13.9612 -1.38099 0
v -13.9659 -0.0576986 0
v -13.9612 1.26558 0
v -13.9436 1.30806 0
v -13.9116 1.34006 0
v -13.8691 1.35769 0
v -13.516 1.36242 0
v -13.516 1.36683 0
v -13.8587 1.36993 0
v -13.8838 1.36485 0
v -13.9069 1.35513 0
v -13.9274 1.3413 0
v -13.9448 1.32386 0
v -13.9587 1.30335 0
v -13.9684 1.28029 0
v -13.9735 1.2552 0
v -13.9748 -0.0576986 0
v -13.9735 -1.3706 0
v -13.9684 -1.39569 0
v -13.9587 -1.41875 0
v -13.9448 -1.43926 0
v -13.9274 -1.45669 0
v -13.9069 -1.47053 0
v -13.8838 -1.48025 0
v -13.8587 -1.48533 0
v -9.34391 -1.48664 0
v -4.80268 -1.43916 0
v -4.4575 -1.39167 0
v -4.1122 -1.43916 0
v -0.523252 -1.48664 0
v 3.06602 -1.43916 0
v 3.3999 -1.39167 0
v 3.73115 -1.43557 0
v 8.28181 -1.48025 0
v 12.809 -1.47964 0
v 12.8354 -1.4743 0
v 12.8596 -1.46407 0
v 12.8812 -1.4495 0
v 12.8996 -1.43116 0
v 12.9141 -1.40957 0
v 12.9243 -1.3853 0
v 12.9297 -1.3589 0
v 12.9311 0.0028009 0
v 12.9324 1.36362 0
v 12.9374 1.3883 0
v 12.9469 1.411 0
v 12.9605 1.43118 0
v 12.9777 1.44834 0
v 12.9979 1.46196 0
v 13.0206 1.47153 0
v 13.0453 1.47652 0
v 13.4485 1.47782 0
v 13.8518 1.47652 0
v 13.8764 1.47153 0
v 13.8991 1.46196 0
v 13.9193 1.44834 0
v 13.9365 1.43118 0
v 13.9501 1.411 0
v 13.9597 1.3883 0
v 13.9647 1.36362 0
v 13.9659 1.00574 0
v 13.9704 0.660643 0


# Vertex Texture Coordinates :
vt 0.39088 0.0300294
vt 0.39088 0.0396817
vt 0.390841 0.040064
vt 0.39073 0.0404202
vt 0.390555 0.0407428
vt 0.390323 0.041024
vt 0.390042 0.0412561
vt 0.389719 0.0414314
vt 0.389363 0.0415423
vt 0.388981 0.0415809
vt 0.378059 0.0415809
vt 0.377677 0.0415423
vt 0.377321 0.0414314
vt 0.376998 0.0412561
vt 0.376717 0.041024
vt 0.376485 0.0407428
vt 0.37631 0.0404202
vt 0.376199 0.040064
vt 0.37616 0.0396817
vt 0.37616 0.00197755
vt 0.376124 0.00162014
vt 0.37602 0.00128705
vt 0.375857 0.000985473
vt 0.37564 0.0007226
vt 0.375377 0.000505624
vt 0.375075 0.000341737
vt 0.374742 0.000238131
vt 0.374385 0.000201998
vt 0.24822 0.000201998
vt 0.24718 0.00142989
vt 0.238822 0.00145159
vt 0.237707 0.000123416
vt 0.138546 0.000123416
vt 0.137441 0.00145159
vt 0.128773 0.00145159
vt 0.127671 0.000123416
vt 0.00181403 0.000123416
vt 0.00116035 0.000255714
vt 0.000625933 0.000616298
vt 0.000265292 0.00115071
vt 0.00013296 0.00180448
vt 0.00013296 0.0381626
vt 0.000265292 0.0388163
vt 0.000625933 0.0393507
vt 0.00116035 0.0397114
vt 0.00181403 0.0398437
vt 0.0110363 0.0398437
vt 0.00181403 0.0399671
vt 0.0014508 0.0399304
vt 0.00111229 0.0398251
vt 0.000805801 0.0396585
vt 0.000538643 0.039438
vt 0.000318128 0.0391709
vt 0.000151567 0.0388644
vt 4.62683e-05 0.0385259
vt 9.54429e-06 0.0381626
vt 9.54429e-06 0.00180448
vt 4.62683e-05 0.00144126
vt 0.000151567 0.00110275
vt 0.000318128 0.000796257
vt 0.000538643 0.000529099
vt 0.000805801 0.000308584
vt 0.00111229 0.000142022
vt 0.0014508 3.6724e-05
vt 0.00181403 0
vt 0.127729 0
vt 0.128831 0.00132817
vt 0.137383 0.00132817
vt 0.138489 0
vt 0.237765 0
vt 0.238879 0.00132817
vt 0.247104 0.00132817
vt 0.248144 0.000100276
vt 0.374385 7.85814e-05
vt 0.374767 0.00011723
vt 0.375123 0.000228046
vt 0.375446 0.000403334
vt 0.375727 0.000635401
vt 0.375959 0.000916551
vt 0.376134 0.00123909
vt 0.376245 0.00159532
vt 0.376284 0.00197755
vt 0.376284 0.0396817
vt 0.37632 0.0400391
vt 0.376423 0.0403723
vt 0.376587 0.0406739
vt 0.376804 0.0409368
vt 0.377067 0.0411538
vt 0.377369 0.0413177
vt 0.377702 0.0414214
vt 0.378059 0.0414575
vt 0.388981 0.0414575
vt 0.389338 0.0414214
vt 0.389671 0.0413177
vt 0.389973 0.0411538
vt 0.390236 0.0409368
vt 0.390452 0.0406739
vt 0.390616 0.0403723
vt 0.39072 0.0400391
vt 0.390756 0.0396817
vt 0.390756 0.0300294
vt 0.396686 0.0300294
vt 0.396686 0.0396817
vt 0.396725 0.040064
vt 0.396836 0.0404202
vt 0.397011 0.0407428
vt 0.397243 0.041024
vt 0.397524 0.0412561
vt 0.397847 0.0414314
vt 0.398203 0.0415423
vt 0.398585 0.0415809
vt 0.409507 0.0415809
vt 0.409889 0.0415423
vt 0.410245 0.0414314
vt 0.410568 0.0412561
vt 0.410849 0.041024
vt 0.411081 0.0407428
vt 0.411256 0.0404202
vt 0.411367 0.040064
vt 0.411406 0.0396817
vt 0.411406 0.00197755
vt 0.411442 0.00162014
vt 0.411546 0.00128705
vt 0.411709 0.000985473
vt 0.411926 0.0007226
vt 0.412189 0.000505624
vt 0.412491 0.000341737
vt 0.412824 0.000238131
vt 0.413181 0.000201998
vt 0.539346 0.000201998
vt 0.540386 0.00142989
vt 0.548745 0.00145159
vt 0.549859 0.000123416
vt 0.64902 0.000123416
vt 0.650125 0.00145159
vt 0.658793 0.00145159
vt 0.659895 0.000123416
vt 0.785752 0.000123416
vt 0.786406 0.000255714
vt 0.78694 0.000616298
vt 0.787301 0.00115071
vt 0.787433 0.00180448
vt 0.787433 0.0381626
vt 0.787301 0.0388163
vt 0.78694 0.0393507
vt 0.786406 0.0397114
vt 0.785752 0.0398437
vt 0.77653 0.0398437
vt 0.785752 0.0399671
vt 0.786115 0.0399304
vt 0.786454 0.0398251
vt 0.78676 0.0396585
vt 0.787027 0.039438
vt 0.787248 0.0391709
vt 0.787414 0.0388644
vt 0.78752 0.0385259
vt 0.787556 0.0381626
vt 0.787556 0.00180448
vt 0.78752 0.00144126
vt 0.787414 0.00110275
vt 0.787248 0.000796257
vt 0.787027 0.000529099
vt 0.78676 0.000308584
vt 0.786454 0.000142022
vt 0.786115 3.6724e-05
vt 0.785752 0
vt 0.659837 0
vt 0.658735 0.00132817
vt 0.650183 0.00132817
vt 0.649077 0
vt 0.549801 0
vt 0.548687 0.00132817
vt 0.540462 0.00132817
vt 0.539422 0.000100276
vt 0.413181 7.85814e-05
vt 0.412799 0.00011723
vt 0.412443 0.000228046
vt 0.41212 0.000403334
vt 0.411839 0.000635401
vt 0.411607 0.000916551
vt 0.411432 0.00123909
vt 0.411321 0.00159532
vt 0.411282 0.00197755
vt 0.411282 0.0396817
vt 0.411246 0.0400391
vt 0.411143 0.0403723
vt 0.410979 0.0406739
vt 0.410762 0.0409368
vt 0.410499 0.0411538
vt 0.410197 0.0413177
vt 0.409864 0.0414214
vt 0.409507 0.0414575
vt 0.398585 0.0414575
vt 0.398228 0.0414214
vt 0.397895 0.0413177
vt 0.397593 0.0411538
vt 0.397331 0.0409368
vt 0.397114 0.0406739
vt 0.39695 0.0403723
vt 0.396846 0.0400391
vt 0.39681 0.0396817
vt 0.39681 0.0300294
vt 3.06867e-05 0.0473743
vt 0.00968295 0.0473743
vt 0.0100671 0.0473743
vt 0.0104402 0.0473743
vt 0.0108074 0.0473743
vt 0.011172 0.0473743
vt 0.0115365 0.0473743
vt 0.0119036 0.0473743
vt 0.0122767 0.0473743
vt 0.0126609 0.0473743
vt 0.0235823 0.0473743
vt 0.0239665 0.0473743
vt 0.0243395 0.0473743
vt 0.0247067 0.0473743
vt 0.0250712 0.0473743
vt 0.0254358 0.0473743
vt 0.025803 0.0473743
vt 0.0261761 0.0473743
vt 0.0265602 0.0473743
vt 0.0642644 0.0473743
vt 0.0646236 0.0473743
vt 0.0649725 0.0473743
vt 0.0653157 0.0473743
vt 0.0656566 0.0473743
vt 0.0659974 0.0473743
vt 0.0663406 0.0473743
vt 0.0666895 0.0473743
vt 0.0670487 0.0473743
vt 0.193213 0.0473743
vt 0 0.526577
vt 0.00160937 0.526577
vt 0.00743254 0.526577
vt 0.0157906 0.526577
vt 0.0216095 0.526577
vt 0.0233431 0.526577
vt 0.0291264 0.526577
vt 0.128287 0.526577
vt 0.134074 0.526577
vt 0.135801 0.526577
vt 0.141584 0.526577
vt 0.150252 0.526577
vt 0.156035 0.526577
vt 0.157761 0.526577
vt 0.199048 0.0473743
vt 0.324905 0.0473743
vt 0.325572 0.0473743
vt 0.326216 0.0473743
vt 0.326861 0.0473743
vt 0.327528 0.0473743
vt 0.363886 0.0473743
vt 0.364553 0.0473743
vt 0.365198 0.0473743
vt 0.365843 0.0473743
vt 0.36651 0.0473743
vt 0.375732 0.0473743
vt 0.381547 0.0473743
vt 0.39077 0.0473743
vt 0.391135 0.0473743
vt 0.39149 0.0473743
vt 0.391839 0.0473743
vt 0.392185 0.0473743
vt 0.392532 0.0473743
vt 0.39288 0.0473743
vt 0.393235 0.0473743
vt 0.3936 0.0473743
vt 0.429958 0.0473743
vt 0.430323 0.0473743
vt 0.430678 0.0473743
vt 0.431026 0.0473743
vt 0.431373 0.0473743
vt 0.431719 0.0473743
vt 0.432068 0.0473743
vt 0.432423 0.0473743
vt 0.432788 0.0473743
vt 0.558702 0.0473743
vt 0.163548 0.526577
vt 0.165274 0.526577
vt 0.171057 0.526577
vt 0.17961 0.526577
vt 0.185392 0.526577
vt 0.18712 0.526577
vt 0.199032 0.526577
vt 0.298308 0.526577
vt 0.304092 0.526577
vt 0.305825 0.526577
vt 0.311653 0.526577
vt 0.319878 0.526577
vt 0.32571 0.526577
vt 0.327319 0.526577
vt 0.564534 0.0473743
vt 0.690774 0.0473743
vt 0.691158 0.0473743
vt 0.691531 0.0473743
vt 0.691898 0.0473743
vt 0.692263 0.0473743
vt 0.692627 0.0473743
vt 0.692995 0.0473743
vt 0.693368 0.0473743
vt 0.693752 0.0473743
vt 0.731456 0.0473743
vt 0.731815 0.0473743
vt 0.732164 0.0473743
vt 0.732507 0.0473743
vt 0.732848 0.0473743
vt 0.733189 0.0473743
vt 0.733532 0.0473743
vt 0.733881 0.0473743
vt 0.73424 0.0473743
vt 0.745162 0.0473743
vt 0.745521 0.0473743
vt 0.74587 0.0473743
vt 0.746213 0.0473743
vt 0.746554 0.0473743
vt 0.746895 0.0473743
vt 0.747238 0.0473743
vt 0.747587 0.0473743
vt 0.747946 0.0473743
vt 0.757599 0.0473743
vt 0.192956 0.526577
vt 0.193079 0.526577
vt 3.06867e-05 0.520798
vt 0.00968295 0.520798
vt 0.0100671 0.520798
vt 0.0104402 0.520798
vt 0.0108074 0.520798
vt 0.011172 0.520798
vt 0.0115365 0.520798
vt 0.0119036 0.520798
vt 0.0122767 0.520798
vt 0.0126609 0.520798
vt 0.0235823 0.520798
vt 0.0239665 0.520798
vt 0.0243395 0.520798
vt 0.0247067 0.520798
vt 0.0250712 0.520798
vt 0.0254358 0.520798
vt 0.025803 0.520798
vt 0.0261761 0.520798
vt 0.0265602 0.520798
vt 0.0642644 0.520798
vt 0.0646236 0.520798
vt 0.0649725 0.520798
vt 0.0653157 0.520798
vt 0.0656566 0.520798
vt 0.0659974 0.520798
vt 0.0663406 0.520798
vt 0.0666895 0.520798
vt 0.0670487 0.520798
vt 0.193213 0.520798
vt 0 1
vt 0.00160937 1
vt 0.00743254 1
vt 0.0157906 1
vt 0.0216095 1
vt 0.0233431 1
vt 0.0291264 1
vt 0.128287 1
vt 0.134074 1
vt 0.135801 1
vt 0.141584 1
vt 0.150252 1
vt 0.156035 1
vt 0.157761 1
vt 0.199048 0.520798
vt 0.324905 0.520798
vt 0.325572 0.520798
vt 0.326216 0.520798
vt 0.326861 0.520798
vt 0.327528 0.520798
vt 0.363886 0.520798
vt 0.364553 0.520798
vt 0.365198 0.520798
vt 0.365843 0.520798
vt 0.36651 0.520798
vt 0.375732 0.520798
vt 0.381547 0.520798
vt 0.39077 0.520798
vt 0.391135 0.520798
vt 0.39149 0.520798
vt 0.391839 0.520798
vt 0.392185 0.520798
vt 0.392532 0.520798
vt 0.39288 0.520798
vt 0.393235 0.520798
vt 0.3936 0.520798
vt 0.429958 0.520798
vt 0.430323 0.520798
vt 0.430678 0.520798
vt 0.431026 0.520798
vt 0.431373 0.520798
vt 0.431719 0.520798
vt 0.432068 0.520798
vt 0.432423 0.520798
vt 0.432788 0.520798
vt 0.558702 0.520798
vt 0.163548 1
vt 0.165274 1
vt 0.171057 1
vt 0.17961 1
vt 0.185392 1
vt 0.18712 1
vt 0.199032 1
vt 0.298308 1
vt 0.304092 1
vt 0.305825 1
vt 0.311653 1
vt 0.319878 1
vt 0.32571 1
vt 0.327319 1
vt 0.564534 0.520798
vt 0.690774 0.520798
vt 0.691158 0.520798
vt 0.691531 0.520798
vt 0.691898 0.520798
vt 0.692263 0.520798
vt 0.692627 0.520798
vt 0.692995 0.520798
vt 0.693368 0.520798
vt 0.693752 0.520798
vt 0.731456 0.520798
vt 0.731815 0.520798
vt 0.732164 0.520798
vt 0.732507 0.520798
vt 0.732848 0.520798
vt 0.733189 0.520798
vt 0.733532 0.520798
vt 0.733881 0.520798
vt 0.73424 0.520798
vt 0.745162 0.520798
vt 0.745521 0.520798
vt 0.74587 0.520798
vt 0.746213 0.520798
vt 0.746554 0.520798
vt 0.746895 0.520798
vt 0.747238 0.520798
vt 0.747587 0.520798
vt 0.747946 0.520798
vt 0.757599 0.520798
vt 0.192956 1
vt 0.193079 1
vt 0.00485682 0.284086
vt 0.00987504 0.284086
vt 0.0102537 0.284086
vt 0.0106238 0.284086
vt 0.0109897 0.284086
vt 0.0113542 0.284086
vt 0.0117201 0.284086
vt 0.0120902 0.284086
vt 0.0124688 0.284086
vt 0.0181216 0.284086
vt 0.0237744 0.284086
vt 0.024153 0.284086
vt 0.0245231 0.284086
vt 0.0248889 0.284086
vt 0.0252535 0.284086
vt 0.0256194 0.284086
vt 0.0259895 0.284086
vt 0.0263681 0.284086
vt 0.0454123 0.284086
vt 0.064444 0.284086
vt 0.0647981 0.284086
vt 0.0651441 0.284086
vt 0.0654861 0.284086
vt 0.065827 0.284086
vt 0.066169 0.284086
vt 0.0665151 0.284086
vt 0.0668691 0.284086
vt 0.130131 0.284086
vt 0.000804686 0.763288
vt 0.0116116 0.763288
vt 0.0224763 0.763288
vt 0.0787069 0.763288
vt 0.134937 0.763288
vt 0.145918 0.763288
vt 0.156898 0.763288
vt 0.261976 0.284086
vt 0.325238 0.284086
vt 0.325894 0.284086
vt 0.326539 0.284086
vt 0.327195 0.284086
vt 0.345707 0.284086
vt 0.36422 0.284086
vt 0.364876 0.284086
vt 0.36552 0.284086
vt 0.366176 0.284086
vt 0.371121 0.284086
vt 0.386159 0.284086
vt 0.390953 0.284086
vt 0.391313 0.284086
vt 0.391664 0.284086
vt 0.392012 0.284086
vt 0.392358 0.284086
vt 0.392706 0.284086
vt 0.393058 0.284086
vt 0.393417 0.284086
vt 0.411779 0.284086
vt 0.430141 0.284086
vt 0.4305 0.284086
vt 0.430852 0.284086
vt 0.4312 0.284086
vt 0.431546 0.284086
vt 0.431894 0.284086
vt 0.432245 0.284086
vt 0.432605 0.284086
vt 0.495745 0.284086
vt 0.164411 0.763288
vt 0.175333 0.763288
vt 0.186256 0.763288
vt 0.24867 0.763288
vt 0.304958 0.763288
vt 0.315765 0.763288
vt 0.326514 0.763288
vt 0.627654 0.284086
vt 0.690966 0.284086
vt 0.691345 0.284086
vt 0.691715 0.284086
vt 0.692081 0.284086
vt 0.692445 0.284086
vt 0.692811 0.284086
vt 0.693181 0.284086
vt 0.69356 0.284086
vt 0.712604 0.284086
vt 0.731636 0.284086
vt 0.73199 0.284086
vt 0.732336 0.284086
vt 0.732678 0.284086
vt 0.733019 0.284086
vt 0.733361 0.284086
vt 0.733707 0.284086
vt 0.734061 0.284086
vt 0.739701 0.284086
vt 0.745341 0.284086
vt 0.745695 0.284086
vt 0.746042 0.284086
vt 0.746384 0.284086
vt 0.746724 0.284086
vt 0.747067 0.284086
vt 0.747413 0.284086
vt 0.747767 0.284086
vt 0.752772 0.284086
vt 0.193017 0.763288


# Vertex Surface Normals: 
vn 0 0 1
vn 0 0 -1
vn 1 0 0
vn 1 0 0
vn 0.998731 0.0503627 -2.46923e-17
vn 0.998731 0.0503627 2.46923e-17
vn 1 0 0
vn 0.994927 0.100598 0
vn 0.979834 0.199813 -4.88824e-17
vn 0.979834 0.199813 4.88824e-17
vn 0.954872 0.297017 0
vn 0.921192 0.389109 -4.77599e-17
vn 0.921192 0.389109 4.77599e-17
vn 0.878653 0.477461 0
vn 0.828783 0.55957 -2.36642e-17
vn 0.828783 0.55957 2.36642e-17
vn 0.771264 0.636516 0
vn 0.707167 0.707046 0
vn 0.707167 0.707046 0
vn 0.636648 0.771155 0
vn 0.5597 0.828695 0
vn 0.5597 0.828695 0
vn 0.477586 0.878585 0
vn 0.389217 0.921146 3.01154e-18
vn 0.389217 0.921146 -3.01154e-18
vn 0.297104 0.954845 0
vn 0.199872 0.979822 3.01223e-18
vn 0.199872 0.979822 -3.01223e-18
vn 0.100626 0.994924 0
vn 0.0503772 0.99873 0
vn 0.0503772 0.99873 0
vn 0 1 0
vn -0.0503772 0.99873 0
vn -0.0503772 0.99873 0
vn -0.100626 0.994924 0
vn -0.199872 0.979822 3.01223e-18
vn -0.199872 0.979822 -3.01223e-18
vn -0.297104 0.954845 0
vn -0.389217 0.921146 3.01154e-18
vn -0.389217 0.921146 -3.01154e-18
vn -0.477586 0.878585 0
vn -0.5597 0.828695 0
vn -0.5597 0.828695 0
vn -0.636648 0.771155 0
vn -0.707167 0.707046 0
vn -0.707167 0.707046 0
vn -0.771264 0.636516 0
vn -0.828783 0.55957 2.36642e-17
vn -0.828783 0.55957 -2.36642e-17
vn -0.878653 0.477461 0
vn -0.921192 0.389109 2.36688e-17
vn -0.921192 0.389109 -2.36688e-17
vn -0.954872 0.297017 0
vn -0.979834 0.199813 3.1867e-19
vn -0.979834 0.199813 -3.1867e-19
vn -0.994927 0.100598 0
vn -0.998731 0.0503627 3.17468e-19
vn -0.998731 0.0503627 -3.17468e-19
vn -1 0 0
vn -0.998731 0.0503564 3.1809e-19
vn -0.998731 0.0503564 -3.1809e-19
vn -0.994928 0.100585 0
vn -0.979836 0.199803 2.44155e-17
vn -0.979836 0.199803 -2.44155e-17
vn -0.954875 0.297009 0
vn -0.921189 0.389117 2.55924e-17
vn -0.921189 0.389117 -2.55924e-17
vn -0.878642 0.477482 0
vn -0.828757 0.559608 -1.79407e-17
vn -0.828757 0.559608 1.79407e-17
vn -0.771221 0.636568 0
vn -0.707107 0.707107 -3.38623e-18
vn -0.707107 0.707107 3.38623e-18
vn -0.636568 0.771221 0
vn -0.559608 0.828757 1.60555e-17
vn -0.559608 0.828757 -1.60555e-17
vn -0.477482 0.878642 0
vn -0.389117 0.921189 3.00673e-18
vn -0.389117 0.921189 -3.00673e-18
vn -0.297009 0.954875 0
vn -0.199803 0.979836 1.12194e-17
vn -0.199803 0.979836 -1.12194e-17
vn -0.100585 0.994928 0
vn -0.0503564 0.998731 8.18099e-18
vn -0.0503564 0.998731 -8.18099e-18
vn 0 1 0
vn 0 1 0
vn 0 1 0
vn 0.762966 0.646439 0
vn 0.762966 0.646439 9.57054e-18
vn 0.762966 0.646439 9.57054e-18
vn 0.762966 0.646439 -9.57054e-18
vn 0.762966 0.646439 -9.57054e-18
vn 0.00259558 0.999997 0
vn 0.00259558 0.999997 -6.2067e-18
vn 0.00259558 0.999997 -6.2067e-18
vn 0.00259558 0.999997 6.2067e-18
vn 0.00259558 0.999997 6.2067e-18
vn -0.766143 0.64267 0
vn -0.766143 0.64267 -3.96915e-18
vn -0.766143 0.64267 -3.96915e-18
vn -0.766143 0.64267 3.96915e-18
vn -0.766143 0.64267 3.96915e-18
vn 0 1 0
vn 0 1 0
vn 0 1 0
vn 0 1 0
vn 0 1 0
vn 0.768678 0.639635 0
vn 0.768678 0.639635 -4.17195e-18
vn 0.768678 0.639635 -4.17195e-18
vn 0.768678 0.639635 4.17195e-18
vn 0.768678 0.639635 4.17195e-18
vn 0 1 0
vn 0 1 0
vn 0 1 0
vn 0 1 0
vn 0 1 0
vn -0.76957 0.638562 0
vn -0.76957 0.638562 -2.33521e-17
vn -0.76957 0.638562 -2.33521e-17
vn -0.76957 0.638562 2.33521e-17
vn -0.76957 0.638562 2.33521e-17
vn 0 1 0
vn 0 1 0
vn 0.0996811 0.995019 1.90833e-18
vn 0.0996811 0.995019 -1.90833e-18
vn 0 1 0
vn 0.198369 0.980127 0
vn 0.386308 0.92237 -9.70925e-18
vn 0.386308 0.92237 9.70925e-18
vn 0.559313 0.828957 0
vn 0.707078 0.707136 -3.10119e-17
vn 0.707078 0.707136 3.10119e-17
vn 0.82891 0.559382 0
vn 0.92235 0.386355 -1.93978e-17
vn 0.92235 0.386355 1.93978e-17
vn 0.980124 0.198388 0
vn 0.995018 0.0996908 0
vn 0.995018 0.0996908 0
vn 1 0 0
vn 0.995017 -0.0997058 0
vn 0.995017 -0.0997058 0
vn 0.980117 -0.198418 0
vn 0.922346 -0.386364 -1.94299e-17
vn 0.922346 -0.386364 1.94299e-17
vn 0.828916 -0.559374 0
vn 0.707107 -0.707107 -5.11986e-18
vn 0.707107 -0.707107 5.11986e-18
vn 0.559373 -0.828916 0
vn 0.386364 -0.922346 1.93845e-17
vn 0.386364 -0.922346 -1.93845e-17
vn 0.198418 -0.980117 0
vn 0.0997058 -0.995017 5.00644e-18
vn 0.0997058 -0.995017 -5.00644e-18
vn 0 -1 0
vn 0 -1 0
vn 0 -1 0
vn 0.0133813 0.99991 0
vn 0.0133813 0.99991 1.30647e-17
vn -0.0436771 0.999046 3.41542e-18
vn -0.0436771 0.999046 -3.41542e-18
vn 0.0133813 0.99991 -1.30647e-17
vn -0.100593 0.994928 0
vn -0.199815 0.979834 4.35789e-18
vn -0.199815 0.979834 -4.35789e-18
vn -0.297024 0.95487 0
vn -0.38913 0.921183 2.23142e-17
vn -0.38913 0.921183 -2.23142e-17
vn -0.477494 0.878635 0
vn -0.559616 0.828752 1.96811e-17
vn -0.559616 0.828752 -1.96811e-17
vn -0.636572 0.771217 0
vn -0.707107 0.707107 2.85589e-18
vn -0.707107 0.707107 -2.85589e-18
vn -0.771217 0.636572 0
vn -0.828752 0.559616 2.01506e-17
vn -0.828752 0.559616 -2.01506e-17
vn -0.878635 0.477494 0
vn -0.921183 0.38913 4.53153e-17
vn -0.921183 0.38913 -4.53153e-17
vn -0.95487 0.297024 0
vn -0.979834 0.199815 4.85782e-17
vn -0.979834 0.199815 -4.85782e-17
vn -0.994928 0.100593 0
vn -0.998731 0.0503605 2.53248e-17
vn -0.998731 0.0503605 -2.53248e-17
vn -1 0 0
vn -0.998731 -0.0503605 2.53248e-17
vn -0.998731 -0.0503605 -2.53248e-17
vn -0.994928 -0.100593 0
vn -0.979834 -0.199815 5.0454e-17
vn -0.979834 -0.199815 -5.0454e-17
vn -0.95487 -0.297024 0
vn -0.921183 -0.38913 4.71907e-17
vn -0.921183 -0.38913 -4.71907e-17
vn -0.878635 -0.477494 0
vn -0.828752 -0.559616 2.41669e-17
vn -0.828752 -0.559616 -2.41669e-17
vn -0.771217 -0.636572 0
vn -0.707107 -0.707107 2.00805e-18
vn -0.707107 -0.707107 -2.00805e-18
vn -0.636572 -0.771217 0
vn -0.559616 -0.828752 9.27713e-18
vn -0.559616 -0.828752 -9.27713e-18
vn -0.477494 -0.878635 0
vn -0.38913 -0.921183 1.67734e-17
vn -0.38913 -0.921183 -1.67734e-17
vn -0.297024 -0.95487 0
vn -0.199815 -0.979834 4.35789e-18
vn -0.199815 -0.979834 -4.35789e-18
vn -0.100593 -0.994928 0
vn -0.0503605 -0.998731 -3.12647e-18
vn -0.0503605 -0.998731 3.12647e-18
vn 0 -1 0
vn 0 -1 0
vn 0 -1 0
vn 0.76957 -0.638562 0
vn 0.76957 -0.638562 -1.53782e-17
vn 0.76957 -0.638562 -1.53782e-17
vn 0.76957 -0.638562 1.53782e-17
vn 0.76957 -0.638562 1.53782e-17
vn 0 -1 0
vn 0 -1 0
vn 0 -1 0
vn 0 -1 0
vn 0 -1 0
vn -0.768678 -0.639635 0
vn -0.768678 -0.639635 -1.51707e-17
vn -0.768678 -0.639635 -1.51707e-17
vn -0.768678 -0.639635 1.51707e-17
vn -0.768678 -0.639635 1.51707e-17
vn 0 -1 0
vn 0 -1 0
vn 0 -1 0
vn 0 -1 0
vn 0 -1 0
vn 0.766143 -0.64267 0
vn 0.766143 -0.64267 3.96915e-18
vn 0.766143 -0.64267 3.96915e-18
vn 0.766143 -0.64267 -3.96915e-18
vn 0.766143 -0.64267 -3.96915e-18
vn 0 -1 0
vn 0 -1 0
vn 0 -1 0
vn 0 -1 0
vn 0 -1 0
vn -0.762966 -0.646439 0
vn -0.762966 -0.646439 -4.07257e-18
vn -0.762966 -0.646439 -4.07257e-18
vn -0.762966 -0.646439 4.07257e-18
vn -0.762966 -0.646439 4.07257e-18
vn -0.000171849 -1 0
vn -0.000171849 -1 0
vn 0.0502782 -0.998735 0
vn 0.0502782 -0.998735 0
vn -0.000171849 -1 0
vn 0.1006 -0.994927 0
vn 0.199825 -0.979832 -7.49617e-18
vn 0.199825 -0.979832 7.49617e-18
vn 0.297037 -0.954866 0
vn 0.389143 -0.921178 -7.49446e-18
vn 0.389143 -0.921178 7.49446e-18
vn 0.477505 -0.878629 0
vn 0.559623 -0.828747 0
vn 0.559623 -0.828747 0
vn 0.636575 -0.771215 0
vn 0.707107 -0.707107 -2.00699e-18
vn 0.707107 -0.707107 2.00699e-18
vn 0.771215 -0.636575 0
vn 0.828747 -0.559623 -2.26556e-17
vn 0.828747 -0.559623 2.26556e-17
vn 0.878629 -0.477505 0
vn 0.921178 -0.389142 -4.38059e-17
vn 0.921178 -0.389142 4.38059e-17
vn 0.954866 -0.297037 0
vn 0.979832 -0.199825 -4.79485e-17
vn 0.979832 -0.199825 4.79485e-17
vn 0.994927 -0.1006 0
vn 0.998731 -0.050364 -2.46963e-17
vn 0.998731 -0.050364 2.46963e-17
vn 1 0 0
vn 0.998731 -0.050355 2.5325e-17
vn 0.998731 -0.050355 -2.5325e-17
vn 0.994929 -0.100582 0
vn 0.979839 -0.19979 2.44899e-17
vn 0.979839 -0.19979 -2.44899e-17
vn 0.954882 -0.296987 0
vn 0.921204 -0.389081 -2.4609e-17
vn 0.921204 -0.389081 2.4609e-17
vn 0.878667 -0.477434 0
vn 0.828796 -0.559552 -6.05735e-17
vn 0.828796 -0.559552 6.05735e-17
vn 0.771274 -0.636504 0
vn 0.707171 -0.707042 -3.68971e-17
vn 0.707171 -0.707042 3.68971e-17
vn 0.636645 -0.771157 0
vn 0.55969 -0.828702 0
vn 0.55969 -0.828702 0
vn 0.477568 -0.878595 0
vn 0.389196 -0.921155 7.49818e-18
vn 0.389196 -0.921155 -7.49818e-18
vn 0.29708 -0.954853 0
vn 0.199854 -0.979826 6.90077e-18
vn 0.199854 -0.979826 -6.90077e-18
vn 0.100614 -0.994926 0
vn 0.0503708 -0.998731 -5.96864e-19
vn 0.0503708 -0.998731 5.96864e-19
vn 0 -1 0
vn -0.0503708 -0.998731 -3.12371e-18
vn -0.0503708 -0.998731 3.12371e-18
vn -0.100614 -0.994926 0
vn -0.199854 -0.979826 4.36436e-18
vn -0.199854 -0.979826 -4.36436e-18
vn -0.29708 -0.954853 0
vn -0.389196 -0.921155 -4.54423e-18
vn -0.389196 -0.921155 4.54423e-18
vn -0.477568 -0.878595 0
vn -0.55969 -0.828702 -2.80943e-17
vn -0.55969 -0.828702 2.80943e-17
vn -0.636645 -0.771157 0
vn -0.707171 -0.707042 -1.40426e-17
vn -0.707171 -0.707042 1.40426e-17
vn -0.771274 -0.636504 0
vn -0.828796 -0.559552 -2.16632e-17
vn -0.828796 -0.559552 2.16632e-17
vn -0.878667 -0.477434 0
vn -0.921204 -0.389081 -4.86979e-17
vn -0.921204 -0.389081 4.86979e-17
vn -0.954882 -0.296987 0
vn -0.979839 -0.19979 -2.47097e-17
vn -0.979839 -0.19979 2.47097e-17
vn -0.994929 -0.100582 0
vn -0.998731 -0.050355 3.14507e-19
vn -0.998731 -0.050355 -3.14507e-19
vn -1 0 0
vn -1 0 0
vn -1 0 0
vn 0 -1 0
vn 0 -1 0
vn 0 -1 0
vn 0 -1 0
vn 0 -1 0


# Faces: 
usemtl material0
f 164/63/1 165/64/1 139/38/1
f 139/38/1 165/64/1 138/37/1
f 164/63/1 139/38/1 163/62/1
f 166/65/1 137/36/1 138/37/1
f 137/36/1 166/65/1 167/66/1
f 166/65/1 138/37/1 165/64/1
f 160/59/1 161/60/1 141/40/1
f 141/40/1 161/60/1 140/39/1
f 160/59/1 141/40/1 159/58/1
f 162/61/1 163/62/1 140/39/1
f 140/39/1 163/62/1 139/38/1
f 162/61/1 140/39/1 161/60/1
f 134/33/1 170/69/1 171/70/1
f 130/29/1 174/73/1 175/74/1
f 128/27/1 175/74/1 176/75/1
f 171/70/1 172/71/1 133/32/1
f 134/33/1 169/68/1 170/69/1
f 133/32/1 134/33/1 171/70/1
f 177/76/1 127/26/1 128/27/1
f 129/28/1 175/74/1 128/27/1
f 130/29/1 173/72/1 174/73/1
f 175/74/1 129/28/1 130/29/1
f 128/27/1 176/75/1 177/76/1
f 167/66/1 168/67/1 137/36/1
f 168/67/1 136/35/1 137/36/1
f 157/56/1 158/57/1 142/41/1
f 142/41/1 158/57/1 159/58/1
f 157/56/1 143/42/1 156/55/1
f 143/42/1 157/56/1 142/41/1
f 156/55/1 143/42/1 144/43/1
f 141/40/1 142/41/1 159/58/1
f 155/54/1 144/43/1 154/53/1
f 144/43/1 155/54/1 156/55/1
f 154/53/1 144/43/1 145/44/1
f 153/52/1 145/44/1 152/51/1
f 145/44/1 153/52/1 154/53/1
f 146/45/1 152/51/1 145/44/1
f 136/35/1 169/68/1 135/34/1
f 135/34/1 169/68/1 134/33/1
f 132/31/1 172/71/1 173/72/1
f 131/30/1 173/72/1 130/29/1
f 133/32/1 172/71/1 132/31/1
f 131/30/1 132/31/1 173/72/1
f 151/50/1 146/45/1 150/49/1
f 146/45/1 151/50/1 152/51/1
f 150/49/1 146/45/1 147/46/1
f 148/47/1 149/48/1 147/46/1
f 147/46/1 149/48/1 150/49/1
f 168/67/1 169/68/1 136/35/1
f 178/77/1 126/25/1 127/26/1
f 126/25/1 178/77/1 179/78/1
f 124/23/1 125/24/1 179/78/1
f 179/78/1 125/24/1 126/25/1
f 124/23/1 179/78/1 180/79/1
f 124/23/1 180/79/1 123/22/1
f 122/21/1 123/22/1 181/80/1
f 182/81/1 122/21/1 181/80/1
f 121/20/1 183/82/1 120/19/1
f 183/82/1 121/20/1 122/21/1
f 180/79/1 181/80/1 123/22/1
f 177/76/1 178/77/1 127/26/1
f 183/82/1 184/83/1 120/19/1
f 184/83/1 185/84/1 120/19/1
f 202/101/1 102/1/1 201/100/1
f 201/100/1 102/1/1 103/2/1
f 118/17/1 119/18/1 185/84/1
f 119/18/1 120/19/1 185/84/1
f 118/17/1 185/84/1 186/85/1
f 200/99/1 103/2/1 104/3/1
f 105/4/1 200/99/1 104/3/1
f 200/99/1 105/4/1 199/98/1
f 201/100/1 103/2/1 200/99/1
f 183/82/1 122/21/1 182/81/1
f 186/85/1 117/16/1 118/17/1
f 186/85/1 187/86/1 117/16/1
f 117/16/1 187/86/1 116/15/1
f 116/15/1 188/87/1 189/88/1
f 188/87/1 116/15/1 187/86/1
f 116/15/1 189/88/1 115/14/1
f 115/14/1 190/89/1 114/13/1
f 190/89/1 115/14/1 189/88/1
f 114/13/1 190/89/1 191/90/1
f 191/90/1 192/91/1 112/11/1
f 112/11/1 113/12/1 191/90/1
f 192/91/1 193/92/1 112/11/1
f 191/90/1 113/12/1 114/13/1
f 196/95/1 197/96/1 107/6/1
f 107/6/1 197/96/1 198/97/1
f 196/95/1 107/6/1 108/7/1
f 199/98/1 106/5/1 198/97/1
f 198/97/1 106/5/1 107/6/1
f 193/92/1 194/93/1 111/10/1
f 111/10/1 194/93/1 110/9/1
f 193/92/1 111/10/1 112/11/1
f 195/94/1 108/7/1 109/8/1
f 108/7/1 195/94/1 196/95/1
f 110/9/1 194/93/1 109/8/1
f 109/8/1 194/93/1 195/94/1
f 199/98/1 105/4/1 106/5/1
f 64/165/2 63/164/2 38/139/2
f 64/165/2 38/139/2 37/138/2
f 38/139/2 63/164/2 62/163/2
f 36/137/2 65/166/2 37/138/2
f 65/166/2 36/137/2 66/167/2
f 37/138/2 65/166/2 64/165/2
f 60/161/2 59/160/2 40/141/2
f 60/161/2 40/141/2 39/140/2
f 40/141/2 59/160/2 58/159/2
f 62/163/2 61/162/2 39/140/2
f 62/163/2 39/140/2 38/139/2
f 39/140/2 61/162/2 60/161/2
f 69/170/2 33/134/2 70/171/2
f 73/174/2 29/130/2 74/175/2
f 74/175/2 27/128/2 75/176/2
f 71/172/2 70/171/2 32/133/2
f 68/169/2 33/134/2 69/170/2
f 33/134/2 32/133/2 70/171/2
f 26/127/2 76/177/2 27/128/2
f 74/175/2 28/129/2 27/128/2
f 72/173/2 29/130/2 73/174/2
f 28/129/2 74/175/2 29/130/2
f 75/176/2 27/128/2 76/177/2
f 67/168/2 66/167/2 36/137/2
f 35/136/2 67/168/2 36/137/2
f 57/158/2 56/157/2 41/142/2
f 57/158/2 41/142/2 58/159/2
f 42/143/2 56/157/2 55/156/2
f 56/157/2 42/143/2 41/142/2
f 42/143/2 55/156/2 43/144/2
f 41/142/2 40/141/2 58/159/2
f 43/144/2 54/155/2 53/154/2
f 54/155/2 43/144/2 55/156/2
f 43/144/2 53/154/2 44/145/2
f 44/145/2 52/153/2 51/152/2
f 52/153/2 44/145/2 53/154/2
f 51/152/2 45/146/2 44/145/2
f 68/169/2 35/136/2 34/135/2
f 68/169/2 34/135/2 33/134/2
f 71/172/2 31/132/2 72/173/2
f 72/173/2 30/131/2 29/130/2
f 71/172/2 32/133/2 31/132/2
f 31/132/2 30/131/2 72/173/2
f 45/146/2 50/151/2 49/150/2
f 50/151/2 45/146/2 51/152/2
f 45/146/2 49/150/2 46/147/2
f 48/149/2 47/148/2 46/147/2
f 48/149/2 46/147/2 49/150/2
f 68/169/2 67/168/2 35/136/2
f 25/126/2 77/178/2 26/127/2
f 77/178/2 25/126/2 78/179/2
f 24/125/2 23/124/2 78/179/2
f 24/125/2 78/179/2 25/126/2
f 78/179/2 23/124/2 79/180/2
f 79/180/2 23/124/2 22/123/2
f 22/123/2 21/122/2 80/181/2
f 21/122/2 81/182/2 80/181/2
f 82/183/2 20/121/2 19/120/2
f 20/121/2 82/183/2 21/122/2
f 80/181/2 79/180/2 22/123/2
f 77/178/2 76/177/2 26/127/2
f 83/184/2 82/183/2 19/120/2
f 84/185/2 83/184/2 19/120/2
f 1/102/2 101/202/2 100/201/2
f 1/102/2 100/201/2 2/103/2
f 18/119/2 17/118/2 84/185/2
f 19/120/2 18/119/2 84/185/2
f 84/185/2 17/118/2 85/186/2
f 2/103/2 99/200/2 3/104/2
f 99/200/2 4/105/2 3/104/2
f 4/105/2 99/200/2 98/199/2
f 2/103/2 100/201/2 99/200/2
f 21/122/2 82/183/2 81/182/2
f 16/117/2 85/186/2 17/118/2
f 86/187/2 85/186/2 16/117/2
f 86/187/2 16/117/2 15/116/2
f 87/188/2 15/116/2 88/189/2
f 15/116/2 87/188/2 86/187/2
f 88/189/2 15/116/2 14/115/2
f 89/190/2 14/115/2 13/114/2
f 14/115/2 89/190/2 88/189/2
f 89/190/2 13/114/2 90/191/2
f 91/192/2 90/191/2 11/112/2
f 12/113/2 11/112/2 90/191/2
f 92/193/2 91/192/2 11/112/2
f 12/113/2 90/191/2 13/114/2
f 96/197/2 95/196/2 6/107/2
f 96/197/2 6/107/2 97/198/2
f 6/107/2 95/196/2 7/108/2
f 5/106/2 98/199/2 97/198/2
f 5/106/2 97/198/2 6/107/2
f 93/194/2 92/193/2 10/111/2
f 93/194/2 10/111/2 9/110/2
f 10/111/2 92/193/2 11/112/2
f 7/108/2 94/195/2 8/109/2
f 94/195/2 7/108/2 95/196/2
f 93/194/2 9/110/2 8/109/2
f 93/194/2 8/109/2 94/195/2
f 4/105/2 98/199/2 5/106/2
f 203/443/3 1/203/4 2/204/5
f 203/443/3 2/204/5 103/324/6
f 203/443/3 103/324/6 102/323/7
f 203/443/3 102/323/7 1/203/4
f 204/444/8 2/204/5 3/205/9
f 204/444/8 3/205/9 104/325/10
f 204/444/8 104/325/10 103/324/6
f 204/444/8 103/324/6 2/204/5
f 205/445/11 3/205/9 4/206/12
f 205/445/11 4/206/12 105/326/13
f 205/445/11 105/326/13 104/325/10
f 205/445/11 104/325/10 3/205/9
f 206/446/14 4/206/12 5/207/15
f 206/446/14 5/207/15 106/327/16
f 206/446/14 106/327/16 105/326/13
f 206/446/14 105/326/13 4/206/12
f 207/447/17 5/207/15 6/208/18
f 207/447/17 6/208/18 107/328/19
f 207/447/17 107/328/19 106/327/16
f 207/447/17 106/327/16 5/207/15
f 208/448/20 6/208/18 7/209/21
f 208/448/20 7/209/21 108/329/22
f 208/448/20 108/329/22 107/328/19
f 208/448/20 107/328/19 6/208/18
f 209/449/23 7/209/21 8/210/24
f 209/449/23 8/210/24 109/330/25
f 209/449/23 109/330/25 108/329/22
f 209/449/23 108/329/22 7/209/21
f 210/450/26 8/210/24 9/211/27
f 210/450/26 9/211/27 110/331/28
f 210/450/26 110/331/28 109/330/25
f 210/450/26 109/330/25 8/210/24
f 211/451/29 9/211/27 10/212/30
f 211/451/29 10/212/30 111/332/31
f 211/451/29 111/332/31 110/331/28
f 211/451/29 110/331/28 9/211/27
f 212/452/32 10/212/30 11/213/33
f 212/452/32 11/213/33 112/333/34
f 212/452/32 112/333/34 111/332/31
f 212/452/32 111/332/31 10/212/30
f 213/453/35 11/213/33 12/214/36
f 213/453/35 12/214/36 113/334/37
f 213/453/35 113/334/37 112/333/34
f 213/453/35 112/333/34 11/213/33
f 214/454/38 12/214/36 13/215/39
f 214/454/38 13/215/39 114/335/40
f 214/454/38 114/335/40 113/334/37
f 214/454/38 113/334/37 12/214/36
f 215/455/41 13/215/39 14/216/42
f 215/455/41 14/216/42 115/336/43
f 215/455/41 115/336/43 114/335/40
f 215/455/41 114/335/40 13/215/39
f 216/456/44 14/216/42 15/217/45
f 216/456/44 15/217/45 116/337/46
f 216/456/44 116/337/46 115/336/43
f 216/456/44 115/336/43 14/216/42
f 217/457/47 15/217/45 16/218/48
f 217/457/47 16/218/48 117/338/49
f 217/457/47 117/338/49 116/337/46
f 217/457/47 116/337/46 15/217/45
f 218/458/50 16/218/48 17/219/51
f 218/458/50 17/219/51 118/339/52
f 218/458/50 118/339/52 117/338/49
f 218/458/50 117/338/49 16/218/48
f 219/459/53 17/219/51 18/220/54
f 219/459/53 18/220/54 119/340/55
f 219/459/53 119/340/55 118/339/52
f 219/459/53 118/339/52 17/219/51
f 220/460/56 18/220/54 19/221/57
f 220/460/56 19/221/57 120/341/58
f 220/460/56 120/341/58 119/340/55
f 220/460/56 119/340/55 18/220/54
f 221/461/59 19/221/57 20/222/60
f 221/461/59 20/222/60 121/342/61
f 221/461/59 121/342/61 120/341/58
f 221/461/59 120/341/58 19/221/57
f 222/462/62 20/222/60 21/223/63
f 222/462/62 21/223/63 122/343/64
f 222/462/62 122/343/64 121/342/61
f 222/462/62 121/342/61 20/222/60
f 223/463/65 21/223/63 22/224/66
f 223/463/65 22/224/66 123/344/67
f 223/463/65 123/344/67 122/343/64
f 223/463/65 122/343/64 21/223/63
f 224/464/68 22/224/66 23/225/69
f 224/464/68 23/225/69 124/345/70
f 224/464/68 124/345/70 123/344/67
f 224/464/68 123/344/67 22/224/66
f 225/465/71 23/225/69 24/226/72
f 225/465/71 24/226/72 125/346/73
f 225/465/71 125/346/73 124/345/70
f 225/465/71 124/345/70 23/225/69
f 226/466/74 24/226/72 25/227/75
f 226/466/74 25/227/75 126/347/76
f 226/466/74 126/347/76 125/346/73
f 226/466/74 125/346/73 24/226/72
f 227/467/77 25/227/75 26/228/78
f 227/467/77 26/228/78 127/348/79
f 227/467/77 127/348/79 126/347/76
f 227/467/77 126/347/76 25/227/75
f 228/468/80 26/228/78 27/229/81
f 228/468/80 27/229/81 128/349/82
f 228/468/80 128/349/82 127/348/79
f 228/468/80 127/348/79 26/228/78
f 229/469/83 27/229/81 28/230/84
f 229/469/83 28/230/84 129/350/85
f 229/469/83 129/350/85 128/349/82
f 229/469/83 128/349/82 27/229/81
f 230/470/86 28/230/84 29/231/87
f 230/470/86 29/231/87 130/351/88
f 230/470/86 130/351/88 129/350/85
f 230/470/86 129/350/85 28/230/84
f 231/471/89 29/232/90 30/233/91
f 231/471/89 30/233/91 131/353/92
f 231/471/89 131/353/92 130/352/93
f 231/471/89 130/352/93 29/232/90
f 232/472/94 30/234/95 31/235/96
f 232/472/94 31/235/96 132/355/97
f 232/472/94 132/355/97 131/354/98
f 232/472/94 131/354/98 30/234/95
f 233/473/99 31/236/100 32/237/101
f 233/473/99 32/237/101 133/357/102
f 233/473/99 133/357/102 132/356/103
f 233/473/99 132/356/103 31/236/100
f 234/474/104 32/238/105 33/239/106
f 234/474/104 33/239/106 134/359/107
f 234/474/104 134/359/107 133/358/108
f 234/474/104 133/358/108 32/238/105
f 235/475/109 33/240/110 34/241/111
f 235/475/109 34/241/111 135/361/112
f 235/475/109 135/361/112 134/360/113
f 235/475/109 134/360/113 33/240/110
f 236/476/114 34/242/115 35/243/116
f 236/476/114 35/243/116 136/363/117
f 236/476/114 136/363/117 135/362/118
f 236/476/114 135/362/118 34/242/115
f 237/477/119 35/244/120 36/245/121
f 237/477/119 36/245/121 137/365/122
f 237/477/119 137/365/122 136/364/123
f 237/477/119 136/364/123 35/244/120
f 238/478/124 36/246/125 37/247/126
f 238/478/124 37/247/126 138/367/127
f 238/478/124 138/367/127 137/366/128
f 238/478/124 137/366/128 36/246/125
f 239/479/129 37/247/126 38/248/130
f 239/479/129 38/248/130 139/368/131
f 239/479/129 139/368/131 138/367/127
f 239/479/129 138/367/127 37/247/126
f 240/480/132 38/248/130 39/249/133
f 240/480/132 39/249/133 140/369/134
f 240/480/132 140/369/134 139/368/131
f 240/480/132 139/368/131 38/248/130
f 241/481/135 39/249/133 40/250/136
f 241/481/135 40/250/136 141/370/137
f 241/481/135 141/370/137 140/369/134
f 241/481/135 140/369/134 39/249/133
f 242/482/138 40/250/136 41/251/139
f 242/482/138 41/251/139 142/371/140
f 242/482/138 142/371/140 141/370/137
f 242/482/138 141/370/137 40/250/136
f 243/483/141 41/251/139 42/252/142
f 243/483/141 42/252/142 143/372/143
f 243/483/141 143/372/143 142/371/140
f 243/483/141 142/371/140 41/251/139
f 244/484/144 42/252/142 43/253/145
f 244/484/144 43/253/145 144/373/146
f 244/484/144 144/373/146 143/372/143
f 244/484/144 143/372/143 42/252/142
f 245/485/147 43/253/145 44/254/148
f 245/485/147 44/254/148 145/374/149
f 245/485/147 145/374/149 144/373/146
f 245/485/147 144/373/146 43/253/145
f 246/486/150 44/254/148 45/255/151
f 246/486/150 45/255/151 146/375/152
f 246/486/150 146/375/152 145/374/149
f 246/486/150 145/374/149 44/254/148
f 247/487/153 45/255/151 46/256/154
f 247/487/153 46/256/154 147/376/155
f 247/487/153 147/376/155 146/375/152
f 247/487/153 146/375/152 45/255/151
f 248/488/156 46/256/154 47/257/157
f 248/488/156 47/257/157 148/377/158
f 248/488/156 148/377/158 147/376/155
f 248/488/156 147/376/155 46/256/154
f 249/489/159 47/258/160 48/259/161
f 249/489/159 48/259/161 149/379/162
f 249/489/159 149/379/162 148/378/163
f 249/489/159 148/378/163 47/258/160
f 250/490/164 48/259/161 49/260/165
f 250/490/164 49/260/165 150/380/166
f 250/490/164 150/380/166 149/379/162
f 250/490/164 149/379/162 48/259/161
f 251/491/167 49/260/165 50/261/168
f 251/491/167 50/261/168 151/381/169
f 251/491/167 151/381/169 150/380/166
f 251/491/167 150/380/166 49/260/165
f 252/492/170 50/261/168 51/262/171
f 252/492/170 51/262/171 152/382/172
f 252/492/170 152/382/172 151/381/169
f 252/492/170 151/381/169 50/261/168
f 253/493/173 51/262/171 52/263/174
f 253/493/173 52/263/174 153/383/175
f 253/493/173 153/383/175 152/382/172
f 253/493/173 152/382/172 51/262/171
f 254/494/176 52/263/174 53/264/177
f 254/494/176 53/264/177 154/384/178
f 254/494/176 154/384/178 153/383/175
f 254/494/176 153/383/175 52/263/174
f 255/495/179 53/264/177 54/265/180
f 255/495/179 54/265/180 155/385/181
f 255/495/179 155/385/181 154/384/178
f 255/495/179 154/384/178 53/264/177
f 256/496/182 54/265/180 55/266/183
f 256/496/182 55/266/183 156/386/184
f 256/496/182 156/386/184 155/385/181
f 256/496/182 155/385/181 54/265/180
f 257/497/185 55/266/183 56/267/186
f 257/497/185 56/267/186 157/387/187
f 257/497/185 157/387/187 156/386/184
f 257/497/185 156/386/184 55/266/183
f 258/498/188 56/267/186 57/268/189
f 258/498/188 57/268/189 158/388/190
f 258/498/188 158/388/190 157/387/187
f 258/498/188 157/387/187 56/267/186
f 259/499/191 57/268/189 58/269/192
f 259/499/191 58/269/192 159/389/193
f 259/499/191 159/389/193 158/388/190
f 259/499/191 158/388/190 57/268/189
f 260/500/194 58/269/192 59/270/195
f 260/500/194 59/270/195 160/390/196
f 260/500/194 160/390/196 159/389/193
f 260/500/194 159/389/193 58/269/192
f 261/501/197 59/270/195 60/271/198
f 261/501/197 60/271/198 161/391/199
f 261/501/197 161/391/199 160/390/196
f 261/501/197 160/390/196 59/270/195
f 262/502/200 60/271/198 61/272/201
f 262/502/200 61/272/201 162/392/202
f 262/502/200 162/392/202 161/391/199
f 262/502/200 161/391/199 60/271/198
f 263/503/203 61/272/201 62/273/204
f 263/503/203 62/273/204 163/393/205
f 263/503/203 163/393/205 162/392/202
f 263/503/203 162/392/202 61/272/201
f 264/504/206 62/273/204 63/274/207
f 264/504/206 63/274/207 164/394/208
f 264/504/206 164/394/208 163/393/205
f 264/504/206 163/393/205 62/273/204
f 265/505/209 63/274/207 64/275/210
f 265/505/209 64/275/210 165/395/211
f 265/505/209 165/395/211 164/394/208
f 265/505/209 164/394/208 63/274/207
f 266/506/212 64/275/210 65/276/213
f 266/506/212 65/276/213 166/396/214
f 266/506/212 166/396/214 165/395/211
f 266/506/212 165/395/211 64/275/210
f 267/507/215 65/276/213 66/277/216
f 267/507/215 66/277/216 167/397/217
f 267/507/215 167/397/217 166/396/214
f 267/507/215 166/396/214 65/276/213
f 268/508/218 66/278/219 67/279/220
f 268/508/218 67/279/220 168/399/221
f 268/508/218 168/399/221 167/398/222
f 268/508/218 167/398/222 66/278/219
f 269/509/223 67/280/224 68/281/225
f 269/509/223 68/281/225 169/401/226
f 269/509/223 169/401/226 168/400/227
f 269/509/223 168/400/227 67/280/224
f 270/510/228 68/282/229 69/283/230
f 270/510/228 69/283/230 170/403/231
f 270/510/228 170/403/231 169/402/232
f 270/510/228 169/402/232 68/282/229
f 271/511/233 69/284/234 70/285/235
f 271/511/233 70/285/235 171/405/236
f 271/511/233 171/405/236 170/404/237
f 271/511/233 170/404/237 69/284/234
f 272/512/238 70/286/239 71/287/240
f 272/512/238 71/287/240 172/407/241
f 272/512/238 172/407/241 171/406/242
f 272/512/238 171/406/242 70/286/239
f 273/513/243 71/288/244 72/289/245
f 273/513/243 72/289/245 173/409/246
f 273/513/243 173/409/246 172/408/247
f 273/513/243 172/408/247 71/288/244
f 274/514/248 72/290/249 73/291/250
f 274/514/248 73/291/250 174/411/251
f 274/514/248 174/411/251 173/410/252
f 274/514/248 173/410/252 72/290/249
f 275/515/253 73/292/254 74/293/255
f 275/515/253 74/293/255 175/413/256
f 275/515/253 175/413/256 174/412/257
f 275/515/253 174/412/257 73/292/254
f 276/516/258 74/293/255 75/294/259
f 276/516/258 75/294/259 176/414/260
f 276/516/258 176/414/260 175/413/256
f 276/516/258 175/413/256 74/293/255
f 277/517/261 75/294/259 76/295/262
f 277/517/261 76/295/262 177/415/263
f 277/517/261 177/415/263 176/414/260
f 277/517/261 176/414/260 75/294/259
f 278/518/264 76/295/262 77/296/265
f 278/518/264 77/296/265 178/416/266
f 278/518/264 178/416/266 177/415/263
f 278/518/264 177/415/263 76/295/262
f 279/519/267 77/296/265 78/297/268
f 279/519/267 78/297/268 179/417/269
f 279/519/267 179/417/269 178/416/266
f 279/519/267 178/416/266 77/296/265
f 280/520/270 78/297/268 79/298/271
f 280/520/270 79/298/271 180/418/272
f 280/520/270 180/418/272 179/417/269
f 280/520/270 179/417/269 78/297/268
f 281/521/273 79/298/271 80/299/274
f 281/521/273 80/299/274 181/419/275
f 281/521/273 181/419/275 180/418/272
f 281/521/273 180/418/272 79/298/271
f 282/522/276 80/299/274 81/300/277
f 282/522/276 81/300/277 182/420/278
f 282/522/276 182/420/278 181/419/275
f 282/522/276 181/419/275 80/299/274
f 283/523/279 81/300/277 82/301/280
f 283/523/279 82/301/280 183/421/281
f 283/523/279 183/421/281 182/420/278
f 283/523/279 182/420/278 81/300/277
f 284/524/282 82/301/280 83/302/283
f 284/524/282 83/302/283 184/422/284
f 284/524/282 184/422/284 183/421/281
f 284/524/282 183/421/281 82/301/280
f 285/525/285 83/302/283 84/303/286
f 285/525/285 84/303/286 185/423/287
f 285/525/285 185/423/287 184/422/284
f 285/525/285 184/422/284 83/302/283
f 286/526/288 84/303/286 85/304/289
f 286/526/288 85/304/289 186/424/290
f 286/526/288 186/424/290 185/423/287
f 286/526/288 185/423/287 84/303/286
f 287/527/291 85/304/289 86/305/292
f 287/527/291 86/305/292 187/425/293
f 287/527/291 187/425/293 186/424/290
f 287/527/291 186/424/290 85/304/289
f 288/528/294 86/305/292 87/306/295
f 288/528/294 87/306/295 188/426/296
f 288/528/294 188/426/296 187/425/293
f 288/528/294 187/425/293 86/305/292
f 289/529/297 87/306/295 88/307/298
f 289/529/297 88/307/298 189/427/299
f 289/529/297 189/427/299 188/426/296
f 289/529/297 188/426/296 87/306/295
f 290/530/300 88/307/298 89/308/301
f 290/530/300 89/308/301 190/428/302
f 290/530/300 190/428/302 189/427/299
f 290/530/300 189/427/299 88/307/298
f 291/531/303 89/308/301 90/309/304
f 291/531/303 90/309/304 191/429/305
f 291/531/303 191/429/305 190/428/302
f 291/531/303 190/428/302 89/308/301
f 292/532/306 90/309/304 91/310/307
f 292/532/306 91/310/307 192/430/308
f 292/532/306 192/430/308 191/429/305
f 292/532/306 191/429/305 90/309/304
f 293/533/309 91/310/307 92/311/310
f 293/533/309 92/311/310 193/431/311
f 293/533/309 193/431/311 192/430/308
f 293/533/309 192/430/308 91/310/307
f 294/534/312 92/311/310 93/312/313
f 294/534/312 93/312/313 194/432/314
f 294/534/312 194/432/314 193/431/311
f 294/534/312 193/431/311 92/311/310
f 295/535/315 93/312/313 94/313/316
f 295/535/315 94/313/316 195/433/317
f 295/535/315 195/433/317 194/432/314
f 295/535/315 194/432/314 93/312/313
f 296/536/318 94/313/316 95/314/319
f 296/536/318 95/314/319 196/434/320
f 296/536/318 196/434/320 195/433/317
f 296/536/318 195/433/317 94/313/316
f 297/537/321 95/314/319 96/315/322
f 297/537/321 96/315/322 197/435/323
f 297/537/321 197/435/323 196/434/320
f 297/537/321 196/434/320 95/314/319
f 298/538/324 96/315/322 97/316/325
f 298/538/324 97/316/325 198/436/326
f 298/538/324 198/436/326 197/435/323
f 298/538/324 197/435/323 96/315/322
f 299/539/327 97/316/325 98/317/328
f 299/539/327 98/317/328 199/437/329
f 299/539/327 199/437/329 198/436/326
f 299/539/327 198/436/326 97/316/325
f 300/540/330 98/317/328 99/318/331
f 300/540/330 99/318/331 200/438/332
f 300/540/330 200/438/332 199/437/329
f 300/540/330 199/437/329 98/317/328
f 301/541/333 99/318/331 100/319/334
f 301/541/333 100/319/334 201/439/335
f 301/541/333 201/439/335 200/438/332
f 301/541/333 200/438/332 99/318/331
f 302/542/336 100/319/334 101/320/337
f 302/542/336 101/320/337 202/440/338
f 302/542/336 202/440/338 201/439/335
f 302/542/336 201/439/335 100/319/334
f 303/543/339 101/321/340 1/322/341
f 303/543/339 1/322/341 102/442/342
f 303/543/339 102/442/342 202/441/343
f 303/543/339 202/441/343 101/321/340
