mtllib 936.mtl
# Vertex Positions: 
g groupNumber_0
v 13.9206 -0.240318 -16.9263
v 13.9206 -0.222668 -16.9263
v 13.8182 -0.222668 -16.9263
v 13.7902 -0.21682 -16.9263
v 13.7669 -0.200295 -16.9263
v 13.3888 0.205569 -16.9263
v 13.3398 0.205569 -16.9263
v 13.3261 0.232734 -16.9263
v 13.306 0.245488 -16.9263
v 13.2787 0.249763 -16.9263
v 13.251 0.238816 -16.9263
v 13.2294 0.215084 -16.9263
v 13.205 0.188742 -16.9263
v 13.172 0.176595 -16.9263
v 13.1547 0.179906 -16.9263
v 13.1266 0.20078 -16.9263
v 13.1031 0.227388 -16.9263
v 13.0777 0.2467 -16.9263
v 13.039 0.245459 -16.9263
v 13.0221 0.234602 -16.9263
v 13.0049 0.205569 -16.9263
v 12.9608 0.205569 -16.9263
v 12.5701 -0.198743 -16.9263
v 12.5341 -0.223379 -16.9263
v 12.4914 -0.232113 -16.9263
v 11.3661 -0.232113 -16.9263
v 11.2807 -0.139519 -16.9263
v 10.5297 -0.139519 -16.9263
v 10.4583 -0.232113 -16.9263
v 9.33839 -0.232113 -16.9263
v 9.25118 -0.139519 -16.9263
v 8.49867 -0.139519 -16.9263
v 8.40911 -0.232113 -16.9263
v 7.20485 -0.232113 -16.9263
v 6.8362 0.202449 -16.9263
v 6.26236 0.205569 -16.9263
v 5.89199 -0.232113 -16.9263
v 4.72557 -0.232113 -16.9263
v 4.63415 -0.139519 -16.9263
v 3.87999 -0.139519 -16.9263
v 3.80956 -0.232113 -16.9263
v 2.67383 -0.232113 -16.9263
v 2.59427 -0.139519 -16.9263
v 1.85176 -0.139519 -16.9263
v 1.77133 -0.232113 -16.9263
v 0.546762 -0.232113 -16.9263
v 0.174837 0.202484 -16.9263
v -0.387361 0.205569 -16.9263
v -0.751806 -0.232113 -16.9263
v -1.96907 -0.232113 -16.9263
v -2.03257 -0.139519 -16.9263
v -2.77232 -0.139519 -16.9263
v -2.8304 -0.232113 -16.9263
v -3.96733 -0.232113 -16.9263
v -4.05789 -0.139519 -16.9263
v -4.81358 -0.139519 -16.9263
v -4.89457 -0.232113 -16.9263
v -6.10501 -0.232113 -16.9263
v -6.47537 0.205569 -16.9263
v -7.04117 0.205569 -16.9263
v -7.41668 -0.232113 -16.9263
v -8.58942 -0.232113 -16.9263
v -8.67897 -0.139519 -16.9263
v -9.41961 -0.139519 -16.9263
v -9.5122 -0.232113 -16.9263
v -10.6201 -0.232113 -16.9263
v -10.7085 -0.139519 -16.9263
v -11.4565 -0.139519 -16.9263
v -11.5231 -0.232113 -16.9263
v -12.7598 -0.232113 -16.9263
v -13.126 0.205569 -16.9263
v -13.7034 0.205569 -16.9263
v -13.9206 -0.179784 -16.9263
v -13.6931 0.187919 -16.9263
v -13.1342 0.187919 -16.9263
v -12.7681 -0.249763 -16.9263
v -11.514 -0.249763 -16.9263
v -11.4475 -0.157169 -16.9263
v -10.716 -0.157169 -16.9263
v -10.6276 -0.249763 -16.9263
v -9.5049 -0.249763 -16.9263
v -9.4123 -0.157169 -16.9263
v -8.68645 -0.157169 -16.9263
v -8.5969 -0.249763 -16.9263
v -7.40858 -0.249763 -16.9263
v -7.03307 0.187919 -16.9263
v -6.48356 0.187919 -16.9263
v -6.1132 -0.249763 -16.9263
v -4.88658 -0.249763 -16.9263
v -4.80558 -0.157169 -16.9263
v -4.06532 -0.157169 -16.9263
v -3.97474 -0.249763 -16.9263
v -2.82065 -0.249763 -16.9263
v -2.76256 -0.157169 -16.9263
v -2.04188 -0.157169 -16.9263
v -1.97838 -0.249763 -16.9263
v -0.743532 -0.249763 -16.9263
v -0.379087 0.187919 -16.9263
v 0.164047 0.187919 -16.9263
v 0.538627 -0.249763 -16.9263
v 1.7794 -0.249763 -16.9263
v 1.85983 -0.157169 -16.9263
v 2.58613 -0.157169 -16.9263
v 2.66569 -0.249763 -16.9263
v 3.81832 -0.249763 -16.9263
v 3.88875 -0.157169 -16.9263
v 4.62677 -0.157169 -16.9263
v 4.7182 -0.249763 -16.9263
v 5.90019 -0.249763 -16.9263
v 6.27057 0.187919 -16.9263
v 6.82537 0.187919 -16.9263
v 7.19406 -0.24666 -16.9263
v 8.41663 -0.249763 -16.9263
v 8.50619 -0.157169 -16.9263
v 9.24352 -0.157169 -16.9263
v 9.33074 -0.249763 -16.9263
v 10.467 -0.249763 -16.9263
v 10.5384 -0.157169 -16.9263
v 11.273 -0.157169 -16.9263
v 11.3584 -0.249763 -16.9263
v 12.4914 -0.249763 -16.9263
v 12.541 -0.239619 -16.9263
v 12.5828 -0.211016 -16.9263
v 12.9683 0.187919 -16.9263
v 13.0198 0.187919 -16.9263
v 13.028 0.214413 -16.9263
v 13.0625 0.232113 -16.9263
v 13.0819 0.223454 -16.9263
v 13.101 0.203122 -16.9263
v 13.1307 0.17327 -16.9263
v 13.1494 0.162936 -16.9263
v 13.172 0.158945 -16.9263
v 13.1957 0.16317 -16.9263
v 13.2148 0.173973 -16.9263
v 13.2432 0.204087 -16.9263
v 13.2605 0.223736 -16.9263
v 13.2787 0.232113 -16.9263
v 13.2989 0.229217 -16.9263
v 13.3218 0.205281 -16.9263
v 13.3228 0.187919 -16.9263
v 13.3811 0.187919 -16.9263
v 13.754 -0.212326 -16.9263
v 13.7832 -0.232992 -16.9263
v 13.8182 -0.240318 -16.9263
v 13.9206 -0.240318 16.9263
v 13.9206 -0.222668 16.9263
v 13.8182 -0.222668 16.9263
v 13.7902 -0.21682 16.9263
v 13.7669 -0.200295 16.9263
v 13.3888 0.205569 16.9263
v 13.3398 0.205569 16.9263
v 13.3261 0.232734 16.9263
v 13.306 0.245488 16.9263
v 13.2787 0.249763 16.9263
v 13.251 0.238816 16.9263
v 13.2294 0.215084 16.9263
v 13.205 0.188742 16.9263
v 13.172 0.176595 16.9263
v 13.1547 0.179906 16.9263
v 13.1266 0.20078 16.9263
v 13.1031 0.227388 16.9263
v 13.0777 0.2467 16.9263
v 13.039 0.245459 16.9263
v 13.0221 0.234602 16.9263
v 13.0049 0.205569 16.9263
v 12.9608 0.205569 16.9263
v 12.5701 -0.198743 16.9263
v 12.5341 -0.223379 16.9263
v 12.4914 -0.232113 16.9263
v 11.3661 -0.232113 16.9263
v 11.2807 -0.139519 16.9263
v 10.5297 -0.139519 16.9263
v 10.4583 -0.232113 16.9263
v 9.33839 -0.232113 16.9263
v 9.25118 -0.139519 16.9263
v 8.49867 -0.139519 16.9263
v 8.40911 -0.232113 16.9263
v 7.20485 -0.232113 16.9263
v 6.8362 0.202449 16.9263
v 6.26236 0.205569 16.9263
v 5.89199 -0.232113 16.9263
v 4.72557 -0.232113 16.9263
v 4.63415 -0.139519 16.9263
v 3.87999 -0.139519 16.9263
v 3.80956 -0.232113 16.9263
v 2.67383 -0.232113 16.9263
v 2.59427 -0.139519 16.9263
v 1.85176 -0.139519 16.9263
v 1.77133 -0.232113 16.9263
v 0.546762 -0.232113 16.9263
v 0.174837 0.202484 16.9263
v -0.387361 0.205569 16.9263
v -0.751806 -0.232113 16.9263
v -1.96907 -0.232113 16.9263
v -2.03257 -0.139519 16.9263
v -2.77232 -0.139519 16.9263
v -2.8304 -0.232113 16.9263
v -3.96733 -0.232113 16.9263
v -4.05789 -0.139519 16.9263
v -4.81358 -0.139519 16.9263
v -4.89457 -0.232113 16.9263
v -6.10501 -0.232113 16.9263
v -6.47537 0.205569 16.9263
v -7.04117 0.205569 16.9263
v -7.41668 -0.232113 16.9263
v -8.58942 -0.232113 16.9263
v -8.67897 -0.139519 16.9263
v -9.41961 -0.139519 16.9263
v -9.5122 -0.232113 16.9263
v -10.6201 -0.232113 16.9263
v -10.7085 -0.139519 16.9263
v -11.4565 -0.139519 16.9263
v -11.5231 -0.232113 16.9263
v -12.7598 -0.232113 16.9263
v -13.126 0.205569 16.9263
v -13.7034 0.205569 16.9263
v -13.9206 -0.179784 16.9263
v -13.6931 0.187919 16.9263
v -13.1342 0.187919 16.9263
v -12.7681 -0.249763 16.9263
v -11.514 -0.249763 16.9263
v -11.4475 -0.157169 16.9263
v -10.716 -0.157169 16.9263
v -10.6276 -0.249763 16.9263
v -9.5049 -0.249763 16.9263
v -9.4123 -0.157169 16.9263
v -8.68645 -0.157169 16.9263
v -8.5969 -0.249763 16.9263
v -7.40858 -0.249763 16.9263
v -7.03307 0.187919 16.9263
v -6.48356 0.187919 16.9263
v -6.1132 -0.249763 16.9263
v -4.88658 -0.249763 16.9263
v -4.80558 -0.157169 16.9263
v -4.06532 -0.157169 16.9263
v -3.97474 -0.249763 16.9263
v -2.82065 -0.249763 16.9263
v -2.76256 -0.157169 16.9263
v -2.04188 -0.157169 16.9263
v -1.97838 -0.249763 16.9263
v -0.743532 -0.249763 16.9263
v -0.379087 0.187919 16.9263
v 0.164047 0.187919 16.9263
v 0.538627 -0.249763 16.9263
v 1.7794 -0.249763 16.9263
v 1.85983 -0.157169 16.9263
v 2.58613 -0.157169 16.9263
v 2.66569 -0.249763 16.9263
v 3.81832 -0.249763 16.9263
v 3.88875 -0.157169 16.9263
v 4.62677 -0.157169 16.9263
v 4.7182 -0.249763 16.9263
v 5.90019 -0.249763 16.9263
v 6.27057 0.187919 16.9263
v 6.82537 0.187919 16.9263
v 7.19406 -0.24666 16.9263
v 8.41663 -0.249763 16.9263
v 8.50619 -0.157169 16.9263
v 9.24352 -0.157169 16.9263
v 9.33074 -0.249763 16.9263
v 10.467 -0.249763 16.9263
v 10.5384 -0.157169 16.9263
v 11.273 -0.157169 16.9263
v 11.3584 -0.249763 16.9263
v 12.4914 -0.249763 16.9263
v 12.541 -0.239619 16.9263
v 12.5828 -0.211016 16.9263
v 12.9683 0.187919 16.9263
v 13.0198 0.187919 16.9263
v 13.028 0.214413 16.9263
v 13.0625 0.232113 16.9263
v 13.0819 0.223454 16.9263
v 13.101 0.203122 16.9263
v 13.1307 0.17327 16.9263
v 13.1494 0.162936 16.9263
v 13.172 0.158945 16.9263
v 13.1957 0.16317 16.9263
v 13.2148 0.173973 16.9263
v 13.2432 0.204087 16.9263
v 13.2605 0.223736 16.9263
v 13.2787 0.232113 16.9263
v 13.2989 0.229217 16.9263
v 13.3218 0.205281 16.9263
v 13.3228 0.187919 16.9263
v 13.3811 0.187919 16.9263
v 13.754 -0.212326 16.9263
v 13.7832 -0.232992 16.9263
v 13.8182 -0.240318 16.9263
v 13.9206 -0.231493 0
v 13.8694 -0.222668 0
v 13.8042 -0.219744 0
v 13.7785 -0.208557 0
v 13.5778 0.00263716 0
v 13.3643 0.205569 0
v 13.3329 0.219151 0
v 13.316 0.239111 0
v 13.2923 0.247626 0
v 13.2648 0.244289 0
v 13.2402 0.22695 0
v 13.2172 0.201913 0
v 13.1885 0.182668 0
v 13.1633 0.17825 0
v 13.1406 0.190343 0
v 13.1149 0.214084 0
v 13.0904 0.237044 0
v 13.0584 0.246079 0
v 13.0305 0.24003 0
v 13.0135 0.220085 0
v 12.9828 0.205569 0
v 12.7654 0.00341279 0
v 12.5521 -0.211061 0
v 12.5128 -0.227746 0
v 11.9288 -0.232113 0
v 11.3234 -0.185816 0
v 10.9052 -0.139519 0
v 10.494 -0.185816 0
v 9.89833 -0.232113 0
v 9.29479 -0.185816 0
v 8.87493 -0.139519 0
v 8.45389 -0.185816 0
v 7.80698 -0.232113 0
v 7.02052 -0.0148319 0
v 6.54928 0.204009 0
v 6.07718 -0.013272 0
v 5.30878 -0.232113 0
v 4.67986 -0.185816 0
v 4.25707 -0.139519 0
v 3.84478 -0.185816 0
v 3.2417 -0.232113 0
v 2.63405 -0.185816 0
v 2.22301 -0.139519 0
v 1.81155 -0.185816 0
v 1.15905 -0.232113 0
v 0.360799 -0.0148146 0
v -0.106262 0.204026 0
v -0.569583 -0.013272 0
v -1.36044 -0.232113 0
v -2.00082 -0.185816 0
v -2.40244 -0.139519 0
v -2.80136 -0.185816 0
v -3.39887 -0.232113 0
v -4.01261 -0.185816 0
v -4.43573 -0.139519 0
v -4.85408 -0.185816 0
v -5.49979 -0.232113 0
v -6.29019 -0.013272 0
v -6.75827 0.205569 0
v -7.22892 -0.013272 0
v -8.00305 -0.232113 0
v -8.63419 -0.185816 0
v -9.04929 -0.139519 0
v -9.46591 -0.185816 0
v -10.0661 -0.232113 0
v -10.6643 -0.185816 0
v -11.0825 -0.139519 0
v -11.4898 -0.185816 0
v -12.1415 -0.232113 0
v -12.9429 -0.013272 0
v -13.4147 0.205569 0
v -13.812 0.0128928 0
v -13.8069 0.00406777 0
v -13.4137 0.187919 0
v -12.9512 -0.030922 0
v -12.141 -0.249763 0
v -11.4807 -0.203466 0
v -11.0817 -0.157169 0
v -10.6718 -0.203466 0
v -10.0663 -0.249763 0
v -9.4586 -0.203466 0
v -9.04937 -0.157169 0
v -8.64167 -0.203466 0
v -8.00274 -0.249763 0
v -7.22082 -0.030922 0
v -6.75831 0.187919 0
v -6.29838 -0.030922 0
v -5.49989 -0.249763 0
v -4.84608 -0.203466 0
v -4.43545 -0.157169 0
v -4.02003 -0.203466 0
v -3.39769 -0.249763 0
v -2.7916 -0.203466 0
v -2.40222 -0.157169 0
v -2.01013 -0.203466 0
v -1.36095 -0.249763 0
v -0.56131 -0.030922 0
v -0.10752 0.187919 0
v 0.351337 -0.030922 0
v 1.15901 -0.249763 0
v 1.81961 -0.203466 0
v 2.22298 -0.157169 0
v 2.62591 -0.203466 0
v 3.24201 -0.249763 0
v 3.85353 -0.203466 0
v 4.25776 -0.157169 0
v 4.67248 -0.203466 0
v 5.30919 -0.249763 0
v 6.08538 -0.030922 0
v 6.54797 0.187919 0
v 7.00971 -0.0293707 0
v 7.80534 -0.248212 0
v 8.46141 -0.203466 0
v 8.87486 -0.157169 0
v 9.28713 -0.203466 0
v 9.89885 -0.249763 0
v 10.5027 -0.203466 0
v 10.9057 -0.157169 0
v 11.3157 -0.203466 0
v 11.9249 -0.249763 0
v 12.5162 -0.244691 0
v 12.5619 -0.225318 0
v 12.7755 -0.0115483 0
v 12.994 0.187919 0
v 13.0239 0.201166 0
v 13.0453 0.223263 0
v 13.0722 0.227783 0
v 13.0915 0.213288 0
v 13.1159 0.188196 0
v 13.14 0.168103 0
v 13.1607 0.160941 0
v 13.1839 0.161057 0
v 13.2053 0.168571 0
v 13.229 0.18903 0
v 13.2518 0.213911 0
v 13.2696 0.227925 0
v 13.2888 0.230665 0
v 13.3104 0.217249 0
v 13.3223 0.1966 0
v 13.352 0.187919 0
v 13.5676 -0.0122033 0
v 13.7686 -0.222659 0
v 13.8007 -0.236655 0
v 13.8694 -0.240318 0


# Vertex Texture Coordinates :
vt 0.4033 0.000136825
vt 0.4033 0.000392498
vt 0.401817 0.000392498
vt 0.401411 0.000477202
vt 0.401073 0.000716583
vt 0.395596 0.00659581
vt 0.394887 0.00659581
vt 0.394688 0.00698931
vt 0.394396 0.00717407
vt 0.394001 0.007236
vt 0.3936 0.00707742
vt 0.393287 0.00673364
vt 0.392935 0.00635206
vt 0.392456 0.0061761
vt 0.392205 0.00622406
vt 0.391799 0.00652644
vt 0.391458 0.00691188
vt 0.391091 0.00719163
vt 0.390529 0.00717364
vt 0.390284 0.00701637
vt 0.390035 0.00659581
vt 0.389396 0.00659581
vt 0.383736 0.000739055
vt 0.383216 0.000382198
vt 0.382597 0.000255673
vt 0.366296 0.000255673
vt 0.365059 0.00159696
vt 0.35418 0.00159696
vt 0.353146 0.000255673
vt 0.336923 0.000255673
vt 0.33566 0.00159696
vt 0.324759 0.00159696
vt 0.323462 0.000255673
vt 0.306017 0.000255673
vt 0.300677 0.00655062
vt 0.292365 0.00659581
vt 0.287 0.000255673
vt 0.270103 0.000255673
vt 0.268779 0.00159696
vt 0.257854 0.00159696
vt 0.256834 0.000255673
vt 0.240382 0.000255673
vt 0.23923 0.00159696
vt 0.228474 0.00159696
vt 0.227309 0.000255673
vt 0.20957 0.000255673
vt 0.204183 0.00655112
vt 0.196039 0.00659581
vt 0.19076 0.000255673
vt 0.173127 0.000255673
vt 0.172207 0.00159696
vt 0.161491 0.00159696
vt 0.16065 0.000255673
vt 0.14418 0.000255673
vt 0.142869 0.00159696
vt 0.131922 0.00159696
vt 0.130749 0.000255673
vt 0.113214 0.000255673
vt 0.10785 0.00659581
vt 0.0996535 0.00659581
vt 0.094214 0.000255673
vt 0.077226 0.000255673
vt 0.0759289 0.00159696
vt 0.0652001 0.00159696
vt 0.0638588 0.000255673
vt 0.0478106 0.000255673
vt 0.0465302 0.00159696
vt 0.0356938 0.00159696
vt 0.0347301 0.000255673
vt 0.0168145 0.000255673
vt 0.0115105 0.00659581
vt 0.00314598 0.00659581
vt 0 0.0010137
vt 0.00329529 0.00634014
vt 0.0113912 0.00634014
vt 0.0166951 0
vt 0.0348614 0
vt 0.0358252 0.00134128
vt 0.0464209 0.00134128
vt 0.0477012 0
vt 0.0639647 0
vt 0.065306 0.00134128
vt 0.0758205 0.00134128
vt 0.0771176 0
vt 0.0943314 0
vt 0.0997709 0.00634014
vt 0.107731 0.00634014
vt 0.113096 0
vt 0.130864 0
vt 0.132038 0.00134128
vt 0.142761 0.00134128
vt 0.144073 0
vt 0.160791 0
vt 0.161632 0.00134128
vt 0.172072 0.00134128
vt 0.172992 0
vt 0.190879 0
vt 0.196159 0.00634014
vt 0.204026 0.00634014
vt 0.209452 0
vt 0.227426 0
vt 0.228591 0.00134128
vt 0.239112 0.00134128
vt 0.240264 0
vt 0.256961 0
vt 0.257981 0.00134128
vt 0.268672 0.00134128
vt 0.269996 0
vt 0.287119 0
vt 0.292484 0.00634014
vt 0.30052 0.00634014
vt 0.305861 4.49425e-05
vt 0.323571 0
vt 0.324868 0.00134128
vt 0.335549 0.00134128
vt 0.336812 0
vt 0.353271 0
vt 0.354306 0.00134128
vt 0.364947 0.00134128
vt 0.366184 0
vt 0.382597 0
vt 0.383316 0.000146937
vt 0.38392 0.000561282
vt 0.389505 0.00634014
vt 0.390251 0.00634014
vt 0.39037 0.00672393
vt 0.39087 0.00698032
vt 0.391151 0.00685489
vt 0.391428 0.00656036
vt 0.391857 0.00612794
vt 0.392128 0.00597825
vt 0.392456 0.00592043
vt 0.3928 0.00598163
vt 0.393076 0.00613812
vt 0.393487 0.00657434
vt 0.393738 0.00685898
vt 0.394001 0.00698032
vt 0.394295 0.00693838
vt 0.394626 0.00659164
vt 0.39464 0.00634014
vt 0.395485 0.00634014
vt 0.400886 0.000542306
vt 0.401309 0.000242939
vt 0.401817 0.000136825
vt 0.409328 0.000136825
vt 0.409328 0.000392498
vt 0.410811 0.000392498
vt 0.411216 0.000477202
vt 0.411555 0.000716583
vt 0.417031 0.00659581
vt 0.417741 0.00659581
vt 0.41794 0.00698931
vt 0.418231 0.00717407
vt 0.418626 0.007236
vt 0.419028 0.00707742
vt 0.419341 0.00673364
vt 0.419693 0.00635206
vt 0.420172 0.0061761
vt 0.420423 0.00622406
vt 0.420829 0.00652644
vt 0.421169 0.00691188
vt 0.421537 0.00719163
vt 0.422098 0.00717364
vt 0.422343 0.00701637
vt 0.422593 0.00659581
vt 0.423231 0.00659581
vt 0.428891 0.000739055
vt 0.429412 0.000382198
vt 0.43003 0.000255673
vt 0.446332 0.000255673
vt 0.447568 0.00159696
vt 0.458447 0.00159696
vt 0.459482 0.000255673
vt 0.475704 0.000255673
vt 0.476968 0.00159696
vt 0.487868 0.00159696
vt 0.489166 0.000255673
vt 0.50661 0.000255673
vt 0.51195 0.00655062
vt 0.520263 0.00659581
vt 0.525628 0.000255673
vt 0.542524 0.000255673
vt 0.543849 0.00159696
vt 0.554773 0.00159696
vt 0.555793 0.000255673
vt 0.572245 0.000255673
vt 0.573398 0.00159696
vt 0.584154 0.00159696
vt 0.585319 0.000255673
vt 0.603057 0.000255673
vt 0.608445 0.00655112
vt 0.616589 0.00659581
vt 0.621868 0.000255673
vt 0.639501 0.000255673
vt 0.640421 0.00159696
vt 0.651137 0.00159696
vt 0.651978 0.000255673
vt 0.668447 0.000255673
vt 0.669759 0.00159696
vt 0.680706 0.00159696
vt 0.681879 0.000255673
vt 0.699413 0.000255673
vt 0.704778 0.00659581
vt 0.712974 0.00659581
vt 0.718414 0.000255673
vt 0.735402 0.000255673
vt 0.736699 0.00159696
vt 0.747428 0.00159696
vt 0.748769 0.000255673
vt 0.764817 0.000255673
vt 0.766097 0.00159696
vt 0.776934 0.00159696
vt 0.777898 0.000255673
vt 0.795813 0.000255673
vt 0.801117 0.00659581
vt 0.809482 0.00659581
vt 0.812628 0.0010137
vt 0.809332 0.00634014
vt 0.801236 0.00634014
vt 0.795933 0
vt 0.777766 0
vt 0.776802 0.00134128
vt 0.766207 0.00134128
vt 0.764926 0
vt 0.748663 0
vt 0.747322 0.00134128
vt 0.736807 0.00134128
vt 0.73551 0
vt 0.718296 0
vt 0.712857 0.00634014
vt 0.704897 0.00634014
vt 0.699532 0
vt 0.681763 0
vt 0.68059 0.00134128
vt 0.669867 0.00134128
vt 0.668555 0
vt 0.651837 0
vt 0.650995 0.00134128
vt 0.640556 0.00134128
vt 0.639636 0
vt 0.621748 0
vt 0.616469 0.00634014
vt 0.608601 0.00634014
vt 0.603175 0
vt 0.585202 0
vt 0.584037 0.00134128
vt 0.573516 0.00134128
vt 0.572363 0
vt 0.555667 0
vt 0.554646 0.00134128
vt 0.543956 0.00134128
vt 0.542631 0
vt 0.525509 0
vt 0.520144 0.00634014
vt 0.512107 0.00634014
vt 0.506767 4.49425e-05
vt 0.489057 0
vt 0.487759 0.00134128
vt 0.477079 0.00134128
vt 0.475815 0
vt 0.459356 0
vt 0.458322 0.00134128
vt 0.44768 0.00134128
vt 0.446444 0
vt 0.43003 0
vt 0.429312 0.000146937
vt 0.428707 0.000561282
vt 0.423123 0.00634014
vt 0.422377 0.00634014
vt 0.422258 0.00672393
vt 0.421758 0.00698032
vt 0.421477 0.00685489
vt 0.4212 0.00656036
vt 0.42077 0.00612794
vt 0.420499 0.00597825
vt 0.420172 0.00592043
vt 0.419828 0.00598163
vt 0.419552 0.00613812
vt 0.419141 0.00657434
vt 0.41889 0.00685898
vt 0.418626 0.00698032
vt 0.418333 0.00693838
vt 0.418002 0.00659164
vt 0.417988 0.00634014
vt 0.417142 0.00634014
vt 0.411742 0.000542306
vt 0.411318 0.000242939
vt 0.410811 0.000136825
vt 3.08839e-05 0.0132556
vt 0.000286557 0.0132556
vt 0.00635888 0.0132556
vt 0.00784199 0.0132556
vt 0.00825628 0.0132556
vt 0.00867088 0.0132556
vt 0.0167056 0.0132556
vt 0.00632874 0.509621
vt 0.00703834 0.509621
vt 0.0227432 0.0132556
vt 0.023184 0.0132556
vt 0.0235293 0.0132556
vt 0.0239291 0.0132556
vt 0.0243606 0.0132556
vt 0.0248257 0.0132556
vt 0.0253449 0.0132556
vt 0.025855 0.0132556
vt 0.0261105 0.0132556
vt 0.0266169 0.0132556
vt 0.027131 0.0132556
vt 0.0275932 0.0132556
vt 0.0281547 0.0132556
vt 0.0284458 0.0132556
vt 0.0289348 0.0132556
vt 0.0130686 0.509621
vt 0.0137073 0.509621
vt 0.0349535 0.0132556
vt 0.0430981 0.0132556
vt 0.0437292 0.0132556
vt 0.0443606 0.0132556
vt 0.0606622 0.0132556
vt 0.0227719 0.509621
vt 0.0245961 0.509621
vt 0.0349456 0.509621
vt 0.0458247 0.509621
vt 0.0518695 0.509621
vt 0.0535634 0.509621
vt 0.0666939 0.0132556
vt 0.0829162 0.0132556
vt 0.0667005 0.509621
vt 0.0685431 0.509621
vt 0.0889891 0.0132556
vt 0.0998897 0.0132556
vt 0.0745904 0.509621
vt 0.0764564 0.509621
vt 0.10595 0.0132556
vt 0.123395 0.0132556
vt 0.0889351 0.509621
vt 0.0971901 0.509621
vt 0.105967 0.509621
vt 0.114279 0.509621
vt 0.129436 0.0132556
vt 0.137741 0.0132556
vt 0.143817 0.0132556
vt 0.160713 0.0132556
vt 0.120315 0.509621
vt 0.122199 0.509621
vt 0.14381 0.509621
vt 0.154734 0.509621
vt 0.129453 0.509621
vt 0.131139 0.509621
vt 0.166786 0.0132556
vt 0.183238 0.0132556
vt 0.166765 0.509621
vt 0.168533 0.509621
vt 0.189268 0.0132556
vt 0.200024 0.0132556
vt 0.174543 0.509621
vt 0.176319 0.509621
vt 0.20607 0.0132556
vt 0.223808 0.0132556
vt 0.189306 0.509621
vt 0.197592 0.509621
vt 0.206078 0.509621
vt 0.214222 0.509621
vt 0.22985 0.0132556
vt 0.2381 0.0132556
vt 0.244134 0.0132556
vt 0.261767 0.0132556
vt 0.220292 0.509621
vt 0.221918 0.509621
vt 0.244121 0.509621
vt 0.254837 0.509621
vt 0.229891 0.509621
vt 0.231474 0.509621
vt 0.267822 0.0132556
vt 0.284291 0.0132556
vt 0.267816 0.509621
vt 0.269692 0.509621
vt 0.290338 0.0132556
vt 0.301284 0.0132556
vt 0.275705 0.509621
vt 0.277487 0.509621
vt 0.307337 0.0132556
vt 0.324871 0.0132556
vt 0.290341 0.509621
vt 0.298647 0.509621
vt 0.307337 0.509621
vt 0.315533 0.509621
vt 0.330903 0.0132556
vt 0.339256 0.0132556
vt 0.345262 0.0132556
vt 0.36225 0.0132556
vt 0.321576 0.509621
vt 0.323442 0.509621
vt 0.345279 0.509621
vt 0.356008 0.509621
vt 0.330899 0.509621
vt 0.332796 0.509621
vt 0.368299 0.0132556
vt 0.384348 0.0132556
vt 0.368273 0.509621
vt 0.370127 0.509621
vt 0.39042 0.0132556
vt 0.401256 0.0132556
vt 0.376156 0.509621
vt 0.377808 0.509621
vt 0.407293 0.0132556
vt 0.425209 0.0132556
vt 0.390448 0.509621
vt 0.398714 0.509621
vt 0.40728 0.509621
vt 0.415644 0.509621
vt 0.431245 0.0132556
vt 0.437652 0.0132556
vt 0.431257 0.509621
vt 0.43752 0.509621
vt 0.44369 0.0132556
vt 0.451785 0.0132556
vt 0.457851 0.0132556
vt 0.466117 0.0132556
vt 0.472176 0.0132556
vt 0.490343 0.0132556
vt 0.42165 0.509621
vt 0.423302 0.509621
vt 0.47219 0.509621
vt 0.482786 0.509621
vt 0.443698 0.509621
vt 0.445552 0.509621
vt 0.496354 0.0132556
vt 0.512617 0.0132556
vt 0.457803 0.509621
vt 0.4597 0.509621
vt 0.496355 0.509621
vt 0.506869 0.509621
vt 0.518637 0.0132556
vt 0.520503 0.0132556
vt 0.526527 0.0132556
vt 0.543741 0.0132556
vt 0.526528 0.509621
vt 0.534881 0.509621
vt 0.549771 0.0132556
vt 0.557731 0.0132556
vt 0.563785 0.0132556
vt 0.572091 0.0132556
vt 0.578149 0.0132556
vt 0.595918 0.0132556
vt 0.518619 0.509621
vt 0.520401 0.509621
vt 0.57814 0.509621
vt 0.588863 0.509621
vt 0.5409 0.509621
vt 0.542777 0.509621
vt 0.60196 0.0132556
vt 0.618678 0.0132556
vt 0.549787 0.509621
vt 0.55137 0.509621
vt 0.601987 0.509621
vt 0.612426 0.509621
vt 0.563772 0.509621
vt 0.565399 0.509621
vt 0.624721 0.0132556
vt 0.642609 0.0132556
vt 0.624691 0.509621
vt 0.632941 0.509621
vt 0.648647 0.0132556
vt 0.656515 0.0132556
vt 0.662536 0.0132556
vt 0.670881 0.0132556
vt 0.676937 0.0132556
vt 0.69491 0.0132556
vt 0.638942 0.509621
vt 0.640719 0.509621
vt 0.676892 0.509621
vt 0.687413 0.509621
vt 0.648644 0.509621
vt 0.650412 0.509621
vt 0.700981 0.0132556
vt 0.717677 0.0132556
vt 0.662573 0.509621
vt 0.664258 0.509621
vt 0.70099 0.509621
vt 0.711681 0.509621
vt 0.723711 0.0132556
vt 0.725596 0.0132556
vt 0.731656 0.0132556
vt 0.748778 0.0132556
vt 0.731635 0.509621
vt 0.73994 0.509621
vt 0.754875 0.0132556
vt 0.762912 0.0132556
vt 0.768953 0.0132556
vt 0.777208 0.0132556
vt 0.783201 0.0132556
vt 0.800911 0.0132556
vt 0.72372 0.509621
vt 0.725586 0.509621
vt 0.783244 0.509621
vt 0.793925 0.509621
vt 0.746 0.509621
vt 0.747843 0.509621
vt 0.806933 0.0132556
vt 0.823392 0.0132556
vt 0.754874 0.509621
vt 0.756568 0.509621
vt 0.806909 0.509621
vt 0.81755 0.509621
vt 0.768996 0.509621
vt 0.77082 0.509621
vt 0.829441 0.0132556
vt 0.845855 0.0132556
vt 0.846588 0.0132556
vt 0.847321 0.0132556
vt 0.855357 0.0132556
vt 0.283526 0.509621
vt 0.284271 0.509621
vt 0.0825057 0.509621
vt 0.0829076 0.509621
vt 0.137198 0.509621
vt 0.13776 0.509621
vt 0.82946 0.509621
vt 0.829768 0.509621
vt 0.830172 0.509621
vt 0.830782 0.509621
vt 0.831091 0.509621
vt 0.831424 0.509621
vt 0.831773 0.509621
vt 0.83209 0.509621
vt 0.83269 0.509621
vt 0.833069 0.509621
vt 0.83336 0.509621
vt 0.833656 0.509621
vt 0.834135 0.509621
vt 0.834387 0.509621
vt 0.182371 0.509621
vt 0.183217 0.509621
vt 0.84047 0.509621
vt 0.848393 0.509621
vt 0.848912 0.509621
vt 0.84943 0.509621
vt 0.850913 0.509621
vt 3.08839e-05 0.503635
vt 0.000286557 0.503635
vt 0.00635888 0.503635
vt 0.00784199 0.503635
vt 0.00825628 0.503635
vt 0.00867088 0.503635
vt 0.0167056 0.503635
vt 0.00632874 1
vt 0.00703834 1
vt 0.0227432 0.503635
vt 0.023184 0.503635
vt 0.0235293 0.503635
vt 0.0239291 0.503635
vt 0.0243606 0.503635
vt 0.0248257 0.503635
vt 0.0253449 0.503635
vt 0.025855 0.503635
vt 0.0261105 0.503635
vt 0.0266169 0.503635
vt 0.027131 0.503635
vt 0.0275932 0.503635
vt 0.0281547 0.503635
vt 0.0284458 0.503635
vt 0.0289348 0.503635
vt 0.0130686 1
vt 0.0137073 1
vt 0.0349535 0.503635
vt 0.0430981 0.503635
vt 0.0437292 0.503635
vt 0.0443606 0.503635
vt 0.0606622 0.503635
vt 0.0227719 1
vt 0.0245961 1
vt 0.0349456 1
vt 0.0458247 1
vt 0.0518695 1
vt 0.0535634 1
vt 0.0666939 0.503635
vt 0.0829162 0.503635
vt 0.0667005 1
vt 0.0685431 1
vt 0.0889891 0.503635
vt 0.0998897 0.503635
vt 0.0745904 1
vt 0.0764564 1
vt 0.10595 0.503635
vt 0.123395 0.503635
vt 0.0889351 1
vt 0.0971901 1
vt 0.105967 1
vt 0.114279 1
vt 0.129436 0.503635
vt 0.137741 0.503635
vt 0.143817 0.503635
vt 0.160713 0.503635
vt 0.120315 1
vt 0.122199 1
vt 0.14381 1
vt 0.154734 1
vt 0.129453 1
vt 0.131139 1
vt 0.166786 0.503635
vt 0.183238 0.503635
vt 0.166765 1
vt 0.168533 1
vt 0.189268 0.503635
vt 0.200024 0.503635
vt 0.174543 1
vt 0.176319 1
vt 0.20607 0.503635
vt 0.223808 0.503635
vt 0.189306 1
vt 0.197592 1
vt 0.206078 1
vt 0.214222 1
vt 0.22985 0.503635
vt 0.2381 0.503635
vt 0.244134 0.503635
vt 0.261767 0.503635
vt 0.220292 1
vt 0.221918 1
vt 0.244121 1
vt 0.254837 1
vt 0.229891 1
vt 0.231474 1
vt 0.267822 0.503635
vt 0.284291 0.503635
vt 0.267816 1
vt 0.269692 1
vt 0.290338 0.503635
vt 0.301284 0.503635
vt 0.275705 1
vt 0.277487 1
vt 0.307337 0.503635
vt 0.324871 0.503635
vt 0.290341 1
vt 0.298647 1
vt 0.307337 1
vt 0.315533 1
vt 0.330903 0.503635
vt 0.339256 0.503635
vt 0.345262 0.503635
vt 0.36225 0.503635
vt 0.321576 1
vt 0.323442 1
vt 0.345279 1
vt 0.356008 1
vt 0.330899 1
vt 0.332796 1
vt 0.368299 0.503635
vt 0.384348 0.503635
vt 0.368273 1
vt 0.370127 1
vt 0.39042 0.503635
vt 0.401256 0.503635
vt 0.376156 1
vt 0.377808 1
vt 0.407293 0.503635
vt 0.425209 0.503635
vt 0.390448 1
vt 0.398714 1
vt 0.40728 1
vt 0.415644 1
vt 0.431245 0.503635
vt 0.437652 0.503635
vt 0.431257 1
vt 0.43752 1
vt 0.44369 0.503635
vt 0.451785 0.503635
vt 0.457851 0.503635
vt 0.466117 0.503635
vt 0.472176 0.503635
vt 0.490343 0.503635
vt 0.42165 1
vt 0.423302 1
vt 0.47219 1
vt 0.482786 1
vt 0.443698 1
vt 0.445552 1
vt 0.496354 0.503635
vt 0.512617 0.503635
vt 0.457803 1
vt 0.4597 1
vt 0.496355 1
vt 0.506869 1
vt 0.518637 0.503635
vt 0.520503 0.503635
vt 0.526527 0.503635
vt 0.543741 0.503635
vt 0.526528 1
vt 0.534881 1
vt 0.549771 0.503635
vt 0.557731 0.503635
vt 0.563785 0.503635
vt 0.572091 0.503635
vt 0.578149 0.503635
vt 0.595918 0.503635
vt 0.518619 1
vt 0.520401 1
vt 0.57814 1
vt 0.588863 1
vt 0.5409 1
vt 0.542777 1
vt 0.60196 0.503635
vt 0.618678 0.503635
vt 0.549787 1
vt 0.55137 1
vt 0.601987 1
vt 0.612426 1
vt 0.563772 1
vt 0.565399 1
vt 0.624721 0.503635
vt 0.642609 0.503635
vt 0.624691 1
vt 0.632941 1
vt 0.648647 0.503635
vt 0.656515 0.503635
vt 0.662536 0.503635
vt 0.670881 0.503635
vt 0.676937 0.503635
vt 0.69491 0.503635
vt 0.638942 1
vt 0.640719 1
vt 0.676892 1
vt 0.687413 1
vt 0.648644 1
vt 0.650412 1
vt 0.700981 0.503635
vt 0.717677 0.503635
vt 0.662573 1
vt 0.664258 1
vt 0.70099 1
vt 0.711681 1
vt 0.723711 0.503635
vt 0.725596 0.503635
vt 0.731656 0.503635
vt 0.748778 0.503635
vt 0.731635 1
vt 0.73994 1
vt 0.754875 0.503635
vt 0.762912 0.503635
vt 0.768953 0.503635
vt 0.777208 0.503635
vt 0.783201 0.503635
vt 0.800911 0.503635
vt 0.72372 1
vt 0.725586 1
vt 0.783244 1
vt 0.793925 1
vt 0.746 1
vt 0.747843 1
vt 0.806933 0.503635
vt 0.823392 0.503635
vt 0.754874 1
vt 0.756568 1
vt 0.806909 1
vt 0.81755 1
vt 0.768996 1
vt 0.77082 1
vt 0.829441 0.503635
vt 0.845855 0.503635
vt 0.846588 0.503635
vt 0.847321 0.503635
vt 0.855357 0.503635
vt 0.283526 1
vt 0.284271 1
vt 0.0825057 1
vt 0.0829076 1
vt 0.137198 1
vt 0.13776 1
vt 0.82946 1
vt 0.829768 1
vt 0.830172 1
vt 0.830782 1
vt 0.831091 1
vt 0.831424 1
vt 0.831773 1
vt 0.83209 1
vt 0.83269 1
vt 0.833069 1
vt 0.83336 1
vt 0.833656 1
vt 0.834135 1
vt 0.834387 1
vt 0.182371 1
vt 0.183217 1
vt 0.84047 1
vt 0.848393 1
vt 0.848912 1
vt 0.84943 1
vt 0.850913 1
vt 0.00015872 0.258445
vt 0.00710044 0.258445
vt 0.00804914 0.258445
vt 0.00846358 0.258445
vt 0.0126883 0.258445
vt 0.00668354 0.75481
vt 0.0229636 0.258445
vt 0.0233566 0.258445
vt 0.0237292 0.258445
vt 0.0241448 0.258445
vt 0.0245931 0.258445
vt 0.0250853 0.258445
vt 0.0256 0.258445
vt 0.0259828 0.258445
vt 0.0263637 0.258445
vt 0.026874 0.258445
vt 0.0273621 0.258445
vt 0.0278739 0.258445
vt 0.0283002 0.258445
vt 0.0286903 0.258445
vt 0.0133879 0.75481
vt 0.0390258 0.258445
vt 0.0434136 0.258445
vt 0.0440449 0.258445
vt 0.0525114 0.258445
vt 0.023684 0.75481
vt 0.0403851 0.75481
vt 0.0527164 0.75481
vt 0.0748051 0.258445
vt 0.0676218 0.75481
vt 0.0944394 0.258445
vt 0.0755234 0.75481
vt 0.114672 0.258445
vt 0.0930626 0.75481
vt 0.110123 0.75481
vt 0.133588 0.258445
vt 0.152265 0.258445
vt 0.121257 0.75481
vt 0.149272 0.75481
vt 0.130296 0.75481
vt 0.175012 0.258445
vt 0.167649 0.75481
vt 0.194646 0.258445
vt 0.175431 0.75481
vt 0.214939 0.258445
vt 0.193449 0.75481
vt 0.21015 0.75481
vt 0.233975 0.258445
vt 0.252951 0.258445
vt 0.221105 0.75481
vt 0.249479 0.75481
vt 0.230682 0.75481
vt 0.276057 0.258445
vt 0.268754 0.75481
vt 0.295811 0.258445
vt 0.276596 0.75481
vt 0.316104 0.258445
vt 0.294494 0.75481
vt 0.311435 0.75481
vt 0.33508 0.258445
vt 0.353756 0.258445
vt 0.322509 0.75481
vt 0.350643 0.75481
vt 0.331847 0.75481
vt 0.376324 0.258445
vt 0.3692 0.75481
vt 0.395838 0.258445
vt 0.376982 0.75481
vt 0.416251 0.258445
vt 0.394581 0.75481
vt 0.411462 0.75481
vt 0.434448 0.258445
vt 0.434389 0.75481
vt 0.447737 0.258445
vt 0.461984 0.258445
vt 0.481259 0.258445
vt 0.422476 0.75481
vt 0.477488 0.75481
vt 0.444625 0.75481
vt 0.504485 0.258445
vt 0.458752 0.75481
vt 0.501612 0.75481
vt 0.51957 0.258445
vt 0.535134 0.258445
vt 0.530704 0.75481
vt 0.553751 0.258445
vt 0.567938 0.258445
vt 0.587033 0.258445
vt 0.51951 0.75481
vt 0.583502 0.75481
vt 0.541839 0.75481
vt 0.610319 0.258445
vt 0.550578 0.75481
vt 0.607206 0.75481
vt 0.564586 0.75481
vt 0.633665 0.258445
vt 0.628816 0.75481
vt 0.652581 0.258445
vt 0.666708 0.258445
vt 0.685923 0.258445
vt 0.639831 0.75481
vt 0.682152 0.75481
vt 0.649528 0.75481
vt 0.709329 0.258445
vt 0.663416 0.75481
vt 0.706336 0.75481
vt 0.724653 0.258445
vt 0.740217 0.258445
vt 0.735787 0.75481
vt 0.758894 0.258445
vt 0.773081 0.258445
vt 0.792056 0.258445
vt 0.724653 0.75481
vt 0.788585 0.75481
vt 0.746921 0.75481
vt 0.815163 0.258445
vt 0.755721 0.75481
vt 0.81223 0.75481
vt 0.769908 0.75481
vt 0.837648 0.258445
vt 0.846221 0.258445
vt 0.846954 0.258445
vt 0.851339 0.258445
vt 0.283899 0.75481
vt 0.0827067 0.75481
vt 0.137479 0.75481
vt 0.829614 0.75481
vt 0.82997 0.75481
vt 0.830477 0.75481
vt 0.830937 0.75481
vt 0.831258 0.75481
vt 0.831599 0.75481
vt 0.831932 0.75481
vt 0.83239 0.75481
vt 0.83288 0.75481
vt 0.833214 0.75481
vt 0.833508 0.75481
vt 0.833896 0.75481
vt 0.834261 0.75481
vt 0.182794 0.75481
vt 0.844432 0.75481
vt 0.848653 0.75481
vt 0.849171 0.75481
vt 0.850172 0.75481


# Vertex Surface Normals: 
vn 0 0 1
vn 0 0 -1
vn 1 0 0
vn 1 0 0
vn 1 0 0
vn 1 0 0
vn 1 0 0
vn 0 1 0
vn 0 1 0
vn 0.102771 0.994705 -5.53344e-18
vn 0.102771 0.994705 5.53344e-18
vn 0 1 0
vn 0.204454 0.978876 0
vn 0.399265 0.916836 2.64466e-17
vn 0.399265 0.916836 -2.64466e-17
vn 0.577386 0.816471 0
vn 0.65802 0.753 1.18414e-17
vn 0.65802 0.753 -1.18414e-17
vn 0.731725 0.6816 0
vn 0.731725 0.6816 -3.92379e-17
vn 0.731725 0.6816 3.92379e-17
vn 0 1 0
vn 0 1 0
vn 0 1 0
vn 0 1 0
vn 0 1 0
vn 0.892607 0.450835 0
vn 0.892607 0.450835 -4.87657e-17
vn 0.740567 0.671982 -9.62793e-18
vn 0.740567 0.671982 9.62793e-18
vn 0.892607 0.450835 4.87657e-17
vn 0.535189 0.844732 0
vn 0.352382 0.935856 1.54234e-17
vn 0.352382 0.935856 -1.54234e-17
vn 0.154872 0.987934 0
vn -0.110191 0.99391 0
vn -0.110191 0.99391 0
vn -0.367509 0.93002 0
vn -0.567981 0.823042 0
vn -0.567981 0.823042 0
vn -0.739126 0.673567 0
vn -0.736991 0.675902 0
vn -0.736991 0.675902 0
vn -0.734849 0.67823 0
vn -0.555387 0.831592 0
vn -0.555387 0.831592 0
vn -0.344974 0.938612 0
vn -0.0815902 0.996666 5.23901e-18
vn -0.0815902 0.996666 -5.23901e-18
vn 0.187728 0.982221 0
vn 0.402624 0.915366 -1.19647e-17
vn 0.402624 0.915366 1.19647e-17
vn 0.597126 0.802147 0
vn 0.67707 0.735919 -1.73491e-17
vn 0.67707 0.735919 1.73491e-17
vn 0.749716 0.66176 0
vn 0.680826 0.732445 1.58106e-17
vn 0.680826 0.732445 -1.58106e-17
vn 0.605303 0.795995 0
vn 0.304159 0.952621 1.81656e-17
vn 0.304159 0.952621 -1.81656e-17
vn -0.032029 0.999487 0
vn -0.296865 0.95492 1.32505e-19
vn -0.296865 0.95492 -1.32505e-19
vn -0.540289 0.841479 0
vn -0.719491 0.694502 -7.31941e-19
vn -0.719491 0.694502 7.31941e-19
vn -0.860045 0.510219 0
vn -0.860045 0.510219 0
vn -0.860045 0.510219 0
vn 0 1 0
vn 0 1 0
vn 0 1 0
vn 0 1 0
vn 0 1 0
vn -0.719097 0.69491 0
vn -0.719097 0.69491 0
vn -0.645569 0.763702 0
vn -0.645569 0.763702 0
vn -0.719097 0.69491 0
vn -0.565496 0.824751 0
vn -0.390704 0.920516 5.49609e-18
vn -0.390704 0.920516 -5.49609e-18
vn -0.200392 0.979716 0
vn -0.100708 0.994916 5.41446e-18
vn -0.100708 0.994916 -5.41446e-18
vn 0 1 0
vn 0 1 0
vn 0 1 0
vn 0.735265 0.67778 0
vn 0.735265 0.67778 0
vn 0.735265 0.67778 0
vn 0.735265 0.67778 0
vn 0.735265 0.67778 0
vn 0 1 0
vn 0 1 0
vn 0 1 0
vn 0 1 0
vn 0 1 0
vn -0.79179 0.610793 0
vn -0.79179 0.610793 0
vn -0.79179 0.610793 0
vn -0.79179 0.610793 0
vn -0.79179 0.610793 0
vn 0 1 0
vn 0 1 0
vn 0 1 0
vn 0 1 0
vn 0 1 0
vn 0.727929 0.685652 0
vn 0.727929 0.685652 0
vn 0.727929 0.685652 0
vn 0.727929 0.685652 0
vn 0.727929 0.685652 0
vn 0 1 0
vn 0 1 0
vn 0 1 0
vn 0 1 0
vn 0 1 0
vn -0.718783 0.695234 0
vn -0.718783 0.695234 0
vn -0.718783 0.695234 0
vn -0.718783 0.695234 0
vn -0.718783 0.695234 0
vn 0 1 0
vn 0 1 0
vn 0 1 0
vn 0 1 0
vn 0 1 0
vn 0.762569 0.646907 0
vn 0.762569 0.646907 2.02131e-17
vn 0.762569 0.646907 2.02131e-17
vn 0.762569 0.646907 -2.02131e-17
vn 0.762569 0.646907 -2.02131e-17
vn 0.00543667 0.999985 0
vn 0.00543667 0.999985 -1.45194e-19
vn 0.00543667 0.999985 -1.45194e-19
vn 0.00543667 0.999985 1.45194e-19
vn 0.00543667 0.999985 1.45194e-19
vn -0.763362 0.645971 0
vn -0.763362 0.645971 0
vn -0.763362 0.645971 0
vn -0.763362 0.645971 0
vn -0.763362 0.645971 0
vn 0 1 0
vn 0 1 0
vn 0 1 0
vn 0 1 0
vn 0 1 0
vn 0.711596 0.702589 0
vn 0.711596 0.702589 0
vn 0.711596 0.702589 0
vn 0.711596 0.702589 0
vn 0.711596 0.702589 0
vn 0 1 0
vn 0 1 0
vn 0 1 0
vn 0 1 0
vn 0 1 0
vn -0.795928 0.605391 0
vn -0.795928 0.605391 0
vn -0.795928 0.605391 0
vn -0.795928 0.605391 0
vn -0.795928 0.605391 0
vn 0 1 0
vn 0 1 0
vn 0 1 0
vn 0 1 0
vn 0 1 0
vn 0.758459 0.651721 0
vn 0.758459 0.651721 0
vn 0.758459 0.651721 0
vn 0.758459 0.651721 0
vn 0.758459 0.651721 0
vn 0 1 0
vn 0 1 0
vn 0 1 0
vn 0 1 0
vn 0 1 0
vn -0.754975 0.655754 0
vn -0.754975 0.655754 0
vn -0.754975 0.655754 0
vn -0.754975 0.655754 0
vn -0.754975 0.655754 0
vn 0 1 0
vn 0 1 0
vn 0 1 0
vn 0 1 0
vn 0 1 0
vn 0.759763 0.650201 0
vn 0.759763 0.650201 0
vn 0.759763 0.650201 0
vn 0.759763 0.650201 0
vn 0.759763 0.650201 0
vn 0.00548786 0.999985 0
vn 0.00548786 0.999985 -1.73727e-18
vn 0.00548786 0.999985 -1.73727e-18
vn 0.00548786 0.999985 1.73727e-18
vn 0.00548786 0.999985 1.73727e-18
vn -0.768472 0.639884 0
vn -0.768472 0.639884 1.04868e-17
vn -0.768472 0.639884 1.04868e-17
vn -0.768472 0.639884 -1.04868e-17
vn -0.768472 0.639884 -1.04868e-17
vn 0 1 0
vn 0 1 0
vn 0 1 0
vn 0 1 0
vn 0 1 0
vn 0.824704 0.565564 0
vn 0.824704 0.565564 0
vn 0.824704 0.565564 0
vn 0.824704 0.565564 0
vn 0.824704 0.565564 0
vn 0 1 0
vn 0 1 0
vn 0 1 0
vn 0 1 0
vn 0 1 0
vn -0.847111 0.531416 0
vn -0.847111 0.531416 -2.27619e-17
vn -0.847111 0.531416 -2.27619e-17
vn -0.847111 0.531416 2.27619e-17
vn -0.847111 0.531416 2.27619e-17
vn 0 1 0
vn 0 1 0
vn 0 1 0
vn 0 1 0
vn 0 1 0
vn 0.714915 0.699211 0
vn 0.714915 0.699211 1.93063e-17
vn 0.714915 0.699211 1.93063e-17
vn 0.714915 0.699211 -1.93063e-17
vn 0.714915 0.699211 -1.93063e-17
vn 0 1 0
vn 0 1 0
vn 0 1 0
vn 0 1 0
vn 0 1 0
vn -0.752681 0.658386 0
vn -0.752681 0.658386 2.02194e-17
vn -0.752681 0.658386 2.02194e-17
vn -0.752681 0.658386 -2.02194e-17
vn -0.752681 0.658386 -2.02194e-17
vn 0 1 0
vn 0 1 0
vn 0 1 0
vn 0 1 0
vn 0 1 0
vn 0.763377 0.645953 0
vn 0.763377 0.645953 0
vn 0.763377 0.645953 0
vn 0.763377 0.645953 0
vn 0.763377 0.645953 0
vn 0 1 0
vn 0 1 0
vn 0 1 0
vn 0 1 0
vn 0 1 0
vn -0.758953 0.651146 0
vn -0.758953 0.651146 0
vn -0.758953 0.651146 0
vn -0.758953 0.651146 0
vn -0.758953 0.651146 0
vn 0 1 0
vn 0 1 0
vn 0 1 0
vn 0 1 0
vn 0 1 0
vn 0.71885 0.695165 0
vn 0.71885 0.695165 0
vn 0.71885 0.695165 0
vn 0.71885 0.695165 0
vn 0.71885 0.695165 0
vn 0 1 0
vn 0 1 0
vn 0 1 0
vn 0 1 0
vn 0 1 0
vn -0.707107 0.707107 0
vn -0.707107 0.707107 -3.79845e-17
vn -0.707107 0.707107 -3.79845e-17
vn -0.707107 0.707107 3.79845e-17
vn -0.707107 0.707107 3.79845e-17
vn 0 1 0
vn 0 1 0
vn 0 1 0
vn 0 1 0
vn 0 1 0
vn 0.723343 0.690489 0
vn 0.723343 0.690489 0
vn 0.723343 0.690489 0
vn 0.723343 0.690489 0
vn 0.723343 0.690489 0
vn 0 1 0
vn 0 1 0
vn 0 1 0
vn 0 1 0
vn 0 1 0
vn -0.812096 0.583524 0
vn -0.812096 0.583524 4.36383e-17
vn -0.812096 0.583524 4.36383e-17
vn -0.812096 0.583524 -4.36383e-17
vn -0.812096 0.583524 -4.36383e-17
vn 0 1 0
vn 0 1 0
vn 0 1 0
vn 0 1 0
vn 0 1 0
vn 0.766999 0.641648 0
vn 0.766999 0.641648 0
vn 0.766999 0.641648 0
vn 0.766999 0.641648 0
vn 0.766999 0.641648 0
vn 0 1 0
vn 0 1 0
vn 0 1 0
vn 0 1 0
vn 0 1 0
vn -0.871173 0.490977 0
vn -0.871173 0.490977 0
vn -0.871173 0.490977 0
vn -0.871173 0.490977 0
vn -0.871173 0.490977 0
vn 0.85041 -0.52612 0
vn 0.85041 -0.52612 4.55057e-17
vn 0.85041 -0.52612 4.55057e-17
vn 0.85041 -0.52612 -4.55057e-17
vn 0.85041 -0.52612 -4.55057e-17
vn 0 -1 0
vn 0 -1 0
vn 0 -1 0
vn 0 -1 0
vn 0 -1 0
vn -0.766999 -0.641648 0
vn -0.766999 -0.641648 -7.47606e-19
vn -0.766999 -0.641648 -7.47606e-19
vn -0.766999 -0.641648 7.47606e-19
vn -0.766999 -0.641648 7.47606e-19
vn 0 -1 0
vn 0 -1 0
vn 0 -1 0
vn 0 -1 0
vn 0 -1 0
vn 0.812096 -0.583524 0
vn 0.812096 -0.583524 -4.36383e-17
vn 0.812096 -0.583524 -4.36383e-17
vn 0.812096 -0.583524 4.36383e-17
vn 0.812096 -0.583524 4.36383e-17
vn 0 -1 0
vn 0 -1 0
vn 0 -1 0
vn 0 -1 0
vn 0 -1 0
vn -0.723343 -0.690489 0
vn -0.723343 -0.690489 -5.2512e-19
vn -0.723343 -0.690489 -5.2512e-19
vn -0.723343 -0.690489 5.2512e-19
vn -0.723343 -0.690489 5.2512e-19
vn 0 -1 0
vn 0 -1 0
vn 0 -1 0
vn 0 -1 0
vn 0 -1 0
vn 0.707107 -0.707107 0
vn 0.707107 -0.707107 7.59691e-17
vn 0.707107 -0.707107 7.59691e-17
vn 0.707107 -0.707107 -7.59691e-17
vn 0.707107 -0.707107 -7.59691e-17
vn 0 -1 0
vn 0 -1 0
vn 0 -1 0
vn 0 -1 0
vn 0 -1 0
vn -0.71885 -0.695165 0
vn -0.71885 -0.695165 -6.2622e-19
vn -0.71885 -0.695165 -6.2622e-19
vn -0.71885 -0.695165 6.2622e-19
vn -0.71885 -0.695165 6.2622e-19
vn 0 -1 0
vn 0 -1 0
vn 0 -1 0
vn 0 -1 0
vn 0 -1 0
vn 0.758953 -0.651146 0
vn 0.758953 -0.651146 4.06823e-17
vn 0.758953 -0.651146 4.06823e-17
vn 0.758953 -0.651146 -4.06823e-17
vn 0.758953 -0.651146 -4.06823e-17
vn 0 -1 0
vn 0 -1 0
vn 0 -1 0
vn 0 -1 0
vn 0 -1 0
vn -0.763377 -0.645953 0
vn -0.763377 -0.645953 -7.44037e-19
vn -0.763377 -0.645953 -7.44037e-19
vn -0.763377 -0.645953 7.44037e-19
vn -0.763377 -0.645953 7.44037e-19
vn 0 -1 0
vn 0 -1 0
vn 0 -1 0
vn 0 -1 0
vn 0 -1 0
vn 0.752681 -0.658386 0
vn 0.752681 -0.658386 -2.02194e-17
vn 0.752681 -0.658386 -2.02194e-17
vn 0.752681 -0.658386 2.02194e-17
vn 0.752681 -0.658386 2.02194e-17
vn 0 -1 0
vn 0 -1 0
vn 0 -1 0
vn 0 -1 0
vn 0 -1 0
vn -0.714848 -0.699279 0
vn -0.714848 -0.699279 -6.22726e-19
vn -0.714848 -0.699279 -6.22726e-19
vn -0.714848 -0.699279 6.22726e-19
vn -0.714848 -0.699279 6.22726e-19
vn 0 -1 0
vn 0 -1 0
vn 0 -1 0
vn 0 -1 0
vn 0 -1 0
vn 0.847111 -0.531416 0
vn 0.847111 -0.531416 0
vn 0.847111 -0.531416 0
vn 0.847111 -0.531416 0
vn 0.847111 -0.531416 0
vn 0 -1 0
vn 0 -1 0
vn 0 -1 0
vn 0 -1 0
vn 0 -1 0
vn -0.824704 -0.565564 0
vn -0.824704 -0.565564 -4.79106e-19
vn -0.824704 -0.565564 -4.79106e-19
vn -0.824704 -0.565564 4.79106e-19
vn -0.824704 -0.565564 4.79106e-19
vn 0 -1 0
vn 0 -1 0
vn 0 -1 0
vn 0 -1 0
vn 0 -1 0
vn 0.768472 -0.639884 0
vn 0.768472 -0.639884 -1.04868e-17
vn 0.768472 -0.639884 -1.04868e-17
vn 0.768472 -0.639884 1.04868e-17
vn 0.768472 -0.639884 1.04868e-17
vn 0 -1 0
vn 0 -1 0
vn 0 -1 0
vn 0 -1 0
vn 0 -1 0
vn -0.759751 -0.650215 0
vn -0.759751 -0.650215 -7.40464e-19
vn -0.759751 -0.650215 -7.40464e-19
vn -0.759751 -0.650215 7.40464e-19
vn -0.759751 -0.650215 7.40464e-19
vn 0 -1 0
vn 0 -1 0
vn 0 -1 0
vn 0 -1 0
vn 0 -1 0
vn 0.754974 -0.655754 0
vn 0.754974 -0.655754 0
vn 0.754974 -0.655754 0
vn 0.754974 -0.655754 0
vn 0.754974 -0.655754 0
vn 0 -1 0
vn 0 -1 0
vn 0 -1 0
vn 0 -1 0
vn 0 -1 0
vn -0.758459 -0.651721 0
vn -0.758459 -0.651721 -5.50674e-19
vn -0.758459 -0.651721 -5.50674e-19
vn -0.758459 -0.651721 5.50674e-19
vn -0.758459 -0.651721 5.50674e-19
vn 0 -1 0
vn 0 -1 0
vn 0 -1 0
vn 0 -1 0
vn 0 -1 0
vn 0.795928 -0.605391 0
vn 0.795928 -0.605391 0
vn 0.795928 -0.605391 0
vn 0.795928 -0.605391 0
vn 0.795928 -0.605391 0
vn 0 -1 0
vn 0 -1 0
vn 0 -1 0
vn 0 -1 0
vn 0 -1 0
vn -0.711596 -0.702589 0
vn -0.711596 -0.702589 -4.13257e-19
vn -0.711596 -0.702589 -4.13257e-19
vn -0.711596 -0.702589 4.13257e-19
vn -0.711596 -0.702589 4.13257e-19
vn 0 -1 0
vn 0 -1 0
vn 0 -1 0
vn 0 -1 0
vn 0 -1 0
vn 0.763362 -0.645971 0
vn 0.763362 -0.645971 0
vn 0.763362 -0.645971 0
vn 0.763362 -0.645971 0
vn 0.763362 -0.645971 0
vn 0 -1 0
vn 0 -1 0
vn 0 -1 0
vn 0 -1 0
vn 0 -1 0
vn -0.762552 -0.646927 0
vn -0.762552 -0.646927 -2.09604e-17
vn -0.762552 -0.646927 -2.09604e-17
vn -0.762552 -0.646927 2.09604e-17
vn -0.762552 -0.646927 2.09604e-17
vn -0.0025377 -0.999997 0
vn -0.0025377 -0.999997 6.46174e-20
vn -0.0025377 -0.999997 6.46174e-20
vn -0.0025377 -0.999997 -6.46174e-20
vn -0.0025377 -0.999997 -6.46174e-20
vn 0.718783 -0.695234 0
vn 0.718783 -0.695234 0
vn 0.718783 -0.695234 0
vn 0.718783 -0.695234 0
vn 0.718783 -0.695234 0
vn 0 -1 0
vn 0 -1 0
vn 0 -1 0
vn 0 -1 0
vn 0 -1 0
vn -0.727929 -0.685652 0
vn -0.727929 -0.685652 -5.28457e-19
vn -0.727929 -0.685652 -5.28457e-19
vn -0.727929 -0.685652 5.28457e-19
vn -0.727929 -0.685652 5.28457e-19
vn 0 -1 0
vn 0 -1 0
vn 0 -1 0
vn 0 -1 0
vn 0 -1 0
vn 0.79179 -0.610793 0
vn 0.79179 -0.610793 0
vn 0.79179 -0.610793 0
vn 0.79179 -0.610793 0
vn 0.79179 -0.610793 0
vn 0 -1 0
vn 0 -1 0
vn 0 -1 0
vn 0 -1 0
vn 0 -1 0
vn -0.735265 -0.67778 0
vn -0.735265 -0.67778 3.89671e-17
vn -0.735265 -0.67778 3.89671e-17
vn -0.735265 -0.67778 -3.89671e-17
vn -0.735265 -0.67778 -3.89671e-17
vn 0 -1 0
vn 0 -1 0
vn 0.100714 -0.994915 5.00453e-18
vn 0.100714 -0.994915 -5.00453e-18
vn 0 -1 0
vn 0.200403 -0.979713 0
vn 0.390648 -0.92054 -1.03962e-17
vn 0.390648 -0.92054 1.03962e-17
vn 0.565386 -0.824826 0
vn 0.645505 -0.763756 4.08171e-18
vn 0.645505 -0.763756 -4.08171e-18
vn 0.719074 -0.694934 0
vn 0.719074 -0.694934 3.84599e-17
vn 0.719074 -0.694934 -3.84599e-17
vn 0 -1 0
vn 0 -1 0
vn 0 -1 0
vn 0 -1 0
vn 0 -1 0
vn 0.954939 -0.296802 0
vn 0.954939 -0.296802 0
vn 0.954939 -0.296802 0
vn 0.954939 -0.296802 0
vn 0.954939 -0.296802 0
vn 0.456345 -0.889803 0
vn 0.456345 -0.889803 -2.45647e-17
vn 0.456345 -0.889803 -2.45647e-17
vn 0.456345 -0.889803 2.45647e-17
vn 0.456345 -0.889803 2.45647e-17
vn -0.407672 -0.913128 0
vn -0.407672 -0.913128 -1.52608e-18
vn -0.579513 -0.814963 -2.07643e-17
vn -0.579513 -0.814963 2.07643e-17
vn -0.407672 -0.913128 1.52608e-18
vn -0.728658 -0.684878 0
vn -0.719013 -0.694996 -3.92741e-17
vn -0.719013 -0.694996 3.92741e-17
vn -0.709228 -0.704979 0
vn -0.602514 -0.798108 -2.06213e-17
vn -0.602514 -0.798108 2.06213e-17
vn -0.483714 -0.875226 0
vn -0.333318 -0.942814 -3.30871e-19
vn -0.333318 -0.942814 3.30871e-19
vn -0.173861 -0.98477 0
vn 0.000714018 -1 5.20753e-18
vn 0.000714018 -1 -5.20753e-18
vn 0.175267 -0.984521 0
vn 0.339036 -0.940773 4.78375e-18
vn 0.339036 -0.940773 -4.78375e-18
vn 0.493063 -0.869993 0
vn 0.617225 -0.786787 -2.879e-19
vn 0.617225 -0.786787 2.879e-19
vn 0.727597 -0.686004 0
vn 0.739173 -0.673516 2.62001e-19
vn 0.739173 -0.673516 -2.62001e-19
vn 0.750534 -0.660832 0
vn 0.597238 -0.802064 1.20574e-17
vn 0.597238 -0.802064 -1.20574e-17
vn 0.417995 -0.90845 0
vn 0.144107 -0.989562 1.48271e-17
vn 0.144107 -0.989562 -1.48271e-17
vn -0.141539 -0.989933 0
vn -0.457729 -0.889092 3.76592e-18
vn -0.457729 -0.889092 -3.76592e-18
vn -0.723502 -0.690322 0
vn -0.917238 -0.398339 -2.79881e-17
vn -0.917238 -0.398339 2.79881e-17
vn -0.998349 -0.0574448 0
vn -0.998349 -0.0574448 -5.371e-17
vn -0.998349 -0.0574448 5.371e-17
vn 0 -1 0
vn 0 -1 0
vn 0 -1 0
vn 0 -1 0
vn 0 -1 0
vn -0.73173 -0.681595 0
vn -0.73173 -0.681595 0
vn -0.658047 -0.752977 -1.56277e-17
vn -0.658047 -0.752977 1.56277e-17
vn -0.73173 -0.681595 0
vn -0.577439 -0.816434 0
vn -0.399387 -0.916782 -2.14969e-17
vn -0.399387 -0.916782 2.14969e-17
vn -0.204651 -0.978835 0
vn -0.102871 -0.994695 -5.53179e-18
vn -0.102871 -0.994695 5.53179e-18
vn 0 -1 0
vn 0 -1 0
vn 0 -1 0


# Faces: 
usemtl material0
f 220/76/1 221/77/1 213/69/1
f 224/80/1 225/81/1 210/66/1
f 228/84/1 229/85/1 205/61/1
f 232/88/1 233/89/1 202/58/1
f 234/90/1 201/57/1 233/89/1
f 205/61/1 229/85/1 230/86/1
f 209/65/1 225/81/1 226/82/1
f 219/75/1 220/76/1 214/70/1
f 213/69/1 214/70/1 220/76/1
f 223/79/1 224/80/1 210/66/1
f 222/78/1 213/69/1 221/77/1
f 201/57/1 202/58/1 233/89/1
f 202/58/1 231/87/1 232/88/1
f 206/62/1 228/84/1 205/61/1
f 206/62/1 227/83/1 228/84/1
f 210/66/1 225/81/1 209/65/1
f 236/92/1 197/53/1 198/54/1
f 241/97/1 194/50/1 240/96/1
f 197/53/1 236/92/1 237/93/1
f 246/102/1 189/45/1 245/101/1
f 185/41/1 248/104/1 249/105/1
f 190/46/1 244/100/1 245/101/1
f 237/93/1 238/94/1 197/53/1
f 241/97/1 242/98/1 193/49/1
f 194/50/1 241/97/1 193/49/1
f 240/96/1 194/50/1 239/95/1
f 249/105/1 250/106/1 185/41/1
f 181/37/1 182/38/1 252/108/1
f 252/108/1 182/38/1 251/107/1
f 186/42/1 248/104/1 185/41/1
f 186/42/1 247/103/1 248/104/1
f 190/46/1 245/101/1 189/45/1
f 244/100/1 190/46/1 243/99/1
f 252/108/1 253/109/1 181/37/1
f 236/92/1 198/54/1 235/91/1
f 222/78/1 223/79/1 211/67/1
f 211/67/1 212/68/1 222/78/1
f 210/66/1 211/67/1 223/79/1
f 226/82/1 227/83/1 208/64/1
f 227/83/1 207/63/1 208/64/1
f 207/63/1 227/83/1 206/62/1
f 234/90/1 200/56/1 201/57/1
f 226/82/1 208/64/1 209/65/1
f 218/74/1 219/75/1 215/71/1
f 215/71/1 216/72/1 218/74/1
f 215/71/1 219/75/1 214/70/1
f 218/74/1 216/72/1 217/73/1
f 204/60/1 205/61/1 230/86/1
f 204/60/1 231/87/1 203/59/1
f 231/87/1 204/60/1 230/86/1
f 231/87/1 202/58/1 203/59/1
f 234/90/1 199/55/1 200/56/1
f 213/69/1 222/78/1 212/68/1
f 196/52/1 197/53/1 238/94/1
f 199/55/1 235/91/1 198/54/1
f 196/52/1 238/94/1 195/51/1
f 235/91/1 199/55/1 234/90/1
f 195/51/1 238/94/1 239/95/1
f 189/45/1 246/102/1 188/44/1
f 188/44/1 246/102/1 247/103/1
f 184/40/1 185/41/1 250/106/1
f 183/39/1 250/106/1 251/107/1
f 239/95/1 194/50/1 195/51/1
f 192/48/1 243/99/1 191/47/1
f 243/99/1 192/48/1 242/98/1
f 193/49/1 242/98/1 192/48/1
f 187/43/1 188/44/1 247/103/1
f 183/39/1 184/40/1 250/106/1
f 247/103/1 186/42/1 187/43/1
f 191/47/1 243/99/1 190/46/1
f 251/107/1 182/38/1 183/39/1
f 257/113/1 177/33/1 178/34/1
f 178/34/1 256/112/1 257/113/1
f 178/34/1 255/111/1 256/112/1
f 261/117/1 173/29/1 260/116/1
f 260/116/1 173/29/1 174/30/1
f 257/113/1 258/114/1 177/33/1
f 259/115/1 260/116/1 174/30/1
f 258/114/1 259/115/1 176/32/1
f 175/31/1 176/32/1 259/115/1
f 174/30/1 175/31/1 259/115/1
f 258/114/1 176/32/1 177/33/1
f 173/29/1 262/118/1 172/28/1
f 173/29/1 261/117/1 262/118/1
f 262/118/1 171/27/1 172/28/1
f 171/27/1 262/118/1 263/119/1
f 170/26/1 171/27/1 263/119/1
f 263/119/1 264/120/1 170/26/1
f 170/26/1 265/121/1 169/25/1
f 265/121/1 170/26/1 264/120/1
f 266/122/1 168/24/1 169/25/1
f 169/25/1 265/121/1 266/122/1
f 288/144/1 145/1/1 147/3/1
f 147/3/1 287/143/1 288/144/1
f 266/122/1 167/23/1 168/24/1
f 145/1/1 146/2/1 147/3/1
f 148/4/1 287/143/1 147/3/1
f 268/124/1 167/23/1 267/123/1
f 267/123/1 167/23/1 266/122/1
f 158/14/1 275/131/1 276/132/1
f 286/142/1 287/143/1 148/4/1
f 149/5/1 286/142/1 148/4/1
f 149/5/1 285/141/1 286/142/1
f 158/14/1 276/132/1 277/133/1
f 254/110/1 255/111/1 180/36/1
f 179/35/1 180/36/1 255/111/1
f 178/34/1 179/35/1 255/111/1
f 180/36/1 181/37/1 254/110/1
f 167/23/1 268/124/1 166/22/1
f 273/129/1 274/130/1 160/16/1
f 273/129/1 160/16/1 161/17/1
f 268/124/1 269/125/1 165/21/1
f 274/130/1 159/15/1 160/16/1
f 165/21/1 166/22/1 268/124/1
f 164/20/1 270/126/1 163/19/1
f 270/126/1 164/20/1 165/21/1
f 269/125/1 270/126/1 165/21/1
f 272/128/1 161/17/1 162/18/1
f 163/19/1 271/127/1 162/18/1
f 271/127/1 163/19/1 270/126/1
f 162/18/1 271/127/1 272/128/1
f 273/129/1 161/17/1 272/128/1
f 277/133/1 157/13/1 158/14/1
f 159/15/1 275/131/1 158/14/1
f 278/134/1 279/135/1 157/13/1
f 159/15/1 274/130/1 275/131/1
f 284/140/1 285/141/1 151/7/1
f 151/7/1 283/139/1 284/140/1
f 152/8/1 283/139/1 151/7/1
f 285/141/1 150/6/1 151/7/1
f 156/12/1 157/13/1 279/135/1
f 156/12/1 280/136/1 155/11/1
f 156/12/1 279/135/1 280/136/1
f 155/11/1 281/137/1 154/10/1
f 281/137/1 155/11/1 280/136/1
f 283/139/1 152/8/1 282/138/1
f 282/138/1 153/9/1 154/10/1
f 153/9/1 282/138/1 152/8/1
f 282/138/1 154/10/1 281/137/1
f 285/141/1 149/5/1 150/6/1
f 278/134/1 157/13/1 277/133/1
f 254/110/1 181/37/1 253/109/1
f 77/221/2 76/220/2 69/213/2
f 81/225/2 80/224/2 66/210/2
f 85/229/2 84/228/2 61/205/2
f 89/233/2 88/232/2 58/202/2
f 57/201/2 90/234/2 89/233/2
f 85/229/2 61/205/2 86/230/2
f 81/225/2 65/209/2 82/226/2
f 76/220/2 75/219/2 70/214/2
f 70/214/2 69/213/2 76/220/2
f 80/224/2 79/223/2 66/210/2
f 69/213/2 78/222/2 77/221/2
f 58/202/2 57/201/2 89/233/2
f 87/231/2 58/202/2 88/232/2
f 84/228/2 62/206/2 61/205/2
f 83/227/2 62/206/2 84/228/2
f 81/225/2 66/210/2 65/209/2
f 53/197/2 92/236/2 54/198/2
f 50/194/2 97/241/2 96/240/2
f 92/236/2 53/197/2 93/237/2
f 45/189/2 102/246/2 101/245/2
f 104/248/2 41/185/2 105/249/2
f 100/244/2 46/190/2 101/245/2
f 94/238/2 93/237/2 53/197/2
f 98/242/2 97/241/2 49/193/2
f 97/241/2 50/194/2 49/193/2
f 50/194/2 96/240/2 95/239/2
f 106/250/2 105/249/2 41/185/2
f 38/182/2 37/181/2 108/252/2
f 38/182/2 108/252/2 107/251/2
f 104/248/2 42/186/2 41/185/2
f 103/247/2 42/186/2 104/248/2
f 101/245/2 46/190/2 45/189/2
f 46/190/2 100/244/2 99/243/2
f 109/253/2 108/252/2 37/181/2
f 54/198/2 92/236/2 91/235/2
f 79/223/2 78/222/2 67/211/2
f 68/212/2 67/211/2 78/222/2
f 67/211/2 66/210/2 79/223/2
f 83/227/2 82/226/2 64/208/2
f 63/207/2 83/227/2 64/208/2
f 83/227/2 63/207/2 62/206/2
f 56/200/2 90/234/2 57/201/2
f 64/208/2 82/226/2 65/209/2
f 75/219/2 74/218/2 71/215/2
f 72/216/2 71/215/2 74/218/2
f 75/219/2 71/215/2 70/214/2
f 72/216/2 74/218/2 73/217/2
f 61/205/2 60/204/2 86/230/2
f 87/231/2 60/204/2 59/203/2
f 60/204/2 87/231/2 86/230/2
f 58/202/2 87/231/2 59/203/2
f 55/199/2 90/234/2 56/200/2
f 78/222/2 69/213/2 68/212/2
f 53/197/2 52/196/2 94/238/2
f 91/235/2 55/199/2 54/198/2
f 94/238/2 52/196/2 51/195/2
f 55/199/2 91/235/2 90/234/2
f 94/238/2 51/195/2 95/239/2
f 102/246/2 45/189/2 44/188/2
f 102/246/2 44/188/2 103/247/2
f 41/185/2 40/184/2 106/250/2
f 106/250/2 39/183/2 107/251/2
f 50/194/2 95/239/2 51/195/2
f 99/243/2 48/192/2 47/191/2
f 48/192/2 99/243/2 98/242/2
f 98/242/2 49/193/2 48/192/2
f 44/188/2 43/187/2 103/247/2
f 40/184/2 39/183/2 106/250/2
f 42/186/2 103/247/2 43/187/2
f 99/243/2 47/191/2 46/190/2
f 38/182/2 107/251/2 39/183/2
f 33/177/2 113/257/2 34/178/2
f 112/256/2 34/178/2 113/257/2
f 111/255/2 34/178/2 112/256/2
f 29/173/2 117/261/2 116/260/2
f 29/173/2 116/260/2 30/174/2
f 114/258/2 113/257/2 33/177/2
f 116/260/2 115/259/2 30/174/2
f 115/259/2 114/258/2 32/176/2
f 32/176/2 31/175/2 115/259/2
f 31/175/2 30/174/2 115/259/2
f 32/176/2 114/258/2 33/177/2
f 118/262/2 29/173/2 28/172/2
f 117/261/2 29/173/2 118/262/2
f 27/171/2 118/262/2 28/172/2
f 118/262/2 27/171/2 119/263/2
f 27/171/2 26/170/2 119/263/2
f 120/264/2 119/263/2 26/170/2
f 121/265/2 26/170/2 25/169/2
f 26/170/2 121/265/2 120/264/2
f 24/168/2 122/266/2 25/169/2
f 121/265/2 25/169/2 122/266/2
f 1/145/2 144/288/2 3/147/2
f 143/287/2 3/147/2 144/288/2
f 23/167/2 122/266/2 24/168/2
f 2/146/2 1/145/2 3/147/2
f 143/287/2 4/148/2 3/147/2
f 23/167/2 124/268/2 123/267/2
f 23/167/2 123/267/2 122/266/2
f 131/275/2 14/158/2 132/276/2
f 143/287/2 142/286/2 4/148/2
f 142/286/2 5/149/2 4/148/2
f 141/285/2 5/149/2 142/286/2
f 132/276/2 14/158/2 133/277/2
f 111/255/2 110/254/2 36/180/2
f 36/180/2 35/179/2 111/255/2
f 35/179/2 34/178/2 111/255/2
f 37/181/2 36/180/2 110/254/2
f 124/268/2 23/167/2 22/166/2
f 130/274/2 129/273/2 16/160/2
f 16/160/2 129/273/2 17/161/2
f 125/269/2 124/268/2 21/165/2
f 15/159/2 130/274/2 16/160/2
f 22/166/2 21/165/2 124/268/2
f 126/270/2 20/164/2 19/163/2
f 20/164/2 126/270/2 21/165/2
f 126/270/2 125/269/2 21/165/2
f 17/161/2 128/272/2 18/162/2
f 127/271/2 19/163/2 18/162/2
f 19/163/2 127/271/2 126/270/2
f 127/271/2 18/162/2 128/272/2
f 17/161/2 129/273/2 128/272/2
f 13/157/2 133/277/2 14/158/2
f 131/275/2 15/159/2 14/158/2
f 135/279/2 134/278/2 13/157/2
f 130/274/2 15/159/2 131/275/2
f 141/285/2 140/284/2 7/151/2
f 139/283/2 7/151/2 140/284/2
f 139/283/2 8/152/2 7/151/2
f 6/150/2 141/285/2 7/151/2
f 13/157/2 12/156/2 135/279/2
f 136/280/2 12/156/2 11/155/2
f 135/279/2 12/156/2 136/280/2
f 137/281/2 11/155/2 10/154/2
f 11/155/2 137/281/2 136/280/2
f 8/152/2 139/283/2 138/282/2
f 9/153/2 138/282/2 10/154/2
f 138/282/2 9/153/2 8/152/2
f 10/154/2 138/282/2 137/281/2
f 5/149/2 141/285/2 6/150/2
f 13/157/2 134/278/2 133/277/2
f 37/181/2 110/254/2 109/253/2
f 289/791/3 1/289/4 2/290/5
f 289/791/3 2/290/5 146/541/6
f 289/791/3 146/541/6 145/540/7
f 289/791/3 145/540/7 1/289/4
f 290/792/8 2/291/9 3/292/10
f 290/792/8 3/292/10 147/543/11
f 290/792/8 147/543/11 146/542/12
f 290/792/8 146/542/12 2/291/9
f 291/793/13 3/292/10 4/293/14
f 291/793/13 4/293/14 148/544/15
f 291/793/13 148/544/15 147/543/11
f 291/793/13 147/543/11 3/292/10
f 292/794/16 4/293/14 5/294/17
f 292/794/16 5/294/17 149/545/18
f 292/794/16 149/545/18 148/544/15
f 292/794/16 148/544/15 4/293/14
f 293/795/19 5/294/17 6/295/20
f 293/795/19 6/295/20 150/546/21
f 293/795/19 150/546/21 149/545/18
f 293/795/19 149/545/18 5/294/17
f 294/796/22 6/296/23 7/297/24
f 294/796/22 7/297/24 151/548/25
f 294/796/22 151/548/25 150/547/26
f 294/796/22 150/547/26 6/296/23
f 295/797/27 7/298/28 8/299/29
f 295/797/27 8/299/29 152/550/30
f 295/797/27 152/550/30 151/549/31
f 295/797/27 151/549/31 7/298/28
f 296/798/32 8/299/29 9/300/33
f 296/798/32 9/300/33 153/551/34
f 296/798/32 153/551/34 152/550/30
f 296/798/32 152/550/30 8/299/29
f 297/799/35 9/300/33 10/301/36
f 297/799/35 10/301/36 154/552/37
f 297/799/35 154/552/37 153/551/34
f 297/799/35 153/551/34 9/300/33
f 298/800/38 10/301/36 11/302/39
f 298/800/38 11/302/39 155/553/40
f 298/800/38 155/553/40 154/552/37
f 298/800/38 154/552/37 10/301/36
f 299/801/41 11/302/39 12/303/42
f 299/801/41 12/303/42 156/554/43
f 299/801/41 156/554/43 155/553/40
f 299/801/41 155/553/40 11/302/39
f 300/802/44 12/303/42 13/304/45
f 300/802/44 13/304/45 157/555/46
f 300/802/44 157/555/46 156/554/43
f 300/802/44 156/554/43 12/303/42
f 301/803/47 13/304/45 14/305/48
f 301/803/47 14/305/48 158/556/49
f 301/803/47 158/556/49 157/555/46
f 301/803/47 157/555/46 13/304/45
f 302/804/50 14/305/48 15/306/51
f 302/804/50 15/306/51 159/557/52
f 302/804/50 159/557/52 158/556/49
f 302/804/50 158/556/49 14/305/48
f 303/805/53 15/306/51 16/307/54
f 303/805/53 16/307/54 160/558/55
f 303/805/53 160/558/55 159/557/52
f 303/805/53 159/557/52 15/306/51
f 304/806/56 16/307/54 17/308/57
f 304/806/56 17/308/57 161/559/58
f 304/806/56 161/559/58 160/558/55
f 304/806/56 160/558/55 16/307/54
f 305/807/59 17/308/57 18/309/60
f 305/807/59 18/309/60 162/560/61
f 305/807/59 162/560/61 161/559/58
f 305/807/59 161/559/58 17/308/57
f 306/808/62 18/309/60 19/310/63
f 306/808/62 19/310/63 163/561/64
f 306/808/62 163/561/64 162/560/61
f 306/808/62 162/560/61 18/309/60
f 307/809/65 19/310/63 20/311/66
f 307/809/65 20/311/66 164/562/67
f 307/809/65 164/562/67 163/561/64
f 307/809/65 163/561/64 19/310/63
f 308/810/68 20/311/66 21/312/69
f 308/810/68 21/312/69 165/563/70
f 308/810/68 165/563/70 164/562/67
f 308/810/68 164/562/67 20/311/66
f 309/811/71 21/313/72 22/314/73
f 309/811/71 22/314/73 166/565/74
f 309/811/71 166/565/74 165/564/75
f 309/811/71 165/564/75 21/313/72
f 310/812/76 22/315/77 23/316/78
f 310/812/76 23/316/78 167/567/79
f 310/812/76 167/567/79 166/566/80
f 310/812/76 166/566/80 22/315/77
f 311/813/81 23/316/78 24/317/82
f 311/813/81 24/317/82 168/568/83
f 311/813/81 168/568/83 167/567/79
f 311/813/81 167/567/79 23/316/78
f 312/814/84 24/317/82 25/318/85
f 312/814/84 25/318/85 169/569/86
f 312/814/84 169/569/86 168/568/83
f 312/814/84 168/568/83 24/317/82
f 313/815/87 25/318/85 26/319/88
f 313/815/87 26/319/88 170/570/89
f 313/815/87 170/570/89 169/569/86
f 313/815/87 169/569/86 25/318/85
f 314/816/90 26/320/91 27/321/92
f 314/816/90 27/321/92 171/572/93
f 314/816/90 171/572/93 170/571/94
f 314/816/90 170/571/94 26/320/91
f 315/817/95 27/322/96 28/323/97
f 315/817/95 28/323/97 172/574/98
f 315/817/95 172/574/98 171/573/99
f 315/817/95 171/573/99 27/322/96
f 316/818/100 28/324/101 29/325/102
f 316/818/100 29/325/102 173/576/103
f 316/818/100 173/576/103 172/575/104
f 316/818/100 172/575/104 28/324/101
f 317/819/105 29/326/106 30/327/107
f 317/819/105 30/327/107 174/578/108
f 317/819/105 174/578/108 173/577/109
f 317/819/105 173/577/109 29/326/106
f 318/820/110 30/328/111 31/329/112
f 318/820/110 31/329/112 175/580/113
f 318/820/110 175/580/113 174/579/114
f 318/820/110 174/579/114 30/328/111
f 319/821/115 31/330/116 32/331/117
f 319/821/115 32/331/117 176/582/118
f 319/821/115 176/582/118 175/581/119
f 319/821/115 175/581/119 31/330/116
f 320/822/120 32/332/121 33/333/122
f 320/822/120 33/333/122 177/584/123
f 320/822/120 177/584/123 176/583/124
f 320/822/120 176/583/124 32/332/121
f 321/823/125 33/334/126 34/335/127
f 321/823/125 34/335/127 178/586/128
f 321/823/125 178/586/128 177/585/129
f 321/823/125 177/585/129 33/334/126
f 322/824/130 34/336/131 35/337/132
f 322/824/130 35/337/132 179/588/133
f 322/824/130 179/588/133 178/587/134
f 322/824/130 178/587/134 34/336/131
f 323/825/135 35/338/136 36/339/137
f 323/825/135 36/339/137 180/590/138
f 323/825/135 180/590/138 179/589/139
f 323/825/135 179/589/139 35/338/136
f 324/826/140 36/340/141 37/341/142
f 324/826/140 37/341/142 181/592/143
f 324/826/140 181/592/143 180/591/144
f 324/826/140 180/591/144 36/340/141
f 325/827/145 37/342/146 38/343/147
f 325/827/145 38/343/147 182/594/148
f 325/827/145 182/594/148 181/593/149
f 325/827/145 181/593/149 37/342/146
f 326/828/150 38/344/151 39/345/152
f 326/828/150 39/345/152 183/596/153
f 326/828/150 183/596/153 182/595/154
f 326/828/150 182/595/154 38/344/151
f 327/829/155 39/346/156 40/347/157
f 327/829/155 40/347/157 184/598/158
f 327/829/155 184/598/158 183/597/159
f 327/829/155 183/597/159 39/346/156
f 328/830/160 40/348/161 41/349/162
f 328/830/160 41/349/162 185/600/163
f 328/830/160 185/600/163 184/599/164
f 328/830/160 184/599/164 40/348/161
f 329/831/165 41/350/166 42/351/167
f 329/831/165 42/351/167 186/602/168
f 329/831/165 186/602/168 185/601/169
f 329/831/165 185/601/169 41/350/166
f 330/832/170 42/352/171 43/353/172
f 330/832/170 43/353/172 187/604/173
f 330/832/170 187/604/173 186/603/174
f 330/832/170 186/603/174 42/352/171
f 331/833/175 43/354/176 44/355/177
f 331/833/175 44/355/177 188/606/178
f 331/833/175 188/606/178 187/605/179
f 331/833/175 187/605/179 43/354/176
f 332/834/180 44/356/181 45/357/182
f 332/834/180 45/357/182 189/608/183
f 332/834/180 189/608/183 188/607/184
f 332/834/180 188/607/184 44/356/181
f 333/835/185 45/358/186 46/359/187
f 333/835/185 46/359/187 190/610/188
f 333/835/185 190/610/188 189/609/189
f 333/835/185 189/609/189 45/358/186
f 334/836/190 46/360/191 47/361/192
f 334/836/190 47/361/192 191/612/193
f 334/836/190 191/612/193 190/611/194
f 334/836/190 190/611/194 46/360/191
f 335/837/195 47/362/196 48/363/197
f 335/837/195 48/363/197 192/614/198
f 335/837/195 192/614/198 191/613/199
f 335/837/195 191/613/199 47/362/196
f 336/838/200 48/364/201 49/365/202
f 336/838/200 49/365/202 193/616/203
f 336/838/200 193/616/203 192/615/204
f 336/838/200 192/615/204 48/364/201
f 337/839/205 49/366/206 50/367/207
f 337/839/205 50/367/207 194/618/208
f 337/839/205 194/618/208 193/617/209
f 337/839/205 193/617/209 49/366/206
f 338/840/210 50/368/211 51/369/212
f 338/840/210 51/369/212 195/620/213
f 338/840/210 195/620/213 194/619/214
f 338/840/210 194/619/214 50/368/211
f 339/841/215 51/370/216 52/371/217
f 339/841/215 52/371/217 196/622/218
f 339/841/215 196/622/218 195/621/219
f 339/841/215 195/621/219 51/370/216
f 340/842/220 52/372/221 53/373/222
f 340/842/220 53/373/222 197/624/223
f 340/842/220 197/624/223 196/623/224
f 340/842/220 196/623/224 52/372/221
f 341/843/225 53/374/226 54/375/227
f 341/843/225 54/375/227 198/626/228
f 341/843/225 198/626/228 197/625/229
f 341/843/225 197/625/229 53/374/226
f 342/844/230 54/376/231 55/377/232
f 342/844/230 55/377/232 199/628/233
f 342/844/230 199/628/233 198/627/234
f 342/844/230 198/627/234 54/376/231
f 343/845/235 55/378/236 56/379/237
f 343/845/235 56/379/237 200/630/238
f 343/845/235 200/630/238 199/629/239
f 343/845/235 199/629/239 55/378/236
f 344/846/240 56/380/241 57/381/242
f 344/846/240 57/381/242 201/632/243
f 344/846/240 201/632/243 200/631/244
f 344/846/240 200/631/244 56/380/241
f 345/847/245 57/382/246 58/383/247
f 345/847/245 58/383/247 202/634/248
f 345/847/245 202/634/248 201/633/249
f 345/847/245 201/633/249 57/382/246
f 346/848/250 58/384/251 59/385/252
f 346/848/250 59/385/252 203/636/253
f 346/848/250 203/636/253 202/635/254
f 346/848/250 202/635/254 58/384/251
f 347/849/255 59/386/256 60/387/257
f 347/849/255 60/387/257 204/638/258
f 347/849/255 204/638/258 203/637/259
f 347/849/255 203/637/259 59/386/256
f 348/850/260 60/388/261 61/389/262
f 348/850/260 61/389/262 205/640/263
f 348/850/260 205/640/263 204/639/264
f 348/850/260 204/639/264 60/388/261
f 349/851/265 61/390/266 62/391/267
f 349/851/265 62/391/267 206/642/268
f 349/851/265 206/642/268 205/641/269
f 349/851/265 205/641/269 61/390/266
f 350/852/270 62/392/271 63/393/272
f 350/852/270 63/393/272 207/644/273
f 350/852/270 207/644/273 206/643/274
f 350/852/270 206/643/274 62/392/271
f 351/853/275 63/394/276 64/395/277
f 351/853/275 64/395/277 208/646/278
f 351/853/275 208/646/278 207/645/279
f 351/853/275 207/645/279 63/394/276
f 352/854/280 64/396/281 65/397/282
f 352/854/280 65/397/282 209/648/283
f 352/854/280 209/648/283 208/647/284
f 352/854/280 208/647/284 64/396/281
f 353/855/285 65/398/286 66/399/287
f 353/855/285 66/399/287 210/650/288
f 353/855/285 210/650/288 209/649/289
f 353/855/285 209/649/289 65/398/286
f 354/856/290 66/400/291 67/401/292
f 354/856/290 67/401/292 211/652/293
f 354/856/290 211/652/293 210/651/294
f 354/856/290 210/651/294 66/400/291
f 355/857/295 67/402/296 68/403/297
f 355/857/295 68/403/297 212/654/298
f 355/857/295 212/654/298 211/653/299
f 355/857/295 211/653/299 67/402/296
f 356/858/300 68/404/301 69/405/302
f 356/858/300 69/405/302 213/656/303
f 356/858/300 213/656/303 212/655/304
f 356/858/300 212/655/304 68/404/301
f 357/859/305 69/406/306 70/407/307
f 357/859/305 70/407/307 214/658/308
f 357/859/305 214/658/308 213/657/309
f 357/859/305 213/657/309 69/406/306
f 358/860/310 70/408/311 71/409/312
f 358/860/310 71/409/312 215/660/313
f 358/860/310 215/660/313 214/659/314
f 358/860/310 214/659/314 70/408/311
f 359/861/315 71/410/316 72/411/317
f 359/861/315 72/411/317 216/662/318
f 359/861/315 216/662/318 215/661/319
f 359/861/315 215/661/319 71/410/316
f 360/862/320 72/412/321 73/413/322
f 360/862/320 73/413/322 217/664/323
f 360/862/320 217/664/323 216/663/324
f 360/862/320 216/663/324 72/412/321
f 361/863/325 73/414/326 74/415/327
f 361/863/325 74/415/327 218/666/328
f 361/863/325 218/666/328 217/665/329
f 361/863/325 217/665/329 73/414/326
f 362/864/330 74/416/331 75/417/332
f 362/864/330 75/417/332 219/668/333
f 362/864/330 219/668/333 218/667/334
f 362/864/330 218/667/334 74/416/331
f 363/865/335 75/418/336 76/419/337
f 363/865/335 76/419/337 220/670/338
f 363/865/335 220/670/338 219/669/339
f 363/865/335 219/669/339 75/418/336
f 364/866/340 76/420/341 77/421/342
f 364/866/340 77/421/342 221/672/343
f 364/866/340 221/672/343 220/671/344
f 364/866/340 220/671/344 76/420/341
f 365/867/345 77/422/346 78/423/347
f 365/867/345 78/423/347 222/674/348
f 365/867/345 222/674/348 221/673/349
f 365/867/345 221/673/349 77/422/346
f 366/868/350 78/424/351 79/425/352
f 366/868/350 79/425/352 223/676/353
f 366/868/350 223/676/353 222/675/354
f 366/868/350 222/675/354 78/424/351
f 367/869/355 79/426/356 80/427/357
f 367/869/355 80/427/357 224/678/358
f 367/869/355 224/678/358 223/677/359
f 367/869/355 223/677/359 79/426/356
f 368/870/360 80/428/361 81/429/362
f 368/870/360 81/429/362 225/680/363
f 368/870/360 225/680/363 224/679/364
f 368/870/360 224/679/364 80/428/361
f 369/871/365 81/430/366 82/431/367
f 369/871/365 82/431/367 226/682/368
f 369/871/365 226/682/368 225/681/369
f 369/871/365 225/681/369 81/430/366
f 370/872/370 82/432/371 83/433/372
f 370/872/370 83/433/372 227/684/373
f 370/872/370 227/684/373 226/683/374
f 370/872/370 226/683/374 82/432/371
f 371/873/375 83/434/376 84/435/377
f 371/873/375 84/435/377 228/686/378
f 371/873/375 228/686/378 227/685/379
f 371/873/375 227/685/379 83/434/376
f 372/874/380 84/436/381 85/437/382
f 372/874/380 85/437/382 229/688/383
f 372/874/380 229/688/383 228/687/384
f 372/874/380 228/687/384 84/436/381
f 373/875/385 85/438/386 86/439/387
f 373/875/385 86/439/387 230/690/388
f 373/875/385 230/690/388 229/689/389
f 373/875/385 229/689/389 85/438/386
f 374/876/390 86/440/391 87/441/392
f 374/876/390 87/441/392 231/692/393
f 374/876/390 231/692/393 230/691/394
f 374/876/390 230/691/394 86/440/391
f 375/877/395 87/442/396 88/443/397
f 375/877/395 88/443/397 232/694/398
f 375/877/395 232/694/398 231/693/399
f 375/877/395 231/693/399 87/442/396
f 376/878/400 88/444/401 89/445/402
f 376/878/400 89/445/402 233/696/403
f 376/878/400 233/696/403 232/695/404
f 376/878/400 232/695/404 88/444/401
f 377/879/405 89/446/406 90/447/407
f 377/879/405 90/447/407 234/698/408
f 377/879/405 234/698/408 233/697/409
f 377/879/405 233/697/409 89/446/406
f 378/880/410 90/448/411 91/449/412
f 378/880/410 91/449/412 235/700/413
f 378/880/410 235/700/413 234/699/414
f 378/880/410 234/699/414 90/448/411
f 379/881/415 91/450/416 92/451/417
f 379/881/415 92/451/417 236/702/418
f 379/881/415 236/702/418 235/701/419
f 379/881/415 235/701/419 91/450/416
f 380/882/420 92/452/421 93/453/422
f 380/882/420 93/453/422 237/704/423
f 380/882/420 237/704/423 236/703/424
f 380/882/420 236/703/424 92/452/421
f 381/883/425 93/454/426 94/455/427
f 381/883/425 94/455/427 238/706/428
f 381/883/425 238/706/428 237/705/429
f 381/883/425 237/705/429 93/454/426
f 382/884/430 94/456/431 95/457/432
f 382/884/430 95/457/432 239/708/433
f 382/884/430 239/708/433 238/707/434
f 382/884/430 238/707/434 94/456/431
f 383/885/435 95/458/436 96/459/437
f 383/885/435 96/459/437 240/710/438
f 383/885/435 240/710/438 239/709/439
f 383/885/435 239/709/439 95/458/436
f 384/886/440 96/460/441 97/461/442
f 384/886/440 97/461/442 241/712/443
f 384/886/440 241/712/443 240/711/444
f 384/886/440 240/711/444 96/460/441
f 385/887/445 97/462/446 98/463/447
f 385/887/445 98/463/447 242/714/448
f 385/887/445 242/714/448 241/713/449
f 385/887/445 241/713/449 97/462/446
f 386/888/450 98/464/451 99/465/452
f 386/888/450 99/465/452 243/716/453
f 386/888/450 243/716/453 242/715/454
f 386/888/450 242/715/454 98/464/451
f 387/889/455 99/466/456 100/467/457
f 387/889/455 100/467/457 244/718/458
f 387/889/455 244/718/458 243/717/459
f 387/889/455 243/717/459 99/466/456
f 388/890/460 100/468/461 101/469/462
f 388/890/460 101/469/462 245/720/463
f 388/890/460 245/720/463 244/719/464
f 388/890/460 244/719/464 100/468/461
f 389/891/465 101/470/466 102/471/467
f 389/891/465 102/471/467 246/722/468
f 389/891/465 246/722/468 245/721/469
f 389/891/465 245/721/469 101/470/466
f 390/892/470 102/472/471 103/473/472
f 390/892/470 103/473/472 247/724/473
f 390/892/470 247/724/473 246/723/474
f 390/892/470 246/723/474 102/472/471
f 391/893/475 103/474/476 104/475/477
f 391/893/475 104/475/477 248/726/478
f 391/893/475 248/726/478 247/725/479
f 391/893/475 247/725/479 103/474/476
f 392/894/480 104/476/481 105/477/482
f 392/894/480 105/477/482 249/728/483
f 392/894/480 249/728/483 248/727/484
f 392/894/480 248/727/484 104/476/481
f 393/895/485 105/478/486 106/479/487
f 393/895/485 106/479/487 250/730/488
f 393/895/485 250/730/488 249/729/489
f 393/895/485 249/729/489 105/478/486
f 394/896/490 106/480/491 107/481/492
f 394/896/490 107/481/492 251/732/493
f 394/896/490 251/732/493 250/731/494
f 394/896/490 250/731/494 106/480/491
f 395/897/495 107/482/496 108/483/497
f 395/897/495 108/483/497 252/734/498
f 395/897/495 252/734/498 251/733/499
f 395/897/495 251/733/499 107/482/496
f 396/898/500 108/484/501 109/485/502
f 396/898/500 109/485/502 253/736/503
f 396/898/500 253/736/503 252/735/504
f 396/898/500 252/735/504 108/484/501
f 397/899/505 109/486/506 110/487/507
f 397/899/505 110/487/507 254/738/508
f 397/899/505 254/738/508 253/737/509
f 397/899/505 253/737/509 109/486/506
f 398/900/510 110/488/511 111/489/512
f 398/900/510 111/489/512 255/740/513
f 398/900/510 255/740/513 254/739/514
f 398/900/510 254/739/514 110/488/511
f 399/901/515 111/490/516 112/491/517
f 399/901/515 112/491/517 256/742/518
f 399/901/515 256/742/518 255/741/519
f 399/901/515 255/741/519 111/490/516
f 400/902/520 112/492/521 113/493/522
f 400/902/520 113/493/522 257/744/523
f 400/902/520 257/744/523 256/743/524
f 400/902/520 256/743/524 112/492/521
f 401/903/525 113/494/526 114/495/527
f 401/903/525 114/495/527 258/746/528
f 401/903/525 258/746/528 257/745/529
f 401/903/525 257/745/529 113/494/526
f 402/904/530 114/496/531 115/497/532
f 402/904/530 115/497/532 259/748/533
f 402/904/530 259/748/533 258/747/534
f 402/904/530 258/747/534 114/496/531
f 403/905/535 115/498/536 116/499/537
f 403/905/535 116/499/537 260/750/538
f 403/905/535 260/750/538 259/749/539
f 403/905/535 259/749/539 115/498/536
f 404/906/540 116/500/541 117/501/542
f 404/906/540 117/501/542 261/752/543
f 404/906/540 261/752/543 260/751/544
f 404/906/540 260/751/544 116/500/541
f 405/907/545 117/502/546 118/503/547
f 405/907/545 118/503/547 262/754/548
f 405/907/545 262/754/548 261/753/549
f 405/907/545 261/753/549 117/502/546
f 406/908/550 118/504/551 119/505/552
f 406/908/550 119/505/552 263/756/553
f 406/908/550 263/756/553 262/755/554
f 406/908/550 262/755/554 118/504/551
f 407/909/555 119/506/556 120/507/557
f 407/909/555 120/507/557 264/758/558
f 407/909/555 264/758/558 263/757/559
f 407/909/555 263/757/559 119/506/556
f 408/910/560 120/508/561 121/509/562
f 408/910/560 121/509/562 265/760/563
f 408/910/560 265/760/563 264/759/564
f 408/910/560 264/759/564 120/508/561
f 409/911/565 121/509/562 122/510/566
f 409/911/565 122/510/566 266/761/567
f 409/911/565 266/761/567 265/760/563
f 409/911/565 265/760/563 121/509/562
f 410/912/568 122/510/566 123/511/569
f 410/912/568 123/511/569 267/762/570
f 410/912/568 267/762/570 266/761/567
f 410/912/568 266/761/567 122/510/566
f 411/913/571 123/511/569 124/512/572
f 411/913/571 124/512/572 268/763/573
f 411/913/571 268/763/573 267/762/570
f 411/913/571 267/762/570 123/511/569
f 412/914/574 124/513/575 125/514/576
f 412/914/574 125/514/576 269/765/577
f 412/914/574 269/765/577 268/764/578
f 412/914/574 268/764/578 124/513/575
f 413/915/579 125/515/580 126/516/581
f 413/915/579 126/516/581 270/767/582
f 413/915/579 270/767/582 269/766/583
f 413/915/579 269/766/583 125/515/580
f 414/916/584 126/517/585 127/518/586
f 414/916/584 127/518/586 271/769/587
f 414/916/584 271/769/587 270/768/588
f 414/916/584 270/768/588 126/517/585
f 415/917/589 127/519/590 128/520/591
f 415/917/589 128/520/591 272/771/592
f 415/917/589 272/771/592 271/770/593
f 415/917/589 271/770/593 127/519/590
f 416/918/594 128/520/591 129/521/595
f 416/918/594 129/521/595 273/772/596
f 416/918/594 273/772/596 272/771/592
f 416/918/594 272/771/592 128/520/591
f 417/919/597 129/521/595 130/522/598
f 417/919/597 130/522/598 274/773/599
f 417/919/597 274/773/599 273/772/596
f 417/919/597 273/772/596 129/521/595
f 418/920/600 130/522/598 131/523/601
f 418/920/600 131/523/601 275/774/602
f 418/920/600 275/774/602 274/773/599
f 418/920/600 274/773/599 130/522/598
f 419/921/603 131/523/601 132/524/604
f 419/921/603 132/524/604 276/775/605
f 419/921/603 276/775/605 275/774/602
f 419/921/603 275/774/602 131/523/601
f 420/922/606 132/524/604 133/525/607
f 420/922/606 133/525/607 277/776/608
f 420/922/606 277/776/608 276/775/605
f 420/922/606 276/775/605 132/524/604
f 421/923/609 133/525/607 134/526/610
f 421/923/609 134/526/610 278/777/611
f 421/923/609 278/777/611 277/776/608
f 421/923/609 277/776/608 133/525/607
f 422/924/612 134/526/610 135/527/613
f 422/924/612 135/527/613 279/778/614
f 422/924/612 279/778/614 278/777/611
f 422/924/612 278/777/611 134/526/610
f 423/925/615 135/527/613 136/528/616
f 423/925/615 136/528/616 280/779/617
f 423/925/615 280/779/617 279/778/614
f 423/925/615 279/778/614 135/527/613
f 424/926/618 136/528/616 137/529/619
f 424/926/618 137/529/619 281/780/620
f 424/926/618 281/780/620 280/779/617
f 424/926/618 280/779/617 136/528/616
f 425/927/621 137/529/619 138/530/622
f 425/927/621 138/530/622 282/781/623
f 425/927/621 282/781/623 281/780/620
f 425/927/621 281/780/620 137/529/619
f 426/928/624 138/530/622 139/531/625
f 426/928/624 139/531/625 283/782/626
f 426/928/624 283/782/626 282/781/623
f 426/928/624 282/781/623 138/530/622
f 427/929/627 139/531/625 140/532/628
f 427/929/627 140/532/628 284/783/629
f 427/929/627 284/783/629 283/782/626
f 427/929/627 283/782/626 139/531/625
f 428/930/630 140/533/631 141/534/632
f 428/930/630 141/534/632 285/785/633
f 428/930/630 285/785/633 284/784/634
f 428/930/630 284/784/634 140/533/631
f 429/931/635 141/535/636 142/536/637
f 429/931/635 142/536/637 286/787/638
f 429/931/635 286/787/638 285/786/639
f 429/931/635 285/786/639 141/535/636
f 430/932/640 142/536/637 143/537/641
f 430/932/640 143/537/641 287/788/642
f 430/932/640 287/788/642 286/787/638
f 430/932/640 286/787/638 142/536/637
f 431/933/643 143/537/641 144/538/644
f 431/933/643 144/538/644 288/789/645
f 431/933/643 288/789/645 287/788/642
f 431/933/643 287/788/642 143/537/641
f 432/934/646 144/538/644 1/539/647
f 432/934/646 1/539/647 145/790/648
f 432/934/646 145/790/648 288/789/645
f 432/934/646 288/789/645 144/538/644
