mtllib AWR.mtl
# Vertex Positions: 
g groupNumber_0
v 13.8899 -0.450799 -16.9263
v 13.8899 -0.433149 -16.9263
v 13.6543 -0.433149 -16.9263
v 12.9116 0.467139 -16.9263
v 12.2497 0.470345 -16.9263
v 11.4463 -0.46021 -16.9263
v 10.1194 -0.46021 -16.9263
v 9.96904 -0.285054 -16.9263
v 9.42455 -0.285054 -16.9263
v 9.30948 -0.455832 -16.9263
v 7.22578 -0.455832 -16.9263
v 7.09361 -0.286226 -16.9263
v 6.57435 -0.286226 -16.9263
v 6.45039 -0.455832 -16.9263
v 5.07865 -0.455832 -16.9263
v 4.2814 0.474775 -16.9263
v 3.61342 0.47786 -16.9263
v 2.79766 -0.46021 -16.9263
v 1.47939 -0.46021 -16.9263
v 1.33444 -0.285054 -16.9263
v 0.772567 -0.285054 -16.9263
v 0.669114 -0.455832 -16.9263
v -1.37991 -0.455832 -16.9263
v -1.52185 -0.285227 -16.9263
v -2.06036 -0.285227 -16.9263
v -2.18283 -0.455832 -16.9263
v -3.51409 -0.455832 -16.9263
v -4.32472 0.474826 -16.9263
v -4.98273 0.47786 -16.9263
v -5.78137 -0.45597 -16.9263
v -7.12643 -0.45597 -16.9263
v -7.28512 -0.285054 -16.9263
v -7.81742 -0.285054 -16.9263
v -7.9632 -0.46021 -16.9263
v -10.0403 -0.46021 -16.9263
v -10.1647 -0.286226 -16.9263
v -10.6691 -0.286226 -16.9263
v -10.8291 -0.455832 -16.9263
v -12.1445 -0.455832 -16.9263
v -12.8803 0.474516 -16.9263
v -13.6208 0.47786 -16.9263
v -13.8899 0.120068 -16.9263
v -13.8758 0.109451 -16.9263
v -13.6119 0.46021 -16.9263
v -12.8915 0.46021 -16.9263
v -12.1557 -0.470138 -16.9263
v -10.8214 -0.473482 -16.9263
v -10.6615 -0.303876 -16.9263
v -10.1738 -0.303876 -16.9263
v -10.0494 -0.47786 -16.9263
v -7.95493 -0.47786 -16.9263
v -7.80914 -0.302704 -16.9263
v -7.29281 -0.302704 -16.9263
v -7.13412 -0.47362 -16.9263
v -5.77324 -0.47362 -16.9263
v -4.97459 0.46021 -16.9263
v -4.33538 0.46021 -16.9263
v -3.52476 -0.470448 -16.9263
v -2.17376 -0.473482 -16.9263
v -2.0513 -0.302877 -16.9263
v -1.53012 -0.302877 -16.9263
v -1.38818 -0.473482 -16.9263
v 0.679042 -0.473482 -16.9263
v 0.782495 -0.302704 -16.9263
v 1.32616 -0.302704 -16.9263
v 1.47112 -0.47786 -16.9263
v 2.80573 -0.47786 -16.9263
v 3.62149 0.46021 -16.9263
v 4.27065 0.46021 -16.9263
v 5.06789 -0.470414 -16.9263
v 6.45935 -0.473482 -16.9263
v 6.58331 -0.303876 -16.9263
v 7.08499 -0.303876 -16.9263
v 7.21716 -0.473482 -16.9263
v 9.31886 -0.473482 -16.9263
v 9.43393 -0.302704 -16.9263
v 9.96091 -0.302704 -16.9263
v 10.1112 -0.47786 -16.9263
v 11.4544 -0.47786 -16.9263
v 12.2578 0.452695 -16.9263
v 12.9007 0.452695 -16.9263
v 13.6434 -0.447593 -16.9263
v 13.8899 -0.450799 16.9263
v 13.8899 -0.433149 16.9263
v 13.6543 -0.433149 16.9263
v 12.9116 0.467139 16.9263
v 12.2497 0.470345 16.9263
v 11.4463 -0.46021 16.9263
v 10.1194 -0.46021 16.9263
v 9.96904 -0.285054 16.9263
v 9.42455 -0.285054 16.9263
v 9.30948 -0.455832 16.9263
v 7.22578 -0.455832 16.9263
v 7.09361 -0.286226 16.9263
v 6.57435 -0.286226 16.9263
v 6.45039 -0.455832 16.9263
v 5.07865 -0.455832 16.9263
v 4.2814 0.474775 16.9263
v 3.61342 0.47786 16.9263
v 2.79766 -0.46021 16.9263
v 1.47939 -0.46021 16.9263
v 1.33444 -0.285054 16.9263
v 0.772567 -0.285054 16.9263
v 0.669114 -0.455832 16.9263
v -1.37991 -0.455832 16.9263
v -1.52185 -0.285227 16.9263
v -2.06036 -0.285227 16.9263
v -2.18283 -0.455832 16.9263
v -3.51409 -0.455832 16.9263
v -4.32472 0.474826 16.9263
v -4.98273 0.47786 16.9263
v -5.78137 -0.45597 16.9263
v -7.12643 -0.45597 16.9263
v -7.28512 -0.285054 16.9263
v -7.81742 -0.285054 16.9263
v -7.9632 -0.46021 16.9263
v -10.0403 -0.46021 16.9263
v -10.1647 -0.286226 16.9263
v -10.6691 -0.286226 16.9263
v -10.8291 -0.455832 16.9263
v -12.1445 -0.455832 16.9263
v -12.8803 0.474516 16.9263
v -13.6208 0.47786 16.9263
v -13.8899 0.120068 16.9263
v -13.8758 0.109451 16.9263
v -13.6119 0.46021 16.9263
v -12.8915 0.46021 16.9263
v -12.1557 -0.470138 16.9263
v -10.8214 -0.473482 16.9263
v -10.6615 -0.303876 16.9263
v -10.1738 -0.303876 16.9263
v -10.0494 -0.47786 16.9263
v -7.95493 -0.47786 16.9263
v -7.80914 -0.302704 16.9263
v -7.29281 -0.302704 16.9263
v -7.13412 -0.47362 16.9263
v -5.77324 -0.47362 16.9263
v -4.97459 0.46021 16.9263
v -4.33538 0.46021 16.9263
v -3.52476 -0.470448 16.9263
v -2.17376 -0.473482 16.9263
v -2.0513 -0.302877 16.9263
v -1.53012 -0.302877 16.9263
v -1.38818 -0.473482 16.9263
v 0.679042 -0.473482 16.9263
v 0.782495 -0.302704 16.9263
v 1.32616 -0.302704 16.9263
v 1.47112 -0.47786 16.9263
v 2.80573 -0.47786 16.9263
v 3.62149 0.46021 16.9263
v 4.27065 0.46021 16.9263
v 5.06789 -0.470414 16.9263
v 6.45935 -0.473482 16.9263
v 6.58331 -0.303876 16.9263
v 7.08499 -0.303876 16.9263
v 7.21716 -0.473482 16.9263
v 9.31886 -0.473482 16.9263
v 9.43393 -0.302704 16.9263
v 9.96091 -0.302704 16.9263
v 10.1112 -0.47786 16.9263
v 11.4544 -0.47786 16.9263
v 12.2578 0.452695 16.9263
v 12.9007 0.452695 16.9263
v 13.6434 -0.447593 16.9263
v 13.8899 -0.441974 0
v 13.7721 -0.433149 0
v 13.283 0.016995 0
v 12.5807 0.468742 0
v 11.848 0.00506748 0
v 10.7828 -0.46021 0
v 10.0442 -0.372632 0
v 9.6968 -0.285054 0
v 9.36701 -0.370443 0
v 8.26763 -0.455832 0
v 7.1597 -0.371029 0
v 6.83398 -0.286226 0
v 6.51237 -0.371029 0
v 5.76452 -0.455832 0
v 4.68003 0.00947137 0
v 3.94741 0.476317 0
v 3.20554 0.008825 0
v 2.13853 -0.46021 0
v 1.40692 -0.372632 0
v 1.0535 -0.285054 0
v 0.720841 -0.370443 0
v -0.355396 -0.455832 0
v -1.45088 -0.370529 0
v -1.7911 -0.285227 0
v -2.12159 -0.370529 0
v -2.84846 -0.455832 0
v -3.9194 0.00949722 0
v -4.65372 0.476343 0
v -5.38205 0.0109451 0
v -6.4539 -0.45597 0
v -7.20578 -0.370512 0
v -7.55127 -0.285054 0
v -7.89031 -0.372632 0
v -9.00175 -0.46021 0
v -10.1025 -0.373218 0
v -10.4169 -0.286226 0
v -10.7491 -0.371029 0
v -11.4868 -0.455832 0
v -12.5124 0.00934209 0
v -13.2505 0.476188 0
v -13.7553 0.298964 0
v -13.8828 0.114759 0
v -13.7439 0.28483 0
v -13.2517 0.46021 0
v -12.5236 -0.00496406 0
v -11.4886 -0.47181 0
v -10.7415 -0.388679 0
v -10.4177 -0.303876 0
v -10.1116 -0.390868 0
v -9.00215 -0.47786 0
v -7.88204 -0.390282 0
v -7.55098 -0.302704 0
v -7.21346 -0.388162 0
v -6.45368 -0.47362 0
v -5.37392 -0.00670493 0
v -4.65499 0.46021 0
v -3.93007 -0.00511919 0
v -2.84926 -0.471965 0
v -2.11253 -0.388179 0
v -1.79071 -0.302877 0
v -1.45915 -0.388179 0
v -0.354569 -0.473482 0
v 0.730769 -0.388093 0
v 1.05433 -0.302704 0
v 1.39864 -0.390282 0
v 2.13843 -0.47786 0
v 3.21361 -0.008825 0
v 3.94607 0.46021 0
v 4.66927 -0.00510195 0
v 5.76362 -0.471948 0
v 6.52133 -0.388679 0
v 6.83415 -0.303876 0
v 7.15108 -0.388679 0
v 8.26801 -0.473482 0
v 9.37639 -0.388093 0
v 9.69742 -0.302704 0
v 10.0361 -0.390282 0
v 10.7828 -0.47786 0
v 11.8561 -0.0125825 0
v 12.5792 0.452695 0
v 13.272 0.00255098 0
v 13.7666 -0.449196 0


# Vertex Texture Coordinates :
vt 0.399772 0.00038943
vt 0.399772 0.000643427
vt 0.396383 0.000643427
vt 0.385695 0.0135993
vt 0.376169 0.0136454
vt 0.364607 0.000253998
vt 0.345512 0.000253998
vt 0.343349 0.00277463
vt 0.335513 0.00277463
vt 0.333857 0.000317001
vt 0.303871 0.000317001
vt 0.301969 0.00275776
vt 0.294496 0.00275776
vt 0.292712 0.000317001
vt 0.272972 0.000317001
vt 0.261499 0.0137092
vt 0.251886 0.0137536
vt 0.240147 0.000253998
vt 0.221176 0.000253998
vt 0.21909 0.00277463
vt 0.211004 0.00277463
vt 0.209515 0.000317001
vt 0.180028 0.000317001
vt 0.177986 0.00277214
vt 0.170236 0.00277214
vt 0.168474 0.000317001
vt 0.149316 0.000317001
vt 0.13765 0.0137099
vt 0.128181 0.0137536
vt 0.116688 0.000315016
vt 0.0973312 0.000315016
vt 0.0950474 0.00277463
vt 0.0873873 0.00277463
vt 0.0852893 0.000253998
vt 0.0553982 0.000253998
vt 0.0536074 0.00275776
vt 0.0463491 0.00275776
vt 0.0440472 0.000317001
vt 0.0251175 0.000317001
vt 0.014529 0.0137054
vt 0.00387247 0.0137536
vt 0 0.00860466
vt 0.0002029 0.00845187
vt 0.00399947 0.0134996
vt 0.0143677 0.0134996
vt 0.0249562 0.000111124
vt 0.0441569 6.30033e-05
vt 0.0464587 0.00250376
vt 0.0534769 0.00250376
vt 0.0552678 0
vt 0.0854084 0
vt 0.0875064 0.00252063
vt 0.0949368 0.00252063
vt 0.0972205 6.1019e-05
vt 0.116805 6.1019e-05
vt 0.128298 0.0134996
vt 0.137496 0.0134996
vt 0.149162 0.000106659
vt 0.168604 6.30033e-05
vt 0.170366 0.00251815
vt 0.177866 0.00251815
vt 0.179909 6.30033e-05
vt 0.209658 6.30033e-05
vt 0.211147 0.00252063
vt 0.218971 0.00252063
vt 0.221057 0
vt 0.240263 0
vt 0.252002 0.0134996
vt 0.261344 0.0134996
vt 0.272817 0.000107155
vt 0.292841 6.30033e-05
vt 0.294625 0.00250376
vt 0.301845 0.00250376
vt 0.303747 6.30033e-05
vt 0.333992 6.30033e-05
vt 0.335648 0.00252063
vt 0.343231 0.00252063
vt 0.345395 0
vt 0.364724 0
vt 0.376285 0.0133914
vt 0.385537 0.0133914
vt 0.396225 0.000435566
vt 0.405813 0.00038943
vt 0.405813 0.000643427
vt 0.409202 0.000643427
vt 0.41989 0.0135993
vt 0.429416 0.0136454
vt 0.440978 0.000253998
vt 0.460073 0.000253998
vt 0.462236 0.00277463
vt 0.470072 0.00277463
vt 0.471728 0.000317001
vt 0.501714 0.000317001
vt 0.503616 0.00275776
vt 0.511089 0.00275776
vt 0.512873 0.000317001
vt 0.532613 0.000317001
vt 0.544086 0.0137092
vt 0.553699 0.0137536
vt 0.565438 0.000253998
vt 0.584409 0.000253998
vt 0.586495 0.00277463
vt 0.594581 0.00277463
vt 0.59607 0.000317001
vt 0.625557 0.000317001
vt 0.627599 0.00277214
vt 0.635349 0.00277214
vt 0.637111 0.000317001
vt 0.656269 0.000317001
vt 0.667935 0.0137099
vt 0.677404 0.0137536
vt 0.688897 0.000315016
vt 0.708254 0.000315016
vt 0.710538 0.00277463
vt 0.718198 0.00277463
vt 0.720296 0.000253998
vt 0.750187 0.000253998
vt 0.751978 0.00275776
vt 0.759236 0.00275776
vt 0.761538 0.000317001
vt 0.780467 0.000317001
vt 0.791056 0.0137054
vt 0.801713 0.0137536
vt 0.805585 0.00860466
vt 0.805382 0.00845187
vt 0.801586 0.0134996
vt 0.791217 0.0134996
vt 0.780629 0.000111124
vt 0.761428 6.30033e-05
vt 0.759126 0.00250376
vt 0.752108 0.00250376
vt 0.750317 0
vt 0.720177 0
vt 0.718079 0.00252063
vt 0.710648 0.00252063
vt 0.708364 6.1019e-05
vt 0.68878 6.1019e-05
vt 0.677287 0.0134996
vt 0.668088 0.0134996
vt 0.656423 0.000106659
vt 0.636981 6.30033e-05
vt 0.635219 0.00251815
vt 0.627719 0.00251815
vt 0.625676 6.30033e-05
vt 0.595927 6.30033e-05
vt 0.594438 0.00252063
vt 0.586614 0.00252063
vt 0.584528 0
vt 0.565322 0
vt 0.553583 0.0134996
vt 0.544241 0.0134996
vt 0.532768 0.000107155
vt 0.512744 6.30033e-05
vt 0.51096 0.00250376
vt 0.50374 0.00250376
vt 0.501838 6.30033e-05
vt 0.471593 6.30033e-05
vt 0.469937 0.00252063
vt 0.462353 0.00252063
vt 0.46019 0
vt 0.440861 0
vt 0.4293 0.0133914
vt 0.420048 0.0133914
vt 0.40936 0.000435566
vt 4.57331e-06 0.019722
vt 0.000258571 0.019722
vt 0.00628677 0.019722
vt 0.00967605 0.019722
vt 0.0156996 0.019722
vt 0.0324952 0.019722
vt 0.0157068 0.512834
vt 0.0252328 0.512834
vt 0.0385037 0.019722
vt 0.0561954 0.019722
vt 0.0621839 0.019722
vt 0.0812793 0.019722
vt 0.00626106 0.512834
vt 0.00958282 0.512834
vt 0.0384958 0.512834
vt 0.0463315 0.512834
vt 0.0522904 0.512834
vt 0.0552538 0.512834
vt 0.0873053 0.019722
vt 0.117291 0.019722
vt 0.0622157 0.512834
vt 0.06531 0.512834
vt 0.0713255 0.512834
vt 0.0787981 0.512834
vt 0.0872874 0.512834
vt 0.0903106 0.512834
vt 0.0962936 0.512834
vt 0.116034 0.512834
vt 0.123334 0.019722
vt 0.140969 0.019722
vt 0.123301 0.512834
vt 0.132914 0.512834
vt 0.146994 0.019722
vt 0.164884 0.019722
vt 0.170895 0.019722
vt 0.189866 0.019722
vt 0.146988 0.512834
vt 0.15026 0.512834
vt 0.156237 0.512834
vt 0.164323 0.512834
vt 0.170916 0.512834
vt 0.173789 0.512834
vt 0.195847 0.019722
vt 0.225334 0.019722
vt 0.179795 0.512834
vt 0.182988 0.512834
vt 0.195892 0.512834
vt 0.203642 0.512834
vt 0.209674 0.512834
vt 0.212696 0.512834
vt 0.23134 0.019722
vt 0.250498 0.019722
vt 0.231325 0.512834
vt 0.249086 0.512834
vt 0.256523 0.019722
vt 0.265992 0.019722
vt 0.271981 0.019722
vt 0.289664 0.019722
vt 0.295645 0.019722
vt 0.315002 0.019722
vt 0.218725 0.512834
vt 0.222081 0.512834
vt 0.256535 0.512834
vt 0.264196 0.512834
vt 0.271987 0.512834
vt 0.275267 0.512834
vt 0.321004 0.019722
vt 0.350895 0.019722
vt 0.281246 0.512834
vt 0.284324 0.512834
vt 0.295688 0.512834
vt 0.302947 0.512834
vt 0.308998 0.512834
vt 0.312353 0.512834
vt 0.321014 0.512834
vt 0.339944 0.512834
vt 0.356912 0.019722
vt 0.373981 0.019722
vt 0.356907 0.512834
vt 0.367563 0.512834
vt 0.380006 0.019722
vt 0.386449 0.019722
vt 4.57308e-06 0.512834
vt 0.000258571 0.512834
vt 0.38001 0.512834
vt 0.386326 0.512834
vt 0.392494 0.019722
vt 0.402862 0.019722
vt 0.408887 0.019722
vt 0.425956 0.019722
vt 0.431966 0.019722
vt 0.451166 0.019722
vt 0.345988 0.512834
vt 0.349343 0.512834
vt 0.392504 0.512834
vt 0.399522 0.512834
vt 0.408865 0.512834
vt 0.411944 0.512834
vt 0.457181 0.019722
vt 0.487322 0.019722
vt 0.417923 0.512834
vt 0.421202 0.512834
vt 0.431963 0.512834
vt 0.439394 0.512834
vt 0.445418 0.512834
vt 0.448775 0.512834
vt 0.457167 0.512834
vt 0.476751 0.512834
vt 0.493323 0.019722
vt 0.511006 0.019722
vt 0.493343 0.512834
vt 0.502541 0.512834
vt 0.517012 0.019722
vt 0.534773 0.019722
vt 0.540791 0.019722
vt 0.560233 0.019722
vt 0.482753 0.512834
vt 0.485775 0.512834
vt 0.517028 0.512834
vt 0.524528 0.512834
vt 0.530539 0.512834
vt 0.533733 0.512834
vt 0.566264 0.019722
vt 0.596013 0.019722
vt 0.540809 0.512834
vt 0.543683 0.512834
vt 0.549693 0.512834
vt 0.557516 0.512834
vt 0.566241 0.512834
vt 0.569513 0.512834
vt 0.57552 0.512834
vt 0.594726 0.512834
vt 0.602047 0.019722
vt 0.619937 0.019722
vt 0.602039 0.512834
vt 0.611381 0.512834
vt 0.625962 0.019722
vt 0.643596 0.019722
vt 0.649625 0.019722
vt 0.669649 0.019722
vt 0.625953 0.512834
vt 0.628976 0.512834
vt 0.634975 0.512834
vt 0.642195 0.512834
vt 0.649645 0.512834
vt 0.652739 0.512834
vt 0.675676 0.019722
vt 0.705921 0.019722
vt 0.65875 0.512834
vt 0.661713 0.512834
vt 0.675648 0.512834
vt 0.683232 0.512834
vt 0.689197 0.512834
vt 0.692519 0.512834
vt 0.711939 0.019722
vt 0.731267 0.019722
vt 0.711924 0.512834
vt 0.729616 0.512834
vt 0.737256 0.019722
vt 0.746508 0.019722
vt 0.752514 0.019722
vt 0.769309 0.019722
vt 0.69848 0.512834
vt 0.702027 0.512834
vt 4.57331e-06 0.506888
vt 0.000258571 0.506888
vt 0.00628677 0.506888
vt 0.00967605 0.506888
vt 0.0156996 0.506888
vt 0.0324952 0.506888
vt 0.0157068 1
vt 0.0252328 1
vt 0.0385037 0.506888
vt 0.0561954 0.506888
vt 0.0621839 0.506888
vt 0.0812793 0.506888
vt 0.00626106 1
vt 0.00958282 1
vt 0.0384958 1
vt 0.0463315 1
vt 0.0522904 1
vt 0.0552538 1
vt 0.0873053 0.506888
vt 0.117291 0.506888
vt 0.0622157 1
vt 0.06531 1
vt 0.0713255 1
vt 0.0787981 1
vt 0.0872874 1
vt 0.0903106 1
vt 0.0962936 1
vt 0.116034 1
vt 0.123334 0.506888
vt 0.140969 0.506888
vt 0.123301 1
vt 0.132914 1
vt 0.146994 0.506888
vt 0.164884 0.506888
vt 0.170895 0.506888
vt 0.189866 0.506888
vt 0.146988 1
vt 0.15026 1
vt 0.156237 1
vt 0.164323 1
vt 0.170916 1
vt 0.173789 1
vt 0.195847 0.506888
vt 0.225334 0.506888
vt 0.179795 1
vt 0.182988 1
vt 0.195892 1
vt 0.203642 1
vt 0.209674 1
vt 0.212696 1
vt 0.23134 0.506888
vt 0.250498 0.506888
vt 0.231325 1
vt 0.249086 1
vt 0.256523 0.506888
vt 0.265992 0.506888
vt 0.271981 0.506888
vt 0.289664 0.506888
vt 0.295645 0.506888
vt 0.315002 0.506888
vt 0.218725 1
vt 0.222081 1
vt 0.256535 1
vt 0.264196 1
vt 0.271987 1
vt 0.275267 1
vt 0.321004 0.506888
vt 0.350895 0.506888
vt 0.281246 1
vt 0.284324 1
vt 0.295688 1
vt 0.302947 1
vt 0.308998 1
vt 0.312353 1
vt 0.321014 1
vt 0.339944 1
vt 0.356912 0.506888
vt 0.373981 0.506888
vt 0.356907 1
vt 0.367563 1
vt 0.380006 0.506888
vt 0.386449 0.506888
vt 4.57308e-06 1
vt 0.000258571 1
vt 0.38001 1
vt 0.386326 1
vt 0.392494 0.506888
vt 0.402862 0.506888
vt 0.408887 0.506888
vt 0.425956 0.506888
vt 0.431966 0.506888
vt 0.451166 0.506888
vt 0.345988 1
vt 0.349343 1
vt 0.392504 1
vt 0.399522 1
vt 0.408865 1
vt 0.411944 1
vt 0.457181 0.506888
vt 0.487322 0.506888
vt 0.417923 1
vt 0.421202 1
vt 0.431963 1
vt 0.439394 1
vt 0.445418 1
vt 0.448775 1
vt 0.457167 1
vt 0.476751 1
vt 0.493323 0.506888
vt 0.511006 0.506888
vt 0.493343 1
vt 0.502541 1
vt 0.517012 0.506888
vt 0.534773 0.506888
vt 0.540791 0.506888
vt 0.560233 0.506888
vt 0.482753 1
vt 0.485775 1
vt 0.517028 1
vt 0.524528 1
vt 0.530539 1
vt 0.533733 1
vt 0.566264 0.506888
vt 0.596013 0.506888
vt 0.540809 1
vt 0.543683 1
vt 0.549693 1
vt 0.557516 1
vt 0.566241 1
vt 0.569513 1
vt 0.57552 1
vt 0.594726 1
vt 0.602047 0.506888
vt 0.619937 0.506888
vt 0.602039 1
vt 0.611381 1
vt 0.625962 0.506888
vt 0.643596 0.506888
vt 0.649625 0.506888
vt 0.669649 0.506888
vt 0.625953 1
vt 0.628976 1
vt 0.634975 1
vt 0.642195 1
vt 0.649645 1
vt 0.652739 1
vt 0.675676 0.506888
vt 0.705921 0.506888
vt 0.65875 1
vt 0.661713 1
vt 0.675648 1
vt 0.683232 1
vt 0.689197 1
vt 0.692519 1
vt 0.711939 0.506888
vt 0.731267 0.506888
vt 0.711924 1
vt 0.729616 1
vt 0.737256 0.506888
vt 0.746508 0.506888
vt 0.752514 0.506888
vt 0.769309 0.506888
vt 0.69848 1
vt 0.702027 1
vt 0.000131572 0.263305
vt 0.00798141 0.263305
vt 0.0240974 0.263305
vt 0.0204698 0.756417
vt 0.0473495 0.263305
vt 0.0717316 0.263305
vt 0.00792194 0.756417
vt 0.0424136 0.756417
vt 0.0537721 0.756417
vt 0.102298 0.263305
vt 0.0637628 0.756417
vt 0.0750618 0.756417
vt 0.088799 0.756417
vt 0.106164 0.756417
vt 0.132152 0.263305
vt 0.128108 0.756417
vt 0.155939 0.263305
vt 0.18038 0.263305
vt 0.148624 0.756417
vt 0.16028 0.756417
vt 0.172352 0.756417
vt 0.21059 0.263305
vt 0.181391 0.756417
vt 0.199767 0.756417
vt 0.211185 0.756417
vt 0.240919 0.263305
vt 0.240206 0.756417
vt 0.261258 0.263305
vt 0.280823 0.263305
vt 0.305324 0.263305
vt 0.220403 0.756417
vt 0.260366 0.756417
vt 0.273627 0.756417
vt 0.33595 0.263305
vt 0.282785 0.756417
vt 0.299317 0.756417
vt 0.310676 0.756417
vt 0.330479 0.756417
vt 0.365446 0.263305
vt 0.362235 0.756417
vt 0.383227 0.263305
vt 0.000131572 0.756417
vt 0.383168 0.756417
vt 0.397678 0.263305
vt 0.417422 0.263305
vt 0.441566 0.263305
vt 0.347665 0.756417
vt 0.396013 0.756417
vt 0.410404 0.756417
vt 0.472252 0.263305
vt 0.419563 0.756417
vt 0.435679 0.756417
vt 0.447096 0.756417
vt 0.466959 0.756417
vt 0.502164 0.263305
vt 0.497942 0.756417
vt 0.525892 0.263305
vt 0.550512 0.263305
vt 0.484264 0.756417
vt 0.520778 0.756417
vt 0.532136 0.756417
vt 0.581138 0.263305
vt 0.542246 0.756417
vt 0.553604 0.756417
vt 0.567877 0.756417
vt 0.585123 0.756417
vt 0.610992 0.263305
vt 0.60671 0.756417
vt 0.634779 0.263305
vt 0.659637 0.263305
vt 0.627464 0.756417
vt 0.638585 0.756417
vt 0.651192 0.756417
vt 0.690798 0.263305
vt 0.660231 0.756417
vt 0.67944 0.756417
vt 0.690858 0.756417
vt 0.721603 0.263305
vt 0.72077 0.756417
vt 0.741882 0.263305
vt 0.760912 0.263305
vt 0.700254 0.756417


# Vertex Surface Normals: 
vn 0 0 1
vn 0 0 -1
vn 1 0 0
vn 1 0 0
vn 1 0 0
vn 1 0 0
vn 1 0 0
vn 0 1 0
vn 0 1 0
vn 0 1 0
vn 0 1 0
vn 0 1 0
vn 0.771383 0.636371 0
vn 0.771383 0.636371 -3.46248e-17
vn 0.771383 0.636371 -3.46248e-17
vn 0.771383 0.636371 3.46248e-17
vn 0.771383 0.636371 3.46248e-17
vn 0.00484318 0.999988 0
vn 0.00484318 0.999988 3.04992e-18
vn 0.00484318 0.999988 3.04992e-18
vn 0.00484318 0.999988 -3.04992e-18
vn 0.00484318 0.999988 -3.04992e-18
vn -0.756934 0.653491 0
vn -0.756934 0.653491 1.98981e-18
vn -0.756934 0.653491 1.98981e-18
vn -0.756934 0.653491 -1.98981e-18
vn -0.756934 0.653491 -1.98981e-18
vn 0 1 0
vn 0 1 0
vn 0 1 0
vn 0 1 0
vn 0 1 0
vn 0.758824 0.651296 0
vn 0.758824 0.651296 3.47667e-17
vn 0.758824 0.651296 3.47667e-17
vn 0.758824 0.651296 -3.47667e-17
vn 0.758824 0.651296 -3.47667e-17
vn 0 1 0
vn 0 1 0
vn 0 1 0
vn 0 1 0
vn 0 1 0
vn -0.82931 0.558788 0
vn -0.82931 0.558788 3.7853e-17
vn -0.82931 0.558788 3.7853e-17
vn -0.82931 0.558788 -3.7853e-17
vn -0.82931 0.558788 -3.7853e-17
vn 0 1 0
vn 0 1 0
vn 0 1 0
vn 0 1 0
vn 0 1 0
vn 0.788782 0.614673 0
vn 0.788782 0.614673 -3.69706e-17
vn 0.788782 0.614673 -3.69706e-17
vn 0.788782 0.614673 3.69706e-17
vn 0.788782 0.614673 3.69706e-17
vn 0 1 0
vn 0 1 0
vn 0 1 0
vn 0 1 0
vn 0 1 0
vn -0.807343 0.590082 0
vn -0.807343 0.590082 0
vn -0.807343 0.590082 0
vn -0.807343 0.590082 0
vn -0.807343 0.590082 0
vn 0 1 0
vn 0 1 0
vn 0 1 0
vn 0 1 0
vn 0 1 0
vn 0.759423 0.650597 0
vn 0.759423 0.650597 1.69693e-17
vn 0.759423 0.650597 1.69693e-17
vn 0.759423 0.650597 -1.69693e-17
vn 0.759423 0.650597 -1.69693e-17
vn 0.00461882 0.999989 0
vn 0.00461882 0.999989 0
vn 0.00461882 0.999989 0
vn 0.00461882 0.999989 0
vn 0.00461882 0.999989 0
vn -0.754586 0.656201 0
vn -0.754586 0.656201 -7.86889e-18
vn -0.754586 0.656201 -7.86889e-18
vn -0.754586 0.656201 7.86889e-18
vn -0.754586 0.656201 7.86889e-18
vn 0 1 0
vn 0 1 0
vn 0 1 0
vn 0 1 0
vn 0 1 0
vn 0.770392 0.637571 0
vn 0.770392 0.637571 0
vn 0.770392 0.637571 0
vn 0.770392 0.637571 0
vn 0.770392 0.637571 0
vn 0 1 0
vn 0 1 0
vn 0 1 0
vn 0 1 0
vn 0 1 0
vn -0.855307 0.518122 0
vn -0.855307 0.518122 0
vn -0.855307 0.518122 0
vn -0.855307 0.518122 0
vn -0.855307 0.518122 0
vn 0 1 0
vn 0 1 0
vn 0 1 0
vn 0 1 0
vn 0 1 0
vn 0.76873 0.639573 0
vn 0.76873 0.639573 4.56465e-18
vn 0.76873 0.639573 4.56465e-18
vn 0.76873 0.639573 -4.56465e-18
vn 0.76873 0.639573 -4.56465e-18
vn 0 1 0
vn 0 1 0
vn 0 1 0
vn 0 1 0
vn 0 1 0
vn -0.812373 0.583139 0
vn -0.812373 0.583139 0
vn -0.812373 0.583139 0
vn -0.812373 0.583139 0
vn -0.812373 0.583139 0
vn 0 1 0
vn 0 1 0
vn 0 1 0
vn 0 1 0
vn 0 1 0
vn 0.754061 0.656804 0
vn 0.754061 0.656804 0
vn 0.754061 0.656804 0
vn 0.754061 0.656804 0
vn 0.754061 0.656804 0
vn 0.00461018 0.999989 0
vn 0.00461018 0.999989 0
vn 0.00461018 0.999989 0
vn 0.00461018 0.999989 0
vn 0.00461018 0.999989 0
vn -0.759972 0.649956 0
vn -0.759972 0.649956 0
vn -0.759972 0.649956 0
vn -0.759972 0.649956 0
vn -0.759972 0.649956 0
vn 0 1 0
vn 0 1 0
vn 0 1 0
vn 0 1 0
vn 0 1 0
vn 0.73282 0.680423 0
vn 0.73282 0.680423 3.34045e-17
vn 0.73282 0.680423 3.34045e-17
vn 0.73282 0.680423 -3.34045e-17
vn 0.73282 0.680423 -3.34045e-17
vn 0 1 0
vn 0 1 0
vn 0 1 0
vn 0 1 0
vn 0 1 0
vn -0.768606 0.639723 0
vn -0.768606 0.639723 0
vn -0.768606 0.639723 0
vn -0.768606 0.639723 0
vn -0.768606 0.639723 0
vn 0 1 0
vn 0 1 0
vn 0 1 0
vn 0 1 0
vn 0 1 0
vn 0.813352 0.581772 0
vn 0.813352 0.581772 -9.10875e-19
vn 0.813352 0.581772 -9.10875e-19
vn 0.813352 0.581772 9.10875e-19
vn 0.813352 0.581772 9.10875e-19
vn 0 1 0
vn 0 1 0
vn 0 1 0
vn 0 1 0
vn 0 1 0
vn -0.727505 0.686102 0
vn -0.727505 0.686102 3.30843e-17
vn -0.727505 0.686102 3.30843e-17
vn -0.727505 0.686102 -3.30843e-17
vn -0.727505 0.686102 -3.30843e-17
vn 0 1 0
vn 0 1 0
vn 0 1 0
vn 0 1 0
vn 0 1 0
vn 0.78435 0.620319 0
vn 0.78435 0.620319 3.50888e-17
vn 0.78435 0.620319 3.50888e-17
vn 0.78435 0.620319 -3.50888e-17
vn 0.78435 0.620319 -3.50888e-17
vn 0.00451558 0.99999 0
vn 0.00451558 0.99999 -2.61807e-18
vn 0.00451558 0.99999 -2.61807e-18
vn 0.00451558 0.99999 2.61807e-18
vn 0.00451558 0.99999 2.61807e-18
vn -0.799195 0.601071 0
vn -0.799195 0.601071 -3.74372e-17
vn -0.799195 0.601071 -3.74372e-17
vn -0.799195 0.601071 3.74372e-17
vn -0.799195 0.601071 3.74372e-17
vn -0.601561 -0.798827 0
vn -0.601561 -0.798827 2.64367e-17
vn -0.601561 -0.798827 2.64367e-17
vn -0.601561 -0.798827 -2.64367e-17
vn -0.601561 -0.798827 -2.64367e-17
vn 0.799179 -0.601093 0
vn 0.799179 -0.601093 3.78397e-17
vn 0.799179 -0.601093 3.78397e-17
vn 0.799179 -0.601093 -3.78397e-17
vn 0.799179 -0.601093 -3.78397e-17
vn 0 -1 0
vn 0 -1 0
vn 0 -1 0
vn 0 -1 0
vn 0 -1 0
vn -0.78435 -0.620319 0
vn -0.78435 -0.620319 3.50888e-17
vn -0.78435 -0.620319 3.50888e-17
vn -0.78435 -0.620319 -3.50888e-17
vn -0.78435 -0.620319 -3.50888e-17
vn -0.00250619 -0.999997 0
vn -0.00250619 -0.999997 -1.14358e-19
vn -0.00250619 -0.999997 -1.14358e-19
vn -0.00250619 -0.999997 1.14358e-19
vn -0.00250619 -0.999997 1.14358e-19
vn 0.727505 -0.686102 0
vn 0.727505 -0.686102 3.40868e-17
vn 0.727505 -0.686102 3.40868e-17
vn 0.727505 -0.686102 -3.40868e-17
vn 0.727505 -0.686102 -3.40868e-17
vn 0 -1 0
vn 0 -1 0
vn 0 -1 0
vn 0 -1 0
vn 0 -1 0
vn -0.813352 -0.581772 0
vn -0.813352 -0.581772 3.71637e-17
vn -0.813352 -0.581772 3.71637e-17
vn -0.813352 -0.581772 -3.71637e-17
vn -0.813352 -0.581772 -3.71637e-17
vn 0 -1 0
vn 0 -1 0
vn 0 -1 0
vn 0 -1 0
vn 0 -1 0
vn 0.768606 -0.639723 0
vn 0.768606 -0.639723 0
vn 0.768606 -0.639723 0
vn 0.768606 -0.639723 0
vn 0.768606 -0.639723 0
vn 0 -1 0
vn 0 -1 0
vn 0 -1 0
vn 0 -1 0
vn 0 -1 0
vn -0.73282 -0.680423 0
vn -0.73282 -0.680423 -3.34045e-17
vn -0.73282 -0.680423 -3.34045e-17
vn -0.73282 -0.680423 3.34045e-17
vn -0.73282 -0.680423 3.34045e-17
vn 0 -1 0
vn 0 -1 0
vn 0 -1 0
vn 0 -1 0
vn 0 -1 0
vn 0.759972 -0.649956 0
vn 0.759972 -0.649956 1.69219e-17
vn 0.759972 -0.649956 1.69219e-17
vn 0.759972 -0.649956 -1.69219e-17
vn 0.759972 -0.649956 -1.69219e-17
vn 0 -1 0
vn 0 -1 0
vn 0 -1 0
vn 0 -1 0
vn 0 -1 0
vn -0.754061 -0.656804 0
vn -0.754061 -0.656804 1.68457e-17
vn -0.754061 -0.656804 1.68457e-17
vn -0.754061 -0.656804 -1.68457e-17
vn -0.754061 -0.656804 -1.68457e-17
vn -0.00224544 -0.999997 0
vn -0.00224544 -0.999997 -2.82255e-20
vn -0.00224544 -0.999997 -2.82255e-20
vn -0.00224544 -0.999997 2.82255e-20
vn -0.00224544 -0.999997 2.82255e-20
vn 0.812373 -0.583139 0
vn 0.812373 -0.583139 1.00209e-17
vn 0.812373 -0.583139 1.00209e-17
vn 0.812373 -0.583139 -1.00209e-17
vn 0.812373 -0.583139 -1.00209e-17
vn 0 -1 0
vn 0 -1 0
vn 0 -1 0
vn 0 -1 0
vn 0 -1 0
vn -0.76873 -0.639573 0
vn -0.76873 -0.639573 -4.21352e-18
vn -0.76873 -0.639573 -4.21352e-18
vn -0.76873 -0.639573 4.21352e-18
vn -0.76873 -0.639573 4.21352e-18
vn 0 -1 0
vn 0 -1 0
vn 0 -1 0
vn 0 -1 0
vn 0 -1 0
vn 0.855307 -0.518122 0
vn 0.855307 -0.518122 2.53787e-18
vn 0.855307 -0.518122 2.53787e-18
vn 0.855307 -0.518122 -2.53787e-18
vn 0.855307 -0.518122 -2.53787e-18
vn 0 -1 0
vn 0 -1 0
vn 0 -1 0
vn 0 -1 0
vn 0 -1 0
vn -0.770392 -0.637571 0
vn -0.770392 -0.637571 -4.45522e-18
vn -0.770392 -0.637571 -4.45522e-18
vn -0.770392 -0.637571 4.45522e-18
vn -0.770392 -0.637571 4.45522e-18
vn 0 -1 0
vn 0 -1 0
vn 0 -1 0
vn 0 -1 0
vn 0 -1 0
vn 0.754586 -0.656201 0
vn 0.754586 -0.656201 -7.86889e-18
vn 0.754586 -0.656201 -7.86889e-18
vn 0.754586 -0.656201 7.86889e-18
vn 0.754586 -0.656201 7.86889e-18
vn 0 -1 0
vn 0 -1 0
vn 0 -1 0
vn 0 -1 0
vn 0 -1 0
vn -0.759429 -0.65059 0
vn -0.759429 -0.65059 0
vn -0.759429 -0.65059 0
vn -0.759429 -0.65059 0
vn -0.759429 -0.65059 0
vn -0.00220493 -0.999998 0
vn -0.00220493 -0.999998 0
vn -0.00220493 -0.999998 0
vn -0.00220493 -0.999998 0
vn -0.00220493 -0.999998 0
vn 0.807343 -0.590082 0
vn 0.807343 -0.590082 3.76586e-17
vn 0.807343 -0.590082 3.76586e-17
vn 0.807343 -0.590082 -3.76586e-17
vn 0.807343 -0.590082 -3.76586e-17
vn 0 -1 0
vn 0 -1 0
vn 0 -1 0
vn 0 -1 0
vn 0 -1 0
vn -0.788782 -0.614673 0
vn -0.788782 -0.614673 3.58832e-17
vn -0.788782 -0.614673 3.58832e-17
vn -0.788782 -0.614673 -3.58832e-17
vn -0.788782 -0.614673 -3.58832e-17
vn 0 -1 0
vn 0 -1 0
vn 0 -1 0
vn 0 -1 0
vn 0 -1 0
vn 0.82931 -0.558788 0
vn 0.82931 -0.558788 0
vn 0.82931 -0.558788 0
vn 0.82931 -0.558788 0
vn 0.82931 -0.558788 0
vn 0 -1 0
vn 0 -1 0
vn 0 -1 0
vn 0 -1 0
vn 0 -1 0
vn -0.758824 -0.651295 0
vn -0.758824 -0.651295 -6.91959e-17
vn -0.758824 -0.651295 -6.91959e-17
vn -0.758824 -0.651295 6.91959e-17
vn -0.758824 -0.651295 6.91959e-17
vn 0 -1 0
vn 0 -1 0
vn 0 -1 0
vn 0 -1 0
vn 0 -1 0
vn 0.756934 -0.653491 0
vn 0.756934 -0.653491 3.38267e-17
vn 0.756934 -0.653491 3.38267e-17
vn 0.756934 -0.653491 -3.38267e-17
vn 0.756934 -0.653491 -3.38267e-17
vn 0 -1 0
vn 0 -1 0
vn 0 -1 0
vn 0 -1 0
vn 0 -1 0
vn -0.771383 -0.636371 0
vn -0.771383 -0.636371 -3.25263e-17
vn -0.771383 -0.636371 -3.25263e-17
vn -0.771383 -0.636371 3.25263e-17
vn -0.771383 -0.636371 3.25263e-17
vn -0.0130059 -0.999915 0
vn -0.0130059 -0.999915 0
vn -0.0130059 -0.999915 0
vn -0.0130059 -0.999915 0
vn -0.0130059 -0.999915 0


# Faces: 
usemtl material0
f 121/39/1 128/46/1 129/47/1
f 117/35/1 132/50/1 133/51/1
f 116/34/1 133/51/1 134/52/1
f 121/39/1 129/47/1 120/38/1
f 117/35/1 131/49/1 132/50/1
f 130/48/1 120/38/1 129/47/1
f 116/34/1 117/35/1 133/51/1
f 119/37/1 120/38/1 130/48/1
f 128/46/1 121/39/1 127/45/1
f 113/31/1 136/54/1 112/30/1
f 112/30/1 136/54/1 137/55/1
f 109/27/1 140/58/1 141/59/1
f 138/56/1 112/30/1 137/55/1
f 109/27/1 141/59/1 108/26/1
f 142/60/1 108/26/1 141/59/1
f 144/62/1 105/23/1 143/61/1
f 144/62/1 104/22/1 105/23/1
f 109/27/1 139/57/1 140/58/1
f 144/62/1 145/63/1 104/22/1
f 113/31/1 135/53/1 136/54/1
f 118/36/1 131/49/1 117/35/1
f 131/49/1 118/36/1 119/37/1
f 119/37/1 130/48/1 131/49/1
f 123/41/1 124/42/1 126/44/1
f 127/45/1 122/40/1 123/41/1
f 126/44/1 124/42/1 125/43/1
f 127/45/1 121/39/1 122/40/1
f 127/45/1 123/41/1 126/44/1
f 114/32/1 134/52/1 135/53/1
f 134/52/1 115/33/1 116/34/1
f 106/24/1 107/25/1 142/60/1
f 111/29/1 112/30/1 138/56/1
f 107/25/1 108/26/1 142/60/1
f 106/24/1 142/60/1 143/61/1
f 135/53/1 113/31/1 114/32/1
f 111/29/1 138/56/1 139/57/1
f 110/28/1 139/57/1 109/27/1
f 139/57/1 110/28/1 111/29/1
f 143/61/1 105/23/1 106/24/1
f 114/32/1 115/33/1 134/52/1
f 154/72/1 96/14/1 153/71/1
f 101/19/1 148/66/1 149/67/1
f 101/19/1 149/67/1 100/18/1
f 153/71/1 97/15/1 152/70/1
f 97/15/1 153/71/1 96/14/1
f 100/18/1 149/67/1 150/68/1
f 152/70/1 97/15/1 151/69/1
f 147/65/1 148/66/1 101/19/1
f 89/7/1 161/79/1 88/6/1
f 161/79/1 89/7/1 160/78/1
f 162/80/1 88/6/1 161/79/1
f 92/10/1 157/75/1 158/76/1
f 93/11/1 156/74/1 92/10/1
f 164/82/1 83/1/1 85/3/1
f 85/3/1 83/1/1 84/2/1
f 159/77/1 160/78/1 89/7/1
f 93/11/1 155/73/1 156/74/1
f 92/10/1 156/74/1 157/75/1
f 163/81/1 164/82/1 85/3/1
f 102/20/1 103/21/1 146/64/1
f 103/21/1 104/22/1 146/64/1
f 96/14/1 154/72/1 95/13/1
f 95/13/1 154/72/1 94/12/1
f 102/20/1 146/64/1 147/65/1
f 151/69/1 98/16/1 99/17/1
f 102/20/1 147/65/1 101/19/1
f 151/69/1 97/15/1 98/16/1
f 151/69/1 99/17/1 150/68/1
f 99/17/1 100/18/1 150/68/1
f 155/73/1 94/12/1 154/72/1
f 94/12/1 155/73/1 93/11/1
f 91/9/1 92/10/1 158/76/1
f 87/5/1 88/6/1 162/80/1
f 90/8/1 158/76/1 159/77/1
f 90/8/1 91/9/1 158/76/1
f 163/81/1 86/4/1 87/5/1
f 90/8/1 159/77/1 89/7/1
f 163/81/1 85/3/1 86/4/1
f 163/81/1 87/5/1 162/80/1
f 146/64/1 104/22/1 145/63/1
f 46/128/2 39/121/2 47/129/2
f 50/132/2 35/117/2 51/133/2
f 51/133/2 34/116/2 52/134/2
f 47/129/2 39/121/2 38/120/2
f 49/131/2 35/117/2 50/132/2
f 38/120/2 48/130/2 47/129/2
f 35/117/2 34/116/2 51/133/2
f 38/120/2 37/119/2 48/130/2
f 39/121/2 46/128/2 45/127/2
f 54/136/2 31/113/2 30/112/2
f 54/136/2 30/112/2 55/137/2
f 58/140/2 27/109/2 59/141/2
f 30/112/2 56/138/2 55/137/2
f 59/141/2 27/109/2 26/108/2
f 26/108/2 60/142/2 59/141/2
f 23/105/2 62/144/2 61/143/2
f 22/104/2 62/144/2 23/105/2
f 57/139/2 27/109/2 58/140/2
f 63/145/2 62/144/2 22/104/2
f 53/135/2 31/113/2 54/136/2
f 49/131/2 36/118/2 35/117/2
f 36/118/2 49/131/2 37/119/2
f 48/130/2 37/119/2 49/131/2
f 42/124/2 41/123/2 44/126/2
f 40/122/2 45/127/2 41/123/2
f 42/124/2 44/126/2 43/125/2
f 39/121/2 45/127/2 40/122/2
f 41/123/2 45/127/2 44/126/2
f 52/134/2 32/114/2 53/135/2
f 33/115/2 52/134/2 34/116/2
f 25/107/2 24/106/2 60/142/2
f 30/112/2 29/111/2 56/138/2
f 26/108/2 25/107/2 60/142/2
f 60/142/2 24/106/2 61/143/2
f 31/113/2 53/135/2 32/114/2
f 56/138/2 29/111/2 57/139/2
f 57/139/2 28/110/2 27/109/2
f 28/110/2 57/139/2 29/111/2
f 23/105/2 61/143/2 24/106/2
f 33/115/2 32/114/2 52/134/2
f 14/96/2 72/154/2 71/153/2
f 66/148/2 19/101/2 67/149/2
f 67/149/2 19/101/2 18/100/2
f 15/97/2 71/153/2 70/152/2
f 71/153/2 15/97/2 14/96/2
f 67/149/2 18/100/2 68/150/2
f 15/97/2 70/152/2 69/151/2
f 66/148/2 65/147/2 19/101/2
f 79/161/2 7/89/2 6/88/2
f 7/89/2 79/161/2 78/160/2
f 6/88/2 80/162/2 79/161/2
f 75/157/2 10/92/2 76/158/2
f 74/156/2 11/93/2 10/92/2
f 1/83/2 82/164/2 3/85/2
f 1/83/2 3/85/2 2/84/2
f 78/160/2 77/159/2 7/89/2
f 73/155/2 11/93/2 74/156/2
f 74/156/2 10/92/2 75/157/2
f 82/164/2 81/163/2 3/85/2
f 21/103/2 20/102/2 64/146/2
f 22/104/2 21/103/2 64/146/2
f 72/154/2 14/96/2 13/95/2
f 72/154/2 13/95/2 12/94/2
f 64/146/2 20/102/2 65/147/2
f 16/98/2 69/151/2 17/99/2
f 65/147/2 20/102/2 19/101/2
f 15/97/2 69/151/2 16/98/2
f 17/99/2 69/151/2 68/150/2
f 18/100/2 17/99/2 68/150/2
f 12/94/2 73/155/2 72/154/2
f 73/155/2 12/94/2 11/93/2
f 10/92/2 9/91/2 76/158/2
f 6/88/2 5/87/2 80/162/2
f 76/158/2 8/90/2 77/159/2
f 9/91/2 8/90/2 76/158/2
f 4/86/2 81/163/2 5/87/2
f 77/159/2 8/90/2 7/89/2
f 3/85/2 81/163/2 4/86/2
f 5/87/2 81/163/2 80/162/2
f 22/104/2 64/146/2 63/145/2
f 165/493/3 1/165/4 2/166/5
f 165/493/3 2/166/5 84/330/6
f 165/493/3 84/330/6 83/329/7
f 165/493/3 83/329/7 1/165/4
f 166/494/8 2/167/9 3/168/10
f 166/494/8 3/168/10 85/332/11
f 166/494/8 85/332/11 84/331/12
f 166/494/8 84/331/12 2/167/9
f 167/495/13 3/169/14 4/170/15
f 167/495/13 4/170/15 86/334/16
f 167/495/13 86/334/16 85/333/17
f 167/495/13 85/333/17 3/169/14
f 168/496/18 4/171/19 5/172/20
f 168/496/18 5/172/20 87/336/21
f 168/496/18 87/336/21 86/335/22
f 168/496/18 86/335/22 4/171/19
f 169/497/23 5/173/24 6/174/25
f 169/497/23 6/174/25 88/338/26
f 169/497/23 88/338/26 87/337/27
f 169/497/23 87/337/27 5/173/24
f 170/498/28 6/175/29 7/176/30
f 170/498/28 7/176/30 89/340/31
f 170/498/28 89/340/31 88/339/32
f 170/498/28 88/339/32 6/175/29
f 171/499/33 7/177/34 8/178/35
f 171/499/33 8/178/35 90/342/36
f 171/499/33 90/342/36 89/341/37
f 171/499/33 89/341/37 7/177/34
f 172/500/38 8/179/39 9/180/40
f 172/500/38 9/180/40 91/344/41
f 172/500/38 91/344/41 90/343/42
f 172/500/38 90/343/42 8/179/39
f 173/501/43 9/181/44 10/182/45
f 173/501/43 10/182/45 92/346/46
f 173/501/43 92/346/46 91/345/47
f 173/501/43 91/345/47 9/181/44
f 174/502/48 10/183/49 11/184/50
f 174/502/48 11/184/50 93/348/51
f 174/502/48 93/348/51 92/347/52
f 174/502/48 92/347/52 10/183/49
f 175/503/53 11/185/54 12/186/55
f 175/503/53 12/186/55 94/350/56
f 175/503/53 94/350/56 93/349/57
f 175/503/53 93/349/57 11/185/54
f 176/504/58 12/187/59 13/188/60
f 176/504/58 13/188/60 95/352/61
f 176/504/58 95/352/61 94/351/62
f 176/504/58 94/351/62 12/187/59
f 177/505/63 13/189/64 14/190/65
f 177/505/63 14/190/65 96/354/66
f 177/505/63 96/354/66 95/353/67
f 177/505/63 95/353/67 13/189/64
f 178/506/68 14/191/69 15/192/70
f 178/506/68 15/192/70 97/356/71
f 178/506/68 97/356/71 96/355/72
f 178/506/68 96/355/72 14/191/69
f 179/507/73 15/193/74 16/194/75
f 179/507/73 16/194/75 98/358/76
f 179/507/73 98/358/76 97/357/77
f 179/507/73 97/357/77 15/193/74
f 180/508/78 16/195/79 17/196/80
f 180/508/78 17/196/80 99/360/81
f 180/508/78 99/360/81 98/359/82
f 180/508/78 98/359/82 16/195/79
f 181/509/83 17/197/84 18/198/85
f 181/509/83 18/198/85 100/362/86
f 181/509/83 100/362/86 99/361/87
f 181/509/83 99/361/87 17/197/84
f 182/510/88 18/199/89 19/200/90
f 182/510/88 19/200/90 101/364/91
f 182/510/88 101/364/91 100/363/92
f 182/510/88 100/363/92 18/199/89
f 183/511/93 19/201/94 20/202/95
f 183/511/93 20/202/95 102/366/96
f 183/511/93 102/366/96 101/365/97
f 183/511/93 101/365/97 19/201/94
f 184/512/98 20/203/99 21/204/100
f 184/512/98 21/204/100 103/368/101
f 184/512/98 103/368/101 102/367/102
f 184/512/98 102/367/102 20/203/99
f 185/513/103 21/205/104 22/206/105
f 185/513/103 22/206/105 104/370/106
f 185/513/103 104/370/106 103/369/107
f 185/513/103 103/369/107 21/205/104
f 186/514/108 22/207/109 23/208/110
f 186/514/108 23/208/110 105/372/111
f 186/514/108 105/372/111 104/371/112
f 186/514/108 104/371/112 22/207/109
f 187/515/113 23/209/114 24/210/115
f 187/515/113 24/210/115 106/374/116
f 187/515/113 106/374/116 105/373/117
f 187/515/113 105/373/117 23/209/114
f 188/516/118 24/211/119 25/212/120
f 188/516/118 25/212/120 107/376/121
f 188/516/118 107/376/121 106/375/122
f 188/516/118 106/375/122 24/211/119
f 189/517/123 25/213/124 26/214/125
f 189/517/123 26/214/125 108/378/126
f 189/517/123 108/378/126 107/377/127
f 189/517/123 107/377/127 25/213/124
f 190/518/128 26/215/129 27/216/130
f 190/518/128 27/216/130 109/380/131
f 190/518/128 109/380/131 108/379/132
f 190/518/128 108/379/132 26/215/129
f 191/519/133 27/217/134 28/218/135
f 191/519/133 28/218/135 110/382/136
f 191/519/133 110/382/136 109/381/137
f 191/519/133 109/381/137 27/217/134
f 192/520/138 28/219/139 29/220/140
f 192/520/138 29/220/140 111/384/141
f 192/520/138 111/384/141 110/383/142
f 192/520/138 110/383/142 28/219/139
f 193/521/143 29/221/144 30/222/145
f 193/521/143 30/222/145 112/386/146
f 193/521/143 112/386/146 111/385/147
f 193/521/143 111/385/147 29/221/144
f 194/522/148 30/223/149 31/224/150
f 194/522/148 31/224/150 113/388/151
f 194/522/148 113/388/151 112/387/152
f 194/522/148 112/387/152 30/223/149
f 195/523/153 31/225/154 32/226/155
f 195/523/153 32/226/155 114/390/156
f 195/523/153 114/390/156 113/389/157
f 195/523/153 113/389/157 31/225/154
f 196/524/158 32/227/159 33/228/160
f 196/524/158 33/228/160 115/392/161
f 196/524/158 115/392/161 114/391/162
f 196/524/158 114/391/162 32/227/159
f 197/525/163 33/229/164 34/230/165
f 197/525/163 34/230/165 116/394/166
f 197/525/163 116/394/166 115/393/167
f 197/525/163 115/393/167 33/229/164
f 198/526/168 34/231/169 35/232/170
f 198/526/168 35/232/170 117/396/171
f 198/526/168 117/396/171 116/395/172
f 198/526/168 116/395/172 34/231/169
f 199/527/173 35/233/174 36/234/175
f 199/527/173 36/234/175 118/398/176
f 199/527/173 118/398/176 117/397/177
f 199/527/173 117/397/177 35/233/174
f 200/528/178 36/235/179 37/236/180
f 200/528/178 37/236/180 119/400/181
f 200/528/178 119/400/181 118/399/182
f 200/528/178 118/399/182 36/235/179
f 201/529/183 37/237/184 38/238/185
f 201/529/183 38/238/185 120/402/186
f 201/529/183 120/402/186 119/401/187
f 201/529/183 119/401/187 37/237/184
f 202/530/188 38/239/189 39/240/190
f 202/530/188 39/240/190 121/404/191
f 202/530/188 121/404/191 120/403/192
f 202/530/188 120/403/192 38/239/189
f 203/531/193 39/241/194 40/242/195
f 203/531/193 40/242/195 122/406/196
f 203/531/193 122/406/196 121/405/197
f 203/531/193 121/405/197 39/241/194
f 204/532/198 40/243/199 41/244/200
f 204/532/198 41/244/200 123/408/201
f 204/532/198 123/408/201 122/407/202
f 204/532/198 122/407/202 40/243/199
f 205/533/203 41/245/204 42/246/205
f 205/533/203 42/246/205 124/410/206
f 205/533/203 124/410/206 123/409/207
f 205/533/203 123/409/207 41/245/204
f 206/534/208 42/247/209 43/248/210
f 206/534/208 43/248/210 125/412/211
f 206/534/208 125/412/211 124/411/212
f 206/534/208 124/411/212 42/247/209
f 207/535/213 43/249/214 44/250/215
f 207/535/213 44/250/215 126/414/216
f 207/535/213 126/414/216 125/413/217
f 207/535/213 125/413/217 43/249/214
f 208/536/218 44/251/219 45/252/220
f 208/536/218 45/252/220 127/416/221
f 208/536/218 127/416/221 126/415/222
f 208/536/218 126/415/222 44/251/219
f 209/537/223 45/253/224 46/254/225
f 209/537/223 46/254/225 128/418/226
f 209/537/223 128/418/226 127/417/227
f 209/537/223 127/417/227 45/253/224
f 210/538/228 46/255/229 47/256/230
f 210/538/228 47/256/230 129/420/231
f 210/538/228 129/420/231 128/419/232
f 210/538/228 128/419/232 46/255/229
f 211/539/233 47/257/234 48/258/235
f 211/539/233 48/258/235 130/422/236
f 211/539/233 130/422/236 129/421/237
f 211/539/233 129/421/237 47/257/234
f 212/540/238 48/259/239 49/260/240
f 212/540/238 49/260/240 131/424/241
f 212/540/238 131/424/241 130/423/242
f 212/540/238 130/423/242 48/259/239
f 213/541/243 49/261/244 50/262/245
f 213/541/243 50/262/245 132/426/246
f 213/541/243 132/426/246 131/425/247
f 213/541/243 131/425/247 49/261/244
f 214/542/248 50/263/249 51/264/250
f 214/542/248 51/264/250 133/428/251
f 214/542/248 133/428/251 132/427/252
f 214/542/248 132/427/252 50/263/249
f 215/543/253 51/265/254 52/266/255
f 215/543/253 52/266/255 134/430/256
f 215/543/253 134/430/256 133/429/257
f 215/543/253 133/429/257 51/265/254
f 216/544/258 52/267/259 53/268/260
f 216/544/258 53/268/260 135/432/261
f 216/544/258 135/432/261 134/431/262
f 216/544/258 134/431/262 52/267/259
f 217/545/263 53/269/264 54/270/265
f 217/545/263 54/270/265 136/434/266
f 217/545/263 136/434/266 135/433/267
f 217/545/263 135/433/267 53/269/264
f 218/546/268 54/271/269 55/272/270
f 218/546/268 55/272/270 137/436/271
f 218/546/268 137/436/271 136/435/272
f 218/546/268 136/435/272 54/271/269
f 219/547/273 55/273/274 56/274/275
f 219/547/273 56/274/275 138/438/276
f 219/547/273 138/438/276 137/437/277
f 219/547/273 137/437/277 55/273/274
f 220/548/278 56/275/279 57/276/280
f 220/548/278 57/276/280 139/440/281
f 220/548/278 139/440/281 138/439/282
f 220/548/278 138/439/282 56/275/279
f 221/549/283 57/277/284 58/278/285
f 221/549/283 58/278/285 140/442/286
f 221/549/283 140/442/286 139/441/287
f 221/549/283 139/441/287 57/277/284
f 222/550/288 58/279/289 59/280/290
f 222/550/288 59/280/290 141/444/291
f 222/550/288 141/444/291 140/443/292
f 222/550/288 140/443/292 58/279/289
f 223/551/293 59/281/294 60/282/295
f 223/551/293 60/282/295 142/446/296
f 223/551/293 142/446/296 141/445/297
f 223/551/293 141/445/297 59/281/294
f 224/552/298 60/283/299 61/284/300
f 224/552/298 61/284/300 143/448/301
f 224/552/298 143/448/301 142/447/302
f 224/552/298 142/447/302 60/283/299
f 225/553/303 61/285/304 62/286/305
f 225/553/303 62/286/305 144/450/306
f 225/553/303 144/450/306 143/449/307
f 225/553/303 143/449/307 61/285/304
f 226/554/308 62/287/309 63/288/310
f 226/554/308 63/288/310 145/452/311
f 226/554/308 145/452/311 144/451/312
f 226/554/308 144/451/312 62/287/309
f 227/555/313 63/289/314 64/290/315
f 227/555/313 64/290/315 146/454/316
f 227/555/313 146/454/316 145/453/317
f 227/555/313 145/453/317 63/289/314
f 228/556/318 64/291/319 65/292/320
f 228/556/318 65/292/320 147/456/321
f 228/556/318 147/456/321 146/455/322
f 228/556/318 146/455/322 64/291/319
f 229/557/323 65/293/324 66/294/325
f 229/557/323 66/294/325 148/458/326
f 229/557/323 148/458/326 147/457/327
f 229/557/323 147/457/327 65/293/324
f 230/558/328 66/295/329 67/296/330
f 230/558/328 67/296/330 149/460/331
f 230/558/328 149/460/331 148/459/332
f 230/558/328 148/459/332 66/295/329
f 231/559/333 67/297/334 68/298/335
f 231/559/333 68/298/335 150/462/336
f 231/559/333 150/462/336 149/461/337
f 231/559/333 149/461/337 67/297/334
f 232/560/338 68/299/339 69/300/340
f 232/560/338 69/300/340 151/464/341
f 232/560/338 151/464/341 150/463/342
f 232/560/338 150/463/342 68/299/339
f 233/561/343 69/301/344 70/302/345
f 233/561/343 70/302/345 152/466/346
f 233/561/343 152/466/346 151/465/347
f 233/561/343 151/465/347 69/301/344
f 234/562/348 70/303/349 71/304/350
f 234/562/348 71/304/350 153/468/351
f 234/562/348 153/468/351 152/467/352
f 234/562/348 152/467/352 70/303/349
f 235/563/353 71/305/354 72/306/355
f 235/563/353 72/306/355 154/470/356
f 235/563/353 154/470/356 153/469/357
f 235/563/353 153/469/357 71/305/354
f 236/564/358 72/307/359 73/308/360
f 236/564/358 73/308/360 155/472/361
f 236/564/358 155/472/361 154/471/362
f 236/564/358 154/471/362 72/307/359
f 237/565/363 73/309/364 74/310/365
f 237/565/363 74/310/365 156/474/366
f 237/565/363 156/474/366 155/473/367
f 237/565/363 155/473/367 73/309/364
f 238/566/368 74/311/369 75/312/370
f 238/566/368 75/312/370 157/476/371
f 238/566/368 157/476/371 156/475/372
f 238/566/368 156/475/372 74/311/369
f 239/567/373 75/313/374 76/314/375
f 239/567/373 76/314/375 158/478/376
f 239/567/373 158/478/376 157/477/377
f 239/567/373 157/477/377 75/313/374
f 240/568/378 76/315/379 77/316/380
f 240/568/378 77/316/380 159/480/381
f 240/568/378 159/480/381 158/479/382
f 240/568/378 158/479/382 76/315/379
f 241/569/383 77/317/384 78/318/385
f 241/569/383 78/318/385 160/482/386
f 241/569/383 160/482/386 159/481/387
f 241/569/383 159/481/387 77/317/384
f 242/570/388 78/319/389 79/320/390
f 242/570/388 79/320/390 161/484/391
f 242/570/388 161/484/391 160/483/392
f 242/570/388 160/483/392 78/319/389
f 243/571/393 79/321/394 80/322/395
f 243/571/393 80/322/395 162/486/396
f 243/571/393 162/486/396 161/485/397
f 243/571/393 161/485/397 79/321/394
f 244/572/398 80/323/399 81/324/400
f 244/572/398 81/324/400 163/488/401
f 244/572/398 163/488/401 162/487/402
f 244/572/398 162/487/402 80/323/399
f 245/573/403 81/325/404 82/326/405
f 245/573/403 82/326/405 164/490/406
f 245/573/403 164/490/406 163/489/407
f 245/573/403 163/489/407 81/325/404
f 246/574/408 82/327/409 1/328/410
f 246/574/408 1/328/410 83/492/411
f 246/574/408 83/492/411 164/491/412
f 246/574/408 164/491/412 82/327/409
