mtllib Deck Mate.mtl
# Vertex Positions: 
g groupNumber_0
v 13.9826 0.00235276 -16.9263
v 13.6624 0.568721 -16.9263
v 12.7922 0.570962 -16.9263
v 12.1723 -0.561965 -16.9263
v 11.5102 -0.561965 -16.9263
v 11.4222 -0.427039 -16.9263
v 10.7163 -0.427211 -16.9263
v 10.6306 -0.562137 -16.9263
v 9.96573 -0.562137 -16.9263
v 9.29261 0.568807 -16.9263
v 8.36561 0.570962 -16.9263
v 7.74889 -0.562137 -16.9263
v 7.07637 -0.562137 -16.9263
v 6.99884 -0.427211 -16.9263
v 6.2927 -0.427211 -16.9263
v 6.20576 -0.561965 -16.9263
v 5.52668 -0.561965 -16.9263
v 4.86967 0.568773 -16.9263
v 3.97314 0.570962 -16.9263
v 3.32602 -0.562137 -16.9263
v 2.64687 -0.562137 -16.9263
v 2.56327 -0.429107 -16.9263
v 1.87017 -0.427039 -16.9263
v 1.76744 -0.561965 -16.9263
v 1.11953 -0.561965 -16.9263
v 0.446412 0.568807 -16.9263
v -0.450118 0.570962 -16.9263
v -1.09724 -0.561965 -16.9263
v -1.75954 -0.561965 -16.9263
v -1.84574 -0.42921 -16.9263
v -2.55281 -0.427211 -16.9263
v -2.64825 -0.561965 -16.9263
v -3.30325 -0.561965 -16.9263
v -3.97612 0.568807 -16.9263
v -4.88546 0.570962 -16.9263
v -5.51979 -0.562137 -16.9263
v -6.20242 -0.562137 -16.9263
v -6.26971 -0.427211 -16.9263
v -6.97621 -0.427211 -16.9263
v -7.04582 -0.561965 -16.9263
v -7.75884 -0.561965 -16.9263
v -8.39956 0.568721 -16.9263
v -9.29615 0.570962 -16.9263
v -9.88668 -0.562137 -16.9263
v -10.6137 -0.562137 -16.9263
v -10.7 -0.429038 -16.9263
v -11.3993 -0.427039 -16.9263
v -11.4932 -0.561965 -16.9263
v -12.2432 -0.561965 -16.9263
v -12.7416 0.568325 -16.9263
v -13.6384 0.570962 -16.9263
v -13.9826 -0.0211921 -16.9263
v -13.6333 0.562137 -16.9263
v -12.7485 0.562137 -16.9263
v -12.2489 -0.57079 -16.9263
v -11.4886 -0.57079 -16.9263
v -11.3947 -0.435864 -16.9263
v -10.7061 -0.435864 -16.9263
v -10.6198 -0.568963 -16.9263
v -9.88134 -0.570962 -16.9263
v -9.2908 0.562137 -16.9263
v -8.40598 0.562137 -16.9263
v -7.76525 -0.568549 -16.9263
v -7.04045 -0.57079 -16.9263
v -6.97083 -0.436036 -16.9263
v -6.27515 -0.436036 -16.9263
v -6.20786 -0.570962 -16.9263
v -5.51462 -0.570962 -16.9263
v -4.88029 0.562137 -16.9263
v -3.98241 0.562137 -16.9263
v -3.30826 -0.57079 -16.9263
v -2.6437 -0.57079 -16.9263
v -2.54824 -0.436036 -16.9263
v -1.85185 -0.436036 -16.9263
v -1.76565 -0.56879 -16.9263
v -1.0921 -0.57079 -16.9263
v -0.444982 0.562137 -16.9263
v 0.440104 0.562137 -16.9263
v 1.11322 -0.568652 -16.9263
v 1.77178 -0.57079 -16.9263
v 1.87451 -0.435864 -16.9263
v 2.5571 -0.435864 -16.9263
v 2.6407 -0.568894 -16.9263
v 3.33112 -0.570962 -16.9263
v 3.97824 0.562137 -16.9263
v 4.86329 0.562137 -16.9263
v 5.5203 -0.568583 -16.9263
v 6.21059 -0.57079 -16.9263
v 6.29753 -0.436036 -16.9263
v 6.99374 -0.436036 -16.9263
v 7.07126 -0.570962 -16.9263
v 7.75413 -0.570962 -16.9263
v 8.37085 0.562137 -16.9263
v 9.2863 0.562137 -16.9263
v 9.95942 -0.56879 -16.9263
v 10.6354 -0.570962 -16.9263
v 10.7211 -0.436036 -16.9263
v 11.4174 -0.435864 -16.9263
v 11.5054 -0.57079 -16.9263
v 12.1776 -0.57079 -16.9263
v 12.7975 0.562137 -16.9263
v 13.656 0.562137 -16.9263
v 13.975 -0.0019908 -16.9263
v 13.9826 0.00235276 16.9263
v 13.6624 0.568721 16.9263
v 12.7922 0.570962 16.9263
v 12.1723 -0.561965 16.9263
v 11.5102 -0.561965 16.9263
v 11.4222 -0.427039 16.9263
v 10.7163 -0.427211 16.9263
v 10.6306 -0.562137 16.9263
v 9.96573 -0.562137 16.9263
v 9.29261 0.568807 16.9263
v 8.36561 0.570962 16.9263
v 7.74889 -0.562137 16.9263
v 7.07637 -0.562137 16.9263
v 6.99884 -0.427211 16.9263
v 6.2927 -0.427211 16.9263
v 6.20576 -0.561965 16.9263
v 5.52668 -0.561965 16.9263
v 4.86967 0.568773 16.9263
v 3.97314 0.570962 16.9263
v 3.32602 -0.562137 16.9263
v 2.64687 -0.562137 16.9263
v 2.56327 -0.429107 16.9263
v 1.87017 -0.427039 16.9263
v 1.76744 -0.561965 16.9263
v 1.11953 -0.561965 16.9263
v 0.446412 0.568807 16.9263
v -0.450118 0.570962 16.9263
v -1.09724 -0.561965 16.9263
v -1.75954 -0.561965 16.9263
v -1.84574 -0.42921 16.9263
v -2.55281 -0.427211 16.9263
v -2.64825 -0.561965 16.9263
v -3.30325 -0.561965 16.9263
v -3.97612 0.568807 16.9263
v -4.88546 0.570962 16.9263
v -5.51979 -0.562137 16.9263
v -6.20242 -0.562137 16.9263
v -6.26971 -0.427211 16.9263
v -6.97621 -0.427211 16.9263
v -7.04582 -0.561965 16.9263
v -7.75884 -0.561965 16.9263
v -8.39956 0.568721 16.9263
v -9.29615 0.570962 16.9263
v -9.88668 -0.562137 16.9263
v -10.6137 -0.562137 16.9263
v -10.7 -0.429038 16.9263
v -11.3993 -0.427039 16.9263
v -11.4932 -0.561965 16.9263
v -12.2432 -0.561965 16.9263
v -12.7416 0.568325 16.9263
v -13.6384 0.570962 16.9263
v -13.9826 -0.0211921 16.9263
v -13.6333 0.562137 16.9263
v -12.7485 0.562137 16.9263
v -12.2489 -0.57079 16.9263
v -11.4886 -0.57079 16.9263
v -11.3947 -0.435864 16.9263
v -10.7061 -0.435864 16.9263
v -10.6198 -0.568963 16.9263
v -9.88134 -0.570962 16.9263
v -9.2908 0.562137 16.9263
v -8.40598 0.562137 16.9263
v -7.76525 -0.568549 16.9263
v -7.04045 -0.57079 16.9263
v -6.97083 -0.436036 16.9263
v -6.27515 -0.436036 16.9263
v -6.20786 -0.570962 16.9263
v -5.51462 -0.570962 16.9263
v -4.88029 0.562137 16.9263
v -3.98241 0.562137 16.9263
v -3.30826 -0.57079 16.9263
v -2.6437 -0.57079 16.9263
v -2.54824 -0.436036 16.9263
v -1.85185 -0.436036 16.9263
v -1.76565 -0.56879 16.9263
v -1.0921 -0.57079 16.9263
v -0.444982 0.562137 16.9263
v 0.440104 0.562137 16.9263
v 1.11322 -0.568652 16.9263
v 1.77178 -0.57079 16.9263
v 1.87451 -0.435864 16.9263
v 2.5571 -0.435864 16.9263
v 2.6407 -0.568894 16.9263
v 3.33112 -0.570962 16.9263
v 3.97824 0.562137 16.9263
v 4.86329 0.562137 16.9263
v 5.5203 -0.568583 16.9263
v 6.21059 -0.57079 16.9263
v 6.29753 -0.436036 16.9263
v 6.99374 -0.436036 16.9263
v 7.07126 -0.570962 16.9263
v 7.75413 -0.570962 16.9263
v 8.37085 0.562137 16.9263
v 9.2863 0.562137 16.9263
v 9.95942 -0.56879 16.9263
v 10.6354 -0.570962 16.9263
v 10.7211 -0.436036 16.9263
v 11.4174 -0.435864 16.9263
v 11.5054 -0.57079 16.9263
v 12.1776 -0.57079 16.9263
v 12.7975 0.562137 16.9263
v 13.656 0.562137 16.9263
v 13.975 -0.0019908 16.9263
v 13.8225 0.285537 0
v 13.2273 0.569842 0
v 12.4823 0.00449868 0
v 11.8412 -0.561965 0
v 11.4662 -0.494502 0
v 11.0692 -0.427125 0
v 10.6734 -0.494674 0
v 10.2981 -0.562137 0
v 9.62917 0.00333523 0
v 8.82911 0.569885 0
v 8.05725 0.0044125 0
v 7.41263 -0.562137 0
v 7.0376 -0.494674 0
v 6.64577 -0.427211 0
v 6.24923 -0.494588 0
v 5.86622 -0.561965 0
v 5.19818 0.00340417 0
v 4.4214 0.569868 0
v 3.64958 0.0044125 0
v 2.98644 -0.562137 0
v 2.60507 -0.495622 0
v 2.21672 -0.428073 0
v 1.8188 -0.494502 0
v 1.44348 -0.561965 0
v 0.782969 0.00342141 0
v -0.00185291 0.569885 0
v -0.773678 0.00449868 0
v -1.42839 -0.561965 0
v -1.80264 -0.495588 0
v -2.19928 -0.428211 0
v -2.60053 -0.494588 0
v -2.97575 -0.561965 0
v -3.63968 0.00342141 0
v -4.43079 0.569885 0
v -5.20262 0.0044125 0
v -5.8611 -0.562137 0
v -6.23606 -0.494674 0
v -6.62296 -0.427211 0
v -7.01101 -0.494588 0
v -7.40233 -0.561965 0
v -8.0792 0.00337832 0
v -8.84786 0.569842 0
v -9.59141 0.0044125 0
v -10.2502 -0.562137 0
v -10.6569 -0.495588 0
v -11.0497 -0.428038 0
v -11.4463 -0.494502 0
v -11.8682 -0.561965 0
v -12.4924 0.0031801 0
v -13.19 0.569643 0
v -13.8105 0.274885 0
v -13.808 0.270472 0
v -13.1909 0.562137 0
v -12.4987 -0.00432632 0
v -11.8688 -0.57079 0
v -11.4417 -0.503327 0
v -11.0504 -0.435864 0
v -10.663 -0.502413 0
v -10.2506 -0.569962 0
v -9.58607 -0.0044125 0
v -8.84839 0.562137 0
v -8.08561 -0.00320595 0
v -7.40285 -0.569669 0
v -7.00564 -0.503413 0
v -6.62299 -0.436036 0
v -6.24151 -0.503499 0
v -5.86124 -0.570962 0
v -5.19745 -0.0044125 0
v -4.43135 0.562137 0
v -3.64534 -0.00432632 0
v -2.97598 -0.57079 0
v -2.59597 -0.503413 0
v -2.20005 -0.436036 0
v -1.80875 -0.502413 0
v -1.42887 -0.56979 0
v -0.768542 -0.00432632 0
v -0.00243894 0.562137 0
v 0.77666 -0.00325767 0
v 1.4425 -0.569721 0
v 1.82315 -0.503327 0
v 2.21581 -0.435864 0
v 2.5989 -0.502379 0
v 2.98591 -0.569928 0
v 3.65468 -0.0044125 0
v 4.42077 0.562137 0
v 5.1918 -0.00322319 0
v 5.86545 -0.569687 0
v 6.25406 -0.503413 0
v 6.64563 -0.436036 0
v 7.0325 -0.503499 0
v 7.4127 -0.570962 0
v 8.06249 -0.0044125 0
v 8.82858 0.562137 0
v 9.62286 -0.00332661 0
v 10.2974 -0.569876 0
v 10.6783 -0.503499 0
v 11.0693 -0.43595 0
v 11.4614 -0.503327 0
v 11.8415 -0.57079 0
v 12.4875 -0.00432632 0
v 13.2268 0.562137 0
v 13.8155 0.280073 0
v 13.9788 0.000180978 0


# Vertex Texture Coordinates :
vt 0.401359 0.00822818
vt 0.396764 0.0163567
vt 0.384275 0.0163888
vt 0.375378 0.00012913
vt 0.365874 0.00012913
vt 0.364611 0.00206558
vt 0.354481 0.0020631
vt 0.35325 0.000126656
vt 0.343709 0.000126656
vt 0.334048 0.0163579
vt 0.320744 0.0163888
vt 0.311893 0.000126656
vt 0.302241 0.000126656
vt 0.301128 0.0020631
vt 0.290994 0.0020631
vt 0.289746 0.00012913
vt 0.28 0.00012913
vt 0.27057 0.0163574
vt 0.257703 0.0163888
vt 0.248416 0.000126656
vt 0.238669 0.000126656
vt 0.237469 0.00203589
vt 0.227522 0.00206558
vt 0.226047 0.00012913
vt 0.216749 0.00012913
vt 0.207088 0.0163579
vt 0.194221 0.0163888
vt 0.184934 0.00012913
vt 0.175428 0.00012913
vt 0.174191 0.00203441
vt 0.164043 0.0020631
vt 0.162674 0.00012913
vt 0.153273 0.00012913
vt 0.143616 0.0163579
vt 0.130566 0.0163888
vt 0.121462 0.000126656
vt 0.111665 0.000126656
vt 0.110699 0.0020631
vt 0.100559 0.0020631
vt 0.0995601 0.00012913
vt 0.0893269 0.00012913
vt 0.0801313 0.0163567
vt 0.0672636 0.0163888
vt 0.0587883 0.000126656
vt 0.048354 0.000126656
vt 0.0471157 0.00203688
vt 0.0370792 0.00206558
vt 0.035731 0.00012913
vt 0.0249682 0.00012913
vt 0.0178144 0.016351
vt 0.00494446 0.0163888
vt 3.64774e-06 0.00789026
vt 0.00501719 0.0162622
vt 0.0177152 0.0162622
vt 0.0248856 2.47375e-06
vt 0.0357973 2.47375e-06
vt 0.0371455 0.00193892
vt 0.0470281 0.00193892
vt 0.0482664 2.86956e-05
vt 0.058865 0
vt 0.0673403 0.0162622
vt 0.0800392 0.0162622
vt 0.0892349 3.46325e-05
vt 0.0996373 2.47375e-06
vt 0.100636 0.00193645
vt 0.110621 0.00193645
vt 0.111586 0
vt 0.121536 0
vt 0.13064 0.0162622
vt 0.143526 0.0162622
vt 0.153201 2.47375e-06
vt 0.162739 2.47375e-06
vt 0.164109 0.00193645
vt 0.174104 0.00193645
vt 0.175341 3.11693e-05
vt 0.185007 2.47375e-06
vt 0.194295 0.0162622
vt 0.206998 0.0162622
vt 0.216658 3.31482e-05
vt 0.22611 2.47375e-06
vt 0.227584 0.00193892
vt 0.237381 0.00193892
vt 0.23858 2.9685e-05
vt 0.248489 0
vt 0.257777 0.0162622
vt 0.270479 0.0162622
vt 0.279908 3.41378e-05
vt 0.289815 2.47375e-06
vt 0.291063 0.00193645
vt 0.301055 0.00193645
vt 0.302168 0
vt 0.311968 0
vt 0.320819 0.0162622
vt 0.333958 0.0162622
vt 0.343618 3.11693e-05
vt 0.35332 0
vt 0.35455 0.00193645
vt 0.364543 0.00193892
vt 0.365806 2.47375e-06
vt 0.375453 2.47375e-06
vt 0.38435 0.0162622
vt 0.396672 0.0162622
vt 0.401249 0.00816584
vt 0.40733 0.00822818
vt 0.411925 0.0163567
vt 0.424414 0.0163888
vt 0.433311 0.00012913
vt 0.442815 0.00012913
vt 0.444078 0.00206558
vt 0.454208 0.0020631
vt 0.455439 0.000126656
vt 0.46498 0.000126656
vt 0.474641 0.0163579
vt 0.487945 0.0163888
vt 0.496796 0.000126656
vt 0.506448 0.000126656
vt 0.507561 0.0020631
vt 0.517695 0.0020631
vt 0.518943 0.00012913
vt 0.528689 0.00012913
vt 0.538119 0.0163574
vt 0.550986 0.0163888
vt 0.560273 0.000126656
vt 0.57002 0.000126656
vt 0.57122 0.00203589
vt 0.581167 0.00206558
vt 0.582642 0.00012913
vt 0.59194 0.00012913
vt 0.601601 0.0163579
vt 0.614468 0.0163888
vt 0.623755 0.00012913
vt 0.633261 0.00012913
vt 0.634498 0.00203441
vt 0.644646 0.0020631
vt 0.646015 0.00012913
vt 0.655416 0.00012913
vt 0.665073 0.0163579
vt 0.678123 0.0163888
vt 0.687227 0.000126656
vt 0.697024 0.000126656
vt 0.69799 0.0020631
vt 0.70813 0.0020631
vt 0.709129 0.00012913
vt 0.719362 0.00012913
vt 0.728558 0.0163567
vt 0.741425 0.0163888
vt 0.749901 0.000126656
vt 0.760335 0.000126656
vt 0.761573 0.00203688
vt 0.77161 0.00206558
vt 0.772958 0.00012913
vt 0.783721 0.00012913
vt 0.790875 0.016351
vt 0.803745 0.0163888
vt 0.808685 0.00789026
vt 0.803672 0.0162622
vt 0.790974 0.0162622
vt 0.783803 2.47375e-06
vt 0.772892 2.47375e-06
vt 0.771544 0.00193892
vt 0.761661 0.00193892
vt 0.760423 2.86956e-05
vt 0.749824 0
vt 0.741349 0.0162622
vt 0.72865 0.0162622
vt 0.719454 3.46325e-05
vt 0.709052 2.47375e-06
vt 0.708053 0.00193645
vt 0.698068 0.00193645
vt 0.697103 0
vt 0.687153 0
vt 0.678049 0.0162622
vt 0.665163 0.0162622
vt 0.655488 2.47375e-06
vt 0.64595 2.47375e-06
vt 0.64458 0.00193645
vt 0.634585 0.00193645
vt 0.633348 3.11693e-05
vt 0.623682 2.47375e-06
vt 0.614394 0.0162622
vt 0.601691 0.0162622
vt 0.592031 3.31482e-05
vt 0.582579 2.47375e-06
vt 0.581105 0.00193892
vt 0.571308 0.00193892
vt 0.570109 2.9685e-05
vt 0.5602 0
vt 0.550912 0.0162622
vt 0.53821 0.0162622
vt 0.528781 3.41378e-05
vt 0.518874 2.47375e-06
vt 0.517626 0.00193645
vt 0.507634 0.00193645
vt 0.506521 0
vt 0.496721 0
vt 0.48787 0.0162622
vt 0.474731 0.0162622
vt 0.465071 3.11693e-05
vt 0.455369 0
vt 0.454139 0.00193645
vt 0.444146 0.00193892
vt 0.442883 2.47375e-06
vt 0.433236 2.47375e-06
vt 0.424339 0.0162622
vt 0.412017 0.0162622
vt 0.40744 0.00816584
vt 0 0.022369
vt 0.00933747 0.022369
vt 0.015327 0.022369
vt 0.027816 0.022369
vt 0.0338329 0.022369
vt 0.0523676 0.022369
vt 0.0153372 0.51415
vt 0.0248404 0.51415
vt 1.35828e-05 0.51415
vt 0.00232556 0.51415
vt 0.0338241 0.51415
vt 0.0439546 0.51415
vt 0.0499597 0.51415
vt 0.052254 0.51415
vt 0.0583754 0.022369
vt 0.0679172 0.022369
vt 0.073926 0.022369
vt 0.0928146 0.022369
vt 0.0739306 0.51415
vt 0.087235 0.51415
vt 0.0988443 0.022369
vt 0.117359 0.022369
vt 0.0988275 0.51415
vt 0.10848 0.51415
vt 0.114458 0.51415
vt 0.116691 0.51415
vt 0.123377 0.022369
vt 0.133511 0.022369
vt 0.0583777 0.51415
vt 0.0606793 0.51415
vt 0.123393 0.51415
vt 0.133139 0.51415
vt 0.139521 0.022369
vt 0.15829 0.022369
vt 0.139507 0.51415
vt 0.152374 0.51415
vt 0.164273 0.022369
vt 0.183001 0.022369
vt 0.164315 0.51415
vt 0.174062 0.51415
vt 0.180101 0.51415
vt 0.182356 0.51415
vt 0.188946 0.022369
vt 0.198894 0.022369
vt 0.188967 0.51415
vt 0.191401 0.51415
vt 0.204869 0.022369
vt 0.214168 0.022369
vt 0.22018 0.022369
vt 0.239067 0.022369
vt 0.220165 0.51415
vt 0.233032 0.51415
vt 0.245052 0.022369
vt 0.263777 0.022369
vt 0.245095 0.51415
vt 0.2546 0.51415
vt 0.260633 0.51415
vt 0.262904 0.51415
vt 0.269742 0.022369
vt 0.27989 0.022369
vt 0.204834 0.51415
vt 0.207204 0.51415
vt 0.26976 0.51415
vt 0.279161 0.51415
vt 0.285894 0.022369
vt 0.304779 0.022369
vt 0.285905 0.51415
vt 0.298956 0.51415
vt 0.310809 0.022369
vt 0.329446 0.022369
vt 0.310781 0.51415
vt 0.320578 0.51415
vt 0.326577 0.51415
vt 0.328741 0.51415
vt 0.335459 0.022369
vt 0.345599 0.022369
vt 0.335467 0.51415
vt 0.337644 0.51415
vt 0.351604 0.022369
vt 0.361837 0.022369
vt 0.367856 0.022369
vt 0.386507 0.022369
vt 0.367842 0.51415
vt 0.380709 0.51415
vt 0.392507 0.022369
vt 0.410845 0.022369
vt 0.392485 0.51415
vt 0.402919 0.51415
vt 0.351608 0.51415
vt 0.353885 0.51415
vt 0.416822 0.022369
vt 0.426859 0.022369
vt 0.416806 0.51415
vt 0.419165 0.51415
vt 0.432828 0.022369
vt 0.443591 0.022369
vt 0.449569 0.022369
vt 0.467298 0.022369
vt 0.449567 0.51415
vt 0.462437 0.51415
vt 0.43282 0.51415
vt 0.44265 0.51415
vt 0.473304 0.022369
vt 0.483062 0.022369
vt 0.489092 0.022369
vt 0.50179 0.022369
vt 0.507788 0.022369
vt 0.525559 0.022369
vt 0.489037 0.51415
vt 0.499948 0.51415
vt 0.473267 0.51415
vt 0.475626 0.51415
vt 0.507818 0.51415
vt 0.517701 0.51415
vt 0.531548 0.022369
vt 0.533825 0.022369
vt 0.539842 0.022369
vt 0.550441 0.022369
vt 0.556434 0.022369
vt 0.574772 0.022369
vt 0.556466 0.51415
vt 0.569165 0.51415
vt 0.580771 0.022369
vt 0.599423 0.022369
vt 0.539822 0.51415
vt 0.550224 0.51415
vt 0.531539 0.51415
vt 0.533716 0.51415
vt 0.580775 0.51415
vt 0.590759 0.51415
vt 0.596784 0.51415
vt 0.598948 0.51415
vt 0.605405 0.022369
vt 0.615355 0.022369
vt 0.621345 0.022369
vt 0.639982 0.022369
vt 0.621314 0.51415
vt 0.6342 0.51415
vt 0.645994 0.022369
vt 0.664914 0.022369
vt 0.605433 0.51415
vt 0.614971 0.51415
vt 0.645966 0.51415
vt 0.648336 0.51415
vt 0.654312 0.51415
vt 0.664306 0.51415
vt 0.670924 0.022369
vt 0.673196 0.022369
vt 0.679207 0.022369
vt 0.688874 0.022369
vt 0.694843 0.022369
vt 0.713568 0.022369
vt 0.694888 0.51415
vt 0.707591 0.51415
vt 0.719552 0.022369
vt 0.738439 0.022369
vt 0.679196 0.51415
vt 0.688648 0.51415
vt 0.719535 0.51415
vt 0.721969 0.51415
vt 0.727953 0.51415
vt 0.737749 0.51415
vt 0.670933 0.51415
vt 0.673188 0.51415
vt 0.744443 0.022369
vt 0.754352 0.022369
vt 0.760317 0.022369
vt 0.779045 0.022369
vt 0.760365 0.51415
vt 0.773067 0.51415
vt 0.785028 0.022369
vt 0.803797 0.022369
vt 0.744444 0.51415
vt 0.754351 0.51415
vt 0.785018 0.51415
vt 0.787319 0.51415
vt 0.793331 0.51415
vt 0.803323 0.51415
vt 0.809783 0.022369
vt 0.812017 0.022369
vt 0.81798 0.022369
vt 0.82778 0.022369
vt 0.833787 0.022369
vt 0.852302 0.022369
vt 0.833747 0.51415
vt 0.846886 0.51415
vt 0.858332 0.022369
vt 0.87722 0.022369
vt 0.81797 0.51415
vt 0.827672 0.51415
vt 0.858326 0.51415
vt 0.86062 0.51415
vt 0.866635 0.51415
vt 0.876628 0.51415
vt 0.883226 0.022369
vt 0.885538 0.022369
vt 0.891539 0.022369
vt 0.901186 0.022369
vt 0.907201 0.022369
vt 0.925735 0.022369
vt 0.907164 0.51415
vt 0.919486 0.51415
vt 0.891534 0.51415
vt 0.900835 0.51415
vt 0.925479 0.51415
vt 0.925605 0.51415
vt 0 0.508219
vt 0.00933747 0.508219
vt 0.015327 0.508219
vt 0.027816 0.508219
vt 0.0338329 0.508219
vt 0.0523676 0.508219
vt 0.0153372 1
vt 0.0248404 1
vt 1.35828e-05 1
vt 0.00232556 1
vt 0.0338241 1
vt 0.0439546 1
vt 0.0499597 1
vt 0.052254 1
vt 0.0583754 0.508219
vt 0.0679172 0.508219
vt 0.073926 0.508219
vt 0.0928146 0.508219
vt 0.0739306 1
vt 0.087235 1
vt 0.0988443 0.508219
vt 0.117359 0.508219
vt 0.0988275 1
vt 0.10848 1
vt 0.114458 1
vt 0.116691 1
vt 0.123377 0.508219
vt 0.133511 0.508219
vt 0.0583777 1
vt 0.0606793 1
vt 0.123393 1
vt 0.133139 1
vt 0.139521 0.508219
vt 0.15829 0.508219
vt 0.139507 1
vt 0.152374 1
vt 0.164273 0.508219
vt 0.183001 0.508219
vt 0.164315 1
vt 0.174062 1
vt 0.180101 1
vt 0.182356 1
vt 0.188946 0.508219
vt 0.198894 0.508219
vt 0.188967 1
vt 0.191401 1
vt 0.204869 0.508219
vt 0.214168 0.508219
vt 0.22018 0.508219
vt 0.239067 0.508219
vt 0.220165 1
vt 0.233032 1
vt 0.245052 0.508219
vt 0.263777 0.508219
vt 0.245095 1
vt 0.2546 1
vt 0.260633 1
vt 0.262904 1
vt 0.269742 0.508219
vt 0.27989 0.508219
vt 0.204834 1
vt 0.207204 1
vt 0.26976 1
vt 0.279161 1
vt 0.285894 0.508219
vt 0.304779 0.508219
vt 0.285905 1
vt 0.298956 1
vt 0.310809 0.508219
vt 0.329446 0.508219
vt 0.310781 1
vt 0.320578 1
vt 0.326577 1
vt 0.328741 1
vt 0.335459 0.508219
vt 0.345599 0.508219
vt 0.335467 1
vt 0.337644 1
vt 0.351604 0.508219
vt 0.361837 0.508219
vt 0.367856 0.508219
vt 0.386507 0.508219
vt 0.367842 1
vt 0.380709 1
vt 0.392507 0.508219
vt 0.410845 0.508219
vt 0.392485 1
vt 0.402919 1
vt 0.351608 1
vt 0.353885 1
vt 0.416822 0.508219
vt 0.426859 0.508219
vt 0.416806 1
vt 0.419165 1
vt 0.432828 0.508219
vt 0.443591 0.508219
vt 0.449569 0.508219
vt 0.467298 0.508219
vt 0.449567 1
vt 0.462437 1
vt 0.43282 1
vt 0.44265 1
vt 0.473304 0.508219
vt 0.483062 0.508219
vt 0.489092 0.508219
vt 0.50179 0.508219
vt 0.507788 0.508219
vt 0.525559 0.508219
vt 0.489037 1
vt 0.499948 1
vt 0.473267 1
vt 0.475626 1
vt 0.507818 1
vt 0.517701 1
vt 0.531548 0.508219
vt 0.533825 0.508219
vt 0.539842 0.508219
vt 0.550441 0.508219
vt 0.556434 0.508219
vt 0.574772 0.508219
vt 0.556466 1
vt 0.569165 1
vt 0.580771 0.508219
vt 0.599423 0.508219
vt 0.539822 1
vt 0.550224 1
vt 0.531539 1
vt 0.533716 1
vt 0.580775 1
vt 0.590759 1
vt 0.596784 1
vt 0.598948 1
vt 0.605405 0.508219
vt 0.615355 0.508219
vt 0.621345 0.508219
vt 0.639982 0.508219
vt 0.621314 1
vt 0.6342 1
vt 0.645994 0.508219
vt 0.664914 0.508219
vt 0.605433 1
vt 0.614971 1
vt 0.645966 1
vt 0.648336 1
vt 0.654312 1
vt 0.664306 1
vt 0.670924 0.508219
vt 0.673196 0.508219
vt 0.679207 0.508219
vt 0.688874 0.508219
vt 0.694843 0.508219
vt 0.713568 0.508219
vt 0.694888 1
vt 0.707591 1
vt 0.719552 0.508219
vt 0.738439 0.508219
vt 0.679196 1
vt 0.688648 1
vt 0.719535 1
vt 0.721969 1
vt 0.727953 1
vt 0.737749 1
vt 0.670933 1
vt 0.673188 1
vt 0.744443 0.508219
vt 0.754352 0.508219
vt 0.760317 0.508219
vt 0.779045 0.508219
vt 0.760365 1
vt 0.773067 1
vt 0.785028 0.508219
vt 0.803797 0.508219
vt 0.744444 1
vt 0.754351 1
vt 0.785018 1
vt 0.787319 1
vt 0.793331 1
vt 0.803323 1
vt 0.809783 0.508219
vt 0.812017 0.508219
vt 0.81798 0.508219
vt 0.82778 0.508219
vt 0.833787 0.508219
vt 0.852302 0.508219
vt 0.833747 1
vt 0.846886 1
vt 0.858332 0.508219
vt 0.87722 0.508219
vt 0.81797 1
vt 0.827672 1
vt 0.858326 1
vt 0.86062 1
vt 0.866635 1
vt 0.876628 1
vt 0.883226 0.508219
vt 0.885538 0.508219
vt 0.891539 0.508219
vt 0.901186 0.508219
vt 0.907201 0.508219
vt 0.925735 0.508219
vt 0.907164 1
vt 0.919486 1
vt 0.891534 1
vt 0.900835 1
vt 0.925479 1
vt 0.925605 1
vt 0.00466874 0.265294
vt 0.0215715 0.265294
vt 0.0431002 0.265294
vt 0.0200888 0.757075
vt 0.00116957 0.757075
vt 0.0388894 0.757075
vt 0.0511068 0.757075
vt 0.0631463 0.265294
vt 0.0833703 0.265294
vt 0.0805828 0.757075
vt 0.108102 0.265294
vt 0.103654 0.757075
vt 0.115574 0.757075
vt 0.128444 0.265294
vt 0.0595285 0.757075
vt 0.128266 0.757075
vt 0.148905 0.265294
vt 0.14594 0.757075
vt 0.173637 0.265294
vt 0.169189 0.757075
vt 0.181228 0.757075
vt 0.19392 0.265294
vt 0.190184 0.757075
vt 0.209518 0.265294
vt 0.229624 0.265294
vt 0.226599 0.757075
vt 0.254414 0.265294
vt 0.249847 0.757075
vt 0.261768 0.757075
vt 0.274816 0.265294
vt 0.206019 0.757075
vt 0.27446 0.757075
vt 0.295337 0.265294
vt 0.292431 0.757075
vt 0.320127 0.265294
vt 0.315679 0.757075
vt 0.327659 0.757075
vt 0.340529 0.265294
vt 0.336556 0.757075
vt 0.35672 0.265294
vt 0.377181 0.265294
vt 0.374275 0.757075
vt 0.401676 0.265294
vt 0.397702 0.757075
vt 0.352747 0.757075
vt 0.42184 0.265294
vt 0.417985 0.757075
vt 0.438209 0.265294
vt 0.458433 0.265294
vt 0.456002 0.757075
vt 0.437735 0.757075
vt 0.478183 0.265294
vt 0.495441 0.265294
vt 0.516674 0.265294
vt 0.494492 0.757075
vt 0.474446 0.757075
vt 0.512759 0.757075
vt 0.532687 0.265294
vt 0.545141 0.265294
vt 0.565603 0.265294
vt 0.562815 0.757075
vt 0.590097 0.265294
vt 0.545023 0.757075
vt 0.532627 0.757075
vt 0.585767 0.757075
vt 0.597866 0.757075
vt 0.61038 0.265294
vt 0.630663 0.265294
vt 0.627757 0.757075
vt 0.655454 0.265294
vt 0.610202 0.757075
vt 0.647151 0.757075
vt 0.659309 0.757075
vt 0.67206 0.265294
vt 0.68404 0.265294
vt 0.704205 0.265294
vt 0.70124 0.757075
vt 0.728996 0.265294
vt 0.683922 0.757075
vt 0.720752 0.757075
vt 0.732851 0.757075
vt 0.67206 0.757075
vt 0.749398 0.265294
vt 0.769681 0.265294
vt 0.766716 0.757075
vt 0.794412 0.265294
vt 0.749398 0.757075
vt 0.786169 0.757075
vt 0.798327 0.757075
vt 0.8109 0.265294
vt 0.82288 0.265294
vt 0.843045 0.265294
vt 0.840317 0.757075
vt 0.867776 0.265294
vt 0.822821 0.757075
vt 0.859473 0.757075
vt 0.871631 0.757075
vt 0.884382 0.265294
vt 0.896363 0.265294
vt 0.916468 0.265294
vt 0.913325 0.757075
vt 0.896185 0.757075
vt 0.925542 0.757075


# Vertex Surface Normals: 
vn 0 0 1
vn 0 0 -1
vn 0.870523 0.492128 0
vn 0.870523 0.492128 0
vn 0.870523 0.492128 0
vn 0.870523 0.492128 0
vn 0.870523 0.492128 0
vn 0.00257497 0.999997 0
vn 0.00257497 0.999997 2.33032e-19
vn 0.00257497 0.999997 2.33032e-19
vn 0.00257497 0.999997 -2.33032e-19
vn 0.00257497 0.999997 -2.33032e-19
vn -0.877256 0.480022 0
vn -0.877256 0.480022 0
vn -0.877256 0.480022 0
vn -0.877256 0.480022 0
vn -0.877256 0.480022 0
vn 0 1 0
vn 0 1 0
vn 0 1 0
vn 0 1 0
vn 0 1 0
vn 0.837572 0.546327 0
vn 0.837572 0.546327 0
vn 0.837572 0.546327 0
vn 0.837572 0.546327 0
vn 0.837572 0.546327 0
vn -0.000244189 1 0
vn -0.000244189 1 1.41649e-18
vn -0.000244189 1 1.41649e-18
vn -0.000244189 1 -1.41649e-18
vn -0.000244189 1 -1.41649e-18
vn -0.844025 0.536303 0
vn -0.844025 0.536303 -8.57153e-19
vn -0.844025 0.536303 -8.57153e-19
vn -0.844025 0.536303 8.57153e-19
vn -0.844025 0.536303 8.57153e-19
vn 0 1 0
vn 0 1 0
vn 0 1 0
vn 0 1 0
vn 0 1 0
vn 0.859316 0.511446 0
vn 0.859316 0.511446 0
vn 0.859316 0.511446 0
vn 0.859316 0.511446 0
vn 0.859316 0.511446 0
vn 0.00232419 0.999997 0
vn 0.00232419 0.999997 0
vn 0.00232419 0.999997 0
vn 0.00232419 0.999997 0
vn 0.00232419 0.999997 0
vn -0.878331 0.478052 0
vn -0.878331 0.478052 0
vn -0.878331 0.478052 0
vn -0.878331 0.478052 0
vn -0.878331 0.478052 0
vn 0 1 0
vn 0 1 0
vn 0 1 0
vn 0 1 0
vn 0 1 0
vn 0.867055 0.498213 0
vn 0.867055 0.498213 -3.89985e-17
vn 0.867055 0.498213 -3.89985e-17
vn 0.867055 0.498213 3.89985e-17
vn 0.867055 0.498213 3.89985e-17
vn 0 1 0
vn 0 1 0
vn 0 1 0
vn 0 1 0
vn 0 1 0
vn -0.84029 0.542137 0
vn -0.84029 0.542137 -8.54443e-19
vn -0.84029 0.542137 -8.54443e-19
vn -0.84029 0.542137 8.54443e-19
vn -0.84029 0.542137 8.54443e-19
vn 0 1 0
vn 0 1 0
vn 0 1 0
vn 0 1 0
vn 0 1 0
vn 0.864637 0.502397 0
vn 0.864637 0.502397 -1.9682e-17
vn 0.864637 0.502397 -1.9682e-17
vn 0.864637 0.502397 1.9682e-17
vn 0.864637 0.502397 1.9682e-17
vn 0.00244164 0.999997 0
vn 0.00244164 0.999997 2.82052e-18
vn 0.00244164 0.999997 2.82052e-18
vn 0.00244164 0.999997 -2.82052e-18
vn 0.00244164 0.999997 -2.82052e-18
vn -0.868363 0.495928 0
vn -0.868363 0.495928 -1.97268e-17
vn -0.868363 0.495928 -1.97268e-17
vn -0.868363 0.495928 1.97268e-17
vn -0.868363 0.495928 1.97268e-17
vn 0 1 0
vn 0 1 0
vn 0 1 0
vn 0 1 0
vn 0 1 0
vn 0.846702 0.532068 0
vn 0.846702 0.532068 9.71847e-18
vn 0.846702 0.532068 9.71847e-18
vn 0.846702 0.532068 -9.71847e-18
vn 0.846702 0.532068 -9.71847e-18
vn 0.00298416 0.999996 0
vn 0.00298416 0.999996 0
vn 0.00298416 0.999996 0
vn 0.00298416 0.999996 0
vn 0.00298416 0.999996 0
vn -0.795637 0.605774 0
vn -0.795637 0.605774 9.23273e-18
vn -0.795637 0.605774 9.23273e-18
vn -0.795637 0.605774 -9.23273e-18
vn -0.795637 0.605774 -9.23273e-18
vn 0 1 0
vn 0 1 0
vn 0 1 0
vn 0 1 0
vn 0 1 0
vn 0.859281 0.511503 0
vn 0.859281 0.511503 0
vn 0.859281 0.511503 0
vn 0.859281 0.511503 0
vn 0.859281 0.511503 0
vn 0.0024032 0.999997 0
vn 0.0024032 0.999997 0
vn 0.0024032 0.999997 0
vn 0.0024032 0.999997 0
vn 0.0024032 0.999997 0
vn -0.868331 0.495985 0
vn -0.868331 0.495985 -1.87896e-18
vn -0.868331 0.495985 -1.87896e-18
vn -0.868331 0.495985 1.87896e-18
vn -0.868331 0.495985 1.87896e-18
vn 0 1 0
vn 0 1 0
vn 0 1 0
vn 0 1 0
vn 0 1 0
vn 0.838707 0.544583 0
vn 0.838707 0.544583 1.03885e-17
vn 0.838707 0.544583 1.03885e-17
vn 0.838707 0.544583 -1.03885e-17
vn 0.838707 0.544583 -1.03885e-17
vn 0.00282773 0.999996 0
vn 0.00282773 0.999996 3.42485e-20
vn 0.00282773 0.999996 3.42485e-20
vn 0.00282773 0.999996 -3.42485e-20
vn 0.00282773 0.999996 -3.42485e-20
vn -0.816061 0.577965 0
vn -0.816061 0.577965 -1.01938e-17
vn -0.816061 0.577965 -1.01938e-17
vn -0.816061 0.577965 1.01938e-17
vn -0.816061 0.577965 1.01938e-17
vn 0 1 0
vn 0 1 0
vn 0 1 0
vn 0 1 0
vn 0 1 0
vn 0.859362 0.511368 0
vn 0.859362 0.511368 9.31349e-18
vn 0.859362 0.511368 9.31349e-18
vn 0.859362 0.511368 -9.31349e-18
vn 0.859362 0.511368 -9.31349e-18
vn 0.00236935 0.999997 0
vn 0.00236935 0.999997 -5.30558e-20
vn 0.00236935 0.999997 -5.30558e-20
vn 0.00236935 0.999997 5.30558e-20
vn 0.00236935 0.999997 5.30558e-20
vn -0.872573 0.488484 0
vn -0.872573 0.488484 0
vn -0.872573 0.488484 0
vn -0.872573 0.488484 0
vn -0.872573 0.488484 0
vn 0 1 0
vn 0 1 0
vn 0 1 0
vn 0 1 0
vn 0 1 0
vn 0.894884 0.446299 0
vn 0.894884 0.446299 6.49256e-19
vn 0.894884 0.446299 6.49256e-19
vn 0.894884 0.446299 -6.49256e-19
vn 0.894884 0.446299 -6.49256e-19
vn 0 1 0
vn 0 1 0
vn 0 1 0
vn 0 1 0
vn 0 1 0
vn -0.88844 0.458993 0
vn -0.88844 0.458993 -6.45394e-19
vn -0.88844 0.458993 -6.45394e-19
vn -0.88844 0.458993 6.45394e-19
vn -0.88844 0.458993 6.45394e-19
vn 0 1 0
vn 0 1 0
vn 0 1 0
vn 0 1 0
vn 0 1 0
vn 0.870021 0.493015 0
vn 0.870021 0.493015 0
vn 0.870021 0.493015 0
vn 0.870021 0.493015 0
vn 0.870021 0.493015 0
vn 0.00249918 0.999997 0
vn 0.00249918 0.999997 0
vn 0.00249918 0.999997 0
vn 0.00249918 0.999997 0
vn 0.00249918 0.999997 0
vn -0.886793 0.462167 0
vn -0.886793 0.462167 0
vn -0.886793 0.462167 0
vn -0.886793 0.462167 0
vn -0.886793 0.462167 0
vn 0 1 0
vn 0 1 0
vn 0 1 0
vn 0 1 0
vn 0 1 0
vn 0.839103 0.543972 0
vn 0.839103 0.543972 -7.68846e-17
vn 0.839103 0.543972 -7.68846e-17
vn 0.839103 0.543972 7.68846e-17
vn 0.839103 0.543972 7.68846e-17
vn 0.0028591 0.999996 0
vn 0.0028591 0.999996 0
vn 0.0028591 0.999996 0
vn 0.0028591 0.999996 0
vn 0.0028591 0.999996 0
vn -0.820687 0.571378 0
vn -0.820687 0.571378 0
vn -0.820687 0.571378 0
vn -0.820687 0.571378 0
vn -0.820687 0.571378 0
vn 0 1 0
vn 0 1 0
vn 0 1 0
vn 0 1 0
vn 0 1 0
vn 0.914978 0.403505 0
vn 0.914978 0.403505 0
vn 0.914978 0.403505 0
vn 0.914978 0.403505 0
vn 0.914978 0.403505 0
vn 0.00294083 0.999996 0
vn 0.00294083 0.999996 2.63689e-19
vn 0.00294083 0.999996 2.63689e-19
vn 0.00294083 0.999996 -2.63689e-19
vn 0.00294083 0.999996 -2.63689e-19
vn -0.864516 0.502605 0
vn -0.864516 0.502605 0
vn -0.864516 0.502605 0
vn -0.864516 0.502605 0
vn -0.864516 0.502605 0
vn 0.857927 -0.513772 0
vn 0.857927 -0.513772 7.93643e-17
vn 0.857927 -0.513772 7.93643e-17
vn 0.857927 -0.513772 -7.93643e-17
vn 0.857927 -0.513772 -7.93643e-17
vn 0 -1 0
vn 0 -1 0
vn 0 -1 0
vn 0 -1 0
vn 0 -1 0
vn -0.91498 -0.403499 0
vn -0.91498 -0.403499 9.9122e-19
vn -0.91498 -0.403499 9.9122e-19
vn -0.91498 -0.403499 -9.9122e-19
vn -0.91498 -0.403499 -9.9122e-19
vn 0 -1 0
vn 0 -1 0
vn 0 -1 0
vn 0 -1 0
vn 0 -1 0
vn 0.820687 -0.571378 0
vn 0.820687 -0.571378 0
vn 0.820687 -0.571378 0
vn 0.820687 -0.571378 0
vn 0.820687 -0.571378 0
vn 0 -1 0
vn 0 -1 0
vn 0 -1 0
vn 0 -1 0
vn 0 -1 0
vn -0.839103 -0.543972 0
vn -0.839103 -0.543972 0
vn -0.839103 -0.543972 0
vn -0.839103 -0.543972 0
vn -0.839103 -0.543972 0
vn -0.0027075 -0.999996 0
vn -0.0027075 -0.999996 1.21258e-19
vn -0.0027075 -0.999996 1.21258e-19
vn -0.0027075 -0.999996 -1.21258e-19
vn -0.0027075 -0.999996 -1.21258e-19
vn 0.886793 -0.462167 0
vn 0.886793 -0.462167 0
vn 0.886793 -0.462167 0
vn 0.886793 -0.462167 0
vn 0.886793 -0.462167 0
vn 0 -1 0
vn 0 -1 0
vn 0 -1 0
vn 0 -1 0
vn 0 -1 0
vn -0.870021 -0.493015 0
vn -0.870021 -0.493015 1.88653e-18
vn -0.870021 -0.493015 1.88653e-18
vn -0.870021 -0.493015 -1.88653e-18
vn -0.870021 -0.493015 -1.88653e-18
vn -0.00309147 -0.999995 0
vn -0.00309147 -0.999995 0
vn -0.00309147 -0.999995 0
vn -0.00309147 -0.999995 0
vn -0.00309147 -0.999995 0
vn 0.88844 -0.458993 0
vn 0.88844 -0.458993 -2.03944e-17
vn 0.88844 -0.458993 -2.03944e-17
vn 0.88844 -0.458993 2.03944e-17
vn 0.88844 -0.458993 2.03944e-17
vn 0 -1 0
vn 0 -1 0
vn 0 -1 0
vn 0 -1 0
vn 0 -1 0
vn -0.894884 -0.446299 0
vn -0.894884 -0.446299 -2.05165e-17
vn -0.894884 -0.446299 -2.05165e-17
vn -0.894884 -0.446299 2.05165e-17
vn -0.894884 -0.446299 2.05165e-17
vn 0 -1 0
vn 0 -1 0
vn 0 -1 0
vn 0 -1 0
vn 0 -1 0
vn 0.872573 -0.488484 0
vn 0.872573 -0.488484 -1.98248e-17
vn 0.872573 -0.488484 -1.98248e-17
vn 0.872573 -0.488484 1.98248e-17
vn 0.872573 -0.488484 1.98248e-17
vn 0 -1 0
vn 0 -1 0
vn 0 -1 0
vn 0 -1 0
vn 0 -1 0
vn -0.859364 -0.511364 0
vn -0.859364 -0.511364 -7.43628e-18
vn -0.859364 -0.511364 -7.43628e-18
vn -0.859364 -0.511364 7.43628e-18
vn -0.859364 -0.511364 7.43628e-18
vn 0 -1 0
vn 0 -1 0
vn 0 -1 0
vn 0 -1 0
vn 0 -1 0
vn 0.816012 -0.578035 0
vn 0.816012 -0.578035 -9.48207e-18
vn 0.816012 -0.578035 -9.48207e-18
vn 0.816012 -0.578035 9.48207e-18
vn 0.816012 -0.578035 9.48207e-18
vn 0 -1 0
vn 0 -1 0
vn 0 -1 0
vn 0 -1 0
vn 0 -1 0
vn -0.838707 -0.544583 0
vn -0.838707 -0.544583 0
vn -0.838707 -0.544583 0
vn -0.838707 -0.544583 0
vn -0.838707 -0.544583 0
vn -0.0029685 -0.999996 0
vn -0.0029685 -0.999996 2.81693e-18
vn -0.0029685 -0.999996 2.81693e-18
vn -0.0029685 -0.999996 -2.81693e-18
vn -0.0029685 -0.999996 -2.81693e-18
vn 0.868331 -0.495985 0
vn 0.868331 -0.495985 0
vn 0.868331 -0.495985 0
vn 0.868331 -0.495985 0
vn 0.868331 -0.495985 0
vn 0 -1 0
vn 0 -1 0
vn 0 -1 0
vn 0 -1 0
vn 0 -1 0
vn -0.859285 -0.511497 0
vn -0.859285 -0.511497 0
vn -0.859285 -0.511497 0
vn -0.859285 -0.511497 0
vn -0.859285 -0.511497 0
vn -0.00324537 -0.999995 0
vn -0.00324537 -0.999995 2.85606e-18
vn -0.00324537 -0.999995 2.85606e-18
vn -0.00324537 -0.999995 -2.85606e-18
vn -0.00324537 -0.999995 -2.85606e-18
vn 0.795637 -0.605774 0
vn 0.795637 -0.605774 0
vn 0.795637 -0.605774 0
vn 0.795637 -0.605774 0
vn 0.795637 -0.605774 0
vn 0 -1 0
vn 0 -1 0
vn 0 -1 0
vn 0 -1 0
vn 0 -1 0
vn -0.846702 -0.532068 0
vn -0.846702 -0.532068 -9.59388e-18
vn -0.846702 -0.532068 -9.59388e-18
vn -0.846702 -0.532068 9.59388e-18
vn -0.846702 -0.532068 9.59388e-18
vn -0.0029958 -0.999996 0
vn -0.0029958 -0.999996 0
vn -0.0029958 -0.999996 0
vn -0.0029958 -0.999996 0
vn -0.0029958 -0.999996 0
vn 0.868363 -0.495928 0
vn 0.868363 -0.495928 -9.3937e-18
vn 0.868363 -0.495928 -9.3937e-18
vn 0.868363 -0.495928 9.3937e-18
vn 0.868363 -0.495928 9.3937e-18
vn 0 -1 0
vn 0 -1 0
vn 0 -1 0
vn 0 -1 0
vn 0 -1 0
vn -0.864634 -0.502403 0
vn -0.864634 -0.502403 -1.96823e-17
vn -0.864634 -0.502403 -1.96823e-17
vn -0.864634 -0.502403 1.96823e-17
vn -0.864634 -0.502403 1.96823e-17
vn -0.00319616 -0.999995 0
vn -0.00319616 -0.999995 2.83549e-18
vn -0.00319616 -0.999995 2.83549e-18
vn -0.00319616 -0.999995 -2.83549e-18
vn -0.00319616 -0.999995 -2.83549e-18
vn 0.84029 -0.542137 0
vn 0.84029 -0.542137 0
vn 0.84029 -0.542137 0
vn 0.84029 -0.542137 0
vn 0.84029 -0.542137 0
vn 0 -1 0
vn 0 -1 0
vn 0 -1 0
vn 0 -1 0
vn 0 -1 0
vn -0.867055 -0.498213 0
vn -0.867055 -0.498213 0
vn -0.867055 -0.498213 0
vn -0.867055 -0.498213 0
vn -0.867055 -0.498213 0
vn 0 -1 0
vn 0 -1 0
vn 0 -1 0
vn 0 -1 0
vn 0 -1 0
vn 0.878331 -0.478052 0
vn 0.878331 -0.478052 0
vn 0.878331 -0.478052 0
vn 0.878331 -0.478052 0
vn 0.878331 -0.478052 0
vn 0 -1 0
vn 0 -1 0
vn 0 -1 0
vn 0 -1 0
vn 0 -1 0
vn -0.859312 -0.511451 0
vn -0.859312 -0.511451 0
vn -0.859312 -0.511451 0
vn -0.859312 -0.511451 0
vn -0.859312 -0.511451 0
vn -0.00321281 -0.999995 0
vn -0.00321281 -0.999995 -1.46965e-19
vn -0.00321281 -0.999995 -1.46965e-19
vn -0.00321281 -0.999995 1.46965e-19
vn -0.00321281 -0.999995 1.46965e-19
vn 0.844025 -0.536303 0
vn 0.844025 -0.536303 1.59185e-18
vn 0.844025 -0.536303 1.59185e-18
vn 0.844025 -0.536303 -1.59185e-18
vn 0.844025 -0.536303 -1.59185e-18
vn 0.00024755 -1 0
vn 0.00024755 -1 0
vn 0.00024755 -1 0
vn 0.00024755 -1 0
vn 0.00024755 -1 0
vn -0.837572 -0.546327 0
vn -0.837572 -0.546327 -7.67952e-17
vn -0.837572 -0.546327 -7.67952e-17
vn -0.837572 -0.546327 7.67952e-17
vn -0.837572 -0.546327 7.67952e-17
vn 0 -1 0
vn 0 -1 0
vn 0 -1 0
vn 0 -1 0
vn 0 -1 0
vn 0.877256 -0.480022 0
vn 0.877256 -0.480022 7.87985e-17
vn 0.877256 -0.480022 7.87985e-17
vn 0.877256 -0.480022 -7.87985e-17
vn 0.877256 -0.480022 -7.87985e-17
vn 0 -1 0
vn 0 -1 0
vn 0 -1 0
vn 0 -1 0
vn 0 -1 0
vn -0.870506 -0.492158 0
vn -0.870506 -0.492158 1.43654e-18
vn -0.870506 -0.492158 1.43654e-18
vn -0.870506 -0.492158 -1.43654e-18
vn -0.870506 -0.492158 -1.43654e-18
vn 0.493606 -0.869686 0
vn 0.493606 -0.869686 0
vn 0.493606 -0.869686 0
vn 0.493606 -0.869686 0
vn 0.493606 -0.869686 0


# Faces: 
usemtl material0
f 152/49/1 158/55/1 159/56/1
f 160/57/1 151/48/1 159/56/1
f 166/63/1 167/64/1 144/41/1
f 162/59/1 163/60/1 148/45/1
f 164/61/1 147/44/1 163/60/1
f 159/56/1 151/48/1 152/49/1
f 162/59/1 148/45/1 161/58/1
f 144/41/1 167/64/1 143/40/1
f 148/45/1 163/60/1 147/44/1
f 166/63/1 144/41/1 165/62/1
f 167/64/1 168/65/1 143/40/1
f 158/55/1 152/49/1 157/54/1
f 171/68/1 140/37/1 170/67/1
f 178/75/1 179/76/1 132/29/1
f 174/71/1 175/72/1 136/33/1
f 135/32/1 175/72/1 176/73/1
f 140/37/1 169/66/1 170/67/1
f 139/36/1 140/37/1 171/68/1
f 174/71/1 136/33/1 173/70/1
f 171/68/1 172/69/1 139/36/1
f 132/29/1 177/74/1 178/75/1
f 175/72/1 135/32/1 136/33/1
f 179/76/1 131/28/1 132/29/1
f 179/76/1 180/77/1 131/28/1
f 168/65/1 142/39/1 143/40/1
f 155/52/1 156/53/1 154/51/1
f 161/58/1 149/46/1 150/47/1
f 161/58/1 150/47/1 160/57/1
f 151/48/1 160/57/1 150/47/1
f 154/51/1 157/54/1 153/50/1
f 157/54/1 154/51/1 156/53/1
f 152/49/1 153/50/1 157/54/1
f 164/61/1 165/62/1 146/43/1
f 146/43/1 147/44/1 164/61/1
f 145/42/1 146/43/1 165/62/1
f 144/41/1 145/42/1 165/62/1
f 161/58/1 148/45/1 149/46/1
f 142/39/1 169/66/1 141/38/1
f 141/38/1 169/66/1 140/37/1
f 134/31/1 176/73/1 177/74/1
f 177/74/1 132/29/1 133/30/1
f 176/73/1 134/31/1 135/32/1
f 133/30/1 134/31/1 177/74/1
f 138/35/1 172/69/1 173/70/1
f 139/36/1 172/69/1 138/35/1
f 138/35/1 173/70/1 137/34/1
f 180/77/1 181/78/1 130/27/1
f 137/34/1 173/70/1 136/33/1
f 180/77/1 130/27/1 131/28/1
f 169/66/1 142/39/1 168/65/1
f 128/25/1 182/79/1 183/80/1
f 183/80/1 184/81/1 127/24/1
f 190/87/1 191/88/1 120/17/1
f 186/83/1 187/84/1 124/21/1
f 187/84/1 188/85/1 123/20/1
f 183/80/1 127/24/1 128/25/1
f 124/21/1 185/82/1 186/83/1
f 120/17/1 189/86/1 190/87/1
f 192/89/1 119/16/1 191/88/1
f 191/88/1 119/16/1 120/17/1
f 124/21/1 187/84/1 123/20/1
f 192/89/1 118/15/1 119/16/1
f 182/79/1 128/25/1 181/78/1
f 115/12/1 194/91/1 195/92/1
f 196/93/1 115/12/1 195/92/1
f 198/95/1 199/96/1 112/9/1
f 107/4/1 202/99/1 203/100/1
f 117/14/1 193/90/1 116/13/1
f 116/13/1 193/90/1 194/91/1
f 115/12/1 116/13/1 194/91/1
f 111/8/1 112/9/1 199/96/1
f 202/99/1 108/5/1 201/98/1
f 199/96/1 200/97/1 111/8/1
f 202/99/1 107/4/1 108/5/1
f 197/94/1 198/95/1 112/9/1
f 203/100/1 204/101/1 107/4/1
f 192/89/1 193/90/1 118/15/1
f 126/23/1 184/81/1 185/82/1
f 126/23/1 185/82/1 125/22/1
f 124/21/1 125/22/1 185/82/1
f 118/15/1 193/90/1 117/14/1
f 181/78/1 128/25/1 129/26/1
f 181/78/1 129/26/1 130/27/1
f 189/86/1 121/18/1 122/19/1
f 122/19/1 123/20/1 188/85/1
f 189/86/1 120/17/1 121/18/1
f 189/86/1 122/19/1 188/85/1
f 126/23/1 127/24/1 184/81/1
f 109/6/1 110/7/1 200/97/1
f 109/6/1 200/97/1 201/98/1
f 107/4/1 204/101/1 106/3/1
f 109/6/1 201/98/1 108/5/1
f 104/1/1 205/102/1 206/103/1
f 197/94/1 113/10/1 114/11/1
f 115/12/1 196/93/1 114/11/1
f 112/9/1 113/10/1 197/94/1
f 197/94/1 114/11/1 196/93/1
f 204/101/1 205/102/1 106/3/1
f 105/2/1 106/3/1 205/102/1
f 205/102/1 104/1/1 105/2/1
f 200/97/1 110/7/1 111/8/1
f 55/158/2 49/152/2 56/159/2
f 48/151/2 57/160/2 56/159/2
f 64/167/2 63/166/2 41/144/2
f 60/163/2 59/162/2 45/148/2
f 44/147/2 61/164/2 60/163/2
f 48/151/2 56/159/2 49/152/2
f 45/148/2 59/162/2 58/161/2
f 64/167/2 41/144/2 40/143/2
f 60/163/2 45/148/2 44/147/2
f 41/144/2 63/166/2 62/165/2
f 65/168/2 64/167/2 40/143/2
f 49/152/2 55/158/2 54/157/2
f 37/140/2 68/171/2 67/170/2
f 76/179/2 75/178/2 29/132/2
f 72/175/2 71/174/2 33/136/2
f 72/175/2 32/135/2 73/176/2
f 66/169/2 37/140/2 67/170/2
f 37/140/2 36/139/2 68/171/2
f 33/136/2 71/174/2 70/173/2
f 69/172/2 68/171/2 36/139/2
f 74/177/2 29/132/2 75/178/2
f 32/135/2 72/175/2 33/136/2
f 28/131/2 76/179/2 29/132/2
f 77/180/2 76/179/2 28/131/2
f 39/142/2 65/168/2 40/143/2
f 53/156/2 52/155/2 51/154/2
f 46/149/2 58/161/2 47/150/2
f 47/150/2 58/161/2 57/160/2
f 57/160/2 48/151/2 47/150/2
f 54/157/2 51/154/2 50/153/2
f 51/154/2 54/157/2 53/156/2
f 50/153/2 49/152/2 54/157/2
f 62/165/2 61/164/2 43/146/2
f 44/147/2 43/146/2 61/164/2
f 43/146/2 42/145/2 62/165/2
f 42/145/2 41/144/2 62/165/2
f 45/148/2 58/161/2 46/149/2
f 66/169/2 39/142/2 38/141/2
f 66/169/2 38/141/2 37/140/2
f 73/176/2 31/134/2 74/177/2
f 29/132/2 74/177/2 30/133/2
f 31/134/2 73/176/2 32/135/2
f 31/134/2 30/133/2 74/177/2
f 69/172/2 35/138/2 70/173/2
f 69/172/2 36/139/2 35/138/2
f 70/173/2 35/138/2 34/137/2
f 78/181/2 77/180/2 27/130/2
f 70/173/2 34/137/2 33/136/2
f 27/130/2 77/180/2 28/131/2
f 39/142/2 66/169/2 65/168/2
f 79/182/2 25/128/2 80/183/2
f 81/184/2 80/183/2 24/127/2
f 88/191/2 87/190/2 17/120/2
f 84/187/2 83/186/2 21/124/2
f 85/188/2 84/187/2 20/123/2
f 24/127/2 80/183/2 25/128/2
f 82/185/2 21/124/2 83/186/2
f 86/189/2 17/120/2 87/190/2
f 16/119/2 89/192/2 88/191/2
f 16/119/2 88/191/2 17/120/2
f 84/187/2 21/124/2 20/123/2
f 15/118/2 89/192/2 16/119/2
f 25/128/2 79/182/2 78/181/2
f 91/194/2 12/115/2 92/195/2
f 12/115/2 93/196/2 92/195/2
f 96/199/2 95/198/2 9/112/2
f 99/202/2 4/107/2 100/203/2
f 90/193/2 14/117/2 13/116/2
f 90/193/2 13/116/2 91/194/2
f 13/116/2 12/115/2 91/194/2
f 9/112/2 8/111/2 96/199/2
f 5/108/2 99/202/2 98/201/2
f 97/200/2 96/199/2 8/111/2
f 4/107/2 99/202/2 5/108/2
f 95/198/2 94/197/2 9/112/2
f 101/204/2 100/203/2 4/107/2
f 90/193/2 89/192/2 15/118/2
f 81/184/2 23/126/2 82/185/2
f 82/185/2 23/126/2 22/125/2
f 22/125/2 21/124/2 82/185/2
f 90/193/2 15/118/2 14/117/2
f 25/128/2 78/181/2 26/129/2
f 26/129/2 78/181/2 27/130/2
f 18/121/2 86/189/2 19/122/2
f 20/123/2 19/122/2 85/188/2
f 17/120/2 86/189/2 18/121/2
f 19/122/2 86/189/2 85/188/2
f 24/127/2 23/126/2 81/184/2
f 7/110/2 6/109/2 97/200/2
f 97/200/2 6/109/2 98/201/2
f 101/204/2 4/107/2 3/106/2
f 98/201/2 6/109/2 5/108/2
f 102/205/2 1/104/2 103/206/2
f 10/113/2 94/197/2 11/114/2
f 93/196/2 12/115/2 11/114/2
f 10/113/2 9/112/2 94/197/2
f 11/114/2 94/197/2 93/196/2
f 102/205/2 101/204/2 3/106/2
f 3/106/2 2/105/2 102/205/2
f 1/104/2 102/205/2 2/105/2
f 7/110/2 97/200/2 8/111/2
f 207/619/3 1/207/4 2/208/5
f 207/619/3 2/208/5 105/414/6
f 207/619/3 105/414/6 104/413/7
f 207/619/3 104/413/7 1/207/4
f 208/620/8 2/209/9 3/210/10
f 208/620/8 3/210/10 106/416/11
f 208/620/8 106/416/11 105/415/12
f 208/620/8 105/415/12 2/209/9
f 209/621/13 3/211/14 4/212/15
f 209/621/13 4/212/15 107/418/16
f 209/621/13 107/418/16 106/417/17
f 209/621/13 106/417/17 3/211/14
f 210/622/18 4/213/19 5/214/20
f 210/622/18 5/214/20 108/420/21
f 210/622/18 108/420/21 107/419/22
f 210/622/18 107/419/22 4/213/19
f 211/623/23 5/215/24 6/216/25
f 211/623/23 6/216/25 109/422/26
f 211/623/23 109/422/26 108/421/27
f 211/623/23 108/421/27 5/215/24
f 212/624/28 6/217/29 7/218/30
f 212/624/28 7/218/30 110/424/31
f 212/624/28 110/424/31 109/423/32
f 212/624/28 109/423/32 6/217/29
f 213/625/33 7/219/34 8/220/35
f 213/625/33 8/220/35 111/426/36
f 213/625/33 111/426/36 110/425/37
f 213/625/33 110/425/37 7/219/34
f 214/626/38 8/221/39 9/222/40
f 214/626/38 9/222/40 112/428/41
f 214/626/38 112/428/41 111/427/42
f 214/626/38 111/427/42 8/221/39
f 215/627/43 9/223/44 10/224/45
f 215/627/43 10/224/45 113/430/46
f 215/627/43 113/430/46 112/429/47
f 215/627/43 112/429/47 9/223/44
f 216/628/48 10/225/49 11/226/50
f 216/628/48 11/226/50 114/432/51
f 216/628/48 114/432/51 113/431/52
f 216/628/48 113/431/52 10/225/49
f 217/629/53 11/227/54 12/228/55
f 217/629/53 12/228/55 115/434/56
f 217/629/53 115/434/56 114/433/57
f 217/629/53 114/433/57 11/227/54
f 218/630/58 12/229/59 13/230/60
f 218/630/58 13/230/60 116/436/61
f 218/630/58 116/436/61 115/435/62
f 218/630/58 115/435/62 12/229/59
f 219/631/63 13/231/64 14/232/65
f 219/631/63 14/232/65 117/438/66
f 219/631/63 117/438/66 116/437/67
f 219/631/63 116/437/67 13/231/64
f 220/632/68 14/233/69 15/234/70
f 220/632/68 15/234/70 118/440/71
f 220/632/68 118/440/71 117/439/72
f 220/632/68 117/439/72 14/233/69
f 221/633/73 15/235/74 16/236/75
f 221/633/73 16/236/75 119/442/76
f 221/633/73 119/442/76 118/441/77
f 221/633/73 118/441/77 15/235/74
f 222/634/78 16/237/79 17/238/80
f 222/634/78 17/238/80 120/444/81
f 222/634/78 120/444/81 119/443/82
f 222/634/78 119/443/82 16/237/79
f 223/635/83 17/239/84 18/240/85
f 223/635/83 18/240/85 121/446/86
f 223/635/83 121/446/86 120/445/87
f 223/635/83 120/445/87 17/239/84
f 224/636/88 18/241/89 19/242/90
f 224/636/88 19/242/90 122/448/91
f 224/636/88 122/448/91 121/447/92
f 224/636/88 121/447/92 18/241/89
f 225/637/93 19/243/94 20/244/95
f 225/637/93 20/244/95 123/450/96
f 225/637/93 123/450/96 122/449/97
f 225/637/93 122/449/97 19/243/94
f 226/638/98 20/245/99 21/246/100
f 226/638/98 21/246/100 124/452/101
f 226/638/98 124/452/101 123/451/102
f 226/638/98 123/451/102 20/245/99
f 227/639/103 21/247/104 22/248/105
f 227/639/103 22/248/105 125/454/106
f 227/639/103 125/454/106 124/453/107
f 227/639/103 124/453/107 21/247/104
f 228/640/108 22/249/109 23/250/110
f 228/640/108 23/250/110 126/456/111
f 228/640/108 126/456/111 125/455/112
f 228/640/108 125/455/112 22/249/109
f 229/641/113 23/251/114 24/252/115
f 229/641/113 24/252/115 127/458/116
f 229/641/113 127/458/116 126/457/117
f 229/641/113 126/457/117 23/251/114
f 230/642/118 24/253/119 25/254/120
f 230/642/118 25/254/120 128/460/121
f 230/642/118 128/460/121 127/459/122
f 230/642/118 127/459/122 24/253/119
f 231/643/123 25/255/124 26/256/125
f 231/643/123 26/256/125 129/462/126
f 231/643/123 129/462/126 128/461/127
f 231/643/123 128/461/127 25/255/124
f 232/644/128 26/257/129 27/258/130
f 232/644/128 27/258/130 130/464/131
f 232/644/128 130/464/131 129/463/132
f 232/644/128 129/463/132 26/257/129
f 233/645/133 27/259/134 28/260/135
f 233/645/133 28/260/135 131/466/136
f 233/645/133 131/466/136 130/465/137
f 233/645/133 130/465/137 27/259/134
f 234/646/138 28/261/139 29/262/140
f 234/646/138 29/262/140 132/468/141
f 234/646/138 132/468/141 131/467/142
f 234/646/138 131/467/142 28/261/139
f 235/647/143 29/263/144 30/264/145
f 235/647/143 30/264/145 133/470/146
f 235/647/143 133/470/146 132/469/147
f 235/647/143 132/469/147 29/263/144
f 236/648/148 30/265/149 31/266/150
f 236/648/148 31/266/150 134/472/151
f 236/648/148 134/472/151 133/471/152
f 236/648/148 133/471/152 30/265/149
f 237/649/153 31/267/154 32/268/155
f 237/649/153 32/268/155 135/474/156
f 237/649/153 135/474/156 134/473/157
f 237/649/153 134/473/157 31/267/154
f 238/650/158 32/269/159 33/270/160
f 238/650/158 33/270/160 136/476/161
f 238/650/158 136/476/161 135/475/162
f 238/650/158 135/475/162 32/269/159
f 239/651/163 33/271/164 34/272/165
f 239/651/163 34/272/165 137/478/166
f 239/651/163 137/478/166 136/477/167
f 239/651/163 136/477/167 33/271/164
f 240/652/168 34/273/169 35/274/170
f 240/652/168 35/274/170 138/480/171
f 240/652/168 138/480/171 137/479/172
f 240/652/168 137/479/172 34/273/169
f 241/653/173 35/275/174 36/276/175
f 241/653/173 36/276/175 139/482/176
f 241/653/173 139/482/176 138/481/177
f 241/653/173 138/481/177 35/275/174
f 242/654/178 36/277/179 37/278/180
f 242/654/178 37/278/180 140/484/181
f 242/654/178 140/484/181 139/483/182
f 242/654/178 139/483/182 36/277/179
f 243/655/183 37/279/184 38/280/185
f 243/655/183 38/280/185 141/486/186
f 243/655/183 141/486/186 140/485/187
f 243/655/183 140/485/187 37/279/184
f 244/656/188 38/281/189 39/282/190
f 244/656/188 39/282/190 142/488/191
f 244/656/188 142/488/191 141/487/192
f 244/656/188 141/487/192 38/281/189
f 245/657/193 39/283/194 40/284/195
f 245/657/193 40/284/195 143/490/196
f 245/657/193 143/490/196 142/489/197
f 245/657/193 142/489/197 39/283/194
f 246/658/198 40/285/199 41/286/200
f 246/658/198 41/286/200 144/492/201
f 246/658/198 144/492/201 143/491/202
f 246/658/198 143/491/202 40/285/199
f 247/659/203 41/287/204 42/288/205
f 247/659/203 42/288/205 145/494/206
f 247/659/203 145/494/206 144/493/207
f 247/659/203 144/493/207 41/287/204
f 248/660/208 42/289/209 43/290/210
f 248/660/208 43/290/210 146/496/211
f 248/660/208 146/496/211 145/495/212
f 248/660/208 145/495/212 42/289/209
f 249/661/213 43/291/214 44/292/215
f 249/661/213 44/292/215 147/498/216
f 249/661/213 147/498/216 146/497/217
f 249/661/213 146/497/217 43/291/214
f 250/662/218 44/293/219 45/294/220
f 250/662/218 45/294/220 148/500/221
f 250/662/218 148/500/221 147/499/222
f 250/662/218 147/499/222 44/293/219
f 251/663/223 45/295/224 46/296/225
f 251/663/223 46/296/225 149/502/226
f 251/663/223 149/502/226 148/501/227
f 251/663/223 148/501/227 45/295/224
f 252/664/228 46/297/229 47/298/230
f 252/664/228 47/298/230 150/504/231
f 252/664/228 150/504/231 149/503/232
f 252/664/228 149/503/232 46/297/229
f 253/665/233 47/299/234 48/300/235
f 253/665/233 48/300/235 151/506/236
f 253/665/233 151/506/236 150/505/237
f 253/665/233 150/505/237 47/299/234
f 254/666/238 48/301/239 49/302/240
f 254/666/238 49/302/240 152/508/241
f 254/666/238 152/508/241 151/507/242
f 254/666/238 151/507/242 48/301/239
f 255/667/243 49/303/244 50/304/245
f 255/667/243 50/304/245 153/510/246
f 255/667/243 153/510/246 152/509/247
f 255/667/243 152/509/247 49/303/244
f 256/668/248 50/305/249 51/306/250
f 256/668/248 51/306/250 154/512/251
f 256/668/248 154/512/251 153/511/252
f 256/668/248 153/511/252 50/305/249
f 257/669/253 51/307/254 52/308/255
f 257/669/253 52/308/255 155/514/256
f 257/669/253 155/514/256 154/513/257
f 257/669/253 154/513/257 51/307/254
f 258/670/258 52/309/259 53/310/260
f 258/670/258 53/310/260 156/516/261
f 258/670/258 156/516/261 155/515/262
f 258/670/258 155/515/262 52/309/259
f 259/671/263 53/311/264 54/312/265
f 259/671/263 54/312/265 157/518/266
f 259/671/263 157/518/266 156/517/267
f 259/671/263 156/517/267 53/311/264
f 260/672/268 54/313/269 55/314/270
f 260/672/268 55/314/270 158/520/271
f 260/672/268 158/520/271 157/519/272
f 260/672/268 157/519/272 54/313/269
f 261/673/273 55/315/274 56/316/275
f 261/673/273 56/316/275 159/522/276
f 261/673/273 159/522/276 158/521/277
f 261/673/273 158/521/277 55/315/274
f 262/674/278 56/317/279 57/318/280
f 262/674/278 57/318/280 160/524/281
f 262/674/278 160/524/281 159/523/282
f 262/674/278 159/523/282 56/317/279
f 263/675/283 57/319/284 58/320/285
f 263/675/283 58/320/285 161/526/286
f 263/675/283 161/526/286 160/525/287
f 263/675/283 160/525/287 57/319/284
f 264/676/288 58/321/289 59/322/290
f 264/676/288 59/322/290 162/528/291
f 264/676/288 162/528/291 161/527/292
f 264/676/288 161/527/292 58/321/289
f 265/677/293 59/323/294 60/324/295
f 265/677/293 60/324/295 163/530/296
f 265/677/293 163/530/296 162/529/297
f 265/677/293 162/529/297 59/323/294
f 266/678/298 60/325/299 61/326/300
f 266/678/298 61/326/300 164/532/301
f 266/678/298 164/532/301 163/531/302
f 266/678/298 163/531/302 60/325/299
f 267/679/303 61/327/304 62/328/305
f 267/679/303 62/328/305 165/534/306
f 267/679/303 165/534/306 164/533/307
f 267/679/303 164/533/307 61/327/304
f 268/680/308 62/329/309 63/330/310
f 268/680/308 63/330/310 166/536/311
f 268/680/308 166/536/311 165/535/312
f 268/680/308 165/535/312 62/329/309
f 269/681/313 63/331/314 64/332/315
f 269/681/313 64/332/315 167/538/316
f 269/681/313 167/538/316 166/537/317
f 269/681/313 166/537/317 63/331/314
f 270/682/318 64/333/319 65/334/320
f 270/682/318 65/334/320 168/540/321
f 270/682/318 168/540/321 167/539/322
f 270/682/318 167/539/322 64/333/319
f 271/683/323 65/335/324 66/336/325
f 271/683/323 66/336/325 169/542/326
f 271/683/323 169/542/326 168/541/327
f 271/683/323 168/541/327 65/335/324
f 272/684/328 66/337/329 67/338/330
f 272/684/328 67/338/330 170/544/331
f 272/684/328 170/544/331 169/543/332
f 272/684/328 169/543/332 66/337/329
f 273/685/333 67/339/334 68/340/335
f 273/685/333 68/340/335 171/546/336
f 273/685/333 171/546/336 170/545/337
f 273/685/333 170/545/337 67/339/334
f 274/686/338 68/341/339 69/342/340
f 274/686/338 69/342/340 172/548/341
f 274/686/338 172/548/341 171/547/342
f 274/686/338 171/547/342 68/341/339
f 275/687/343 69/343/344 70/344/345
f 275/687/343 70/344/345 173/550/346
f 275/687/343 173/550/346 172/549/347
f 275/687/343 172/549/347 69/343/344
f 276/688/348 70/345/349 71/346/350
f 276/688/348 71/346/350 174/552/351
f 276/688/348 174/552/351 173/551/352
f 276/688/348 173/551/352 70/345/349
f 277/689/353 71/347/354 72/348/355
f 277/689/353 72/348/355 175/554/356
f 277/689/353 175/554/356 174/553/357
f 277/689/353 174/553/357 71/347/354
f 278/690/358 72/349/359 73/350/360
f 278/690/358 73/350/360 176/556/361
f 278/690/358 176/556/361 175/555/362
f 278/690/358 175/555/362 72/349/359
f 279/691/363 73/351/364 74/352/365
f 279/691/363 74/352/365 177/558/366
f 279/691/363 177/558/366 176/557/367
f 279/691/363 176/557/367 73/351/364
f 280/692/368 74/353/369 75/354/370
f 280/692/368 75/354/370 178/560/371
f 280/692/368 178/560/371 177/559/372
f 280/692/368 177/559/372 74/353/369
f 281/693/373 75/355/374 76/356/375
f 281/693/373 76/356/375 179/562/376
f 281/693/373 179/562/376 178/561/377
f 281/693/373 178/561/377 75/355/374
f 282/694/378 76/357/379 77/358/380
f 282/694/378 77/358/380 180/564/381
f 282/694/378 180/564/381 179/563/382
f 282/694/378 179/563/382 76/357/379
f 283/695/383 77/359/384 78/360/385
f 283/695/383 78/360/385 181/566/386
f 283/695/383 181/566/386 180/565/387
f 283/695/383 180/565/387 77/359/384
f 284/696/388 78/361/389 79/362/390
f 284/696/388 79/362/390 182/568/391
f 284/696/388 182/568/391 181/567/392
f 284/696/388 181/567/392 78/361/389
f 285/697/393 79/363/394 80/364/395
f 285/697/393 80/364/395 183/570/396
f 285/697/393 183/570/396 182/569/397
f 285/697/393 182/569/397 79/363/394
f 286/698/398 80/365/399 81/366/400
f 286/698/398 81/366/400 184/572/401
f 286/698/398 184/572/401 183/571/402
f 286/698/398 183/571/402 80/365/399
f 287/699/403 81/367/404 82/368/405
f 287/699/403 82/368/405 185/574/406
f 287/699/403 185/574/406 184/573/407
f 287/699/403 184/573/407 81/367/404
f 288/700/408 82/369/409 83/370/410
f 288/700/408 83/370/410 186/576/411
f 288/700/408 186/576/411 185/575/412
f 288/700/408 185/575/412 82/369/409
f 289/701/413 83/371/414 84/372/415
f 289/701/413 84/372/415 187/578/416
f 289/701/413 187/578/416 186/577/417
f 289/701/413 186/577/417 83/371/414
f 290/702/418 84/373/419 85/374/420
f 290/702/418 85/374/420 188/580/421
f 290/702/418 188/580/421 187/579/422
f 290/702/418 187/579/422 84/373/419
f 291/703/423 85/375/424 86/376/425
f 291/703/423 86/376/425 189/582/426
f 291/703/423 189/582/426 188/581/427
f 291/703/423 188/581/427 85/375/424
f 292/704/428 86/377/429 87/378/430
f 292/704/428 87/378/430 190/584/431
f 292/704/428 190/584/431 189/583/432
f 292/704/428 189/583/432 86/377/429
f 293/705/433 87/379/434 88/380/435
f 293/705/433 88/380/435 191/586/436
f 293/705/433 191/586/436 190/585/437
f 293/705/433 190/585/437 87/379/434
f 294/706/438 88/381/439 89/382/440
f 294/706/438 89/382/440 192/588/441
f 294/706/438 192/588/441 191/587/442
f 294/706/438 191/587/442 88/381/439
f 295/707/443 89/383/444 90/384/445
f 295/707/443 90/384/445 193/590/446
f 295/707/443 193/590/446 192/589/447
f 295/707/443 192/589/447 89/383/444
f 296/708/448 90/385/449 91/386/450
f 296/708/448 91/386/450 194/592/451
f 296/708/448 194/592/451 193/591/452
f 296/708/448 193/591/452 90/385/449
f 297/709/453 91/387/454 92/388/455
f 297/709/453 92/388/455 195/594/456
f 297/709/453 195/594/456 194/593/457
f 297/709/453 194/593/457 91/387/454
f 298/710/458 92/389/459 93/390/460
f 298/710/458 93/390/460 196/596/461
f 298/710/458 196/596/461 195/595/462
f 298/710/458 195/595/462 92/389/459
f 299/711/463 93/391/464 94/392/465
f 299/711/463 94/392/465 197/598/466
f 299/711/463 197/598/466 196/597/467
f 299/711/463 196/597/467 93/391/464
f 300/712/468 94/393/469 95/394/470
f 300/712/468 95/394/470 198/600/471
f 300/712/468 198/600/471 197/599/472
f 300/712/468 197/599/472 94/393/469
f 301/713/473 95/395/474 96/396/475
f 301/713/473 96/396/475 199/602/476
f 301/713/473 199/602/476 198/601/477
f 301/713/473 198/601/477 95/395/474
f 302/714/478 96/397/479 97/398/480
f 302/714/478 97/398/480 200/604/481
f 302/714/478 200/604/481 199/603/482
f 302/714/478 199/603/482 96/397/479
f 303/715/483 97/399/484 98/400/485
f 303/715/483 98/400/485 201/606/486
f 303/715/483 201/606/486 200/605/487
f 303/715/483 200/605/487 97/399/484
f 304/716/488 98/401/489 99/402/490
f 304/716/488 99/402/490 202/608/491
f 304/716/488 202/608/491 201/607/492
f 304/716/488 201/607/492 98/401/489
f 305/717/493 99/403/494 100/404/495
f 305/717/493 100/404/495 203/610/496
f 305/717/493 203/610/496 202/609/497
f 305/717/493 202/609/497 99/403/494
f 306/718/498 100/405/499 101/406/500
f 306/718/498 101/406/500 204/612/501
f 306/718/498 204/612/501 203/611/502
f 306/718/498 203/611/502 100/405/499
f 307/719/503 101/407/504 102/408/505
f 307/719/503 102/408/505 205/614/506
f 307/719/503 205/614/506 204/613/507
f 307/719/503 204/613/507 101/407/504
f 308/720/508 102/409/509 103/410/510
f 308/720/508 103/410/510 206/616/511
f 308/720/508 206/616/511 205/615/512
f 308/720/508 205/615/512 102/409/509
f 309/721/513 103/411/514 1/412/515
f 309/721/513 1/412/515 104/618/516
f 309/721/513 104/618/516 206/617/517
f 309/721/513 206/617/517 103/411/514
