mtllib Delta Span.mtl
# Vertex Positions: 
g groupNumber_0
v 13.9815 -0.189539 -16.9263
v 13.9706 -0.155963 -16.9263
v 13.8092 -0.208499 -16.9263
v 13.5937 -0.472008 -16.9263
v 12.994 -0.472008 -16.9263
v 12.1296 0.513651 -16.9263
v 11.495 0.513651 -16.9263
v 11.4605 0.380294 -16.9263
v 8.99954 -0.444258 -16.9263
v 6.51778 0.368849 -16.9263
v 6.48955 0.513651 -16.9263
v 5.82684 0.513651 -16.9263
v 4.97092 -0.472008 -16.9263
v 4.34804 -0.472008 -16.9263
v 3.52528 0.475249 -16.9263
v 2.86671 0.481333 -16.9263
v 2.83955 0.379001 -16.9263
v 0.360894 -0.421264 -16.9263
v -2.08408 0.367435 -16.9263
v -2.12996 0.513651 -16.9263
v -2.8317 0.513651 -16.9263
v -3.64948 -0.472008 -16.9263
v -4.29752 -0.472008 -16.9263
v -5.07687 0.473784 -16.9263
v -5.78591 0.473784 -16.9263
v -5.81266 0.372882 -16.9263
v -8.28299 -0.425884 -16.9263
v -10.729 0.365109 -16.9263
v -10.7623 0.513651 -16.9263
v -11.4198 0.513651 -16.9263
v -12.2702 -0.478351 -16.9263
v -12.9238 -0.478351 -16.9263
v -13.7237 0.513651 -16.9263
v -13.9815 0.513651 -16.9263
v -13.9815 0.478351 -16.9263
v -13.7406 0.478351 -16.9263
v -12.9459 -0.507067 -16.9263
v -12.254 -0.513651 -16.9263
v -11.4035 0.478351 -16.9263
v -10.7906 0.478351 -16.9263
v -10.7591 0.337737 -16.9263
v -8.28299 -0.462976 -16.9263
v -5.78346 0.345235 -16.9263
v -5.75874 0.438484 -16.9263
v -5.09352 0.438484 -16.9263
v -4.31417 -0.507308 -16.9263
v -3.6329 -0.507308 -16.9263
v -2.81512 0.478351 -16.9263
v -2.15589 0.478351 -16.9263
v -2.11231 0.339444 -16.9263
v 0.355482 -0.456599 -16.9263
v 2.85954 0.348372 -16.9263
v 2.89388 0.446033 -16.9263
v 3.5039 0.446033 -16.9263
v 4.33197 -0.507308 -16.9263
v 4.98699 -0.507308 -16.9263
v 5.84294 0.478351 -16.9263
v 6.46045 0.478351 -16.9263
v 6.4871 0.341753 -16.9263
v 8.99412 -0.479627 -16.9263
v 11.4898 0.352905 -16.9263
v 11.5223 0.478351 -16.9263
v 12.1136 0.478351 -16.9263
v 12.978 -0.507308 -16.9263
v 13.6104 -0.507308 -16.9263
v 13.8299 -0.238835 -16.9263
v 13.9815 -0.189539 16.9263
v 13.9706 -0.155963 16.9263
v 13.8092 -0.208499 16.9263
v 13.5937 -0.472008 16.9263
v 12.994 -0.472008 16.9263
v 12.1296 0.513651 16.9263
v 11.495 0.513651 16.9263
v 11.4605 0.380294 16.9263
v 8.99954 -0.444258 16.9263
v 6.51778 0.368849 16.9263
v 6.48955 0.513651 16.9263
v 5.82684 0.513651 16.9263
v 4.97092 -0.472008 16.9263
v 4.34804 -0.472008 16.9263
v 3.52528 0.475249 16.9263
v 2.86671 0.481333 16.9263
v 2.83955 0.379001 16.9263
v 0.360894 -0.421264 16.9263
v -2.08408 0.367435 16.9263
v -2.12996 0.513651 16.9263
v -2.8317 0.513651 16.9263
v -3.64948 -0.472008 16.9263
v -4.29752 -0.472008 16.9263
v -5.07687 0.473784 16.9263
v -5.78591 0.473784 16.9263
v -5.81266 0.372882 16.9263
v -8.28299 -0.425884 16.9263
v -10.729 0.365109 16.9263
v -10.7623 0.513651 16.9263
v -11.4198 0.513651 16.9263
v -12.2702 -0.478351 16.9263
v -12.9238 -0.478351 16.9263
v -13.7237 0.513651 16.9263
v -13.9815 0.513651 16.9263
v -13.9815 0.478351 16.9263
v -13.7406 0.478351 16.9263
v -12.9459 -0.507067 16.9263
v -12.254 -0.513651 16.9263
v -11.4035 0.478351 16.9263
v -10.7906 0.478351 16.9263
v -10.7591 0.337737 16.9263
v -8.28299 -0.462976 16.9263
v -5.78346 0.345235 16.9263
v -5.75874 0.438484 16.9263
v -5.09352 0.438484 16.9263
v -4.31417 -0.507308 16.9263
v -3.6329 -0.507308 16.9263
v -2.81512 0.478351 16.9263
v -2.15589 0.478351 16.9263
v -2.11231 0.339444 16.9263
v 0.355482 -0.456599 16.9263
v 2.85954 0.348372 16.9263
v 2.89388 0.446033 16.9263
v 3.5039 0.446033 16.9263
v 4.33197 -0.507308 16.9263
v 4.98699 -0.507308 16.9263
v 5.84294 0.478351 16.9263
v 6.46045 0.478351 16.9263
v 6.4871 0.341753 16.9263
v 8.99412 -0.479627 16.9263
v 11.4898 0.352905 16.9263
v 11.5223 0.478351 16.9263
v 12.1136 0.478351 16.9263
v 12.978 -0.507308 16.9263
v 13.6104 -0.507308 16.9263
v 13.8299 -0.238835 16.9263
v 13.9761 -0.172751 0
v 13.8899 -0.182231 0
v 13.7014 -0.340254 0
v 13.2938 -0.472008 0
v 12.5618 0.0208215 0
v 11.8123 0.513651 0
v 11.4777 0.446972 0
v 10.23 -0.031982 0
v 7.75866 -0.0377045 0
v 6.50366 0.44125 0
v 6.1582 0.513651 0
v 5.39888 0.0208215 0
v 4.65948 -0.472008 0
v 3.93666 0.00162021 0
v 3.19599 0.478291 0
v 2.85313 0.430167 0
v 1.60022 -0.0211317 0
v -0.861592 -0.0269145 0
v -2.10702 0.440543 0
v -2.48083 0.513651 0
v -3.24059 0.0208215 0
v -3.9735 -0.472008 0
v -4.6872 0.000887669 0
v -5.43139 0.473784 0
v -5.79928 0.423333 0
v -7.04782 -0.0265009 0
v -9.50602 -0.0303876 0
v -10.7457 0.43938 0
v -11.091 0.513651 0
v -11.845 0.01765 0
v -12.597 -0.478351 0
v -13.3238 0.01765 0
v -13.8526 0.513651 0
v -13.9815 0.496001 0
v -13.8611 0.478351 0
v -13.3433 -0.0143579 0
v -12.6 -0.510359 0
v -11.8287 -0.01765 0
v -11.097 0.478351 0
v -10.7748 0.408044 0
v -9.52103 -0.0626196 0
v -7.03322 -0.0588707 0
v -5.7711 0.391859 0
v -5.42613 0.438484 0
v -4.70385 -0.0344123 0
v -3.97353 -0.507308 0
v -3.22401 -0.0144785 0
v -2.4855 0.478351 0
v -2.1341 0.408897 0
v -0.878415 -0.0585777 0
v 1.60751 -0.0541135 0
v 2.87671 0.397203 0
v 3.19889 0.446033 0
v 3.91794 -0.0306376 0
v 4.65948 -0.507308 0
v 5.41497 -0.0144785 0
v 6.1517 0.478351 0
v 6.47378 0.410052 0
v 7.74061 -0.0689367 0
v 10.242 -0.0633607 0
v 11.5061 0.415628 0
v 11.8179 0.478351 0
v 12.5458 -0.0144785 0
v 13.2942 -0.507308 0
v 13.7202 -0.373072 0
v 13.9057 -0.214187 0


# Vertex Texture Coordinates :
vt 0.401988 0.00465933
vt 0.401832 0.00514202
vt 0.39951 0.00438677
vt 0.396413 0.000598647
vt 0.387792 0.000598647
vt 0.375365 0.0147682
vt 0.366242 0.0147682
vt 0.365746 0.0128511
vt 0.330369 0.000997579
vt 0.294692 0.0126866
vt 0.294286 0.0147682
vt 0.284759 0.0147682
vt 0.272455 0.000598647
vt 0.2635 0.000598647
vt 0.251672 0.0142161
vt 0.242205 0.0143036
vt 0.241815 0.0128325
vt 0.206182 0.00132812
vt 0.171034 0.0126662
vt 0.170374 0.0147682
vt 0.160286 0.0147682
vt 0.14853 0.000598647
vt 0.139214 0.000598647
vt 0.128011 0.0141951
vt 0.117818 0.0141951
vt 0.117433 0.0127445
vt 0.0819204 0.00126172
vt 0.0467566 0.0126328
vt 0.0462787 0.0147682
vt 0.0368272 0.0147682
vt 0.0246013 0.000507462
vt 0.015206 0.000507462
vt 0.00370586 0.0147682
vt 0 0.0147682
vt 0 0.0142607
vt 0.00346303 0.0142607
vt 0.0148871 9.46536e-05
vt 0.0248347 0
vt 0.0370606 0.0142607
vt 0.0458723 0.0142607
vt 0.046325 0.0122393
vt 0.0819204 0.000728486
vt 0.117853 0.0123471
vt 0.118208 0.0136876
vt 0.127771 0.0136876
vt 0.138975 9.11845e-05
vt 0.148769 9.11845e-05
vt 0.160525 0.0142607
vt 0.170002 0.0142607
vt 0.170628 0.0122638
vt 0.206104 0.000820166
vt 0.242102 0.0123922
vt 0.242596 0.0137961
vt 0.251365 0.0137961
vt 0.263269 9.11845e-05
vt 0.272686 9.11845e-05
vt 0.28499 0.0142607
vt 0.293868 0.0142607
vt 0.294251 0.012297
vt 0.330291 0.000489126
vt 0.366169 0.0124574
vt 0.366635 0.0142607
vt 0.375135 0.0142607
vt 0.387562 9.11845e-05
vt 0.396653 9.11845e-05
vt 0.399809 0.00395067
vt 0.408001 0.00465933
vt 0.408157 0.00514202
vt 0.410479 0.00438677
vt 0.413576 0.000598647
vt 0.422197 0.000598647
vt 0.434624 0.0147682
vt 0.443747 0.0147682
vt 0.444243 0.0128511
vt 0.47962 0.000997579
vt 0.515297 0.0126866
vt 0.515703 0.0147682
vt 0.52523 0.0147682
vt 0.537534 0.000598647
vt 0.546489 0.000598647
vt 0.558317 0.0142161
vt 0.567784 0.0143036
vt 0.568174 0.0128325
vt 0.603807 0.00132812
vt 0.638955 0.0126662
vt 0.639615 0.0147682
vt 0.649703 0.0147682
vt 0.661459 0.000598647
vt 0.670775 0.000598647
vt 0.681979 0.0141951
vt 0.692171 0.0141951
vt 0.692556 0.0127445
vt 0.728069 0.00126172
vt 0.763232 0.0126328
vt 0.76371 0.0147682
vt 0.773162 0.0147682
vt 0.785388 0.000507462
vt 0.794783 0.000507462
vt 0.806283 0.0147682
vt 0.809989 0.0147682
vt 0.809989 0.0142607
vt 0.806526 0.0142607
vt 0.795102 9.46536e-05
vt 0.785154 0
vt 0.772928 0.0142607
vt 0.764117 0.0142607
vt 0.763664 0.0122393
vt 0.728069 0.000728486
vt 0.692136 0.0123471
vt 0.691781 0.0136876
vt 0.682218 0.0136876
vt 0.671014 9.11845e-05
vt 0.66122 9.11845e-05
vt 0.649464 0.0142607
vt 0.639987 0.0142607
vt 0.639361 0.0122638
vt 0.603885 0.000820166
vt 0.567887 0.0123922
vt 0.567393 0.0137961
vt 0.558624 0.0137961
vt 0.54672 9.11845e-05
vt 0.537304 9.11845e-05
vt 0.524999 0.0142607
vt 0.516121 0.0142607
vt 0.515738 0.012297
vt 0.479698 0.000489126
vt 0.443821 0.0124574
vt 0.443354 0.0142607
vt 0.434854 0.0142607
vt 0.422427 9.11845e-05
vt 0.413336 9.11845e-05
vt 0.41018 0.00395067
vt 7.30328e-06 0.0207505
vt 0.000514755 0.0207505
vt 0.00651459 0.0207505
vt 0.00895561 0.0207505
vt 0.0138491 0.0207505
vt 0.0198321 0.0207505
vt 0.0284525 0.0207505
vt 0.0344417 0.0207505
vt 0.0532885 0.0207505
vt 0.0344323 0.513346
vt 0.0435552 0.513346
vt 0.0495284 0.513346
vt 0.0515087 0.513346
vt 0.0593097 0.0207505
vt 0.0966203 0.0207505
vt 0.134163 0.0207505
vt 0.00650756 0.513346
vt 0.00862839 0.513346
vt 0.0592997 0.513346
vt 0.0688265 0.513346
vt 0.0748186 0.513346
vt 0.093585 0.513346
vt 0.0995662 0.513346
vt 0.108521 0.513346
vt 0.11451 0.513346
vt 0.132547 0.513346
vt 0.140181 0.0207505
vt 0.149649 0.0207505
vt 0.0198169 0.513346
vt 0.0213389 0.513346
vt 0.155608 0.0207505
vt 0.193052 0.0207505
vt 0.229984 0.0207505
vt 0.14019 0.513346
vt 0.142393 0.513346
vt 0.155613 0.513346
vt 0.165701 0.513346
vt 0.17165 0.513346
vt 0.190061 0.513346
vt 0.196039 0.513346
vt 0.205355 0.513346
vt 0.211373 0.513346
vt 0.228991 0.513346
vt 0.235937 0.0207505
vt 0.24613 0.0207505
vt 0.235947 0.513346
vt 0.237447 0.513346
vt 0.252132 0.0207505
vt 0.289455 0.0207505
vt 0.326411 0.0207505
vt 0.243445 0.513346
vt 0.245633 0.513346
vt 0.25211 0.513346
vt 0.261562 0.513346
vt 0.267582 0.513346
vt 0.286367 0.513346
vt 0.292416 0.513346
vt 0.301811 0.513346
vt 0.307854 0.513346
vt 0.326174 0.513346
vt 0.332448 0.0207505
vt 0.336154 0.0207505
vt 7.29795e-06 0.513346
vt 0.00051476 0.513346
vt 0.332451 0.513346
vt 0.335914 0.513346
vt 0.342192 0.0207505
vt 0.360391 0.0207505
vt 0.342159 0.513346
vt 0.352107 0.513346
vt 0.366434 0.0207505
vt 0.385218 0.0207505
vt 0.36643 0.513346
vt 0.375242 0.513346
vt 0.358097 0.513346
vt 0.360169 0.513346
vt 0.391229 0.0207505
vt 0.428639 0.0207505
vt 0.466404 0.0207505
vt 0.381252 0.513346
vt 0.382638 0.513346
vt 0.391243 0.513346
vt 0.400806 0.513346
vt 0.406819 0.513346
vt 0.424437 0.513346
vt 0.430454 0.513346
vt 0.440248 0.513346
vt 0.446225 0.513346
vt 0.464636 0.513346
vt 0.472375 0.0207505
vt 0.481852 0.0207505
vt 0.472384 0.513346
vt 0.474477 0.513346
vt 0.487807 0.0207505
vt 0.525083 0.0207505
vt 0.562895 0.0207505
vt 0.487835 0.513346
vt 0.489323 0.513346
vt 0.495303 0.513346
vt 0.504073 0.513346
vt 0.510037 0.513346
vt 0.52819 0.513346
vt 0.534188 0.513346
vt 0.543604 0.513346
vt 0.568839 0.0207505
vt 0.587606 0.0207505
vt 0.549606 0.513346
vt 0.558483 0.513346
vt 0.568846 0.513346
vt 0.570847 0.513346
vt 0.593577 0.0207505
vt 0.631502 0.0207505
vt 0.669324 0.0207505
vt 0.576816 0.513346
vt 0.578679 0.513346
vt 0.593576 0.513346
vt 0.602077 0.513346
vt 0.608067 0.513346
vt 0.626913 0.513346
vt 0.632905 0.513346
vt 0.641996 0.513346
vt 0.64801 0.513346
vt 0.652995 0.513346
vt 0.655287 0.513346
vt 7.30328e-06 0.507405
vt 0.000514755 0.507405
vt 0.00651459 0.507405
vt 0.00895561 0.507405
vt 0.0138491 0.507405
vt 0.0198321 0.507405
vt 0.0284525 0.507405
vt 0.0344417 0.507405
vt 0.0532885 0.507405
vt 0.0344323 1
vt 0.0435552 1
vt 0.0495284 1
vt 0.0515087 1
vt 0.0593097 0.507405
vt 0.0966203 0.507405
vt 0.134163 0.507405
vt 0.00650756 1
vt 0.00862839 1
vt 0.0592997 1
vt 0.0688265 1
vt 0.0748186 1
vt 0.093585 1
vt 0.0995662 1
vt 0.108521 1
vt 0.11451 1
vt 0.132547 1
vt 0.140181 0.507405
vt 0.149649 0.507405
vt 0.0198169 1
vt 0.0213389 1
vt 0.155608 0.507405
vt 0.193052 0.507405
vt 0.229984 0.507405
vt 0.14019 1
vt 0.142393 1
vt 0.155613 1
vt 0.165701 1
vt 0.17165 1
vt 0.190061 1
vt 0.196039 1
vt 0.205355 1
vt 0.211373 1
vt 0.228991 1
vt 0.235937 0.507405
vt 0.24613 0.507405
vt 0.235947 1
vt 0.237447 1
vt 0.252132 0.507405
vt 0.289455 0.507405
vt 0.326411 0.507405
vt 0.243445 1
vt 0.245633 1
vt 0.25211 1
vt 0.261562 1
vt 0.267582 1
vt 0.286367 1
vt 0.292416 1
vt 0.301811 1
vt 0.307854 1
vt 0.326174 1
vt 0.332448 0.507405
vt 0.336154 0.507405
vt 7.29795e-06 1
vt 0.00051476 1
vt 0.332451 1
vt 0.335914 1
vt 0.342192 0.507405
vt 0.360391 0.507405
vt 0.342159 1
vt 0.352107 1
vt 0.366434 0.507405
vt 0.385218 0.507405
vt 0.36643 1
vt 0.375242 1
vt 0.358097 1
vt 0.360169 1
vt 0.391229 0.507405
vt 0.428639 0.507405
vt 0.466404 0.507405
vt 0.381252 1
vt 0.382638 1
vt 0.391243 1
vt 0.400806 1
vt 0.406819 1
vt 0.424437 1
vt 0.430454 1
vt 0.440248 1
vt 0.446225 1
vt 0.464636 1
vt 0.472375 0.507405
vt 0.481852 0.507405
vt 0.472384 1
vt 0.474477 1
vt 0.487807 0.507405
vt 0.525083 0.507405
vt 0.562895 0.507405
vt 0.487835 1
vt 0.489323 1
vt 0.495303 1
vt 0.504073 1
vt 0.510037 1
vt 0.52819 1
vt 0.534188 1
vt 0.543604 1
vt 0.568839 0.507405
vt 0.587606 0.507405
vt 0.549606 1
vt 0.558483 1
vt 0.568846 1
vt 0.570847 1
vt 0.593577 0.507405
vt 0.631502 0.507405
vt 0.669324 0.507405
vt 0.576816 1
vt 0.578679 1
vt 0.593576 1
vt 0.602077 1
vt 0.608067 1
vt 0.626913 1
vt 0.632905 1
vt 0.641996 1
vt 0.64801 1
vt 0.652995 1
vt 0.655287 1
vt 0.000261029 0.264078
vt 0.0077351 0.264078
vt 0.0114023 0.264078
vt 0.0241423 0.264078
vt 0.0438651 0.264078
vt 0.0389938 0.756673
vt 0.0505186 0.756673
vt 0.077965 0.264078
vt 0.115392 0.264078
vt 0.00756797 0.756673
vt 0.0640631 0.756673
vt 0.0842018 0.756673
vt 0.104043 0.756673
vt 0.123529 0.756673
vt 0.144915 0.264078
vt 0.0205779 0.756673
vt 0.17433 0.264078
vt 0.211518 0.264078
vt 0.141291 0.756673
vt 0.160657 0.756673
vt 0.180855 0.756673
vt 0.200697 0.756673
vt 0.220182 0.756673
vt 0.241034 0.264078
vt 0.236697 0.756673
vt 0.270793 0.264078
vt 0.307933 0.264078
vt 0.244539 0.756673
vt 0.256836 0.756673
vt 0.276974 0.756673
vt 0.297113 0.756673
vt 0.317014 0.756673
vt 0.334301 0.264078
vt 0.000261029 0.756673
vt 0.334183 0.756673
vt 0.351291 0.264078
vt 0.347133 0.756673
vt 0.375826 0.264078
vt 0.370836 0.756673
vt 0.359133 0.756673
vt 0.409934 0.264078
vt 0.447522 0.264078
vt 0.381945 0.756673
vt 0.396024 0.756673
vt 0.415628 0.756673
vt 0.435351 0.756673
vt 0.45543 0.756673
vt 0.477113 0.264078
vt 0.47343 0.756673
vt 0.506445 0.264078
vt 0.543989 0.264078
vt 0.488579 0.756673
vt 0.499688 0.756673
vt 0.519114 0.756673
vt 0.538896 0.756673
vt 0.578223 0.264078
vt 0.554044 0.756673
vt 0.569846 0.756673
vt 0.61254 0.264078
vt 0.650413 0.264078
vt 0.577747 0.756673
vt 0.597827 0.756673
vt 0.61749 0.756673
vt 0.63745 0.756673
vt 0.650503 0.756673
vt 0.654141 0.756673


# Vertex Surface Normals: 
vn 0 0 1
vn 0 0 -1
vn 0.951192 0.3086 0
vn 0.951192 0.3086 9.01464e-17
vn 0.951192 0.3086 9.01464e-17
vn 0.951192 0.3086 -9.01464e-17
vn 0.951192 0.3086 -9.01464e-17
vn -0.309398 0.950933 0
vn -0.309398 0.950933 -1.45894e-17
vn -0.564591 0.825371 1.07937e-17
vn -0.564591 0.825371 -1.07937e-17
vn -0.309398 0.950933 1.45894e-17
vn -0.774115 0.633045 0
vn -0.774115 0.633045 3.53038e-17
vn -0.774115 0.633045 -3.53038e-17
vn 0 1 0
vn 0 1 0
vn 0 1 0
vn 0 1 0
vn 0 1 0
vn 0.751826 0.659361 0
vn 0.751826 0.659361 0
vn 0.751826 0.659361 0
vn 0.751826 0.659361 0
vn 0.751826 0.659361 0
vn 0 1 0
vn 0 1 0
vn 0 1 0
vn 0 1 0
vn 0 1 0
vn -0.968115 0.250506 0
vn -0.968115 0.250506 -9.14745e-17
vn -0.968115 0.250506 -9.14745e-17
vn -0.968115 0.250506 9.14745e-17
vn -0.968115 0.250506 9.14745e-17
vn -0.317698 0.948192 0
vn -0.317698 0.948192 -1.3603e-17
vn -0.00334417 0.999994 -1.02159e-17
vn -0.00334417 0.999994 1.02159e-17
vn -0.317698 0.948192 1.3603e-17
vn 0.311349 0.950296 0
vn 0.311349 0.950296 -5.79191e-18
vn 0.311349 0.950296 5.79191e-18
vn 0.981517 0.191373 0
vn 0.981517 0.191373 -2.30987e-17
vn 0.981517 0.191373 -2.30987e-17
vn 0.981517 0.191373 2.30987e-17
vn 0.981517 0.191373 2.30987e-17
vn 0 1 0
vn 0 1 0
vn 0 1 0
vn 0 1 0
vn 0 1 0
vn -0.75505 0.655667 0
vn -0.75505 0.655667 -1.5847e-17
vn -0.75505 0.655667 -1.5847e-17
vn -0.75505 0.655667 1.5847e-17
vn -0.75505 0.655667 1.5847e-17
vn 0 1 0
vn 0 1 0
vn 0 1 0
vn 0 1 0
vn 0 1 0
vn 0.754977 0.655751 0
vn 0.754977 0.655751 8.25198e-18
vn 0.754977 0.655751 8.25198e-18
vn 0.754977 0.655751 -8.25198e-18
vn 0.754977 0.655751 -8.25198e-18
vn 0.00923851 0.999957 0
vn 0.00923851 0.999957 1.08699e-19
vn 0.00923851 0.999957 1.08699e-19
vn 0.00923851 0.999957 -1.08699e-19
vn 0.00923851 0.999957 -1.08699e-19
vn -0.966526 0.256568 0
vn -0.966526 0.256568 -1.13715e-17
vn -0.966526 0.256568 -1.13715e-17
vn -0.966526 0.256568 1.13715e-17
vn -0.966526 0.256568 1.13715e-17
vn -0.307246 0.95163 0
vn -0.307246 0.95163 -1.93603e-18
vn -0.000128095 1 1.04681e-18
vn -0.000128095 1 -1.04681e-18
vn -0.307246 0.95163 1.93603e-18
vn 0.307002 0.951709 0
vn 0.307002 0.951709 3.92847e-18
vn 0.307002 0.951709 -3.92847e-18
vn 0.954125 0.299408 0
vn 0.954125 0.299408 0
vn 0.954125 0.299408 0
vn 0.954125 0.299408 0
vn 0.954125 0.299408 0
vn 0 1 0
vn 0 1 0
vn 0 1 0
vn 0 1 0
vn 0 1 0
vn -0.769604 0.638522 0
vn -0.769604 0.638522 -9.09007e-18
vn -0.769604 0.638522 -9.09007e-18
vn -0.769604 0.638522 9.09007e-18
vn -0.769604 0.638522 9.09007e-18
vn 0 1 0
vn 0 1 0
vn 0 1 0
vn 0 1 0
vn 0 1 0
vn 0.771742 0.635936 0
vn 0.771742 0.635936 -1.79627e-17
vn 0.771742 0.635936 -1.79627e-17
vn 0.771742 0.635936 1.79627e-17
vn 0.771742 0.635936 1.79627e-17
vn 0 1 0
vn 0 1 0
vn 0 1 0
vn 0 1 0
vn 0 1 0
vn -0.966607 0.256265 0
vn -0.966607 0.256265 3.96019e-19
vn -0.966607 0.256265 3.96019e-19
vn -0.966607 0.256265 -3.96019e-19
vn -0.966607 0.256265 -3.96019e-19
vn -0.307661 0.951496 0
vn -0.307661 0.951496 0
vn 1.36166e-05 1 -7.22018e-18
vn 1.36166e-05 1 7.22018e-18
vn -0.307661 0.951496 0
vn 0.307687 0.951488 0
vn 0.307687 0.951488 -1.37399e-17
vn 0.307687 0.951488 1.37399e-17
vn 0.975853 0.218429 0
vn 0.975853 0.218429 4.55842e-17
vn 0.975853 0.218429 4.55842e-17
vn 0.975853 0.218429 -4.55842e-17
vn 0.975853 0.218429 -4.55842e-17
vn 0 1 0
vn 0 1 0
vn 0 1 0
vn 0 1 0
vn 0 1 0
vn -0.759192 0.650866 0
vn -0.759192 0.650866 6.92636e-17
vn -0.759192 0.650866 6.92636e-17
vn -0.759192 0.650866 -6.92636e-17
vn -0.759192 0.650866 -6.92636e-17
vn 0 1 0
vn 0 1 0
vn 0 1 0
vn 0 1 0
vn 0 1 0
vn 0.778424 0.627738 0
vn 0.778424 0.627738 0
vn 0.778424 0.627738 0
vn 0.778424 0.627738 0
vn 0.778424 0.627738 0
vn 0 1 0
vn 0 1 0
vn 0 1 0
vn 0 1 0
vn 0 1 0
vn -1 0 0
vn -1 0 0
vn -1 0 0
vn -1 0 0
vn -1 0 0
vn 0 -1 0
vn 0 -1 0
vn 0 -1 0
vn 0 -1 0
vn 0 -1 0
vn -0.778417 -0.627747 0
vn -0.778417 -0.627747 3.5774e-17
vn -0.778417 -0.627747 3.5774e-17
vn -0.778417 -0.627747 -3.5774e-17
vn -0.778417 -0.627747 -3.5774e-17
vn -0.00951484 -0.999955 0
vn -0.00951484 -0.999955 -2.90957e-18
vn -0.00951484 -0.999955 -2.90957e-18
vn -0.00951484 -0.999955 2.90957e-18
vn -0.00951484 -0.999955 2.90957e-18
vn 0.759192 -0.650866 0
vn 0.759192 -0.650866 0
vn 0.759192 -0.650866 0
vn 0.759192 -0.650866 0
vn 0.759192 -0.650866 0
vn 0 -1 0
vn 0 -1 0
vn 0 -1 0
vn 0 -1 0
vn 0 -1 0
vn -0.975828 -0.218539 0
vn -0.975828 -0.218539 -4.5939e-17
vn -0.975828 -0.218539 -4.5939e-17
vn -0.975828 -0.218539 4.5939e-17
vn -0.975828 -0.218539 4.5939e-17
vn -0.307691 -0.951486 0
vn -0.307691 -0.951486 0
vn -1.49699e-05 -1 4.03315e-18
vn -1.49699e-05 -1 -4.03315e-18
vn -0.307691 -0.951486 0
vn 0.307662 -0.951496 0
vn 0.307662 -0.951496 7.67501e-18
vn 0.307662 -0.951496 -7.67501e-18
vn 0.966619 -0.256217 0
vn 0.966619 -0.256217 2.27153e-17
vn 0.966619 -0.256217 2.27153e-17
vn 0.966619 -0.256217 -2.27153e-17
vn 0.966619 -0.256217 -2.27153e-17
vn 0 -1 0
vn 0 -1 0
vn 0 -1 0
vn 0 -1 0
vn 0 -1 0
vn -0.771742 -0.635936 0
vn -0.771742 -0.635936 1.79627e-17
vn -0.771742 -0.635936 1.79627e-17
vn -0.771742 -0.635936 -1.79627e-17
vn -0.771742 -0.635936 -1.79627e-17
vn 0 -1 0
vn 0 -1 0
vn 0 -1 0
vn 0 -1 0
vn 0 -1 0
vn 0.769604 -0.638522 0
vn 0.769604 -0.638522 9.09007e-18
vn 0.769604 -0.638522 9.09007e-18
vn 0.769604 -0.638522 -9.09007e-18
vn 0.769604 -0.638522 -9.09007e-18
vn 0 -1 0
vn 0 -1 0
vn 0 -1 0
vn 0 -1 0
vn 0 -1 0
vn -0.954157 -0.299306 0
vn -0.954157 -0.299306 -1.12077e-17
vn -0.954157 -0.299306 -1.12077e-17
vn -0.954157 -0.299306 1.12077e-17
vn -0.954157 -0.299306 1.12077e-17
vn -0.306996 -0.951711 0
vn -0.306996 -0.951711 -1.94516e-18
vn -0.000501092 -1 -1.02176e-18
vn -0.000501092 -1 1.02176e-18
vn -0.306996 -0.951711 1.94516e-18
vn 0.306042 -0.952018 0
vn 0.306042 -0.952018 0
vn 0.306042 -0.952018 0
vn 0.943395 -0.33167 0
vn 0.943395 -0.33167 0
vn 0.943395 -0.33167 0
vn 0.943395 -0.33167 0
vn 0.943395 -0.33167 0
vn 0 -1 0
vn 0 -1 0
vn 0 -1 0
vn 0 -1 0
vn 0 -1 0
vn -0.754968 -0.655762 0
vn -0.754968 -0.655762 0
vn -0.754968 -0.655762 0
vn -0.754968 -0.655762 0
vn -0.754968 -0.655762 0
vn 0 -1 0
vn 0 -1 0
vn 0 -1 0
vn 0 -1 0
vn 0 -1 0
vn 0.755037 -0.655682 0
vn 0.755037 -0.655682 0
vn 0.755037 -0.655682 0
vn 0.755037 -0.655682 0
vn 0.755037 -0.655682 0
vn 0 -1 0
vn 0 -1 0
vn 0 -1 0
vn 0 -1 0
vn 0 -1 0
vn -0.981499 -0.19147 0
vn -0.981499 -0.19147 2.22631e-19
vn -0.981499 -0.19147 2.22631e-19
vn -0.981499 -0.19147 -2.22631e-19
vn -0.981499 -0.19147 -2.22631e-19
vn -0.311347 -0.950296 0
vn -0.311347 -0.950296 7.64072e-18
vn 0.00268311 -0.999996 5.03257e-18
vn 0.00268311 -0.999996 -5.03257e-18
vn -0.311347 -0.950296 -7.64072e-18
vn 0.316442 -0.948612 0
vn 0.316442 -0.948612 1.91571e-18
vn 0.316442 -0.948612 -1.91571e-18
vn 0.968155 -0.250353 0
vn 0.968155 -0.250353 0
vn 0.968155 -0.250353 0
vn 0.968155 -0.250353 0
vn 0.968155 -0.250353 0
vn 0 -1 0
vn 0 -1 0
vn 0 -1 0
vn 0 -1 0
vn 0 -1 0
vn -0.751826 -0.659361 0
vn -0.751826 -0.659361 3.54997e-17
vn -0.751826 -0.659361 3.54997e-17
vn -0.751826 -0.659361 -3.54997e-17
vn -0.751826 -0.659361 -3.54997e-17
vn 0 -1 0
vn 0 -1 0
vn 0 -1 0
vn 0 -1 0
vn 0 -1 0
vn 0.774201 -0.63294 0
vn 0.774201 -0.63294 -3.74987e-17
vn 0.564567 -0.825387 -2.63572e-17
vn 0.564567 -0.825387 2.63572e-17
vn 0.774201 -0.63294 3.74987e-17
vn 0.309213 -0.950993 0
vn 0.309213 -0.950993 -1.30813e-17
vn 0.309213 -0.950993 1.30813e-17


# Faces: 
usemtl material0
f 103/37/1 98/32/1 102/36/1
f 98/32/1 103/37/1 104/38/1
f 105/39/1 97/31/1 104/38/1
f 104/38/1 97/31/1 98/32/1
f 94/28/1 107/41/1 108/42/1
f 108/42/1 93/27/1 94/28/1
f 92/26/1 93/27/1 108/42/1
f 106/40/1 107/41/1 94/28/1
f 89/23/1 112/46/1 113/47/1
f 114/48/1 88/22/1 113/47/1
f 113/47/1 88/22/1 89/23/1
f 111/45/1 112/46/1 89/23/1
f 117/51/1 85/19/1 116/50/1
f 109/43/1 92/26/1 108/42/1
f 85/19/1 115/49/1 116/50/1
f 101/35/1 102/36/1 100/34/1
f 105/39/1 106/40/1 96/30/1
f 96/30/1 97/31/1 105/39/1
f 98/32/1 99/33/1 102/36/1
f 99/33/1 100/34/1 102/36/1
f 95/29/1 96/30/1 106/40/1
f 94/28/1 95/29/1 106/40/1
f 91/25/1 92/26/1 110/44/1
f 91/25/1 110/44/1 90/24/1
f 110/44/1 92/26/1 109/43/1
f 90/24/1 110/44/1 111/45/1
f 115/49/1 86/20/1 87/21/1
f 90/24/1 111/45/1 89/23/1
f 86/20/1 115/49/1 85/19/1
f 115/49/1 87/21/1 114/48/1
f 88/22/1 114/48/1 87/21/1
f 85/19/1 117/51/1 84/18/1
f 117/51/1 118/52/1 84/18/1
f 80/14/1 121/55/1 122/56/1
f 80/14/1 122/56/1 79/13/1
f 120/54/1 121/55/1 80/14/1
f 75/9/1 76/10/1 126/60/1
f 122/56/1 123/57/1 79/13/1
f 125/59/1 126/60/1 76/10/1
f 75/9/1 126/60/1 74/8/1
f 71/5/1 130/64/1 70/4/1
f 70/4/1 131/65/1 132/66/1
f 131/65/1 70/4/1 130/64/1
f 69/3/1 132/66/1 68/2/1
f 132/66/1 69/3/1 70/4/1
f 67/1/1 68/2/1 132/66/1
f 130/64/1 71/5/1 129/63/1
f 83/17/1 118/52/1 119/53/1
f 118/52/1 83/17/1 84/18/1
f 119/53/1 120/54/1 81/15/1
f 78/12/1 79/13/1 123/57/1
f 83/17/1 119/53/1 82/16/1
f 81/15/1 82/16/1 119/53/1
f 78/12/1 123/57/1 124/58/1
f 120/54/1 80/14/1 81/15/1
f 77/11/1 124/58/1 76/10/1
f 74/8/1 127/61/1 128/62/1
f 124/58/1 125/59/1 76/10/1
f 128/62/1 129/63/1 72/6/1
f 72/6/1 129/63/1 71/5/1
f 128/62/1 72/6/1 73/7/1
f 74/8/1 128/62/1 73/7/1
f 124/58/1 77/11/1 78/12/1
f 127/61/1 74/8/1 126/60/1
f 32/98/2 37/103/2 36/102/2
f 37/103/2 32/98/2 38/104/2
f 31/97/2 39/105/2 38/104/2
f 31/97/2 38/104/2 32/98/2
f 41/107/2 28/94/2 42/108/2
f 27/93/2 42/108/2 28/94/2
f 27/93/2 26/92/2 42/108/2
f 41/107/2 40/106/2 28/94/2
f 46/112/2 23/89/2 47/113/2
f 22/88/2 48/114/2 47/113/2
f 22/88/2 47/113/2 23/89/2
f 46/112/2 45/111/2 23/89/2
f 19/85/2 51/117/2 50/116/2
f 26/92/2 43/109/2 42/108/2
f 49/115/2 19/85/2 50/116/2
f 36/102/2 35/101/2 34/100/2
f 40/106/2 39/105/2 30/96/2
f 31/97/2 30/96/2 39/105/2
f 33/99/2 32/98/2 36/102/2
f 34/100/2 33/99/2 36/102/2
f 30/96/2 29/95/2 40/106/2
f 29/95/2 28/94/2 40/106/2
f 26/92/2 25/91/2 44/110/2
f 44/110/2 25/91/2 24/90/2
f 26/92/2 44/110/2 43/109/2
f 44/110/2 24/90/2 45/111/2
f 20/86/2 49/115/2 21/87/2
f 45/111/2 24/90/2 23/89/2
f 49/115/2 20/86/2 19/85/2
f 21/87/2 49/115/2 48/114/2
f 48/114/2 22/88/2 21/87/2
f 51/117/2 19/85/2 18/84/2
f 52/118/2 51/117/2 18/84/2
f 55/121/2 14/80/2 56/122/2
f 56/122/2 14/80/2 13/79/2
f 55/121/2 54/120/2 14/80/2
f 10/76/2 9/75/2 60/126/2
f 57/123/2 56/122/2 13/79/2
f 60/126/2 59/125/2 10/76/2
f 60/126/2 9/75/2 8/74/2
f 64/130/2 5/71/2 4/70/2
f 65/131/2 4/70/2 66/132/2
f 4/70/2 65/131/2 64/130/2
f 66/132/2 3/69/2 2/68/2
f 3/69/2 66/132/2 4/70/2
f 2/68/2 1/67/2 66/132/2
f 5/71/2 64/130/2 63/129/2
f 52/118/2 17/83/2 53/119/2
f 17/83/2 52/118/2 18/84/2
f 54/120/2 53/119/2 15/81/2
f 13/79/2 12/78/2 57/123/2
f 53/119/2 17/83/2 16/82/2
f 16/82/2 15/81/2 53/119/2
f 57/123/2 12/78/2 58/124/2
f 14/80/2 54/120/2 15/81/2
f 58/124/2 11/77/2 10/76/2
f 61/127/2 8/74/2 62/128/2
f 59/125/2 58/124/2 10/76/2
f 63/129/2 62/128/2 6/72/2
f 63/129/2 6/72/2 5/71/2
f 6/72/2 62/128/2 7/73/2
f 62/128/2 8/74/2 7/73/2
f 11/77/2 58/124/2 12/78/2
f 8/74/2 61/127/2 60/126/2
f 133/381/3 1/133/4 2/134/5
f 133/381/3 2/134/5 68/258/6
f 133/381/3 68/258/6 67/257/7
f 133/381/3 67/257/7 1/133/4
f 134/382/8 2/135/9 3/136/10
f 134/382/8 3/136/10 69/260/11
f 134/382/8 69/260/11 68/259/12
f 134/382/8 68/259/12 2/135/9
f 135/383/13 3/136/10 4/137/14
f 135/383/13 4/137/14 70/261/15
f 135/383/13 70/261/15 69/260/11
f 135/383/13 69/260/11 3/136/10
f 136/384/16 4/138/17 5/139/18
f 136/384/16 5/139/18 71/263/19
f 136/384/16 71/263/19 70/262/20
f 136/384/16 70/262/20 4/138/17
f 137/385/21 5/140/22 6/141/23
f 137/385/21 6/141/23 72/265/24
f 137/385/21 72/265/24 71/264/25
f 137/385/21 71/264/25 5/140/22
f 138/386/26 6/142/27 7/143/28
f 138/386/26 7/143/28 73/267/29
f 138/386/26 73/267/29 72/266/30
f 138/386/26 72/266/30 6/142/27
f 139/387/31 7/144/32 8/145/33
f 139/387/31 8/145/33 74/269/34
f 139/387/31 74/269/34 73/268/35
f 139/387/31 73/268/35 7/144/32
f 140/388/36 8/146/37 9/147/38
f 140/388/36 9/147/38 75/271/39
f 140/388/36 75/271/39 74/270/40
f 140/388/36 74/270/40 8/146/37
f 141/389/41 9/147/38 10/148/42
f 141/389/41 10/148/42 76/272/43
f 141/389/41 76/272/43 75/271/39
f 141/389/41 75/271/39 9/147/38
f 142/390/44 10/149/45 11/150/46
f 142/390/44 11/150/46 77/274/47
f 142/390/44 77/274/47 76/273/48
f 142/390/44 76/273/48 10/149/45
f 143/391/49 11/151/50 12/152/51
f 143/391/49 12/152/51 78/276/52
f 143/391/49 78/276/52 77/275/53
f 143/391/49 77/275/53 11/151/50
f 144/392/54 12/153/55 13/154/56
f 144/392/54 13/154/56 79/278/57
f 144/392/54 79/278/57 78/277/58
f 144/392/54 78/277/58 12/153/55
f 145/393/59 13/155/60 14/156/61
f 145/393/59 14/156/61 80/280/62
f 145/393/59 80/280/62 79/279/63
f 145/393/59 79/279/63 13/155/60
f 146/394/64 14/157/65 15/158/66
f 146/394/64 15/158/66 81/282/67
f 146/394/64 81/282/67 80/281/68
f 146/394/64 80/281/68 14/157/65
f 147/395/69 15/159/70 16/160/71
f 147/395/69 16/160/71 82/284/72
f 147/395/69 82/284/72 81/283/73
f 147/395/69 81/283/73 15/159/70
f 148/396/74 16/161/75 17/162/76
f 148/396/74 17/162/76 83/286/77
f 148/396/74 83/286/77 82/285/78
f 148/396/74 82/285/78 16/161/75
f 149/397/79 17/163/80 18/164/81
f 149/397/79 18/164/81 84/288/82
f 149/397/79 84/288/82 83/287/83
f 149/397/79 83/287/83 17/163/80
f 150/398/84 18/164/81 19/165/85
f 150/398/84 19/165/85 85/289/86
f 150/398/84 85/289/86 84/288/82
f 150/398/84 84/288/82 18/164/81
f 151/399/87 19/166/88 20/167/89
f 151/399/87 20/167/89 86/291/90
f 151/399/87 86/291/90 85/290/91
f 151/399/87 85/290/91 19/166/88
f 152/400/92 20/168/93 21/169/94
f 152/400/92 21/169/94 87/293/95
f 152/400/92 87/293/95 86/292/96
f 152/400/92 86/292/96 20/168/93
f 153/401/97 21/170/98 22/171/99
f 153/401/97 22/171/99 88/295/100
f 153/401/97 88/295/100 87/294/101
f 153/401/97 87/294/101 21/170/98
f 154/402/102 22/172/103 23/173/104
f 154/402/102 23/173/104 89/297/105
f 154/402/102 89/297/105 88/296/106
f 154/402/102 88/296/106 22/172/103
f 155/403/107 23/174/108 24/175/109
f 155/403/107 24/175/109 90/299/110
f 155/403/107 90/299/110 89/298/111
f 155/403/107 89/298/111 23/174/108
f 156/404/112 24/176/113 25/177/114
f 156/404/112 25/177/114 91/301/115
f 156/404/112 91/301/115 90/300/116
f 156/404/112 90/300/116 24/176/113
f 157/405/117 25/178/118 26/179/119
f 157/405/117 26/179/119 92/303/120
f 157/405/117 92/303/120 91/302/121
f 157/405/117 91/302/121 25/178/118
f 158/406/122 26/180/123 27/181/124
f 158/406/122 27/181/124 93/305/125
f 158/406/122 93/305/125 92/304/126
f 158/406/122 92/304/126 26/180/123
f 159/407/127 27/181/124 28/182/128
f 159/407/127 28/182/128 94/306/129
f 159/407/127 94/306/129 93/305/125
f 159/407/127 93/305/125 27/181/124
f 160/408/130 28/183/131 29/184/132
f 160/408/130 29/184/132 95/308/133
f 160/408/130 95/308/133 94/307/134
f 160/408/130 94/307/134 28/183/131
f 161/409/135 29/185/136 30/186/137
f 161/409/135 30/186/137 96/310/138
f 161/409/135 96/310/138 95/309/139
f 161/409/135 95/309/139 29/185/136
f 162/410/140 30/187/141 31/188/142
f 162/410/140 31/188/142 97/312/143
f 162/410/140 97/312/143 96/311/144
f 162/410/140 96/311/144 30/187/141
f 163/411/145 31/189/146 32/190/147
f 163/411/145 32/190/147 98/314/148
f 163/411/145 98/314/148 97/313/149
f 163/411/145 97/313/149 31/189/146
f 164/412/150 32/191/151 33/192/152
f 164/412/150 33/192/152 99/316/153
f 164/412/150 99/316/153 98/315/154
f 164/412/150 98/315/154 32/191/151
f 165/413/155 33/193/156 34/194/157
f 165/413/155 34/194/157 100/318/158
f 165/413/155 100/318/158 99/317/159
f 165/413/155 99/317/159 33/193/156
f 166/414/160 34/195/161 35/196/162
f 166/414/160 35/196/162 101/320/163
f 166/414/160 101/320/163 100/319/164
f 166/414/160 100/319/164 34/195/161
f 167/415/165 35/197/166 36/198/167
f 167/415/165 36/198/167 102/322/168
f 167/415/165 102/322/168 101/321/169
f 167/415/165 101/321/169 35/197/166
f 168/416/170 36/199/171 37/200/172
f 168/416/170 37/200/172 103/324/173
f 168/416/170 103/324/173 102/323/174
f 168/416/170 102/323/174 36/199/171
f 169/417/175 37/201/176 38/202/177
f 169/417/175 38/202/177 104/326/178
f 169/417/175 104/326/178 103/325/179
f 169/417/175 103/325/179 37/201/176
f 170/418/180 38/203/181 39/204/182
f 170/418/180 39/204/182 105/328/183
f 170/418/180 105/328/183 104/327/184
f 170/418/180 104/327/184 38/203/181
f 171/419/185 39/205/186 40/206/187
f 171/419/185 40/206/187 106/330/188
f 171/419/185 106/330/188 105/329/189
f 171/419/185 105/329/189 39/205/186
f 172/420/190 40/207/191 41/208/192
f 172/420/190 41/208/192 107/332/193
f 172/420/190 107/332/193 106/331/194
f 172/420/190 106/331/194 40/207/191
f 173/421/195 41/209/196 42/210/197
f 173/421/195 42/210/197 108/334/198
f 173/421/195 108/334/198 107/333/199
f 173/421/195 107/333/199 41/209/196
f 174/422/200 42/210/197 43/211/201
f 174/422/200 43/211/201 109/335/202
f 174/422/200 109/335/202 108/334/198
f 174/422/200 108/334/198 42/210/197
f 175/423/203 43/212/204 44/213/205
f 175/423/203 44/213/205 110/337/206
f 175/423/203 110/337/206 109/336/207
f 175/423/203 109/336/207 43/212/204
f 176/424/208 44/214/209 45/215/210
f 176/424/208 45/215/210 111/339/211
f 176/424/208 111/339/211 110/338/212
f 176/424/208 110/338/212 44/214/209
f 177/425/213 45/216/214 46/217/215
f 177/425/213 46/217/215 112/341/216
f 177/425/213 112/341/216 111/340/217
f 177/425/213 111/340/217 45/216/214
f 178/426/218 46/218/219 47/219/220
f 178/426/218 47/219/220 113/343/221
f 178/426/218 113/343/221 112/342/222
f 178/426/218 112/342/222 46/218/219
f 179/427/223 47/220/224 48/221/225
f 179/427/223 48/221/225 114/345/226
f 179/427/223 114/345/226 113/344/227
f 179/427/223 113/344/227 47/220/224
f 180/428/228 48/222/229 49/223/230
f 180/428/228 49/223/230 115/347/231
f 180/428/228 115/347/231 114/346/232
f 180/428/228 114/346/232 48/222/229
f 181/429/233 49/224/234 50/225/235
f 181/429/233 50/225/235 116/349/236
f 181/429/233 116/349/236 115/348/237
f 181/429/233 115/348/237 49/224/234
f 182/430/238 50/226/239 51/227/240
f 182/430/238 51/227/240 117/351/241
f 182/430/238 117/351/241 116/350/242
f 182/430/238 116/350/242 50/226/239
f 183/431/243 51/227/240 52/228/244
f 183/431/243 52/228/244 118/352/245
f 183/431/243 118/352/245 117/351/241
f 183/431/243 117/351/241 51/227/240
f 184/432/246 52/229/247 53/230/248
f 184/432/246 53/230/248 119/354/249
f 184/432/246 119/354/249 118/353/250
f 184/432/246 118/353/250 52/229/247
f 185/433/251 53/231/252 54/232/253
f 185/433/251 54/232/253 120/356/254
f 185/433/251 120/356/254 119/355/255
f 185/433/251 119/355/255 53/231/252
f 186/434/256 54/233/257 55/234/258
f 186/434/256 55/234/258 121/358/259
f 186/434/256 121/358/259 120/357/260
f 186/434/256 120/357/260 54/233/257
f 187/435/261 55/235/262 56/236/263
f 187/435/261 56/236/263 122/360/264
f 187/435/261 122/360/264 121/359/265
f 187/435/261 121/359/265 55/235/262
f 188/436/266 56/237/267 57/238/268
f 188/436/266 57/238/268 123/362/269
f 188/436/266 123/362/269 122/361/270
f 188/436/266 122/361/270 56/237/267
f 189/437/271 57/239/272 58/240/273
f 189/437/271 58/240/273 124/364/274
f 189/437/271 124/364/274 123/363/275
f 189/437/271 123/363/275 57/239/272
f 190/438/276 58/241/277 59/242/278
f 190/438/276 59/242/278 125/366/279
f 190/438/276 125/366/279 124/365/280
f 190/438/276 124/365/280 58/241/277
f 191/439/281 59/243/282 60/244/283
f 191/439/281 60/244/283 126/368/284
f 191/439/281 126/368/284 125/367/285
f 191/439/281 125/367/285 59/243/282
f 192/440/286 60/244/283 61/245/287
f 192/440/286 61/245/287 127/369/288
f 192/440/286 127/369/288 126/368/284
f 192/440/286 126/368/284 60/244/283
f 193/441/289 61/246/290 62/247/291
f 193/441/289 62/247/291 128/371/292
f 193/441/289 128/371/292 127/370/293
f 193/441/289 127/370/293 61/246/290
f 194/442/294 62/248/295 63/249/296
f 194/442/294 63/249/296 129/373/297
f 194/442/294 129/373/297 128/372/298
f 194/442/294 128/372/298 62/248/295
f 195/443/299 63/250/300 64/251/301
f 195/443/299 64/251/301 130/375/302
f 195/443/299 130/375/302 129/374/303
f 195/443/299 129/374/303 63/250/300
f 196/444/304 64/252/305 65/253/306
f 196/444/304 65/253/306 131/377/307
f 196/444/304 131/377/307 130/376/308
f 196/444/304 130/376/308 64/252/305
f 197/445/309 65/254/310 66/255/311
f 197/445/309 66/255/311 132/379/312
f 197/445/309 132/379/312 131/378/313
f 197/445/309 131/378/313 65/254/310
f 198/446/314 66/255/311 1/256/315
f 198/446/314 1/256/315 67/380/316
f 198/446/314 67/380/316 132/379/312
f 198/446/314 132/379/312 66/255/311
