mtllib Diamond Rib 36-Updated.mtl
# Vertex Positions: 
g groupNumber_0
v 13.7003 -0.249461 -16.9263
v 13.7003 -0.231811 -16.9263
v 13.5915 -0.231811 -16.9263
v 13.0955 0.264164 -16.9263
v 12.8248 0.264164 -16.9263
v 12.796 0.216126 -16.9263
v 12.7772 0.197668 -16.9263
v 12.7517 0.190961 -16.9263
v 12.7262 0.197567 -16.9263
v 12.7074 0.215885 -16.9263
v 12.6768 0.266508 -16.9263
v 12.3494 0.266508 -16.9263
v 11.8614 -0.246186 -16.9263
v 11.3078 -0.246186 -16.9263
v 11.2476 -0.167572 -16.9263
v 10.8961 -0.167572 -16.9263
v 10.8471 -0.236086 -16.9263
v 10.3133 -0.236086 -16.9263
v 10.2769 -0.177155 -16.9263
v 9.89934 -0.177155 -16.9263
v 9.84818 -0.243997 -16.9263
v 9.27859 -0.243997 -16.9263
v 8.81018 0.267198 -16.9263
v 8.02561 0.267198 -16.9263
v 7.55627 -0.23138 -16.9263
v 6.99616 -0.23138 -16.9263
v 6.957 -0.172536 -16.9263
v 6.59786 -0.172536 -16.9263
v 6.5426 -0.249427 -16.9263
v 5.99897 -0.249427 -16.9263
v 5.95191 -0.187342 -16.9263
v 5.58516 -0.187342 -16.9263
v 5.5391 -0.245325 -16.9263
v 4.98554 -0.245325 -16.9263
v 4.52316 0.264302 -16.9263
v 3.7467 0.267198 -16.9263
v 3.25998 -0.241533 -16.9263
v 2.707 -0.241533 -16.9263
v 2.66487 -0.171295 -16.9263
v 2.27551 -0.171295 -16.9263
v 2.22986 -0.241395 -16.9263
v 1.69619 -0.241395 -16.9263
v 1.655 -0.176379 -16.9263
v 1.2991 -0.176379 -16.9263
v 1.24388 -0.231811 -16.9263
v 0.695107 -0.231811 -16.9263
v 0.197597 0.265715 -16.9263
v -0.572436 0.265715 -16.9263
v -1.04464 -0.231811 -16.9263
v -1.60712 -0.231811 -16.9263
v -1.64597 -0.174535 -16.9263
v -2.01984 -0.174535 -16.9263
v -2.06808 -0.24317 -16.9263
v -2.62032 -0.24317 -16.9263
v -2.65941 -0.179878 -16.9263
v -3.02404 -0.179878 -16.9263
v -3.07565 -0.245463 -16.9263
v -3.64293 -0.245463 -16.9263
v -4.09613 0.265819 -16.9263
v -4.87943 0.268783 -16.9263
v -5.35431 -0.231811 -16.9263
v -5.9031 -0.231811 -16.9263
v -5.94512 -0.173087 -16.9263
v -6.31713 -0.173087 -16.9263
v -6.37699 -0.249703 -16.9263
v -6.90506 -0.249703 -16.9263
v -6.96124 -0.184963 -16.9263
v -7.32997 -0.184963 -16.9263
v -7.3636 -0.243377 -16.9263
v -7.97142 -0.243377 -16.9263
v -8.40833 0.268783 -16.9263
v -9.18065 0.268783 -16.9263
v -9.67132 -0.238844 -16.9263
v -10.2281 -0.238844 -16.9263
v -10.268 -0.181723 -16.9263
v -10.6097 -0.181723 -16.9263
v -10.6615 -0.251133 -16.9263
v -11.2068 -0.251133 -16.9263
v -11.2483 -0.181723 -16.9263
v -11.6317 -0.181723 -16.9263
v -11.677 -0.238844 -16.9263
v -12.2993 -0.238844 -16.9263
v -12.6947 0.268783 -16.9263
v -13.4881 0.268783 -16.9263
v -13.6426 0.0765982 -16.9263
v -13.7003 -0.0773911 -16.9263
v -13.6838 -0.0835617 -16.9263
v -13.6279 0.0666529 -16.9263
v -13.4796 0.251133 -16.9263
v -12.7034 0.251133 -16.9263
v -12.3079 -0.256494 -16.9263
v -11.6685 -0.256494 -16.9263
v -11.6232 -0.199373 -16.9263
v -11.2583 -0.199373 -16.9263
v -11.2169 -0.268783 -16.9263
v -10.6526 -0.268783 -16.9263
v -10.6008 -0.199373 -16.9263
v -10.2772 -0.199373 -16.9263
v -10.2373 -0.256494 -16.9263
v -9.66384 -0.256494 -16.9263
v -9.17317 0.251133 -16.9263
v -8.41646 0.251133 -16.9263
v -7.97956 -0.261027 -16.9263
v -7.3534 -0.261027 -16.9263
v -7.31977 -0.202613 -16.9263
v -6.9693 -0.202613 -16.9263
v -6.9131 -0.267353 -16.9263
v -6.36838 -0.267353 -16.9263
v -6.30851 -0.190737 -16.9263
v -5.95419 -0.190737 -16.9263
v -5.91216 -0.249461 -16.9263
v -5.34673 -0.249461 -16.9263
v -4.87185 0.251133 -16.9263
v -4.10671 0.251133 -16.9263
v -3.6535 -0.260148 -16.9263
v -3.06707 -0.263113 -16.9263
v -3.01546 -0.197528 -16.9263
v -2.66925 -0.197528 -16.9263
v -2.63014 -0.26082 -16.9263
v -2.05891 -0.26082 -16.9263
v -2.01067 -0.192185 -16.9263
v -1.65531 -0.192185 -16.9263
v -1.61646 -0.249461 -16.9263
v -1.03706 -0.249461 -16.9263
v -0.564852 0.248065 -16.9263
v 0.190289 0.248065 -16.9263
v 0.687798 -0.249461 -16.9263
v 1.25119 -0.249461 -16.9263
v 1.30641 -0.194029 -16.9263
v 1.64528 -0.194029 -16.9263
v 1.68647 -0.259045 -16.9263
v 2.23945 -0.259045 -16.9263
v 2.28509 -0.188945 -16.9263
v 2.65488 -0.188945 -16.9263
v 2.697 -0.259183 -16.9263
v 3.26749 -0.259183 -16.9263
v 3.75421 0.249548 -16.9263
v 4.51271 0.249548 -16.9263
v 4.97509 -0.260079 -16.9263
v 5.54765 -0.262975 -16.9263
v 5.59371 -0.204992 -16.9263
v 5.94316 -0.204992 -16.9263
v 5.99021 -0.267077 -16.9263
v 6.55163 -0.267077 -16.9263
v 6.60689 -0.190186 -16.9263
v 6.94755 -0.190186 -16.9263
v 6.98671 -0.24903 -16.9263
v 7.56392 -0.24903 -16.9263
v 8.03327 0.249548 -16.9263
v 8.80239 0.249548 -16.9263
v 9.2708 -0.261647 -16.9263
v 9.8569 -0.261647 -16.9263
v 9.90803 -0.194805 -16.9263
v 10.2671 -0.194805 -16.9263
v 10.3035 -0.253736 -16.9263
v 10.8562 -0.253736 -16.9263
v 10.9052 -0.185222 -16.9263
v 11.2389 -0.185222 -16.9263
v 11.2991 -0.263836 -16.9263
v 11.8689 -0.263836 -16.9263
v 12.357 0.248858 -16.9263
v 12.6668 0.248858 -16.9263
v 12.6923 0.20675 -16.9263
v 12.7176 0.182177 -16.9263
v 12.7516 0.173311 -16.9263
v 12.786 0.1823 -16.9263
v 12.8112 0.20706 -16.9263
v 12.8348 0.246514 -16.9263
v 13.0882 0.246514 -16.9263
v 13.5842 -0.249461 -16.9263
v 13.7003 -0.249461 16.9263
v 13.7003 -0.231811 16.9263
v 13.5915 -0.231811 16.9263
v 13.0955 0.264164 16.9263
v 12.8248 0.264164 16.9263
v 12.796 0.216126 16.9263
v 12.7772 0.197668 16.9263
v 12.7517 0.190961 16.9263
v 12.7262 0.197567 16.9263
v 12.7074 0.215885 16.9263
v 12.6768 0.266508 16.9263
v 12.3494 0.266508 16.9263
v 11.8614 -0.246186 16.9263
v 11.3078 -0.246186 16.9263
v 11.2476 -0.167572 16.9263
v 10.8961 -0.167572 16.9263
v 10.8471 -0.236086 16.9263
v 10.3133 -0.236086 16.9263
v 10.2769 -0.177155 16.9263
v 9.89934 -0.177155 16.9263
v 9.84818 -0.243997 16.9263
v 9.27859 -0.243997 16.9263
v 8.81018 0.267198 16.9263
v 8.02561 0.267198 16.9263
v 7.55627 -0.23138 16.9263
v 6.99616 -0.23138 16.9263
v 6.957 -0.172536 16.9263
v 6.59786 -0.172536 16.9263
v 6.5426 -0.249427 16.9263
v 5.99897 -0.249427 16.9263
v 5.95191 -0.187342 16.9263
v 5.58516 -0.187342 16.9263
v 5.5391 -0.245325 16.9263
v 4.98554 -0.245325 16.9263
v 4.52316 0.264302 16.9263
v 3.7467 0.267198 16.9263
v 3.25998 -0.241533 16.9263
v 2.707 -0.241533 16.9263
v 2.66487 -0.171295 16.9263
v 2.27551 -0.171295 16.9263
v 2.22986 -0.241395 16.9263
v 1.69619 -0.241395 16.9263
v 1.655 -0.176379 16.9263
v 1.2991 -0.176379 16.9263
v 1.24388 -0.231811 16.9263
v 0.695107 -0.231811 16.9263
v 0.197597 0.265715 16.9263
v -0.572436 0.265715 16.9263
v -1.04464 -0.231811 16.9263
v -1.60712 -0.231811 16.9263
v -1.64597 -0.174535 16.9263
v -2.01984 -0.174535 16.9263
v -2.06808 -0.24317 16.9263
v -2.62032 -0.24317 16.9263
v -2.65941 -0.179878 16.9263
v -3.02404 -0.179878 16.9263
v -3.07565 -0.245463 16.9263
v -3.64293 -0.245463 16.9263
v -4.09613 0.265819 16.9263
v -4.87943 0.268783 16.9263
v -5.35431 -0.231811 16.9263
v -5.9031 -0.231811 16.9263
v -5.94512 -0.173087 16.9263
v -6.31713 -0.173087 16.9263
v -6.37699 -0.249703 16.9263
v -6.90506 -0.249703 16.9263
v -6.96124 -0.184963 16.9263
v -7.32997 -0.184963 16.9263
v -7.3636 -0.243377 16.9263
v -7.97142 -0.243377 16.9263
v -8.40833 0.268783 16.9263
v -9.18065 0.268783 16.9263
v -9.67132 -0.238844 16.9263
v -10.2281 -0.238844 16.9263
v -10.268 -0.181723 16.9263
v -10.6097 -0.181723 16.9263
v -10.6615 -0.251133 16.9263
v -11.2068 -0.251133 16.9263
v -11.2483 -0.181723 16.9263
v -11.6317 -0.181723 16.9263
v -11.677 -0.238844 16.9263
v -12.2993 -0.238844 16.9263
v -12.6947 0.268783 16.9263
v -13.4881 0.268783 16.9263
v -13.6426 0.0765982 16.9263
v -13.7003 -0.0773911 16.9263
v -13.6838 -0.0835617 16.9263
v -13.6279 0.0666529 16.9263
v -13.4796 0.251133 16.9263
v -12.7034 0.251133 16.9263
v -12.3079 -0.256494 16.9263
v -11.6685 -0.256494 16.9263
v -11.6232 -0.199373 16.9263
v -11.2583 -0.199373 16.9263
v -11.2169 -0.268783 16.9263
v -10.6526 -0.268783 16.9263
v -10.6008 -0.199373 16.9263
v -10.2772 -0.199373 16.9263
v -10.2373 -0.256494 16.9263
v -9.66384 -0.256494 16.9263
v -9.17317 0.251133 16.9263
v -8.41646 0.251133 16.9263
v -7.97956 -0.261027 16.9263
v -7.3534 -0.261027 16.9263
v -7.31977 -0.202613 16.9263
v -6.9693 -0.202613 16.9263
v -6.9131 -0.267353 16.9263
v -6.36838 -0.267353 16.9263
v -6.30851 -0.190737 16.9263
v -5.95419 -0.190737 16.9263
v -5.91216 -0.249461 16.9263
v -5.34673 -0.249461 16.9263
v -4.87185 0.251133 16.9263
v -4.10671 0.251133 16.9263
v -3.6535 -0.260148 16.9263
v -3.06707 -0.263113 16.9263
v -3.01546 -0.197528 16.9263
v -2.66925 -0.197528 16.9263
v -2.63014 -0.26082 16.9263
v -2.05891 -0.26082 16.9263
v -2.01067 -0.192185 16.9263
v -1.65531 -0.192185 16.9263
v -1.61646 -0.249461 16.9263
v -1.03706 -0.249461 16.9263
v -0.564852 0.248065 16.9263
v 0.190289 0.248065 16.9263
v 0.687798 -0.249461 16.9263
v 1.25119 -0.249461 16.9263
v 1.30641 -0.194029 16.9263
v 1.64528 -0.194029 16.9263
v 1.68647 -0.259045 16.9263
v 2.23945 -0.259045 16.9263
v 2.28509 -0.188945 16.9263
v 2.65488 -0.188945 16.9263
v 2.697 -0.259183 16.9263
v 3.26749 -0.259183 16.9263
v 3.75421 0.249548 16.9263
v 4.51271 0.249548 16.9263
v 4.97509 -0.260079 16.9263
v 5.54765 -0.262975 16.9263
v 5.59371 -0.204992 16.9263
v 5.94316 -0.204992 16.9263
v 5.99021 -0.267077 16.9263
v 6.55163 -0.267077 16.9263
v 6.60689 -0.190186 16.9263
v 6.94755 -0.190186 16.9263
v 6.98671 -0.24903 16.9263
v 7.56392 -0.24903 16.9263
v 8.03327 0.249548 16.9263
v 8.80239 0.249548 16.9263
v 9.2708 -0.261647 16.9263
v 9.8569 -0.261647 16.9263
v 9.90803 -0.194805 16.9263
v 10.2671 -0.194805 16.9263
v 10.3035 -0.253736 16.9263
v 10.8562 -0.253736 16.9263
v 10.9052 -0.185222 16.9263
v 11.2389 -0.185222 16.9263
v 11.2991 -0.263836 16.9263
v 11.8689 -0.263836 16.9263
v 12.357 0.248858 16.9263
v 12.6668 0.248858 16.9263
v 12.6923 0.20675 16.9263
v 12.7176 0.182177 16.9263
v 12.7516 0.173311 16.9263
v 12.786 0.1823 16.9263
v 12.8112 0.20706 16.9263
v 12.8348 0.246514 16.9263
v 13.0882 0.246514 16.9263
v 13.5842 -0.249461 16.9263
v 13.7003 -0.240636 0
v 13.6459 -0.231811 0
v 13.3435 0.0161763 0
v 12.9602 0.264164 0
v 12.8104 0.240145 0
v 12.7866 0.206897 0
v 12.7645 0.194315 0
v 12.739 0.194264 0
v 12.7168 0.206726 0
v 12.6921 0.241197 0
v 12.5131 0.266508 0
v 12.1054 0.0101608 0
v 11.5846 -0.246186 0
v 11.2777 -0.206879 0
v 11.0718 -0.167572 0
v 10.8716 -0.201829 0
v 10.5802 -0.236086 0
v 10.2951 -0.20662 0
v 10.0881 -0.177155 0
v 9.87376 -0.210576 0
v 9.56339 -0.243997 0
v 9.04438 0.0116 0
v 8.4179 0.267198 0
v 7.79094 0.0179085 0
v 7.27621 -0.23138 0
v 6.97658 -0.201958 0
v 6.77743 -0.172536 0
v 6.57023 -0.210981 0
v 6.27078 -0.249427 0
v 5.97544 -0.218384 0
v 5.76853 -0.187342 0
v 5.56213 -0.216333 0
v 5.26232 -0.245325 0
v 4.75435 0.0094886 0
v 4.13493 0.26575 0
v 3.50334 0.0128324 0
v 2.98349 -0.241533 0
v 2.68594 -0.206414 0
v 2.47019 -0.171295 0
v 2.25268 -0.206345 0
v 1.96303 -0.241395 0
v 1.6756 -0.208887 0
v 1.47705 -0.176379 0
v 1.27149 -0.204095 0
v 0.969492 -0.231811 0
v 0.446352 0.0169519 0
v -0.187419 0.265715 0
v -0.808539 0.0169519 0
v -1.32588 -0.231811 0
v -1.62654 -0.203173 0
v -1.8329 -0.174535 0
v -2.04396 -0.208853 0
v -2.3442 -0.24317 0
v -2.63986 -0.211524 0
v -2.84173 -0.179878 0
v -3.04985 -0.21267 0
v -3.35929 -0.245463 0
v -3.86953 0.010178 0
v -4.48778 0.267301 0
v -5.11687 0.018486 0
v -5.6287 -0.231811 0
v -5.92411 -0.202449 0
v -6.13113 -0.173087 0
v -6.34706 -0.211395 0
v -6.64103 -0.249703 0
v -6.93315 -0.217333 0
v -7.1456 -0.184963 0
v -7.34679 -0.21417 0
v -7.66751 -0.243377 0
v -8.18988 0.0127032 0
v -8.79449 0.268783 0
v -9.42599 0.0149698 0
v -9.94969 -0.238844 0
v -10.248 -0.210283 0
v -10.4388 -0.181723 0
v -10.6356 -0.216428 0
v -10.9341 -0.251133 0
v -11.2276 -0.216428 0
v -11.44 -0.181723 0
v -11.6544 -0.210283 0
v -11.9881 -0.238844 0
v -12.497 0.0149698 0
v -13.0914 0.268783 0
v -13.5653 0.172691 0
v -13.6714 -0.000396435 0
v -13.6921 -0.0804764 0
v -13.6558 -0.00845442 0
v -13.5538 0.158893 0
v -13.0915 0.251133 0
v -12.5056 -0.00268025 0
v -11.9882 -0.256494 0
v -11.6459 -0.227933 0
v -11.4408 -0.199373 0
v -11.2376 -0.234078 0
v -10.9347 -0.268783 0
v -10.6267 -0.234078 0
v -10.439 -0.199373 0
v -10.2572 -0.227933 0
v -9.95055 -0.256494 0
v -9.41851 -0.00268025 0
v -8.79482 0.251133 0
v -8.19801 -0.00494682 0
v -7.66648 -0.261027 0
v -7.33658 -0.23182 0
v -7.14454 -0.202613 0
v -6.9412 -0.234983 0
v -6.64074 -0.267353 0
v -6.33844 -0.229045 0
v -6.13135 -0.190737 0
v -5.93318 -0.220099 0
v -5.62945 -0.249461 0
v -5.10929 0.000835966 0
v -4.48928 0.251133 0
v -3.8801 -0.0045073 0
v -3.36028 -0.26163 0
v -3.04126 -0.23032 0
v -2.84236 -0.197528 0
v -2.6497 -0.229174 0
v -2.34453 -0.26082 0
v -2.03479 -0.226503 0
v -1.83299 -0.192185 0
v -1.63588 -0.220823 0
v -1.32676 -0.249461 0
v -0.800955 -0.000698068 0
v -0.187281 0.248065 0
v 0.439044 -0.000698068 0
v 0.969492 -0.249461 0
v 1.2788 -0.221745 0
v 1.47584 -0.194029 0
v 1.66587 -0.226537 0
v 1.96296 -0.259045 0
v 2.26227 -0.223995 0
v 2.46998 -0.188945 0
v 2.67594 -0.224064 0
v 2.98225 -0.259183 0
v 3.51085 -0.00481755 0
v 4.13346 0.249548 0
v 4.7439 -0.00526569 0
v 5.26137 -0.261527 0
v 5.57068 -0.233983 0
v 5.76843 -0.204992 0
v 5.96668 -0.236034 0
v 6.27092 -0.267077 0
v 6.57926 -0.228631 0
v 6.77722 -0.190186 0
v 6.96713 -0.219608 0
v 7.27532 -0.24903 0
v 7.79859 0.000258544 0
v 8.41783 0.249548 0
v 9.03659 -0.00604995 0
v 9.56385 -0.261647 0
v 9.88247 -0.228226 0
v 10.0875 -0.194805 0
v 10.2853 -0.22427 0
v 10.5798 -0.253736 0
v 10.8807 -0.219479 0
v 11.072 -0.185222 0
v 11.269 -0.224529 0
v 11.584 -0.263836 0
v 12.113 -0.00748918 0
v 12.5119 0.248858 0
v 12.6796 0.227804 0
v 12.7049 0.194463 0
v 12.7346 0.177744 0
v 12.7688 0.177806 0
v 12.7986 0.19468 0
v 12.823 0.226787 0
v 12.9615 0.246514 0
v 13.3362 -0.0014737 0
v 13.6423 -0.249461 0


# Vertex Texture Coordinates :
vt 0.389692 0.000274796
vt 0.389692 0.000525815
vt 0.388144 0.000525815
vt 0.381091 0.00757958
vt 0.37724 0.00757958
vt 0.376831 0.00689638
vt 0.376564 0.00663388
vt 0.376201 0.00653849
vt 0.375838 0.00663244
vt 0.375571 0.00689295
vt 0.375135 0.00761291
vt 0.370479 0.00761291
vt 0.363538 0.000321372
vt 0.355665 0.000321372
vt 0.354809 0.00143943
vt 0.34981 0.00143943
vt 0.349114 0.000465021
vt 0.341522 0.000465021
vt 0.341004 0.00130314
vt 0.335634 0.00130314
vt 0.334907 0.000352504
vt 0.326806 0.000352504
vt 0.320144 0.00762272
vt 0.308986 0.00762272
vt 0.302311 0.000531943
vt 0.294345 0.000531943
vt 0.293788 0.00136883
vt 0.288681 0.00136883
vt 0.287895 0.000275287
vt 0.280163 0.000275287
vt 0.279494 0.00115826
vt 0.274278 0.00115826
vt 0.273623 0.000333629
vt 0.26575 0.000333629
vt 0.259174 0.00758154
vt 0.248132 0.00762272
vt 0.241209 0.000387559
vt 0.233345 0.000387559
vt 0.232746 0.00138648
vt 0.227208 0.00138648
vt 0.226559 0.00038952
vt 0.218969 0.00038952
vt 0.218383 0.00131417
vt 0.213322 0.00131417
vt 0.212537 0.000525815
vt 0.204732 0.000525815
vt 0.197656 0.00760164
vt 0.186705 0.00760164
vt 0.179989 0.000525815
vt 0.17199 0.000525815
vt 0.171437 0.0013404
vt 0.16612 0.0013404
vt 0.165434 0.000364271
vt 0.15758 0.000364271
vt 0.157024 0.00126441
vt 0.151838 0.00126441
vt 0.151104 0.000331668
vt 0.143036 0.000331668
vt 0.136591 0.00760311
vt 0.125451 0.00764527
vt 0.118697 0.000525815
vt 0.110892 0.000525815
vt 0.110295 0.00136099
vt 0.105004 0.00136099
vt 0.104152 0.000271364
vt 0.0966423 0.000271364
vt 0.0958434 0.00119209
vt 0.0905992 0.00119209
vt 0.090121 0.000361329
vt 0.0814765 0.000361329
vt 0.0752628 0.00764527
vt 0.0642788 0.00764527
vt 0.0573006 0.0004258
vt 0.0493827 0.0004258
vt 0.0488152 0.00123818
vt 0.0439554 0.00123818
vt 0.0432188 0.000251018
vt 0.0354625 0.000251018
vt 0.0348732 0.00123818
vt 0.0294199 0.00123818
vt 0.0287754 0.0004258
vt 0.019926 0.0004258
vt 0.0143014 0.00764527
vt 0.00301859 0.00764527
vt 0.000821693 0.00491202
vt 0 0.00272198
vt 0.00023533 0.00263422
vt 0.00103006 0.00477057
vt 0.00313895 0.00739425
vt 0.0141789 0.00739425
vt 0.0198035 0.000174781
vt 0.0288965 0.000174781
vt 0.029541 0.000987159
vt 0.0347305 0.000987159
vt 0.0353198 0
vt 0.0433448 0
vt 0.0440814 0.000987159
vt 0.0486843 0.000987159
vt 0.0492518 0.000174781
vt 0.057407 0.000174781
vt 0.0643852 0.00739425
vt 0.0751471 0.00739425
vt 0.0813608 0.000110311
vt 0.0902661 0.000110311
vt 0.0907443 0.000941074
vt 0.0957287 0.000941074
vt 0.0965281 2.03462e-05
vt 0.104275 2.03462e-05
vt 0.105126 0.00110997
vt 0.110166 0.00110997
vt 0.110763 0.000274796
vt 0.118805 0.000274796
vt 0.125559 0.00739425
vt 0.13644 0.00739425
vt 0.142886 0.000122813
vt 0.151226 8.06494e-05
vt 0.15196 0.00101339
vt 0.156884 0.00101339
vt 0.15744 0.000113252
vt 0.165564 0.000113252
vt 0.16625 0.00108938
vt 0.171304 0.00108938
vt 0.171857 0.000274796
vt 0.180097 0.000274796
vt 0.186813 0.00735062
vt 0.197552 0.00735062
vt 0.204628 0.000274796
vt 0.21264 0.000274796
vt 0.213426 0.00106315
vt 0.218245 0.00106315
vt 0.218831 0.000138501
vt 0.226696 0.000138501
vt 0.227345 0.00113547
vt 0.232604 0.00113547
vt 0.233203 0.00013654
vt 0.241316 0.00013654
vt 0.248238 0.0073717
vt 0.259026 0.0073717
vt 0.265602 0.000123793
vt 0.273745 8.26105e-05
vt 0.2744 0.000907245
vt 0.27937 0.000907245
vt 0.280039 2.42683e-05
vt 0.288023 2.42683e-05
vt 0.288809 0.00111782
vt 0.293654 0.00111782
vt 0.294211 0.000280925
vt 0.30242 0.000280925
vt 0.309095 0.0073717
vt 0.320034 0.0073717
vt 0.326695 0.000101486
vt 0.335031 0.000101486
vt 0.335758 0.00105212
vt 0.340864 0.00105212
vt 0.341382 0.000214003
vt 0.349243 0.000214003
vt 0.34994 0.00118841
vt 0.354685 0.00118841
vt 0.355541 7.03538e-05
vt 0.363646 7.03538e-05
vt 0.370587 0.0073619
vt 0.374994 0.0073619
vt 0.375356 0.00676303
vt 0.375715 0.00641356
vt 0.3762 0.00628747
vt 0.376688 0.00641531
vt 0.377047 0.00676744
vt 0.377382 0.00732856
vt 0.380987 0.00732856
vt 0.38804 0.000274796
vt 0.395646 0.000274796
vt 0.395646 0.000525815
vt 0.397194 0.000525815
vt 0.404247 0.00757958
vt 0.408098 0.00757958
vt 0.408507 0.00689638
vt 0.408774 0.00663388
vt 0.409137 0.00653849
vt 0.4095 0.00663244
vt 0.409767 0.00689295
vt 0.410203 0.00761291
vt 0.414859 0.00761291
vt 0.4218 0.000321372
vt 0.429673 0.000321372
vt 0.430529 0.00143943
vt 0.435528 0.00143943
vt 0.436224 0.000465021
vt 0.443816 0.000465021
vt 0.444334 0.00130314
vt 0.449704 0.00130314
vt 0.450431 0.000352504
vt 0.458532 0.000352504
vt 0.465194 0.00762272
vt 0.476352 0.00762272
vt 0.483027 0.000531943
vt 0.490993 0.000531943
vt 0.49155 0.00136883
vt 0.496657 0.00136883
vt 0.497443 0.000275287
vt 0.505175 0.000275287
vt 0.505844 0.00115826
vt 0.51106 0.00115826
vt 0.511715 0.000333629
vt 0.519588 0.000333629
vt 0.526164 0.00758154
vt 0.537207 0.00762272
vt 0.544129 0.000387559
vt 0.551993 0.000387559
vt 0.552592 0.00138648
vt 0.55813 0.00138648
vt 0.558779 0.00038952
vt 0.566369 0.00038952
vt 0.566955 0.00131417
vt 0.572016 0.00131417
vt 0.572802 0.000525815
vt 0.580606 0.000525815
vt 0.587682 0.00760164
vt 0.598633 0.00760164
vt 0.605349 0.000525815
vt 0.613348 0.000525815
vt 0.613901 0.0013404
vt 0.619218 0.0013404
vt 0.619904 0.000364271
vt 0.627758 0.000364271
vt 0.628314 0.00126441
vt 0.6335 0.00126441
vt 0.634234 0.000331668
vt 0.642302 0.000331668
vt 0.648747 0.00760311
vt 0.659887 0.00764527
vt 0.666641 0.000525815
vt 0.674446 0.000525815
vt 0.675043 0.00136099
vt 0.680334 0.00136099
vt 0.681186 0.000271364
vt 0.688696 0.000271364
vt 0.689495 0.00119209
vt 0.694739 0.00119209
vt 0.695217 0.000361329
vt 0.703862 0.000361329
vt 0.710075 0.00764527
vt 0.721059 0.00764527
vt 0.728038 0.0004258
vt 0.735955 0.0004258
vt 0.736523 0.00123818
vt 0.741383 0.00123818
vt 0.742119 0.000251018
vt 0.749876 0.000251018
vt 0.750465 0.00123818
vt 0.755918 0.00123818
vt 0.756563 0.0004258
vt 0.765412 0.0004258
vt 0.771037 0.00764527
vt 0.782319 0.00764527
vt 0.784516 0.00491202
vt 0.785338 0.00272198
vt 0.785103 0.00263422
vt 0.784308 0.00477057
vt 0.782199 0.00739425
vt 0.771159 0.00739425
vt 0.765535 0.000174781
vt 0.756442 0.000174781
vt 0.755797 0.000987159
vt 0.750608 0.000987159
vt 0.750018 0
vt 0.741993 0
vt 0.741257 0.000987159
vt 0.736654 0.000987159
vt 0.736086 0.000174781
vt 0.727931 0.000174781
vt 0.720953 0.00739425
vt 0.710191 0.00739425
vt 0.703977 0.000110311
vt 0.695072 0.000110311
vt 0.694594 0.000941074
vt 0.689609 0.000941074
vt 0.68881 2.03462e-05
vt 0.681063 2.03462e-05
vt 0.680212 0.00110997
vt 0.675172 0.00110997
vt 0.674575 0.000274796
vt 0.666533 0.000274796
vt 0.659779 0.00739425
vt 0.648898 0.00739425
vt 0.642452 0.000122813
vt 0.634112 8.06494e-05
vt 0.633378 0.00101339
vt 0.628454 0.00101339
vt 0.627898 0.000113252
vt 0.619774 0.000113252
vt 0.619088 0.00108938
vt 0.614034 0.00108938
vt 0.613481 0.000274796
vt 0.605241 0.000274796
vt 0.598525 0.00735062
vt 0.587786 0.00735062
vt 0.58071 0.000274796
vt 0.572698 0.000274796
vt 0.571912 0.00106315
vt 0.567093 0.00106315
vt 0.566507 0.000138501
vt 0.558643 0.000138501
vt 0.557993 0.00113547
vt 0.552734 0.00113547
vt 0.552135 0.00013654
vt 0.544022 0.00013654
vt 0.5371 0.0073717
vt 0.526312 0.0073717
vt 0.519736 0.000123793
vt 0.511593 8.26105e-05
vt 0.510938 0.000907245
vt 0.505968 0.000907245
vt 0.505299 2.42683e-05
vt 0.497315 2.42683e-05
vt 0.496529 0.00111782
vt 0.491684 0.00111782
vt 0.491127 0.000280925
vt 0.482918 0.000280925
vt 0.476243 0.0073717
vt 0.465304 0.0073717
vt 0.458643 0.000101486
vt 0.450307 0.000101486
vt 0.44958 0.00105212
vt 0.444474 0.00105212
vt 0.443956 0.000214003
vt 0.436095 0.000214003
vt 0.435398 0.00118841
vt 0.430653 0.00118841
vt 0.429797 7.03538e-05
vt 0.421692 7.03538e-05
vt 0.414751 0.0073619
vt 0.410344 0.0073619
vt 0.409982 0.00676303
vt 0.409623 0.00641356
vt 0.409138 0.00628747
vt 0.40865 0.00641531
vt 0.408291 0.00676744
vt 0.407956 0.00732856
vt 0.404351 0.00732856
vt 0.397298 0.000274796
vt 1.24774e-05 0.0135786
vt 0.000263496 0.0135786
vt 0.00624029 0.0135786
vt 0.00778808 0.0135786
vt 0.0137219 0.0135786
vt 0.0236973 0.0135786
vt 0.013728 0.500907
vt 0.017579 0.500907
vt 0.0296013 0.0135786
vt 0.0303975 0.0135786
vt 0.0307721 0.0135786
vt 0.0311468 0.0135786
vt 0.0315218 0.0135786
vt 0.0318951 0.0135786
vt 0.0327367 0.0135786
vt 0.038656 0.0135786
vt 0.0433116 0.0135786
vt 0.0492324 0.0135786
vt 0.0592996 0.0135786
vt 0.0492127 0.500907
vt 0.057086 0.500907
vt 0.00619258 0.500907
vt 0.00760071 0.500907
vt 0.0652252 0.0135786
vt 0.070224 0.0135786
vt 0.0296299 0.500907
vt 0.0308275 0.500907
vt 0.076153 0.0135786
vt 0.0837448 0.0135786
vt 0.0386693 0.500907
vt 0.0396544 0.500907
vt 0.0761473 0.500907
vt 0.0815172 0.500907
vt 0.0652453 0.500907
vt 0.0664424 0.500907
vt 0.0896509 0.0135786
vt 0.0977517 0.0135786
vt 0.10364 0.0135786
vt 0.113501 0.0135786
vt 0.119388 0.0135786
vt 0.130546 0.0135786
vt 0.103642 0.500907
vt 0.113381 0.500907
vt 0.0896596 0.500907
vt 0.0976255 0.500907
vt 0.119411 0.500907
vt 0.120416 0.500907
vt 0.13646 0.0135786
vt 0.141568 0.0135786
vt 0.126351 0.500907
vt 0.127698 0.500907
vt 0.14749 0.0135786
vt 0.155221 0.0135786
vt 0.136462 0.500907
vt 0.137569 0.500907
vt 0.147513 0.500907
vt 0.152729 0.500907
vt 0.161114 0.0135786
vt 0.162167 0.0135786
vt 0.168048 0.0135786
vt 0.175921 0.0135786
vt 0.181842 0.0135786
vt 0.191629 0.0135786
vt 0.197553 0.0135786
vt 0.208595 0.0135786
vt 0.197597 0.500907
vt 0.20761 0.500907
vt 0.168052 0.500907
vt 0.175916 0.500907
vt 0.181804 0.500907
vt 0.182969 0.500907
vt 0.214528 0.0135786
vt 0.220065 0.0135786
vt 0.188903 0.500907
vt 0.190093 0.500907
vt 0.22602 0.0135786
vt 0.23361 0.0135786
vt 0.214516 0.500907
vt 0.215611 0.500907
vt 0.22605 0.500907
vt 0.231111 0.500907
vt 0.239543 0.0135786
vt 0.240656 0.0135786
vt 0.2466 0.0135786
vt 0.254404 0.0135786
vt 0.260368 0.0135786
vt 0.270374 0.0135786
vt 0.276351 0.0135786
vt 0.287303 0.0135786
vt 0.260317 0.500907
vt 0.270073 0.500907
vt 0.276358 0.500907
vt 0.284358 0.500907
vt 0.161148 0.500907
vt 0.162133 0.500907
vt 0.246609 0.500907
vt 0.251927 0.500907
vt 0.293279 0.0135786
vt 0.294472 0.0135786
vt 0.300409 0.0135786
vt 0.308263 0.0135786
vt 0.239571 0.500907
vt 0.240629 0.500907
vt 0.30045 0.500907
vt 0.305636 0.500907
vt 0.293282 0.500907
vt 0.294469 0.500907
vt 0.314172 0.0135786
vt 0.32224 0.0135786
vt 0.328158 0.0135786
vt 0.337875 0.0135786
vt 0.343785 0.0135786
vt 0.354925 0.0135786
vt 0.343802 0.500907
vt 0.353615 0.500907
vt 0.314186 0.500907
vt 0.321991 0.500907
vt 0.328154 0.500907
vt 0.329181 0.500907
vt 0.360873 0.0135786
vt 0.366164 0.0135786
vt 0.335087 0.500907
vt 0.33647 0.500907
vt 0.372105 0.0135786
vt 0.379616 0.0135786
vt 0.360852 0.500907
vt 0.362071 0.500907
vt 0.372122 0.500907
vt 0.377366 0.500907
vt 0.385549 0.0135786
vt 0.386507 0.0135786
vt 0.392461 0.0135786
vt 0.401105 0.0135786
vt 0.407041 0.0135786
vt 0.416615 0.0135786
vt 0.422557 0.0135786
vt 0.433541 0.0135786
vt 0.422559 0.500907
vt 0.432599 0.500907
vt 0.392471 0.500907
vt 0.400389 0.500907
vt 0.385532 0.500907
vt 0.386523 0.500907
vt 0.407048 0.500907
vt 0.411907 0.500907
vt 0.439481 0.0135786
vt 0.440713 0.0135786
vt 0.446621 0.0135786
vt 0.454378 0.0135786
vt 0.439464 0.500907
vt 0.440613 0.500907
vt 0.446656 0.500907
vt 0.45211 0.500907
vt 0.460266 0.0135786
vt 0.461303 0.0135786
vt 0.467232 0.0135786
vt 0.476082 0.0135786
vt 0.482009 0.0135786
vt 0.491161 0.0135786
vt 0.497047 0.0135786
vt 0.50833 0.0135786
vt 0.467206 0.500907
vt 0.470713 0.500907
vt 0.473052 0.500907
vt 1.24063e-05 0.500907
vt 0.000263567 0.500907
vt 0.482058 0.500907
vt 0.484337 0.500907
vt 0.487703 0.500907
vt 0.497051 0.500907
vt 0.508091 0.500907
vt 0.514216 0.0135786
vt 0.523367 0.0135786
vt 0.514245 0.500907
vt 0.523338 0.500907
vt 0.460266 0.500907
vt 0.461303 0.500907
vt 0.529303 0.0135786
vt 0.534492 0.0135786
vt 0.529266 0.500907
vt 0.530415 0.500907
vt 0.540462 0.0135786
vt 0.548487 0.0135786
vt 0.54045 0.500907
vt 0.541681 0.500907
vt 0.554456 0.0135786
vt 0.559059 0.0135786
vt 0.55444 0.500907
vt 0.555431 0.500907
vt 0.565022 0.0135786
vt 0.573177 0.0135786
vt 0.579124 0.0135786
vt 0.589165 0.0135786
vt 0.595102 0.0135786
vt 0.605864 0.0135786
vt 0.579123 0.500907
vt 0.588697 0.500907
vt 0.59509 0.500907
vt 0.603995 0.500907
vt 0.565035 0.500907
vt 0.565994 0.500907
vt 0.611802 0.0135786
vt 0.616786 0.0135786
vt 0.571957 0.500907
vt 0.573177 0.500907
vt 0.622704 0.0135786
vt 0.630451 0.0135786
vt 0.611781 0.500907
vt 0.613164 0.500907
vt 0.622706 0.500907
vt 0.627745 0.500907
vt 0.636349 0.0135786
vt 0.637376 0.0135786
vt 0.643303 0.0135786
vt 0.651344 0.0135786
vt 0.657286 0.0135786
vt 0.667099 0.0135786
vt 0.673031 0.0135786
vt 0.683913 0.0135786
vt 0.657275 0.500907
vt 0.666992 0.500907
vt 0.673009 0.500907
vt 0.681349 0.500907
vt 0.643321 0.500907
vt 0.644508 0.500907
vt 0.689821 0.0135786
vt 0.694745 0.0135786
vt 0.689874 0.500907
vt 0.690932 0.500907
vt 0.700681 0.0135786
vt 0.708805 0.0135786
vt 0.700679 0.500907
vt 0.701872 0.500907
vt 0.714734 0.0135786
vt 0.719788 0.0135786
vt 0.63637 0.500907
vt 0.637354 0.500907
vt 0.725718 0.0135786
vt 0.733958 0.0135786
vt 0.739888 0.0135786
vt 0.749643 0.0135786
vt 0.755558 0.0135786
vt 0.766298 0.0135786
vt 0.755572 0.500907
vt 0.765578 0.500907
vt 0.725714 0.500907
vt 0.733727 0.500907
vt 0.714765 0.500907
vt 0.715878 0.500907
vt 0.739946 0.500907
vt 0.744766 0.500907
vt 0.772252 0.0135786
vt 0.773347 0.0135786
vt 0.77927 0.0135786
vt 0.787134 0.0135786
vt 0.779316 0.500907
vt 0.780506 0.500907
vt 0.793032 0.0135786
vt 0.798291 0.0135786
vt 0.772217 0.500907
vt 0.773382 0.500907
vt 0.80424 0.0135786
vt 0.812354 0.0135786
vt 0.818336 0.0135786
vt 0.828349 0.0135786
vt 0.834287 0.0135786
vt 0.845074 0.0135786
vt 0.818332 0.500907
vt 0.828118 0.500907
vt 0.804226 0.500907
vt 0.812369 0.500907
vt 0.707801 0.500907
vt 0.708854 0.500907
vt 0.793059 0.500907
vt 0.798029 0.500907
vt 0.834308 0.500907
vt 0.835415 0.500907
vt 0.850969 0.0135786
vt 0.858953 0.0135786
vt 0.841358 0.500907
vt 0.842705 0.500907
vt 0.851011 0.500907
vt 0.855856 0.500907
vt 0.864861 0.0135786
vt 0.865866 0.0135786
vt 0.871779 0.0135786
vt 0.879988 0.0135786
vt 0.885884 0.0135786
vt 0.895622 0.0135786
vt 0.901563 0.0135786
vt 0.912501 0.0135786
vt 0.901514 0.500907
vt 0.911375 0.500907
vt 0.88588 0.500907
vt 0.894215 0.500907
vt 0.871818 0.500907
vt 0.873015 0.500907
vt 0.918467 0.0135786
vt 0.923573 0.0135786
vt 0.864871 0.500907
vt 0.865856 0.500907
vt 0.92949 0.0135786
vt 0.937351 0.0135786
vt 0.918482 0.500907
vt 0.919679 0.500907
vt 0.929519 0.500907
vt 0.934265 0.500907
vt 0.943236 0.0135786
vt 0.944644 0.0135786
vt 0.950526 0.0135786
vt 0.95863 0.0135786
vt 0.964531 0.0135786
vt 0.974598 0.0135786
vt 0.950553 0.500907
vt 0.954959 0.500907
vt 0.964533 0.500907
vt 0.965233 0.500907
vt 0.965734 0.500907
vt 0.966235 0.500907
vt 0.96674 0.500907
vt 0.967242 0.500907
vt 0.967896 0.500907
vt 0.980515 0.0135786
vt 0.98412 0.0135786
vt 0.990025 0.0135786
vt 1 0.0135786
vt 0.980552 0.500907
vt 0.982203 0.500907
vt 1.24774e-05 0.49503
vt 0.000263496 0.49503
vt 0.00624029 0.49503
vt 0.00778808 0.49503
vt 0.0137219 0.49503
vt 0.0236973 0.49503
vt 0.013728 0.982359
vt 0.017579 0.982359
vt 0.0296013 0.49503
vt 0.0303975 0.49503
vt 0.0307721 0.49503
vt 0.0311468 0.49503
vt 0.0315218 0.49503
vt 0.0318951 0.49503
vt 0.0327367 0.49503
vt 0.038656 0.49503
vt 0.0433116 0.49503
vt 0.0492324 0.49503
vt 0.0592996 0.49503
vt 0.0492127 0.982359
vt 0.057086 0.982359
vt 0.00619258 0.982359
vt 0.00760071 0.982359
vt 0.0652252 0.49503
vt 0.070224 0.49503
vt 0.0296299 0.982359
vt 0.0308275 0.982359
vt 0.076153 0.49503
vt 0.0837448 0.49503
vt 0.0386693 0.982359
vt 0.0396544 0.982359
vt 0.0761473 0.982359
vt 0.0815172 0.982359
vt 0.0652453 0.982359
vt 0.0664424 0.982359
vt 0.0896509 0.49503
vt 0.0977517 0.49503
vt 0.10364 0.49503
vt 0.113501 0.49503
vt 0.119388 0.49503
vt 0.130546 0.49503
vt 0.103642 0.982359
vt 0.113381 0.982359
vt 0.0896596 0.982359
vt 0.0976255 0.982359
vt 0.119411 0.982359
vt 0.120416 0.982359
vt 0.13646 0.49503
vt 0.141568 0.49503
vt 0.126351 0.982359
vt 0.127698 0.982359
vt 0.14749 0.49503
vt 0.155221 0.49503
vt 0.136462 0.982359
vt 0.137569 0.982359
vt 0.147513 0.982359
vt 0.152729 0.982359
vt 0.161114 0.49503
vt 0.162167 0.49503
vt 0.168048 0.49503
vt 0.175921 0.49503
vt 0.181842 0.49503
vt 0.191629 0.49503
vt 0.197553 0.49503
vt 0.208595 0.49503
vt 0.197597 0.982359
vt 0.20761 0.982359
vt 0.168052 0.982359
vt 0.175916 0.982359
vt 0.181804 0.982359
vt 0.182969 0.982359
vt 0.214528 0.49503
vt 0.220065 0.49503
vt 0.188903 0.982359
vt 0.190093 0.982359
vt 0.22602 0.49503
vt 0.23361 0.49503
vt 0.214516 0.982359
vt 0.215611 0.982359
vt 0.22605 0.982359
vt 0.231111 0.982359
vt 0.239543 0.49503
vt 0.240656 0.49503
vt 0.2466 0.49503
vt 0.254404 0.49503
vt 0.260368 0.49503
vt 0.270374 0.49503
vt 0.276351 0.49503
vt 0.287303 0.49503
vt 0.260317 0.982359
vt 0.270073 0.982359
vt 0.276358 0.982359
vt 0.284358 0.982359
vt 0.161148 0.982359
vt 0.162133 0.982359
vt 0.246609 0.982359
vt 0.251927 0.982359
vt 0.293279 0.49503
vt 0.294472 0.49503
vt 0.300409 0.49503
vt 0.308263 0.49503
vt 0.239571 0.982359
vt 0.240629 0.982359
vt 0.30045 0.982359
vt 0.305636 0.982359
vt 0.293282 0.982359
vt 0.294469 0.982359
vt 0.314172 0.49503
vt 0.32224 0.49503
vt 0.328158 0.49503
vt 0.337875 0.49503
vt 0.343785 0.49503
vt 0.354925 0.49503
vt 0.343802 0.982359
vt 0.353615 0.982359
vt 0.314186 0.982359
vt 0.321991 0.982359
vt 0.328154 0.982359
vt 0.329181 0.982359
vt 0.360873 0.49503
vt 0.366164 0.49503
vt 0.335087 0.982359
vt 0.33647 0.982359
vt 0.372105 0.49503
vt 0.379616 0.49503
vt 0.360852 0.982359
vt 0.362071 0.982359
vt 0.372122 0.982359
vt 0.377366 0.982359
vt 0.385549 0.49503
vt 0.386507 0.49503
vt 0.392461 0.49503
vt 0.401105 0.49503
vt 0.407041 0.49503
vt 0.416615 0.49503
vt 0.422557 0.49503
vt 0.433541 0.49503
vt 0.422559 0.982359
vt 0.432599 0.982359
vt 0.392471 0.982359
vt 0.400389 0.982359
vt 0.385532 0.982359
vt 0.386523 0.982359
vt 0.407048 0.982359
vt 0.411907 0.982359
vt 0.439481 0.49503
vt 0.440713 0.49503
vt 0.446621 0.49503
vt 0.454378 0.49503
vt 0.439464 0.982359
vt 0.440613 0.982359
vt 0.446656 0.982359
vt 0.45211 0.982359
vt 0.460266 0.49503
vt 0.461303 0.49503
vt 0.467232 0.49503
vt 0.476082 0.49503
vt 0.482009 0.49503
vt 0.491161 0.49503
vt 0.497047 0.49503
vt 0.50833 0.49503
vt 0.467206 0.982359
vt 0.470713 0.982359
vt 0.473052 0.982359
vt 1.24063e-05 0.982359
vt 0.000263567 0.982359
vt 0.482058 0.982359
vt 0.484337 0.982359
vt 0.487703 0.982359
vt 0.497051 0.982359
vt 0.508091 0.982359
vt 0.514216 0.49503
vt 0.523367 0.49503
vt 0.514245 0.982359
vt 0.523338 0.982359
vt 0.460266 0.982359
vt 0.461303 0.982359
vt 0.529303 0.49503
vt 0.534492 0.49503
vt 0.529266 0.982359
vt 0.530415 0.982359
vt 0.540462 0.49503
vt 0.548487 0.49503
vt 0.54045 0.982359
vt 0.541681 0.982359
vt 0.554456 0.49503
vt 0.559059 0.49503
vt 0.55444 0.982359
vt 0.555431 0.982359
vt 0.565022 0.49503
vt 0.573177 0.49503
vt 0.579124 0.49503
vt 0.589165 0.49503
vt 0.595102 0.49503
vt 0.605864 0.49503
vt 0.579123 0.982359
vt 0.588697 0.982359
vt 0.59509 0.982359
vt 0.603995 0.982359
vt 0.565035 0.982359
vt 0.565994 0.982359
vt 0.611802 0.49503
vt 0.616786 0.49503
vt 0.571957 0.982359
vt 0.573177 0.982359
vt 0.622704 0.49503
vt 0.630451 0.49503
vt 0.611781 0.982359
vt 0.613164 0.982359
vt 0.622706 0.982359
vt 0.627745 0.982359
vt 0.636349 0.49503
vt 0.637376 0.49503
vt 0.643303 0.49503
vt 0.651344 0.49503
vt 0.657286 0.49503
vt 0.667099 0.49503
vt 0.673031 0.49503
vt 0.683913 0.49503
vt 0.657275 0.982359
vt 0.666992 0.982359
vt 0.673009 0.982359
vt 0.681349 0.982359
vt 0.643321 0.982359
vt 0.644508 0.982359
vt 0.689821 0.49503
vt 0.694745 0.49503
vt 0.689874 0.982359
vt 0.690932 0.982359
vt 0.700681 0.49503
vt 0.708805 0.49503
vt 0.700679 0.982359
vt 0.701872 0.982359
vt 0.714734 0.49503
vt 0.719788 0.49503
vt 0.63637 0.982359
vt 0.637354 0.982359
vt 0.725718 0.49503
vt 0.733958 0.49503
vt 0.739888 0.49503
vt 0.749643 0.49503
vt 0.755558 0.49503
vt 0.766298 0.49503
vt 0.755572 0.982359
vt 0.765578 0.982359
vt 0.725714 0.982359
vt 0.733727 0.982359
vt 0.714765 0.982359
vt 0.715878 0.982359
vt 0.739946 0.982359
vt 0.744766 0.982359
vt 0.772252 0.49503
vt 0.773347 0.49503
vt 0.77927 0.49503
vt 0.787134 0.49503
vt 0.779316 0.982359
vt 0.780506 0.982359
vt 0.793032 0.49503
vt 0.798291 0.49503
vt 0.772217 0.982359
vt 0.773382 0.982359
vt 0.80424 0.49503
vt 0.812354 0.49503
vt 0.818336 0.49503
vt 0.828349 0.49503
vt 0.834287 0.49503
vt 0.845074 0.49503
vt 0.818332 0.982359
vt 0.828118 0.982359
vt 0.804226 0.982359
vt 0.812369 0.982359
vt 0.707801 0.982359
vt 0.708854 0.982359
vt 0.793059 0.982359
vt 0.798029 0.982359
vt 0.834308 0.982359
vt 0.835415 0.982359
vt 0.850969 0.49503
vt 0.858953 0.49503
vt 0.841358 0.982359
vt 0.842705 0.982359
vt 0.851011 0.982359
vt 0.855856 0.982359
vt 0.864861 0.49503
vt 0.865866 0.49503
vt 0.871779 0.49503
vt 0.879988 0.49503
vt 0.885884 0.49503
vt 0.895622 0.49503
vt 0.901563 0.49503
vt 0.912501 0.49503
vt 0.901514 0.982359
vt 0.911375 0.982359
vt 0.88588 0.982359
vt 0.894215 0.982359
vt 0.871818 0.982359
vt 0.873015 0.982359
vt 0.918467 0.49503
vt 0.923573 0.49503
vt 0.864871 0.982359
vt 0.865856 0.982359
vt 0.92949 0.49503
vt 0.937351 0.49503
vt 0.918482 0.982359
vt 0.919679 0.982359
vt 0.929519 0.982359
vt 0.934265 0.982359
vt 0.943236 0.49503
vt 0.944644 0.49503
vt 0.950526 0.49503
vt 0.95863 0.49503
vt 0.964531 0.49503
vt 0.974598 0.49503
vt 0.950553 0.982359
vt 0.954959 0.982359
vt 0.964533 0.982359
vt 0.965233 0.982359
vt 0.965734 0.982359
vt 0.966235 0.982359
vt 0.96674 0.982359
vt 0.967242 0.982359
vt 0.967896 0.982359
vt 0.980515 0.49503
vt 0.98412 0.49503
vt 0.990025 0.49503
vt 1 0.49503
vt 0.980552 0.982359
vt 0.982203 0.982359
vt 0.000137987 0.254304
vt 0.00701419 0.254304
vt 0.0187096 0.254304
vt 0.0156535 0.741633
vt 0.0299994 0.254304
vt 0.0305848 0.254304
vt 0.0309594 0.254304
vt 0.0313343 0.254304
vt 0.0317085 0.254304
vt 0.0323159 0.254304
vt 0.0409838 0.254304
vt 0.054266 0.254304
vt 0.0531494 0.741633
vt 0.00689664 0.741633
vt 0.0677246 0.254304
vt 0.0302287 0.741633
vt 0.0799489 0.254304
vt 0.0391619 0.741633
vt 0.0788323 0.741633
vt 0.0658439 0.741633
vt 0.0937013 0.254304
vt 0.10857 0.254304
vt 0.124967 0.254304
vt 0.108512 0.741633
vt 0.0936425 0.741633
vt 0.119913 0.741633
vt 0.139014 0.254304
vt 0.127024 0.741633
vt 0.151356 0.254304
vt 0.137015 0.741633
vt 0.150121 0.741633
vt 0.161641 0.254304
vt 0.171984 0.254304
vt 0.186736 0.254304
vt 0.203074 0.254304
vt 0.202604 0.741633
vt 0.171984 0.741633
vt 0.182387 0.741633
vt 0.217297 0.254304
vt 0.189498 0.741633
vt 0.229815 0.254304
vt 0.215063 0.741633
vt 0.228581 0.741633
vt 0.2401 0.254304
vt 0.250502 0.254304
vt 0.265371 0.254304
vt 0.281827 0.254304
vt 0.265195 0.741633
vt 0.280358 0.741633
vt 0.161641 0.741633
vt 0.249268 0.741633
vt 0.293875 0.254304
vt 0.304336 0.254304
vt 0.2401 0.741633
vt 0.303043 0.741633
vt 0.293875 0.741633
vt 0.318206 0.254304
vt 0.333017 0.254304
vt 0.349355 0.254304
vt 0.348708 0.741633
vt 0.318089 0.741633
vt 0.328667 0.741633
vt 0.363519 0.254304
vt 0.335779 0.741633
vt 0.375861 0.254304
vt 0.361462 0.741633
vt 0.374744 0.741633
vt 0.386028 0.254304
vt 0.396783 0.254304
vt 0.411828 0.254304
vt 0.428049 0.254304
vt 0.427579 0.741633
vt 0.39643 0.741633
vt 0.386028 0.741633
vt 0.409478 0.741633
vt 0.440097 0.254304
vt 0.4505 0.254304
vt 0.440038 0.741633
vt 0.449383 0.741633
vt 0.460785 0.254304
vt 0.471657 0.254304
vt 0.486585 0.254304
vt 0.502688 0.254304
vt 0.46896 0.741633
vt 0.471882 0.741633
vt 0.000137987 0.741633
vt 0.483198 0.741633
vt 0.48602 0.741633
vt 0.502571 0.741633
vt 0.518791 0.254304
vt 0.518791 0.741633
vt 0.460785 0.741633
vt 0.531897 0.254304
vt 0.52984 0.741633
vt 0.544474 0.254304
vt 0.541066 0.741633
vt 0.556757 0.254304
vt 0.554936 0.741633
vt 0.569099 0.254304
vt 0.584145 0.254304
vt 0.600483 0.254304
vt 0.58391 0.741633
vt 0.599543 0.741633
vt 0.565514 0.741633
vt 0.614294 0.254304
vt 0.572567 0.741633
vt 0.626577 0.254304
vt 0.612472 0.741633
vt 0.625226 0.741633
vt 0.636862 0.254304
vt 0.647323 0.254304
vt 0.662193 0.254304
vt 0.678472 0.254304
vt 0.662134 0.741633
vt 0.677179 0.741633
vt 0.643915 0.741633
vt 0.692283 0.254304
vt 0.690403 0.741633
vt 0.704743 0.254304
vt 0.701275 0.741633
vt 0.717261 0.254304
vt 0.636862 0.741633
vt 0.729838 0.254304
vt 0.744766 0.254304
vt 0.760928 0.254304
vt 0.760575 0.741633
vt 0.72972 0.741633
vt 0.715321 0.741633
vt 0.742356 0.741633
vt 0.772799 0.254304
vt 0.783202 0.254304
vt 0.779911 0.741633
vt 0.795661 0.254304
vt 0.772799 0.741633
vt 0.808297 0.254304
vt 0.823342 0.254304
vt 0.839681 0.254304
vt 0.823225 0.741633
vt 0.808297 0.741633
vt 0.708328 0.741633
vt 0.795544 0.741633
vt 0.834862 0.741633
vt 0.854961 0.254304
vt 0.842032 0.741633
vt 0.853433 0.741633
vt 0.865364 0.254304
vt 0.875884 0.254304
vt 0.890753 0.254304
vt 0.907032 0.254304
vt 0.906445 0.741633
vt 0.890047 0.741633
vt 0.872416 0.741633
vt 0.92102 0.254304
vt 0.865364 0.741633
vt 0.93342 0.254304
vt 0.91908 0.741633
vt 0.931892 0.741633
vt 0.94394 0.254304
vt 0.954578 0.254304
vt 0.969565 0.254304
vt 0.952756 0.741633
vt 0.964883 0.741633
vt 0.965484 0.741633
vt 0.965985 0.741633
vt 0.966487 0.741633
vt 0.966991 0.741633
vt 0.967569 0.741633
vt 0.982318 0.254304
vt 0.995012 0.254304
vt 0.981377 0.741633


# Vertex Surface Normals: 
vn 0 0 1
vn 0 0 -1
vn 1 0 0
vn 1 0 0
vn 1 0 0
vn 1 0 0
vn 1 0 0
vn 0 1 0
vn 0 1 0
vn 0 1 0
vn 0 1 0
vn 0 1 0
vn 0.707119 0.707095 0
vn 0.707119 0.707095 0
vn 0.707119 0.707095 0
vn 0.707119 0.707095 0
vn 0.707119 0.707095 0
vn 0 1 0
vn 0 1 0
vn 0 1 0
vn 0 1 0
vn 0 1 0
vn -0.858063 0.513545 0
vn -0.858063 0.513545 7.47351e-19
vn -0.785853 0.618413 -1.4914e-19
vn -0.785853 0.618413 1.4914e-19
vn -0.858063 0.513545 -7.47351e-19
vn -0.700903 0.713257 0
vn -0.494299 0.869292 -5.39695e-19
vn -0.494299 0.869292 5.39695e-19
vn -0.254562 0.967056 0
vn -0.00208591 0.999998 0
vn -0.00208591 0.999998 0
vn 0.250525 0.96811 0
vn 0.490578 0.871397 -5.54268e-19
vn 0.490578 0.871397 5.54268e-19
vn 0.697772 0.71632 0
vn 0.782927 0.622114 -5.40061e-19
vn 0.782927 0.622114 5.40061e-19
vn 0.855456 0.517876 0
vn 0.855456 0.517876 0
vn 0.855456 0.517876 0
vn 0 1 0
vn 0 1 0
vn 0 1 0
vn 0 1 0
vn 0 1 0
vn -0.724291 0.689495 0
vn -0.724291 0.689495 0
vn -0.724291 0.689495 0
vn -0.724291 0.689495 0
vn -0.724291 0.689495 0
vn 0 1 0
vn 0 1 0
vn 0 1 0
vn 0 1 0
vn 0 1 0
vn 0.794007 0.607909 0
vn 0.794007 0.607909 3.16677e-19
vn 0.794007 0.607909 3.16677e-19
vn 0.794007 0.607909 -3.16677e-19
vn 0.794007 0.607909 -3.16677e-19
vn 0 1 0
vn 0 1 0
vn 0 1 0
vn 0 1 0
vn 0 1 0
vn -0.813664 0.581335 0
vn -0.813664 0.581335 2.48308e-19
vn -0.813664 0.581335 2.48308e-19
vn -0.813664 0.581335 -2.48308e-19
vn -0.813664 0.581335 -2.48308e-19
vn 0 1 0
vn 0 1 0
vn 0 1 0
vn 0 1 0
vn 0 1 0
vn 0.850769 0.525541 0
vn 0.850769 0.525541 1.50968e-19
vn 0.850769 0.525541 1.50968e-19
vn 0.850769 0.525541 -1.50968e-19
vn 0.850769 0.525541 -1.50968e-19
vn 0 1 0
vn 0 1 0
vn 0 1 0
vn 0 1 0
vn 0 1 0
vn -0.794114 0.607769 0
vn -0.794114 0.607769 -2.48403e-19
vn -0.794114 0.607769 -2.48403e-19
vn -0.794114 0.607769 2.48403e-19
vn -0.794114 0.607769 2.48403e-19
vn 0 1 0
vn 0 1 0
vn 0 1 0
vn 0 1 0
vn 0 1 0
vn 0.737284 0.675583 0
vn 0.737284 0.675583 0
vn 0.737284 0.675583 0
vn 0.737284 0.675583 0
vn 0.737284 0.675583 0
vn 0 1 0
vn 0 1 0
vn 0 1 0
vn 0 1 0
vn 0 1 0
vn -0.728131 0.685439 0
vn -0.728131 0.685439 0
vn -0.728131 0.685439 0
vn -0.728131 0.685439 0
vn -0.728131 0.685439 0
vn 0 1 0
vn 0 1 0
vn 0 1 0
vn 0 1 0
vn 0 1 0
vn 0.8325 0.554025 0
vn 0.8325 0.554025 2.21909e-19
vn 0.8325 0.554025 2.21909e-19
vn 0.8325 0.554025 -2.21909e-19
vn 0.8325 0.554025 -2.21909e-19
vn 0 1 0
vn 0 1 0
vn 0 1 0
vn 0 1 0
vn 0 1 0
vn -0.812045 0.583595 0
vn -0.812045 0.583595 -1.94279e-17
vn -0.812045 0.583595 -1.94279e-17
vn -0.812045 0.583595 1.94279e-17
vn -0.812045 0.583595 1.94279e-17
vn 0 1 0
vn 0 1 0
vn 0 1 0
vn 0 1 0
vn 0 1 0
vn 0.796963 0.604028 0
vn 0.796963 0.604028 -1.90584e-17
vn 0.796963 0.604028 -1.90584e-17
vn 0.796963 0.604028 1.90584e-17
vn 0.796963 0.604028 1.90584e-17
vn 0 1 0
vn 0 1 0
vn 0 1 0
vn 0 1 0
vn 0 1 0
vn -0.783044 0.621966 0
vn -0.783044 0.621966 1.87809e-17
vn -0.783044 0.621966 1.87809e-17
vn -0.783044 0.621966 -1.87809e-17
vn -0.783044 0.621966 -1.87809e-17
vn 0 1 0
vn 0 1 0
vn 0 1 0
vn 0 1 0
vn 0 1 0
vn 0.740602 0.671944 0
vn 0.740602 0.671944 9.61261e-19
vn 0.740602 0.671944 9.61261e-19
vn 0.740602 0.671944 -9.61261e-19
vn 0.740602 0.671944 -9.61261e-19
vn 0.00372933 0.999993 0
vn 0.00372933 0.999993 2.87695e-18
vn 0.00372933 0.999993 2.87695e-18
vn 0.00372933 0.999993 -2.87695e-18
vn 0.00372933 0.999993 -2.87695e-18
vn -0.722565 0.691303 0
vn -0.722565 0.691303 8.45297e-18
vn -0.722565 0.691303 8.45297e-18
vn -0.722565 0.691303 -8.45297e-18
vn -0.722565 0.691303 -8.45297e-18
vn 0 1 0
vn 0 1 0
vn 0 1 0
vn 0 1 0
vn 0 1 0
vn 0.857586 0.514341 0
vn 0.857586 0.514341 1.91475e-19
vn 0.857586 0.514341 1.91475e-19
vn 0.857586 0.514341 -1.91475e-19
vn 0.857586 0.514341 -1.91475e-19
vn 0 1 0
vn 0 1 0
vn 0 1 0
vn 0 1 0
vn 0 1 0
vn -0.838024 0.545633 0
vn -0.838024 0.545633 2.49959e-19
vn -0.838024 0.545633 2.49959e-19
vn -0.838024 0.545633 -2.49959e-19
vn -0.838024 0.545633 -2.49959e-19
vn 0 1 0
vn 0 1 0
vn 0 1 0
vn 0 1 0
vn 0 1 0
vn 0.844711 0.535223 0
vn 0.844711 0.535223 -2.30939e-18
vn 0.844711 0.535223 -2.30939e-18
vn 0.844711 0.535223 2.30939e-18
vn 0.844711 0.535223 2.30939e-18
vn 0 1 0
vn 0 1 0
vn 0 1 0
vn 0 1 0
vn 0 1 0
vn -0.708427 0.705784 0
vn -0.708427 0.705784 2.67245e-19
vn -0.708427 0.705784 2.67245e-19
vn -0.708427 0.705784 -2.67245e-19
vn -0.708427 0.705784 -2.67245e-19
vn 0 1 0
vn 0 1 0
vn 0 1 0
vn 0 1 0
vn 0 1 0
vn 0.707119 0.707095 0
vn 0.707119 0.707095 0
vn 0.707119 0.707095 0
vn 0.707119 0.707095 0
vn 0.707119 0.707095 0
vn 0 1 0
vn 0 1 0
vn 0 1 0
vn 0 1 0
vn 0 1 0
vn -0.725322 0.688409 0
vn -0.725322 0.688409 -8.67929e-18
vn -0.725322 0.688409 -8.67929e-18
vn -0.725322 0.688409 8.67929e-18
vn -0.725322 0.688409 8.67929e-18
vn 0 1 0
vn 0 1 0
vn 0 1 0
vn 0 1 0
vn 0 1 0
vn 0.827579 0.561349 0
vn 0.827579 0.561349 2.26644e-19
vn 0.827579 0.561349 2.26644e-19
vn 0.827579 0.561349 -2.26644e-19
vn 0.827579 0.561349 -2.26644e-19
vn 0 1 0
vn 0 1 0
vn 0 1 0
vn 0 1 0
vn 0 1 0
vn -0.818111 0.575061 0
vn -0.818111 0.575061 2.49227e-19
vn -0.818111 0.575061 2.49227e-19
vn -0.818111 0.575061 -2.49227e-19
vn -0.818111 0.575061 -2.49227e-19
vn 0 1 0
vn 0 1 0
vn 0 1 0
vn 0 1 0
vn 0 1 0
vn 0.850798 0.525493 0
vn 0.850798 0.525493 1.02607e-17
vn 0.850798 0.525493 1.02607e-17
vn 0.850798 0.525493 -1.02607e-17
vn 0.850798 0.525493 -1.02607e-17
vn 0 1 0
vn 0 1 0
vn 0 1 0
vn 0 1 0
vn 0 1 0
vn -0.785881 0.618378 0
vn -0.785881 0.618378 2.50548e-19
vn -0.785881 0.618378 2.50548e-19
vn -0.785881 0.618378 -2.50548e-19
vn -0.785881 0.618378 -2.50548e-19
vn 0 1 0
vn 0 1 0
vn 0 1 0
vn 0 1 0
vn 0 1 0
vn 0.748337 0.663319 0
vn 0.748337 0.663319 -1.74285e-17
vn 0.748337 0.663319 -1.74285e-17
vn 0.748337 0.663319 1.74285e-17
vn 0.748337 0.663319 1.74285e-17
vn 0.00378477 0.999993 0
vn 0.00378477 0.999993 0
vn 0.00378477 0.999993 0
vn 0.00378477 0.999993 0
vn 0.00378477 0.999993 0
vn -0.725496 0.688226 0
vn -0.725496 0.688226 0
vn -0.725496 0.688226 0
vn -0.725496 0.688226 0
vn -0.725496 0.688226 0
vn 0 1 0
vn 0 1 0
vn 0 1 0
vn 0 1 0
vn 0 1 0
vn 0.813233 0.581938 0
vn 0.813233 0.581938 2.17212e-19
vn 0.813233 0.581938 2.17212e-19
vn 0.813233 0.581938 -2.17212e-19
vn 0.813233 0.581938 -2.17212e-19
vn 0 1 0
vn 0 1 0
vn 0 1 0
vn 0 1 0
vn 0 1 0
vn -0.787995 0.615682 0
vn -0.787995 0.615682 1.84895e-17
vn -0.787995 0.615682 1.84895e-17
vn -0.787995 0.615682 -1.84895e-17
vn -0.787995 0.615682 -1.84895e-17
vn 0 1 0
vn 0 1 0
vn 0 1 0
vn 0 1 0
vn 0 1 0
vn 0.755311 0.655367 0
vn 0.755311 0.655367 2.43932e-19
vn 0.755311 0.655367 2.43932e-19
vn 0.755311 0.655367 -2.43932e-19
vn 0.755311 0.655367 -2.43932e-19
vn 0 1 0
vn 0 1 0
vn 0 1 0
vn 0 1 0
vn 0 1 0
vn -0.866649 0.498918 0
vn -0.866649 0.498918 -2.3273e-19
vn -0.866649 0.498918 -2.3273e-19
vn -0.866649 0.498918 2.3273e-19
vn -0.866649 0.498918 2.3273e-19
vn 0 1 0
vn 0 1 0
vn 0 1 0
vn 0 1 0
vn 0 1 0
vn 0.760787 0.649002 0
vn 0.760787 0.649002 9.82855e-19
vn 0.760787 0.649002 9.82855e-19
vn 0.760787 0.649002 -9.82855e-19
vn 0.760787 0.649002 -9.82855e-19
vn 0 1 0
vn 0 1 0
vn 0 1 0
vn 0 1 0
vn 0 1 0
vn -0.719016 0.694993 0
vn -0.719016 0.694993 0
vn -0.719016 0.694993 0
vn -0.719016 0.694993 0
vn -0.719016 0.694993 0
vn 0 1 0
vn 0 1 0
vn 0 1 0
vn 0 1 0
vn 0 1 0
vn 0.819789 0.572665 0
vn 0.819789 0.572665 2.25119e-19
vn 0.819789 0.572665 2.25119e-19
vn 0.819789 0.572665 -2.25119e-19
vn 0.819789 0.572665 -2.25119e-19
vn 0 1 0
vn 0 1 0
vn 0 1 0
vn 0 1 0
vn 0 1 0
vn -0.801454 0.598056 0
vn -0.801454 0.598056 -2.41412e-19
vn -0.801454 0.598056 -2.41412e-19
vn -0.801454 0.598056 2.41412e-19
vn -0.801454 0.598056 2.41412e-19
vn 0 1 0
vn 0 1 0
vn 0 1 0
vn 0 1 0
vn 0 1 0
vn 0.858638 0.512582 0
vn 0.858638 0.512582 1.93999e-19
vn 0.858638 0.512582 1.93999e-19
vn 0.858638 0.512582 -1.93999e-19
vn 0.858638 0.512582 -1.93999e-19
vn 0 1 0
vn 0 1 0
vn 0 1 0
vn 0 1 0
vn 0 1 0
vn -0.783422 0.62149 0
vn -0.783422 0.62149 -2.15119e-19
vn -0.783422 0.62149 -2.15119e-19
vn -0.783422 0.62149 2.15119e-19
vn -0.783422 0.62149 2.15119e-19
vn 0 1 0
vn 0 1 0
vn 0 1 0
vn 0 1 0
vn 0 1 0
vn 0.78885 0.614586 0
vn 0.78885 0.614586 0
vn 0.78885 0.614586 0
vn 0.78885 0.614586 0
vn 0.78885 0.614586 0
vn 0 1 0
vn 0 1 0
vn 0 1 0
vn 0 1 0
vn 0 1 0
vn -0.779435 0.626484 0
vn -0.779435 0.626484 -1.01447e-18
vn -0.868817 0.495133 -5.13717e-19
vn -0.868817 0.495133 5.13717e-19
vn -0.779435 0.626484 1.01447e-18
vn -0.936269 0.351284 0
vn -0.936269 0.351284 0
vn -0.936269 0.351284 0
vn -0.349411 -0.936969 0
vn -0.349411 -0.936969 0
vn -0.349411 -0.936969 0
vn -0.349411 -0.936969 0
vn -0.349411 -0.936969 0
vn 0.93725 -0.348659 0
vn 0.93725 -0.348659 0
vn 0.869506 -0.493922 3.56924e-19
vn 0.869506 -0.493922 -3.56924e-19
vn 0.93725 -0.348659 0
vn 0.779424 -0.626496 0
vn 0.779424 -0.626496 7.04679e-19
vn 0.779424 -0.626496 -7.04679e-19
vn 0 -1 0
vn 0 -1 0
vn 0 -1 0
vn 0 -1 0
vn 0 -1 0
vn -0.78885 -0.614586 0
vn -0.78885 -0.614586 0
vn -0.78885 -0.614586 0
vn -0.78885 -0.614586 0
vn -0.78885 -0.614586 0
vn 0 -1 0
vn 0 -1 0
vn 0 -1 0
vn 0 -1 0
vn 0 -1 0
vn 0.783422 -0.62149 0
vn 0.783422 -0.62149 -2.15119e-19
vn 0.783422 -0.62149 -2.15119e-19
vn 0.783422 -0.62149 2.15119e-19
vn 0.783422 -0.62149 2.15119e-19
vn 0 -1 0
vn 0 -1 0
vn 0 -1 0
vn 0 -1 0
vn 0 -1 0
vn -0.858638 -0.512582 0
vn -0.858638 -0.512582 -1.93999e-19
vn -0.858638 -0.512582 -1.93999e-19
vn -0.858638 -0.512582 1.93999e-19
vn -0.858638 -0.512582 1.93999e-19
vn 0 -1 0
vn 0 -1 0
vn 0 -1 0
vn 0 -1 0
vn 0 -1 0
vn 0.801455 -0.598056 0
vn 0.801455 -0.598056 -2.41412e-19
vn 0.801455 -0.598056 -2.41412e-19
vn 0.801455 -0.598056 2.41412e-19
vn 0.801455 -0.598056 2.41412e-19
vn 0 -1 0
vn 0 -1 0
vn 0 -1 0
vn 0 -1 0
vn 0 -1 0
vn -0.819789 -0.572665 0
vn -0.819789 -0.572665 -2.25119e-19
vn -0.819789 -0.572665 -2.25119e-19
vn -0.819789 -0.572665 2.25119e-19
vn -0.819789 -0.572665 2.25119e-19
vn 0 -1 0
vn 0 -1 0
vn 0 -1 0
vn 0 -1 0
vn 0 -1 0
vn 0.719016 -0.694993 0
vn 0.719016 -0.694993 0
vn 0.719016 -0.694993 0
vn 0.719016 -0.694993 0
vn 0.719016 -0.694993 0
vn 0 -1 0
vn 0 -1 0
vn 0 -1 0
vn 0 -1 0
vn 0 -1 0
vn -0.760787 -0.649002 0
vn -0.760787 -0.649002 0
vn -0.760787 -0.649002 0
vn -0.760787 -0.649002 0
vn -0.760787 -0.649002 0
vn 0 -1 0
vn 0 -1 0
vn 0 -1 0
vn 0 -1 0
vn 0 -1 0
vn 0.866649 -0.498918 0
vn 0.866649 -0.498918 1.55153e-19
vn 0.866649 -0.498918 1.55153e-19
vn 0.866649 -0.498918 -1.55153e-19
vn 0.866649 -0.498918 -1.55153e-19
vn 0 -1 0
vn 0 -1 0
vn 0 -1 0
vn 0 -1 0
vn 0 -1 0
vn -0.755112 -0.655596 0
vn -0.755112 -0.655596 2.43868e-19
vn -0.755112 -0.655596 2.43868e-19
vn -0.755112 -0.655596 -2.43868e-19
vn -0.755112 -0.655596 -2.43868e-19
vn 0 -1 0
vn 0 -1 0
vn 0 -1 0
vn 0 -1 0
vn 0 -1 0
vn 0.787995 -0.615682 0
vn 0.787995 -0.615682 -1.84895e-17
vn 0.787995 -0.615682 -1.84895e-17
vn 0.787995 -0.615682 1.84895e-17
vn 0.787995 -0.615682 1.84895e-17
vn 0 -1 0
vn 0 -1 0
vn 0 -1 0
vn 0 -1 0
vn 0 -1 0
vn -0.813233 -0.581938 0
vn -0.813233 -0.581938 1.94767e-17
vn -0.813233 -0.581938 1.94767e-17
vn -0.813233 -0.581938 -1.94767e-17
vn -0.813233 -0.581938 -1.94767e-17
vn 0 -1 0
vn 0 -1 0
vn 0 -1 0
vn 0 -1 0
vn 0 -1 0
vn 0.725496 -0.688226 0
vn 0.725496 -0.688226 -1.7255e-17
vn 0.725496 -0.688226 -1.7255e-17
vn 0.725496 -0.688226 1.7255e-17
vn 0.725496 -0.688226 1.7255e-17
vn 0 -1 0
vn 0 -1 0
vn 0 -1 0
vn 0 -1 0
vn 0 -1 0
vn -0.748324 -0.663333 0
vn -0.748324 -0.663333 1.74282e-17
vn -0.748324 -0.663333 1.74282e-17
vn -0.748324 -0.663333 -1.74282e-17
vn -0.748324 -0.663333 -1.74282e-17
vn -0.00505535 -0.999987 0
vn -0.00505535 -0.999987 -1.14778e-19
vn -0.00505535 -0.999987 -1.14778e-19
vn -0.00505535 -0.999987 1.14778e-19
vn -0.00505535 -0.999987 1.14778e-19
vn 0.785881 -0.618378 0
vn 0.785881 -0.618378 -1.87911e-17
vn 0.785881 -0.618378 -1.87911e-17
vn 0.785881 -0.618378 1.87911e-17
vn 0.785881 -0.618378 1.87911e-17
vn 0 -1 0
vn 0 -1 0
vn 0 -1 0
vn 0 -1 0
vn 0 -1 0
vn -0.850694 -0.525661 0
vn -0.850694 -0.525661 -1.02595e-17
vn -0.850694 -0.525661 -1.02595e-17
vn -0.850694 -0.525661 1.02595e-17
vn -0.850694 -0.525661 1.02595e-17
vn 0 -1 0
vn 0 -1 0
vn 0 -1 0
vn 0 -1 0
vn 0 -1 0
vn 0.818111 -0.575061 0
vn 0.818111 -0.575061 -9.47063e-18
vn 0.818111 -0.575061 -9.47063e-18
vn 0.818111 -0.575061 9.47063e-18
vn 0.818111 -0.575061 9.47063e-18
vn 0 -1 0
vn 0 -1 0
vn 0 -1 0
vn 0 -1 0
vn 0 -1 0
vn -0.827579 -0.561349 0
vn -0.827579 -0.561349 2.26644e-19
vn -0.827579 -0.561349 2.26644e-19
vn -0.827579 -0.561349 -2.26644e-19
vn -0.827579 -0.561349 -2.26644e-19
vn 0 -1 0
vn 0 -1 0
vn 0 -1 0
vn 0 -1 0
vn 0 -1 0
vn 0.725322 -0.688409 0
vn 0.725322 -0.688409 0
vn 0.725322 -0.688409 0
vn 0.725322 -0.688409 0
vn 0.725322 -0.688409 0
vn 0 -1 0
vn 0 -1 0
vn 0 -1 0
vn 0 -1 0
vn 0 -1 0
vn -0.707119 -0.707095 0
vn -0.707119 -0.707095 0
vn -0.707119 -0.707095 0
vn -0.707119 -0.707095 0
vn -0.707119 -0.707095 0
vn 0 -1 0
vn 0 -1 0
vn 0 -1 0
vn 0 -1 0
vn 0 -1 0
vn 0.708427 -0.705784 0
vn 0.708427 -0.705784 -2.67245e-19
vn 0.708427 -0.705784 -2.67245e-19
vn 0.708427 -0.705784 2.67245e-19
vn 0.708427 -0.705784 2.67245e-19
vn 0 -1 0
vn 0 -1 0
vn 0 -1 0
vn 0 -1 0
vn 0 -1 0
vn -0.844711 -0.535223 0
vn -0.844711 -0.535223 -2.71692e-18
vn -0.844711 -0.535223 -2.71692e-18
vn -0.844711 -0.535223 2.71692e-18
vn -0.844711 -0.535223 2.71692e-18
vn 0 -1 0
vn 0 -1 0
vn 0 -1 0
vn 0 -1 0
vn 0 -1 0
vn 0.838024 -0.545633 0
vn 0.838024 -0.545633 -2.49959e-19
vn 0.838024 -0.545633 -2.49959e-19
vn 0.838024 -0.545633 2.49959e-19
vn 0.838024 -0.545633 2.49959e-19
vn 0 -1 0
vn 0 -1 0
vn 0 -1 0
vn 0 -1 0
vn 0 -1 0
vn -0.857586 -0.514341 0
vn -0.857586 -0.514341 -1.91475e-19
vn -0.857586 -0.514341 -1.91475e-19
vn -0.857586 -0.514341 1.91475e-19
vn -0.857586 -0.514341 1.91475e-19
vn 0 -1 0
vn 0 -1 0
vn 0 -1 0
vn 0 -1 0
vn 0 -1 0
vn 0.722565 -0.691303 0
vn 0.722565 -0.691303 0
vn 0.722565 -0.691303 0
vn 0.722565 -0.691303 0
vn 0.722565 -0.691303 0
vn 0 -1 0
vn 0 -1 0
vn 0 -1 0
vn 0 -1 0
vn 0 -1 0
vn -0.740602 -0.671944 0
vn -0.740602 -0.671944 1.73027e-17
vn -0.740602 -0.671944 1.73027e-17
vn -0.740602 -0.671944 -1.73027e-17
vn -0.740602 -0.671944 -1.73027e-17
vn -0.00505745 -0.999987 0
vn -0.00505745 -0.999987 0
vn -0.00505745 -0.999987 0
vn -0.00505745 -0.999987 0
vn -0.00505745 -0.999987 0
vn 0.783044 -0.621966 0
vn 0.783044 -0.621966 -1.82867e-17
vn 0.783044 -0.621966 -1.82867e-17
vn 0.783044 -0.621966 1.82867e-17
vn 0.783044 -0.621966 1.82867e-17
vn 0 -1 0
vn 0 -1 0
vn 0 -1 0
vn 0 -1 0
vn 0 -1 0
vn -0.796963 -0.604028 0
vn -0.796963 -0.604028 1.91255e-17
vn -0.796963 -0.604028 1.91255e-17
vn -0.796963 -0.604028 -1.91255e-17
vn -0.796963 -0.604028 -1.91255e-17
vn 0 -1 0
vn 0 -1 0
vn 0 -1 0
vn 0 -1 0
vn 0 -1 0
vn 0.812045 -0.583595 0
vn 0.812045 -0.583595 -1.89864e-17
vn 0.812045 -0.583595 -1.89864e-17
vn 0.812045 -0.583595 1.89864e-17
vn 0.812045 -0.583595 1.89864e-17
vn 0 -1 0
vn 0 -1 0
vn 0 -1 0
vn 0 -1 0
vn 0 -1 0
vn -0.8325 -0.554025 0
vn -0.8325 -0.554025 1.47939e-19
vn -0.8325 -0.554025 1.47939e-19
vn -0.8325 -0.554025 -1.47939e-19
vn -0.8325 -0.554025 -1.47939e-19
vn 0 -1 0
vn 0 -1 0
vn 0 -1 0
vn 0 -1 0
vn 0 -1 0
vn 0.728131 -0.685438 0
vn 0.728131 -0.685438 0
vn 0.728131 -0.685438 0
vn 0.728131 -0.685438 0
vn 0.728131 -0.685438 0
vn 0 -1 0
vn 0 -1 0
vn 0 -1 0
vn 0 -1 0
vn 0 -1 0
vn -0.737284 -0.675583 0
vn -0.737284 -0.675583 0
vn -0.737284 -0.675583 0
vn -0.737284 -0.675583 0
vn -0.737284 -0.675583 0
vn 0 -1 0
vn 0 -1 0
vn 0 -1 0
vn 0 -1 0
vn 0 -1 0
vn 0.794311 -0.607511 0
vn 0.794311 -0.607511 -2.48465e-19
vn 0.794311 -0.607511 -2.48465e-19
vn 0.794311 -0.607511 2.48465e-19
vn 0.794311 -0.607511 2.48465e-19
vn 0 -1 0
vn 0 -1 0
vn 0 -1 0
vn 0 -1 0
vn 0 -1 0
vn -0.850769 -0.525541 0
vn -0.850769 -0.525541 -2.26453e-19
vn -0.850769 -0.525541 -2.26453e-19
vn -0.850769 -0.525541 2.26453e-19
vn -0.850769 -0.525541 2.26453e-19
vn 0 -1 0
vn 0 -1 0
vn 0 -1 0
vn 0 -1 0
vn 0 -1 0
vn 0.813664 -0.581335 0
vn 0.813664 -0.581335 2.48308e-19
vn 0.813664 -0.581335 2.48308e-19
vn 0.813664 -0.581335 -2.48308e-19
vn 0.813664 -0.581335 -2.48308e-19
vn 0 -1 0
vn 0 -1 0
vn 0 -1 0
vn 0 -1 0
vn 0 -1 0
vn -0.794007 -0.607909 0
vn -0.794007 -0.607909 3.16677e-19
vn -0.794007 -0.607909 3.16677e-19
vn -0.794007 -0.607909 -3.16677e-19
vn -0.794007 -0.607909 -3.16677e-19
vn 0 -1 0
vn 0 -1 0
vn 0 -1 0
vn 0 -1 0
vn 0 -1 0
vn 0.724291 -0.689495 0
vn 0.724291 -0.689495 0
vn 0.724291 -0.689495 0
vn 0.724291 -0.689495 0
vn 0.724291 -0.689495 0
vn 0 -1 0
vn 0 -1 0
vn 0 -1 0
vn 0 -1 0
vn 0 -1 0
vn -0.855602 -0.517634 0
vn -0.855602 -0.517634 7.97109e-19
vn -0.782911 -0.622134 1.46865e-18
vn -0.782911 -0.622134 -1.46865e-18
vn -0.855602 -0.517634 -7.97109e-19
vn -0.697532 -0.716553 0
vn -0.490977 -0.871172 1.83417e-18
vn -0.490977 -0.871172 -1.83417e-18
vn -0.251737 -0.967796 0
vn 0.000818859 -1 7.38872e-19
vn 0.000818859 -1 -7.38872e-19
vn 0.253322 -0.967382 0
vn 0.493641 -0.869666 0
vn 0.493641 -0.869666 0
vn 0.700737 -0.71342 0
vn 0.785975 -0.618258 -3.72918e-19
vn 0.785975 -0.618258 3.72918e-19
vn 0.858385 -0.513006 0
vn 0.858385 -0.513006 -7.39749e-19
vn 0.858385 -0.513006 7.39749e-19
vn 0 -1 0
vn 0 -1 0
vn 0 -1 0
vn 0 -1 0
vn 0 -1 0
vn -0.707119 -0.707095 0
vn -0.707119 -0.707095 9.42826e-19
vn -0.707119 -0.707095 9.42826e-19
vn -0.707119 -0.707095 -9.42826e-19
vn -0.707119 -0.707095 -9.42826e-19
vn 0 -1 0
vn 0 -1 0
vn 0 -1 0
vn 0 -1 0
vn 0 -1 0


# Faces: 
usemtl material0
f 265/95/1 266/96/1 248/78/1
f 252/82/1 261/91/1 262/92/1
f 262/92/1 263/93/1 251/81/1
f 248/78/1 266/96/1 247/77/1
f 271/101/1 243/73/1 270/100/1
f 244/74/1 269/99/1 270/100/1
f 267/97/1 247/77/1 266/96/1
f 274/104/1 239/69/1 273/103/1
f 262/92/1 251/81/1 252/82/1
f 268/98/1 269/99/1 244/74/1
f 248/78/1 264/94/1 265/95/1
f 243/73/1 244/74/1 270/100/1
f 240/70/1 273/103/1 239/69/1
f 236/66/1 276/106/1 277/107/1
f 237/67/1 276/106/1 236/66/1
f 274/104/1 275/105/1 239/69/1
f 275/105/1 276/106/1 237/67/1
f 272/102/1 273/103/1 240/70/1
f 277/107/1 235/65/1 236/66/1
f 275/105/1 238/68/1 239/69/1
f 277/107/1 278/108/1 235/65/1
f 261/91/1 252/82/1 260/90/1
f 282/112/1 283/113/1 231/61/1
f 281/111/1 282/112/1 232/62/1
f 228/58/1 285/115/1 286/116/1
f 224/54/1 289/119/1 290/120/1
f 293/123/1 294/124/1 220/50/1
f 287/117/1 227/57/1 286/116/1
f 223/53/1 290/120/1 291/121/1
f 228/58/1 286/116/1 227/57/1
f 231/61/1 232/62/1 282/112/1
f 285/115/1 228/58/1 284/114/1
f 288/118/1 289/119/1 224/54/1
f 232/62/1 280/110/1 281/111/1
f 224/54/1 290/120/1 223/53/1
f 294/124/1 219/49/1 220/50/1
f 295/125/1 219/49/1 294/124/1
f 215/45/1 216/46/1 298/128/1
f 297/127/1 216/46/1 296/126/1
f 215/45/1 299/129/1 214/44/1
f 220/50/1 292/122/1 293/123/1
f 297/127/1 298/128/1 216/46/1
f 278/108/1 279/109/1 235/65/1
f 263/93/1 264/94/1 250/80/1
f 249/79/1 250/80/1 264/94/1
f 248/78/1 249/79/1 264/94/1
f 251/81/1 263/93/1 250/80/1
f 267/97/1 268/98/1 246/76/1
f 268/98/1 245/75/1 246/76/1
f 245/75/1 268/98/1 244/74/1
f 267/97/1 246/76/1 247/77/1
f 256/86/1 258/88/1 255/85/1
f 255/85/1 259/89/1 254/84/1
f 259/89/1 255/85/1 258/88/1
f 254/84/1 259/89/1 260/90/1
f 256/86/1 257/87/1 258/88/1
f 253/83/1 260/90/1 252/82/1
f 271/101/1 272/102/1 242/72/1
f 241/71/1 242/72/1 272/102/1
f 240/70/1 241/71/1 272/102/1
f 260/90/1 253/83/1 254/84/1
f 242/72/1 243/73/1 271/101/1
f 279/109/1 234/64/1 235/65/1
f 280/110/1 234/64/1 279/109/1
f 231/61/1 283/113/1 230/60/1
f 287/117/1 288/118/1 226/56/1
f 237/67/1 238/68/1 275/105/1
f 222/52/1 223/53/1 291/121/1
f 291/121/1 292/122/1 222/52/1
f 224/54/1 225/55/1 288/118/1
f 221/51/1 222/52/1 292/122/1
f 288/118/1 225/55/1 226/56/1
f 287/117/1 226/56/1 227/57/1
f 234/64/1 280/110/1 233/63/1
f 230/60/1 283/113/1 284/114/1
f 233/63/1 280/110/1 232/62/1
f 230/60/1 284/114/1 229/59/1
f 220/50/1 221/51/1 292/122/1
f 295/125/1 218/48/1 219/49/1
f 295/125/1 296/126/1 217/47/1
f 217/47/1 218/48/1 295/125/1
f 216/46/1 217/47/1 296/126/1
f 284/114/1 228/58/1 229/59/1
f 215/45/1 298/128/1 299/129/1
f 302/132/1 303/133/1 211/41/1
f 306/136/1 208/38/1 305/135/1
f 212/42/1 301/131/1 302/132/1
f 207/37/1 306/136/1 307/137/1
f 313/143/1 314/144/1 199/29/1
f 200/30/1 313/143/1 199/29/1
f 312/142/1 200/30/1 201/31/1
f 309/139/1 310/140/1 204/34/1
f 199/29/1 314/144/1 315/145/1
f 313/143/1 200/30/1 312/142/1
f 211/41/1 212/42/1 302/132/1
f 213/43/1 300/130/1 212/42/1
f 300/130/1 213/43/1 214/44/1
f 208/38/1 304/134/1 305/135/1
f 300/130/1 301/131/1 212/42/1
f 310/140/1 203/33/1 204/34/1
f 308/138/1 309/139/1 204/34/1
f 203/33/1 310/140/1 311/141/1
f 203/33/1 311/141/1 202/32/1
f 207/37/1 208/38/1 306/136/1
f 312/142/1 202/32/1 311/141/1
f 191/21/1 321/151/1 322/152/1
f 326/156/1 188/18/1 325/155/1
f 329/159/1 330/160/1 184/14/1
f 330/160/1 331/161/1 183/13/1
f 330/160/1 183/13/1 184/14/1
f 173/3/1 340/170/1 171/1/1
f 326/156/1 327/157/1 187/17/1
f 192/22/1 321/151/1 191/21/1
f 196/26/1 318/148/1 195/25/1
f 320/150/1 321/151/1 192/22/1
f 316/146/1 317/147/1 196/26/1
f 322/152/1 323/153/1 191/21/1
f 319/149/1 195/25/1 318/148/1
f 324/154/1 325/155/1 188/18/1
f 326/156/1 187/17/1 188/18/1
f 324/154/1 188/18/1 189/19/1
f 340/170/1 173/3/1 339/169/1
f 171/1/1 172/2/1 173/3/1
f 328/158/1 329/159/1 184/14/1
f 190/20/1 191/21/1 323/153/1
f 318/148/1 196/26/1 317/147/1
f 190/20/1 323/153/1 324/154/1
f 206/36/1 207/37/1 307/137/1
f 210/40/1 303/133/1 304/134/1
f 201/31/1 202/32/1 312/142/1
f 210/40/1 211/41/1 303/133/1
f 315/145/1 316/146/1 198/28/1
f 316/146/1 197/27/1 198/28/1
f 189/19/1 190/20/1 324/154/1
f 199/29/1 315/145/1 198/28/1
f 210/40/1 304/134/1 209/39/1
f 206/36/1 307/137/1 308/138/1
f 209/39/1 304/134/1 208/38/1
f 206/36/1 308/138/1 205/35/1
f 196/26/1 197/27/1 316/146/1
f 319/149/1 194/24/1 195/25/1
f 319/149/1 320/150/1 194/24/1
f 194/24/1 320/150/1 193/23/1
f 192/22/1 193/23/1 320/150/1
f 308/138/1 204/34/1 205/35/1
f 327/157/1 328/158/1 185/15/1
f 327/157/1 186/16/1 187/17/1
f 185/15/1 186/16/1 327/157/1
f 331/161/1 182/12/1 183/13/1
f 185/15/1 328/158/1 184/14/1
f 179/9/1 334/164/1 335/165/1
f 178/8/1 335/165/1 336/166/1
f 178/8/1 179/9/1 335/165/1
f 177/7/1 178/8/1 336/166/1
f 333/163/1 179/9/1 180/10/1
f 336/166/1 337/167/1 177/7/1
f 334/164/1 179/9/1 333/163/1
f 332/162/1 333/163/1 180/10/1
f 182/12/1 332/162/1 181/11/1
f 332/162/1 182/12/1 331/161/1
f 181/11/1 332/162/1 180/10/1
f 176/6/1 337/167/1 338/168/1
f 176/6/1 338/168/1 175/5/1
f 338/168/1 174/4/1 175/5/1
f 174/4/1 338/168/1 339/169/1
f 174/4/1 339/169/1 173/3/1
f 177/7/1 337/167/1 176/6/1
f 214/44/1 299/129/1 300/130/1
f 96/266/2 95/265/2 78/248/2
f 91/261/2 82/252/2 92/262/2
f 93/263/2 92/262/2 81/251/2
f 96/266/2 78/248/2 77/247/2
f 73/243/2 101/271/2 100/270/2
f 99/269/2 74/244/2 100/270/2
f 77/247/2 97/267/2 96/266/2
f 69/239/2 104/274/2 103/273/2
f 81/251/2 92/262/2 82/252/2
f 99/269/2 98/268/2 74/244/2
f 94/264/2 78/248/2 95/265/2
f 74/244/2 73/243/2 100/270/2
f 103/273/2 70/240/2 69/239/2
f 106/276/2 66/236/2 107/277/2
f 106/276/2 67/237/2 66/236/2
f 105/275/2 104/274/2 69/239/2
f 106/276/2 105/275/2 67/237/2
f 103/273/2 102/272/2 70/240/2
f 65/235/2 107/277/2 66/236/2
f 68/238/2 105/275/2 69/239/2
f 108/278/2 107/277/2 65/235/2
f 82/252/2 91/261/2 90/260/2
f 113/283/2 112/282/2 61/231/2
f 112/282/2 111/281/2 62/232/2
f 115/285/2 58/228/2 116/286/2
f 119/289/2 54/224/2 120/290/2
f 124/294/2 123/293/2 50/220/2
f 57/227/2 117/287/2 116/286/2
f 120/290/2 53/223/2 121/291/2
f 116/286/2 58/228/2 57/227/2
f 62/232/2 61/231/2 112/282/2
f 58/228/2 115/285/2 114/284/2
f 119/289/2 118/288/2 54/224/2
f 110/280/2 62/232/2 111/281/2
f 120/290/2 54/224/2 53/223/2
f 49/219/2 124/294/2 50/220/2
f 49/219/2 125/295/2 124/294/2
f 46/216/2 45/215/2 128/298/2
f 46/216/2 127/297/2 126/296/2
f 129/299/2 45/215/2 44/214/2
f 122/292/2 50/220/2 123/293/2
f 128/298/2 127/297/2 46/216/2
f 109/279/2 108/278/2 65/235/2
f 94/264/2 93/263/2 80/250/2
f 80/250/2 79/249/2 94/264/2
f 79/249/2 78/248/2 94/264/2
f 93/263/2 81/251/2 80/250/2
f 98/268/2 97/267/2 76/246/2
f 75/245/2 98/268/2 76/246/2
f 98/268/2 75/245/2 74/244/2
f 76/246/2 97/267/2 77/247/2
f 88/258/2 86/256/2 85/255/2
f 89/259/2 85/255/2 84/254/2
f 85/255/2 89/259/2 88/258/2
f 89/259/2 84/254/2 90/260/2
f 87/257/2 86/256/2 88/258/2
f 90/260/2 83/253/2 82/252/2
f 102/272/2 101/271/2 72/242/2
f 72/242/2 71/241/2 102/272/2
f 71/241/2 70/240/2 102/272/2
f 83/253/2 90/260/2 84/254/2
f 73/243/2 72/242/2 101/271/2
f 64/234/2 109/279/2 65/235/2
f 64/234/2 110/280/2 109/279/2
f 113/283/2 61/231/2 60/230/2
f 118/288/2 117/287/2 56/226/2
f 68/238/2 67/237/2 105/275/2
f 53/223/2 52/222/2 121/291/2
f 122/292/2 121/291/2 52/222/2
f 55/225/2 54/224/2 118/288/2
f 52/222/2 51/221/2 122/292/2
f 55/225/2 118/288/2 56/226/2
f 56/226/2 117/287/2 57/227/2
f 110/280/2 64/234/2 63/233/2
f 113/283/2 60/230/2 114/284/2
f 110/280/2 63/233/2 62/232/2
f 114/284/2 60/230/2 59/229/2
f 51/221/2 50/220/2 122/292/2
f 48/218/2 125/295/2 49/219/2
f 126/296/2 125/295/2 47/217/2
f 48/218/2 47/217/2 125/295/2
f 47/217/2 46/216/2 126/296/2
f 58/228/2 114/284/2 59/229/2
f 128/298/2 45/215/2 129/299/2
f 133/303/2 132/302/2 41/211/2
f 38/208/2 136/306/2 135/305/2
f 131/301/2 42/212/2 132/302/2
f 136/306/2 37/207/2 137/307/2
f 144/314/2 143/313/2 29/199/2
f 143/313/2 30/200/2 29/199/2
f 30/200/2 142/312/2 31/201/2
f 140/310/2 139/309/2 34/204/2
f 144/314/2 29/199/2 145/315/2
f 30/200/2 143/313/2 142/312/2
f 42/212/2 41/211/2 132/302/2
f 130/300/2 43/213/2 42/212/2
f 43/213/2 130/300/2 44/214/2
f 134/304/2 38/208/2 135/305/2
f 131/301/2 130/300/2 42/212/2
f 33/203/2 140/310/2 34/204/2
f 139/309/2 138/308/2 34/204/2
f 140/310/2 33/203/2 141/311/2
f 141/311/2 33/203/2 32/202/2
f 38/208/2 37/207/2 136/306/2
f 32/202/2 142/312/2 141/311/2
f 151/321/2 21/191/2 152/322/2
f 18/188/2 156/326/2 155/325/2
f 160/330/2 159/329/2 14/184/2
f 161/331/2 160/330/2 13/183/2
f 13/183/2 160/330/2 14/184/2
f 170/340/2 3/173/2 1/171/2
f 157/327/2 156/326/2 17/187/2
f 151/321/2 22/192/2 21/191/2
f 148/318/2 26/196/2 25/195/2
f 151/321/2 150/320/2 22/192/2
f 147/317/2 146/316/2 26/196/2
f 153/323/2 152/322/2 21/191/2
f 25/195/2 149/319/2 148/318/2
f 155/325/2 154/324/2 18/188/2
f 17/187/2 156/326/2 18/188/2
f 18/188/2 154/324/2 19/189/2
f 3/173/2 170/340/2 169/339/2
f 2/172/2 1/171/2 3/173/2
f 159/329/2 158/328/2 14/184/2
f 21/191/2 20/190/2 153/323/2
f 26/196/2 148/318/2 147/317/2
f 153/323/2 20/190/2 154/324/2
f 37/207/2 36/206/2 137/307/2
f 133/303/2 40/210/2 134/304/2
f 32/202/2 31/201/2 142/312/2
f 41/211/2 40/210/2 133/303/2
f 146/316/2 145/315/2 28/198/2
f 27/197/2 146/316/2 28/198/2
f 20/190/2 19/189/2 154/324/2
f 145/315/2 29/199/2 28/198/2
f 134/304/2 40/210/2 39/209/2
f 137/307/2 36/206/2 138/308/2
f 134/304/2 39/209/2 38/208/2
f 138/308/2 36/206/2 35/205/2
f 27/197/2 26/196/2 146/316/2
f 24/194/2 149/319/2 25/195/2
f 150/320/2 149/319/2 24/194/2
f 150/320/2 24/194/2 23/193/2
f 23/193/2 22/192/2 150/320/2
f 34/204/2 138/308/2 35/205/2
f 158/328/2 157/327/2 15/185/2
f 16/186/2 157/327/2 17/187/2
f 16/186/2 15/185/2 157/327/2
f 12/182/2 161/331/2 13/183/2
f 158/328/2 15/185/2 14/184/2
f 164/334/2 9/179/2 165/335/2
f 165/335/2 8/178/2 166/336/2
f 9/179/2 8/178/2 165/335/2
f 8/178/2 7/177/2 166/336/2
f 9/179/2 163/333/2 10/180/2
f 167/337/2 166/336/2 7/177/2
f 9/179/2 164/334/2 163/333/2
f 163/333/2 162/332/2 10/180/2
f 162/332/2 12/182/2 11/181/2
f 12/182/2 162/332/2 161/331/2
f 162/332/2 11/181/2 10/180/2
f 167/337/2 6/176/2 168/338/2
f 168/338/2 6/176/2 5/175/2
f 4/174/2 168/338/2 5/175/2
f 168/338/2 4/174/2 169/339/2
f 169/339/2 4/174/2 3/173/2
f 167/337/2 7/177/2 6/176/2
f 129/299/2 44/214/2 130/300/2
f 341/997/3 1/341/4 2/342/5
f 341/997/3 2/342/5 172/670/6
f 341/997/3 172/670/6 171/669/7
f 341/997/3 171/669/7 1/341/4
f 342/998/8 2/343/9 3/344/10
f 342/998/8 3/344/10 173/672/11
f 342/998/8 173/672/11 172/671/12
f 342/998/8 172/671/12 2/343/9
f 343/999/13 3/345/14 4/346/15
f 343/999/13 4/346/15 174/674/16
f 343/999/13 174/674/16 173/673/17
f 343/999/13 173/673/17 3/345/14
f 344/1000/18 4/347/19 5/348/20
f 344/1000/18 5/348/20 175/676/21
f 344/1000/18 175/676/21 174/675/22
f 344/1000/18 174/675/22 4/347/19
f 345/1001/23 5/349/24 6/350/25
f 345/1001/23 6/350/25 176/678/26
f 345/1001/23 176/678/26 175/677/27
f 345/1001/23 175/677/27 5/349/24
f 346/1002/28 6/350/25 7/351/29
f 346/1002/28 7/351/29 177/679/30
f 346/1002/28 177/679/30 176/678/26
f 346/1002/28 176/678/26 6/350/25
f 347/1003/31 7/351/29 8/352/32
f 347/1003/31 8/352/32 178/680/33
f 347/1003/31 178/680/33 177/679/30
f 347/1003/31 177/679/30 7/351/29
f 348/1004/34 8/352/32 9/353/35
f 348/1004/34 9/353/35 179/681/36
f 348/1004/34 179/681/36 178/680/33
f 348/1004/34 178/680/33 8/352/32
f 349/1005/37 9/353/35 10/354/38
f 349/1005/37 10/354/38 180/682/39
f 349/1005/37 180/682/39 179/681/36
f 349/1005/37 179/681/36 9/353/35
f 350/1006/40 10/354/38 11/355/41
f 350/1006/40 11/355/41 181/683/42
f 350/1006/40 181/683/42 180/682/39
f 350/1006/40 180/682/39 10/354/38
f 351/1007/43 11/356/44 12/357/45
f 351/1007/43 12/357/45 182/685/46
f 351/1007/43 182/685/46 181/684/47
f 351/1007/43 181/684/47 11/356/44
f 352/1008/48 12/358/49 13/359/50
f 352/1008/48 13/359/50 183/687/51
f 352/1008/48 183/687/51 182/686/52
f 352/1008/48 182/686/52 12/358/49
f 353/1009/53 13/360/54 14/361/55
f 353/1009/53 14/361/55 184/689/56
f 353/1009/53 184/689/56 183/688/57
f 353/1009/53 183/688/57 13/360/54
f 354/1010/58 14/362/59 15/363/60
f 354/1010/58 15/363/60 185/691/61
f 354/1010/58 185/691/61 184/690/62
f 354/1010/58 184/690/62 14/362/59
f 355/1011/63 15/364/64 16/365/65
f 355/1011/63 16/365/65 186/693/66
f 355/1011/63 186/693/66 185/692/67
f 355/1011/63 185/692/67 15/364/64
f 356/1012/68 16/366/69 17/367/70
f 356/1012/68 17/367/70 187/695/71
f 356/1012/68 187/695/71 186/694/72
f 356/1012/68 186/694/72 16/366/69
f 357/1013/73 17/368/74 18/369/75
f 357/1013/73 18/369/75 188/697/76
f 357/1013/73 188/697/76 187/696/77
f 357/1013/73 187/696/77 17/368/74
f 358/1014/78 18/370/79 19/371/80
f 358/1014/78 19/371/80 189/699/81
f 358/1014/78 189/699/81 188/698/82
f 358/1014/78 188/698/82 18/370/79
f 359/1015/83 19/372/84 20/373/85
f 359/1015/83 20/373/85 190/701/86
f 359/1015/83 190/701/86 189/700/87
f 359/1015/83 189/700/87 19/372/84
f 360/1016/88 20/374/89 21/375/90
f 360/1016/88 21/375/90 191/703/91
f 360/1016/88 191/703/91 190/702/92
f 360/1016/88 190/702/92 20/374/89
f 361/1017/93 21/376/94 22/377/95
f 361/1017/93 22/377/95 192/705/96
f 361/1017/93 192/705/96 191/704/97
f 361/1017/93 191/704/97 21/376/94
f 362/1018/98 22/378/99 23/379/100
f 362/1018/98 23/379/100 193/707/101
f 362/1018/98 193/707/101 192/706/102
f 362/1018/98 192/706/102 22/378/99
f 363/1019/103 23/380/104 24/381/105
f 363/1019/103 24/381/105 194/709/106
f 363/1019/103 194/709/106 193/708/107
f 363/1019/103 193/708/107 23/380/104
f 364/1020/108 24/382/109 25/383/110
f 364/1020/108 25/383/110 195/711/111
f 364/1020/108 195/711/111 194/710/112
f 364/1020/108 194/710/112 24/382/109
f 365/1021/113 25/384/114 26/385/115
f 365/1021/113 26/385/115 196/713/116
f 365/1021/113 196/713/116 195/712/117
f 365/1021/113 195/712/117 25/384/114
f 366/1022/118 26/386/119 27/387/120
f 366/1022/118 27/387/120 197/715/121
f 366/1022/118 197/715/121 196/714/122
f 366/1022/118 196/714/122 26/386/119
f 367/1023/123 27/388/124 28/389/125
f 367/1023/123 28/389/125 198/717/126
f 367/1023/123 198/717/126 197/716/127
f 367/1023/123 197/716/127 27/388/124
f 368/1024/128 28/390/129 29/391/130
f 368/1024/128 29/391/130 199/719/131
f 368/1024/128 199/719/131 198/718/132
f 368/1024/128 198/718/132 28/390/129
f 369/1025/133 29/392/134 30/393/135
f 369/1025/133 30/393/135 200/721/136
f 369/1025/133 200/721/136 199/720/137
f 369/1025/133 199/720/137 29/392/134
f 370/1026/138 30/394/139 31/395/140
f 370/1026/138 31/395/140 201/723/141
f 370/1026/138 201/723/141 200/722/142
f 370/1026/138 200/722/142 30/394/139
f 371/1027/143 31/396/144 32/397/145
f 371/1027/143 32/397/145 202/725/146
f 371/1027/143 202/725/146 201/724/147
f 371/1027/143 201/724/147 31/396/144
f 372/1028/148 32/398/149 33/399/150
f 372/1028/148 33/399/150 203/727/151
f 372/1028/148 203/727/151 202/726/152
f 372/1028/148 202/726/152 32/398/149
f 373/1029/153 33/400/154 34/401/155
f 373/1029/153 34/401/155 204/729/156
f 373/1029/153 204/729/156 203/728/157
f 373/1029/153 203/728/157 33/400/154
f 374/1030/158 34/402/159 35/403/160
f 374/1030/158 35/403/160 205/731/161
f 374/1030/158 205/731/161 204/730/162
f 374/1030/158 204/730/162 34/402/159
f 375/1031/163 35/404/164 36/405/165
f 375/1031/163 36/405/165 206/733/166
f 375/1031/163 206/733/166 205/732/167
f 375/1031/163 205/732/167 35/404/164
f 376/1032/168 36/406/169 37/407/170
f 376/1032/168 37/407/170 207/735/171
f 376/1032/168 207/735/171 206/734/172
f 376/1032/168 206/734/172 36/406/169
f 377/1033/173 37/408/174 38/409/175
f 377/1033/173 38/409/175 208/737/176
f 377/1033/173 208/737/176 207/736/177
f 377/1033/173 207/736/177 37/408/174
f 378/1034/178 38/410/179 39/411/180
f 378/1034/178 39/411/180 209/739/181
f 378/1034/178 209/739/181 208/738/182
f 378/1034/178 208/738/182 38/410/179
f 379/1035/183 39/412/184 40/413/185
f 379/1035/183 40/413/185 210/741/186
f 379/1035/183 210/741/186 209/740/187
f 379/1035/183 209/740/187 39/412/184
f 380/1036/188 40/414/189 41/415/190
f 380/1036/188 41/415/190 211/743/191
f 380/1036/188 211/743/191 210/742/192
f 380/1036/188 210/742/192 40/414/189
f 381/1037/193 41/416/194 42/417/195
f 381/1037/193 42/417/195 212/745/196
f 381/1037/193 212/745/196 211/744/197
f 381/1037/193 211/744/197 41/416/194
f 382/1038/198 42/418/199 43/419/200
f 382/1038/198 43/419/200 213/747/201
f 382/1038/198 213/747/201 212/746/202
f 382/1038/198 212/746/202 42/418/199
f 383/1039/203 43/420/204 44/421/205
f 383/1039/203 44/421/205 214/749/206
f 383/1039/203 214/749/206 213/748/207
f 383/1039/203 213/748/207 43/420/204
f 384/1040/208 44/422/209 45/423/210
f 384/1040/208 45/423/210 215/751/211
f 384/1040/208 215/751/211 214/750/212
f 384/1040/208 214/750/212 44/422/209
f 385/1041/213 45/424/214 46/425/215
f 385/1041/213 46/425/215 216/753/216
f 385/1041/213 216/753/216 215/752/217
f 385/1041/213 215/752/217 45/424/214
f 386/1042/218 46/426/219 47/427/220
f 386/1042/218 47/427/220 217/755/221
f 386/1042/218 217/755/221 216/754/222
f 386/1042/218 216/754/222 46/426/219
f 387/1043/223 47/428/224 48/429/225
f 387/1043/223 48/429/225 218/757/226
f 387/1043/223 218/757/226 217/756/227
f 387/1043/223 217/756/227 47/428/224
f 388/1044/228 48/430/229 49/431/230
f 388/1044/228 49/431/230 219/759/231
f 388/1044/228 219/759/231 218/758/232
f 388/1044/228 218/758/232 48/430/229
f 389/1045/233 49/432/234 50/433/235
f 389/1045/233 50/433/235 220/761/236
f 389/1045/233 220/761/236 219/760/237
f 389/1045/233 219/760/237 49/432/234
f 390/1046/238 50/434/239 51/435/240
f 390/1046/238 51/435/240 221/763/241
f 390/1046/238 221/763/241 220/762/242
f 390/1046/238 220/762/242 50/434/239
f 391/1047/243 51/436/244 52/437/245
f 391/1047/243 52/437/245 222/765/246
f 391/1047/243 222/765/246 221/764/247
f 391/1047/243 221/764/247 51/436/244
f 392/1048/248 52/438/249 53/439/250
f 392/1048/248 53/439/250 223/767/251
f 392/1048/248 223/767/251 222/766/252
f 392/1048/248 222/766/252 52/438/249
f 393/1049/253 53/440/254 54/441/255
f 393/1049/253 54/441/255 224/769/256
f 393/1049/253 224/769/256 223/768/257
f 393/1049/253 223/768/257 53/440/254
f 394/1050/258 54/442/259 55/443/260
f 394/1050/258 55/443/260 225/771/261
f 394/1050/258 225/771/261 224/770/262
f 394/1050/258 224/770/262 54/442/259
f 395/1051/263 55/444/264 56/445/265
f 395/1051/263 56/445/265 226/773/266
f 395/1051/263 226/773/266 225/772/267
f 395/1051/263 225/772/267 55/444/264
f 396/1052/268 56/446/269 57/447/270
f 396/1052/268 57/447/270 227/775/271
f 396/1052/268 227/775/271 226/774/272
f 396/1052/268 226/774/272 56/446/269
f 397/1053/273 57/448/274 58/449/275
f 397/1053/273 58/449/275 228/777/276
f 397/1053/273 228/777/276 227/776/277
f 397/1053/273 227/776/277 57/448/274
f 398/1054/278 58/450/279 59/451/280
f 398/1054/278 59/451/280 229/779/281
f 398/1054/278 229/779/281 228/778/282
f 398/1054/278 228/778/282 58/450/279
f 399/1055/283 59/452/284 60/453/285
f 399/1055/283 60/453/285 230/781/286
f 399/1055/283 230/781/286 229/780/287
f 399/1055/283 229/780/287 59/452/284
f 400/1056/288 60/454/289 61/455/290
f 400/1056/288 61/455/290 231/783/291
f 400/1056/288 231/783/291 230/782/292
f 400/1056/288 230/782/292 60/454/289
f 401/1057/293 61/456/294 62/457/295
f 401/1057/293 62/457/295 232/785/296
f 401/1057/293 232/785/296 231/784/297
f 401/1057/293 231/784/297 61/456/294
f 402/1058/298 62/458/299 63/459/300
f 402/1058/298 63/459/300 233/787/301
f 402/1058/298 233/787/301 232/786/302
f 402/1058/298 232/786/302 62/458/299
f 403/1059/303 63/460/304 64/461/305
f 403/1059/303 64/461/305 234/789/306
f 403/1059/303 234/789/306 233/788/307
f 403/1059/303 233/788/307 63/460/304
f 404/1060/308 64/462/309 65/463/310
f 404/1060/308 65/463/310 235/791/311
f 404/1060/308 235/791/311 234/790/312
f 404/1060/308 234/790/312 64/462/309
f 405/1061/313 65/464/314 66/465/315
f 405/1061/313 66/465/315 236/793/316
f 405/1061/313 236/793/316 235/792/317
f 405/1061/313 235/792/317 65/464/314
f 406/1062/318 66/466/319 67/467/320
f 406/1062/318 67/467/320 237/795/321
f 406/1062/318 237/795/321 236/794/322
f 406/1062/318 236/794/322 66/466/319
f 407/1063/323 67/468/324 68/469/325
f 407/1063/323 68/469/325 238/797/326
f 407/1063/323 238/797/326 237/796/327
f 407/1063/323 237/796/327 67/468/324
f 408/1064/328 68/470/329 69/471/330
f 408/1064/328 69/471/330 239/799/331
f 408/1064/328 239/799/331 238/798/332
f 408/1064/328 238/798/332 68/470/329
f 409/1065/333 69/472/334 70/473/335
f 409/1065/333 70/473/335 240/801/336
f 409/1065/333 240/801/336 239/800/337
f 409/1065/333 239/800/337 69/472/334
f 410/1066/338 70/474/339 71/475/340
f 410/1066/338 71/475/340 241/803/341
f 410/1066/338 241/803/341 240/802/342
f 410/1066/338 240/802/342 70/474/339
f 411/1067/343 71/476/344 72/477/345
f 411/1067/343 72/477/345 242/805/346
f 411/1067/343 242/805/346 241/804/347
f 411/1067/343 241/804/347 71/476/344
f 412/1068/348 72/478/349 73/479/350
f 412/1068/348 73/479/350 243/807/351
f 412/1068/348 243/807/351 242/806/352
f 412/1068/348 242/806/352 72/478/349
f 413/1069/353 73/480/354 74/481/355
f 413/1069/353 74/481/355 244/809/356
f 413/1069/353 244/809/356 243/808/357
f 413/1069/353 243/808/357 73/480/354
f 414/1070/358 74/482/359 75/483/360
f 414/1070/358 75/483/360 245/811/361
f 414/1070/358 245/811/361 244/810/362
f 414/1070/358 244/810/362 74/482/359
f 415/1071/363 75/484/364 76/485/365
f 415/1071/363 76/485/365 246/813/366
f 415/1071/363 246/813/366 245/812/367
f 415/1071/363 245/812/367 75/484/364
f 416/1072/368 76/486/369 77/487/370
f 416/1072/368 77/487/370 247/815/371
f 416/1072/368 247/815/371 246/814/372
f 416/1072/368 246/814/372 76/486/369
f 417/1073/373 77/488/374 78/489/375
f 417/1073/373 78/489/375 248/817/376
f 417/1073/373 248/817/376 247/816/377
f 417/1073/373 247/816/377 77/488/374
f 418/1074/378 78/490/379 79/491/380
f 418/1074/378 79/491/380 249/819/381
f 418/1074/378 249/819/381 248/818/382
f 418/1074/378 248/818/382 78/490/379
f 419/1075/383 79/492/384 80/493/385
f 419/1075/383 80/493/385 250/821/386
f 419/1075/383 250/821/386 249/820/387
f 419/1075/383 249/820/387 79/492/384
f 420/1076/388 80/494/389 81/495/390
f 420/1076/388 81/495/390 251/823/391
f 420/1076/388 251/823/391 250/822/392
f 420/1076/388 250/822/392 80/494/389
f 421/1077/393 81/496/394 82/497/395
f 421/1077/393 82/497/395 252/825/396
f 421/1077/393 252/825/396 251/824/397
f 421/1077/393 251/824/397 81/496/394
f 422/1078/398 82/498/399 83/499/400
f 422/1078/398 83/499/400 253/827/401
f 422/1078/398 253/827/401 252/826/402
f 422/1078/398 252/826/402 82/498/399
f 423/1079/403 83/500/404 84/501/405
f 423/1079/403 84/501/405 254/829/406
f 423/1079/403 254/829/406 253/828/407
f 423/1079/403 253/828/407 83/500/404
f 424/1080/408 84/502/409 85/503/410
f 424/1080/408 85/503/410 255/831/411
f 424/1080/408 255/831/411 254/830/412
f 424/1080/408 254/830/412 84/502/409
f 425/1081/413 85/503/410 86/504/414
f 425/1081/413 86/504/414 256/832/415
f 425/1081/413 256/832/415 255/831/411
f 425/1081/413 255/831/411 85/503/410
f 426/1082/416 86/505/417 87/506/418
f 426/1082/416 87/506/418 257/834/419
f 426/1082/416 257/834/419 256/833/420
f 426/1082/416 256/833/420 86/505/417
f 427/1083/421 87/507/422 88/508/423
f 427/1083/421 88/508/423 258/836/424
f 427/1083/421 258/836/424 257/835/425
f 427/1083/421 257/835/425 87/507/422
f 428/1084/426 88/508/423 89/509/427
f 428/1084/426 89/509/427 259/837/428
f 428/1084/426 259/837/428 258/836/424
f 428/1084/426 258/836/424 88/508/423
f 429/1085/429 89/510/430 90/511/431
f 429/1085/429 90/511/431 260/839/432
f 429/1085/429 260/839/432 259/838/433
f 429/1085/429 259/838/433 89/510/430
f 430/1086/434 90/512/435 91/513/436
f 430/1086/434 91/513/436 261/841/437
f 430/1086/434 261/841/437 260/840/438
f 430/1086/434 260/840/438 90/512/435
f 431/1087/439 91/514/440 92/515/441
f 431/1087/439 92/515/441 262/843/442
f 431/1087/439 262/843/442 261/842/443
f 431/1087/439 261/842/443 91/514/440
f 432/1088/444 92/516/445 93/517/446
f 432/1088/444 93/517/446 263/845/447
f 432/1088/444 263/845/447 262/844/448
f 432/1088/444 262/844/448 92/516/445
f 433/1089/449 93/518/450 94/519/451
f 433/1089/449 94/519/451 264/847/452
f 433/1089/449 264/847/452 263/846/453
f 433/1089/449 263/846/453 93/518/450
f 434/1090/454 94/520/455 95/521/456
f 434/1090/454 95/521/456 265/849/457
f 434/1090/454 265/849/457 264/848/458
f 434/1090/454 264/848/458 94/520/455
f 435/1091/459 95/522/460 96/523/461
f 435/1091/459 96/523/461 266/851/462
f 435/1091/459 266/851/462 265/850/463
f 435/1091/459 265/850/463 95/522/460
f 436/1092/464 96/524/465 97/525/466
f 436/1092/464 97/525/466 267/853/467
f 436/1092/464 267/853/467 266/852/468
f 436/1092/464 266/852/468 96/524/465
f 437/1093/469 97/526/470 98/527/471
f 437/1093/469 98/527/471 268/855/472
f 437/1093/469 268/855/472 267/854/473
f 437/1093/469 267/854/473 97/526/470
f 438/1094/474 98/528/475 99/529/476
f 438/1094/474 99/529/476 269/857/477
f 438/1094/474 269/857/477 268/856/478
f 438/1094/474 268/856/478 98/528/475
f 439/1095/479 99/530/480 100/531/481
f 439/1095/479 100/531/481 270/859/482
f 439/1095/479 270/859/482 269/858/483
f 439/1095/479 269/858/483 99/530/480
f 440/1096/484 100/532/485 101/533/486
f 440/1096/484 101/533/486 271/861/487
f 440/1096/484 271/861/487 270/860/488
f 440/1096/484 270/860/488 100/532/485
f 441/1097/489 101/534/490 102/535/491
f 441/1097/489 102/535/491 272/863/492
f 441/1097/489 272/863/492 271/862/493
f 441/1097/489 271/862/493 101/534/490
f 442/1098/494 102/536/495 103/537/496
f 442/1098/494 103/537/496 273/865/497
f 442/1098/494 273/865/497 272/864/498
f 442/1098/494 272/864/498 102/536/495
f 443/1099/499 103/538/500 104/539/501
f 443/1099/499 104/539/501 274/867/502
f 443/1099/499 274/867/502 273/866/503
f 443/1099/499 273/866/503 103/538/500
f 444/1100/504 104/540/505 105/541/506
f 444/1100/504 105/541/506 275/869/507
f 444/1100/504 275/869/507 274/868/508
f 444/1100/504 274/868/508 104/540/505
f 445/1101/509 105/542/510 106/543/511
f 445/1101/509 106/543/511 276/871/512
f 445/1101/509 276/871/512 275/870/513
f 445/1101/509 275/870/513 105/542/510
f 446/1102/514 106/544/515 107/545/516
f 446/1102/514 107/545/516 277/873/517
f 446/1102/514 277/873/517 276/872/518
f 446/1102/514 276/872/518 106/544/515
f 447/1103/519 107/546/520 108/547/521
f 447/1103/519 108/547/521 278/875/522
f 447/1103/519 278/875/522 277/874/523
f 447/1103/519 277/874/523 107/546/520
f 448/1104/524 108/548/525 109/549/526
f 448/1104/524 109/549/526 279/877/527
f 448/1104/524 279/877/527 278/876/528
f 448/1104/524 278/876/528 108/548/525
f 449/1105/529 109/550/530 110/551/531
f 449/1105/529 110/551/531 280/879/532
f 449/1105/529 280/879/532 279/878/533
f 449/1105/529 279/878/533 109/550/530
f 450/1106/534 110/552/535 111/553/536
f 450/1106/534 111/553/536 281/881/537
f 450/1106/534 281/881/537 280/880/538
f 450/1106/534 280/880/538 110/552/535
f 451/1107/539 111/554/540 112/555/541
f 451/1107/539 112/555/541 282/883/542
f 451/1107/539 282/883/542 281/882/543
f 451/1107/539 281/882/543 111/554/540
f 452/1108/544 112/556/545 113/557/546
f 452/1108/544 113/557/546 283/885/547
f 452/1108/544 283/885/547 282/884/548
f 452/1108/544 282/884/548 112/556/545
f 453/1109/549 113/558/550 114/559/551
f 453/1109/549 114/559/551 284/887/552
f 453/1109/549 284/887/552 283/886/553
f 453/1109/549 283/886/553 113/558/550
f 454/1110/554 114/560/555 115/561/556
f 454/1110/554 115/561/556 285/889/557
f 454/1110/554 285/889/557 284/888/558
f 454/1110/554 284/888/558 114/560/555
f 455/1111/559 115/562/560 116/563/561
f 455/1111/559 116/563/561 286/891/562
f 455/1111/559 286/891/562 285/890/563
f 455/1111/559 285/890/563 115/562/560
f 456/1112/564 116/564/565 117/565/566
f 456/1112/564 117/565/566 287/893/567
f 456/1112/564 287/893/567 286/892/568
f 456/1112/564 286/892/568 116/564/565
f 457/1113/569 117/566/570 118/567/571
f 457/1113/569 118/567/571 288/895/572
f 457/1113/569 288/895/572 287/894/573
f 457/1113/569 287/894/573 117/566/570
f 458/1114/574 118/568/575 119/569/576
f 458/1114/574 119/569/576 289/897/577
f 458/1114/574 289/897/577 288/896/578
f 458/1114/574 288/896/578 118/568/575
f 459/1115/579 119/570/580 120/571/581
f 459/1115/579 120/571/581 290/899/582
f 459/1115/579 290/899/582 289/898/583
f 459/1115/579 289/898/583 119/570/580
f 460/1116/584 120/572/585 121/573/586
f 460/1116/584 121/573/586 291/901/587
f 460/1116/584 291/901/587 290/900/588
f 460/1116/584 290/900/588 120/572/585
f 461/1117/589 121/574/590 122/575/591
f 461/1117/589 122/575/591 292/903/592
f 461/1117/589 292/903/592 291/902/593
f 461/1117/589 291/902/593 121/574/590
f 462/1118/594 122/576/595 123/577/596
f 462/1118/594 123/577/596 293/905/597
f 462/1118/594 293/905/597 292/904/598
f 462/1118/594 292/904/598 122/576/595
f 463/1119/599 123/578/600 124/579/601
f 463/1119/599 124/579/601 294/907/602
f 463/1119/599 294/907/602 293/906/603
f 463/1119/599 293/906/603 123/578/600
f 464/1120/604 124/580/605 125/581/606
f 464/1120/604 125/581/606 295/909/607
f 464/1120/604 295/909/607 294/908/608
f 464/1120/604 294/908/608 124/580/605
f 465/1121/609 125/582/610 126/583/611
f 465/1121/609 126/583/611 296/911/612
f 465/1121/609 296/911/612 295/910/613
f 465/1121/609 295/910/613 125/582/610
f 466/1122/614 126/584/615 127/585/616
f 466/1122/614 127/585/616 297/913/617
f 466/1122/614 297/913/617 296/912/618
f 466/1122/614 296/912/618 126/584/615
f 467/1123/619 127/586/620 128/587/621
f 467/1123/619 128/587/621 298/915/622
f 467/1123/619 298/915/622 297/914/623
f 467/1123/619 297/914/623 127/586/620
f 468/1124/624 128/588/625 129/589/626
f 468/1124/624 129/589/626 299/917/627
f 468/1124/624 299/917/627 298/916/628
f 468/1124/624 298/916/628 128/588/625
f 469/1125/629 129/590/630 130/591/631
f 469/1125/629 130/591/631 300/919/632
f 469/1125/629 300/919/632 299/918/633
f 469/1125/629 299/918/633 129/590/630
f 470/1126/634 130/592/635 131/593/636
f 470/1126/634 131/593/636 301/921/637
f 470/1126/634 301/921/637 300/920/638
f 470/1126/634 300/920/638 130/592/635
f 471/1127/639 131/594/640 132/595/641
f 471/1127/639 132/595/641 302/923/642
f 471/1127/639 302/923/642 301/922/643
f 471/1127/639 301/922/643 131/594/640
f 472/1128/644 132/596/645 133/597/646
f 472/1128/644 133/597/646 303/925/647
f 472/1128/644 303/925/647 302/924/648
f 472/1128/644 302/924/648 132/596/645
f 473/1129/649 133/598/650 134/599/651
f 473/1129/649 134/599/651 304/927/652
f 473/1129/649 304/927/652 303/926/653
f 473/1129/649 303/926/653 133/598/650
f 474/1130/654 134/600/655 135/601/656
f 474/1130/654 135/601/656 305/929/657
f 474/1130/654 305/929/657 304/928/658
f 474/1130/654 304/928/658 134/600/655
f 475/1131/659 135/602/660 136/603/661
f 475/1131/659 136/603/661 306/931/662
f 475/1131/659 306/931/662 305/930/663
f 475/1131/659 305/930/663 135/602/660
f 476/1132/664 136/604/665 137/605/666
f 476/1132/664 137/605/666 307/933/667
f 476/1132/664 307/933/667 306/932/668
f 476/1132/664 306/932/668 136/604/665
f 477/1133/669 137/606/670 138/607/671
f 477/1133/669 138/607/671 308/935/672
f 477/1133/669 308/935/672 307/934/673
f 477/1133/669 307/934/673 137/606/670
f 478/1134/674 138/608/675 139/609/676
f 478/1134/674 139/609/676 309/937/677
f 478/1134/674 309/937/677 308/936/678
f 478/1134/674 308/936/678 138/608/675
f 479/1135/679 139/610/680 140/611/681
f 479/1135/679 140/611/681 310/939/682
f 479/1135/679 310/939/682 309/938/683
f 479/1135/679 309/938/683 139/610/680
f 480/1136/684 140/612/685 141/613/686
f 480/1136/684 141/613/686 311/941/687
f 480/1136/684 311/941/687 310/940/688
f 480/1136/684 310/940/688 140/612/685
f 481/1137/689 141/614/690 142/615/691
f 481/1137/689 142/615/691 312/943/692
f 481/1137/689 312/943/692 311/942/693
f 481/1137/689 311/942/693 141/614/690
f 482/1138/694 142/616/695 143/617/696
f 482/1138/694 143/617/696 313/945/697
f 482/1138/694 313/945/697 312/944/698
f 482/1138/694 312/944/698 142/616/695
f 483/1139/699 143/618/700 144/619/701
f 483/1139/699 144/619/701 314/947/702
f 483/1139/699 314/947/702 313/946/703
f 483/1139/699 313/946/703 143/618/700
f 484/1140/704 144/620/705 145/621/706
f 484/1140/704 145/621/706 315/949/707
f 484/1140/704 315/949/707 314/948/708
f 484/1140/704 314/948/708 144/620/705
f 485/1141/709 145/622/710 146/623/711
f 485/1141/709 146/623/711 316/951/712
f 485/1141/709 316/951/712 315/950/713
f 485/1141/709 315/950/713 145/622/710
f 486/1142/714 146/624/715 147/625/716
f 486/1142/714 147/625/716 317/953/717
f 486/1142/714 317/953/717 316/952/718
f 486/1142/714 316/952/718 146/624/715
f 487/1143/719 147/626/720 148/627/721
f 487/1143/719 148/627/721 318/955/722
f 487/1143/719 318/955/722 317/954/723
f 487/1143/719 317/954/723 147/626/720
f 488/1144/724 148/628/725 149/629/726
f 488/1144/724 149/629/726 319/957/727
f 488/1144/724 319/957/727 318/956/728
f 488/1144/724 318/956/728 148/628/725
f 489/1145/729 149/630/730 150/631/731
f 489/1145/729 150/631/731 320/959/732
f 489/1145/729 320/959/732 319/958/733
f 489/1145/729 319/958/733 149/630/730
f 490/1146/734 150/632/735 151/633/736
f 490/1146/734 151/633/736 321/961/737
f 490/1146/734 321/961/737 320/960/738
f 490/1146/734 320/960/738 150/632/735
f 491/1147/739 151/634/740 152/635/741
f 491/1147/739 152/635/741 322/963/742
f 491/1147/739 322/963/742 321/962/743
f 491/1147/739 321/962/743 151/634/740
f 492/1148/744 152/636/745 153/637/746
f 492/1148/744 153/637/746 323/965/747
f 492/1148/744 323/965/747 322/964/748
f 492/1148/744 322/964/748 152/636/745
f 493/1149/749 153/638/750 154/639/751
f 493/1149/749 154/639/751 324/967/752
f 493/1149/749 324/967/752 323/966/753
f 493/1149/749 323/966/753 153/638/750
f 494/1150/754 154/640/755 155/641/756
f 494/1150/754 155/641/756 325/969/757
f 494/1150/754 325/969/757 324/968/758
f 494/1150/754 324/968/758 154/640/755
f 495/1151/759 155/642/760 156/643/761
f 495/1151/759 156/643/761 326/971/762
f 495/1151/759 326/971/762 325/970/763
f 495/1151/759 325/970/763 155/642/760
f 496/1152/764 156/644/765 157/645/766
f 496/1152/764 157/645/766 327/973/767
f 496/1152/764 327/973/767 326/972/768
f 496/1152/764 326/972/768 156/644/765
f 497/1153/769 157/646/770 158/647/771
f 497/1153/769 158/647/771 328/975/772
f 497/1153/769 328/975/772 327/974/773
f 497/1153/769 327/974/773 157/646/770
f 498/1154/774 158/648/775 159/649/776
f 498/1154/774 159/649/776 329/977/777
f 498/1154/774 329/977/777 328/976/778
f 498/1154/774 328/976/778 158/648/775
f 499/1155/779 159/650/780 160/651/781
f 499/1155/779 160/651/781 330/979/782
f 499/1155/779 330/979/782 329/978/783
f 499/1155/779 329/978/783 159/650/780
f 500/1156/784 160/652/785 161/653/786
f 500/1156/784 161/653/786 331/981/787
f 500/1156/784 331/981/787 330/980/788
f 500/1156/784 330/980/788 160/652/785
f 501/1157/789 161/654/790 162/655/791
f 501/1157/789 162/655/791 332/983/792
f 501/1157/789 332/983/792 331/982/793
f 501/1157/789 331/982/793 161/654/790
f 502/1158/794 162/656/795 163/657/796
f 502/1158/794 163/657/796 333/985/797
f 502/1158/794 333/985/797 332/984/798
f 502/1158/794 332/984/798 162/656/795
f 503/1159/799 163/657/796 164/658/800
f 503/1159/799 164/658/800 334/986/801
f 503/1159/799 334/986/801 333/985/797
f 503/1159/799 333/985/797 163/657/796
f 504/1160/802 164/658/800 165/659/803
f 504/1160/802 165/659/803 335/987/804
f 504/1160/802 335/987/804 334/986/801
f 504/1160/802 334/986/801 164/658/800
f 505/1161/805 165/659/803 166/660/806
f 505/1161/805 166/660/806 336/988/807
f 505/1161/805 336/988/807 335/987/804
f 505/1161/805 335/987/804 165/659/803
f 506/1162/808 166/660/806 167/661/809
f 506/1162/808 167/661/809 337/989/810
f 506/1162/808 337/989/810 336/988/807
f 506/1162/808 336/988/807 166/660/806
f 507/1163/811 167/661/809 168/662/812
f 507/1163/811 168/662/812 338/990/813
f 507/1163/811 338/990/813 337/989/810
f 507/1163/811 337/989/810 167/661/809
f 508/1164/814 168/663/815 169/664/816
f 508/1164/814 169/664/816 339/992/817
f 508/1164/814 339/992/817 338/991/818
f 508/1164/814 338/991/818 168/663/815
f 509/1165/819 169/665/820 170/666/821
f 509/1165/819 170/666/821 340/994/822
f 509/1165/819 340/994/822 339/993/823
f 509/1165/819 339/993/823 169/665/820
f 510/1166/824 170/667/825 1/668/826
f 510/1166/824 1/668/826 171/996/827
f 510/1166/824 171/996/827 340/995/828
f 510/1166/824 340/995/828 170/667/825
