mtllib Diamond Rib 30 Updated.mtl
# Vertex Positions: 
g groupNumber_0
v 13.9158 -0.323845 -16.9263
v 13.7827 -0.31502 -16.9263
v 13.1698 0.3225 -16.9263
v 12.8705 0.323845 -16.9263
v 12.8356 0.261105 -16.9263
v 12.8209 0.241386 -16.9263
v 12.8021 0.22664 -16.9263
v 12.7801 0.217402 -16.9263
v 12.7557 0.214204 -16.9263
v 12.7313 0.217402 -16.9263
v 12.7093 0.22664 -16.9263
v 12.6905 0.241386 -16.9263
v 12.6759 0.261105 -16.9263
v 12.6409 0.323845 -16.9263
v 12.3117 0.323845 -16.9263
v 11.7327 -0.31502 -16.9263
v 11.0363 -0.31502 -16.9263
v 10.9862 -0.25976 -16.9263
v 10.5055 -0.25976 -16.9263
v 10.4613 -0.31502 -16.9263
v 9.83645 -0.31502 -16.9263
v 9.79502 -0.25976 -16.9263
v 9.29989 -0.25976 -16.9263
v 9.26834 -0.31502 -16.9263
v 8.59006 -0.31502 -16.9263
v 8.00037 0.322431 -16.9263
v 7.1136 0.323845 -16.9263
v 6.50178 -0.31502 -16.9263
v 5.84735 -0.31502 -16.9263
v 5.80295 -0.25976 -16.9263
v 5.31492 -0.25976 -16.9263
v 5.28103 -0.31502 -16.9263
v 4.62957 -0.31502 -16.9263
v 4.58747 -0.25976 -16.9263
v 4.13033 -0.25976 -16.9263
v 4.08879 -0.31502 -16.9263
v 3.40444 -0.31502 -16.9263
v 2.81917 0.323845 -16.9263
v 1.94635 0.323845 -16.9263
v 1.3173 -0.31502 -16.9263
v 0.665589 -0.31502 -16.9263
v 0.633875 -0.25976 -16.9263
v 0.121439 -0.25976 -16.9263
v 0.0806574 -0.31502 -16.9263
v -0.548176 -0.31502 -16.9263
v -0.596024 -0.25976 -16.9263
v -1.05525 -0.25976 -16.9263
v -1.09798 -0.31502 -16.9263
v -1.77944 -0.31502 -16.9263
v -2.37109 0.323845 -16.9263
v -3.2715 0.323845 -16.9263
v -3.84916 -0.31502 -16.9263
v -4.54775 -0.31502 -16.9263
v -4.58775 -0.25976 -16.9263
v -5.05487 -0.25976 -16.9263
v -5.0991 -0.31502 -16.9263
v -5.7344 -0.31502 -16.9263
v -5.76497 -0.25976 -16.9263
v -6.26031 -0.25976 -16.9263
v -6.29649 -0.31502 -16.9263
v -7.01468 -0.31502 -16.9263
v -7.55647 0.322293 -16.9263
v -8.49373 0.323845 -16.9263
v -9.08168 -0.31502 -16.9263
v -9.74734 -0.31502 -16.9263
v -9.78483 -0.25976 -16.9263
v -10.2657 -0.25976 -16.9263
v -10.3134 -0.31502 -16.9263
v -10.9513 -0.31502 -16.9263
v -10.9865 -0.25976 -16.9263
v -11.4713 -0.25976 -16.9263
v -11.5086 -0.31502 -16.9263
v -12.1697 -0.31502 -16.9263
v -12.778 0.322483 -16.9263
v -13.702 0.323845 -16.9263
v -13.8649 0.151188 -16.9263
v -13.9158 -0.0894479 -16.9263
v -13.8568 0.146948 -16.9263
v -13.6982 0.31502 -16.9263
v -12.783 0.31502 -16.9263
v -12.1748 -0.322483 -16.9263
v -11.5039 -0.323845 -16.9263
v -11.4666 -0.268585 -16.9263
v -10.9913 -0.268585 -16.9263
v -10.9561 -0.323845 -16.9263
v -10.3094 -0.323845 -16.9263
v -10.2617 -0.268585 -16.9263
v -9.78952 -0.268585 -16.9263
v -9.75203 -0.323845 -16.9263
v -9.07781 -0.323845 -16.9263
v -8.48987 0.31502 -16.9263
v -7.56186 0.31502 -16.9263
v -7.02007 -0.322293 -16.9263
v -6.29173 -0.323845 -16.9263
v -6.25555 -0.268585 -16.9263
v -5.77018 -0.268585 -16.9263
v -5.7396 -0.323845 -16.9263
v -5.09486 -0.323845 -16.9263
v -5.05063 -0.268585 -16.9263
v -4.59227 -0.268585 -16.9263
v -4.55226 -0.323845 -16.9263
v -3.84523 -0.323845 -16.9263
v -3.26757 0.31502 -16.9263
v -2.37495 0.31502 -16.9263
v -1.7833 -0.323845 -16.9263
v -1.09364 -0.323845 -16.9263
v -1.05092 -0.268585 -16.9263
v -0.600057 -0.268585 -16.9263
v -0.552209 -0.323845 -16.9263
v 0.0851388 -0.323845 -16.9263
v 0.12592 -0.268585 -16.9263
v 0.628773 -0.268585 -16.9263
v 0.660487 -0.323845 -16.9263
v 1.32102 -0.323845 -16.9263
v 1.95008 0.31502 -16.9263
v 2.8153 0.31502 -16.9263
v 3.40058 -0.323845 -16.9263
v 4.09321 -0.323845 -16.9263
v 4.13475 -0.268585 -16.9263
v 4.58313 -0.268585 -16.9263
v 4.62522 -0.323845 -16.9263
v 5.28599 -0.323845 -16.9263
v 5.31988 -0.268585 -16.9263
v 5.79874 -0.268585 -16.9263
v 5.84314 -0.323845 -16.9263
v 6.50557 -0.323845 -16.9263
v 7.11739 0.31502 -16.9263
v 7.9952 0.31502 -16.9263
v 8.58489 -0.322431 -16.9263
v 9.27345 -0.323845 -16.9263
v 9.30499 -0.268585 -16.9263
v 9.79061 -0.268585 -16.9263
v 9.83204 -0.323845 -16.9263
v 10.4655 -0.323845 -16.9263
v 10.5098 -0.268585 -16.9263
v 10.9822 -0.268585 -16.9263
v 11.0324 -0.323845 -16.9263
v 11.7367 -0.323845 -16.9263
v 12.3157 0.31502 -16.9263
v 12.6357 0.31502 -16.9263
v 12.6681 0.256795 -16.9263
v 12.6842 0.235186 -16.9263
v 12.7048 0.21902 -16.9263
v 12.729 0.208888 -16.9263
v 12.7557 0.205379 -16.9263
v 12.7824 0.208885 -16.9263
v 12.8066 0.219013 -16.9263
v 12.8272 0.235178 -16.9263
v 12.8433 0.256795 -16.9263
v 12.8757 0.31502 -16.9263
v 13.1648 0.31502 -16.9263
v 13.7777 -0.322483 -16.9263
v 13.9158 -0.323845 16.9263
v 13.7827 -0.31502 16.9263
v 13.1698 0.3225 16.9263
v 12.8705 0.323845 16.9263
v 12.8356 0.261105 16.9263
v 12.8209 0.241386 16.9263
v 12.8021 0.22664 16.9263
v 12.7801 0.217402 16.9263
v 12.7557 0.214204 16.9263
v 12.7313 0.217402 16.9263
v 12.7093 0.22664 16.9263
v 12.6905 0.241386 16.9263
v 12.6759 0.261105 16.9263
v 12.6409 0.323845 16.9263
v 12.3117 0.323845 16.9263
v 11.7327 -0.31502 16.9263
v 11.0363 -0.31502 16.9263
v 10.9862 -0.25976 16.9263
v 10.5055 -0.25976 16.9263
v 10.4613 -0.31502 16.9263
v 9.83645 -0.31502 16.9263
v 9.79502 -0.25976 16.9263
v 9.29989 -0.25976 16.9263
v 9.26834 -0.31502 16.9263
v 8.59006 -0.31502 16.9263
v 8.00037 0.322431 16.9263
v 7.1136 0.323845 16.9263
v 6.50178 -0.31502 16.9263
v 5.84735 -0.31502 16.9263
v 5.80295 -0.25976 16.9263
v 5.31492 -0.25976 16.9263
v 5.28103 -0.31502 16.9263
v 4.62957 -0.31502 16.9263
v 4.58747 -0.25976 16.9263
v 4.13033 -0.25976 16.9263
v 4.08879 -0.31502 16.9263
v 3.40444 -0.31502 16.9263
v 2.81917 0.323845 16.9263
v 1.94635 0.323845 16.9263
v 1.3173 -0.31502 16.9263
v 0.665589 -0.31502 16.9263
v 0.633875 -0.25976 16.9263
v 0.121439 -0.25976 16.9263
v 0.0806574 -0.31502 16.9263
v -0.548176 -0.31502 16.9263
v -0.596024 -0.25976 16.9263
v -1.05525 -0.25976 16.9263
v -1.09798 -0.31502 16.9263
v -1.77944 -0.31502 16.9263
v -2.37109 0.323845 16.9263
v -3.2715 0.323845 16.9263
v -3.84916 -0.31502 16.9263
v -4.54775 -0.31502 16.9263
v -4.58775 -0.25976 16.9263
v -5.05487 -0.25976 16.9263
v -5.0991 -0.31502 16.9263
v -5.7344 -0.31502 16.9263
v -5.76497 -0.25976 16.9263
v -6.26031 -0.25976 16.9263
v -6.29649 -0.31502 16.9263
v -7.01468 -0.31502 16.9263
v -7.55647 0.322293 16.9263
v -8.49373 0.323845 16.9263
v -9.08168 -0.31502 16.9263
v -9.74734 -0.31502 16.9263
v -9.78483 -0.25976 16.9263
v -10.2657 -0.25976 16.9263
v -10.3134 -0.31502 16.9263
v -10.9513 -0.31502 16.9263
v -10.9865 -0.25976 16.9263
v -11.4713 -0.25976 16.9263
v -11.5086 -0.31502 16.9263
v -12.1697 -0.31502 16.9263
v -12.778 0.322483 16.9263
v -13.702 0.323845 16.9263
v -13.8649 0.151188 16.9263
v -13.9158 -0.0894479 16.9263
v -13.8568 0.146948 16.9263
v -13.6982 0.31502 16.9263
v -12.783 0.31502 16.9263
v -12.1748 -0.322483 16.9263
v -11.5039 -0.323845 16.9263
v -11.4666 -0.268585 16.9263
v -10.9913 -0.268585 16.9263
v -10.9561 -0.323845 16.9263
v -10.3094 -0.323845 16.9263
v -10.2617 -0.268585 16.9263
v -9.78952 -0.268585 16.9263
v -9.75203 -0.323845 16.9263
v -9.07781 -0.323845 16.9263
v -8.48987 0.31502 16.9263
v -7.56186 0.31502 16.9263
v -7.02007 -0.322293 16.9263
v -6.29173 -0.323845 16.9263
v -6.25555 -0.268585 16.9263
v -5.77018 -0.268585 16.9263
v -5.7396 -0.323845 16.9263
v -5.09486 -0.323845 16.9263
v -5.05063 -0.268585 16.9263
v -4.59227 -0.268585 16.9263
v -4.55226 -0.323845 16.9263
v -3.84523 -0.323845 16.9263
v -3.26757 0.31502 16.9263
v -2.37495 0.31502 16.9263
v -1.7833 -0.323845 16.9263
v -1.09364 -0.323845 16.9263
v -1.05092 -0.268585 16.9263
v -0.600057 -0.268585 16.9263
v -0.552209 -0.323845 16.9263
v 0.0851388 -0.323845 16.9263
v 0.12592 -0.268585 16.9263
v 0.628773 -0.268585 16.9263
v 0.660487 -0.323845 16.9263
v 1.32102 -0.323845 16.9263
v 1.95008 0.31502 16.9263
v 2.8153 0.31502 16.9263
v 3.40058 -0.323845 16.9263
v 4.09321 -0.323845 16.9263
v 4.13475 -0.268585 16.9263
v 4.58313 -0.268585 16.9263
v 4.62522 -0.323845 16.9263
v 5.28599 -0.323845 16.9263
v 5.31988 -0.268585 16.9263
v 5.79874 -0.268585 16.9263
v 5.84314 -0.323845 16.9263
v 6.50557 -0.323845 16.9263
v 7.11739 0.31502 16.9263
v 7.9952 0.31502 16.9263
v 8.58489 -0.322431 16.9263
v 9.27345 -0.323845 16.9263
v 9.30499 -0.268585 16.9263
v 9.79061 -0.268585 16.9263
v 9.83204 -0.323845 16.9263
v 10.4655 -0.323845 16.9263
v 10.5098 -0.268585 16.9263
v 10.9822 -0.268585 16.9263
v 11.0324 -0.323845 16.9263
v 11.7367 -0.323845 16.9263
v 12.3157 0.31502 16.9263
v 12.6357 0.31502 16.9263
v 12.6681 0.256795 16.9263
v 12.6842 0.235186 16.9263
v 12.7048 0.21902 16.9263
v 12.729 0.208888 16.9263
v 12.7557 0.205379 16.9263
v 12.7824 0.208885 16.9263
v 12.8066 0.219013 16.9263
v 12.8272 0.235178 16.9263
v 12.8433 0.256795 16.9263
v 12.8757 0.31502 16.9263
v 13.1648 0.31502 16.9263
v 13.7777 -0.322483 16.9263
v 13.8493 -0.319432 0
v 13.4763 0.00374028 0
v 13.0202 0.323173 0
v 12.8531 0.292475 0
v 12.8282 0.251245 0
v 12.8115 0.234013 0
v 12.7911 0.222021 0
v 12.7679 0.215803 0
v 12.7435 0.215803 0
v 12.7203 0.222021 0
v 12.6999 0.234013 0
v 12.6832 0.251245 0
v 12.6584 0.292475 0
v 12.4763 0.323845 0
v 12.0222 0.0044125 0
v 11.3845 -0.31502 0
v 11.0112 -0.28739 0
v 10.7458 -0.25976 0
v 10.4834 -0.28739 0
v 10.1489 -0.31502 0
v 9.81574 -0.28739 0
v 9.54745 -0.25976 0
v 9.28412 -0.28739 0
v 8.9292 -0.31502 0
v 8.29522 0.00370581 0
v 7.55698 0.323138 0
v 6.80769 0.0044125 0
v 6.17456 -0.31502 0
v 5.82515 -0.28739 0
v 5.55893 -0.25976 0
v 5.29797 -0.28739 0
v 4.9553 -0.31502 0
v 4.60852 -0.28739 0
v 4.3589 -0.25976 0
v 4.10956 -0.28739 0
v 3.74662 -0.31502 0
v 3.1118 0.0044125 0
v 2.38276 0.323845 0
v 1.63182 0.0044125 0
v 0.991442 -0.31502 0
v 0.649732 -0.28739 0
v 0.377657 -0.25976 0
v 0.101048 -0.28739 0
v -0.233759 -0.31502 0
v -0.5721 -0.28739 0
v -0.825637 -0.25976 0
v -1.07662 -0.28739 0
v -1.43871 -0.31502 0
v -2.07526 0.0044125 0
v -2.82129 0.323845 0
v -3.56033 0.0044125 0
v -4.19845 -0.31502 0
v -4.56775 -0.28739 0
v -4.82131 -0.25976 0
v -5.07699 -0.28739 0
v -5.41675 -0.31502 0
v -5.74969 -0.28739 0
v -6.01264 -0.25976 0
v -6.2784 -0.28739 0
v -6.65558 -0.31502 0
v -7.28557 0.00363687 0
v -8.0251 0.323069 0
v -8.7877 0.0044125 0
v -9.41451 -0.31502 0
v -9.76609 -0.28739 0
v -10.0253 -0.25976 0
v -10.2896 -0.28739 0
v -10.6324 -0.31502 0
v -10.9689 -0.28739 0
v -11.2289 -0.25976 0
v -11.4899 -0.28739 0
v -11.8391 -0.31502 0
v -12.4738 0.00373167 0
v -13.24 0.323164 0
v -13.7835 0.237517 0
v -13.8904 0.0308703 0
v -13.8863 0.0287502 0
v -13.7775 0.230984 0
v -13.2406 0.31502 0
v -12.4789 -0.00373167 0
v -11.8393 -0.323164 0
v -11.4852 -0.296215 0
v -11.2289 -0.268585 0
v -10.9737 -0.296215 0
v -10.6328 -0.323845 0
v -10.2856 -0.296215 0
v -10.0256 -0.268585 0
v -9.77077 -0.296215 0
v -9.41492 -0.323845 0
v -8.78384 -0.0044125 0
v -8.02586 0.31502 0
v -7.29097 -0.00363687 0
v -6.6559 -0.323069 0
v -6.27364 -0.296215 0
v -6.01287 -0.268585 0
v -5.75489 -0.296215 0
v -5.41723 -0.323845 0
v -5.07275 -0.296215 0
v -4.82145 -0.268585 0
v -4.57226 -0.296215 0
v -4.19874 -0.323845 0
v -3.5564 -0.0044125 0
v -2.82126 0.31502 0
v -2.07912 -0.0044125 0
v -1.43847 -0.323845 0
v -1.07228 -0.296215 0
v -0.825491 -0.268585 0
v -0.576133 -0.296215 0
v -0.233535 -0.323845 0
v 0.105529 -0.296215 0
v 0.377346 -0.268585 0
v 0.64463 -0.296215 0
v 0.990753 -0.323845 0
v 1.63555 -0.0044125 0
v 2.38269 0.31502 0
v 3.10794 -0.0044125 0
v 3.74689 -0.323845 0
v 4.11398 -0.296215 0
v 4.35894 -0.268585 0
v 4.60418 -0.296215 0
v 4.95561 -0.323845 0
v 5.30294 -0.296215 0
v 5.55931 -0.268585 0
v 5.82094 -0.296215 0
v 6.17435 -0.323845 0
v 6.81148 -0.0044125 0
v 7.55629 0.31502 0
v 8.29005 -0.00370581 0
v 8.92917 -0.323138 0
v 9.28922 -0.296215 0
v 9.5478 -0.268585 0
v 9.81132 -0.296215 0
v 10.1488 -0.323845 0
v 10.4877 -0.296215 0
v 10.746 -0.268585 0
v 11.0073 -0.296215 0
v 11.3845 -0.323845 0
v 12.0262 -0.0044125 0
v 12.4757 0.31502 0
v 12.6519 0.285908 0
v 12.6762 0.245991 0
v 12.6945 0.227103 0
v 12.7169 0.213954 0
v 12.7423 0.207134 0
v 12.7691 0.207132 0
v 12.7945 0.213949 0
v 12.8169 0.227096 0
v 12.8353 0.245987 0
v 12.8595 0.285908 0
v 13.0202 0.31502 0
v 13.4712 -0.00373167 0
v 13.8468 -0.323164 0


# Vertex Texture Coordinates :
vt 0.402297 0
vt 0.400373 0.000127562
vt 0.391513 0.00934268
vt 0.387187 0.00936212
vt 0.386682 0.00845523
vt 0.38647 0.0081702
vt 0.386198 0.00795706
vt 0.38588 0.00782353
vt 0.385527 0.00777731
vt 0.385175 0.00782353
vt 0.384857 0.00795706
vt 0.384585 0.0081702
vt 0.384373 0.00845523
vt 0.383868 0.00936212
vt 0.37911 0.00936212
vt 0.370741 0.000127562
vt 0.360674 0.000127562
vt 0.359949 0.00092632
vt 0.353002 0.00092632
vt 0.352362 0.000127562
vt 0.343331 0.000127562
vt 0.342732 0.00092632
vt 0.335575 0.00092632
vt 0.335119 0.000127562
vt 0.325315 0.000127562
vt 0.316791 0.00934169
vt 0.303973 0.00936212
vt 0.295129 0.000127562
vt 0.28567 0.000127562
vt 0.285028 0.00092632
vt 0.277974 0.00092632
vt 0.277484 0.000127562
vt 0.268067 0.000127562
vt 0.267459 0.00092632
vt 0.260851 0.00092632
vt 0.26025 0.000127562
vt 0.250358 0.000127562
vt 0.241898 0.00936212
vt 0.229282 0.00936212
vt 0.220189 0.000127562
vt 0.210769 0.000127562
vt 0.210311 0.00092632
vt 0.202904 0.00092632
vt 0.202314 0.000127562
vt 0.193225 0.000127562
vt 0.192533 0.00092632
vt 0.185895 0.00092632
vt 0.185278 0.000127562
vt 0.175427 0.000127562
vt 0.166875 0.00936212
vt 0.15386 0.00936212
vt 0.14551 0.000127562
vt 0.135412 0.000127562
vt 0.134834 0.00092632
vt 0.128082 0.00092632
vt 0.127443 0.000127562
vt 0.11826 0.000127562
vt 0.117818 0.00092632
vt 0.110658 0.00092632
vt 0.110135 0.000127562
vt 0.0997539 0.000127562
vt 0.0919225 0.00933969
vt 0.0783747 0.00936212
vt 0.0698762 0.000127562
vt 0.0602542 0.000127562
vt 0.0597123 0.00092632
vt 0.0527609 0.00092632
vt 0.0520715 0.000127562
vt 0.0428514 0.000127562
vt 0.0423429 0.00092632
vt 0.0353357 0.00092632
vt 0.0347961 0.000127562
vt 0.0252404 0.000127562
vt 0.0164478 0.00934243
vt 0.00309139 0.00936212
vt 0.000735725 0.00686643
vt 0 0.00338812
vt 0.000853321 0.00680514
vt 0.0031462 0.00923455
vt 0.0163743 0.00923455
vt 0.0251669 1.96824e-05
vt 0.0348638 0
vt 0.0354035 0.000798758
vt 0.0422729 0.000798758
vt 0.0427817 0
vt 0.0521298 0
vt 0.0528192 0.000798758
vt 0.0596445 0.000798758
vt 0.0601864 0
vt 0.069932 0
vt 0.0784305 0.00923455
vt 0.0918445 0.00923455
vt 0.0996759 2.2423e-05
vt 0.110204 0
vt 0.110727 0.000798758
vt 0.117743 0.000798758
vt 0.118185 0
vt 0.127504 0
vt 0.128143 0.000798758
vt 0.134769 0.000798758
vt 0.135347 0
vt 0.145567 0
vt 0.153917 0.00923455
vt 0.166819 0.00923455
vt 0.175372 0
vt 0.18534 0
vt 0.185958 0.000798758
vt 0.192475 0.000798758
vt 0.193166 0
vt 0.202379 0
vt 0.202969 0.000798758
vt 0.210237 0.000798758
vt 0.210696 0
vt 0.220243 0
vt 0.229336 0.00923455
vt 0.241843 0.00923455
vt 0.250303 0
vt 0.260314 0
vt 0.260915 0.000798758
vt 0.267396 0.000798758
vt 0.268004 0
vt 0.277556 0
vt 0.278045 0.000798758
vt 0.284967 0.000798758
vt 0.285609 0
vt 0.295184 0
vt 0.304028 0.00923455
vt 0.316716 0.00923455
vt 0.32524 2.04299e-05
vt 0.335193 0
vt 0.335649 0.000798758
vt 0.342668 0.000798758
vt 0.343267 0
vt 0.352424 0
vt 0.353063 0.000798758
vt 0.359892 0.000798758
vt 0.360617 0
vt 0.370798 0
vt 0.379167 0.00923455
vt 0.383793 0.00923455
vt 0.384262 0.00839294
vt 0.384494 0.00808058
vt 0.384792 0.00784691
vt 0.385141 0.00770046
vt 0.385527 0.00764974
vt 0.385914 0.00770042
vt 0.386263 0.00784682
vt 0.386561 0.00808048
vt 0.386794 0.00839294
vt 0.387262 0.00923455
vt 0.39144 0.00923455
vt 0.4003 1.96824e-05
vt 0.40833 0
vt 0.410254 0.000127562
vt 0.419113 0.00934268
vt 0.423439 0.00936212
vt 0.423945 0.00845523
vt 0.424157 0.0081702
vt 0.424428 0.00795706
vt 0.424747 0.00782353
vt 0.425099 0.00777731
vt 0.425451 0.00782353
vt 0.42577 0.00795706
vt 0.426042 0.0081702
vt 0.426253 0.00845523
vt 0.426759 0.00936212
vt 0.431517 0.00936212
vt 0.439886 0.000127562
vt 0.449952 0.000127562
vt 0.450677 0.00092632
vt 0.457625 0.00092632
vt 0.458264 0.000127562
vt 0.467296 0.000127562
vt 0.467895 0.00092632
vt 0.475052 0.00092632
vt 0.475508 0.000127562
vt 0.485312 0.000127562
vt 0.493836 0.00934169
vt 0.506654 0.00936212
vt 0.515498 0.000127562
vt 0.524957 0.000127562
vt 0.525599 0.00092632
vt 0.532653 0.00092632
vt 0.533143 0.000127562
vt 0.54256 0.000127562
vt 0.543168 0.00092632
vt 0.549776 0.00092632
vt 0.550376 0.000127562
vt 0.560268 0.000127562
vt 0.568728 0.00936212
vt 0.581345 0.00936212
vt 0.590437 0.000127562
vt 0.599857 0.000127562
vt 0.600316 0.00092632
vt 0.607723 0.00092632
vt 0.608312 0.000127562
vt 0.617402 0.000127562
vt 0.618094 0.00092632
vt 0.624732 0.00092632
vt 0.625349 0.000127562
vt 0.635199 0.000127562
vt 0.643752 0.00936212
vt 0.656767 0.00936212
vt 0.665116 0.000127562
vt 0.675214 0.000127562
vt 0.675793 0.00092632
vt 0.682545 0.00092632
vt 0.683184 0.000127562
vt 0.692367 0.000127562
vt 0.692809 0.00092632
vt 0.699969 0.00092632
vt 0.700492 0.000127562
vt 0.710873 0.000127562
vt 0.718704 0.00933969
vt 0.732252 0.00936212
vt 0.740751 0.000127562
vt 0.750373 0.000127562
vt 0.750914 0.00092632
vt 0.757866 0.00092632
vt 0.758555 0.000127562
vt 0.767775 0.000127562
vt 0.768284 0.00092632
vt 0.775291 0.00092632
vt 0.775831 0.000127562
vt 0.785386 0.000127562
vt 0.794179 0.00934243
vt 0.807535 0.00936212
vt 0.809891 0.00686643
vt 0.810627 0.00338812
vt 0.809773 0.00680514
vt 0.807481 0.00923455
vt 0.794252 0.00923455
vt 0.78546 1.96824e-05
vt 0.775763 0
vt 0.775223 0.000798758
vt 0.768354 0.000798758
vt 0.767845 0
vt 0.758497 0
vt 0.757808 0.000798758
vt 0.750982 0.000798758
vt 0.75044 0
vt 0.740695 0
vt 0.732196 0.00923455
vt 0.718782 0.00923455
vt 0.710951 2.2423e-05
vt 0.700423 0
vt 0.6999 0.000798758
vt 0.692884 0.000798758
vt 0.692442 0
vt 0.683123 0
vt 0.682483 0.000798758
vt 0.675858 0.000798758
vt 0.67528 0
vt 0.66506 0
vt 0.65671 0.00923455
vt 0.643807 0.00923455
vt 0.635255 0
vt 0.625286 0
vt 0.624669 0.000798758
vt 0.618152 0.000798758
vt 0.61746 0
vt 0.608248 0
vt 0.607658 0.000798758
vt 0.60039 0.000798758
vt 0.599931 0
vt 0.590383 0
vt 0.581291 0.00923455
vt 0.568784 0.00923455
vt 0.560324 0
vt 0.550313 0
vt 0.549712 0.000798758
vt 0.543231 0.000798758
vt 0.542622 0
vt 0.533071 0
vt 0.532581 0.000798758
vt 0.52566 0.000798758
vt 0.525018 0
vt 0.515443 0
vt 0.506599 0.00923455
vt 0.493911 0.00923455
vt 0.485387 2.04299e-05
vt 0.475434 0
vt 0.474978 0.000798758
vt 0.467959 0.000798758
vt 0.46736 0
vt 0.458203 0
vt 0.457563 0.000798758
vt 0.450734 0.000798758
vt 0.450009 0
vt 0.439829 0
vt 0.43146 0.00923455
vt 0.426834 0.00923455
vt 0.426365 0.00839294
vt 0.426133 0.00808058
vt 0.425835 0.00784691
vt 0.425485 0.00770046
vt 0.425099 0.00764974
vt 0.424713 0.00770042
vt 0.424364 0.00784682
vt 0.424066 0.00808048
vt 0.423833 0.00839294
vt 0.423365 0.00923455
vt 0.419187 0.00923455
vt 0.410327 1.96824e-05
vt 2.12816e-05 0.0153731
vt 0.0019494 0.0153731
vt 0.0147326 0.0153731
vt 1.71481e-05 0.510673
vt 0.00434334 0.510673
vt 0.0207667 0.0153731
vt 0.0218048 0.0153731
vt 0.0221599 0.0153731
vt 0.0225053 0.0153731
vt 0.0228508 0.0153731
vt 0.0232061 0.0153731
vt 0.0235613 0.0153731
vt 0.0239066 0.0153731
vt 0.0242519 0.0153731
vt 0.024607 0.0153731
vt 0.0256454 0.0153731
vt 0.0207674 0.510673
vt 0.0255251 0.510673
vt 0.0316687 0.0153731
vt 0.0441316 0.0153731
vt 0.0316723 0.510673
vt 0.0417387 0.510673
vt 0.0104215 0.510673
vt 0.0115003 0.510673
vt 0.0501956 0.0153731
vt 0.0571433 0.0153731
vt 0.0501713 0.510673
vt 0.0511944 0.510673
vt 0.0631908 0.0153731
vt 0.0722223 0.0153731
vt 0.0632053 0.510673
vt 0.0642037 0.510673
vt 0.0782249 0.0153731
vt 0.0853818 0.0153731
vt 0.0702333 0.510673
vt 0.071153 0.510673
vt 0.0914161 0.0153731
vt 0.10122 0.0153731
vt 0.107305 0.0153731
vt 0.119857 0.0153731
vt 0.125928 0.0153731
vt 0.138746 0.0153731
vt 0.125944 0.510673
vt 0.13873 0.510673
vt 0.0914094 0.510673
vt 0.100869 0.510673
vt 0.0782447 0.510673
vt 0.0792694 0.510673
vt 0.107306 0.510673
vt 0.11436 0.510673
vt 0.144771 0.0153731
vt 0.145708 0.0153731
vt 0.151701 0.0153731
vt 0.161117 0.0153731
vt 0.151726 0.510673
vt 0.15273 0.510673
vt 0.167142 0.0153731
vt 0.17375 0.0153731
vt 0.158777 0.510673
vt 0.159776 0.510673
vt 0.179776 0.0153731
vt 0.189668 0.0153731
vt 0.195663 0.0153731
vt 0.208187 0.0153731
vt 0.214194 0.0153731
vt 0.22681 0.0153731
vt 0.232837 0.0153731
vt 0.245797 0.0153731
vt 0.179773 0.510673
vt 0.189193 0.510673
vt 0.144779 0.510673
vt 0.1457 0.510673
vt 0.195713 0.510673
vt 0.20312 0.510673
vt 0.167142 0.510673
vt 0.168135 0.510673
vt 0.214225 0.510673
vt 0.223314 0.510673
vt 0.232816 0.510673
vt 0.233872 0.510673
vt 0.251827 0.0153731
vt 0.258465 0.0153731
vt 0.239888 0.510673
vt 0.240897 0.510673
vt 0.264497 0.0153731
vt 0.274348 0.0153731
vt 0.280392 0.0153731
vt 0.292978 0.0153731
vt 0.298993 0.0153731
vt 0.312008 0.0153731
vt 0.2804 0.510673
vt 0.29285 0.510673
vt 0.299018 0.510673
vt 0.309116 0.510673
vt 0.251846 0.510673
vt 0.252832 0.510673
vt 0.264493 0.510673
vt 0.271245 0.510673
vt 0.318011 0.0153731
vt 0.319034 0.0153731
vt 0.325041 0.0153731
vt 0.334224 0.0153731
vt 0.318006 0.510673
vt 0.318919 0.510673
vt 0.325037 0.510673
vt 0.332197 0.510673
vt 0.340206 0.0153731
vt 0.34116 0.0153731
vt 0.34714 0.0153731
vt 0.357521 0.0153731
vt 0.363548 0.0153731
vt 0.375639 0.0153731
vt 0.381695 0.0153731
vt 0.395243 0.0153731
vt 0.381716 0.510673
vt 0.394266 0.510673
vt 0.347161 0.510673
vt 0.356783 0.510673
vt 0.363556 0.510673
vt 0.364521 0.510673
vt 0.4013 0.0153731
vt 0.408251 0.0153731
vt 0.370559 0.510673
vt 0.371614 0.510673
vt 0.414322 0.0153731
vt 0.423542 0.0153731
vt 0.34021 0.510673
vt 0.341157 0.510673
vt 0.401272 0.510673
vt 0.408279 0.510673
vt 0.414329 0.510673
vt 0.415293 0.510673
vt 0.429565 0.0153731
vt 0.439121 0.0153731
vt 0.445118 0.0153731
vt 0.457855 0.0153731
vt 0.463863 0.0153731
vt 0.477219 0.0153731
vt 0.429595 0.510673
vt 0.433027 0.510673
vt 0.436582 0.510673
vt 0.445128 0.510673
vt 0.44865 0.510673
vt 0.451991 0.510673
vt 0.463867 0.510673
vt 0.477095 0.510673
vt 0.483227 0.0153731
vt 0.495964 0.0153731
vt 0.483254 0.510673
vt 0.492951 0.510673
vt 0.421377 0.510673
vt 0.422341 0.510673
vt 0.50199 0.0153731
vt 0.508859 0.0153731
vt 0.501965 0.510673
vt 0.502912 0.510673
vt 0.514907 0.0153731
vt 0.524255 0.0153731
vt 0.514872 0.510673
vt 0.515928 0.510673
vt 0.530325 0.0153731
vt 0.53715 0.0153731
vt 0.521966 0.510673
vt 0.522931 0.510673
vt 0.543201 0.0153731
vt 0.552946 0.0153731
vt 0.559001 0.0153731
vt 0.571551 0.0153731
vt 0.577624 0.0153731
vt 0.591038 0.0153731
vt 0.558992 0.510673
vt 0.571083 0.510673
vt 0.577634 0.510673
vt 0.588161 0.510673
vt 0.530274 0.510673
vt 0.531229 0.510673
vt 0.543192 0.510673
vt 0.550208 0.510673
vt 0.597075 0.0153731
vt 0.597988 0.0153731
vt 0.604042 0.0153731
vt 0.613362 0.0153731
vt 0.604009 0.510673
vt 0.605032 0.510673
vt 0.619426 0.0153731
vt 0.626052 0.0153731
vt 0.611076 0.510673
vt 0.612062 0.510673
vt 0.632084 0.0153731
vt 0.642304 0.0153731
vt 0.648351 0.0153731
vt 0.660801 0.0153731
vt 0.666881 0.0153731
vt 0.679783 0.0153731
vt 0.66686 0.510673
vt 0.679446 0.510673
vt 0.63209 0.510673
vt 0.642059 0.510673
vt 0.619427 0.510673
vt 0.620436 0.510673
vt 0.648331 0.510673
vt 0.654848 0.510673
vt 0.685825 0.0153731
vt 0.686882 0.0153731
vt 0.692917 0.0153731
vt 0.70213 0.0153731
vt 0.685857 0.510673
vt 0.68685 0.510673
vt 0.692874 0.510673
vt 0.700143 0.510673
vt 0.597071 0.510673
vt 0.597992 0.510673
vt 0.708161 0.0153731
vt 0.717708 0.0153731
vt 0.723717 0.0153731
vt 0.736677 0.0153731
vt 0.723705 0.510673
vt 0.736212 0.510673
vt 0.742691 0.0153731
vt 0.755215 0.0153731
vt 0.742693 0.510673
vt 0.752705 0.510673
vt 0.708194 0.510673
vt 0.709193 0.510673
vt 0.761243 0.0153731
vt 0.767724 0.0153731
vt 0.71524 0.510673
vt 0.716244 0.510673
vt 0.773745 0.0153731
vt 0.783296 0.0153731
vt 0.761208 0.510673
vt 0.762145 0.510673
vt 0.773746 0.510673
vt 0.780667 0.510673
vt 0.789298 0.0153731
vt 0.790322 0.0153731
vt 0.796372 0.0153731
vt 0.805947 0.0153731
vt 0.812029 0.0153731
vt 0.824815 0.0153731
vt 0.812018 0.510673
vt 0.824706 0.510673
vt 0.830902 0.0153731
vt 0.843454 0.0153731
vt 0.830887 0.510673
vt 0.84084 0.510673
vt 0.78929 0.510673
vt 0.79021 0.510673
vt 0.796335 0.510673
vt 0.803355 0.510673
vt 0.849521 0.0153731
vt 0.850519 0.0153731
vt 0.856552 0.0153731
vt 0.865709 0.0153731
vt 0.849509 0.510673
vt 0.850532 0.510673
vt 0.856581 0.510673
vt 0.86341 0.510673
vt 0.871761 0.0153731
vt 0.87284 0.0153731
vt 0.878918 0.0153731
vt 0.889098 0.0153731
vt 0.895159 0.0153731
vt 0.907621 0.0153731
vt 0.878887 0.510673
vt 0.883514 0.510673
vt 0.895127 0.510673
vt 0.896091 0.510673
vt 0.89648 0.510673
vt 0.896859 0.510673
vt 0.897237 0.510673
vt 0.897627 0.510673
vt 0.898016 0.510673
vt 0.898395 0.510673
vt 0.898774 0.510673
vt 0.899163 0.510673
vt 0.900126 0.510673
vt 0.913637 0.0153731
vt 0.917815 0.0153731
vt 0.923849 0.0153731
vt 0.936632 0.0153731
vt 0.913652 0.510673
vt 0.915649 0.510673
vt 2.12816e-05 0.5047
vt 0.0019494 0.5047
vt 0.0147326 0.5047
vt 1.71481e-05 1
vt 0.00434334 1
vt 0.0207667 0.5047
vt 0.0218048 0.5047
vt 0.0221599 0.5047
vt 0.0225053 0.5047
vt 0.0228508 0.5047
vt 0.0232061 0.5047
vt 0.0235613 0.5047
vt 0.0239066 0.5047
vt 0.0242519 0.5047
vt 0.024607 0.5047
vt 0.0256454 0.5047
vt 0.0207674 1
vt 0.0255251 1
vt 0.0316687 0.5047
vt 0.0441316 0.5047
vt 0.0316723 1
vt 0.0417387 1
vt 0.0104215 1
vt 0.0115003 1
vt 0.0501956 0.5047
vt 0.0571433 0.5047
vt 0.0501713 1
vt 0.0511944 1
vt 0.0631908 0.5047
vt 0.0722223 0.5047
vt 0.0632053 1
vt 0.0642037 1
vt 0.0782249 0.5047
vt 0.0853818 0.5047
vt 0.0702333 1
vt 0.071153 1
vt 0.0914161 0.5047
vt 0.10122 0.5047
vt 0.107305 0.5047
vt 0.119857 0.5047
vt 0.125928 0.5047
vt 0.138746 0.5047
vt 0.125944 1
vt 0.13873 1
vt 0.0914094 1
vt 0.100869 1
vt 0.0782447 1
vt 0.0792694 1
vt 0.107306 1
vt 0.11436 1
vt 0.144771 0.5047
vt 0.145708 0.5047
vt 0.151701 0.5047
vt 0.161117 0.5047
vt 0.151726 1
vt 0.15273 1
vt 0.167142 0.5047
vt 0.17375 0.5047
vt 0.158777 1
vt 0.159776 1
vt 0.179776 0.5047
vt 0.189668 0.5047
vt 0.195663 0.5047
vt 0.208187 0.5047
vt 0.214194 0.5047
vt 0.22681 0.5047
vt 0.232837 0.5047
vt 0.245797 0.5047
vt 0.179773 1
vt 0.189193 1
vt 0.144779 1
vt 0.1457 1
vt 0.195713 1
vt 0.20312 1
vt 0.167142 1
vt 0.168135 1
vt 0.214225 1
vt 0.223314 1
vt 0.232816 1
vt 0.233872 1
vt 0.251827 0.5047
vt 0.258465 0.5047
vt 0.239888 1
vt 0.240897 1
vt 0.264497 0.5047
vt 0.274348 0.5047
vt 0.280392 0.5047
vt 0.292978 0.5047
vt 0.298993 0.5047
vt 0.312008 0.5047
vt 0.2804 1
vt 0.29285 1
vt 0.299018 1
vt 0.309116 1
vt 0.251846 1
vt 0.252832 1
vt 0.264493 1
vt 0.271245 1
vt 0.318011 0.5047
vt 0.319034 0.5047
vt 0.325041 0.5047
vt 0.334224 0.5047
vt 0.318006 1
vt 0.318919 1
vt 0.325037 1
vt 0.332197 1
vt 0.340206 0.5047
vt 0.34116 0.5047
vt 0.34714 0.5047
vt 0.357521 0.5047
vt 0.363548 0.5047
vt 0.375639 0.5047
vt 0.381695 0.5047
vt 0.395243 0.5047
vt 0.381716 1
vt 0.394266 1
vt 0.347161 1
vt 0.356783 1
vt 0.363556 1
vt 0.364521 1
vt 0.4013 0.5047
vt 0.408251 0.5047
vt 0.370559 1
vt 0.371614 1
vt 0.414322 0.5047
vt 0.423542 0.5047
vt 0.34021 1
vt 0.341157 1
vt 0.401272 1
vt 0.408279 1
vt 0.414329 1
vt 0.415293 1
vt 0.429565 0.5047
vt 0.439121 0.5047
vt 0.445118 0.5047
vt 0.457855 0.5047
vt 0.463863 0.5047
vt 0.477219 0.5047
vt 0.429595 1
vt 0.433027 1
vt 0.436582 1
vt 0.445128 1
vt 0.44865 1
vt 0.451991 1
vt 0.463867 1
vt 0.477095 1
vt 0.483227 0.5047
vt 0.495964 0.5047
vt 0.483254 1
vt 0.492951 1
vt 0.421377 1
vt 0.422341 1
vt 0.50199 0.5047
vt 0.508859 0.5047
vt 0.501965 1
vt 0.502912 1
vt 0.514907 0.5047
vt 0.524255 0.5047
vt 0.514872 1
vt 0.515928 1
vt 0.530325 0.5047
vt 0.53715 0.5047
vt 0.521966 1
vt 0.522931 1
vt 0.543201 0.5047
vt 0.552946 0.5047
vt 0.559001 0.5047
vt 0.571551 0.5047
vt 0.577624 0.5047
vt 0.591038 0.5047
vt 0.558992 1
vt 0.571083 1
vt 0.577634 1
vt 0.588161 1
vt 0.530274 1
vt 0.531229 1
vt 0.543192 1
vt 0.550208 1
vt 0.597075 0.5047
vt 0.597988 0.5047
vt 0.604042 0.5047
vt 0.613362 0.5047
vt 0.604009 1
vt 0.605032 1
vt 0.619426 0.5047
vt 0.626052 0.5047
vt 0.611076 1
vt 0.612062 1
vt 0.632084 0.5047
vt 0.642304 0.5047
vt 0.648351 0.5047
vt 0.660801 0.5047
vt 0.666881 0.5047
vt 0.679783 0.5047
vt 0.66686 1
vt 0.679446 1
vt 0.63209 1
vt 0.642059 1
vt 0.619427 1
vt 0.620436 1
vt 0.648331 1
vt 0.654848 1
vt 0.685825 0.5047
vt 0.686882 0.5047
vt 0.692917 0.5047
vt 0.70213 0.5047
vt 0.685857 1
vt 0.68685 1
vt 0.692874 1
vt 0.700143 1
vt 0.597071 1
vt 0.597992 1
vt 0.708161 0.5047
vt 0.717708 0.5047
vt 0.723717 0.5047
vt 0.736677 0.5047
vt 0.723705 1
vt 0.736212 1
vt 0.742691 0.5047
vt 0.755215 0.5047
vt 0.742693 1
vt 0.752705 1
vt 0.708194 1
vt 0.709193 1
vt 0.761243 0.5047
vt 0.767724 0.5047
vt 0.71524 1
vt 0.716244 1
vt 0.773745 0.5047
vt 0.783296 0.5047
vt 0.761208 1
vt 0.762145 1
vt 0.773746 1
vt 0.780667 1
vt 0.789298 0.5047
vt 0.790322 0.5047
vt 0.796372 0.5047
vt 0.805947 0.5047
vt 0.812029 0.5047
vt 0.824815 0.5047
vt 0.812018 1
vt 0.824706 1
vt 0.830902 0.5047
vt 0.843454 0.5047
vt 0.830887 1
vt 0.84084 1
vt 0.78929 1
vt 0.79021 1
vt 0.796335 1
vt 0.803355 1
vt 0.849521 0.5047
vt 0.850519 0.5047
vt 0.856552 0.5047
vt 0.865709 0.5047
vt 0.849509 1
vt 0.850532 1
vt 0.856581 1
vt 0.86341 1
vt 0.871761 0.5047
vt 0.87284 0.5047
vt 0.878918 0.5047
vt 0.889098 0.5047
vt 0.895159 0.5047
vt 0.907621 0.5047
vt 0.878887 1
vt 0.883514 1
vt 0.895127 1
vt 0.896091 1
vt 0.89648 1
vt 0.896859 1
vt 0.897237 1
vt 0.897627 1
vt 0.898016 1
vt 0.898395 1
vt 0.898774 1
vt 0.899163 1
vt 0.900126 1
vt 0.913637 0.5047
vt 0.917815 0.5047
vt 0.923849 0.5047
vt 0.936632 0.5047
vt 0.913652 1
vt 0.915649 1
vt 0.000985342 0.260037
vt 0.00834101 0.260037
vt 0.00218025 0.755337
vt 0.0212857 0.260037
vt 0.0219824 0.260037
vt 0.0223326 0.260037
vt 0.0226781 0.260037
vt 0.0230284 0.260037
vt 0.0233837 0.260037
vt 0.023734 0.260037
vt 0.0240792 0.260037
vt 0.0244294 0.260037
vt 0.0251262 0.260037
vt 0.0231463 0.755337
vt 0.0379001 0.260037
vt 0.0367055 0.755337
vt 0.0109609 0.755337
vt 0.0536695 0.260037
vt 0.0506829 0.755337
vt 0.0677066 0.260037
vt 0.0637045 0.755337
vt 0.0818034 0.260037
vt 0.0706932 0.755337
vt 0.0963183 0.260037
vt 0.113581 0.260037
vt 0.132337 0.260037
vt 0.132337 0.755337
vt 0.0961391 0.755337
vt 0.078757 0.755337
vt 0.110833 0.755337
vt 0.145239 0.260037
vt 0.156409 0.260037
vt 0.152228 0.755337
vt 0.170446 0.260037
vt 0.159276 0.755337
vt 0.184722 0.260037
vt 0.201925 0.260037
vt 0.220502 0.260037
vt 0.239317 0.260037
vt 0.184483 0.755337
vt 0.145239 0.755337
vt 0.199416 0.755337
vt 0.167639 0.755337
vt 0.218769 0.755337
vt 0.233344 0.755337
vt 0.255146 0.260037
vt 0.240393 0.755337
vt 0.269422 0.260037
vt 0.286685 0.260037
vt 0.305501 0.260037
vt 0.286625 0.755337
vt 0.304067 0.755337
vt 0.252339 0.755337
vt 0.267869 0.755337
vt 0.318522 0.260037
vt 0.329633 0.260037
vt 0.318463 0.755337
vt 0.328617 0.755337
vt 0.340683 0.260037
vt 0.352331 0.260037
vt 0.369593 0.260037
vt 0.388469 0.260037
vt 0.387991 0.755337
vt 0.351972 0.755337
vt 0.364038 0.755337
vt 0.404776 0.260037
vt 0.371087 0.755337
vt 0.418932 0.260037
vt 0.340683 0.755337
vt 0.404776 0.755337
vt 0.414811 0.755337
vt 0.434343 0.260037
vt 0.451486 0.260037
vt 0.470541 0.260037
vt 0.431311 0.755337
vt 0.434805 0.755337
vt 0.446889 0.755337
vt 0.450321 0.755337
vt 0.470481 0.755337
vt 0.489596 0.260037
vt 0.488102 0.755337
vt 0.421859 0.755337
vt 0.505425 0.260037
vt 0.502438 0.755337
vt 0.519581 0.260037
vt 0.5154 0.755337
vt 0.533738 0.260037
vt 0.522448 0.755337
vt 0.548074 0.260037
vt 0.565276 0.260037
vt 0.584331 0.260037
vt 0.565037 0.755337
vt 0.582897 0.755337
vt 0.530751 0.755337
vt 0.5467 0.755337
vt 0.597532 0.260037
vt 0.608702 0.260037
vt 0.604521 0.755337
vt 0.622739 0.260037
vt 0.611569 0.755337
vt 0.637194 0.260037
vt 0.654576 0.260037
vt 0.673332 0.260037
vt 0.673153 0.755337
vt 0.637075 0.755337
vt 0.619931 0.755337
vt 0.65159 0.755337
vt 0.686354 0.260037
vt 0.697524 0.260037
vt 0.686354 0.755337
vt 0.696508 0.755337
vt 0.597532 0.755337
vt 0.712935 0.260037
vt 0.730197 0.260037
vt 0.729958 0.755337
vt 0.748953 0.260037
vt 0.747699 0.755337
vt 0.708694 0.755337
vt 0.764484 0.260037
vt 0.715742 0.755337
vt 0.778521 0.260037
vt 0.761676 0.755337
vt 0.777207 0.755337
vt 0.78981 0.260037
vt 0.801159 0.260037
vt 0.818422 0.260037
vt 0.818362 0.755337
vt 0.837178 0.260037
vt 0.835864 0.755337
vt 0.78975 0.755337
vt 0.799845 0.755337
vt 0.85002 0.260037
vt 0.86113 0.260037
vt 0.85002 0.755337
vt 0.859995 0.755337
vt 0.8723 0.260037
vt 0.884008 0.260037
vt 0.90139 0.260037
vt 0.8812 0.755337
vt 0.895609 0.755337
vt 0.896285 0.755337
vt 0.896669 0.755337
vt 0.897048 0.755337
vt 0.897432 0.755337
vt 0.897821 0.755337
vt 0.898206 0.755337
vt 0.898584 0.755337
vt 0.898969 0.755337
vt 0.899645 0.755337
vt 0.915726 0.260037
vt 0.930241 0.260037
vt 0.914651 0.755337


# Vertex Surface Normals: 
vn 0 0 1
vn 0 0 -1
vn 0.0661588 0.997809 0
vn 0.0661588 0.997809 3.16299e-18
vn 0.421987 0.906602 2.00825e-17
vn 0.421987 0.906602 -2.00825e-17
vn 0.0661588 0.997809 -3.16299e-18
vn 0.720876 0.693064 0
vn 0.720876 0.693064 3.42922e-17
vn 0.720876 0.693064 -3.42922e-17
vn 0.00449201 0.99999 0
vn 0.00449201 0.99999 4.26923e-19
vn 0.00449201 0.99999 4.26923e-19
vn 0.00449201 0.99999 -4.26923e-19
vn 0.00449201 0.99999 -4.26923e-19
vn -0.873568 0.486702 0
vn -0.873568 0.486702 0
vn -0.839871 0.542786 1.92773e-17
vn -0.839871 0.542786 -1.92773e-17
vn -0.873568 0.486702 0
vn -0.802579 0.596546 0
vn -0.71618 0.697916 3.29362e-18
vn -0.71618 0.697916 -3.29362e-18
vn -0.617076 0.786904 0
vn -0.506355 0.862325 -1.61162e-17
vn -0.506355 0.862325 1.61162e-17
vn -0.386546 0.92227 0
vn -0.260631 0.965439 3.14739e-18
vn -0.260631 0.965439 -3.14739e-18
vn -0.130098 0.991501 0
vn 1.42707e-05 1 -6.84687e-22
vn 1.42707e-05 1 6.84687e-22
vn 0.130126 0.991497 0
vn 0.260737 0.96541 -1.25004e-17
vn 0.260737 0.96541 1.25004e-17
vn 0.386723 0.922196 0
vn 0.506569 0.862199 5.58239e-18
vn 0.506569 0.862199 -5.58239e-18
vn 0.617317 0.786715 0
vn 0.716348 0.697743 3.43444e-17
vn 0.716348 0.697743 -3.43444e-17
vn 0.802684 0.596405 0
vn 0.839805 0.542888 1.9988e-17
vn 0.839805 0.542888 -1.9988e-17
vn 0.873364 0.487068 0
vn 0.873364 0.487068 1.41418e-18
vn 0.873364 0.487068 -1.41418e-18
vn 0 1 0
vn 0 1 0
vn 0 1 0
vn 0 1 0
vn 0 1 0
vn -0.740969 0.67154 0
vn -0.740969 0.67154 -3.59707e-17
vn -0.740969 0.67154 -3.59707e-17
vn -0.740969 0.67154 3.59707e-17
vn -0.740969 0.67154 3.59707e-17
vn 0 1 0
vn 0 1 0
vn 0 1 0
vn 0 1 0
vn 0 1 0
vn 0.740462 0.672098 0
vn 0.740462 0.672098 3.50334e-17
vn 0.740462 0.672098 3.50334e-17
vn 0.740462 0.672098 -3.50334e-17
vn 0.740462 0.672098 -3.50334e-17
vn 0 1 0
vn 0 1 0
vn 0 1 0
vn 0 1 0
vn 0 1 0
vn -0.780726 0.624873 0
vn -0.780726 0.624873 7.43354e-17
vn -0.780726 0.624873 7.43354e-17
vn -0.780726 0.624873 -7.43354e-17
vn -0.780726 0.624873 -7.43354e-17
vn 0 1 0
vn 0 1 0
vn 0 1 0
vn 0 1 0
vn 0 1 0
vn 0.80006 0.59992 0
vn 0.80006 0.59992 3.78571e-17
vn 0.80006 0.59992 3.78571e-17
vn 0.80006 0.59992 -3.78571e-17
vn 0.80006 0.59992 -3.78571e-17
vn 0 1 0
vn 0 1 0
vn 0 1 0
vn 0 1 0
vn 0 1 0
vn -0.868476 0.49573 0
vn -0.868476 0.49573 -4.19391e-17
vn -0.868476 0.49573 -4.19391e-17
vn -0.868476 0.49573 4.19391e-17
vn -0.868476 0.49573 4.19391e-17
vn 0 1 0
vn 0 1 0
vn 0 1 0
vn 0 1 0
vn 0 1 0
vn 0.734072 0.679071 0
vn 0.734072 0.679071 -3.49344e-17
vn 0.734072 0.679071 -3.49344e-17
vn 0.734072 0.679071 3.49344e-17
vn 0.734072 0.679071 3.49344e-17
vn 0.00159384 0.999999 0
vn 0.00159384 0.999999 -3.56225e-20
vn 0.00159384 0.999999 -3.56225e-20
vn 0.00159384 0.999999 3.56225e-20
vn 0.00159384 0.999999 3.56225e-20
vn -0.722228 0.691655 0
vn -0.722228 0.691655 -7.61869e-19
vn -0.722228 0.691655 -7.61869e-19
vn -0.722228 0.691655 7.61869e-19
vn -0.722228 0.691655 7.61869e-19
vn 0 1 0
vn 0 1 0
vn 0 1 0
vn 0 1 0
vn 0 1 0
vn 0.779539 0.626354 0
vn 0.779539 0.626354 -1.9159e-17
vn 0.779539 0.626354 -1.9159e-17
vn 0.779539 0.626354 1.9159e-17
vn 0.779539 0.626354 1.9159e-17
vn 0 1 0
vn 0 1 0
vn 0 1 0
vn 0 1 0
vn 0 1 0
vn -0.852479 0.522762 0
vn -0.852479 0.522762 2.00466e-17
vn -0.852479 0.522762 2.00466e-17
vn -0.852479 0.522762 -2.00466e-17
vn -0.852479 0.522762 -2.00466e-17
vn 0 1 0
vn 0 1 0
vn 0 1 0
vn 0 1 0
vn 0 1 0
vn 0.795511 0.605939 0
vn 0.795511 0.605939 -4.6186e-19
vn 0.795511 0.605939 -4.6186e-19
vn 0.795511 0.605939 4.6186e-19
vn 0.795511 0.605939 4.6186e-19
vn 0 1 0
vn 0 1 0
vn 0 1 0
vn 0 1 0
vn 0 1 0
vn -0.799341 0.600877 0
vn -0.799341 0.600877 -4.64086e-19
vn -0.799341 0.600877 -4.64086e-19
vn -0.799341 0.600877 4.64086e-19
vn -0.799341 0.600877 4.64086e-19
vn 0 1 0
vn 0 1 0
vn 0 1 0
vn 0 1 0
vn 0 1 0
vn 0.737355 0.675506 0
vn 0.737355 0.675506 0
vn 0.737355 0.675506 0
vn 0.737355 0.675506 0
vn 0.737355 0.675506 0
vn 0 1 0
vn 0 1 0
vn 0 1 0
vn 0 1 0
vn 0 1 0
vn -0.712555 0.701616 0
vn -0.712555 0.701616 -3.00597e-18
vn -0.712555 0.701616 -3.00597e-18
vn -0.712555 0.701616 3.00597e-18
vn -0.712555 0.701616 3.00597e-18
vn 0 1 0
vn 0 1 0
vn 0 1 0
vn 0 1 0
vn 0 1 0
vn 0.867309 0.497769 0
vn 0.867309 0.497769 -4.19666e-19
vn 0.867309 0.497769 -4.19666e-19
vn 0.867309 0.497769 4.19666e-19
vn 0.867309 0.497769 4.19666e-19
vn 0 1 0
vn 0 1 0
vn 0 1 0
vn 0 1 0
vn 0 1 0
vn -0.804614 0.593798 0
vn -0.804614 0.593798 -3.89293e-19
vn -0.804614 0.593798 -3.89293e-19
vn -0.804614 0.593798 3.89293e-19
vn -0.804614 0.593798 3.89293e-19
vn 0 1 0
vn 0 1 0
vn 0 1 0
vn 0 1 0
vn 0 1 0
vn 0.755985 0.654589 0
vn 0.755985 0.654589 -5.12028e-19
vn 0.755985 0.654589 -5.12028e-19
vn 0.755985 0.654589 5.12028e-19
vn 0.755985 0.654589 5.12028e-19
vn 0 1 0
vn 0 1 0
vn 0 1 0
vn 0 1 0
vn 0 1 0
vn -0.79109 0.6117 0
vn -0.79109 0.6117 -4.59289e-19
vn -0.79109 0.6117 -4.59289e-19
vn -0.79109 0.6117 4.59289e-19
vn -0.79109 0.6117 4.59289e-19
vn 0 1 0
vn 0 1 0
vn 0 1 0
vn 0 1 0
vn 0 1 0
vn 0.733696 0.679478 0
vn 0.733696 0.679478 -8.51588e-18
vn 0.733696 0.679478 -8.51588e-18
vn 0.733696 0.679478 8.51588e-18
vn 0.733696 0.679478 8.51588e-18
vn 0 1 0
vn 0 1 0
vn 0 1 0
vn 0 1 0
vn 0 1 0
vn -0.741745 0.670682 0
vn -0.741745 0.670682 -1.87873e-17
vn -0.741745 0.670682 -1.87873e-17
vn -0.741745 0.670682 1.87873e-17
vn -0.741745 0.670682 1.87873e-17
vn 0 1 0
vn 0 1 0
vn 0 1 0
vn 0 1 0
vn 0 1 0
vn 0.810012 0.586413 0
vn 0.810012 0.586413 -3.91908e-19
vn 0.810012 0.586413 -3.91908e-19
vn 0.810012 0.586413 3.91908e-19
vn 0.810012 0.586413 3.91908e-19
vn 0 1 0
vn 0 1 0
vn 0 1 0
vn 0 1 0
vn 0 1 0
vn -0.780726 0.624873 0
vn -0.780726 0.624873 -3.78476e-17
vn -0.780726 0.624873 -3.78476e-17
vn -0.780726 0.624873 3.78476e-17
vn -0.780726 0.624873 3.78476e-17
vn 0 1 0
vn 0 1 0
vn 0 1 0
vn 0 1 0
vn 0 1 0
vn 0.87498 0.484159 0
vn 0.87498 0.484159 -3.38705e-19
vn 0.87498 0.484159 -3.38705e-19
vn 0.87498 0.484159 3.38705e-19
vn 0.87498 0.484159 3.38705e-19
vn 0 1 0
vn 0 1 0
vn 0 1 0
vn 0 1 0
vn 0 1 0
vn -0.836638 0.547756 0
vn -0.836638 0.547756 -2.04832e-17
vn -0.836638 0.547756 -2.04832e-17
vn -0.836638 0.547756 2.04832e-17
vn -0.836638 0.547756 2.04832e-17
vn 0 1 0
vn 0 1 0
vn 0 1 0
vn 0 1 0
vn 0 1 0
vn 0.761896 0.647699 0
vn 0.761896 0.647699 0
vn 0.761896 0.647699 0
vn 0.761896 0.647699 0
vn 0.761896 0.647699 0
vn 0.0016551 0.999999 0
vn 0.0016551 0.999999 2.94623e-18
vn 0.0016551 0.999999 2.94623e-18
vn 0.0016551 0.999999 -2.94623e-18
vn 0.0016551 0.999999 -2.94623e-18
vn -0.73582 0.677177 0
vn -0.73582 0.677177 3.33873e-17
vn -0.73582 0.677177 3.33873e-17
vn -0.73582 0.677177 -3.33873e-17
vn -0.73582 0.677177 -3.33873e-17
vn 0 1 0
vn 0 1 0
vn 0 1 0
vn 0 1 0
vn 0 1 0
vn 0.827536 0.561413 0
vn 0.827536 0.561413 3.92389e-17
vn 0.827536 0.561413 3.92389e-17
vn 0.827536 0.561413 -3.92389e-17
vn 0.827536 0.561413 -3.92389e-17
vn 0 1 0
vn 0 1 0
vn 0 1 0
vn 0 1 0
vn 0 1 0
vn -0.757035 0.653374 0
vn -0.757035 0.653374 -5.12741e-19
vn -0.757035 0.653374 -5.12741e-19
vn -0.757035 0.653374 5.12741e-19
vn -0.757035 0.653374 5.12741e-19
vn 0 1 0
vn 0 1 0
vn 0 1 0
vn 0 1 0
vn 0 1 0
vn 0.843564 0.537029 0
vn 0.843564 0.537029 3.99999e-17
vn 0.843564 0.537029 3.99999e-17
vn 0.843564 0.537029 -3.99999e-17
vn 0.843564 0.537029 -3.99999e-17
vn 0 1 0
vn 0 1 0
vn 0 1 0
vn 0 1 0
vn 0 1 0
vn -0.828615 0.559819 0
vn -0.828615 0.559819 -4.0092e-17
vn -0.828615 0.559819 -4.0092e-17
vn -0.828615 0.559819 4.0092e-17
vn -0.828615 0.559819 4.0092e-17
vn 0 1 0
vn 0 1 0
vn 0 1 0
vn 0 1 0
vn 0 1 0
vn 0.723491 0.690334 0
vn 0.723491 0.690334 0
vn 0.723491 0.690334 0
vn 0.723491 0.690334 0
vn 0.723491 0.690334 0
vn 0.00147363 0.999999 0
vn 0.00147363 0.999999 0
vn 0.00147363 0.999999 0
vn 0.00147363 0.999999 0
vn 0.00147363 0.999999 0
vn -0.727212 0.686412 0
vn -0.727212 0.686412 3.34062e-17
vn -0.88584 0.463991 1.73506e-17
vn -0.88584 0.463991 -1.73506e-17
vn -0.727212 0.686412 -3.34062e-17
vn -0.978354 0.206939 0
vn -0.978354 0.206939 0
vn -0.978354 0.206939 0
vn 0.970205 -0.242286 0
vn 0.970205 -0.242286 1.74987e-19
vn 0.877291 -0.479959 3.59503e-17
vn 0.877291 -0.479959 -3.59503e-17
vn 0.970205 -0.242286 -1.74987e-19
vn 0.727247 -0.686376 0
vn 0.727247 -0.686376 6.93845e-17
vn 0.727247 -0.686376 -6.93845e-17
vn 0 -1 0
vn 0 -1 0
vn 0 -1 0
vn 0 -1 0
vn 0 -1 0
vn -0.723491 -0.690334 0
vn -0.723491 -0.690334 -3.36548e-17
vn -0.723491 -0.690334 -3.36548e-17
vn -0.723491 -0.690334 3.36548e-17
vn -0.723491 -0.690334 3.36548e-17
vn -0.00202975 -0.999998 0
vn -0.00202975 -0.999998 1.48151e-18
vn -0.00202975 -0.999998 1.48151e-18
vn -0.00202975 -0.999998 -1.48151e-18
vn -0.00202975 -0.999998 -1.48151e-18
vn 0.828615 -0.559819 0
vn 0.828615 -0.559819 4.0092e-17
vn 0.828615 -0.559819 4.0092e-17
vn 0.828615 -0.559819 -4.0092e-17
vn 0.828615 -0.559819 -4.0092e-17
vn 0 -1 0
vn 0 -1 0
vn 0 -1 0
vn 0 -1 0
vn 0 -1 0
vn -0.843445 -0.537216 0
vn -0.843445 -0.537216 4.08104e-19
vn -0.843445 -0.537216 4.08104e-19
vn -0.843445 -0.537216 -4.08104e-19
vn -0.843445 -0.537216 -4.08104e-19
vn 0 -1 0
vn 0 -1 0
vn 0 -1 0
vn 0 -1 0
vn 0 -1 0
vn 0.757035 -0.653374 0
vn 0.757035 -0.653374 -3.58186e-17
vn 0.757035 -0.653374 -3.58186e-17
vn 0.757035 -0.653374 3.58186e-17
vn 0.757035 -0.653374 3.58186e-17
vn 0 -1 0
vn 0 -1 0
vn 0 -1 0
vn 0 -1 0
vn 0 -1 0
vn -0.827536 -0.561413 0
vn -0.827536 -0.561413 -3.92389e-17
vn -0.827536 -0.561413 -3.92389e-17
vn -0.827536 -0.561413 3.92389e-17
vn -0.827536 -0.561413 3.92389e-17
vn 0 -1 0
vn 0 -1 0
vn 0 -1 0
vn 0 -1 0
vn 0 -1 0
vn 0.73582 -0.677177 0
vn 0.73582 -0.677177 -3.49402e-17
vn 0.73582 -0.677177 -3.49402e-17
vn 0.73582 -0.677177 3.49402e-17
vn 0.73582 -0.677177 3.49402e-17
vn 0 -1 0
vn 0 -1 0
vn 0 -1 0
vn 0 -1 0
vn 0 -1 0
vn -0.761896 -0.647699 0
vn -0.761896 -0.647699 -3.70949e-17
vn -0.761896 -0.647699 -3.70949e-17
vn -0.761896 -0.647699 3.70949e-17
vn -0.761896 -0.647699 3.70949e-17
vn -0.00212986 -0.999998 0
vn -0.00212986 -0.999998 5.07532e-20
vn -0.00212986 -0.999998 5.07532e-20
vn -0.00212986 -0.999998 -5.07532e-20
vn -0.00212986 -0.999998 -5.07532e-20
vn 0.836638 -0.547756 0
vn 0.836638 -0.547756 4.04807e-19
vn 0.836638 -0.547756 4.04807e-19
vn 0.836638 -0.547756 -4.04807e-19
vn 0.836638 -0.547756 -4.04807e-19
vn 0 -1 0
vn 0 -1 0
vn 0 -1 0
vn 0 -1 0
vn 0 -1 0
vn -0.87498 -0.484159 0
vn -0.87498 -0.484159 3.38705e-19
vn -0.87498 -0.484159 3.38705e-19
vn -0.87498 -0.484159 -3.38705e-19
vn -0.87498 -0.484159 -3.38705e-19
vn 0 -1 0
vn 0 -1 0
vn 0 -1 0
vn 0 -1 0
vn 0 -1 0
vn 0.780726 -0.624873 0
vn 0.780726 -0.624873 1.91127e-17
vn 0.780726 -0.624873 1.91127e-17
vn 0.780726 -0.624873 -1.91127e-17
vn 0.780726 -0.624873 -1.91127e-17
vn 0 -1 0
vn 0 -1 0
vn 0 -1 0
vn 0 -1 0
vn 0 -1 0
vn -0.810012 -0.586413 0
vn -0.810012 -0.586413 3.91908e-19
vn -0.810012 -0.586413 3.91908e-19
vn -0.810012 -0.586413 -3.91908e-19
vn -0.810012 -0.586413 -3.91908e-19
vn 0 -1 0
vn 0 -1 0
vn 0 -1 0
vn 0 -1 0
vn 0 -1 0
vn 0.741745 -0.670682 0
vn 0.741745 -0.670682 0
vn 0.741745 -0.670682 0
vn 0.741745 -0.670682 0
vn 0.741745 -0.670682 0
vn 0 -1 0
vn 0 -1 0
vn 0 -1 0
vn 0 -1 0
vn 0 -1 0
vn -0.733696 -0.679478 0
vn -0.733696 -0.679478 7.74171e-19
vn -0.733696 -0.679478 7.74171e-19
vn -0.733696 -0.679478 -7.74171e-19
vn -0.733696 -0.679478 -7.74171e-19
vn 0 -1 0
vn 0 -1 0
vn 0 -1 0
vn 0 -1 0
vn 0 -1 0
vn 0.791209 -0.611546 0
vn 0.791209 -0.611546 5.1295e-18
vn 0.791209 -0.611546 5.1295e-18
vn 0.791209 -0.611546 -5.1295e-18
vn 0.791209 -0.611546 -5.1295e-18
vn 0 -1 0
vn 0 -1 0
vn 0 -1 0
vn 0 -1 0
vn 0 -1 0
vn -0.755985 -0.654589 0
vn -0.755985 -0.654589 5.04713e-18
vn -0.755985 -0.654589 5.04713e-18
vn -0.755985 -0.654589 -5.04713e-18
vn -0.755985 -0.654589 -5.04713e-18
vn 0 -1 0
vn 0 -1 0
vn 0 -1 0
vn 0 -1 0
vn 0 -1 0
vn 0.804614 -0.593798 0
vn 0.804614 -0.593798 3.89293e-19
vn 0.804614 -0.593798 3.89293e-19
vn 0.804614 -0.593798 -3.89293e-19
vn 0.804614 -0.593798 -3.89293e-19
vn 0 -1 0
vn 0 -1 0
vn 0 -1 0
vn 0 -1 0
vn 0 -1 0
vn -0.867309 -0.497769 0
vn -0.867309 -0.497769 3.35733e-19
vn -0.867309 -0.497769 3.35733e-19
vn -0.867309 -0.497769 -3.35733e-19
vn -0.867309 -0.497769 -3.35733e-19
vn 0 -1 0
vn 0 -1 0
vn 0 -1 0
vn 0 -1 0
vn 0 -1 0
vn 0.712555 -0.701616 0
vn 0.712555 -0.701616 2.25448e-18
vn 0.712555 -0.701616 2.25448e-18
vn 0.712555 -0.701616 -2.25448e-18
vn 0.712555 -0.701616 -2.25448e-18
vn 0 -1 0
vn 0 -1 0
vn 0 -1 0
vn 0 -1 0
vn 0 -1 0
vn -0.737355 -0.675506 0
vn -0.737355 -0.675506 7.78096e-19
vn -0.737355 -0.675506 7.78096e-19
vn -0.737355 -0.675506 -7.78096e-19
vn -0.737355 -0.675506 -7.78096e-19
vn 0 -1 0
vn 0 -1 0
vn 0 -1 0
vn 0 -1 0
vn 0 -1 0
vn 0.799341 -0.600877 0
vn 0.799341 -0.600877 4.64086e-19
vn 0.799341 -0.600877 4.64086e-19
vn 0.799341 -0.600877 -4.64086e-19
vn 0.799341 -0.600877 -4.64086e-19
vn 0 -1 0
vn 0 -1 0
vn 0 -1 0
vn 0 -1 0
vn 0 -1 0
vn -0.795511 -0.605939 0
vn -0.795511 -0.605939 4.6186e-19
vn -0.795511 -0.605939 4.6186e-19
vn -0.795511 -0.605939 -4.6186e-19
vn -0.795511 -0.605939 -4.6186e-19
vn 0 -1 0
vn 0 -1 0
vn 0 -1 0
vn 0 -1 0
vn 0 -1 0
vn 0.852479 -0.522762 0
vn 0.852479 -0.522762 -2.00466e-17
vn 0.852479 -0.522762 -2.00466e-17
vn 0.852479 -0.522762 2.00466e-17
vn 0.852479 -0.522762 2.00466e-17
vn 0 -1 0
vn 0 -1 0
vn 0 -1 0
vn 0 -1 0
vn 0 -1 0
vn -0.779539 -0.626354 0
vn -0.779539 -0.626354 -3.68848e-17
vn -0.779539 -0.626354 -3.68848e-17
vn -0.779539 -0.626354 3.68848e-17
vn -0.779539 -0.626354 3.68848e-17
vn 0 -1 0
vn 0 -1 0
vn 0 -1 0
vn 0 -1 0
vn 0 -1 0
vn 0.722228 -0.691655 0
vn 0.722228 -0.691655 0
vn 0.722228 -0.691655 0
vn 0.722228 -0.691655 0
vn 0.722228 -0.691655 0
vn 0 -1 0
vn 0 -1 0
vn 0 -1 0
vn 0 -1 0
vn 0 -1 0
vn -0.734072 -0.679071 0
vn -0.734072 -0.679071 3.49344e-17
vn -0.734072 -0.679071 3.49344e-17
vn -0.734072 -0.679071 -3.49344e-17
vn -0.734072 -0.679071 -3.49344e-17
vn -0.00205267 -0.999998 0
vn -0.00205267 -0.999998 1.38153e-18
vn -0.00205267 -0.999998 1.38153e-18
vn -0.00205267 -0.999998 -1.38153e-18
vn -0.00205267 -0.999998 -1.38153e-18
vn 0.868476 -0.495731 0
vn 0.868476 -0.495731 3.36185e-19
vn 0.868476 -0.495731 3.36185e-19
vn 0.868476 -0.495731 -3.36185e-19
vn 0.868476 -0.495731 -3.36185e-19
vn 0 -1 0
vn 0 -1 0
vn 0 -1 0
vn 0 -1 0
vn 0 -1 0
vn -0.80006 -0.59992 0
vn -0.80006 -0.59992 -3.78571e-17
vn -0.80006 -0.59992 -3.78571e-17
vn -0.80006 -0.59992 3.78571e-17
vn -0.80006 -0.59992 3.78571e-17
vn 0 -1 0
vn 0 -1 0
vn 0 -1 0
vn 0 -1 0
vn 0 -1 0
vn 0.780726 -0.624873 0
vn 0.780726 -0.624873 -3.69411e-17
vn 0.780726 -0.624873 -3.69411e-17
vn 0.780726 -0.624873 3.69411e-17
vn 0.780726 -0.624873 3.69411e-17
vn 0 -1 0
vn 0 -1 0
vn 0 -1 0
vn 0 -1 0
vn 0 -1 0
vn -0.740462 -0.672098 0
vn -0.740462 -0.672098 5.015e-19
vn -0.740462 -0.672098 5.015e-19
vn -0.740462 -0.672098 -5.015e-19
vn -0.740462 -0.672098 -5.015e-19
vn 0 -1 0
vn 0 -1 0
vn 0 -1 0
vn 0 -1 0
vn 0 -1 0
vn 0.740969 -0.67154 0
vn 0.740969 -0.67154 0
vn 0.740969 -0.67154 0
vn 0.740969 -0.67154 0
vn 0.740969 -0.67154 0
vn 0 -1 0
vn 0 -1 0
vn 0 -1 0
vn 0 -1 0
vn 0 -1 0
vn -0.873571 -0.486697 0
vn -0.873571 -0.486697 -7.22071e-19
vn -0.8398 -0.542896 -8.09873e-19
vn -0.8398 -0.542896 8.09873e-19
vn -0.873571 -0.486697 7.22071e-19
vn -0.802419 -0.596761 0
vn -0.71611 -0.697987 1.44795e-17
vn -0.71611 -0.697987 -1.44795e-17
vn -0.61713 -0.786862 0
vn -0.506471 -0.862257 2.42975e-17
vn -0.506471 -0.862257 -2.42975e-17
vn -0.386732 -0.922192 0
vn -0.260778 -0.965399 8.61283e-18
vn -0.260778 -0.965399 -8.61283e-18
vn -0.1302 -0.991488 0
vn -5.75705e-05 -1 -3.14488e-18
vn -5.75705e-05 -1 3.14488e-18
vn 0.130086 -0.991503 0
vn 0.26057 -0.965455 -1.24378e-17
vn 0.26057 -0.965455 1.24378e-17
vn 0.38644 -0.922314 0
vn 0.506204 -0.862414 4.883e-18
vn 0.506204 -0.862414 -4.883e-18
vn 0.61689 -0.787049 0
vn 0.716004 -0.698096 1.49259e-17
vn 0.716004 -0.698096 -1.49259e-17
vn 0.802419 -0.596761 0
vn 0.839923 -0.542706 3.6191e-19
vn 0.839923 -0.542706 -3.6191e-19
vn 0.873791 -0.486302 0
vn 0.873791 -0.486302 7.22253e-19
vn 0.873791 -0.486302 -7.22253e-19
vn 0 -1 0
vn 0 -1 0
vn 0 -1 0
vn 0 -1 0
vn 0 -1 0
vn -0.720867 -0.693074 0
vn -0.720867 -0.693074 0
vn -0.720867 -0.693074 0
vn -0.720867 -0.693074 0
vn -0.720867 -0.693074 0
vn -0.00985481 -0.999951 0
vn -0.00985481 -0.999951 1.96625e-18
vn -0.00985481 -0.999951 1.96625e-18
vn -0.00985481 -0.999951 -1.96625e-18
vn -0.00985481 -0.999951 -1.96625e-18


# Faces: 
usemtl material0
f 233/81/1 234/82/1 225/73/1
f 238/86/1 221/69/1 237/85/1
f 217/65/1 241/89/1 242/90/1
f 213/61/1 245/93/1 246/94/1
f 247/95/1 212/60/1 246/94/1
f 239/87/1 220/68/1 238/86/1
f 242/90/1 243/91/1 216/64/1
f 224/72/1 225/73/1 234/82/1
f 235/83/1 224/72/1 234/82/1
f 222/70/1 236/84/1 221/69/1
f 235/83/1 236/84/1 223/71/1
f 221/69/1 236/84/1 237/85/1
f 223/71/1 224/72/1 235/83/1
f 212/60/1 213/61/1 246/94/1
f 213/61/1 244/92/1 245/93/1
f 217/65/1 242/90/1 216/64/1
f 217/65/1 240/88/1 241/89/1
f 221/69/1 238/86/1 220/68/1
f 233/81/1 225/73/1 232/80/1
f 208/56/1 250/98/1 251/99/1
f 253/101/1 254/102/1 205/53/1
f 196/44/1 262/110/1 263/111/1
f 265/113/1 266/114/1 193/41/1
f 261/109/1 262/110/1 196/44/1
f 257/105/1 258/106/1 200/48/1
f 209/57/1 248/96/1 249/97/1
f 208/56/1 209/57/1 250/98/1
f 205/53/1 252/100/1 253/101/1
f 204/52/1 205/53/1 254/102/1
f 254/102/1 255/103/1 204/52/1
f 258/106/1 259/107/1 200/48/1
f 192/40/1 193/41/1 266/114/1
f 193/41/1 264/112/1 265/113/1
f 197/45/1 261/109/1 196/44/1
f 261/109/1 197/45/1 260/108/1
f 201/49/1 257/105/1 200/48/1
f 257/105/1 201/49/1 256/104/1
f 192/40/1 267/115/1 191/39/1
f 250/98/1 209/57/1 249/97/1
f 223/71/1 236/84/1 222/70/1
f 240/88/1 218/66/1 219/67/1
f 240/88/1 217/65/1 218/66/1
f 211/59/1 247/95/1 248/96/1
f 247/95/1 211/59/1 212/60/1
f 240/88/1 219/67/1 239/87/1
f 239/87/1 219/67/1 220/68/1
f 228/76/1 230/78/1 231/79/1
f 230/78/1 228/76/1 229/77/1
f 227/75/1 231/79/1 232/80/1
f 231/79/1 227/75/1 228/76/1
f 227/75/1 232/80/1 226/74/1
f 243/91/1 244/92/1 215/63/1
f 215/63/1 244/92/1 214/62/1
f 213/61/1 214/62/1 244/92/1
f 232/80/1 225/73/1 226/74/1
f 215/63/1 216/64/1 243/91/1
f 209/57/1 210/58/1 248/96/1
f 208/56/1 251/99/1 207/55/1
f 251/99/1 252/100/1 207/55/1
f 248/96/1 210/58/1 211/59/1
f 207/55/1 252/100/1 206/54/1
f 259/107/1 199/47/1 200/48/1
f 198/46/1 259/107/1 260/108/1
f 195/43/1 196/44/1 263/111/1
f 255/103/1 203/51/1 204/52/1
f 195/43/1 263/111/1 264/112/1
f 255/103/1 202/50/1 203/51/1
f 202/50/1 255/103/1 256/104/1
f 256/104/1 201/49/1 202/50/1
f 252/100/1 205/53/1 206/54/1
f 198/46/1 199/47/1 259/107/1
f 194/42/1 195/43/1 264/112/1
f 194/42/1 264/112/1 193/41/1
f 260/108/1 197/45/1 198/46/1
f 192/40/1 266/114/1 267/115/1
f 269/117/1 270/118/1 188/36/1
f 188/36/1 189/37/1 269/117/1
f 188/36/1 270/118/1 271/119/1
f 269/117/1 189/37/1 268/116/1
f 185/33/1 273/121/1 184/32/1
f 273/121/1 274/122/1 184/32/1
f 181/29/1 277/125/1 278/126/1
f 185/33/1 272/120/1 273/121/1
f 271/119/1 186/34/1 187/35/1
f 186/34/1 271/119/1 272/120/1
f 272/120/1 185/33/1 186/34/1
f 271/119/1 187/35/1 188/36/1
f 276/124/1 181/29/1 182/30/1
f 180/28/1 181/29/1 278/126/1
f 182/30/1 183/31/1 275/123/1
f 275/123/1 183/31/1 184/32/1
f 184/32/1 274/122/1 275/123/1
f 276/124/1 182/30/1 275/123/1
f 277/125/1 181/29/1 276/124/1
f 180/28/1 278/126/1 279/127/1
f 177/25/1 282/130/1 176/24/1
f 177/25/1 281/129/1 282/130/1
f 304/152/1 153/1/1 154/2/1
f 289/137/1 290/138/1 168/16/1
f 285/133/1 286/134/1 173/21/1
f 291/139/1 168/16/1 290/138/1
f 284/132/1 285/133/1 173/21/1
f 282/130/1 283/131/1 176/24/1
f 174/22/1 284/132/1 173/21/1
f 176/24/1 283/131/1 175/23/1
f 173/21/1 286/134/1 172/20/1
f 288/136/1 169/17/1 170/18/1
f 168/16/1 169/17/1 289/137/1
f 287/135/1 172/20/1 286/134/1
f 154/2/1 303/151/1 304/152/1
f 287/135/1 171/19/1 172/20/1
f 289/137/1 169/17/1 288/136/1
f 174/22/1 283/131/1 284/132/1
f 177/25/1 280/128/1 281/129/1
f 170/18/1 287/135/1 288/136/1
f 180/28/1 279/127/1 179/27/1
f 175/23/1 283/131/1 174/22/1
f 170/18/1 171/19/1 287/135/1
f 165/13/1 293/141/1 164/12/1
f 164/12/1 293/141/1 294/142/1
f 168/16/1 291/139/1 167/15/1
f 165/13/1 292/140/1 293/141/1
f 190/38/1 268/116/1 189/37/1
f 179/27/1 279/127/1 280/128/1
f 179/27/1 280/128/1 178/26/1
f 190/38/1 191/39/1 268/116/1
f 291/139/1 292/140/1 167/15/1
f 167/15/1 292/140/1 166/14/1
f 292/140/1 165/13/1 166/14/1
f 280/128/1 177/25/1 178/26/1
f 268/116/1 191/39/1 267/115/1
f 296/144/1 162/10/1 163/11/1
f 162/10/1 296/144/1 297/145/1
f 163/11/1 164/12/1 294/142/1
f 163/11/1 295/143/1 296/144/1
f 297/145/1 298/146/1 160/8/1
f 297/145/1 160/8/1 161/9/1
f 159/7/1 160/8/1 298/146/1
f 297/145/1 161/9/1 162/10/1
f 299/147/1 159/7/1 298/146/1
f 159/7/1 300/148/1 158/6/1
f 159/7/1 299/147/1 300/148/1
f 301/149/1 157/5/1 158/6/1
f 158/6/1 300/148/1 301/149/1
f 302/150/1 156/4/1 157/5/1
f 156/4/1 303/151/1 155/3/1
f 303/151/1 156/4/1 302/150/1
f 155/3/1 303/151/1 154/2/1
f 302/150/1 157/5/1 301/149/1
f 163/11/1 294/142/1 295/143/1
f 82/234/2 81/233/2 73/225/2
f 69/221/2 86/238/2 85/237/2
f 89/241/2 65/217/2 90/242/2
f 93/245/2 61/213/2 94/246/2
f 60/212/2 95/247/2 94/246/2
f 68/220/2 87/239/2 86/238/2
f 91/243/2 90/242/2 64/216/2
f 73/225/2 72/224/2 82/234/2
f 72/224/2 83/235/2 82/234/2
f 84/236/2 70/222/2 69/221/2
f 84/236/2 83/235/2 71/223/2
f 84/236/2 69/221/2 85/237/2
f 72/224/2 71/223/2 83/235/2
f 61/213/2 60/212/2 94/246/2
f 92/244/2 61/213/2 93/245/2
f 90/242/2 65/217/2 64/216/2
f 88/240/2 65/217/2 89/241/2
f 86/238/2 69/221/2 68/220/2
f 73/225/2 81/233/2 80/232/2
f 98/250/2 56/208/2 99/251/2
f 102/254/2 101/253/2 53/205/2
f 110/262/2 44/196/2 111/263/2
f 114/266/2 113/265/2 41/193/2
f 110/262/2 109/261/2 44/196/2
f 106/258/2 105/257/2 48/200/2
f 96/248/2 57/209/2 97/249/2
f 57/209/2 56/208/2 98/250/2
f 100/252/2 53/205/2 101/253/2
f 53/205/2 52/204/2 102/254/2
f 103/255/2 102/254/2 52/204/2
f 107/259/2 106/258/2 48/200/2
f 41/193/2 40/192/2 114/266/2
f 112/264/2 41/193/2 113/265/2
f 109/261/2 45/197/2 44/196/2
f 45/197/2 109/261/2 108/260/2
f 105/257/2 49/201/2 48/200/2
f 49/201/2 105/257/2 104/256/2
f 115/267/2 40/192/2 39/191/2
f 57/209/2 98/250/2 97/249/2
f 84/236/2 71/223/2 70/222/2
f 66/218/2 88/240/2 67/219/2
f 65/217/2 88/240/2 66/218/2
f 95/247/2 59/211/2 96/248/2
f 59/211/2 95/247/2 60/212/2
f 67/219/2 88/240/2 87/239/2
f 67/219/2 87/239/2 68/220/2
f 78/230/2 76/228/2 79/231/2
f 76/228/2 78/230/2 77/229/2
f 79/231/2 75/227/2 80/232/2
f 75/227/2 79/231/2 76/228/2
f 80/232/2 75/227/2 74/226/2
f 92/244/2 91/243/2 63/215/2
f 92/244/2 63/215/2 62/214/2
f 62/214/2 61/213/2 92/244/2
f 73/225/2 80/232/2 74/226/2
f 64/216/2 63/215/2 91/243/2
f 58/210/2 57/209/2 96/248/2
f 99/251/2 56/208/2 55/207/2
f 100/252/2 99/251/2 55/207/2
f 58/210/2 96/248/2 59/211/2
f 100/252/2 55/207/2 54/206/2
f 47/199/2 107/259/2 48/200/2
f 107/259/2 46/198/2 108/260/2
f 44/196/2 43/195/2 111/263/2
f 51/203/2 103/255/2 52/204/2
f 111/263/2 43/195/2 112/264/2
f 50/202/2 103/255/2 51/203/2
f 103/255/2 50/202/2 104/256/2
f 49/201/2 104/256/2 50/202/2
f 53/205/2 100/252/2 54/206/2
f 47/199/2 46/198/2 107/259/2
f 43/195/2 42/194/2 112/264/2
f 112/264/2 42/194/2 41/193/2
f 45/197/2 108/260/2 46/198/2
f 114/266/2 40/192/2 115/267/2
f 118/270/2 117/269/2 36/188/2
f 37/189/2 36/188/2 117/269/2
f 118/270/2 36/188/2 119/271/2
f 37/189/2 117/269/2 116/268/2
f 121/273/2 33/185/2 32/184/2
f 122/274/2 121/273/2 32/184/2
f 125/277/2 29/181/2 126/278/2
f 120/272/2 33/185/2 121/273/2
f 34/186/2 119/271/2 35/187/2
f 119/271/2 34/186/2 120/272/2
f 33/185/2 120/272/2 34/186/2
f 35/187/2 119/271/2 36/188/2
f 29/181/2 124/276/2 30/182/2
f 29/181/2 28/180/2 126/278/2
f 31/183/2 30/182/2 123/275/2
f 31/183/2 123/275/2 32/184/2
f 122/274/2 32/184/2 123/275/2
f 30/182/2 124/276/2 123/275/2
f 29/181/2 125/277/2 124/276/2
f 126/278/2 28/180/2 127/279/2
f 130/282/2 25/177/2 24/176/2
f 129/281/2 25/177/2 130/282/2
f 1/153/2 152/304/2 2/154/2
f 138/290/2 137/289/2 16/168/2
f 134/286/2 133/285/2 21/173/2
f 16/168/2 139/291/2 138/290/2
f 133/285/2 132/284/2 21/173/2
f 131/283/2 130/282/2 24/176/2
f 132/284/2 22/174/2 21/173/2
f 131/283/2 24/176/2 23/175/2
f 134/286/2 21/173/2 20/172/2
f 17/169/2 136/288/2 18/170/2
f 17/169/2 16/168/2 137/289/2
f 20/172/2 135/287/2 134/286/2
f 151/303/2 2/154/2 152/304/2
f 19/171/2 135/287/2 20/172/2
f 17/169/2 137/289/2 136/288/2
f 131/283/2 22/174/2 132/284/2
f 128/280/2 25/177/2 129/281/2
f 135/287/2 18/170/2 136/288/2
f 127/279/2 28/180/2 27/179/2
f 131/283/2 23/175/2 22/174/2
f 19/171/2 18/170/2 135/287/2
f 141/293/2 13/165/2 12/164/2
f 141/293/2 12/164/2 142/294/2
f 139/291/2 16/168/2 15/167/2
f 140/292/2 13/165/2 141/293/2
f 116/268/2 38/190/2 37/189/2
f 127/279/2 27/179/2 128/280/2
f 128/280/2 27/179/2 26/178/2
f 39/191/2 38/190/2 116/268/2
f 140/292/2 139/291/2 15/167/2
f 140/292/2 15/167/2 14/166/2
f 13/165/2 140/292/2 14/166/2
f 25/177/2 128/280/2 26/178/2
f 39/191/2 116/268/2 115/267/2
f 10/162/2 144/296/2 11/163/2
f 144/296/2 10/162/2 145/297/2
f 12/164/2 11/163/2 142/294/2
f 143/295/2 11/163/2 144/296/2
f 146/298/2 145/297/2 8/160/2
f 8/160/2 145/297/2 9/161/2
f 8/160/2 7/159/2 146/298/2
f 9/161/2 145/297/2 10/162/2
f 7/159/2 147/299/2 146/298/2
f 148/300/2 7/159/2 6/158/2
f 147/299/2 7/159/2 148/300/2
f 5/157/2 149/301/2 6/158/2
f 148/300/2 6/158/2 149/301/2
f 4/156/2 150/302/2 5/157/2
f 151/303/2 4/156/2 3/155/2
f 4/156/2 151/303/2 150/302/2
f 151/303/2 3/155/2 2/154/2
f 5/157/2 150/302/2 149/301/2
f 142/294/2 11/163/2 143/295/2
f 305/871/3 1/305/4 2/306/5
f 305/871/3 2/306/5 154/589/6
f 305/871/3 154/589/6 153/588/7
f 305/871/3 153/588/7 1/305/4
f 306/872/8 2/306/5 3/307/9
f 306/872/8 3/307/9 155/590/10
f 306/872/8 155/590/10 154/589/6
f 306/872/8 154/589/6 2/306/5
f 307/873/11 3/308/12 4/309/13
f 307/873/11 4/309/13 156/592/14
f 307/873/11 156/592/14 155/591/15
f 307/873/11 155/591/15 3/308/12
f 308/874/16 4/310/17 5/311/18
f 308/874/16 5/311/18 157/594/19
f 308/874/16 157/594/19 156/593/20
f 308/874/16 156/593/20 4/310/17
f 309/875/21 5/311/18 6/312/22
f 309/875/21 6/312/22 158/595/23
f 309/875/21 158/595/23 157/594/19
f 309/875/21 157/594/19 5/311/18
f 310/876/24 6/312/22 7/313/25
f 310/876/24 7/313/25 159/596/26
f 310/876/24 159/596/26 158/595/23
f 310/876/24 158/595/23 6/312/22
f 311/877/27 7/313/25 8/314/28
f 311/877/27 8/314/28 160/597/29
f 311/877/27 160/597/29 159/596/26
f 311/877/27 159/596/26 7/313/25
f 312/878/30 8/314/28 9/315/31
f 312/878/30 9/315/31 161/598/32
f 312/878/30 161/598/32 160/597/29
f 312/878/30 160/597/29 8/314/28
f 313/879/33 9/315/31 10/316/34
f 313/879/33 10/316/34 162/599/35
f 313/879/33 162/599/35 161/598/32
f 313/879/33 161/598/32 9/315/31
f 314/880/36 10/316/34 11/317/37
f 314/880/36 11/317/37 163/600/38
f 314/880/36 163/600/38 162/599/35
f 314/880/36 162/599/35 10/316/34
f 315/881/39 11/317/37 12/318/40
f 315/881/39 12/318/40 164/601/41
f 315/881/39 164/601/41 163/600/38
f 315/881/39 163/600/38 11/317/37
f 316/882/42 12/318/40 13/319/43
f 316/882/42 13/319/43 165/602/44
f 316/882/42 165/602/44 164/601/41
f 316/882/42 164/601/41 12/318/40
f 317/883/45 13/319/43 14/320/46
f 317/883/45 14/320/46 166/603/47
f 317/883/45 166/603/47 165/602/44
f 317/883/45 165/602/44 13/319/43
f 318/884/48 14/321/49 15/322/50
f 318/884/48 15/322/50 167/605/51
f 318/884/48 167/605/51 166/604/52
f 318/884/48 166/604/52 14/321/49
f 319/885/53 15/323/54 16/324/55
f 319/885/53 16/324/55 168/607/56
f 319/885/53 168/607/56 167/606/57
f 319/885/53 167/606/57 15/323/54
f 320/886/58 16/325/59 17/326/60
f 320/886/58 17/326/60 169/609/61
f 320/886/58 169/609/61 168/608/62
f 320/886/58 168/608/62 16/325/59
f 321/887/63 17/327/64 18/328/65
f 321/887/63 18/328/65 170/611/66
f 321/887/63 170/611/66 169/610/67
f 321/887/63 169/610/67 17/327/64
f 322/888/68 18/329/69 19/330/70
f 322/888/68 19/330/70 171/613/71
f 322/888/68 171/613/71 170/612/72
f 322/888/68 170/612/72 18/329/69
f 323/889/73 19/331/74 20/332/75
f 323/889/73 20/332/75 172/615/76
f 323/889/73 172/615/76 171/614/77
f 323/889/73 171/614/77 19/331/74
f 324/890/78 20/333/79 21/334/80
f 324/890/78 21/334/80 173/617/81
f 324/890/78 173/617/81 172/616/82
f 324/890/78 172/616/82 20/333/79
f 325/891/83 21/335/84 22/336/85
f 325/891/83 22/336/85 174/619/86
f 325/891/83 174/619/86 173/618/87
f 325/891/83 173/618/87 21/335/84
f 326/892/88 22/337/89 23/338/90
f 326/892/88 23/338/90 175/621/91
f 326/892/88 175/621/91 174/620/92
f 326/892/88 174/620/92 22/337/89
f 327/893/93 23/339/94 24/340/95
f 327/893/93 24/340/95 176/623/96
f 327/893/93 176/623/96 175/622/97
f 327/893/93 175/622/97 23/339/94
f 328/894/98 24/341/99 25/342/100
f 328/894/98 25/342/100 177/625/101
f 328/894/98 177/625/101 176/624/102
f 328/894/98 176/624/102 24/341/99
f 329/895/103 25/343/104 26/344/105
f 329/895/103 26/344/105 178/627/106
f 329/895/103 178/627/106 177/626/107
f 329/895/103 177/626/107 25/343/104
f 330/896/108 26/345/109 27/346/110
f 330/896/108 27/346/110 179/629/111
f 330/896/108 179/629/111 178/628/112
f 330/896/108 178/628/112 26/345/109
f 331/897/113 27/347/114 28/348/115
f 331/897/113 28/348/115 180/631/116
f 331/897/113 180/631/116 179/630/117
f 331/897/113 179/630/117 27/347/114
f 332/898/118 28/349/119 29/350/120
f 332/898/118 29/350/120 181/633/121
f 332/898/118 181/633/121 180/632/122
f 332/898/118 180/632/122 28/349/119
f 333/899/123 29/351/124 30/352/125
f 333/899/123 30/352/125 182/635/126
f 333/899/123 182/635/126 181/634/127
f 333/899/123 181/634/127 29/351/124
f 334/900/128 30/353/129 31/354/130
f 334/900/128 31/354/130 183/637/131
f 334/900/128 183/637/131 182/636/132
f 334/900/128 182/636/132 30/353/129
f 335/901/133 31/355/134 32/356/135
f 335/901/133 32/356/135 184/639/136
f 335/901/133 184/639/136 183/638/137
f 335/901/133 183/638/137 31/355/134
f 336/902/138 32/357/139 33/358/140
f 336/902/138 33/358/140 185/641/141
f 336/902/138 185/641/141 184/640/142
f 336/902/138 184/640/142 32/357/139
f 337/903/143 33/359/144 34/360/145
f 337/903/143 34/360/145 186/643/146
f 337/903/143 186/643/146 185/642/147
f 337/903/143 185/642/147 33/359/144
f 338/904/148 34/361/149 35/362/150
f 338/904/148 35/362/150 187/645/151
f 338/904/148 187/645/151 186/644/152
f 338/904/148 186/644/152 34/361/149
f 339/905/153 35/363/154 36/364/155
f 339/905/153 36/364/155 188/647/156
f 339/905/153 188/647/156 187/646/157
f 339/905/153 187/646/157 35/363/154
f 340/906/158 36/365/159 37/366/160
f 340/906/158 37/366/160 189/649/161
f 340/906/158 189/649/161 188/648/162
f 340/906/158 188/648/162 36/365/159
f 341/907/163 37/367/164 38/368/165
f 341/907/163 38/368/165 190/651/166
f 341/907/163 190/651/166 189/650/167
f 341/907/163 189/650/167 37/367/164
f 342/908/168 38/369/169 39/370/170
f 342/908/168 39/370/170 191/653/171
f 342/908/168 191/653/171 190/652/172
f 342/908/168 190/652/172 38/369/169
f 343/909/173 39/371/174 40/372/175
f 343/909/173 40/372/175 192/655/176
f 343/909/173 192/655/176 191/654/177
f 343/909/173 191/654/177 39/371/174
f 344/910/178 40/373/179 41/374/180
f 344/910/178 41/374/180 193/657/181
f 344/910/178 193/657/181 192/656/182
f 344/910/178 192/656/182 40/373/179
f 345/911/183 41/375/184 42/376/185
f 345/911/183 42/376/185 194/659/186
f 345/911/183 194/659/186 193/658/187
f 345/911/183 193/658/187 41/375/184
f 346/912/188 42/377/189 43/378/190
f 346/912/188 43/378/190 195/661/191
f 346/912/188 195/661/191 194/660/192
f 346/912/188 194/660/192 42/377/189
f 347/913/193 43/379/194 44/380/195
f 347/913/193 44/380/195 196/663/196
f 347/913/193 196/663/196 195/662/197
f 347/913/193 195/662/197 43/379/194
f 348/914/198 44/381/199 45/382/200
f 348/914/198 45/382/200 197/665/201
f 348/914/198 197/665/201 196/664/202
f 348/914/198 196/664/202 44/381/199
f 349/915/203 45/383/204 46/384/205
f 349/915/203 46/384/205 198/667/206
f 349/915/203 198/667/206 197/666/207
f 349/915/203 197/666/207 45/383/204
f 350/916/208 46/385/209 47/386/210
f 350/916/208 47/386/210 199/669/211
f 350/916/208 199/669/211 198/668/212
f 350/916/208 198/668/212 46/385/209
f 351/917/213 47/387/214 48/388/215
f 351/917/213 48/388/215 200/671/216
f 351/917/213 200/671/216 199/670/217
f 351/917/213 199/670/217 47/387/214
f 352/918/218 48/389/219 49/390/220
f 352/918/218 49/390/220 201/673/221
f 352/918/218 201/673/221 200/672/222
f 352/918/218 200/672/222 48/389/219
f 353/919/223 49/391/224 50/392/225
f 353/919/223 50/392/225 202/675/226
f 353/919/223 202/675/226 201/674/227
f 353/919/223 201/674/227 49/391/224
f 354/920/228 50/393/229 51/394/230
f 354/920/228 51/394/230 203/677/231
f 354/920/228 203/677/231 202/676/232
f 354/920/228 202/676/232 50/393/229
f 355/921/233 51/395/234 52/396/235
f 355/921/233 52/396/235 204/679/236
f 355/921/233 204/679/236 203/678/237
f 355/921/233 203/678/237 51/395/234
f 356/922/238 52/397/239 53/398/240
f 356/922/238 53/398/240 205/681/241
f 356/922/238 205/681/241 204/680/242
f 356/922/238 204/680/242 52/397/239
f 357/923/243 53/399/244 54/400/245
f 357/923/243 54/400/245 206/683/246
f 357/923/243 206/683/246 205/682/247
f 357/923/243 205/682/247 53/399/244
f 358/924/248 54/401/249 55/402/250
f 358/924/248 55/402/250 207/685/251
f 358/924/248 207/685/251 206/684/252
f 358/924/248 206/684/252 54/401/249
f 359/925/253 55/403/254 56/404/255
f 359/925/253 56/404/255 208/687/256
f 359/925/253 208/687/256 207/686/257
f 359/925/253 207/686/257 55/403/254
f 360/926/258 56/405/259 57/406/260
f 360/926/258 57/406/260 209/689/261
f 360/926/258 209/689/261 208/688/262
f 360/926/258 208/688/262 56/405/259
f 361/927/263 57/407/264 58/408/265
f 361/927/263 58/408/265 210/691/266
f 361/927/263 210/691/266 209/690/267
f 361/927/263 209/690/267 57/407/264
f 362/928/268 58/409/269 59/410/270
f 362/928/268 59/410/270 211/693/271
f 362/928/268 211/693/271 210/692/272
f 362/928/268 210/692/272 58/409/269
f 363/929/273 59/411/274 60/412/275
f 363/929/273 60/412/275 212/695/276
f 363/929/273 212/695/276 211/694/277
f 363/929/273 211/694/277 59/411/274
f 364/930/278 60/413/279 61/414/280
f 364/930/278 61/414/280 213/697/281
f 364/930/278 213/697/281 212/696/282
f 364/930/278 212/696/282 60/413/279
f 365/931/283 61/415/284 62/416/285
f 365/931/283 62/416/285 214/699/286
f 365/931/283 214/699/286 213/698/287
f 365/931/283 213/698/287 61/415/284
f 366/932/288 62/417/289 63/418/290
f 366/932/288 63/418/290 215/701/291
f 366/932/288 215/701/291 214/700/292
f 366/932/288 214/700/292 62/417/289
f 367/933/293 63/419/294 64/420/295
f 367/933/293 64/420/295 216/703/296
f 367/933/293 216/703/296 215/702/297
f 367/933/293 215/702/297 63/419/294
f 368/934/298 64/421/299 65/422/300
f 368/934/298 65/422/300 217/705/301
f 368/934/298 217/705/301 216/704/302
f 368/934/298 216/704/302 64/421/299
f 369/935/303 65/423/304 66/424/305
f 369/935/303 66/424/305 218/707/306
f 369/935/303 218/707/306 217/706/307
f 369/935/303 217/706/307 65/423/304
f 370/936/308 66/425/309 67/426/310
f 370/936/308 67/426/310 219/709/311
f 370/936/308 219/709/311 218/708/312
f 370/936/308 218/708/312 66/425/309
f 371/937/313 67/427/314 68/428/315
f 371/937/313 68/428/315 220/711/316
f 371/937/313 220/711/316 219/710/317
f 371/937/313 219/710/317 67/427/314
f 372/938/318 68/429/319 69/430/320
f 372/938/318 69/430/320 221/713/321
f 372/938/318 221/713/321 220/712/322
f 372/938/318 220/712/322 68/429/319
f 373/939/323 69/431/324 70/432/325
f 373/939/323 70/432/325 222/715/326
f 373/939/323 222/715/326 221/714/327
f 373/939/323 221/714/327 69/431/324
f 374/940/328 70/433/329 71/434/330
f 374/940/328 71/434/330 223/717/331
f 374/940/328 223/717/331 222/716/332
f 374/940/328 222/716/332 70/433/329
f 375/941/333 71/435/334 72/436/335
f 375/941/333 72/436/335 224/719/336
f 375/941/333 224/719/336 223/718/337
f 375/941/333 223/718/337 71/435/334
f 376/942/338 72/437/339 73/438/340
f 376/942/338 73/438/340 225/721/341
f 376/942/338 225/721/341 224/720/342
f 376/942/338 224/720/342 72/437/339
f 377/943/343 73/439/344 74/440/345
f 377/943/343 74/440/345 226/723/346
f 377/943/343 226/723/346 225/722/347
f 377/943/343 225/722/347 73/439/344
f 378/944/348 74/441/349 75/442/350
f 378/944/348 75/442/350 227/725/351
f 378/944/348 227/725/351 226/724/352
f 378/944/348 226/724/352 74/441/349
f 379/945/353 75/443/354 76/444/355
f 379/945/353 76/444/355 228/727/356
f 379/945/353 228/727/356 227/726/357
f 379/945/353 227/726/357 75/443/354
f 380/946/358 76/444/355 77/445/359
f 380/946/358 77/445/359 229/728/360
f 380/946/358 229/728/360 228/727/356
f 380/946/358 228/727/356 76/444/355
f 381/947/361 77/446/362 78/447/363
f 381/947/361 78/447/363 230/730/364
f 381/947/361 230/730/364 229/729/365
f 381/947/361 229/729/365 77/446/362
f 382/948/366 78/447/363 79/448/367
f 382/948/366 79/448/367 231/731/368
f 382/948/366 231/731/368 230/730/364
f 382/948/366 230/730/364 78/447/363
f 383/949/369 79/449/370 80/450/371
f 383/949/369 80/450/371 232/733/372
f 383/949/369 232/733/372 231/732/373
f 383/949/369 231/732/373 79/449/370
f 384/950/374 80/451/375 81/452/376
f 384/950/374 81/452/376 233/735/377
f 384/950/374 233/735/377 232/734/378
f 384/950/374 232/734/378 80/451/375
f 385/951/379 81/453/380 82/454/381
f 385/951/379 82/454/381 234/737/382
f 385/951/379 234/737/382 233/736/383
f 385/951/379 233/736/383 81/453/380
f 386/952/384 82/455/385 83/456/386
f 386/952/384 83/456/386 235/739/387
f 386/952/384 235/739/387 234/738/388
f 386/952/384 234/738/388 82/455/385
f 387/953/389 83/457/390 84/458/391
f 387/953/389 84/458/391 236/741/392
f 387/953/389 236/741/392 235/740/393
f 387/953/389 235/740/393 83/457/390
f 388/954/394 84/459/395 85/460/396
f 388/954/394 85/460/396 237/743/397
f 388/954/394 237/743/397 236/742/398
f 388/954/394 236/742/398 84/459/395
f 389/955/399 85/461/400 86/462/401
f 389/955/399 86/462/401 238/745/402
f 389/955/399 238/745/402 237/744/403
f 389/955/399 237/744/403 85/461/400
f 390/956/404 86/463/405 87/464/406
f 390/956/404 87/464/406 239/747/407
f 390/956/404 239/747/407 238/746/408
f 390/956/404 238/746/408 86/463/405
f 391/957/409 87/465/410 88/466/411
f 391/957/409 88/466/411 240/749/412
f 391/957/409 240/749/412 239/748/413
f 391/957/409 239/748/413 87/465/410
f 392/958/414 88/467/415 89/468/416
f 392/958/414 89/468/416 241/751/417
f 392/958/414 241/751/417 240/750/418
f 392/958/414 240/750/418 88/467/415
f 393/959/419 89/469/420 90/470/421
f 393/959/419 90/470/421 242/753/422
f 393/959/419 242/753/422 241/752/423
f 393/959/419 241/752/423 89/469/420
f 394/960/424 90/471/425 91/472/426
f 394/960/424 91/472/426 243/755/427
f 394/960/424 243/755/427 242/754/428
f 394/960/424 242/754/428 90/471/425
f 395/961/429 91/473/430 92/474/431
f 395/961/429 92/474/431 244/757/432
f 395/961/429 244/757/432 243/756/433
f 395/961/429 243/756/433 91/473/430
f 396/962/434 92/475/435 93/476/436
f 396/962/434 93/476/436 245/759/437
f 396/962/434 245/759/437 244/758/438
f 396/962/434 244/758/438 92/475/435
f 397/963/439 93/477/440 94/478/441
f 397/963/439 94/478/441 246/761/442
f 397/963/439 246/761/442 245/760/443
f 397/963/439 245/760/443 93/477/440
f 398/964/444 94/479/445 95/480/446
f 398/964/444 95/480/446 247/763/447
f 398/964/444 247/763/447 246/762/448
f 398/964/444 246/762/448 94/479/445
f 399/965/449 95/481/450 96/482/451
f 399/965/449 96/482/451 248/765/452
f 399/965/449 248/765/452 247/764/453
f 399/965/449 247/764/453 95/481/450
f 400/966/454 96/483/455 97/484/456
f 400/966/454 97/484/456 249/767/457
f 400/966/454 249/767/457 248/766/458
f 400/966/454 248/766/458 96/483/455
f 401/967/459 97/485/460 98/486/461
f 401/967/459 98/486/461 250/769/462
f 401/967/459 250/769/462 249/768/463
f 401/967/459 249/768/463 97/485/460
f 402/968/464 98/487/465 99/488/466
f 402/968/464 99/488/466 251/771/467
f 402/968/464 251/771/467 250/770/468
f 402/968/464 250/770/468 98/487/465
f 403/969/469 99/489/470 100/490/471
f 403/969/469 100/490/471 252/773/472
f 403/969/469 252/773/472 251/772/473
f 403/969/469 251/772/473 99/489/470
f 404/970/474 100/491/475 101/492/476
f 404/970/474 101/492/476 253/775/477
f 404/970/474 253/775/477 252/774/478
f 404/970/474 252/774/478 100/491/475
f 405/971/479 101/493/480 102/494/481
f 405/971/479 102/494/481 254/777/482
f 405/971/479 254/777/482 253/776/483
f 405/971/479 253/776/483 101/493/480
f 406/972/484 102/495/485 103/496/486
f 406/972/484 103/496/486 255/779/487
f 406/972/484 255/779/487 254/778/488
f 406/972/484 254/778/488 102/495/485
f 407/973/489 103/497/490 104/498/491
f 407/973/489 104/498/491 256/781/492
f 407/973/489 256/781/492 255/780/493
f 407/973/489 255/780/493 103/497/490
f 408/974/494 104/499/495 105/500/496
f 408/974/494 105/500/496 257/783/497
f 408/974/494 257/783/497 256/782/498
f 408/974/494 256/782/498 104/499/495
f 409/975/499 105/501/500 106/502/501
f 409/975/499 106/502/501 258/785/502
f 409/975/499 258/785/502 257/784/503
f 409/975/499 257/784/503 105/501/500
f 410/976/504 106/503/505 107/504/506
f 410/976/504 107/504/506 259/787/507
f 410/976/504 259/787/507 258/786/508
f 410/976/504 258/786/508 106/503/505
f 411/977/509 107/505/510 108/506/511
f 411/977/509 108/506/511 260/789/512
f 411/977/509 260/789/512 259/788/513
f 411/977/509 259/788/513 107/505/510
f 412/978/514 108/507/515 109/508/516
f 412/978/514 109/508/516 261/791/517
f 412/978/514 261/791/517 260/790/518
f 412/978/514 260/790/518 108/507/515
f 413/979/519 109/509/520 110/510/521
f 413/979/519 110/510/521 262/793/522
f 413/979/519 262/793/522 261/792/523
f 413/979/519 261/792/523 109/509/520
f 414/980/524 110/511/525 111/512/526
f 414/980/524 111/512/526 263/795/527
f 414/980/524 263/795/527 262/794/528
f 414/980/524 262/794/528 110/511/525
f 415/981/529 111/513/530 112/514/531
f 415/981/529 112/514/531 264/797/532
f 415/981/529 264/797/532 263/796/533
f 415/981/529 263/796/533 111/513/530
f 416/982/534 112/515/535 113/516/536
f 416/982/534 113/516/536 265/799/537
f 416/982/534 265/799/537 264/798/538
f 416/982/534 264/798/538 112/515/535
f 417/983/539 113/517/540 114/518/541
f 417/983/539 114/518/541 266/801/542
f 417/983/539 266/801/542 265/800/543
f 417/983/539 265/800/543 113/517/540
f 418/984/544 114/519/545 115/520/546
f 418/984/544 115/520/546 267/803/547
f 418/984/544 267/803/547 266/802/548
f 418/984/544 266/802/548 114/519/545
f 419/985/549 115/521/550 116/522/551
f 419/985/549 116/522/551 268/805/552
f 419/985/549 268/805/552 267/804/553
f 419/985/549 267/804/553 115/521/550
f 420/986/554 116/523/555 117/524/556
f 420/986/554 117/524/556 269/807/557
f 420/986/554 269/807/557 268/806/558
f 420/986/554 268/806/558 116/523/555
f 421/987/559 117/525/560 118/526/561
f 421/987/559 118/526/561 270/809/562
f 421/987/559 270/809/562 269/808/563
f 421/987/559 269/808/563 117/525/560
f 422/988/564 118/527/565 119/528/566
f 422/988/564 119/528/566 271/811/567
f 422/988/564 271/811/567 270/810/568
f 422/988/564 270/810/568 118/527/565
f 423/989/569 119/529/570 120/530/571
f 423/989/569 120/530/571 272/813/572
f 423/989/569 272/813/572 271/812/573
f 423/989/569 271/812/573 119/529/570
f 424/990/574 120/531/575 121/532/576
f 424/990/574 121/532/576 273/815/577
f 424/990/574 273/815/577 272/814/578
f 424/990/574 272/814/578 120/531/575
f 425/991/579 121/533/580 122/534/581
f 425/991/579 122/534/581 274/817/582
f 425/991/579 274/817/582 273/816/583
f 425/991/579 273/816/583 121/533/580
f 426/992/584 122/535/585 123/536/586
f 426/992/584 123/536/586 275/819/587
f 426/992/584 275/819/587 274/818/588
f 426/992/584 274/818/588 122/535/585
f 427/993/589 123/537/590 124/538/591
f 427/993/589 124/538/591 276/821/592
f 427/993/589 276/821/592 275/820/593
f 427/993/589 275/820/593 123/537/590
f 428/994/594 124/539/595 125/540/596
f 428/994/594 125/540/596 277/823/597
f 428/994/594 277/823/597 276/822/598
f 428/994/594 276/822/598 124/539/595
f 429/995/599 125/541/600 126/542/601
f 429/995/599 126/542/601 278/825/602
f 429/995/599 278/825/602 277/824/603
f 429/995/599 277/824/603 125/541/600
f 430/996/604 126/543/605 127/544/606
f 430/996/604 127/544/606 279/827/607
f 430/996/604 279/827/607 278/826/608
f 430/996/604 278/826/608 126/543/605
f 431/997/609 127/545/610 128/546/611
f 431/997/609 128/546/611 280/829/612
f 431/997/609 280/829/612 279/828/613
f 431/997/609 279/828/613 127/545/610
f 432/998/614 128/547/615 129/548/616
f 432/998/614 129/548/616 281/831/617
f 432/998/614 281/831/617 280/830/618
f 432/998/614 280/830/618 128/547/615
f 433/999/619 129/549/620 130/550/621
f 433/999/619 130/550/621 282/833/622
f 433/999/619 282/833/622 281/832/623
f 433/999/619 281/832/623 129/549/620
f 434/1000/624 130/551/625 131/552/626
f 434/1000/624 131/552/626 283/835/627
f 434/1000/624 283/835/627 282/834/628
f 434/1000/624 282/834/628 130/551/625
f 435/1001/629 131/553/630 132/554/631
f 435/1001/629 132/554/631 284/837/632
f 435/1001/629 284/837/632 283/836/633
f 435/1001/629 283/836/633 131/553/630
f 436/1002/634 132/555/635 133/556/636
f 436/1002/634 133/556/636 285/839/637
f 436/1002/634 285/839/637 284/838/638
f 436/1002/634 284/838/638 132/555/635
f 437/1003/639 133/557/640 134/558/641
f 437/1003/639 134/558/641 286/841/642
f 437/1003/639 286/841/642 285/840/643
f 437/1003/639 285/840/643 133/557/640
f 438/1004/644 134/559/645 135/560/646
f 438/1004/644 135/560/646 287/843/647
f 438/1004/644 287/843/647 286/842/648
f 438/1004/644 286/842/648 134/559/645
f 439/1005/649 135/561/650 136/562/651
f 439/1005/649 136/562/651 288/845/652
f 439/1005/649 288/845/652 287/844/653
f 439/1005/649 287/844/653 135/561/650
f 440/1006/654 136/563/655 137/564/656
f 440/1006/654 137/564/656 289/847/657
f 440/1006/654 289/847/657 288/846/658
f 440/1006/654 288/846/658 136/563/655
f 441/1007/659 137/565/660 138/566/661
f 441/1007/659 138/566/661 290/849/662
f 441/1007/659 290/849/662 289/848/663
f 441/1007/659 289/848/663 137/565/660
f 442/1008/664 138/567/665 139/568/666
f 442/1008/664 139/568/666 291/851/667
f 442/1008/664 291/851/667 290/850/668
f 442/1008/664 290/850/668 138/567/665
f 443/1009/669 139/569/670 140/570/671
f 443/1009/669 140/570/671 292/853/672
f 443/1009/669 292/853/672 291/852/673
f 443/1009/669 291/852/673 139/569/670
f 444/1010/674 140/571/675 141/572/676
f 444/1010/674 141/572/676 293/855/677
f 444/1010/674 293/855/677 292/854/678
f 444/1010/674 292/854/678 140/571/675
f 445/1011/679 141/572/676 142/573/680
f 445/1011/679 142/573/680 294/856/681
f 445/1011/679 294/856/681 293/855/677
f 445/1011/679 293/855/677 141/572/676
f 446/1012/682 142/573/680 143/574/683
f 446/1012/682 143/574/683 295/857/684
f 446/1012/682 295/857/684 294/856/681
f 446/1012/682 294/856/681 142/573/680
f 447/1013/685 143/574/683 144/575/686
f 447/1013/685 144/575/686 296/858/687
f 447/1013/685 296/858/687 295/857/684
f 447/1013/685 295/857/684 143/574/683
f 448/1014/688 144/575/686 145/576/689
f 448/1014/688 145/576/689 297/859/690
f 448/1014/688 297/859/690 296/858/687
f 448/1014/688 296/858/687 144/575/686
f 449/1015/691 145/576/689 146/577/692
f 449/1015/691 146/577/692 298/860/693
f 449/1015/691 298/860/693 297/859/690
f 449/1015/691 297/859/690 145/576/689
f 450/1016/694 146/577/692 147/578/695
f 450/1016/694 147/578/695 299/861/696
f 450/1016/694 299/861/696 298/860/693
f 450/1016/694 298/860/693 146/577/692
f 451/1017/697 147/578/695 148/579/698
f 451/1017/697 148/579/698 300/862/699
f 451/1017/697 300/862/699 299/861/696
f 451/1017/697 299/861/696 147/578/695
f 452/1018/700 148/579/698 149/580/701
f 452/1018/700 149/580/701 301/863/702
f 452/1018/700 301/863/702 300/862/699
f 452/1018/700 300/862/699 148/579/698
f 453/1019/703 149/580/701 150/581/704
f 453/1019/703 150/581/704 302/864/705
f 453/1019/703 302/864/705 301/863/702
f 453/1019/703 301/863/702 149/580/701
f 454/1020/706 150/582/707 151/583/708
f 454/1020/706 151/583/708 303/866/709
f 454/1020/706 303/866/709 302/865/710
f 454/1020/706 302/865/710 150/582/707
f 455/1021/711 151/584/712 152/585/713
f 455/1021/711 152/585/713 304/868/714
f 455/1021/711 304/868/714 303/867/715
f 455/1021/711 303/867/715 151/584/712
f 456/1022/716 152/586/717 1/587/718
f 456/1022/716 1/587/718 153/870/719
f 456/1022/716 153/870/719 304/869/720
f 456/1022/716 304/869/720 152/586/717
