mtllib ELITE RIB.mtl
# Vertex Positions: 
g groupNumber_0
v 13.8324 -0.514082 -16.9263
v 13.9814 -0.180559 -16.9263
v 13.8267 -0.505257 -16.9263
v 12.6885 -0.505257 -16.9263
v 12.1462 0.568635 -16.9263
v 9.90291 0.571065 -16.9263
v 9.3611 -0.505257 -16.9263
v 8.21737 -0.505257 -16.9263
v 7.70414 0.568549 -16.9263
v 5.42422 0.571065 -16.9263
v 4.89534 -0.505257 -16.9263
v 3.76254 -0.505257 -16.9263
v 3.24272 0.559689 -16.9263
v 0.930365 0.562171 -16.9263
v 0.429581 -0.505257 -16.9263
v -0.72265 -0.505257 -16.9263
v -1.21606 0.559621 -16.9263
v -3.4901 0.562171 -16.9263
v -4.01968 -0.505257 -16.9263
v -5.15797 -0.505257 -16.9263
v -5.67827 0.559689 -16.9263
v -7.95648 0.562171 -16.9263
v -8.49087 -0.505257 -16.9263
v -9.62914 -0.505257 -16.9263
v -10.1369 0.568532 -16.9263
v -12.4438 0.571065 -16.9263
v -12.9403 -0.505257 -16.9263
v -13.7255 -0.505257 -16.9263
v -13.9814 -0.571065 -16.9263
v -13.725 -0.514082 -16.9263
v -12.9346 -0.514082 -16.9263
v -12.4382 0.56224 -16.9263
v -10.1437 0.56224 -16.9263
v -9.63473 -0.514082 -16.9263
v -8.48543 -0.514082 -16.9263
v -7.95103 0.553346 -16.9263
v -5.68499 0.553346 -16.9263
v -5.16469 -0.5116 -16.9263
v -4.0142 -0.514082 -16.9263
v -3.48462 0.553346 -16.9263
v -1.22287 0.553346 -16.9263
v -0.729476 -0.511531 -16.9263
v 0.435166 -0.514082 -16.9263
v 0.93595 0.553346 -16.9263
v 3.236 0.553346 -16.9263
v 3.75581 -0.5116 -16.9263
v 4.90086 -0.514082 -16.9263
v 5.42974 0.56224 -16.9263
v 7.69735 0.56224 -16.9263
v 8.21058 -0.511566 -16.9263
v 9.36655 -0.514082 -16.9263
v 9.90836 0.56224 -16.9263
v 12.1396 0.56224 -16.9263
v 12.6819 -0.511669 -16.9263
v 13.8324 -0.514082 16.9263
v 13.9814 -0.180559 16.9263
v 13.8267 -0.505257 16.9263
v 12.6885 -0.505257 16.9263
v 12.1462 0.568635 16.9263
v 9.90291 0.571065 16.9263
v 9.3611 -0.505257 16.9263
v 8.21737 -0.505257 16.9263
v 7.70414 0.568549 16.9263
v 5.42422 0.571065 16.9263
v 4.89534 -0.505257 16.9263
v 3.76254 -0.505257 16.9263
v 3.24272 0.559689 16.9263
v 0.930365 0.562171 16.9263
v 0.429581 -0.505257 16.9263
v -0.72265 -0.505257 16.9263
v -1.21606 0.559621 16.9263
v -3.4901 0.562171 16.9263
v -4.01968 -0.505257 16.9263
v -5.15797 -0.505257 16.9263
v -5.67827 0.559689 16.9263
v -7.95648 0.562171 16.9263
v -8.49087 -0.505257 16.9263
v -9.62914 -0.505257 16.9263
v -10.1369 0.568532 16.9263
v -12.4438 0.571065 16.9263
v -12.9403 -0.505257 16.9263
v -13.7255 -0.505257 16.9263
v -13.9814 -0.571065 16.9263
v -13.725 -0.514082 16.9263
v -12.9346 -0.514082 16.9263
v -12.4382 0.56224 16.9263
v -10.1437 0.56224 16.9263
v -9.63473 -0.514082 16.9263
v -8.48543 -0.514082 16.9263
v -7.95103 0.553346 16.9263
v -5.68499 0.553346 16.9263
v -5.16469 -0.5116 16.9263
v -4.0142 -0.514082 16.9263
v -3.48462 0.553346 16.9263
v -1.22287 0.553346 16.9263
v -0.729476 -0.511531 16.9263
v 0.435166 -0.514082 16.9263
v 0.93595 0.553346 16.9263
v 3.236 0.553346 16.9263
v 3.75581 -0.5116 16.9263
v 4.90086 -0.514082 16.9263
v 5.42974 0.56224 16.9263
v 7.69735 0.56224 16.9263
v 8.21058 -0.511566 16.9263
v 9.36655 -0.514082 16.9263
v 9.90836 0.56224 16.9263
v 12.1396 0.56224 16.9263
v 12.6819 -0.511669 16.9263
v 13.9069 -0.347321 0
v 13.904 -0.342908 0
v 13.2576 -0.505257 0
v 12.4174 0.031689 0
v 11.0246 0.56985 0
v 9.63201 0.0329042 0
v 8.78923 -0.505257 0
v 7.96075 0.0316459 0
v 6.56418 0.569807 0
v 5.15978 0.0329042 0
v 4.32894 -0.505257 0
v 3.50263 0.0272162 0
v 2.08654 0.56093 0
v 0.679973 0.0284572 0
v -0.146535 -0.505257 0
v -0.969354 0.0271817 0
v -2.35308 0.560896 0
v -3.75489 0.0284572 0
v -4.58883 -0.505257 0
v -5.41812 0.0272162 0
v -6.81737 0.56093 0
v -8.22368 0.0284572 0
v -9.06001 -0.505257 0
v -9.88304 0.0316373 0
v -11.2904 0.569799 0
v -12.692 0.0329042 0
v -13.3329 -0.505257 0
v -13.8534 -0.538161 0
v -13.8532 -0.542574 0
v -13.3298 -0.514082 0
v -12.6864 0.0240791 0
v -11.2909 0.56224 0
v -9.88921 0.0240791 0
v -9.06008 -0.514082 0
v -8.21823 0.0196322 0
v -6.81801 0.553346 0
v -5.42484 0.0208732 0
v -4.58945 -0.512841 0
v -3.74941 0.0196322 0
v -2.35374 0.553346 0
v -0.976171 0.0209077 0
v -0.147155 -0.512807 0
v 0.685558 0.0196322 0
v 2.08597 0.553346 0
v 3.49591 0.0208732 0
v 4.32834 -0.512841 0
v 5.1653 0.0240791 0
v 6.56354 0.56224 0
v 7.95396 0.0253374 0
v 8.78856 -0.512824 0
v 9.63745 0.0240791 0
v 11.024 0.56224 0
v 12.4107 0.0252857 0
v 13.2571 -0.512876 0


# Vertex Texture Coordinates :
vt 0.399191 0.000817819
vt 0.401328 0.00560451
vt 0.399109 0.000944475
vt 0.382773 0.000944475
vt 0.37499 0.0163569
vt 0.342794 0.0163918
vt 0.335019 0.000944475
vt 0.318604 0.000944475
vt 0.311238 0.0163556
vt 0.278517 0.0163918
vt 0.270926 0.000944475
vt 0.254668 0.000944475
vt 0.247208 0.0162285
vt 0.214021 0.0162641
vt 0.206834 0.000944475
vt 0.190297 0.000944475
vt 0.183216 0.0162275
vt 0.150579 0.0162641
vt 0.142979 0.000944475
vt 0.126642 0.000944475
vt 0.119175 0.0162285
vt 0.0864781 0.0162641
vt 0.0788085 0.000944475
vt 0.0624722 0.000944475
vt 0.0551845 0.0163554
vt 0.0220762 0.0163918
vt 0.0149511 0.000944475
vt 0.00368119 0.000944475
vt 9.41337e-06 0
vt 0.00368935 0.000817819
vt 0.0150322 0.000817819
vt 0.0221573 0.0162651
vt 0.0550873 0.0162651
vt 0.062392 0.000817819
vt 0.0788867 0.000817819
vt 0.0865563 0.0161375
vt 0.119078 0.0161375
vt 0.126546 0.000853441
vt 0.143057 0.000817819
vt 0.150658 0.0161375
vt 0.183118 0.0161375
vt 0.190199 0.000854431
vt 0.206914 0.000817819
vt 0.214101 0.0161375
vt 0.247112 0.0161375
vt 0.254572 0.000853441
vt 0.271005 0.000817819
vt 0.278596 0.0162651
vt 0.31114 0.0162651
vt 0.318506 0.000853936
vt 0.335097 0.000817819
vt 0.342873 0.0162651
vt 0.374895 0.0162651
vt 0.382678 0.000852452
vt 0.409473 0.000817819
vt 0.407335 0.00560451
vt 0.409555 0.000944475
vt 0.42589 0.000944475
vt 0.433673 0.0163569
vt 0.465869 0.0163918
vt 0.473645 0.000944475
vt 0.49006 0.000944475
vt 0.497426 0.0163556
vt 0.530147 0.0163918
vt 0.537737 0.000944475
vt 0.553995 0.000944475
vt 0.561455 0.0162285
vt 0.594642 0.0162641
vt 0.601829 0.000944475
vt 0.618366 0.000944475
vt 0.625447 0.0162275
vt 0.658084 0.0162641
vt 0.665685 0.000944475
vt 0.682021 0.000944475
vt 0.689489 0.0162285
vt 0.722185 0.0162641
vt 0.729855 0.000944475
vt 0.746191 0.000944475
vt 0.753479 0.0163554
vt 0.786587 0.0163918
vt 0.793712 0.000944475
vt 0.804982 0.000944475
vt 0.808654 0
vt 0.804974 0.000817819
vt 0.793631 0.000817819
vt 0.786506 0.0162651
vt 0.753576 0.0162651
vt 0.746271 0.000817819
vt 0.729777 0.000817819
vt 0.722107 0.0161375
vt 0.689585 0.0161375
vt 0.682118 0.000853441
vt 0.665606 0.000817819
vt 0.658006 0.0161375
vt 0.625545 0.0161375
vt 0.618464 0.000854431
vt 0.601749 0.000817819
vt 0.594562 0.0161375
vt 0.561552 0.0161375
vt 0.554092 0.000853441
vt 0.537658 0.000817819
vt 0.530068 0.0162651
vt 0.497523 0.0162651
vt 0.490157 0.000853936
vt 0.473567 0.000817819
vt 0.465791 0.0162651
vt 0.433769 0.0162651
vt 0.425986 0.000852452
vt 1.90018e-05 0.0223704
vt 0.00526119 0.0223704
vt 0 0.514151
vt 0.00516158 0.514151
vt 0.0112564 0.0223704
vt 0.027592 0.0223704
vt 0.0335654 0.0223704
vt 0.0508314 0.0223704
vt 0.0568219 0.0223704
vt 0.0890177 0.0223704
vt 0.0335514 0.514151
vt 0.0508454 0.514151
vt 0.0568245 0.514151
vt 0.0732393 0.514151
vt 0.0950415 0.0223704
vt 0.112122 0.0223704
vt 0.118121 0.0223704
vt 0.150842 0.0223704
vt 0.118166 0.514151
vt 0.135377 0.514151
vt 0.0112952 0.514151
vt 0.0275532 0.514151
vt 0.0950189 0.514151
vt 0.112026 0.514151
vt 0.156794 0.0223704
vt 0.189981 0.0223704
vt 0.156801 0.514151
vt 0.173723 0.514151
vt 0.195959 0.0223704
vt 0.212496 0.0223704
vt 0.21852 0.0223704
vt 0.235364 0.0223704
vt 0.241404 0.0223704
vt 0.274041 0.0223704
vt 0.241403 0.514151
vt 0.258504 0.514151
vt 0.19594 0.514151
vt 0.212277 0.514151
vt 0.280058 0.0223704
vt 0.297068 0.0223704
vt 0.303055 0.0223704
vt 0.335751 0.0223704
vt 0.303068 0.514151
vt 0.3202 0.514151
vt 0.218477 0.514151
vt 0.234814 0.514151
vt 0.280039 0.514151
vt 0.297087 0.514151
vt 0.341755 0.0223704
vt 0.374863 0.0223704
vt 0.341737 0.514151
vt 0.358749 0.514151
vt 0.380847 0.0223704
vt 0.392117 0.0223704
vt 0.395909 0.0223704
vt 0.401876 0.0223704
vt 0.405646 0.0223704
vt 0.416988 0.0223704
vt 0.422989 0.0223704
vt 0.44 0.0223704
vt 0.445988 0.0223704
vt 0.478918 0.0223704
vt 0.446022 0.514151
vt 0.463109 0.514151
vt 0.42301 0.514151
vt 0.439505 0.514151
vt 0.484905 0.0223704
vt 0.502037 0.0223704
vt 0.50805 0.0223704
vt 0.540572 0.0223704
vt 0.484907 0.514151
vt 0.501917 0.514151
vt 0.508049 0.514151
vt 0.524561 0.514151
vt 0.546601 0.0223704
vt 0.563702 0.0223704
vt 0.569702 0.0223704
vt 0.602162 0.0223704
vt 0.546611 0.514151
vt 0.563455 0.514151
vt 0.569687 0.514151
vt 0.586402 0.514151
vt 0.608133 0.0223704
vt 0.625055 0.0223704
vt 0.631048 0.0223704
vt 0.664058 0.0223704
vt 0.631043 0.514151
vt 0.64805 0.514151
vt 0.60814 0.514151
vt 0.624574 0.514151
vt 0.670084 0.0223704
vt 0.687295 0.0223704
vt 0.693317 0.0223704
vt 0.725861 0.0223704
vt 0.67009 0.514151
vt 0.687171 0.514151
vt 0.693287 0.514151
vt 0.709878 0.514151
vt 0.731841 0.0223704
vt 0.749135 0.0223704
vt 0.75508 0.0223704
vt 0.787102 0.0223704
vt 0.731855 0.514151
vt 0.749121 0.514151
vt 0.755124 0.514151
vt 0.771638 0.514151
vt 1.90018e-05 0.50822
vt 0.00526119 0.50822
vt 0 1
vt 0.00516158 1
vt 0.0112564 0.50822
vt 0.027592 0.50822
vt 0.0335654 0.50822
vt 0.0508314 0.50822
vt 0.0568219 0.50822
vt 0.0890177 0.50822
vt 0.0335514 1
vt 0.0508454 1
vt 0.0568245 1
vt 0.0732393 1
vt 0.0950415 0.50822
vt 0.112122 0.50822
vt 0.118121 0.50822
vt 0.150842 0.50822
vt 0.118166 1
vt 0.135377 1
vt 0.0112952 1
vt 0.0275532 1
vt 0.0950189 1
vt 0.112026 1
vt 0.156794 0.50822
vt 0.189981 0.50822
vt 0.156801 1
vt 0.173723 1
vt 0.195959 0.50822
vt 0.212496 0.50822
vt 0.21852 0.50822
vt 0.235364 0.50822
vt 0.241404 0.50822
vt 0.274041 0.50822
vt 0.241403 1
vt 0.258504 1
vt 0.19594 1
vt 0.212277 1
vt 0.280058 0.50822
vt 0.297068 0.50822
vt 0.303055 0.50822
vt 0.335751 0.50822
vt 0.303068 1
vt 0.3202 1
vt 0.218477 1
vt 0.234814 1
vt 0.280039 1
vt 0.297087 1
vt 0.341755 0.50822
vt 0.374863 0.50822
vt 0.341737 1
vt 0.358749 1
vt 0.380847 0.50822
vt 0.392117 0.50822
vt 0.395909 0.50822
vt 0.401876 0.50822
vt 0.405646 0.50822
vt 0.416988 0.50822
vt 0.422989 0.50822
vt 0.44 0.50822
vt 0.445988 0.50822
vt 0.478918 0.50822
vt 0.446022 1
vt 0.463109 1
vt 0.42301 1
vt 0.439505 1
vt 0.484905 0.50822
vt 0.502037 0.50822
vt 0.50805 0.50822
vt 0.540572 0.50822
vt 0.484907 1
vt 0.501917 1
vt 0.508049 1
vt 0.524561 1
vt 0.546601 0.50822
vt 0.563702 0.50822
vt 0.569702 0.50822
vt 0.602162 0.50822
vt 0.546611 1
vt 0.563455 1
vt 0.569687 1
vt 0.586402 1
vt 0.608133 0.50822
vt 0.625055 0.50822
vt 0.631048 0.50822
vt 0.664058 0.50822
vt 0.631043 1
vt 0.64805 1
vt 0.60814 1
vt 0.624574 1
vt 0.670084 0.50822
vt 0.687295 0.50822
vt 0.693317 0.50822
vt 0.725861 0.50822
vt 0.67009 1
vt 0.687171 1
vt 0.693287 1
vt 0.709878 1
vt 0.731841 0.50822
vt 0.749135 0.50822
vt 0.75508 0.50822
vt 0.787102 0.50822
vt 0.731855 1
vt 0.749121 1
vt 0.755124 1
vt 0.771638 1
vt 0.0026401 0.265295
vt 0.00258079 0.757075
vt 0.0194242 0.265295
vt 0.0421984 0.265295
vt 0.0729198 0.265295
vt 0.0421984 0.757075
vt 0.0650319 0.757075
vt 0.103582 0.265295
vt 0.134481 0.265295
vt 0.126771 0.757075
vt 0.0194242 0.757075
vt 0.103523 0.757075
vt 0.173387 0.265295
vt 0.165262 0.757075
vt 0.204227 0.265295
vt 0.226942 0.265295
vt 0.257723 0.265295
vt 0.249954 0.757075
vt 0.204109 0.757075
vt 0.288563 0.265295
vt 0.319403 0.265295
vt 0.311634 0.757075
vt 0.226646 0.757075
vt 0.288563 0.757075
vt 0.358309 0.265295
vt 0.350243 0.757075
vt 0.386482 0.265295
vt 0.394013 0.265295
vt 0.403761 0.265295
vt 0.411317 0.265295
vt 0.431495 0.265295
vt 0.462453 0.265295
vt 0.454565 0.757075
vt 0.431257 0.757075
vt 0.493471 0.265295
vt 0.524311 0.265295
vt 0.493412 0.757075
vt 0.516305 0.757075
vt 0.555151 0.265295
vt 0.585932 0.265295
vt 0.555033 0.757075
vt 0.578044 0.757075
vt 0.616594 0.265295
vt 0.647553 0.265295
vt 0.639546 0.757075
vt 0.616357 0.757075
vt 0.67869 0.265295
vt 0.709589 0.265295
vt 0.67863 0.757075
vt 0.701582 0.757075
vt 0.740488 0.265295
vt 0.771091 0.265295
vt 0.740488 0.757075
vt 0.763381 0.757075


# Vertex Surface Normals: 
vn 0 0 1
vn 0 0 -1
vn 0.91311 -0.407714 0
vn 0.91311 -0.407714 0
vn 0.91311 -0.407714 0
vn 0.91311 -0.407714 0
vn 0.91311 -0.407714 0
vn -0.902832 0.429993 0
vn -0.902832 0.429993 0
vn -0.902832 0.429993 0
vn -0.902832 0.429993 0
vn -0.902832 0.429993 0
vn 0 1 0
vn 0 1 0
vn 0 1 0
vn 0 1 0
vn 0 1 0
vn 0.892644 0.450763 0
vn 0.892644 0.450763 0
vn 0.892644 0.450763 0
vn 0.892644 0.450763 0
vn 0.892644 0.450763 0
vn 0.00108336 0.999999 0
vn 0.00108336 0.999999 2.86407e-18
vn 0.00108336 0.999999 2.86407e-18
vn 0.00108336 0.999999 -2.86407e-18
vn 0.00108336 0.999999 -2.86407e-18
vn -0.893214 0.449632 0
vn -0.893214 0.449632 4.05856e-17
vn -0.893214 0.449632 4.05856e-17
vn -0.893214 0.449632 -4.05856e-17
vn -0.893214 0.449632 -4.05856e-17
vn 0 1 0
vn 0 1 0
vn 0 1 0
vn 0 1 0
vn 0 1 0
vn 0.902242 0.431229 0
vn 0.902242 0.431229 -4.11037e-17
vn 0.902242 0.431229 -4.11037e-17
vn 0.902242 0.431229 4.11037e-17
vn 0.902242 0.431229 4.11037e-17
vn 0.00110377 0.999999 0
vn 0.00110377 0.999999 -2.81606e-18
vn 0.00110377 0.999999 -2.81606e-18
vn 0.00110377 0.999999 2.81606e-18
vn 0.00110377 0.999999 2.81606e-18
vn -0.897502 0.441011 0
vn -0.897502 0.441011 2.03925e-17
vn -0.897502 0.441011 2.03925e-17
vn -0.897502 0.441011 -2.03925e-17
vn -0.897502 0.441011 -2.03925e-17
vn 0 1 0
vn 0 1 0
vn 0 1 0
vn 0 1 0
vn 0 1 0
vn 0.89866 0.438647 0
vn 0.89866 0.438647 1.08645e-17
vn 0.89866 0.438647 1.08645e-17
vn 0.89866 0.438647 -1.08645e-17
vn 0.89866 0.438647 -1.08645e-17
vn 0.00107338 0.999999 0
vn 0.00107338 0.999999 0
vn 0.00107338 0.999999 0
vn 0.00107338 0.999999 0
vn 0.00107338 0.999999 0
vn -0.90532 0.424731 0
vn -0.90532 0.424731 -1.09208e-18
vn -0.90532 0.424731 -1.09208e-18
vn -0.90532 0.424731 1.09208e-18
vn -0.90532 0.424731 1.09208e-18
vn 0 1 0
vn 0 1 0
vn 0 1 0
vn 0 1 0
vn 0 1 0
vn 0.907334 0.42041 0
vn 0.907334 0.42041 4.389e-18
vn 0.907334 0.42041 4.389e-18
vn 0.907334 0.42041 -4.389e-18
vn 0.907334 0.42041 -4.389e-18
vn 0.00112178 0.999999 0
vn 0.00112178 0.999999 2.81933e-18
vn 0.00112178 0.999999 2.81933e-18
vn 0.00112178 0.999999 -2.81933e-18
vn 0.00112178 0.999999 -2.81933e-18
vn -0.895809 0.44444 0
vn -0.895809 0.44444 0
vn -0.895809 0.44444 0
vn -0.895809 0.44444 0
vn -0.895809 0.44444 0
vn 0 1 0
vn 0 1 0
vn 0 1 0
vn 0 1 0
vn 0 1 0
vn 0.898499 0.438975 0
vn 0.898499 0.438975 0
vn 0.898499 0.438975 0
vn 0.898499 0.438975 0
vn 0.898499 0.438975 0
vn 0.00108946 0.999999 0
vn 0.00108946 0.999999 2.16125e-20
vn 0.00108946 0.999999 2.16125e-20
vn 0.00108946 0.999999 -2.16125e-20
vn 0.00108946 0.999999 -2.16125e-20
vn -0.894199 0.44767 0
vn -0.894199 0.44767 0
vn -0.894199 0.44767 0
vn -0.894199 0.44767 0
vn -0.894199 0.44767 0
vn 0 1 0
vn 0 1 0
vn 0 1 0
vn 0 1 0
vn 0 1 0
vn 0.904016 0.427499 0
vn 0.904016 0.427499 -4.1187e-17
vn 0.904016 0.427499 -4.1187e-17
vn 0.904016 0.427499 4.1187e-17
vn 0.904016 0.427499 4.1187e-17
vn 0.00109834 0.999999 0
vn 0.00109834 0.999999 -4.69299e-20
vn 0.00109834 0.999999 -4.69299e-20
vn 0.00109834 0.999999 4.69299e-20
vn 0.00109834 0.999999 4.69299e-20
vn -0.908058 0.418845 0
vn -0.908058 0.418845 -4.12757e-17
vn -0.908058 0.418845 -4.12757e-17
vn -0.908058 0.418845 4.12757e-17
vn -0.908058 0.418845 4.12757e-17
vn 0 1 0
vn 0 1 0
vn -0.125552 0.992087 -1.48426e-18
vn -0.125552 0.992087 1.48426e-18
vn 0 1 0
vn -0.249116 0.968474 0
vn -0.249116 0.968474 -2.94502e-18
vn -0.249116 0.968474 2.94502e-18
vn 0.216944 -0.976184 0
vn 0.216944 -0.976184 0
vn 0.109124 -0.994028 0
vn 0.109124 -0.994028 0
vn 0.216944 -0.976184 0
vn 0 -1 0
vn 0 -1 0
vn 0 -1 0
vn 0.908058 -0.418845 0
vn 0.908058 -0.418845 0
vn 0.908058 -0.418845 0
vn 0.908058 -0.418845 0
vn 0.908058 -0.418845 0
vn 0 -1 0
vn 0 -1 0
vn 0 -1 0
vn 0 -1 0
vn 0 -1 0
vn -0.904019 -0.427493 0
vn -0.904019 -0.427493 0
vn -0.904019 -0.427493 0
vn -0.904019 -0.427493 0
vn -0.904019 -0.427493 0
vn 0 -1 0
vn 0 -1 0
vn 0 -1 0
vn 0 -1 0
vn 0 -1 0
vn 0.894199 -0.44767 0
vn 0.894199 -0.44767 0
vn 0.894199 -0.44767 0
vn 0.894199 -0.44767 0
vn 0.894199 -0.44767 0
vn 0 -1 0
vn 0 -1 0
vn 0 -1 0
vn 0 -1 0
vn 0 -1 0
vn -0.898499 -0.438975 0
vn -0.898499 -0.438975 0
vn -0.898499 -0.438975 0
vn -0.898499 -0.438975 0
vn -0.898499 -0.438975 0
vn -0.00215736 -0.999998 0
vn -0.00215736 -0.999998 0
vn -0.00215736 -0.999998 0
vn -0.00215736 -0.999998 0
vn -0.00215736 -0.999998 0
vn 0.895809 -0.44444 0
vn 0.895809 -0.44444 -2.05266e-17
vn 0.895809 -0.44444 -2.05266e-17
vn 0.895809 -0.44444 2.05266e-17
vn 0.895809 -0.44444 2.05266e-17
vn 0 -1 0
vn 0 -1 0
vn 0 -1 0
vn 0 -1 0
vn 0 -1 0
vn -0.90734 -0.420398 0
vn -0.90734 -0.420398 5.48628e-18
vn -0.90734 -0.420398 5.48628e-18
vn -0.90734 -0.420398 -5.48628e-18
vn -0.90734 -0.420398 -5.48628e-18
vn -0.00219035 -0.999998 0
vn -0.00219035 -0.999998 2.88141e-18
vn -0.00219035 -0.999998 2.88141e-18
vn -0.00219035 -0.999998 -2.88141e-18
vn -0.00219035 -0.999998 -2.88141e-18
vn 0.90532 -0.424731 0
vn 0.90532 -0.424731 -1.09208e-18
vn 0.90532 -0.424731 -1.09208e-18
vn 0.90532 -0.424731 1.09208e-18
vn 0.90532 -0.424731 1.09208e-18
vn 0 -1 0
vn 0 -1 0
vn 0 -1 0
vn 0 -1 0
vn 0 -1 0
vn -0.89866 -0.438647 0
vn -0.89866 -0.438647 1.08645e-17
vn -0.89866 -0.438647 1.08645e-17
vn -0.89866 -0.438647 -1.08645e-17
vn -0.89866 -0.438647 -1.08645e-17
vn -0.00216762 -0.999998 0
vn -0.00216762 -0.999998 4.8351e-20
vn -0.00216762 -0.999998 4.8351e-20
vn -0.00216762 -0.999998 -4.8351e-20
vn -0.00216762 -0.999998 -4.8351e-20
vn 0.897502 -0.441011 0
vn 0.897502 -0.441011 -2.03925e-17
vn 0.897502 -0.441011 -2.03925e-17
vn 0.897502 -0.441011 2.03925e-17
vn 0.897502 -0.441011 2.03925e-17
vn 0 -1 0
vn 0 -1 0
vn 0 -1 0
vn 0 -1 0
vn 0 -1 0
vn -0.902242 -0.431229 0
vn -0.902242 -0.431229 4.11037e-17
vn -0.902242 -0.431229 4.11037e-17
vn -0.902242 -0.431229 -4.11037e-17
vn -0.902242 -0.431229 -4.11037e-17
vn -0.00217696 -0.999998 0
vn -0.00217696 -0.999998 2.87303e-18
vn -0.00217696 -0.999998 2.87303e-18
vn -0.00217696 -0.999998 -2.87303e-18
vn -0.00217696 -0.999998 -2.87303e-18
vn 0.893214 -0.449632 0
vn 0.893214 -0.449632 0
vn 0.893214 -0.449632 0
vn 0.893214 -0.449632 0
vn 0.893214 -0.449632 0
vn 0 -1 0
vn 0 -1 0
vn 0 -1 0
vn 0 -1 0
vn 0 -1 0
vn -0.892646 -0.450757 0
vn -0.892646 -0.450757 0
vn -0.892646 -0.450757 0
vn -0.892646 -0.450757 0
vn -0.892646 -0.450757 0
vn -0.00209724 -0.999998 0
vn -0.00209724 -0.999998 -2.97424e-18
vn -0.00209724 -0.999998 -2.97424e-18
vn -0.00209724 -0.999998 2.97424e-18
vn -0.00209724 -0.999998 2.97424e-18


# Faces: 
usemtl material0
f 84/30/1 85/31/1 81/27/1
f 83/29/1 84/30/1 82/28/1
f 84/30/1 81/27/1 82/28/1
f 85/31/1 86/32/1 81/27/1
f 92/38/1 93/39/1 74/20/1
f 77/23/1 89/35/1 90/36/1
f 78/24/1 89/35/1 77/23/1
f 93/39/1 73/19/1 74/20/1
f 91/37/1 92/38/1 74/20/1
f 89/35/1 78/24/1 88/34/1
f 78/24/1 87/33/1 88/34/1
f 76/22/1 90/36/1 91/37/1
f 76/22/1 91/37/1 75/21/1
f 80/26/1 86/32/1 87/33/1
f 86/32/1 80/26/1 81/27/1
f 87/33/1 79/25/1 80/26/1
f 87/33/1 78/24/1 79/25/1
f 76/22/1 77/23/1 90/36/1
f 93/39/1 94/40/1 73/19/1
f 96/42/1 70/16/1 95/41/1
f 73/19/1 94/40/1 72/18/1
f 95/41/1 71/17/1 72/18/1
f 71/17/1 95/41/1 70/16/1
f 94/40/1 95/41/1 72/18/1
f 75/21/1 91/37/1 74/20/1
f 96/42/1 97/43/1 70/16/1
f 100/46/1 101/47/1 66/12/1
f 69/15/1 97/43/1 98/44/1
f 99/45/1 100/46/1 66/12/1
f 65/11/1 66/12/1 101/47/1
f 65/11/1 101/47/1 102/48/1
f 97/43/1 69/15/1 70/16/1
f 108/54/1 55/1/1 58/4/1
f 61/7/1 105/51/1 106/52/1
f 104/50/1 105/51/1 62/8/1
f 107/53/1 108/54/1 58/4/1
f 62/8/1 105/51/1 61/7/1
f 55/1/1 57/3/1 58/4/1
f 103/49/1 104/50/1 62/8/1
f 68/14/1 98/44/1 99/45/1
f 99/45/1 66/12/1 67/13/1
f 68/14/1 99/45/1 67/13/1
f 102/48/1 103/49/1 64/10/1
f 64/10/1 103/49/1 63/9/1
f 102/48/1 64/10/1 65/11/1
f 98/44/1 68/14/1 69/15/1
f 63/9/1 103/49/1 62/8/1
f 56/2/1 57/3/1 55/1/1
f 107/53/1 59/5/1 60/6/1
f 107/53/1 58/4/1 59/5/1
f 106/52/1 107/53/1 60/6/1
f 106/52/1 60/6/1 61/7/1
f 31/85/2 30/84/2 27/81/2
f 30/84/2 29/83/2 28/82/2
f 27/81/2 30/84/2 28/82/2
f 32/86/2 31/85/2 27/81/2
f 39/93/2 38/92/2 20/74/2
f 35/89/2 23/77/2 36/90/2
f 35/89/2 24/78/2 23/77/2
f 19/73/2 39/93/2 20/74/2
f 38/92/2 37/91/2 20/74/2
f 24/78/2 35/89/2 34/88/2
f 33/87/2 24/78/2 34/88/2
f 36/90/2 22/76/2 37/91/2
f 37/91/2 22/76/2 21/75/2
f 32/86/2 26/80/2 33/87/2
f 26/80/2 32/86/2 27/81/2
f 25/79/2 33/87/2 26/80/2
f 24/78/2 33/87/2 25/79/2
f 23/77/2 22/76/2 36/90/2
f 40/94/2 39/93/2 19/73/2
f 16/70/2 42/96/2 41/95/2
f 40/94/2 19/73/2 18/72/2
f 17/71/2 41/95/2 18/72/2
f 41/95/2 17/71/2 16/70/2
f 41/95/2 40/94/2 18/72/2
f 37/91/2 21/75/2 20/74/2
f 43/97/2 42/96/2 16/70/2
f 47/101/2 46/100/2 12/66/2
f 43/97/2 15/69/2 44/98/2
f 46/100/2 45/99/2 12/66/2
f 12/66/2 11/65/2 47/101/2
f 47/101/2 11/65/2 48/102/2
f 15/69/2 43/97/2 16/70/2
f 1/55/2 54/108/2 4/58/2
f 51/105/2 7/61/2 52/106/2
f 51/105/2 50/104/2 8/62/2
f 54/108/2 53/107/2 4/58/2
f 51/105/2 8/62/2 7/61/2
f 3/57/2 1/55/2 4/58/2
f 50/104/2 49/103/2 8/62/2
f 44/98/2 14/68/2 45/99/2
f 12/66/2 45/99/2 13/67/2
f 45/99/2 14/68/2 13/67/2
f 49/103/2 48/102/2 10/64/2
f 49/103/2 10/64/2 9/63/2
f 10/64/2 48/102/2 11/65/2
f 14/68/2 44/98/2 15/69/2
f 49/103/2 9/63/2 8/62/2
f 3/57/2 2/56/2 1/55/2
f 5/59/2 53/107/2 6/60/2
f 4/58/2 53/107/2 5/59/2
f 53/107/2 52/106/2 6/60/2
f 6/60/2 52/106/2 7/61/2
f 109/321/3 1/109/4 2/110/5
f 109/321/3 2/110/5 56/216/6
f 109/321/3 56/216/6 55/215/7
f 109/321/3 55/215/7 1/109/4
f 110/322/8 2/111/9 3/112/10
f 110/322/8 3/112/10 57/218/11
f 110/322/8 57/218/11 56/217/12
f 110/322/8 56/217/12 2/111/9
f 111/323/13 3/113/14 4/114/15
f 111/323/13 4/114/15 58/220/16
f 111/323/13 58/220/16 57/219/17
f 111/323/13 57/219/17 3/113/14
f 112/324/18 4/115/19 5/116/20
f 112/324/18 5/116/20 59/222/21
f 112/324/18 59/222/21 58/221/22
f 112/324/18 58/221/22 4/115/19
f 113/325/23 5/117/24 6/118/25
f 113/325/23 6/118/25 60/224/26
f 113/325/23 60/224/26 59/223/27
f 113/325/23 59/223/27 5/117/24
f 114/326/28 6/119/29 7/120/30
f 114/326/28 7/120/30 61/226/31
f 114/326/28 61/226/31 60/225/32
f 114/326/28 60/225/32 6/119/29
f 115/327/33 7/121/34 8/122/35
f 115/327/33 8/122/35 62/228/36
f 115/327/33 62/228/36 61/227/37
f 115/327/33 61/227/37 7/121/34
f 116/328/38 8/123/39 9/124/40
f 116/328/38 9/124/40 63/230/41
f 116/328/38 63/230/41 62/229/42
f 116/328/38 62/229/42 8/123/39
f 117/329/43 9/125/44 10/126/45
f 117/329/43 10/126/45 64/232/46
f 117/329/43 64/232/46 63/231/47
f 117/329/43 63/231/47 9/125/44
f 118/330/48 10/127/49 11/128/50
f 118/330/48 11/128/50 65/234/51
f 118/330/48 65/234/51 64/233/52
f 118/330/48 64/233/52 10/127/49
f 119/331/53 11/129/54 12/130/55
f 119/331/53 12/130/55 66/236/56
f 119/331/53 66/236/56 65/235/57
f 119/331/53 65/235/57 11/129/54
f 120/332/58 12/131/59 13/132/60
f 120/332/58 13/132/60 67/238/61
f 120/332/58 67/238/61 66/237/62
f 120/332/58 66/237/62 12/131/59
f 121/333/63 13/133/64 14/134/65
f 121/333/63 14/134/65 68/240/66
f 121/333/63 68/240/66 67/239/67
f 121/333/63 67/239/67 13/133/64
f 122/334/68 14/135/69 15/136/70
f 122/334/68 15/136/70 69/242/71
f 122/334/68 69/242/71 68/241/72
f 122/334/68 68/241/72 14/135/69
f 123/335/73 15/137/74 16/138/75
f 123/335/73 16/138/75 70/244/76
f 123/335/73 70/244/76 69/243/77
f 123/335/73 69/243/77 15/137/74
f 124/336/78 16/139/79 17/140/80
f 124/336/78 17/140/80 71/246/81
f 124/336/78 71/246/81 70/245/82
f 124/336/78 70/245/82 16/139/79
f 125/337/83 17/141/84 18/142/85
f 125/337/83 18/142/85 72/248/86
f 125/337/83 72/248/86 71/247/87
f 125/337/83 71/247/87 17/141/84
f 126/338/88 18/143/89 19/144/90
f 126/338/88 19/144/90 73/250/91
f 126/338/88 73/250/91 72/249/92
f 126/338/88 72/249/92 18/143/89
f 127/339/93 19/145/94 20/146/95
f 127/339/93 20/146/95 74/252/96
f 127/339/93 74/252/96 73/251/97
f 127/339/93 73/251/97 19/145/94
f 128/340/98 20/147/99 21/148/100
f 128/340/98 21/148/100 75/254/101
f 128/340/98 75/254/101 74/253/102
f 128/340/98 74/253/102 20/147/99
f 129/341/103 21/149/104 22/150/105
f 129/341/103 22/150/105 76/256/106
f 129/341/103 76/256/106 75/255/107
f 129/341/103 75/255/107 21/149/104
f 130/342/108 22/151/109 23/152/110
f 130/342/108 23/152/110 77/258/111
f 130/342/108 77/258/111 76/257/112
f 130/342/108 76/257/112 22/151/109
f 131/343/113 23/153/114 24/154/115
f 131/343/113 24/154/115 78/260/116
f 131/343/113 78/260/116 77/259/117
f 131/343/113 77/259/117 23/153/114
f 132/344/118 24/155/119 25/156/120
f 132/344/118 25/156/120 79/262/121
f 132/344/118 79/262/121 78/261/122
f 132/344/118 78/261/122 24/155/119
f 133/345/123 25/157/124 26/158/125
f 133/345/123 26/158/125 80/264/126
f 133/345/123 80/264/126 79/263/127
f 133/345/123 79/263/127 25/157/124
f 134/346/128 26/159/129 27/160/130
f 134/346/128 27/160/130 81/266/131
f 134/346/128 81/266/131 80/265/132
f 134/346/128 80/265/132 26/159/129
f 135/347/133 27/161/134 28/162/135
f 135/347/133 28/162/135 82/268/136
f 135/347/133 82/268/136 81/267/137
f 135/347/133 81/267/137 27/161/134
f 136/348/138 28/162/135 29/163/139
f 136/348/138 29/163/139 83/269/140
f 136/348/138 83/269/140 82/268/136
f 136/348/138 82/268/136 28/162/135
f 137/349/141 29/164/142 30/165/143
f 137/349/141 30/165/143 84/271/144
f 137/349/141 84/271/144 83/270/145
f 137/349/141 83/270/145 29/164/142
f 138/350/146 30/165/143 31/166/147
f 138/350/146 31/166/147 85/272/148
f 138/350/146 85/272/148 84/271/144
f 138/350/146 84/271/144 30/165/143
f 139/351/149 31/167/150 32/168/151
f 139/351/149 32/168/151 86/274/152
f 139/351/149 86/274/152 85/273/153
f 139/351/149 85/273/153 31/167/150
f 140/352/154 32/169/155 33/170/156
f 140/352/154 33/170/156 87/276/157
f 140/352/154 87/276/157 86/275/158
f 140/352/154 86/275/158 32/169/155
f 141/353/159 33/171/160 34/172/161
f 141/353/159 34/172/161 88/278/162
f 141/353/159 88/278/162 87/277/163
f 141/353/159 87/277/163 33/171/160
f 142/354/164 34/173/165 35/174/166
f 142/354/164 35/174/166 89/280/167
f 142/354/164 89/280/167 88/279/168
f 142/354/164 88/279/168 34/173/165
f 143/355/169 35/175/170 36/176/171
f 143/355/169 36/176/171 90/282/172
f 143/355/169 90/282/172 89/281/173
f 143/355/169 89/281/173 35/175/170
f 144/356/174 36/177/175 37/178/176
f 144/356/174 37/178/176 91/284/177
f 144/356/174 91/284/177 90/283/178
f 144/356/174 90/283/178 36/177/175
f 145/357/179 37/179/180 38/180/181
f 145/357/179 38/180/181 92/286/182
f 145/357/179 92/286/182 91/285/183
f 145/357/179 91/285/183 37/179/180
f 146/358/184 38/181/185 39/182/186
f 146/358/184 39/182/186 93/288/187
f 146/358/184 93/288/187 92/287/188
f 146/358/184 92/287/188 38/181/185
f 147/359/189 39/183/190 40/184/191
f 147/359/189 40/184/191 94/290/192
f 147/359/189 94/290/192 93/289/193
f 147/359/189 93/289/193 39/183/190
f 148/360/194 40/185/195 41/186/196
f 148/360/194 41/186/196 95/292/197
f 148/360/194 95/292/197 94/291/198
f 148/360/194 94/291/198 40/185/195
f 149/361/199 41/187/200 42/188/201
f 149/361/199 42/188/201 96/294/202
f 149/361/199 96/294/202 95/293/203
f 149/361/199 95/293/203 41/187/200
f 150/362/204 42/189/205 43/190/206
f 150/362/204 43/190/206 97/296/207
f 150/362/204 97/296/207 96/295/208
f 150/362/204 96/295/208 42/189/205
f 151/363/209 43/191/210 44/192/211
f 151/363/209 44/192/211 98/298/212
f 151/363/209 98/298/212 97/297/213
f 151/363/209 97/297/213 43/191/210
f 152/364/214 44/193/215 45/194/216
f 152/364/214 45/194/216 99/300/217
f 152/364/214 99/300/217 98/299/218
f 152/364/214 98/299/218 44/193/215
f 153/365/219 45/195/220 46/196/221
f 153/365/219 46/196/221 100/302/222
f 153/365/219 100/302/222 99/301/223
f 153/365/219 99/301/223 45/195/220
f 154/366/224 46/197/225 47/198/226
f 154/366/224 47/198/226 101/304/227
f 154/366/224 101/304/227 100/303/228
f 154/366/224 100/303/228 46/197/225
f 155/367/229 47/199/230 48/200/231
f 155/367/229 48/200/231 102/306/232
f 155/367/229 102/306/232 101/305/233
f 155/367/229 101/305/233 47/199/230
f 156/368/234 48/201/235 49/202/236
f 156/368/234 49/202/236 103/308/237
f 156/368/234 103/308/237 102/307/238
f 156/368/234 102/307/238 48/201/235
f 157/369/239 49/203/240 50/204/241
f 157/369/239 50/204/241 104/310/242
f 157/369/239 104/310/242 103/309/243
f 157/369/239 103/309/243 49/203/240
f 158/370/244 50/205/245 51/206/246
f 158/370/244 51/206/246 105/312/247
f 158/370/244 105/312/247 104/311/248
f 158/370/244 104/311/248 50/205/245
f 159/371/249 51/207/250 52/208/251
f 159/371/249 52/208/251 106/314/252
f 159/371/249 106/314/252 105/313/253
f 159/371/249 105/313/253 51/207/250
f 160/372/254 52/209/255 53/210/256
f 160/372/254 53/210/256 107/316/257
f 160/372/254 107/316/257 106/315/258
f 160/372/254 106/315/258 52/209/255
f 161/373/259 53/211/260 54/212/261
f 161/373/259 54/212/261 108/318/262
f 161/373/259 108/318/262 107/317/263
f 161/373/259 107/317/263 53/211/260
f 162/374/264 54/213/265 1/214/266
f 162/374/264 1/214/266 55/320/267
f 162/374/264 55/320/267 108/319/268
f 162/374/264 108/319/268 54/213/265
