mtllib New-PR-02.mtl
# Vertex Positions: 
g groupNumber_0
v 15.9326 -0.646845 -16.9263
v 16.0806 -0.312322 -16.9263
v 16.0483 -0.298051 -16.9263
v 15.9096 -0.611545 -16.9263
v 14.8451 -0.611597 -16.9263
v 14.0342 0.638968 -16.9263
v 13.3372 0.647017 -16.9263
v 13.308 0.60484 -16.9263
v 12.3439 0.60484 -16.9263
v 12.3071 0.647017 -16.9263
v 11.4856 0.647017 -16.9263
v 10.7753 -0.611597 -16.9263
v 9.71758 -0.611597 -16.9263
v 8.90672 0.638968 -16.9263
v 8.20989 0.647017 -16.9263
v 8.17945 0.60484 -16.9263
v 7.20911 0.60484 -16.9263
v 7.18102 0.647017 -16.9263
v 6.35812 0.647017 -16.9263
v 5.64781 -0.611597 -16.9263
v 4.59098 -0.611597 -16.9263
v 3.78012 0.638968 -16.9263
v 3.08284 0.647017 -16.9263
v 3.05495 0.60484 -16.9263
v 2.08499 0.60484 -16.9263
v 2.0539 0.647017 -16.9263
v 1.23152 0.647017 -16.9263
v 0.521209 -0.611597 -16.9263
v -0.532413 -0.611597 -16.9263
v -1.34328 0.638968 -16.9263
v -2.03963 0.647017 -16.9263
v -2.07286 0.60484 -16.9263
v -3.03933 0.60484 -16.9263
v -3.06932 0.647017 -16.9263
v -3.89188 0.647017 -16.9263
v -4.60219 -0.611597 -16.9263
v -5.6566 -0.611597 -16.9263
v -6.46743 0.638968 -16.9263
v -7.16464 0.647017 -16.9263
v -7.19308 0.60484 -16.9263
v -8.15711 0.60484 -16.9263
v -8.19465 0.647017 -16.9263
v -9.01603 0.647017 -16.9263
v -9.72634 -0.611597 -16.9263
v -10.7868 -0.611597 -16.9263
v -11.5977 0.638968 -16.9263
v -12.2936 0.647017 -16.9263
v -12.3299 0.60484 -16.9263
v -13.2884 0.60484 -16.9263
v -13.3247 0.647017 -16.9263
v -14.1463 0.647017 -16.9263
v -14.8566 -0.611597 -16.9263
v -15.9097 -0.611717 -16.9263
v -16.0483 -0.29824 -16.9263
v -16.0806 -0.312512 -16.9263
v -15.9326 -0.647017 -16.9263
v -14.8359 -0.646897 -16.9263
v -14.1256 0.611717 -16.9263
v -13.3409 0.611717 -16.9263
v -13.3046 0.56954 -16.9263
v -12.3137 0.56954 -16.9263
v -12.2774 0.611717 -16.9263
v -11.6221 0.611717 -16.9263
v -10.8112 -0.638847 -16.9263
v -9.70573 -0.646897 -16.9263
v -8.99542 0.611717 -16.9263
v -8.21051 0.611717 -16.9263
v -8.17297 0.56954 -16.9263
v -7.17429 0.56954 -16.9263
v -7.14589 0.611717 -16.9263
v -6.49184 0.611717 -16.9263
v -5.68101 -0.638847 -16.9263
v -4.58157 -0.646897 -16.9263
v -3.87126 0.611717 -16.9263
v -3.08753 0.611717 -16.9263
v -3.05754 0.56954 -16.9263
v -2.05576 0.56954 -16.9263
v -2.02253 0.611717 -16.9263
v -1.36769 0.611717 -16.9263
v -0.55682 -0.638847 -16.9263
v 0.541824 -0.646897 -16.9263
v 1.25213 0.611717 -16.9263
v 2.03604 0.611717 -16.9263
v 2.06714 0.56954 -16.9263
v 3.07391 0.56954 -16.9263
v 3.1018 0.611717 -16.9263
v 3.75571 0.611717 -16.9263
v 4.56658 -0.638847 -16.9263
v 5.66843 -0.646897 -16.9263
v 6.37873 0.611717 -16.9263
v 7.16213 0.611717 -16.9263
v 7.19022 0.56954 -16.9263
v 8.19751 0.56954 -16.9263
v 8.22795 0.611717 -16.9263
v 8.88231 0.611717 -16.9263
v 9.69318 -0.638847 -16.9263
v 10.7959 -0.646897 -16.9263
v 11.5062 0.611717 -16.9263
v 12.291 0.611717 -16.9263
v 12.3278 0.56954 -16.9263
v 13.3265 0.56954 -16.9263
v 13.3557 0.611717 -16.9263
v 14.0098 0.611717 -16.9263
v 14.8207 -0.638847 -16.9263
v 15.9326 -0.646845 16.9263
v 16.0806 -0.312322 16.9263
v 16.0483 -0.298051 16.9263
v 15.9096 -0.611545 16.9263
v 14.8451 -0.611597 16.9263
v 14.0342 0.638968 16.9263
v 13.3372 0.647017 16.9263
v 13.308 0.60484 16.9263
v 12.3439 0.60484 16.9263
v 12.3071 0.647017 16.9263
v 11.4856 0.647017 16.9263
v 10.7753 -0.611597 16.9263
v 9.71758 -0.611597 16.9263
v 8.90672 0.638968 16.9263
v 8.20989 0.647017 16.9263
v 8.17945 0.60484 16.9263
v 7.20911 0.60484 16.9263
v 7.18102 0.647017 16.9263
v 6.35812 0.647017 16.9263
v 5.64781 -0.611597 16.9263
v 4.59098 -0.611597 16.9263
v 3.78012 0.638968 16.9263
v 3.08284 0.647017 16.9263
v 3.05495 0.60484 16.9263
v 2.08499 0.60484 16.9263
v 2.0539 0.647017 16.9263
v 1.23152 0.647017 16.9263
v 0.521209 -0.611597 16.9263
v -0.532413 -0.611597 16.9263
v -1.34328 0.638968 16.9263
v -2.03963 0.647017 16.9263
v -2.07286 0.60484 16.9263
v -3.03933 0.60484 16.9263
v -3.06932 0.647017 16.9263
v -3.89188 0.647017 16.9263
v -4.60219 -0.611597 16.9263
v -5.6566 -0.611597 16.9263
v -6.46743 0.638968 16.9263
v -7.16464 0.647017 16.9263
v -7.19308 0.60484 16.9263
v -8.15711 0.60484 16.9263
v -8.19465 0.647017 16.9263
v -9.01603 0.647017 16.9263
v -9.72634 -0.611597 16.9263
v -10.7868 -0.611597 16.9263
v -11.5977 0.638968 16.9263
v -12.2936 0.647017 16.9263
v -12.3299 0.60484 16.9263
v -13.2884 0.60484 16.9263
v -13.3247 0.647017 16.9263
v -14.1463 0.647017 16.9263
v -14.8566 -0.611597 16.9263
v -15.9097 -0.611717 16.9263
v -16.0483 -0.29824 16.9263
v -16.0806 -0.312512 16.9263
v -15.9326 -0.647017 16.9263
v -14.8359 -0.646897 16.9263
v -14.1256 0.611717 16.9263
v -13.3409 0.611717 16.9263
v -13.3046 0.56954 16.9263
v -12.3137 0.56954 16.9263
v -12.2774 0.611717 16.9263
v -11.6221 0.611717 16.9263
v -10.8112 -0.638847 16.9263
v -9.70573 -0.646897 16.9263
v -8.99542 0.611717 16.9263
v -8.21051 0.611717 16.9263
v -8.17297 0.56954 16.9263
v -7.17429 0.56954 16.9263
v -7.14589 0.611717 16.9263
v -6.49184 0.611717 16.9263
v -5.68101 -0.638847 16.9263
v -4.58157 -0.646897 16.9263
v -3.87126 0.611717 16.9263
v -3.08753 0.611717 16.9263
v -3.05754 0.56954 16.9263
v -2.05576 0.56954 16.9263
v -2.02253 0.611717 16.9263
v -1.36769 0.611717 16.9263
v -0.55682 -0.638847 16.9263
v 0.541824 -0.646897 16.9263
v 1.25213 0.611717 16.9263
v 2.03604 0.611717 16.9263
v 2.06714 0.56954 16.9263
v 3.07391 0.56954 16.9263
v 3.1018 0.611717 16.9263
v 3.75571 0.611717 16.9263
v 4.56658 -0.638847 16.9263
v 5.66843 -0.646897 16.9263
v 6.37873 0.611717 16.9263
v 7.16213 0.611717 16.9263
v 7.19022 0.56954 16.9263
v 8.19751 0.56954 16.9263
v 8.22795 0.611717 16.9263
v 8.88231 0.611717 16.9263
v 9.69318 -0.638847 16.9263
v 10.7959 -0.646897 16.9263
v 11.5062 0.611717 16.9263
v 12.291 0.611717 16.9263
v 12.3278 0.56954 16.9263
v 13.3265 0.56954 16.9263
v 13.3557 0.611717 16.9263
v 14.0098 0.611717 16.9263
v 14.8207 -0.638847 16.9263
v 16.0066 -0.479584 0
v 16.0644 -0.305186 0
v 15.979 -0.454798 0
v 15.3774 -0.611571 0
v 14.4397 0.0136856 0
v 13.6857 0.642993 0
v 13.3226 0.625929 0
v 12.8259 0.60484 0
v 12.3255 0.625929 0
v 11.8964 0.647017 0
v 11.1305 0.0177103 0
v 10.2464 -0.611597 0
v 9.31215 0.0136856 0
v 8.5583 0.642993 0
v 8.19467 0.625929 0
v 7.69428 0.60484 0
v 7.19506 0.625929 0
v 6.76957 0.647017 0
v 6.00297 0.0177103 0
v 5.1194 -0.611597 0
v 4.18555 0.0136856 0
v 3.43148 0.642993 0
v 3.06889 0.625929 0
v 2.56997 0.60484 0
v 2.06945 0.625929 0
v 1.64271 0.647017 0
v 0.876364 0.0177103 0
v -0.00560181 -0.611597 0
v -0.937846 0.0136856 0
v -1.69145 0.642993 0
v -2.05624 0.625929 0
v -2.5561 0.60484 0
v -3.05433 0.625929 0
v -3.4806 0.647017 0
v -4.24703 0.0177103 0
v -5.12939 -0.611597 0
v -6.06202 0.0136856 0
v -6.81604 0.642993 0
v -7.17886 0.625929 0
v -7.6751 0.60484 0
v -8.17588 0.625929 0
v -8.60534 0.647017 0
v -9.37119 0.0177103 0
v -10.2566 -0.611597 0
v -11.1922 0.0136856 0
v -11.9456 0.642993 0
v -12.3117 0.625929 0
v -12.8091 0.60484 0
v -13.3066 0.625929 0
v -13.7355 0.647017 0
v -14.5014 0.0177103 0
v -15.3831 -0.611657 0
v -15.979 -0.454979 0
v -16.0644 -0.305376 0
v -16.0066 -0.479765 0
v -15.3843 -0.646957 0
v -14.4808 -0.0175897 0
v -13.7333 0.611717 0
v -13.3228 0.590629 0
v -12.8091 0.56954 0
v -12.2955 0.590629 0
v -11.9497 0.611717 0
v -11.2166 -0.013565 0
v -10.2585 -0.642872 0
v -9.35057 -0.0175897 0
v -8.60296 0.611717 0
v -8.19174 0.590629 0
v -7.67363 0.56954 0
v -7.16009 0.590629 0
v -6.81886 0.611717 0
v -6.08642 -0.013565 0
v -5.13129 -0.642872 0
v -4.22642 -0.0175897 0
v -3.47939 0.611717 0
v -3.07253 0.590629 0
v -2.55665 0.56954 0
v -2.03914 0.590629 0
v -1.69511 0.611717 0
v -0.962253 -0.013565 0
v -0.0074978 -0.642872 0
v 0.896979 -0.0175897 0
v 1.64409 0.611717 0
v 2.05159 0.590629 0
v 2.57052 0.56954 0
v 3.08785 0.590629 0
v 3.42875 0.611717 0
v 4.16114 -0.013565 0
v 5.1175 -0.642872 0
v 6.02358 -0.0175897 0
v 6.77043 0.611717 0
v 7.17617 0.590629 0
v 7.69387 0.56954 0
v 8.21273 0.590629 0
v 8.55513 0.611717 0
v 9.28774 -0.013565 0
v 10.2445 -0.642872 0
v 11.1511 -0.0175897 0
v 11.8986 0.611717 0
v 12.3094 0.590629 0
v 12.8271 0.56954 0
v 13.3411 0.590629 0
v 13.6827 0.611717 0
v 14.4153 -0.013565 0
v 15.3766 -0.642846 0


# Vertex Texture Coordinates :
vt 0.458461 2.46839e-06
vt 0.46058 0.00479317
vt 0.460118 0.00499756
vt 0.458132 0.000508
vt 0.442887 0.00050726
vt 0.431275 0.0184166
vt 0.421292 0.0185319
vt 0.420874 0.0179279
vt 0.407067 0.0179279
vt 0.40654 0.0185319
vt 0.394776 0.0185319
vt 0.384604 0.00050726
vt 0.369456 0.00050726
vt 0.357843 0.0184166
vt 0.347864 0.0185319
vt 0.347428 0.0179279
vt 0.333532 0.0179279
vt 0.33313 0.0185319
vt 0.321345 0.0185319
vt 0.311173 0.00050726
vt 0.296038 0.00050726
vt 0.284425 0.0184166
vt 0.27444 0.0185319
vt 0.27404 0.0179279
vt 0.260149 0.0179279
vt 0.259704 0.0185319
vt 0.247927 0.0185319
vt 0.237754 0.00050726
vt 0.222666 0.00050726
vt 0.211053 0.0184166
vt 0.201081 0.0185319
vt 0.200605 0.0179279
vt 0.186764 0.0179279
vt 0.186334 0.0185319
vt 0.174555 0.0185319
vt 0.164382 0.00050726
vt 0.149282 0.00050726
vt 0.13767 0.0184166
vt 0.127685 0.0185319
vt 0.127278 0.0179279
vt 0.113472 0.0179279
vt 0.112935 0.0185319
vt 0.101172 0.0185319
vt 0.0909992 0.00050726
vt 0.075812 0.00050726
vt 0.0642001 0.0184166
vt 0.0542336 0.0185319
vt 0.0537142 0.0179279
vt 0.0399864 0.0179279
vt 0.039467 0.0185319
vt 0.0277016 0.0185319
vt 0.0175292 0.00050726
vt 0.00244768 0.000505532
vt 0.000462088 0.00499484
vt 0 0.00479046
vt 0.00211889 0
vt 0.0178244 1.72781e-06
vt 0.0279968 0.0180264
vt 0.039235 0.0180264
vt 0.0397544 0.0174223
vt 0.0539463 0.0174223
vt 0.0544656 0.0180264
vt 0.0638505 0.0180264
vt 0.0754625 0.000117003
vt 0.0912944 1.72781e-06
vt 0.101467 0.0180264
vt 0.112707 0.0180264
vt 0.113245 0.0174223
vt 0.127547 0.0174223
vt 0.127954 0.0180264
vt 0.137321 0.0180264
vt 0.148932 0.000117003
vt 0.164677 1.72781e-06
vt 0.17485 0.0180264
vt 0.186074 0.0180264
vt 0.186503 0.0174223
vt 0.20085 0.0174223
vt 0.201326 0.0180264
vt 0.210704 0.0180264
vt 0.222316 0.000117003
vt 0.23805 1.72781e-06
vt 0.248222 0.0180264
vt 0.259448 0.0180264
vt 0.259894 0.0174223
vt 0.274312 0.0174223
vt 0.274711 0.0180264
vt 0.284076 0.0180264
vt 0.295688 0.000117003
vt 0.311468 1.72781e-06
vt 0.32164 0.0180264
vt 0.332859 0.0180264
vt 0.333261 0.0174223
vt 0.347687 0.0174223
vt 0.348123 0.0180264
vt 0.357494 0.0180264
vt 0.369106 0.000117003
vt 0.384899 1.72781e-06
vt 0.395071 0.0180264
vt 0.40631 0.0180264
vt 0.406837 0.0174223
vt 0.421139 0.0174223
vt 0.421557 0.0180264
vt 0.430925 0.0180264
vt 0.442537 0.000117003
vt 0.468695 2.46839e-06
vt 0.466576 0.00479317
vt 0.467038 0.00499756
vt 0.469024 0.000508
vt 0.48427 0.00050726
vt 0.495881 0.0184166
vt 0.505864 0.0185319
vt 0.506282 0.0179279
vt 0.520089 0.0179279
vt 0.520616 0.0185319
vt 0.53238 0.0185319
vt 0.542553 0.00050726
vt 0.5577 0.00050726
vt 0.569313 0.0184166
vt 0.579292 0.0185319
vt 0.579728 0.0179279
vt 0.593624 0.0179279
vt 0.594027 0.0185319
vt 0.605811 0.0185319
vt 0.615984 0.00050726
vt 0.631119 0.00050726
vt 0.642731 0.0184166
vt 0.652717 0.0185319
vt 0.653116 0.0179279
vt 0.667007 0.0179279
vt 0.667452 0.0185319
vt 0.67923 0.0185319
vt 0.689402 0.00050726
vt 0.704491 0.00050726
vt 0.716103 0.0184166
vt 0.726076 0.0185319
vt 0.726552 0.0179279
vt 0.740392 0.0179279
vt 0.740822 0.0185319
vt 0.752602 0.0185319
vt 0.762774 0.00050726
vt 0.777874 0.00050726
vt 0.789486 0.0184166
vt 0.799471 0.0185319
vt 0.799878 0.0179279
vt 0.813684 0.0179279
vt 0.814222 0.0185319
vt 0.825985 0.0185319
vt 0.836157 0.00050726
vt 0.851344 0.00050726
vt 0.862956 0.0184166
vt 0.872923 0.0185319
vt 0.873442 0.0179279
vt 0.88717 0.0179279
vt 0.887689 0.0185319
vt 0.899455 0.0185319
vt 0.909627 0.00050726
vt 0.924709 0.000505532
vt 0.926694 0.00499484
vt 0.927156 0.00479046
vt 0.925037 0
vt 0.909332 1.72781e-06
vt 0.89916 0.0180264
vt 0.887921 0.0180264
vt 0.887402 0.0174223
vt 0.87321 0.0174223
vt 0.872691 0.0180264
vt 0.863306 0.0180264
vt 0.851694 0.000117003
vt 0.835862 1.72781e-06
vt 0.82569 0.0180264
vt 0.814449 0.0180264
vt 0.813911 0.0174223
vt 0.799609 0.0174223
vt 0.799203 0.0180264
vt 0.789836 0.0180264
vt 0.778224 0.000117003
vt 0.762479 1.72781e-06
vt 0.752307 0.0180264
vt 0.741083 0.0180264
vt 0.740653 0.0174223
vt 0.726307 0.0174223
vt 0.725831 0.0180264
vt 0.716453 0.0180264
vt 0.70484 0.000117003
vt 0.689107 1.72781e-06
vt 0.678934 0.0180264
vt 0.667708 0.0180264
vt 0.667263 0.0174223
vt 0.652845 0.0174223
vt 0.652445 0.0180264
vt 0.643081 0.0180264
vt 0.631468 0.000117003
vt 0.615689 1.72781e-06
vt 0.605516 0.0180264
vt 0.594297 0.0180264
vt 0.593895 0.0174223
vt 0.579469 0.0174223
vt 0.579034 0.0180264
vt 0.569662 0.0180264
vt 0.55805 0.000117003
vt 0.542258 1.72781e-06
vt 0.532085 0.0180264
vt 0.520846 0.0180264
vt 0.520319 0.0174223
vt 0.506018 0.0174223
vt 0.5056 0.0180264
vt 0.496231 0.0180264
vt 0.484619 0.000117003
vt 5.09876e-06 0.0244752
vt 0.00524367 0.0244752
vt 4.54501e-06 0.515197
vt 0.000509816 0.515197
vt 0.0112364 0.0244752
vt 0.0161457 0.0244752
vt 0.0221062 0.0244752
vt 0.0373516 0.0244752
vt 0.0433205 0.0244752
vt 0.0646649 0.0244752
vt 0.0221332 0.515197
vt 0.0321167 0.515197
vt 0.0112524 0.515197
vt 0.0119871 0.515197
vt 0.0433018 0.515197
vt 0.0571086 0.515197
vt 0.0630608 0.515197
vt 0.0638623 0.515197
vt 0.0706581 0.0244752
vt 0.0824226 0.0244752
vt 0.0883844 0.0244752
vt 0.109081 0.0244752
vt 0.0883776 0.515197
vt 0.103525 0.515197
vt 0.115047 0.0244752
vt 0.136391 0.0244752
vt 0.0706626 0.515197
vt 0.0806426 0.515197
vt 0.115049 0.515197
vt 0.115794 0.515197
vt 0.121789 0.515197
vt 0.135685 0.515197
vt 0.1424 0.0244752
vt 0.143126 0.0244752
vt 0.149121 0.0244752
vt 0.160906 0.0244752
vt 0.166857 0.0244752
vt 0.187554 0.0244752
vt 0.166857 0.515197
vt 0.181992 0.515197
vt 0.193519 0.0244752
vt 0.214864 0.0244752
vt 0.149132 0.515197
vt 0.159119 0.515197
vt 0.142401 0.515197
vt 0.143125 0.515197
vt 0.193518 0.515197
vt 0.207409 0.515197
vt 0.213404 0.515197
vt 0.214154 0.515197
vt 0.220851 0.0244752
vt 0.232628 0.0244752
vt 0.238583 0.0244752
vt 0.25928 0.0244752
vt 0.238606 0.515197
vt 0.253695 0.515197
vt 0.265246 0.0244752
vt 0.28659 0.0244752
vt 0.220865 0.515197
vt 0.230838 0.515197
vt 0.265236 0.515197
vt 0.266005 0.515197
vt 0.271957 0.515197
vt 0.285798 0.515197
vt 0.292591 0.0244752
vt 0.293333 0.0244752
vt 0.299322 0.0244752
vt 0.311102 0.0244752
vt 0.317056 0.0244752
vt 0.337753 0.0244752
vt 0.317073 0.515197
vt 0.332173 0.515197
vt 0.343719 0.0244752
vt 0.365063 0.0244752
vt 0.299332 0.515197
vt 0.309317 0.515197
vt 0.292598 0.515197
vt 0.293326 0.515197
vt 0.3437 0.515197
vt 0.357506 0.515197
vt 0.363455 0.515197
vt 0.364264 0.515197
vt 0.371057 0.0244752
vt 0.38282 0.0244752
vt 0.388783 0.0244752
vt 0.40948 0.0244752
vt 0.388815 0.515197
vt 0.404002 0.515197
vt 0.415445 0.0244752
vt 0.436789 0.0244752
vt 0.371067 0.515197
vt 0.381034 0.515197
vt 0.415422 0.515197
vt 0.416218 0.515197
vt 0.422153 0.515197
vt 0.435881 0.515197
vt 0.442763 0.0244752
vt 0.443559 0.0244752
vt 0.449529 0.0244752
vt 0.461294 0.0244752
vt 0.467255 0.0244752
vt 0.487952 0.0244752
vt 0.467282 0.515197
vt 0.482363 0.515197
vt 0.449524 0.515197
vt 0.454433 0.515197
vt 0.44279 0.515197
vt 0.443295 0.515197
vt 0.493922 0.0244752
vt 0.499161 0.0244752
vt 0.505141 0.0244752
vt 0.520846 0.0244752
vt 0.526791 0.0244752
vt 0.547488 0.0244752
vt 0.505126 0.515197
vt 0.516364 0.515197
vt 0.460398 0.515197
vt 0.461195 0.515197
vt 0.526788 0.515197
vt 0.54098 0.515197
vt 0.493894 0.515197
vt 0.494691 0.515197
vt 0.553456 0.0244752
vt 0.56284 0.0244752
vt 0.56884 0.0244752
vt 0.590184 0.0244752
vt 0.568814 0.515197
vt 0.584647 0.515197
vt 0.59615 0.0244752
vt 0.616847 0.0244752
vt 0.596143 0.515197
vt 0.607384 0.515197
vt 0.613314 0.515197
vt 0.614122 0.515197
vt 0.622782 0.0244752
vt 0.637084 0.0244752
vt 0.553464 0.515197
vt 0.554192 0.515197
vt 0.622824 0.515197
vt 0.63219 0.515197
vt 0.643052 0.0244752
vt 0.664396 0.0244752
vt 0.64307 0.515197
vt 0.658815 0.515197
vt 0.670361 0.0244752
vt 0.691058 0.0244752
vt 0.670364 0.515197
vt 0.681588 0.515197
vt 0.560204 0.515197
vt 0.560945 0.515197
vt 0.697031 0.0244752
vt 0.711378 0.0244752
vt 0.687545 0.515197
vt 0.688314 0.515197
vt 0.69703 0.515197
vt 0.706408 0.515197
vt 0.717382 0.0244752
vt 0.738726 0.0244752
vt 0.717346 0.515197
vt 0.73308 0.515197
vt 0.744692 0.0244752
vt 0.765389 0.0244752
vt 0.744693 0.515197
vt 0.755919 0.515197
vt 0.761885 0.515197
vt 0.762635 0.515197
vt 0.771326 0.0244752
vt 0.785744 0.0244752
vt 0.771367 0.515197
vt 0.772091 0.515197
vt 0.791725 0.0244752
vt 0.801089 0.0244752
vt 0.807099 0.0244752
vt 0.828443 0.0244752
vt 0.8071 0.515197
vt 0.82288 0.515197
vt 0.834409 0.0244752
vt 0.855106 0.0244752
vt 0.834413 0.515197
vt 0.845632 0.515197
vt 0.851614 0.515197
vt 0.85234 0.515197
vt 0.861039 0.0244752
vt 0.875464 0.0244752
vt 0.778103 0.515197
vt 0.778848 0.515197
vt 0.791722 0.515197
vt 0.801093 0.515197
vt 0.881429 0.0244752
vt 0.902774 0.0244752
vt 0.881423 0.515197
vt 0.897216 0.515197
vt 0.908739 0.0244752
vt 0.929436 0.0244752
vt 0.861034 0.515197
vt 0.872273 0.515197
vt 0.784821 0.515197
vt 0.785623 0.515197
vt 0.908741 0.515197
vt 0.923042 0.515197
vt 0.935409 0.0244752
vt 0.936144 0.0244752
vt 0.942159 0.0244752
vt 0.951527 0.0244752
vt 0.957535 0.0244752
vt 0.978879 0.0244752
vt 0.957523 0.515197
vt 0.973447 0.515197
vt 5.09876e-06 0.509279
vt 0.00524367 0.509279
vt 4.54501e-06 1
vt 0.000509816 1
vt 0.0112364 0.509279
vt 0.0161457 0.509279
vt 0.0221062 0.509279
vt 0.0373516 0.509279
vt 0.0433205 0.509279
vt 0.0646649 0.509279
vt 0.0221332 1
vt 0.0321167 1
vt 0.0112524 1
vt 0.0119871 1
vt 0.0433018 1
vt 0.0571086 1
vt 0.0630608 1
vt 0.0638623 1
vt 0.0706581 0.509279
vt 0.0824226 0.509279
vt 0.0883844 0.509279
vt 0.109081 0.509279
vt 0.0883776 1
vt 0.103525 1
vt 0.115047 0.509279
vt 0.136391 0.509279
vt 0.0706626 1
vt 0.0806426 1
vt 0.115049 1
vt 0.115794 1
vt 0.121789 1
vt 0.135685 1
vt 0.1424 0.509279
vt 0.143126 0.509279
vt 0.149121 0.509279
vt 0.160906 0.509279
vt 0.166857 0.509279
vt 0.187554 0.509279
vt 0.166857 1
vt 0.181992 1
vt 0.193519 0.509279
vt 0.214864 0.509279
vt 0.149132 1
vt 0.159119 1
vt 0.142401 1
vt 0.143125 1
vt 0.193518 1
vt 0.207409 1
vt 0.213404 1
vt 0.214154 1
vt 0.220851 0.509279
vt 0.232628 0.509279
vt 0.238583 0.509279
vt 0.25928 0.509279
vt 0.238606 1
vt 0.253695 1
vt 0.265246 0.509279
vt 0.28659 0.509279
vt 0.220865 1
vt 0.230838 1
vt 0.265236 1
vt 0.266005 1
vt 0.271957 1
vt 0.285798 1
vt 0.292591 0.509279
vt 0.293333 0.509279
vt 0.299322 0.509279
vt 0.311102 0.509279
vt 0.317056 0.509279
vt 0.337753 0.509279
vt 0.317073 1
vt 0.332173 1
vt 0.343719 0.509279
vt 0.365063 0.509279
vt 0.299332 1
vt 0.309317 1
vt 0.292598 1
vt 0.293326 1
vt 0.3437 1
vt 0.357506 1
vt 0.363455 1
vt 0.364264 1
vt 0.371057 0.509279
vt 0.38282 0.509279
vt 0.388783 0.509279
vt 0.40948 0.509279
vt 0.388815 1
vt 0.404002 1
vt 0.415445 0.509279
vt 0.436789 0.509279
vt 0.371067 1
vt 0.381034 1
vt 0.415422 1
vt 0.416218 1
vt 0.422153 1
vt 0.435881 1
vt 0.442763 0.509279
vt 0.443559 0.509279
vt 0.449529 0.509279
vt 0.461294 0.509279
vt 0.467255 0.509279
vt 0.487952 0.509279
vt 0.467282 1
vt 0.482363 1
vt 0.449524 1
vt 0.454433 1
vt 0.44279 1
vt 0.443295 1
vt 0.493922 0.509279
vt 0.499161 0.509279
vt 0.505141 0.509279
vt 0.520846 0.509279
vt 0.526791 0.509279
vt 0.547488 0.509279
vt 0.505126 1
vt 0.516364 1
vt 0.460398 1
vt 0.461195 1
vt 0.526788 1
vt 0.54098 1
vt 0.493894 1
vt 0.494691 1
vt 0.553456 0.509279
vt 0.56284 0.509279
vt 0.56884 0.509279
vt 0.590184 0.509279
vt 0.568814 1
vt 0.584647 1
vt 0.59615 0.509279
vt 0.616847 0.509279
vt 0.596143 1
vt 0.607384 1
vt 0.613314 1
vt 0.614122 1
vt 0.622782 0.509279
vt 0.637084 0.509279
vt 0.553464 1
vt 0.554192 1
vt 0.622824 1
vt 0.63219 1
vt 0.643052 0.509279
vt 0.664396 0.509279
vt 0.64307 1
vt 0.658815 1
vt 0.670361 0.509279
vt 0.691058 0.509279
vt 0.670364 1
vt 0.681588 1
vt 0.560204 1
vt 0.560945 1
vt 0.697031 0.509279
vt 0.711378 0.509279
vt 0.687545 1
vt 0.688314 1
vt 0.69703 1
vt 0.706408 1
vt 0.717382 0.509279
vt 0.738726 0.509279
vt 0.717346 1
vt 0.73308 1
vt 0.744692 0.509279
vt 0.765389 0.509279
vt 0.744693 1
vt 0.755919 1
vt 0.761885 1
vt 0.762635 1
vt 0.771326 0.509279
vt 0.785744 0.509279
vt 0.771367 1
vt 0.772091 1
vt 0.791725 0.509279
vt 0.801089 0.509279
vt 0.807099 0.509279
vt 0.828443 0.509279
vt 0.8071 1
vt 0.82288 1
vt 0.834409 0.509279
vt 0.855106 0.509279
vt 0.834413 1
vt 0.845632 1
vt 0.851614 1
vt 0.85234 1
vt 0.861039 0.509279
vt 0.875464 0.509279
vt 0.778103 1
vt 0.778848 1
vt 0.791722 1
vt 0.801093 1
vt 0.881429 0.509279
vt 0.902774 0.509279
vt 0.881423 1
vt 0.897216 1
vt 0.908739 0.509279
vt 0.929436 0.509279
vt 0.861034 1
vt 0.872273 1
vt 0.784821 1
vt 0.785623 1
vt 0.908741 1
vt 0.923042 1
vt 0.935409 0.509279
vt 0.936144 0.509279
vt 0.942159 0.509279
vt 0.951527 0.509279
vt 0.957535 0.509279
vt 0.978879 0.509279
vt 0.957523 1
vt 0.973447 1
vt 0.00262438 0.266877
vt 0.00025718 0.757598
vt 0.0136911 0.266877
vt 0.0297289 0.266877
vt 0.0539927 0.266877
vt 0.0271249 0.757598
vt 0.0116198 0.757598
vt 0.0502052 0.757598
vt 0.0634615 0.757598
vt 0.0765403 0.266877
vt 0.0987329 0.266877
vt 0.0959514 0.757598
vt 0.125719 0.266877
vt 0.0756526 0.757598
vt 0.115422 0.757598
vt 0.128737 0.757598
vt 0.142763 0.266877
vt 0.155013 0.266877
vt 0.177206 0.266877
vt 0.174424 0.757598
vt 0.204192 0.266877
vt 0.154125 0.757598
vt 0.142763 0.757598
vt 0.200463 0.757598
vt 0.213779 0.757598
vt 0.226739 0.266877
vt 0.248932 0.266877
vt 0.24615 0.757598
vt 0.275918 0.266877
vt 0.225852 0.757598
vt 0.265621 0.757598
vt 0.278877 0.757598
vt 0.292962 0.266877
vt 0.305212 0.266877
vt 0.327405 0.266877
vt 0.324623 0.757598
vt 0.354391 0.266877
vt 0.304325 0.757598
vt 0.292962 0.757598
vt 0.350603 0.757598
vt 0.36386 0.757598
vt 0.376939 0.266877
vt 0.399131 0.266877
vt 0.396409 0.757598
vt 0.426117 0.266877
vt 0.376051 0.757598
vt 0.41582 0.757598
vt 0.429017 0.757598
vt 0.443161 0.266877
vt 0.455411 0.266877
vt 0.477604 0.266877
vt 0.474822 0.757598
vt 0.451979 0.757598
vt 0.443043 0.757598
vt 0.496541 0.266877
vt 0.512994 0.266877
vt 0.537139 0.266877
vt 0.510745 0.757598
vt 0.460797 0.757598
vt 0.533884 0.757598
vt 0.494293 0.757598
vt 0.558148 0.266877
vt 0.579512 0.266877
vt 0.576731 0.757598
vt 0.606498 0.266877
vt 0.601764 0.757598
vt 0.613718 0.757598
vt 0.629933 0.266877
vt 0.553828 0.757598
vt 0.627507 0.757598
vt 0.653724 0.266877
vt 0.650942 0.757598
vt 0.68071 0.266877
vt 0.675976 0.757598
vt 0.560574 0.757598
vt 0.704204 0.266877
vt 0.68793 0.757598
vt 0.701719 0.757598
vt 0.728054 0.266877
vt 0.725213 0.757598
vt 0.75504 0.266877
vt 0.750306 0.757598
vt 0.76226 0.757598
vt 0.778535 0.266877
vt 0.771729 0.757598
vt 0.796407 0.266877
vt 0.817771 0.266877
vt 0.81499 0.757598
vt 0.844757 0.266877
vt 0.840023 0.757598
vt 0.851977 0.757598
vt 0.868252 0.266877
vt 0.778475 0.757598
vt 0.796407 0.757598
vt 0.892101 0.266877
vt 0.88932 0.757598
vt 0.919087 0.266877
vt 0.866654 0.757598
vt 0.785222 0.757598
vt 0.915892 0.757598
vt 0.935776 0.266877
vt 0.946843 0.266877
vt 0.968207 0.266877
vt 0.965485 0.757598


# Vertex Surface Normals: 
vn 0 0 1
vn 0 0 -1
vn 0.914506 -0.404573 0
vn 0.914506 -0.404573 -1.41819e-18
vn 0.914506 -0.404573 -1.41819e-18
vn 0.914506 -0.404573 1.41819e-18
vn 0.914506 -0.404573 1.41819e-18
vn 0.404506 0.914535 0
vn 0.404506 0.914535 0
vn 0.404506 0.914535 0
vn 0.404506 0.914535 0
vn 0.404506 0.914535 0
vn -0.914511 0.404561 0
vn -0.914511 0.404561 -4.81447e-17
vn -0.914511 0.404561 -4.81447e-17
vn -0.914511 0.404561 4.81447e-17
vn -0.914511 0.404561 4.81447e-17
vn -4.85772e-05 1 0
vn -4.85772e-05 1 -3.24745e-18
vn -4.85772e-05 1 -3.24745e-18
vn -4.85772e-05 1 3.24745e-18
vn -4.85772e-05 1 3.24745e-18
vn 0.839067 0.544028 0
vn 0.839067 0.544028 0
vn 0.839067 0.544028 0
vn 0.839067 0.544028 0
vn 0.839067 0.544028 0
vn 0.0115466 0.999933 0
vn 0.0115466 0.999933 6.10082e-19
vn 0.0115466 0.999933 6.10082e-19
vn 0.0115466 0.999933 -6.10082e-19
vn 0.0115466 0.999933 -6.10082e-19
vn -0.822204 0.569192 0
vn -0.822204 0.569192 4.35536e-17
vn -0.822204 0.569192 4.35536e-17
vn -0.822204 0.569192 -4.35536e-17
vn -0.822204 0.569192 -4.35536e-17
vn 0 1 0
vn 0 1 0
vn 0 1 0
vn 0 1 0
vn 0 1 0
vn 0.753663 0.657261 0
vn 0.753663 0.657261 -3.9861e-17
vn 0.753663 0.657261 -3.9861e-17
vn 0.753663 0.657261 3.9861e-17
vn 0.753663 0.657261 3.9861e-17
vn 0 1 0
vn 0 1 0
vn 0 1 0
vn 0 1 0
vn 0 1 0
vn -0.870883 0.49149 0
vn -0.870883 0.49149 -4.50079e-17
vn -0.870883 0.49149 -4.50079e-17
vn -0.870883 0.49149 4.50079e-17
vn -0.870883 0.49149 4.50079e-17
vn 0 1 0
vn 0 1 0
vn 0 1 0
vn 0 1 0
vn 0 1 0
vn 0.839057 0.544044 0
vn 0.839057 0.544044 4.2514e-17
vn 0.839057 0.544044 4.2514e-17
vn 0.839057 0.544044 -4.2514e-17
vn 0.839057 0.544044 -4.2514e-17
vn 0.0115506 0.999933 0
vn 0.0115506 0.999933 -6.10296e-19
vn 0.0115506 0.999933 -6.10296e-19
vn 0.0115506 0.999933 6.10296e-19
vn 0.0115506 0.999933 6.10296e-19
vn -0.81088 0.585212 0
vn -0.81088 0.585212 -4.28904e-17
vn -0.81088 0.585212 -4.28904e-17
vn -0.81088 0.585212 4.28904e-17
vn -0.81088 0.585212 4.28904e-17
vn 0 1 0
vn 0 1 0
vn 0 1 0
vn 0 1 0
vn 0 1 0
vn 0.83226 0.554386 0
vn 0.83226 0.554386 0
vn 0.83226 0.554386 0
vn 0.83226 0.554386 0
vn 0.83226 0.554386 0
vn 0 1 0
vn 0 1 0
vn 0 1 0
vn 0 1 0
vn 0 1 0
vn -0.870883 0.49149 0
vn -0.870883 0.49149 0
vn -0.870883 0.49149 0
vn -0.870883 0.49149 0
vn -0.870883 0.49149 0
vn 0 1 0
vn 0 1 0
vn 0 1 0
vn 0 1 0
vn 0 1 0
vn 0.839057 0.544044 0
vn 0.839057 0.544044 2.0712e-17
vn 0.839057 0.544044 2.0712e-17
vn 0.839057 0.544044 -2.0712e-17
vn 0.839057 0.544044 -2.0712e-17
vn 0.0115432 0.999933 0
vn 0.0115432 0.999933 -1.47854e-19
vn 0.0115432 0.999933 -1.47854e-19
vn 0.0115432 0.999933 1.47854e-19
vn 0.0115432 0.999933 1.47854e-19
vn -0.834142 0.55155 0
vn -0.834142 0.55155 0
vn -0.834142 0.55155 0
vn -0.834142 0.55155 0
vn -0.834142 0.55155 0
vn 0 1 0
vn 0 1 0
vn 0 1 0
vn 0 1 0
vn 0 1 0
vn 0.804907 0.593401 0
vn 0.804907 0.593401 0
vn 0.804907 0.593401 0
vn 0.804907 0.593401 0
vn 0.804907 0.593401 0
vn 0 1 0
vn 0 1 0
vn 0 1 0
vn 0 1 0
vn 0 1 0
vn -0.870883 0.49149 0
vn -0.870883 0.49149 0
vn -0.870883 0.49149 0
vn -0.870883 0.49149 0
vn -0.870883 0.49149 0
vn 0 1 0
vn 0 1 0
vn 0 1 0
vn 0 1 0
vn 0 1 0
vn 0.839057 0.544044 0
vn 0.839057 0.544044 3.27031e-18
vn 0.839057 0.544044 3.27031e-18
vn 0.839057 0.544044 -3.27031e-18
vn 0.839057 0.544044 -3.27031e-18
vn 0.0115586 0.999933 0
vn 0.0115586 0.999933 0
vn 0.0115586 0.999933 0
vn 0.0115586 0.999933 0
vn 0.0115586 0.999933 0
vn -0.785482 0.618884 0
vn -0.785482 0.618884 0
vn -0.785482 0.618884 0
vn -0.785482 0.618884 0
vn -0.785482 0.618884 0
vn 0 1 0
vn 0 1 0
vn 0 1 0
vn 0 1 0
vn 0 1 0
vn 0.814969 0.579504 0
vn 0.814969 0.579504 -1.07767e-17
vn 0.814969 0.579504 -1.07767e-17
vn 0.814969 0.579504 1.07767e-17
vn 0.814969 0.579504 1.07767e-17
vn 0 1 0
vn 0 1 0
vn 0 1 0
vn 0 1 0
vn 0 1 0
vn -0.870883 0.49149 0
vn -0.870883 0.49149 -2.2504e-17
vn -0.870883 0.49149 -2.2504e-17
vn -0.870883 0.49149 2.2504e-17
vn -0.870883 0.49149 2.2504e-17
vn 0 1 0
vn 0 1 0
vn 0 1 0
vn 0 1 0
vn 0 1 0
vn 0.839067 0.544028 0
vn 0.839067 0.544028 2.18024e-17
vn 0.839067 0.544028 2.18024e-17
vn 0.839067 0.544028 -2.18024e-17
vn 0.839067 0.544028 -2.18024e-17
vn 0.0115444 0.999933 0
vn 0.0115444 0.999933 2.95738e-19
vn 0.0115444 0.999933 2.95738e-19
vn 0.0115444 0.999933 -2.95738e-19
vn 0.0115444 0.999933 -2.95738e-19
vn -0.82912 0.559071 0
vn -0.82912 0.559071 -2.19281e-17
vn -0.82912 0.559071 -2.19281e-17
vn -0.82912 0.559071 2.19281e-17
vn -0.82912 0.559071 2.19281e-17
vn 0 1 0
vn 0 1 0
vn 0 1 0
vn 0 1 0
vn 0 1 0
vn 0.746971 0.664856 0
vn 0.746971 0.664856 0
vn 0.746971 0.664856 0
vn 0.746971 0.664856 0
vn 0.746971 0.664856 0
vn 0 1 0
vn 0 1 0
vn 0 1 0
vn 0 1 0
vn 0 1 0
vn -0.870883 0.49149 0
vn -0.870883 0.49149 0
vn -0.870883 0.49149 0
vn -0.870883 0.49149 0
vn -0.870883 0.49149 0
vn 0 1 0
vn 0 1 0
vn 0 1 0
vn 0 1 0
vn 0 1 0
vn 0.839067 0.544028 0
vn 0.839067 0.544028 4.36047e-17
vn 0.839067 0.544028 4.36047e-17
vn 0.839067 0.544028 -4.36047e-17
vn 0.839067 0.544028 -4.36047e-17
vn 0.0115655 0.999933 0
vn 0.0115655 0.999933 5.92575e-19
vn 0.0115655 0.999933 5.92575e-19
vn 0.0115655 0.999933 -5.92575e-19
vn 0.0115655 0.999933 -5.92575e-19
vn -0.758249 0.651965 0
vn -0.758249 0.651965 0
vn -0.758249 0.651965 0
vn -0.758249 0.651965 0
vn -0.758249 0.651965 0
vn 0 1 0
vn 0 1 0
vn 0 1 0
vn 0 1 0
vn 0 1 0
vn 0.758249 0.651965 0
vn 0.758249 0.651965 4.01625e-17
vn 0.758249 0.651965 4.01625e-17
vn 0.758249 0.651965 -4.01625e-17
vn 0.758249 0.651965 -4.01625e-17
vn 0 1 0
vn 0 1 0
vn 0 1 0
vn 0 1 0
vn 0 1 0
vn -0.870883 0.49149 0
vn -0.870883 0.49149 0
vn -0.870883 0.49149 0
vn -0.870883 0.49149 0
vn -0.870883 0.49149 0
vn -0.000114564 1 0
vn -0.000114564 1 3.24577e-18
vn -0.000114564 1 3.24577e-18
vn -0.000114564 1 -3.24577e-18
vn -0.000114564 1 -3.24577e-18
vn 0.91454 0.404495 0
vn 0.91454 0.404495 -4.81489e-17
vn 0.91454 0.404495 -4.81489e-17
vn 0.91454 0.404495 4.81489e-17
vn 0.91454 0.404495 4.81489e-17
vn -0.404506 0.914535 0
vn -0.404506 0.914535 0
vn -0.404506 0.914535 0
vn -0.404506 0.914535 0
vn -0.404506 0.914535 0
vn -0.914533 -0.404511 0
vn -0.914533 -0.404511 4.79387e-17
vn -0.914533 -0.404511 4.79387e-17
vn -0.914533 -0.404511 -4.79387e-17
vn -0.914533 -0.404511 -4.79387e-17
vn 0.000110012 -1 0
vn 0.000110012 -1 -3.24868e-18
vn 0.000110012 -1 -3.24868e-18
vn 0.000110012 -1 3.24868e-18
vn 0.000110012 -1 3.24868e-18
vn 0.870883 -0.49149 0
vn 0.870883 -0.49149 4.50079e-17
vn 0.870883 -0.49149 4.50079e-17
vn 0.870883 -0.49149 -4.50079e-17
vn 0.870883 -0.49149 -4.50079e-17
vn 0 -1 0
vn 0 -1 0
vn 0 -1 0
vn 0 -1 0
vn 0 -1 0
vn -0.75825 -0.651964 0
vn -0.75825 -0.651964 2.16936e-18
vn -0.75825 -0.651964 2.16936e-18
vn -0.75825 -0.651964 -2.16936e-18
vn -0.75825 -0.651964 -2.16936e-18
vn 0 -1 0
vn 0 -1 0
vn 0 -1 0
vn 0 -1 0
vn 0 -1 0
vn 0.75825 -0.651964 0
vn 0.75825 -0.651964 0
vn 0.75825 -0.651964 0
vn 0.75825 -0.651964 0
vn 0.75825 -0.651964 0
vn 0 -1 0
vn 0 -1 0
vn 0 -1 0
vn 0 -1 0
vn 0 -1 0
vn -0.839067 -0.544028 0
vn -0.839067 -0.544028 0
vn -0.839067 -0.544028 0
vn -0.839067 -0.544028 0
vn -0.839067 -0.544028 0
vn -0.00728098 -0.999973 0
vn -0.00728098 -0.999973 -3.63202e-18
vn -0.00728098 -0.999973 -3.63202e-18
vn -0.00728098 -0.999973 3.63202e-18
vn -0.00728098 -0.999973 3.63202e-18
vn 0.870883 -0.49149 0
vn 0.870883 -0.49149 0
vn 0.870883 -0.49149 0
vn 0.870883 -0.49149 0
vn 0.870883 -0.49149 0
vn 0 -1 0
vn 0 -1 0
vn 0 -1 0
vn 0 -1 0
vn 0 -1 0
vn -0.746971 -0.664856 0
vn -0.746971 -0.664856 2.19482e-18
vn -0.746971 -0.664856 2.19482e-18
vn -0.746971 -0.664856 -2.19482e-18
vn -0.746971 -0.664856 -2.19482e-18
vn 0 -1 0
vn 0 -1 0
vn 0 -1 0
vn 0 -1 0
vn 0 -1 0
vn 0.829434 -0.558605 0
vn 0.829434 -0.558605 0
vn 0.829434 -0.558605 0
vn 0.829434 -0.558605 0
vn 0.829434 -0.558605 0
vn 0 -1 0
vn 0 -1 0
vn 0 -1 0
vn 0 -1 0
vn 0 -1 0
vn -0.839067 -0.544028 0
vn -0.839067 -0.544028 2.18024e-17
vn -0.839067 -0.544028 2.18024e-17
vn -0.839067 -0.544028 -2.18024e-17
vn -0.839067 -0.544028 -2.18024e-17
vn -0.00732116 -0.999973 0
vn -0.00732116 -0.999973 -3.23373e-18
vn -0.00732116 -0.999973 -3.23373e-18
vn -0.00732116 -0.999973 3.23373e-18
vn -0.00732116 -0.999973 3.23373e-18
vn 0.870883 -0.49149 0
vn 0.870883 -0.49149 2.2504e-17
vn 0.870883 -0.49149 2.2504e-17
vn 0.870883 -0.49149 -2.2504e-17
vn 0.870883 -0.49149 -2.2504e-17
vn 0 -1 0
vn 0 -1 0
vn 0 -1 0
vn 0 -1 0
vn 0 -1 0
vn -0.814969 -0.579504 0
vn -0.814969 -0.579504 1.89065e-18
vn -0.814969 -0.579504 1.89065e-18
vn -0.814969 -0.579504 -1.89065e-18
vn -0.814969 -0.579504 -1.89065e-18
vn 0 -1 0
vn 0 -1 0
vn 0 -1 0
vn 0 -1 0
vn 0 -1 0
vn 0.785482 -0.618884 0
vn 0.785482 -0.618884 -1.03864e-17
vn 0.785482 -0.618884 -1.03864e-17
vn 0.785482 -0.618884 1.03864e-17
vn 0.785482 -0.618884 1.03864e-17
vn 0 -1 0
vn 0 -1 0
vn 0 -1 0
vn 0 -1 0
vn 0 -1 0
vn -0.839057 -0.544044 0
vn -0.839057 -0.544044 -5.45052e-18
vn -0.839057 -0.544044 -5.45052e-18
vn -0.839057 -0.544044 5.45052e-18
vn -0.839057 -0.544044 5.45052e-18
vn -0.00732644 -0.999973 0
vn -0.00732644 -0.999973 -3.25939e-18
vn -0.00732644 -0.999973 -3.25939e-18
vn -0.00732644 -0.999973 3.25939e-18
vn -0.00732644 -0.999973 3.25939e-18
vn 0.870883 -0.49149 0
vn 0.870883 -0.49149 3.3756e-18
vn 0.870883 -0.49149 3.3756e-18
vn 0.870883 -0.49149 -3.3756e-18
vn 0.870883 -0.49149 -3.3756e-18
vn 0 -1 0
vn 0 -1 0
vn 0 -1 0
vn 0 -1 0
vn 0 -1 0
vn -0.804907 -0.593401 0
vn -0.804907 -0.593401 1.99177e-18
vn -0.804907 -0.593401 1.99177e-18
vn -0.804907 -0.593401 -1.99177e-18
vn -0.804907 -0.593401 -1.99177e-18
vn 0 -1 0
vn 0 -1 0
vn 0 -1 0
vn 0 -1 0
vn 0 -1 0
vn 0.834142 -0.55155 0
vn 0.834142 -0.55155 1.10305e-17
vn 0.834142 -0.55155 1.10305e-17
vn 0.834142 -0.55155 -1.10305e-17
vn 0.834142 -0.55155 -1.10305e-17
vn 0 -1 0
vn 0 -1 0
vn 0 -1 0
vn 0 -1 0
vn 0 -1 0
vn -0.839057 -0.544044 0
vn -0.839057 -0.544044 0
vn -0.839057 -0.544044 0
vn -0.839057 -0.544044 0
vn -0.839057 -0.544044 0
vn -0.00730513 -0.999973 0
vn -0.00730513 -0.999973 -3.2265e-18
vn -0.00730513 -0.999973 -3.2265e-18
vn -0.00730513 -0.999973 3.2265e-18
vn -0.00730513 -0.999973 3.2265e-18
vn 0.870883 -0.49149 0
vn 0.870883 -0.49149 0
vn 0.870883 -0.49149 0
vn 0.870883 -0.49149 0
vn 0.870883 -0.49149 0
vn 0 -1 0
vn 0 -1 0
vn 0 -1 0
vn 0 -1 0
vn 0 -1 0
vn -0.83226 -0.554386 0
vn -0.83226 -0.554386 -2.02091e-17
vn -0.83226 -0.554386 -2.02091e-17
vn -0.83226 -0.554386 2.02091e-17
vn -0.83226 -0.554386 2.02091e-17
vn 0 -1 0
vn 0 -1 0
vn 0 -1 0
vn 0 -1 0
vn 0 -1 0
vn 0.81088 -0.585212 0
vn 0.81088 -0.585212 0
vn 0.81088 -0.585212 0
vn 0.81088 -0.585212 0
vn 0.81088 -0.585212 0
vn 0 -1 0
vn 0 -1 0
vn 0 -1 0
vn 0 -1 0
vn 0 -1 0
vn -0.839057 -0.544044 0
vn -0.839057 -0.544044 4.36041e-17
vn -0.839057 -0.544044 4.36041e-17
vn -0.839057 -0.544044 -4.36041e-17
vn -0.839057 -0.544044 -4.36041e-17
vn -0.00729919 -0.999973 0
vn -0.00729919 -0.999973 -2.87593e-18
vn -0.00729919 -0.999973 -2.87593e-18
vn -0.00729919 -0.999973 2.87593e-18
vn -0.00729919 -0.999973 2.87593e-18
vn 0.870883 -0.49149 0
vn 0.870883 -0.49149 0
vn 0.870883 -0.49149 0
vn 0.870883 -0.49149 0
vn 0.870883 -0.49149 0
vn 0 -1 0
vn 0 -1 0
vn 0 -1 0
vn 0 -1 0
vn 0 -1 0
vn -0.753663 -0.657261 0
vn -0.753663 -0.657261 -3.77048e-17
vn -0.753663 -0.657261 -3.77048e-17
vn -0.753663 -0.657261 3.77048e-17
vn -0.753663 -0.657261 3.77048e-17
vn 0 -1 0
vn 0 -1 0
vn 0 -1 0
vn 0 -1 0
vn 0 -1 0
vn 0.822204 -0.569192 0
vn 0.822204 -0.569192 4.349e-17
vn 0.822204 -0.569192 4.349e-17
vn 0.822204 -0.569192 -4.349e-17
vn 0.822204 -0.569192 -4.349e-17
vn 0 -1 0
vn 0 -1 0
vn 0 -1 0
vn 0 -1 0
vn 0 -1 0
vn -0.839067 -0.544028 0
vn -0.839067 -0.544028 4.36047e-17
vn -0.839067 -0.544028 4.36047e-17
vn -0.839067 -0.544028 -4.36047e-17
vn -0.839067 -0.544028 -4.36047e-17
vn -0.0071925 -0.999974 0
vn -0.0071925 -0.999974 -3.24267e-18
vn -0.0071925 -0.999974 -3.24267e-18
vn -0.0071925 -0.999974 3.24267e-18
vn -0.0071925 -0.999974 3.24267e-18


# Faces: 
usemtl material0
f 157/53/1 161/57/1 156/52/1
f 161/57/1 157/53/1 160/56/1
f 160/56/1 157/53/1 159/55/1
f 148/44/1 149/45/1 169/65/1
f 156/52/1 161/57/1 162/58/1
f 158/54/1 159/55/1 157/53/1
f 165/61/1 166/62/1 152/48/1
f 165/61/1 153/49/1 164/60/1
f 152/48/1 153/49/1 165/61/1
f 149/45/1 167/63/1 168/64/1
f 163/59/1 164/60/1 153/49/1
f 149/45/1 168/64/1 169/65/1
f 141/37/1 176/72/1 177/73/1
f 177/73/1 178/74/1 140/36/1
f 177/73/1 140/36/1 141/37/1
f 175/71/1 176/72/1 141/37/1
f 172/68/1 144/40/1 145/41/1
f 144/40/1 172/68/1 173/69/1
f 184/80/1 133/29/1 183/79/1
f 144/40/1 173/69/1 174/70/1
f 137/33/1 180/76/1 181/77/1
f 184/80/1 185/81/1 133/29/1
f 169/65/1 170/66/1 148/44/1
f 145/41/1 171/67/1 172/68/1
f 162/58/1 163/59/1 154/50/1
f 166/62/1 151/47/1 152/48/1
f 153/49/1 154/50/1 163/59/1
f 149/45/1 150/46/1 167/63/1
f 170/66/1 147/43/1 148/44/1
f 170/66/1 171/67/1 146/42/1
f 166/62/1 167/63/1 151/47/1
f 155/51/1 162/58/1 154/50/1
f 147/43/1 170/66/1 146/42/1
f 145/41/1 146/42/1 171/67/1
f 150/46/1 151/47/1 167/63/1
f 162/58/1 155/51/1 156/52/1
f 175/71/1 142/38/1 143/39/1
f 178/74/1 139/35/1 140/36/1
f 141/37/1 142/38/1 175/71/1
f 138/34/1 179/75/1 137/33/1
f 136/32/1 137/33/1 181/77/1
f 144/40/1 174/70/1 143/39/1
f 178/74/1 179/75/1 138/34/1
f 178/74/1 138/34/1 139/35/1
f 182/78/1 183/79/1 135/31/1
f 182/78/1 136/32/1 181/77/1
f 134/30/1 135/31/1 183/79/1
f 183/79/1 133/29/1 134/30/1
f 135/31/1 136/32/1 182/78/1
f 175/71/1 143/39/1 174/70/1
f 179/75/1 180/76/1 137/33/1
f 185/81/1 186/82/1 132/28/1
f 185/81/1 132/28/1 133/29/1
f 125/21/1 193/89/1 124/20/1
f 193/89/1 125/21/1 192/88/1
f 194/90/1 124/20/1 193/89/1
f 191/87/1 192/88/1 125/21/1
f 188/84/1 128/24/1 129/25/1
f 128/24/1 188/84/1 189/85/1
f 197/93/1 120/16/1 121/17/1
f 197/93/1 121/17/1 196/92/1
f 128/24/1 189/85/1 190/86/1
f 121/17/1 195/91/1 196/92/1
f 187/83/1 188/84/1 129/25/1
f 117/13/1 201/97/1 116/12/1
f 201/97/1 117/13/1 200/96/1
f 199/95/1 200/96/1 117/13/1
f 208/104/1 105/1/1 109/5/1
f 202/98/1 116/12/1 201/97/1
f 197/93/1 198/94/1 120/16/1
f 108/4/1 109/5/1 105/1/1
f 106/2/1 107/3/1 108/4/1
f 108/4/1 105/1/1 106/2/1
f 207/103/1 208/104/1 109/5/1
f 112/8/1 204/100/1 205/101/1
f 186/82/1 187/83/1 130/26/1
f 128/24/1 190/86/1 127/23/1
f 125/21/1 126/22/1 191/87/1
f 194/90/1 123/19/1 124/20/1
f 194/90/1 195/91/1 122/18/1
f 190/86/1 191/87/1 127/23/1
f 131/27/1 186/82/1 130/26/1
f 187/83/1 129/25/1 130/26/1
f 123/19/1 194/90/1 122/18/1
f 126/22/1 127/23/1 191/87/1
f 195/91/1 121/17/1 122/18/1
f 186/82/1 131/27/1 132/28/1
f 199/95/1 118/14/1 119/15/1
f 202/98/1 115/11/1 116/12/1
f 117/13/1 118/14/1 199/95/1
f 114/10/1 203/99/1 113/9/1
f 112/8/1 113/9/1 204/100/1
f 198/94/1 119/15/1 120/16/1
f 202/98/1 203/99/1 114/10/1
f 202/98/1 114/10/1 115/11/1
f 206/102/1 207/103/1 111/7/1
f 206/102/1 112/8/1 205/101/1
f 110/6/1 111/7/1 207/103/1
f 207/103/1 109/5/1 110/6/1
f 111/7/1 112/8/1 206/102/1
f 199/95/1 119/15/1 198/94/1
f 203/99/1 204/100/1 113/9/1
f 57/161/2 53/157/2 52/156/2
f 53/157/2 57/161/2 56/160/2
f 53/157/2 56/160/2 55/159/2
f 45/149/2 44/148/2 65/169/2
f 57/161/2 52/156/2 58/162/2
f 55/159/2 54/158/2 53/157/2
f 62/166/2 61/165/2 48/152/2
f 49/153/2 61/165/2 60/164/2
f 49/153/2 48/152/2 61/165/2
f 63/167/2 45/149/2 64/168/2
f 60/164/2 59/163/2 49/153/2
f 64/168/2 45/149/2 65/169/2
f 72/176/2 37/141/2 73/177/2
f 74/178/2 73/177/2 36/140/2
f 36/140/2 73/177/2 37/141/2
f 72/176/2 71/175/2 37/141/2
f 40/144/2 68/172/2 41/145/2
f 68/172/2 40/144/2 69/173/2
f 29/133/2 80/184/2 79/183/2
f 69/173/2 40/144/2 70/174/2
f 76/180/2 33/137/2 77/181/2
f 81/185/2 80/184/2 29/133/2
f 66/170/2 65/169/2 44/148/2
f 67/171/2 41/145/2 68/172/2
f 59/163/2 58/162/2 50/154/2
f 47/151/2 62/166/2 48/152/2
f 50/154/2 49/153/2 59/163/2
f 46/150/2 45/149/2 63/167/2
f 43/147/2 66/170/2 44/148/2
f 67/171/2 66/170/2 42/146/2
f 63/167/2 62/166/2 47/151/2
f 58/162/2 51/155/2 50/154/2
f 66/170/2 43/147/2 42/146/2
f 42/146/2 41/145/2 67/171/2
f 47/151/2 46/150/2 63/167/2
f 51/155/2 58/162/2 52/156/2
f 38/142/2 71/175/2 39/143/2
f 35/139/2 74/178/2 36/140/2
f 38/142/2 37/141/2 71/175/2
f 75/179/2 34/138/2 33/137/2
f 33/137/2 32/136/2 77/181/2
f 70/174/2 40/144/2 39/143/2
f 75/179/2 74/178/2 34/138/2
f 34/138/2 74/178/2 35/139/2
f 79/183/2 78/182/2 31/135/2
f 32/136/2 78/182/2 77/181/2
f 31/135/2 30/134/2 79/183/2
f 29/133/2 79/183/2 30/134/2
f 32/136/2 31/135/2 78/182/2
f 39/143/2 71/175/2 70/174/2
f 76/180/2 75/179/2 33/137/2
f 82/186/2 81/185/2 28/132/2
f 28/132/2 81/185/2 29/133/2
f 89/193/2 21/125/2 20/124/2
f 21/125/2 89/193/2 88/192/2
f 20/124/2 90/194/2 89/193/2
f 88/192/2 87/191/2 21/125/2
f 24/128/2 84/188/2 25/129/2
f 84/188/2 24/128/2 85/189/2
f 16/120/2 93/197/2 17/121/2
f 17/121/2 93/197/2 92/196/2
f 85/189/2 24/128/2 86/190/2
f 91/195/2 17/121/2 92/196/2
f 84/188/2 83/187/2 25/129/2
f 97/201/2 13/117/2 12/116/2
f 13/117/2 97/201/2 96/200/2
f 96/200/2 95/199/2 13/117/2
f 1/105/2 104/208/2 5/109/2
f 12/116/2 98/202/2 97/201/2
f 94/198/2 93/197/2 16/120/2
f 5/109/2 4/108/2 1/105/2
f 3/107/2 2/106/2 4/108/2
f 1/105/2 4/108/2 2/106/2
f 104/208/2 103/207/2 5/109/2
f 100/204/2 8/112/2 101/205/2
f 83/187/2 82/186/2 26/130/2
f 86/190/2 24/128/2 23/127/2
f 22/126/2 21/125/2 87/191/2
f 19/123/2 90/194/2 20/124/2
f 91/195/2 90/194/2 18/122/2
f 87/191/2 86/190/2 23/127/2
f 82/186/2 27/131/2 26/130/2
f 25/129/2 83/187/2 26/130/2
f 90/194/2 19/123/2 18/122/2
f 23/127/2 22/126/2 87/191/2
f 17/121/2 91/195/2 18/122/2
f 27/131/2 82/186/2 28/132/2
f 14/118/2 95/199/2 15/119/2
f 11/115/2 98/202/2 12/116/2
f 14/118/2 13/117/2 95/199/2
f 99/203/2 10/114/2 9/113/2
f 9/113/2 8/112/2 100/204/2
f 15/119/2 94/198/2 16/120/2
f 99/203/2 98/202/2 10/114/2
f 10/114/2 98/202/2 11/115/2
f 103/207/2 102/206/2 7/111/2
f 8/112/2 102/206/2 101/205/2
f 7/111/2 6/110/2 103/207/2
f 5/109/2 103/207/2 6/110/2
f 8/112/2 7/111/2 102/206/2
f 15/119/2 95/199/2 94/198/2
f 100/204/2 99/203/2 9/113/2
f 209/625/3 1/209/4 2/210/5
f 209/625/3 2/210/5 106/418/6
f 209/625/3 106/418/6 105/417/7
f 209/625/3 105/417/7 1/209/4
f 210/626/8 2/211/9 3/212/10
f 210/626/8 3/212/10 107/420/11
f 210/626/8 107/420/11 106/419/12
f 210/626/8 106/419/12 2/211/9
f 211/627/13 3/213/14 4/214/15
f 211/627/13 4/214/15 108/422/16
f 211/627/13 108/422/16 107/421/17
f 211/627/13 107/421/17 3/213/14
f 212/628/18 4/215/19 5/216/20
f 212/628/18 5/216/20 109/424/21
f 212/628/18 109/424/21 108/423/22
f 212/628/18 108/423/22 4/215/19
f 213/629/23 5/217/24 6/218/25
f 213/629/23 6/218/25 110/426/26
f 213/629/23 110/426/26 109/425/27
f 213/629/23 109/425/27 5/217/24
f 214/630/28 6/219/29 7/220/30
f 214/630/28 7/220/30 111/428/31
f 214/630/28 111/428/31 110/427/32
f 214/630/28 110/427/32 6/219/29
f 215/631/33 7/221/34 8/222/35
f 215/631/33 8/222/35 112/430/36
f 215/631/33 112/430/36 111/429/37
f 215/631/33 111/429/37 7/221/34
f 216/632/38 8/223/39 9/224/40
f 216/632/38 9/224/40 113/432/41
f 216/632/38 113/432/41 112/431/42
f 216/632/38 112/431/42 8/223/39
f 217/633/43 9/225/44 10/226/45
f 217/633/43 10/226/45 114/434/46
f 217/633/43 114/434/46 113/433/47
f 217/633/43 113/433/47 9/225/44
f 218/634/48 10/227/49 11/228/50
f 218/634/48 11/228/50 115/436/51
f 218/634/48 115/436/51 114/435/52
f 218/634/48 114/435/52 10/227/49
f 219/635/53 11/229/54 12/230/55
f 219/635/53 12/230/55 116/438/56
f 219/635/53 116/438/56 115/437/57
f 219/635/53 115/437/57 11/229/54
f 220/636/58 12/231/59 13/232/60
f 220/636/58 13/232/60 117/440/61
f 220/636/58 117/440/61 116/439/62
f 220/636/58 116/439/62 12/231/59
f 221/637/63 13/233/64 14/234/65
f 221/637/63 14/234/65 118/442/66
f 221/637/63 118/442/66 117/441/67
f 221/637/63 117/441/67 13/233/64
f 222/638/68 14/235/69 15/236/70
f 222/638/68 15/236/70 119/444/71
f 222/638/68 119/444/71 118/443/72
f 222/638/68 118/443/72 14/235/69
f 223/639/73 15/237/74 16/238/75
f 223/639/73 16/238/75 120/446/76
f 223/639/73 120/446/76 119/445/77
f 223/639/73 119/445/77 15/237/74
f 224/640/78 16/239/79 17/240/80
f 224/640/78 17/240/80 121/448/81
f 224/640/78 121/448/81 120/447/82
f 224/640/78 120/447/82 16/239/79
f 225/641/83 17/241/84 18/242/85
f 225/641/83 18/242/85 122/450/86
f 225/641/83 122/450/86 121/449/87
f 225/641/83 121/449/87 17/241/84
f 226/642/88 18/243/89 19/244/90
f 226/642/88 19/244/90 123/452/91
f 226/642/88 123/452/91 122/451/92
f 226/642/88 122/451/92 18/243/89
f 227/643/93 19/245/94 20/246/95
f 227/643/93 20/246/95 124/454/96
f 227/643/93 124/454/96 123/453/97
f 227/643/93 123/453/97 19/245/94
f 228/644/98 20/247/99 21/248/100
f 228/644/98 21/248/100 125/456/101
f 228/644/98 125/456/101 124/455/102
f 228/644/98 124/455/102 20/247/99
f 229/645/103 21/249/104 22/250/105
f 229/645/103 22/250/105 126/458/106
f 229/645/103 126/458/106 125/457/107
f 229/645/103 125/457/107 21/249/104
f 230/646/108 22/251/109 23/252/110
f 230/646/108 23/252/110 127/460/111
f 230/646/108 127/460/111 126/459/112
f 230/646/108 126/459/112 22/251/109
f 231/647/113 23/253/114 24/254/115
f 231/647/113 24/254/115 128/462/116
f 231/647/113 128/462/116 127/461/117
f 231/647/113 127/461/117 23/253/114
f 232/648/118 24/255/119 25/256/120
f 232/648/118 25/256/120 129/464/121
f 232/648/118 129/464/121 128/463/122
f 232/648/118 128/463/122 24/255/119
f 233/649/123 25/257/124 26/258/125
f 233/649/123 26/258/125 130/466/126
f 233/649/123 130/466/126 129/465/127
f 233/649/123 129/465/127 25/257/124
f 234/650/128 26/259/129 27/260/130
f 234/650/128 27/260/130 131/468/131
f 234/650/128 131/468/131 130/467/132
f 234/650/128 130/467/132 26/259/129
f 235/651/133 27/261/134 28/262/135
f 235/651/133 28/262/135 132/470/136
f 235/651/133 132/470/136 131/469/137
f 235/651/133 131/469/137 27/261/134
f 236/652/138 28/263/139 29/264/140
f 236/652/138 29/264/140 133/472/141
f 236/652/138 133/472/141 132/471/142
f 236/652/138 132/471/142 28/263/139
f 237/653/143 29/265/144 30/266/145
f 237/653/143 30/266/145 134/474/146
f 237/653/143 134/474/146 133/473/147
f 237/653/143 133/473/147 29/265/144
f 238/654/148 30/267/149 31/268/150
f 238/654/148 31/268/150 135/476/151
f 238/654/148 135/476/151 134/475/152
f 238/654/148 134/475/152 30/267/149
f 239/655/153 31/269/154 32/270/155
f 239/655/153 32/270/155 136/478/156
f 239/655/153 136/478/156 135/477/157
f 239/655/153 135/477/157 31/269/154
f 240/656/158 32/271/159 33/272/160
f 240/656/158 33/272/160 137/480/161
f 240/656/158 137/480/161 136/479/162
f 240/656/158 136/479/162 32/271/159
f 241/657/163 33/273/164 34/274/165
f 241/657/163 34/274/165 138/482/166
f 241/657/163 138/482/166 137/481/167
f 241/657/163 137/481/167 33/273/164
f 242/658/168 34/275/169 35/276/170
f 242/658/168 35/276/170 139/484/171
f 242/658/168 139/484/171 138/483/172
f 242/658/168 138/483/172 34/275/169
f 243/659/173 35/277/174 36/278/175
f 243/659/173 36/278/175 140/486/176
f 243/659/173 140/486/176 139/485/177
f 243/659/173 139/485/177 35/277/174
f 244/660/178 36/279/179 37/280/180
f 244/660/178 37/280/180 141/488/181
f 244/660/178 141/488/181 140/487/182
f 244/660/178 140/487/182 36/279/179
f 245/661/183 37/281/184 38/282/185
f 245/661/183 38/282/185 142/490/186
f 245/661/183 142/490/186 141/489/187
f 245/661/183 141/489/187 37/281/184
f 246/662/188 38/283/189 39/284/190
f 246/662/188 39/284/190 143/492/191
f 246/662/188 143/492/191 142/491/192
f 246/662/188 142/491/192 38/283/189
f 247/663/193 39/285/194 40/286/195
f 247/663/193 40/286/195 144/494/196
f 247/663/193 144/494/196 143/493/197
f 247/663/193 143/493/197 39/285/194
f 248/664/198 40/287/199 41/288/200
f 248/664/198 41/288/200 145/496/201
f 248/664/198 145/496/201 144/495/202
f 248/664/198 144/495/202 40/287/199
f 249/665/203 41/289/204 42/290/205
f 249/665/203 42/290/205 146/498/206
f 249/665/203 146/498/206 145/497/207
f 249/665/203 145/497/207 41/289/204
f 250/666/208 42/291/209 43/292/210
f 250/666/208 43/292/210 147/500/211
f 250/666/208 147/500/211 146/499/212
f 250/666/208 146/499/212 42/291/209
f 251/667/213 43/293/214 44/294/215
f 251/667/213 44/294/215 148/502/216
f 251/667/213 148/502/216 147/501/217
f 251/667/213 147/501/217 43/293/214
f 252/668/218 44/295/219 45/296/220
f 252/668/218 45/296/220 149/504/221
f 252/668/218 149/504/221 148/503/222
f 252/668/218 148/503/222 44/295/219
f 253/669/223 45/297/224 46/298/225
f 253/669/223 46/298/225 150/506/226
f 253/669/223 150/506/226 149/505/227
f 253/669/223 149/505/227 45/297/224
f 254/670/228 46/299/229 47/300/230
f 254/670/228 47/300/230 151/508/231
f 254/670/228 151/508/231 150/507/232
f 254/670/228 150/507/232 46/299/229
f 255/671/233 47/301/234 48/302/235
f 255/671/233 48/302/235 152/510/236
f 255/671/233 152/510/236 151/509/237
f 255/671/233 151/509/237 47/301/234
f 256/672/238 48/303/239 49/304/240
f 256/672/238 49/304/240 153/512/241
f 256/672/238 153/512/241 152/511/242
f 256/672/238 152/511/242 48/303/239
f 257/673/243 49/305/244 50/306/245
f 257/673/243 50/306/245 154/514/246
f 257/673/243 154/514/246 153/513/247
f 257/673/243 153/513/247 49/305/244
f 258/674/248 50/307/249 51/308/250
f 258/674/248 51/308/250 155/516/251
f 258/674/248 155/516/251 154/515/252
f 258/674/248 154/515/252 50/307/249
f 259/675/253 51/309/254 52/310/255
f 259/675/253 52/310/255 156/518/256
f 259/675/253 156/518/256 155/517/257
f 259/675/253 155/517/257 51/309/254
f 260/676/258 52/311/259 53/312/260
f 260/676/258 53/312/260 157/520/261
f 260/676/258 157/520/261 156/519/262
f 260/676/258 156/519/262 52/311/259
f 261/677/263 53/313/264 54/314/265
f 261/677/263 54/314/265 158/522/266
f 261/677/263 158/522/266 157/521/267
f 261/677/263 157/521/267 53/313/264
f 262/678/268 54/315/269 55/316/270
f 262/678/268 55/316/270 159/524/271
f 262/678/268 159/524/271 158/523/272
f 262/678/268 158/523/272 54/315/269
f 263/679/273 55/317/274 56/318/275
f 263/679/273 56/318/275 160/526/276
f 263/679/273 160/526/276 159/525/277
f 263/679/273 159/525/277 55/317/274
f 264/680/278 56/319/279 57/320/280
f 264/680/278 57/320/280 161/528/281
f 264/680/278 161/528/281 160/527/282
f 264/680/278 160/527/282 56/319/279
f 265/681/283 57/321/284 58/322/285
f 265/681/283 58/322/285 162/530/286
f 265/681/283 162/530/286 161/529/287
f 265/681/283 161/529/287 57/321/284
f 266/682/288 58/323/289 59/324/290
f 266/682/288 59/324/290 163/532/291
f 266/682/288 163/532/291 162/531/292
f 266/682/288 162/531/292 58/323/289
f 267/683/293 59/325/294 60/326/295
f 267/683/293 60/326/295 164/534/296
f 267/683/293 164/534/296 163/533/297
f 267/683/293 163/533/297 59/325/294
f 268/684/298 60/327/299 61/328/300
f 268/684/298 61/328/300 165/536/301
f 268/684/298 165/536/301 164/535/302
f 268/684/298 164/535/302 60/327/299
f 269/685/303 61/329/304 62/330/305
f 269/685/303 62/330/305 166/538/306
f 269/685/303 166/538/306 165/537/307
f 269/685/303 165/537/307 61/329/304
f 270/686/308 62/331/309 63/332/310
f 270/686/308 63/332/310 167/540/311
f 270/686/308 167/540/311 166/539/312
f 270/686/308 166/539/312 62/331/309
f 271/687/313 63/333/314 64/334/315
f 271/687/313 64/334/315 168/542/316
f 271/687/313 168/542/316 167/541/317
f 271/687/313 167/541/317 63/333/314
f 272/688/318 64/335/319 65/336/320
f 272/688/318 65/336/320 169/544/321
f 272/688/318 169/544/321 168/543/322
f 272/688/318 168/543/322 64/335/319
f 273/689/323 65/337/324 66/338/325
f 273/689/323 66/338/325 170/546/326
f 273/689/323 170/546/326 169/545/327
f 273/689/323 169/545/327 65/337/324
f 274/690/328 66/339/329 67/340/330
f 274/690/328 67/340/330 171/548/331
f 274/690/328 171/548/331 170/547/332
f 274/690/328 170/547/332 66/339/329
f 275/691/333 67/341/334 68/342/335
f 275/691/333 68/342/335 172/550/336
f 275/691/333 172/550/336 171/549/337
f 275/691/333 171/549/337 67/341/334
f 276/692/338 68/343/339 69/344/340
f 276/692/338 69/344/340 173/552/341
f 276/692/338 173/552/341 172/551/342
f 276/692/338 172/551/342 68/343/339
f 277/693/343 69/345/344 70/346/345
f 277/693/343 70/346/345 174/554/346
f 277/693/343 174/554/346 173/553/347
f 277/693/343 173/553/347 69/345/344
f 278/694/348 70/347/349 71/348/350
f 278/694/348 71/348/350 175/556/351
f 278/694/348 175/556/351 174/555/352
f 278/694/348 174/555/352 70/347/349
f 279/695/353 71/349/354 72/350/355
f 279/695/353 72/350/355 176/558/356
f 279/695/353 176/558/356 175/557/357
f 279/695/353 175/557/357 71/349/354
f 280/696/358 72/351/359 73/352/360
f 280/696/358 73/352/360 177/560/361
f 280/696/358 177/560/361 176/559/362
f 280/696/358 176/559/362 72/351/359
f 281/697/363 73/353/364 74/354/365
f 281/697/363 74/354/365 178/562/366
f 281/697/363 178/562/366 177/561/367
f 281/697/363 177/561/367 73/353/364
f 282/698/368 74/355/369 75/356/370
f 282/698/368 75/356/370 179/564/371
f 282/698/368 179/564/371 178/563/372
f 282/698/368 178/563/372 74/355/369
f 283/699/373 75/357/374 76/358/375
f 283/699/373 76/358/375 180/566/376
f 283/699/373 180/566/376 179/565/377
f 283/699/373 179/565/377 75/357/374
f 284/700/378 76/359/379 77/360/380
f 284/700/378 77/360/380 181/568/381
f 284/700/378 181/568/381 180/567/382
f 284/700/378 180/567/382 76/359/379
f 285/701/383 77/361/384 78/362/385
f 285/701/383 78/362/385 182/570/386
f 285/701/383 182/570/386 181/569/387
f 285/701/383 181/569/387 77/361/384
f 286/702/388 78/363/389 79/364/390
f 286/702/388 79/364/390 183/572/391
f 286/702/388 183/572/391 182/571/392
f 286/702/388 182/571/392 78/363/389
f 287/703/393 79/365/394 80/366/395
f 287/703/393 80/366/395 184/574/396
f 287/703/393 184/574/396 183/573/397
f 287/703/393 183/573/397 79/365/394
f 288/704/398 80/367/399 81/368/400
f 288/704/398 81/368/400 185/576/401
f 288/704/398 185/576/401 184/575/402
f 288/704/398 184/575/402 80/367/399
f 289/705/403 81/369/404 82/370/405
f 289/705/403 82/370/405 186/578/406
f 289/705/403 186/578/406 185/577/407
f 289/705/403 185/577/407 81/369/404
f 290/706/408 82/371/409 83/372/410
f 290/706/408 83/372/410 187/580/411
f 290/706/408 187/580/411 186/579/412
f 290/706/408 186/579/412 82/371/409
f 291/707/413 83/373/414 84/374/415
f 291/707/413 84/374/415 188/582/416
f 291/707/413 188/582/416 187/581/417
f 291/707/413 187/581/417 83/373/414
f 292/708/418 84/375/419 85/376/420
f 292/708/418 85/376/420 189/584/421
f 292/708/418 189/584/421 188/583/422
f 292/708/418 188/583/422 84/375/419
f 293/709/423 85/377/424 86/378/425
f 293/709/423 86/378/425 190/586/426
f 293/709/423 190/586/426 189/585/427
f 293/709/423 189/585/427 85/377/424
f 294/710/428 86/379/429 87/380/430
f 294/710/428 87/380/430 191/588/431
f 294/710/428 191/588/431 190/587/432
f 294/710/428 190/587/432 86/379/429
f 295/711/433 87/381/434 88/382/435
f 295/711/433 88/382/435 192/590/436
f 295/711/433 192/590/436 191/589/437
f 295/711/433 191/589/437 87/381/434
f 296/712/438 88/383/439 89/384/440
f 296/712/438 89/384/440 193/592/441
f 296/712/438 193/592/441 192/591/442
f 296/712/438 192/591/442 88/383/439
f 297/713/443 89/385/444 90/386/445
f 297/713/443 90/386/445 194/594/446
f 297/713/443 194/594/446 193/593/447
f 297/713/443 193/593/447 89/385/444
f 298/714/448 90/387/449 91/388/450
f 298/714/448 91/388/450 195/596/451
f 298/714/448 195/596/451 194/595/452
f 298/714/448 194/595/452 90/387/449
f 299/715/453 91/389/454 92/390/455
f 299/715/453 92/390/455 196/598/456
f 299/715/453 196/598/456 195/597/457
f 299/715/453 195/597/457 91/389/454
f 300/716/458 92/391/459 93/392/460
f 300/716/458 93/392/460 197/600/461
f 300/716/458 197/600/461 196/599/462
f 300/716/458 196/599/462 92/391/459
f 301/717/463 93/393/464 94/394/465
f 301/717/463 94/394/465 198/602/466
f 301/717/463 198/602/466 197/601/467
f 301/717/463 197/601/467 93/393/464
f 302/718/468 94/395/469 95/396/470
f 302/718/468 95/396/470 199/604/471
f 302/718/468 199/604/471 198/603/472
f 302/718/468 198/603/472 94/395/469
f 303/719/473 95/397/474 96/398/475
f 303/719/473 96/398/475 200/606/476
f 303/719/473 200/606/476 199/605/477
f 303/719/473 199/605/477 95/397/474
f 304/720/478 96/399/479 97/400/480
f 304/720/478 97/400/480 201/608/481
f 304/720/478 201/608/481 200/607/482
f 304/720/478 200/607/482 96/399/479
f 305/721/483 97/401/484 98/402/485
f 305/721/483 98/402/485 202/610/486
f 305/721/483 202/610/486 201/609/487
f 305/721/483 201/609/487 97/401/484
f 306/722/488 98/403/489 99/404/490
f 306/722/488 99/404/490 203/612/491
f 306/722/488 203/612/491 202/611/492
f 306/722/488 202/611/492 98/403/489
f 307/723/493 99/405/494 100/406/495
f 307/723/493 100/406/495 204/614/496
f 307/723/493 204/614/496 203/613/497
f 307/723/493 203/613/497 99/405/494
f 308/724/498 100/407/499 101/408/500
f 308/724/498 101/408/500 205/616/501
f 308/724/498 205/616/501 204/615/502
f 308/724/498 204/615/502 100/407/499
f 309/725/503 101/409/504 102/410/505
f 309/725/503 102/410/505 206/618/506
f 309/725/503 206/618/506 205/617/507
f 309/725/503 205/617/507 101/409/504
f 310/726/508 102/411/509 103/412/510
f 310/726/508 103/412/510 207/620/511
f 310/726/508 207/620/511 206/619/512
f 310/726/508 206/619/512 102/411/509
f 311/727/513 103/413/514 104/414/515
f 311/727/513 104/414/515 208/622/516
f 311/727/513 208/622/516 207/621/517
f 311/727/513 207/621/517 103/413/514
f 312/728/518 104/415/519 1/416/520
f 312/728/518 1/416/520 105/624/521
f 312/728/518 105/624/521 208/623/522
f 312/728/518 208/623/522 104/415/519
