mtllib Snap-lok12.mtl
# Vertex Positions: 
g groupNumber_0
v 13.9823 -0.82718 -16.9263
v 13.9813 -0.810142 -16.9263
v 13.8072 0.7892 -16.9263
v 13.799 0.828286 -16.9263
v 13.7842 0.864243 -16.9263
v 13.7634 0.896429 -16.9263
v 13.7373 0.924203 -16.9263
v 13.7068 0.946923 -16.9263
v 13.6725 0.963945 -16.9263
v 13.6351 0.97463 -16.9263
v 13.5953 0.978334 -16.9263
v 13.0722 0.978334 -16.9263
v 13.0341 0.97495 -16.9263
v 12.9982 0.965157 -16.9263
v 12.9649 0.949494 -16.9263
v 12.935 0.928502 -16.9263
v 12.9092 0.902719 -16.9263
v 12.888 0.872685 -16.9263
v 12.8721 0.83894 -16.9263
v 12.8622 0.802024 -16.9263
v 12.6386 -0.527673 -16.9263
v 12.6293 -0.562904 -16.9263
v 12.6144 -0.595112 -16.9263
v 12.5945 -0.62378 -16.9263
v 12.57 -0.648392 -16.9263
v 12.5416 -0.668433 -16.9263
v 12.5101 -0.683387 -16.9263
v 12.4758 -0.692737 -16.9263
v 12.4395 -0.695968 -16.9263
v 10.8932 -0.695968 -16.9263
v 10.6702 -0.955375 -16.9263
v 6.11336 -0.955375 -16.9263
v 5.9753 -0.79032 -16.9263
v 3.06315 -0.79032 -16.9263
v 2.9525 -0.955375 -16.9263
v -1.74113 -0.955375 -16.9263
v -1.87702 -0.766741 -16.9263
v -4.67136 -0.766741 -16.9263
v -4.81011 -0.955375 -16.9263
v -9.50902 -0.955375 -16.9263
v -9.54684 -0.947723 -16.9263
v -9.57776 -0.926866 -16.9263
v -9.59862 -0.895952 -16.9263
v -9.60627 -0.858128 -16.9263
v -9.60346 -0.83495 -16.9263
v -9.59535 -0.813382 -16.9263
v -9.58241 -0.794322 -16.9263
v -9.56509 -0.778668 -16.9263
v -9.22523 -0.538808 -16.9263
v -9.20141 -0.517195 -16.9263
v -9.18373 -0.490958 -16.9263
v -9.17273 -0.461426 -16.9263
v -9.16894 -0.429926 -16.9263
v -9.17109 -0.406191 -16.9263
v -9.29566 0.274592 -16.9263
v -9.30498 0.308361 -16.9263
v -9.31974 0.339234 -16.9263
v -9.33934 0.366715 -16.9263
v -9.36319 0.39031 -16.9263
v -9.39069 0.409524 -16.9263
v -9.42125 0.42386 -16.9263
v -9.45427 0.432826 -16.9263
v -9.48917 0.435924 -16.9263
v -9.51264 0.440672 -16.9263
v -9.53183 0.453615 -16.9263
v -9.54478 0.472798 -16.9263
v -9.54953 0.496268 -16.9263
v -9.55912 0.591062 -16.9263
v -9.5866 0.67941 -16.9263
v -9.63007 0.759403 -16.9263
v -9.68762 0.829132 -16.9263
v -9.75735 0.886688 -16.9263
v -9.83734 0.930163 -16.9263
v -9.92569 0.957648 -16.9263
v -10.0205 0.967234 -16.9263
v -10.1006 0.960158 -16.9263
v -10.1766 0.939674 -16.9263
v -10.2472 0.906902 -16.9263
v -10.3109 0.862961 -16.9263
v -10.3665 0.808967 -16.9263
v -10.4126 0.74604 -16.9263
v -10.4476 0.675298 -16.9263
v -10.4704 0.597859 -16.9263
v -10.6061 -0.608546 -16.9263
v -10.621 -0.68022 -16.9263
v -10.6481 -0.746157 -16.9263
v -10.6862 -0.80518 -16.9263
v -10.7339 -0.856111 -16.9263
v -10.7898 -0.897773 -16.9263
v -10.8527 -0.92899 -16.9263
v -10.9213 -0.948583 -16.9263
v -10.9941 -0.955375 -16.9263
v -13.9823 -0.955375 -16.9263
v -13.9823 -0.978334 -16.9263
v -10.9941 -0.978334 -16.9263
v -10.917 -0.971141 -16.9263
v -10.8444 -0.950393 -16.9263
v -10.7778 -0.917338 -16.9263
v -10.7186 -0.873223 -16.9263
v -10.6681 -0.819294 -16.9263
v -10.6278 -0.756798 -16.9263
v -10.5991 -0.686984 -16.9263
v -10.5833 -0.611097 -16.9263
v -10.4477 0.594326 -16.9263
v -10.4262 0.667579 -16.9263
v -10.3929 0.734548 -16.9263
v -10.3492 0.794159 -16.9263
v -10.2964 0.845339 -16.9263
v -10.2358 0.887013 -16.9263
v -10.1688 0.91811 -16.9263
v -10.0966 0.937555 -16.9263
v -10.0205 0.944275 -16.9263
v -9.9303 0.935157 -16.9263
v -9.84626 0.909013 -16.9263
v -9.77017 0.867658 -16.9263
v -9.70385 0.812908 -16.9263
v -9.6491 0.746579 -16.9263
v -9.60775 0.670486 -16.9263
v -9.58161 0.586444 -16.9263
v -9.57249 0.496268 -16.9263
v -9.56593 0.463874 -16.9263
v -9.54805 0.437391 -16.9263
v -9.52157 0.419522 -16.9263
v -9.48917 0.412965 -16.9263
v -9.45834 0.410229 -16.9263
v -9.42917 0.402311 -16.9263
v -9.40218 0.389648 -16.9263
v -9.37789 0.372677 -16.9263
v -9.35682 0.351836 -16.9263
v -9.33951 0.327561 -16.9263
v -9.32647 0.300288 -16.9263
v -9.31824 0.270455 -16.9263
v -9.19367 -0.410328 -16.9263
v -9.19189 -0.42999 -16.9263
v -9.19502 -0.456054 -16.9263
v -9.20413 -0.480488 -16.9263
v -9.21876 -0.502188 -16.9263
v -9.23847 -0.520055 -16.9263
v -9.57833 -0.759915 -16.9263
v -9.59973 -0.77926 -16.9263
v -9.61573 -0.802829 -16.9263
v -9.62576 -0.829495 -16.9263
v -9.62923 -0.858128 -16.9263
v -9.61977 -0.904877 -16.9263
v -9.59398 -0.94309 -16.9263
v -9.55577 -0.968874 -16.9263
v -9.50902 -0.978334 -16.9263
v -4.79849 -0.978334 -16.9263
v -4.65974 -0.7897 -16.9263
v -1.88878 -0.7897 -16.9263
v -1.75288 -0.978334 -16.9263
v 2.96477 -0.978334 -16.9263
v 3.07543 -0.813279 -16.9263
v 5.96458 -0.813279 -16.9263
v 6.10268 -0.978334 -16.9263
v 10.6808 -0.978334 -16.9263
v 10.9038 -0.718927 -16.9263
v 12.4395 -0.718927 -16.9263
v 12.4799 -0.715328 -16.9263
v 12.5181 -0.704911 -16.9263
v 12.5533 -0.688254 -16.9263
v 12.5848 -0.66593 -16.9263
v 12.6121 -0.638514 -16.9263
v 12.6343 -0.606581 -16.9263
v 12.6509 -0.570707 -16.9263
v 12.6612 -0.531465 -16.9263
v 12.8848 0.798128 -16.9263
v 12.8937 0.831049 -16.9263
v 12.9078 0.861143 -16.9263
v 12.9267 0.887929 -16.9263
v 12.9498 0.910925 -16.9263
v 12.9765 0.929649 -16.9263
v 13.0061 0.94362 -16.9263
v 13.0382 0.952356 -16.9263
v 13.0722 0.955375 -16.9263
v 13.5953 0.955375 -16.9263
v 13.6308 0.95207 -16.9263
v 13.6642 0.942537 -16.9263
v 13.6948 0.92735 -16.9263
v 13.7221 0.907081 -16.9263
v 13.7453 0.882305 -16.9263
v 13.7638 0.853595 -16.9263
v 13.7771 0.821524 -16.9263
v 13.7844 0.786666 -16.9263
v 13.9585 -0.812693 -16.9263
v 13.951 -0.872761 -16.9263
v 13.9268 -0.91256 -16.9263
v 13.9067 -0.930725 -16.9263
v 13.8835 -0.944167 -16.9263
v 13.8581 -0.95251 -16.9263
v 13.8312 -0.955375 -16.9263
v 13.5632 -0.955375 -16.9263
v 13.5632 -0.978334 -16.9263
v 13.8312 -0.978334 -16.9263
v 13.8629 -0.974956 -16.9263
v 13.8929 -0.965118 -16.9263
v 13.9203 -0.949262 -16.9263
v 13.9439 -0.927832 -16.9263
v 13.9724 -0.880903 -16.9263
v 13.9823 -0.82718 16.9263
v 13.9813 -0.810142 16.9263
v 13.8072 0.7892 16.9263
v 13.799 0.828286 16.9263
v 13.7842 0.864243 16.9263
v 13.7634 0.896429 16.9263
v 13.7373 0.924203 16.9263
v 13.7068 0.946923 16.9263
v 13.6725 0.963945 16.9263
v 13.6351 0.97463 16.9263
v 13.5953 0.978334 16.9263
v 13.0722 0.978334 16.9263
v 13.0341 0.97495 16.9263
v 12.9982 0.965157 16.9263
v 12.9649 0.949494 16.9263
v 12.935 0.928502 16.9263
v 12.9092 0.902719 16.9263
v 12.888 0.872685 16.9263
v 12.8721 0.83894 16.9263
v 12.8622 0.802024 16.9263
v 12.6386 -0.527673 16.9263
v 12.6293 -0.562904 16.9263
v 12.6144 -0.595112 16.9263
v 12.5945 -0.62378 16.9263
v 12.57 -0.648392 16.9263
v 12.5416 -0.668433 16.9263
v 12.5101 -0.683387 16.9263
v 12.4758 -0.692737 16.9263
v 12.4395 -0.695968 16.9263
v 10.8932 -0.695968 16.9263
v 10.6702 -0.955375 16.9263
v 6.11336 -0.955375 16.9263
v 5.9753 -0.79032 16.9263
v 3.06315 -0.79032 16.9263
v 2.9525 -0.955375 16.9263
v -1.74113 -0.955375 16.9263
v -1.87702 -0.766741 16.9263
v -4.67136 -0.766741 16.9263
v -4.81011 -0.955375 16.9263
v -9.50902 -0.955375 16.9263
v -9.54684 -0.947723 16.9263
v -9.57776 -0.926866 16.9263
v -9.59862 -0.895952 16.9263
v -9.60627 -0.858128 16.9263
v -9.60346 -0.83495 16.9263
v -9.59535 -0.813382 16.9263
v -9.58241 -0.794322 16.9263
v -9.56509 -0.778668 16.9263
v -9.22523 -0.538808 16.9263
v -9.20141 -0.517195 16.9263
v -9.18373 -0.490958 16.9263
v -9.17273 -0.461426 16.9263
v -9.16894 -0.429926 16.9263
v -9.17109 -0.406191 16.9263
v -9.29566 0.274592 16.9263
v -9.30498 0.308361 16.9263
v -9.31974 0.339234 16.9263
v -9.33934 0.366715 16.9263
v -9.36319 0.39031 16.9263
v -9.39069 0.409524 16.9263
v -9.42125 0.42386 16.9263
v -9.45427 0.432826 16.9263
v -9.48917 0.435924 16.9263
v -9.51264 0.440672 16.9263
v -9.53183 0.453615 16.9263
v -9.54478 0.472798 16.9263
v -9.54953 0.496268 16.9263
v -9.55912 0.591062 16.9263
v -9.5866 0.67941 16.9263
v -9.63007 0.759403 16.9263
v -9.68762 0.829132 16.9263
v -9.75735 0.886688 16.9263
v -9.83734 0.930163 16.9263
v -9.92569 0.957648 16.9263
v -10.0205 0.967234 16.9263
v -10.1006 0.960158 16.9263
v -10.1766 0.939674 16.9263
v -10.2472 0.906902 16.9263
v -10.3109 0.862961 16.9263
v -10.3665 0.808967 16.9263
v -10.4126 0.74604 16.9263
v -10.4476 0.675298 16.9263
v -10.4704 0.597859 16.9263
v -10.6061 -0.608546 16.9263
v -10.621 -0.68022 16.9263
v -10.6481 -0.746157 16.9263
v -10.6862 -0.80518 16.9263
v -10.7339 -0.856111 16.9263
v -10.7898 -0.897773 16.9263
v -10.8527 -0.92899 16.9263
v -10.9213 -0.948583 16.9263
v -10.9941 -0.955375 16.9263
v -13.9823 -0.955375 16.9263
v -13.9823 -0.978334 16.9263
v -10.9941 -0.978334 16.9263
v -10.917 -0.971141 16.9263
v -10.8444 -0.950393 16.9263
v -10.7778 -0.917338 16.9263
v -10.7186 -0.873223 16.9263
v -10.6681 -0.819294 16.9263
v -10.6278 -0.756798 16.9263
v -10.5991 -0.686984 16.9263
v -10.5833 -0.611097 16.9263
v -10.4477 0.594326 16.9263
v -10.4262 0.667579 16.9263
v -10.3929 0.734548 16.9263
v -10.3492 0.794159 16.9263
v -10.2964 0.845339 16.9263
v -10.2358 0.887013 16.9263
v -10.1688 0.91811 16.9263
v -10.0966 0.937555 16.9263
v -10.0205 0.944275 16.9263
v -9.9303 0.935157 16.9263
v -9.84626 0.909013 16.9263
v -9.77017 0.867658 16.9263
v -9.70385 0.812908 16.9263
v -9.6491 0.746579 16.9263
v -9.60775 0.670486 16.9263
v -9.58161 0.586444 16.9263
v -9.57249 0.496268 16.9263
v -9.56593 0.463874 16.9263
v -9.54805 0.437391 16.9263
v -9.52157 0.419522 16.9263
v -9.48917 0.412965 16.9263
v -9.45834 0.410229 16.9263
v -9.42917 0.402311 16.9263
v -9.40218 0.389648 16.9263
v -9.37789 0.372677 16.9263
v -9.35682 0.351836 16.9263
v -9.33951 0.327561 16.9263
v -9.32647 0.300288 16.9263
v -9.31824 0.270455 16.9263
v -9.19367 -0.410328 16.9263
v -9.19189 -0.42999 16.9263
v -9.19502 -0.456054 16.9263
v -9.20413 -0.480488 16.9263
v -9.21876 -0.502188 16.9263
v -9.23847 -0.520055 16.9263
v -9.57833 -0.759915 16.9263
v -9.59973 -0.77926 16.9263
v -9.61573 -0.802829 16.9263
v -9.62576 -0.829495 16.9263
v -9.62923 -0.858128 16.9263
v -9.61977 -0.904877 16.9263
v -9.59398 -0.94309 16.9263
v -9.55577 -0.968874 16.9263
v -9.50902 -0.978334 16.9263
v -4.79849 -0.978334 16.9263
v -4.65974 -0.7897 16.9263
v -1.88878 -0.7897 16.9263
v -1.75288 -0.978334 16.9263
v 2.96477 -0.978334 16.9263
v 3.07543 -0.813279 16.9263
v 5.96458 -0.813279 16.9263
v 6.10268 -0.978334 16.9263
v 10.6808 -0.978334 16.9263
v 10.9038 -0.718927 16.9263
v 12.4395 -0.718927 16.9263
v 12.4799 -0.715328 16.9263
v 12.5181 -0.704911 16.9263
v 12.5533 -0.688254 16.9263
v 12.5848 -0.66593 16.9263
v 12.6121 -0.638514 16.9263
v 12.6343 -0.606581 16.9263
v 12.6509 -0.570707 16.9263
v 12.6612 -0.531465 16.9263
v 12.8848 0.798128 16.9263
v 12.8937 0.831049 16.9263
v 12.9078 0.861143 16.9263
v 12.9267 0.887929 16.9263
v 12.9498 0.910925 16.9263
v 12.9765 0.929649 16.9263
v 13.0061 0.94362 16.9263
v 13.0382 0.952356 16.9263
v 13.0722 0.955375 16.9263
v 13.5953 0.955375 16.9263
v 13.6308 0.95207 16.9263
v 13.6642 0.942537 16.9263
v 13.6948 0.92735 16.9263
v 13.7221 0.907081 16.9263
v 13.7453 0.882305 16.9263
v 13.7638 0.853595 16.9263
v 13.7771 0.821524 16.9263
v 13.7844 0.786666 16.9263
v 13.9585 -0.812693 16.9263
v 13.951 -0.872761 16.9263
v 13.9268 -0.91256 16.9263
v 13.9067 -0.930725 16.9263
v 13.8835 -0.944167 16.9263
v 13.8581 -0.95251 16.9263
v 13.8312 -0.955375 16.9263
v 13.5632 -0.955375 16.9263
v 13.5632 -0.978334 16.9263
v 13.8312 -0.978334 16.9263
v 13.8629 -0.974956 16.9263
v 13.8929 -0.965118 16.9263
v 13.9203 -0.949262 16.9263
v 13.9439 -0.927832 16.9263
v 13.9724 -0.880903 16.9263
v 13.9818 -0.818661 0
v 13.8943 -0.0104711 0
v 13.8031 0.808743 0
v 13.7916 0.846264 0
v 13.7738 0.880336 0
v 13.7504 0.910316 0
v 13.7221 0.935563 0
v 13.6896 0.955434 0
v 13.6538 0.969288 0
v 13.6152 0.976482 0
v 13.3337 0.978334 0
v 13.0532 0.976642 0
v 13.0161 0.970053 0
v 12.9815 0.957325 0
v 12.95 0.938998 0
v 12.9221 0.91561 0
v 12.8986 0.887702 0
v 12.8801 0.855813 0
v 12.8671 0.820482 0
v 12.7504 0.137175 0
v 12.634 -0.545289 0
v 12.6219 -0.579008 0
v 12.6044 -0.609446 0
v 12.5822 -0.636086 0
v 12.5558 -0.658412 0
v 12.5259 -0.67591 0
v 12.4929 -0.688062 0
v 12.4577 -0.694353 0
v 11.6664 -0.695968 0
v 10.7817 -0.825672 0
v 8.3918 -0.955375 0
v 6.04433 -0.872848 0
v 4.51923 -0.79032 0
v 3.00782 -0.872848 0
v 0.605684 -0.955375 0
v -1.80907 -0.861058 0
v -3.27419 -0.766741 0
v -4.74073 -0.861058 0
v -7.15957 -0.955375 0
v -9.52793 -0.951549 0
v -9.5623 -0.937295 0
v -9.58819 -0.911409 0
v -9.60245 -0.87704 0
v -9.60487 -0.846539 0
v -9.59941 -0.824166 0
v -9.58888 -0.803852 0
v -9.57375 -0.786495 0
v -9.39516 -0.658738 0
v -9.21332 -0.528001 0
v -9.19257 -0.504076 0
v -9.17823 -0.476192 0
v -9.17083 -0.445676 0
v -9.17002 -0.418059 0
v -9.23337 -0.0657997 0
v -9.30032 0.291477 0
v -9.31236 0.323797 0
v -9.32954 0.352975 0
v -9.35127 0.378513 0
v -9.37694 0.399917 0
v -9.40597 0.416692 0
v -9.43776 0.428343 0
v -9.47172 0.434375 0
v -9.50091 0.438298 0
v -9.52224 0.447144 0
v -9.53831 0.463207 0
v -9.54715 0.484533 0
v -9.55432 0.543665 0
v -9.57286 0.635236 0
v -9.60833 0.719407 0
v -9.65885 0.794268 0
v -9.72249 0.85791 0
v -9.79734 0.908426 0
v -9.88151 0.943906 0
v -9.97308 0.962441 0
v -10.0605 0.963696 0
v -10.1386 0.949916 0
v -10.2119 0.923288 0
v -10.2791 0.884931 0
v -10.3387 0.835964 0
v -10.3895 0.777503 0
v -10.4301 0.710669 0
v -10.459 0.636579 0
v -10.5383 -0.00534326 0
v -10.6136 -0.644383 0
v -10.6346 -0.713189 0
v -10.6672 -0.775669 0
v -10.71 -0.830646 0
v -10.7618 -0.876942 0
v -10.8212 -0.913382 0
v -10.887 -0.938786 0
v -10.9577 -0.951979 0
v -12.4882 -0.955375 0
v -13.9823 -0.966855 0
v -12.4882 -0.978334 0
v -10.9556 -0.974738 0
v -10.8807 -0.960767 0
v -10.8111 -0.933866 0
v -10.7482 -0.89528 0
v -10.6933 -0.846258 0
v -10.648 -0.788046 0
v -10.6134 -0.721891 0
v -10.5912 -0.64904 0
v -10.5155 -0.00838547 0
v -10.437 0.630953 0
v -10.4095 0.701064 0
v -10.371 0.764354 0
v -10.3228 0.819749 0
v -10.2661 0.866176 0
v -10.2023 0.902561 0
v -10.1327 0.927832 0
v -10.0585 0.940915 0
v -9.97539 0.939716 0
v -9.88828 0.922085 0
v -9.80822 0.888335 0
v -9.73701 0.840283 0
v -9.67647 0.779744 0
v -9.62842 0.708532 0
v -9.59468 0.628465 0
v -9.57705 0.541356 0
v -9.56921 0.480071 0
v -9.55699 0.450632 0
v -9.53481 0.428456 0
v -9.50537 0.416243 0
v -9.47376 0.411597 0
v -9.44376 0.40627 0
v -9.41567 0.395979 0
v -9.39003 0.381163 0
v -9.36735 0.362257 0
v -9.34817 0.339698 0
v -9.33299 0.313924 0
v -9.32235 0.285372 0
v -9.25595 -0.0699364 0
v -9.19278 -0.420159 0
v -9.19345 -0.443022 0
v -9.19957 -0.468271 0
v -9.21144 -0.491338 0
v -9.22861 -0.511121 0
v -9.4084 -0.639985 0
v -9.58903 -0.769588 0
v -9.60773 -0.791045 0
v -9.62075 -0.816162 0
v -9.6275 -0.843811 0
v -9.6245 -0.881502 0
v -9.60687 -0.923983 0
v -9.57487 -0.955982 0
v -9.5324 -0.973604 0
v -7.15376 -0.978334 0
v -4.72912 -0.884017 0
v -3.27426 -0.7897 0
v -1.82083 -0.884017 0
v 0.605942 -0.978334 0
v 3.0201 -0.895806 0
v 4.52 -0.813279 0
v 6.03363 -0.895806 0
v 8.39173 -0.978334 0
v 10.7923 -0.848631 0
v 11.6716 -0.718927 0
v 12.4597 -0.717127 0
v 12.499 -0.710119 0
v 12.5357 -0.696583 0
v 12.569 -0.677092 0
v 12.5984 -0.652222 0
v 12.6232 -0.622548 0
v 12.6426 -0.588644 0
v 12.656 -0.551086 0
v 12.773 0.133332 0
v 12.8892 0.814588 0
v 12.9008 0.846096 0
v 12.9173 0.874536 0
v 12.9383 0.899427 0
v 12.9631 0.920287 0
v 12.9913 0.936635 0
v 13.0222 0.947988 0
v 13.0552 0.953866 0
v 13.3337 0.955375 0
v 13.613 0.953723 0
v 13.6475 0.947304 0
v 13.6795 0.934943 0
v 13.7084 0.917215 0
v 13.7337 0.894693 0
v 13.7546 0.86795 0
v 13.7705 0.83756 0
v 13.7807 0.804095 0
v 13.8715 -0.0130134 0
v 13.9547 -0.842727 0
v 13.9389 -0.892661 0
v 13.9168 -0.921642 0
v 13.8951 -0.937446 0
v 13.8708 -0.948339 0
v 13.8446 -0.953943 0
v 13.6972 -0.955375 0
v 13.5632 -0.966855 0
v 13.6972 -0.978334 0
v 13.847 -0.976645 0
v 13.8779 -0.970037 0
v 13.9066 -0.95719 0
v 13.9321 -0.938547 0
v 13.9582 -0.904367 0
v 13.9774 -0.854042 0


# Vertex Texture Coordinates :
vt 0.396721 0.00214435
vt 0.396707 0.00238606
vt 0.394237 0.0250752
vt 0.394121 0.0256297
vt 0.39391 0.0261398
vt 0.393615 0.0265964
vt 0.393246 0.0269904
vt 0.392812 0.0273127
vt 0.392325 0.0275542
vt 0.391795 0.0277058
vt 0.391231 0.0277583
vt 0.383809 0.0277583
vt 0.38327 0.0277103
vt 0.382759 0.0275714
vt 0.382288 0.0273492
vt 0.381864 0.0270514
vt 0.381497 0.0266856
vt 0.381197 0.0262596
vt 0.380971 0.0257808
vt 0.38083 0.0252571
vt 0.377658 0.00639332
vt 0.377527 0.00589351
vt 0.377316 0.0054366
vt 0.377032 0.0050299
vt 0.376685 0.00468074
vt 0.376283 0.00439642
vt 0.375835 0.00418428
vt 0.375349 0.00405163
vt 0.374834 0.00400579
vt 0.352897 0.00400579
vt 0.349734 0.000325706
vt 0.285088 0.000325706
vt 0.283129 0.00266727
vt 0.241816 0.00266727
vt 0.240246 0.000325706
vt 0.17366 0.000325706
vt 0.171732 0.00300177
vt 0.13209 0.00300177
vt 0.130122 0.000325706
vt 0.0634603 0.000325706
vt 0.0629238 0.000434259
vt 0.0624852 0.000730148
vt 0.0621893 0.00116872
vt 0.0620807 0.00170531
vt 0.0621205 0.00203412
vt 0.0622356 0.00234009
vt 0.0624192 0.00261049
vt 0.0626649 0.00283256
vt 0.0674864 0.00623536
vt 0.0678242 0.00654197
vt 0.0680751 0.00691418
vt 0.0682312 0.00733314
vt 0.0682849 0.00778001
vt 0.0682544 0.00811672
vt 0.0664872 0.0177747
vt 0.0663549 0.0182537
vt 0.0661455 0.0186917
vt 0.0658675 0.0190816
vt 0.0655292 0.0194163
vt 0.065139 0.0196889
vt 0.0647055 0.0198923
vt 0.064237 0.0200195
vt 0.063742 0.0200634
vt 0.063409 0.0201308
vt 0.0631368 0.0203144
vt 0.0629531 0.0205865
vt 0.0628857 0.0209195
vt 0.0627497 0.0222643
vt 0.0623598 0.0235177
vt 0.0617431 0.0246525
vt 0.0609266 0.0256417
vt 0.0599374 0.0264582
vt 0.0588026 0.027075
vt 0.0575493 0.0274649
vt 0.0562045 0.0276009
vt 0.0550685 0.0275005
vt 0.05399 0.0272099
vt 0.0529886 0.026745
vt 0.0520838 0.0261216
vt 0.0512952 0.0253556
vt 0.0506423 0.0244629
vt 0.0501446 0.0234593
vt 0.0498217 0.0223607
vt 0.0478963 0.00524601
vt 0.047685 0.0042292
vt 0.0473001 0.00329378
vt 0.0467603 0.00245645
vt 0.0460842 0.00173392
vt 0.0452907 0.00114288
vt 0.0443982 0.000700026
vt 0.0434257 0.000422069
vt 0.0423916 0.000325706
vt 0 0.000325706
vt 0 0
vt 0.0423916 0
vt 0.0434864 0.000102044
vt 0.0445161 0.000396381
vt 0.045461 0.000865319
vt 0.0463012 0.00149117
vt 0.047017 0.00225623
vt 0.0475885 0.00314283
vt 0.0479961 0.00413325
vt 0.0482199 0.00520982
vt 0.050143 0.0223106
vt 0.050449 0.0233498
vt 0.0509213 0.0242999
vt 0.0515412 0.0251455
vt 0.0522901 0.0258716
vt 0.0531495 0.0264628
vt 0.0541008 0.026904
vt 0.0551253 0.0271798
vt 0.0562045 0.0272752
vt 0.0574838 0.0271458
vt 0.058676 0.0267749
vt 0.0597555 0.0261882
vt 0.0606964 0.0254115
vt 0.0614731 0.0244705
vt 0.0620597 0.023391
vt 0.0624306 0.0221988
vt 0.0625599 0.0209195
vt 0.062653 0.0204599
vt 0.0629066 0.0200842
vt 0.0632824 0.0198307
vt 0.063742 0.0197377
vt 0.0641793 0.0196989
vt 0.0645931 0.0195866
vt 0.0649761 0.0194069
vt 0.0653207 0.0191662
vt 0.0656195 0.0188705
vt 0.0658651 0.0185261
vt 0.0660501 0.0181392
vt 0.0661669 0.017716
vt 0.0679341 0.00805804
vt 0.0679594 0.0077791
vt 0.0679149 0.00740934
vt 0.0677857 0.00706271
vt 0.0675781 0.00675486
vt 0.0672986 0.0065014
vt 0.0624771 0.00309861
vt 0.0621735 0.00282417
vt 0.0619465 0.0024898
vt 0.0618042 0.00211152
vt 0.061755 0.00170531
vt 0.0618892 0.00104211
vt 0.0622551 0.00049999
vt 0.0627972 0.000134205
vt 0.0634603 0
vt 0.130286 0
vt 0.132255 0.00267607
vt 0.171565 0.00267607
vt 0.173493 0
vt 0.24042 0
vt 0.24199 0.00234156
vt 0.282977 0.00234156
vt 0.284936 0
vt 0.349884 0
vt 0.353047 0.00368008
vt 0.374834 0.00368008
vt 0.375408 0.00373115
vt 0.375948 0.00387892
vt 0.376448 0.00411523
vt 0.376895 0.00443193
vt 0.377282 0.00482087
vt 0.377598 0.00527388
vt 0.377833 0.00578282
vt 0.377979 0.00633952
vt 0.381151 0.0252018
vt 0.381277 0.0256689
vt 0.381478 0.0260958
vt 0.381746 0.0264758
vt 0.382073 0.026802
vt 0.382452 0.0270677
vt 0.382872 0.0272659
vt 0.383328 0.0273898
vt 0.383809 0.0274326
vt 0.391231 0.0274326
vt 0.391734 0.0273857
vt 0.392208 0.0272505
vt 0.392642 0.0270351
vt 0.393029 0.0267475
vt 0.393358 0.026396
vt 0.393622 0.0259887
vt 0.39381 0.0255338
vt 0.393913 0.0250392
vt 0.396383 0.00234987
vt 0.396276 0.00149771
vt 0.395933 0.000933103
vt 0.395649 0.000675413
vt 0.39532 0.000484707
vt 0.394959 0.00036635
vt 0.394577 0.000325706
vt 0.390775 0.000325706
vt 0.390775 0
vt 0.394577 0
vt 0.395027 4.79191e-05
vt 0.395453 0.000187489
vt 0.395841 0.000412428
vt 0.396176 0.000716455
vt 0.396581 0.00138221
vt 0.402632 0.00214435
vt 0.402646 0.00238606
vt 0.405116 0.0250752
vt 0.405232 0.0256297
vt 0.405443 0.0261398
vt 0.405738 0.0265964
vt 0.406107 0.0269904
vt 0.406541 0.0273127
vt 0.407028 0.0275542
vt 0.407558 0.0277058
vt 0.408122 0.0277583
vt 0.415544 0.0277583
vt 0.416084 0.0277103
vt 0.416594 0.0275714
vt 0.417065 0.0273492
vt 0.417489 0.0270514
vt 0.417856 0.0266856
vt 0.418157 0.0262596
vt 0.418382 0.0257808
vt 0.418523 0.0252571
vt 0.421695 0.00639332
vt 0.421826 0.00589351
vt 0.422037 0.0054366
vt 0.422321 0.0050299
vt 0.422668 0.00468074
vt 0.42307 0.00439642
vt 0.423518 0.00418428
vt 0.424004 0.00405163
vt 0.424519 0.00400579
vt 0.446456 0.00400579
vt 0.449619 0.000325706
vt 0.514265 0.000325706
vt 0.516224 0.00266727
vt 0.557537 0.00266727
vt 0.559107 0.000325706
vt 0.625693 0.000325706
vt 0.627621 0.00300177
vt 0.667263 0.00300177
vt 0.669231 0.000325706
vt 0.735893 0.000325706
vt 0.736429 0.000434259
vt 0.736868 0.000730148
vt 0.737164 0.00116872
vt 0.737272 0.00170531
vt 0.737233 0.00203412
vt 0.737118 0.00234009
vt 0.736934 0.00261049
vt 0.736688 0.00283256
vt 0.731867 0.00623536
vt 0.731529 0.00654197
vt 0.731278 0.00691418
vt 0.731122 0.00733314
vt 0.731068 0.00778001
vt 0.731099 0.00811672
vt 0.732866 0.0177747
vt 0.732998 0.0182537
vt 0.733208 0.0186917
vt 0.733486 0.0190816
vt 0.733824 0.0194163
vt 0.734214 0.0196889
vt 0.734648 0.0198923
vt 0.735116 0.0200195
vt 0.735611 0.0200634
vt 0.735944 0.0201308
vt 0.736216 0.0203144
vt 0.7364 0.0205865
vt 0.736467 0.0209195
vt 0.736603 0.0222643
vt 0.736993 0.0235177
vt 0.73761 0.0246525
vt 0.738427 0.0256417
vt 0.739416 0.0264582
vt 0.74055 0.027075
vt 0.741804 0.0274649
vt 0.743149 0.0276009
vt 0.744285 0.0275005
vt 0.745363 0.0272099
vt 0.746365 0.026745
vt 0.747269 0.0261216
vt 0.748058 0.0253556
vt 0.748711 0.0244629
vt 0.749209 0.0234593
vt 0.749531 0.0223607
vt 0.751457 0.00524601
vt 0.751668 0.0042292
vt 0.752053 0.00329378
vt 0.752593 0.00245645
vt 0.753269 0.00173392
vt 0.754062 0.00114288
vt 0.754955 0.000700026
vt 0.755927 0.000422069
vt 0.756962 0.000325706
vt 0.799353 0.000325706
vt 0.799353 0
vt 0.756962 0
vt 0.755867 0.000102044
vt 0.754837 0.000396381
vt 0.753892 0.000865319
vt 0.753052 0.00149117
vt 0.752336 0.00225623
vt 0.751765 0.00314283
vt 0.751357 0.00413325
vt 0.751133 0.00520982
vt 0.74921 0.0223106
vt 0.748904 0.0233498
vt 0.748432 0.0242999
vt 0.747812 0.0251455
vt 0.747063 0.0258716
vt 0.746204 0.0264628
vt 0.745252 0.026904
vt 0.744228 0.0271798
vt 0.743149 0.0272752
vt 0.741869 0.0271458
vt 0.740677 0.0267749
vt 0.739598 0.0261882
vt 0.738657 0.0254115
vt 0.73788 0.0244705
vt 0.737293 0.023391
vt 0.736923 0.0221988
vt 0.736793 0.0209195
vt 0.7367 0.0204599
vt 0.736447 0.0200842
vt 0.736071 0.0198307
vt 0.735611 0.0197377
vt 0.735174 0.0196989
vt 0.73476 0.0195866
vt 0.734377 0.0194069
vt 0.734032 0.0191662
vt 0.733734 0.0188705
vt 0.733488 0.0185261
vt 0.733303 0.0181392
vt 0.733186 0.017716
vt 0.731419 0.00805804
vt 0.731394 0.0077791
vt 0.731438 0.00740934
vt 0.731567 0.00706271
vt 0.731775 0.00675486
vt 0.732055 0.0065014
vt 0.736876 0.00309861
vt 0.73718 0.00282417
vt 0.737407 0.0024898
vt 0.737549 0.00211152
vt 0.737598 0.00170531
vt 0.737464 0.00104211
vt 0.737098 0.00049999
vt 0.736556 0.000134205
vt 0.735893 0
vt 0.669067 0
vt 0.667098 0.00267607
vt 0.627788 0.00267607
vt 0.62586 0
vt 0.558933 0
vt 0.557363 0.00234156
vt 0.516376 0.00234156
vt 0.514417 0
vt 0.449469 0
vt 0.446306 0.00368008
vt 0.424519 0.00368008
vt 0.423946 0.00373115
vt 0.423405 0.00387892
vt 0.422906 0.00411523
vt 0.422458 0.00443193
vt 0.422071 0.00482087
vt 0.421755 0.00527388
vt 0.42152 0.00578282
vt 0.421375 0.00633952
vt 0.418202 0.0252018
vt 0.418076 0.0256689
vt 0.417875 0.0260958
vt 0.417607 0.0264758
vt 0.41728 0.026802
vt 0.416902 0.0270677
vt 0.416481 0.0272659
vt 0.416025 0.0273898
vt 0.415544 0.0274326
vt 0.408122 0.0274326
vt 0.407619 0.0273857
vt 0.407146 0.0272505
vt 0.406711 0.0270351
vt 0.406324 0.0267475
vt 0.405995 0.026396
vt 0.405731 0.0259887
vt 0.405544 0.0255338
vt 0.40544 0.0250392
vt 0.40297 0.00234987
vt 0.403077 0.00149771
vt 0.40342 0.000933103
vt 0.403704 0.000675413
vt 0.404033 0.000484707
vt 0.404395 0.00036635
vt 0.404776 0.000325706
vt 0.408578 0.000325706
vt 0.408578 0
vt 0.404776 0
vt 0.404326 4.79191e-05
vt 0.4039 0.000187489
vt 0.403512 0.000412428
vt 0.403177 0.000716455
vt 0.402772 0.00138221
vt 2.93083e-05 0.0336356
vt 0.000271415 0.0336356
vt 0.0230946 0.0336356
vt 0.0236611 0.0336356
vt 0.0242131 0.0336356
vt 0.0247567 0.0336356
vt 0.0252967 0.0336356
vt 0.0258367 0.0336356
vt 0.0263803 0.0336356
vt 0.0269322 0.0336356
vt 0.0274987 0.0336356
vt 0.03492 0.0336356
vt 0.035462 0.0336356
vt 0.0359909 0.0336356
vt 0.0365122 0.0336356
vt 0.0370301 0.0336356
vt 0.0375481 0.0336356
vt 0.0380695 0.0336356
vt 0.0385987 0.0336356
vt 0.039141 0.0336356
vt 0.0582697 0.0336356
vt 0.0587863 0.0336356
vt 0.0592898 0.0336356
vt 0.0597856 0.0336356
vt 0.060278 0.0336356
vt 0.0607703 0.0336356
vt 0.0612662 0.0336356
vt 0.0617697 0.0336356
vt 0.0622863 0.0336356
vt 0.0842235 0.0336356
vt 1.13678e-05 0.519749
vt 0.00486406 0.519749
vt 0.0107999 0.519749
vt 0.0754462 0.519749
vt 0.0901963 0.0336356
vt 0.093249 0.0336356
vt 0.0992057 0.0336356
vt 0.140519 0.0336356
vt 0.0814022 0.519749
vt 0.0842213 0.519749
vt 0.146425 0.0336356
vt 0.213011 0.0336356
vt 0.099219 0.519749
vt 0.102517 0.519749
vt 0.146472 0.519749
vt 0.186114 0.519749
vt 0.192068 0.519749
vt 0.19539 0.519749
vt 0.218896 0.0336356
vt 0.285557 0.0336356
vt 0.286105 0.0336356
vt 0.286634 0.0336356
vt 0.287163 0.0336356
vt 0.28771 0.0336356
vt 0.288041 0.0336356
vt 0.288368 0.0336356
vt 0.288695 0.0336356
vt 0.289026 0.0336356
vt 0.294928 0.0336356
vt 0.295384 0.0336356
vt 0.295833 0.0336356
vt 0.29628 0.0336356
vt 0.29673 0.0336356
vt 0.297068 0.0336356
vt 0.306886 0.0336356
vt 0.307383 0.0336356
vt 0.307869 0.0336356
vt 0.308348 0.0336356
vt 0.308824 0.0336356
vt 0.309299 0.0336356
vt 0.309778 0.0336356
vt 0.310264 0.0336356
vt 0.310761 0.0336356
vt 0.311101 0.0336356
vt 0.311429 0.0336356
vt 0.311757 0.0336356
vt 0.312097 0.0336356
vt 0.313449 0.0336356
vt 0.314761 0.0336356
vt 0.316053 0.0336356
vt 0.317335 0.0336356
vt 0.318618 0.0336356
vt 0.31991 0.0336356
vt 0.321222 0.0336356
vt 0.322574 0.0336356
vt 0.323714 0.0336356
vt 0.324831 0.0336356
vt 0.325935 0.0336356
vt 0.327034 0.0336356
vt 0.328133 0.0336356
vt 0.329239 0.0336356
vt 0.33036 0.0336356
vt 0.331505 0.0336356
vt 0.348727 0.0336356
vt 0.349766 0.0336356
vt 0.350777 0.0336356
vt 0.351774 0.0336356
vt 0.352763 0.0336356
vt 0.353753 0.0336356
vt 0.354749 0.0336356
vt 0.35576 0.0336356
vt 0.356799 0.0336356
vt 0.399191 0.0336356
vt 0.0901528 0.519749
vt 0.0904785 0.519749
vt 0.405123 0.0336356
vt 0.447515 0.0336356
vt 0.448615 0.0336356
vt 0.449686 0.0336356
vt 0.45074 0.0336356
vt 0.451788 0.0336356
vt 0.452836 0.0336356
vt 0.453891 0.0336356
vt 0.454962 0.0336356
vt 0.456061 0.0336356
vt 0.47327 0.0336356
vt 0.474353 0.0336356
vt 0.475414 0.0336356
vt 0.476463 0.0336356
vt 0.477506 0.0336356
vt 0.478549 0.0336356
vt 0.479597 0.0336356
vt 0.480658 0.0336356
vt 0.481742 0.0336356
vt 0.483028 0.0336356
vt 0.484276 0.0336356
vt 0.485505 0.0336356
vt 0.486725 0.0336356
vt 0.487945 0.0336356
vt 0.489174 0.0336356
vt 0.490422 0.0336356
vt 0.491708 0.0336356
vt 0.492177 0.0336356
vt 0.49263 0.0336356
vt 0.493083 0.0336356
vt 0.493552 0.0336356
vt 0.493991 0.0336356
vt 0.49442 0.0336356
vt 0.494843 0.0336356
vt 0.495264 0.0336356
vt 0.495684 0.0336356
vt 0.496107 0.0336356
vt 0.496536 0.0336356
vt 0.496975 0.0336356
vt 0.506793 0.0336356
vt 0.507073 0.0336356
vt 0.507446 0.0336356
vt 0.507816 0.0336356
vt 0.508187 0.0336356
vt 0.508564 0.0336356
vt 0.514466 0.0336356
vt 0.514875 0.0336356
vt 0.515279 0.0336356
vt 0.515683 0.0336356
vt 0.516092 0.0336356
vt 0.516769 0.0336356
vt 0.517423 0.0336356
vt 0.518077 0.0336356
vt 0.518754 0.0336356
vt 0.58558 0.0336356
vt 0.201331 0.519749
vt 0.204653 0.519749
vt 0.218922 0.519749
vt 0.258232 0.519749
vt 0.108482 0.519749
vt 0.11178 0.519749
vt 0.264148 0.519749
vt 0.331075 0.519749
vt 0.117749 0.519749
vt 0.120568 0.519749
vt 0.336973 0.519749
vt 0.377961 0.519749
vt 0.126543 0.519749
vt 0.129596 0.519749
vt 0.405074 0.519749
vt 0.470022 0.519749
vt 0.135551 0.519749
vt 0.140404 0.519749
vt 0.475941 0.519749
vt 0.497728 0.519749
vt 0.498304 0.519749
vt 0.498864 0.519749
vt 0.499417 0.519749
vt 0.499965 0.519749
vt 0.500513 0.519749
vt 0.501065 0.519749
vt 0.501626 0.519749
vt 0.502202 0.519749
vt 0.521329 0.519749
vt 0.521813 0.519749
vt 0.522285 0.519749
vt 0.52275 0.519749
vt 0.523212 0.519749
vt 0.523674 0.519749
vt 0.524139 0.519749
vt 0.524611 0.519749
vt 0.525095 0.519749
vt 0.532516 0.519749
vt 0.533021 0.519749
vt 0.533514 0.519749
vt 0.533999 0.519749
vt 0.534481 0.519749
vt 0.534962 0.519749
vt 0.535447 0.519749
vt 0.53594 0.519749
vt 0.536445 0.519749
vt 0.559268 0.519749
vt 0.560127 0.519749
vt 0.560788 0.519749
vt 0.561172 0.519749
vt 0.561552 0.519749
vt 0.561932 0.519749
vt 0.562316 0.519749
vt 0.566117 0.519749
vt 0.210567 0.519749
vt 0.210893 0.519749
vt 0.572088 0.519749
vt 0.57589 0.519749
vt 0.576342 0.519749
vt 0.576791 0.519749
vt 0.577239 0.519749
vt 0.577692 0.519749
vt 0.578471 0.519749
vt 0.579246 0.519749
vt 2.93083e-05 0.513887
vt 0.000271415 0.513887
vt 0.0230946 0.513887
vt 0.0236611 0.513887
vt 0.0242131 0.513887
vt 0.0247567 0.513887
vt 0.0252967 0.513887
vt 0.0258367 0.513887
vt 0.0263803 0.513887
vt 0.0269322 0.513887
vt 0.0274987 0.513887
vt 0.03492 0.513887
vt 0.035462 0.513887
vt 0.0359909 0.513887
vt 0.0365122 0.513887
vt 0.0370301 0.513887
vt 0.0375481 0.513887
vt 0.0380695 0.513887
vt 0.0385987 0.513887
vt 0.039141 0.513887
vt 0.0582697 0.513887
vt 0.0587863 0.513887
vt 0.0592898 0.513887
vt 0.0597856 0.513887
vt 0.060278 0.513887
vt 0.0607703 0.513887
vt 0.0612662 0.513887
vt 0.0617697 0.513887
vt 0.0622863 0.513887
vt 0.0842235 0.513887
vt 1.13678e-05 1
vt 0.00486406 1
vt 0.0107999 1
vt 0.0754462 1
vt 0.0901963 0.513887
vt 0.093249 0.513887
vt 0.0992057 0.513887
vt 0.140519 0.513887
vt 0.0814022 1
vt 0.0842213 1
vt 0.146425 0.513887
vt 0.213011 0.513887
vt 0.099219 1
vt 0.102517 1
vt 0.146472 1
vt 0.186114 1
vt 0.192068 1
vt 0.19539 1
vt 0.218896 0.513887
vt 0.285557 0.513887
vt 0.286105 0.513887
vt 0.286634 0.513887
vt 0.287163 0.513887
vt 0.28771 0.513887
vt 0.288041 0.513887
vt 0.288368 0.513887
vt 0.288695 0.513887
vt 0.289026 0.513887
vt 0.294928 0.513887
vt 0.295384 0.513887
vt 0.295833 0.513887
vt 0.29628 0.513887
vt 0.29673 0.513887
vt 0.297068 0.513887
vt 0.306886 0.513887
vt 0.307383 0.513887
vt 0.307869 0.513887
vt 0.308348 0.513887
vt 0.308824 0.513887
vt 0.309299 0.513887
vt 0.309778 0.513887
vt 0.310264 0.513887
vt 0.310761 0.513887
vt 0.311101 0.513887
vt 0.311429 0.513887
vt 0.311757 0.513887
vt 0.312097 0.513887
vt 0.313449 0.513887
vt 0.314761 0.513887
vt 0.316053 0.513887
vt 0.317335 0.513887
vt 0.318618 0.513887
vt 0.31991 0.513887
vt 0.321222 0.513887
vt 0.322574 0.513887
vt 0.323714 0.513887
vt 0.324831 0.513887
vt 0.325935 0.513887
vt 0.327034 0.513887
vt 0.328133 0.513887
vt 0.329239 0.513887
vt 0.33036 0.513887
vt 0.331505 0.513887
vt 0.348727 0.513887
vt 0.349766 0.513887
vt 0.350777 0.513887
vt 0.351774 0.513887
vt 0.352763 0.513887
vt 0.353753 0.513887
vt 0.354749 0.513887
vt 0.35576 0.513887
vt 0.356799 0.513887
vt 0.399191 0.513887
vt 0.0901528 1
vt 0.0904785 1
vt 0.405123 0.513887
vt 0.447515 0.513887
vt 0.448615 0.513887
vt 0.449686 0.513887
vt 0.45074 0.513887
vt 0.451788 0.513887
vt 0.452836 0.513887
vt 0.453891 0.513887
vt 0.454962 0.513887
vt 0.456061 0.513887
vt 0.47327 0.513887
vt 0.474353 0.513887
vt 0.475414 0.513887
vt 0.476463 0.513887
vt 0.477506 0.513887
vt 0.478549 0.513887
vt 0.479597 0.513887
vt 0.480658 0.513887
vt 0.481742 0.513887
vt 0.483028 0.513887
vt 0.484276 0.513887
vt 0.485505 0.513887
vt 0.486725 0.513887
vt 0.487945 0.513887
vt 0.489174 0.513887
vt 0.490422 0.513887
vt 0.491708 0.513887
vt 0.492177 0.513887
vt 0.49263 0.513887
vt 0.493083 0.513887
vt 0.493552 0.513887
vt 0.493991 0.513887
vt 0.49442 0.513887
vt 0.494843 0.513887
vt 0.495264 0.513887
vt 0.495684 0.513887
vt 0.496107 0.513887
vt 0.496536 0.513887
vt 0.496975 0.513887
vt 0.506793 0.513887
vt 0.507073 0.513887
vt 0.507446 0.513887
vt 0.507816 0.513887
vt 0.508187 0.513887
vt 0.508564 0.513887
vt 0.514466 0.513887
vt 0.514875 0.513887
vt 0.515279 0.513887
vt 0.515683 0.513887
vt 0.516092 0.513887
vt 0.516769 0.513887
vt 0.517423 0.513887
vt 0.518077 0.513887
vt 0.518754 0.513887
vt 0.58558 0.513887
vt 0.201331 1
vt 0.204653 1
vt 0.218922 1
vt 0.258232 1
vt 0.108482 1
vt 0.11178 1
vt 0.264148 1
vt 0.331075 1
vt 0.117749 1
vt 0.120568 1
vt 0.336973 1
vt 0.377961 1
vt 0.126543 1
vt 0.129596 1
vt 0.405074 1
vt 0.470022 1
vt 0.135551 1
vt 0.140404 1
vt 0.475941 1
vt 0.497728 1
vt 0.498304 1
vt 0.498864 1
vt 0.499417 1
vt 0.499965 1
vt 0.500513 1
vt 0.501065 1
vt 0.501626 1
vt 0.502202 1
vt 0.521329 1
vt 0.521813 1
vt 0.522285 1
vt 0.52275 1
vt 0.523212 1
vt 0.523674 1
vt 0.524139 1
vt 0.524611 1
vt 0.525095 1
vt 0.532516 1
vt 0.533021 1
vt 0.533514 1
vt 0.533999 1
vt 0.534481 1
vt 0.534962 1
vt 0.535447 1
vt 0.53594 1
vt 0.536445 1
vt 0.559268 1
vt 0.560127 1
vt 0.560788 1
vt 0.561172 1
vt 0.561552 1
vt 0.561932 1
vt 0.562316 1
vt 0.566117 1
vt 0.210567 1
vt 0.210893 1
vt 0.572088 1
vt 0.57589 1
vt 0.576342 1
vt 0.576791 1
vt 0.577239 1
vt 0.577692 1
vt 0.578471 1
vt 0.579246 1
vt 0.000150361 0.273761
vt 0.011683 0.273761
vt 0.0233779 0.273761
vt 0.0239371 0.273761
vt 0.0244849 0.273761
vt 0.0250267 0.273761
vt 0.0255667 0.273761
vt 0.0261085 0.273761
vt 0.0266563 0.273761
vt 0.0272154 0.273761
vt 0.0312093 0.273761
vt 0.035191 0.273761
vt 0.0357264 0.273761
vt 0.0362515 0.273761
vt 0.0367712 0.273761
vt 0.0372891 0.273761
vt 0.0378088 0.273761
vt 0.0383341 0.273761
vt 0.0388698 0.273761
vt 0.0487054 0.273761
vt 0.058528 0.273761
vt 0.059038 0.273761
vt 0.0595377 0.273761
vt 0.0600318 0.273761
vt 0.0605241 0.273761
vt 0.0610183 0.273761
vt 0.0615179 0.273761
vt 0.062028 0.273761
vt 0.0732549 0.273761
vt 0.00243771 0.759875
vt 0.043123 0.759875
vt 0.0917227 0.273761
vt 0.119862 0.273761
vt 0.0828117 0.759875
vt 0.179718 0.273761
vt 0.100868 0.759875
vt 0.166293 0.759875
vt 0.193729 0.759875
vt 0.252227 0.273761
vt 0.285831 0.273761
vt 0.286369 0.273761
vt 0.286898 0.273761
vt 0.287436 0.273761
vt 0.287876 0.273761
vt 0.288205 0.273761
vt 0.288532 0.273761
vt 0.288861 0.273761
vt 0.291977 0.273761
vt 0.295156 0.273761
vt 0.295608 0.273761
vt 0.296056 0.273761
vt 0.296505 0.273761
vt 0.296899 0.273761
vt 0.301977 0.273761
vt 0.307135 0.273761
vt 0.307626 0.273761
vt 0.308108 0.273761
vt 0.308586 0.273761
vt 0.309062 0.273761
vt 0.309539 0.273761
vt 0.310021 0.273761
vt 0.310512 0.273761
vt 0.310931 0.273761
vt 0.311265 0.273761
vt 0.311593 0.273761
vt 0.311927 0.273761
vt 0.312773 0.273761
vt 0.314105 0.273761
vt 0.315407 0.273761
vt 0.316694 0.273761
vt 0.317977 0.273761
vt 0.319264 0.273761
vt 0.320566 0.273761
vt 0.321898 0.273761
vt 0.323144 0.273761
vt 0.324273 0.273761
vt 0.325383 0.273761
vt 0.326485 0.273761
vt 0.327584 0.273761
vt 0.328686 0.273761
vt 0.3298 0.273761
vt 0.330932 0.273761
vt 0.340116 0.273761
vt 0.349247 0.273761
vt 0.350272 0.273761
vt 0.351276 0.273761
vt 0.352268 0.273761
vt 0.353258 0.273761
vt 0.354251 0.273761
vt 0.355255 0.273761
vt 0.35628 0.273761
vt 0.377995 0.273761
vt 0.0903157 0.759875
vt 0.426319 0.273761
vt 0.448065 0.273761
vt 0.44915 0.273761
vt 0.450213 0.273761
vt 0.451264 0.273761
vt 0.452312 0.273761
vt 0.453363 0.273761
vt 0.454426 0.273761
vt 0.455511 0.273761
vt 0.464665 0.273761
vt 0.473811 0.273761
vt 0.474884 0.273761
vt 0.475938 0.273761
vt 0.476984 0.273761
vt 0.478027 0.273761
vt 0.479073 0.273761
vt 0.480128 0.273761
vt 0.4812 0.273761
vt 0.482385 0.273761
vt 0.483652 0.273761
vt 0.484891 0.273761
vt 0.486115 0.273761
vt 0.487335 0.273761
vt 0.488559 0.273761
vt 0.489798 0.273761
vt 0.491065 0.273761
vt 0.491942 0.273761
vt 0.492404 0.273761
vt 0.492857 0.273761
vt 0.493318 0.273761
vt 0.493772 0.273761
vt 0.494206 0.273761
vt 0.494632 0.273761
vt 0.495053 0.273761
vt 0.495474 0.273761
vt 0.495896 0.273761
vt 0.496321 0.273761
vt 0.496755 0.273761
vt 0.501884 0.273761
vt 0.506933 0.273761
vt 0.507259 0.273761
vt 0.507631 0.273761
vt 0.508001 0.273761
vt 0.508376 0.273761
vt 0.511515 0.273761
vt 0.51467 0.273761
vt 0.515077 0.273761
vt 0.515481 0.273761
vt 0.515888 0.273761
vt 0.516431 0.273761
vt 0.517096 0.273761
vt 0.51775 0.273761
vt 0.518415 0.273761
vt 0.552167 0.273761
vt 0.202992 0.759875
vt 0.238577 0.759875
vt 0.110131 0.759875
vt 0.297612 0.759875
vt 0.119159 0.759875
vt 0.357467 0.759875
vt 0.12807 0.759875
vt 0.437548 0.759875
vt 0.137977 0.759875
vt 0.486834 0.759875
vt 0.498016 0.759875
vt 0.498584 0.759875
vt 0.49914 0.759875
vt 0.499691 0.759875
vt 0.500239 0.759875
vt 0.500789 0.759875
vt 0.501346 0.759875
vt 0.501914 0.759875
vt 0.511765 0.759875
vt 0.521571 0.759875
vt 0.522049 0.759875
vt 0.522517 0.759875
vt 0.522981 0.759875
vt 0.523443 0.759875
vt 0.523906 0.759875
vt 0.524375 0.759875
vt 0.524853 0.759875
vt 0.528805 0.759875
vt 0.532769 0.759875
vt 0.533268 0.759875
vt 0.533756 0.759875
vt 0.53424 0.759875
vt 0.534722 0.759875
vt 0.535205 0.759875
vt 0.535694 0.759875
vt 0.536192 0.759875
vt 0.547857 0.759875
vt 0.559698 0.759875
vt 0.560458 0.759875
vt 0.56098 0.759875
vt 0.561362 0.759875
vt 0.561742 0.759875
vt 0.562124 0.759875
vt 0.564217 0.759875
vt 0.21073 0.759875
vt 0.573989 0.759875
vt 0.576116 0.759875
vt 0.576567 0.759875
vt 0.577015 0.759875
vt 0.577465 0.759875
vt 0.578081 0.759875
vt 0.578858 0.759875


# Vertex Surface Normals: 
vn 0 0 1
vn 0 0 -1
vn 0.998393 0.0566608 0
vn 0.998046 -0.062489 -5.2246e-19
vn 0.996593 0.0824736 -2.46666e-17
vn 0.996593 0.0824736 2.46666e-17
vn 0.998046 -0.062489 5.2246e-19
vn 0.994126 0.108231 0
vn 0.987628 0.156817 -2.15583e-19
vn 0.987628 0.156817 2.15583e-19
vn 0.978756 0.205026 0
vn 0.955597 0.294675 -2.39003e-17
vn 0.955597 0.294675 2.39003e-17
vn 0.924246 0.381798 0
vn 0.885725 0.46421 -4.28586e-17
vn 0.885725 0.46421 4.28586e-17
vn 0.839875 0.54278 0
vn 0.787923 0.615774 -1.02984e-18
vn 0.787923 0.615774 1.02984e-18
vn 0.729647 0.683824 0
vn 0.665904 0.746037 3.2585e-17
vn 0.665904 0.746037 -3.2585e-17
vn 0.596878 0.802332 0
vn 0.522654 0.852545 1.74152e-17
vn 0.522654 0.852545 -1.74152e-17
vn 0.444233 0.895911 0
vn 0.360945 0.932587 -2.01785e-19
vn 0.360945 0.932587 2.01785e-19
vn 0.274666 0.96154 0
vn 0.184508 0.982831 9.89116e-20
vn 0.184508 0.982831 -9.89116e-20
vn 0.0927661 0.995688 0
vn 0.0464331 0.998921 3.04998e-18
vn 0.0464331 0.998921 -3.04998e-18
vn 0 1 0
vn -0.0443318 0.999017 2.17355e-18
vn -0.0443318 0.999017 -2.17355e-18
vn -0.0885765 0.996069 0
vn -0.176322 0.984333 -4.26907e-18
vn -0.176322 0.984333 4.26907e-18
vn -0.262685 0.964882 0
vn -0.345768 0.93832 -9.22887e-18
vn -0.345768 0.93832 9.22887e-18
vn -0.42622 0.90462 0
vn -0.502475 0.864592 -2.78031e-18
vn -0.502475 0.864592 2.78031e-18
vn -0.575003 0.818151 0
vn -0.64294 0.765917 1.7345e-17
vn -0.64294 0.765917 -1.7345e-17
vn -0.706155 0.708057 0
vn -0.764454 0.644678 3.7431e-17
vn -0.764454 0.644678 -3.7431e-17
vn -0.817084 0.576519 0
vn -0.864206 0.503139 1.87738e-17
vn -0.864206 0.503139 -1.87738e-17
vn -0.904755 0.425932 0
vn -0.938868 0.344277 -2.11002e-18
vn -0.938868 0.344277 2.11002e-18
vn -0.965629 0.259925 0
vn -0.977023 0.213134 -1.05269e-18
vn -0.977023 0.213134 1.05269e-18
vn -0.986151 0.165848 0
vn -0.977801 0.209536 -2.58463e-19
vn -0.977801 0.209536 2.58463e-19
vn -0.967516 0.252811 0
vn -0.941246 0.337721 -2.2288e-17
vn -0.941246 0.337721 2.2288e-17
vn -0.907541 0.419963 0
vn -0.867234 0.497901 -2.11953e-18
vn -0.867234 0.497901 2.11953e-18
vn -0.82025 0.572005 0
vn -0.767597 0.640932 1.99023e-17
vn -0.767597 0.640932 -1.99023e-17
vn -0.70917 0.705038 0
vn -0.64571 0.763583 -1.44577e-17
vn -0.64571 0.763583 1.44577e-17
vn -0.577437 0.816435 0
vn -0.504529 0.863395 -3.68402e-18
vn -0.504529 0.863395 3.68402e-18
vn -0.427827 0.903861 0
vn -0.346975 0.937874 1.05129e-17
vn -0.346975 0.937874 -1.05129e-17
vn -0.263453 0.964672 0
vn -0.176791 0.984248 2.18152e-18
vn -0.176791 0.984248 -2.18152e-18
vn -0.088734 0.996055 0
vn -0.0444108 0.999013 2.17506e-18
vn -0.0444108 0.999013 -2.17506e-18
vn 0 1 0
vn 0 1 0
vn 0 1 0
vn -0.75836 0.651836 0
vn -0.75836 0.651836 -3.78712e-17
vn -0.75836 0.651836 -3.78712e-17
vn -0.75836 0.651836 3.78712e-17
vn -0.75836 0.651836 3.78712e-17
vn 0 1 0
vn 0 1 0
vn 0 1 0
vn 0 1 0
vn 0 1 0
vn 0.767038 0.641601 0
vn 0.767038 0.641601 -1.03331e-18
vn 0.767038 0.641601 -1.03331e-18
vn 0.767038 0.641601 1.03331e-18
vn 0.767038 0.641601 1.03331e-18
vn 0 1 0
vn 0 1 0
vn 0 1 0
vn 0 1 0
vn 0 1 0
vn -0.830606 0.55686 0
vn -0.830606 0.55686 9.4021e-18
vn -0.830606 0.55686 9.4021e-18
vn -0.830606 0.55686 -9.4021e-18
vn -0.830606 0.55686 -9.4021e-18
vn 0 1 0
vn 0 1 0
vn 0 1 0
vn 0 1 0
vn 0 1 0
vn 0.811382 0.584516 0
vn 0.811382 0.584516 -1.08996e-17
vn 0.811382 0.584516 -1.08996e-17
vn 0.811382 0.584516 1.08996e-17
vn 0.811382 0.584516 1.08996e-17
vn 0 1 0
vn 0 1 0
vn 0 1 0
vn 0 1 0
vn 0 1 0
vn -0.805548 0.592531 0
vn -0.805548 0.592531 -1.87942e-17
vn -0.805548 0.592531 -1.87942e-17
vn -0.805548 0.592531 1.87942e-17
vn -0.805548 0.592531 1.87942e-17
vn 0 1 0
vn 0 1 0
vn 0.0996566 0.995022 0
vn 0.0996566 0.995022 0
vn 0 1 0
vn 0.198321 0.980137 0
vn 0.386264 0.922388 -1.26771e-17
vn 0.386264 0.922388 1.26771e-17
vn 0.559275 0.828982 0
vn 0.707071 0.707143 8.01675e-18
vn 0.707071 0.707143 -8.01675e-18
vn 0.828925 0.559359 0
vn 0.922364 0.386322 -3.90968e-18
vn 0.922364 0.386322 3.90968e-18
vn 0.980132 0.198345 0
vn 0.999218 0.0395441 -2.44486e-17
vn 0.999218 0.0395441 2.44486e-17
vn 0.992741 -0.120268 0
vn 0.971305 -0.237838 0
vn 0.971305 -0.237838 0
vn 0.935996 -0.35201 0
vn 0.887833 -0.460166 0
vn 0.887833 -0.460166 0
vn 0.827225 -0.561871 0
vn 0.754336 -0.656489 0
vn 0.754336 -0.656489 0
vn 0.670686 -0.741742 0
vn 0.624783 -0.780798 4.26774e-19
vn 0.624783 -0.780798 -4.26774e-19
vn 0.576612 -0.817018 0
vn 0.625484 -0.780237 1.70431e-17
vn 0.625484 -0.780237 -1.70431e-17
vn 0.672016 -0.740537 0
vn 0.756128 -0.654423 1.67062e-17
vn 0.756128 -0.654423 -1.67062e-17
vn 0.829284 -0.558827 0
vn 0.889376 -0.457176 -2.30596e-17
vn 0.889376 -0.457176 2.30596e-17
vn 0.937067 -0.349151 0
vn 0.971771 -0.235924 2.58908e-17
vn 0.971771 -0.235924 -2.58908e-17
vn 0.992848 -0.119389 0
vn 0.999892 -0.0146928 4.88771e-17
vn 0.999892 -0.0146928 -4.88771e-17
vn 0.995927 0.0901649 0
vn 0.990816 0.135215 2.37124e-17
vn 0.990816 0.135215 -2.37124e-17
vn 0.983669 0.179988 0
vn 0.974744 0.223323 2.37113e-17
vn 0.974744 0.223323 -2.37113e-17
vn 0.963912 0.266221 0
vn 0.936696 0.350143 -2.21728e-17
vn 0.936696 0.350143 2.21728e-17
vn 0.90219 0.431338 0
vn 0.861408 0.507913 1.78255e-17
vn 0.861408 0.507913 -1.78255e-17
vn 0.814143 0.580665 0
vn 0.76153 0.648129 2.27189e-17
vn 0.76153 0.648129 -2.27189e-17
vn 0.703344 0.71085 0
vn 0.640359 0.768076 -3.19145e-18
vn 0.640359 0.768076 3.19145e-18
vn 0.572737 0.819739 0
vn 0.500569 0.865697 3.65268e-18
vn 0.500569 0.865697 -3.65268e-18
vn 0.424737 0.905317 0
vn 0.344661 0.938727 -1.04292e-17
vn 0.344661 0.938727 1.04292e-17
vn 0.26199 0.96507 0
vn 0.175901 0.984408 2.17276e-18
vn 0.175901 0.984408 -2.17276e-18
vn 0.0884418 0.996081 0
vn 0.143579 0.989639 5.52884e-18
vn 0.143579 0.989639 -5.52884e-18
vn 0.198274 0.980147 0
vn 0.386186 0.922421 1.73704e-17
vn 0.386186 0.922421 -1.73704e-17
vn 0.559174 0.82905 0
vn 0.706981 0.707232 3.45918e-17
vn 0.706981 0.707232 -3.45918e-17
vn 0.828852 0.559468 0
vn 0.922327 0.38641 -3.78393e-18
vn 0.922327 0.38641 3.78393e-18
vn 0.98012 0.198404 0
vn 0.988734 0.149686 6.44455e-19
vn 0.988734 0.149686 -6.44455e-19
vn 0.994927 0.100601 0
vn 0.979832 0.199824 2.47576e-17
vn 0.979832 0.199824 -2.47576e-17
vn 0.954867 0.297035 0
vn 0.92118 0.389136 2.15853e-17
vn 0.92118 0.389136 -2.15853e-17
vn 0.878634 0.477495 0
vn 0.828756 0.55961 2.69756e-18
vn 0.828756 0.55961 -2.69756e-18
vn 0.771228 0.636559 0
vn 0.707124 0.707089 -8.66639e-19
vn 0.707124 0.707089 8.66639e-19
vn 0.636597 0.771196 0
vn 0.559647 0.828731 3.56779e-18
vn 0.559647 0.828731 -3.56779e-18
vn 0.477531 0.878615 0
vn 0.389167 0.921167 -7.16032e-18
vn 0.389167 0.921167 7.16032e-18
vn 0.29706 0.954859 0
vn 0.199842 0.979828 1.28326e-17
vn 0.199842 0.979828 -1.28326e-17
vn 0.10061 0.994926 0
vn 0.00632151 0.99998 5.53606e-18
vn 0.00632151 0.99998 -5.53606e-18
vn -0.0880229 0.996118 0
vn -0.174759 0.984611 2.96662e-18
vn -0.174759 0.984611 -2.96662e-18
vn -0.260158 0.965566 0
vn -0.341882 0.939743 1.33164e-17
vn -0.341882 0.939743 -1.33164e-17
vn -0.421094 0.907017 0
vn -0.495989 0.868329 1.0349e-17
vn -0.495989 0.868329 -1.0349e-17
vn -0.56736 0.82347 0
vn -0.634273 0.773109 1.49034e-17
vn -0.634273 0.773109 -1.49034e-17
vn -0.696738 0.717325 0
vn -0.754625 0.656157 1.66975e-17
vn -0.754625 0.656157 -1.66975e-17
vn -0.807159 0.590334 0
vn -0.854655 0.519197 3.13969e-18
vn -0.854655 0.519197 -3.13969e-18
vn -0.895897 0.444261 0
vn -0.931202 0.364504 1.34614e-18
vn -0.931202 0.364504 -1.34614e-18
vn -0.959422 0.281974 0
vn -0.980277 0.197629 1.44307e-19
vn -0.980277 0.197629 -1.44307e-19
vn -0.993731 0.111793 0
vn -0.98747 0.157805 6.76976e-20
vn -0.98747 0.157805 -6.76976e-20
vn -0.97908 0.203476 0
vn -0.956031 0.293264 2.26527e-17
vn -0.956031 0.293264 -2.26527e-17
vn -0.924768 0.380532 0
vn -0.886298 0.463115 4.33692e-17
vn -0.886298 0.463115 -4.33692e-17
vn -0.840473 0.541853 0
vn -0.788515 0.615015 2.06409e-17
vn -0.788515 0.615015 -2.06409e-17
vn -0.730208 0.683225 0
vn -0.666415 0.745581 6.41889e-19
vn -0.666415 0.745581 -6.41889e-19
vn -0.597318 0.802004 0
vn -0.523021 0.85232 -1.02762e-17
vn -0.523021 0.85232 1.02762e-17
vn -0.444513 0.895773 0
vn -0.361151 0.932507 -5.64032e-18
vn -0.361151 0.932507 5.64032e-18
vn -0.274792 0.961504 0
vn -0.184584 0.982817 5.27994e-18
vn -0.184584 0.982817 -5.27994e-18
vn -0.0927891 0.995686 0
vn -0.0464447 0.998921 0
vn -0.0464447 0.998921 0
vn 0 1 0
vn 0 1 0
vn 0 1 0
vn -1 0 0
vn -1 0 0
vn -1 0 0
vn -1 0 0
vn -1 0 0
vn 0 -1 0
vn 0 -1 0
vn 0.0464538 -0.99892 0
vn 0.0464538 -0.99892 0
vn 0 -1 0
vn 0.0928073 -0.995684 0
vn 0.184615 -0.982811 0
vn 0.184615 -0.982811 0
vn 0.274836 -0.961491 0
vn 0.361199 -0.932489 1.35491e-18
vn 0.361199 -0.932489 -1.35491e-18
vn 0.444564 -0.895747 0
vn 0.523068 -0.852291 -1.45206e-17
vn 0.523068 -0.852291 1.45206e-17
vn 0.597361 -0.801973 0
vn 0.666449 -0.745551 -1.53441e-17
vn 0.666449 -0.745551 1.53441e-17
vn 0.730234 -0.683197 0
vn 0.788533 -0.614993 5.30434e-19
vn 0.788533 -0.614993 -5.30434e-19
vn 0.840483 -0.541838 0
vn 0.886302 -0.463108 2.27222e-17
vn 0.886302 -0.463108 -2.27222e-17
vn 0.924767 -0.380534 0
vn 0.956029 -0.293272 4.68456e-17
vn 0.956029 -0.293272 -4.68456e-17
vn 0.979077 -0.203491 0
vn 0.987472 -0.157794 2.40424e-17
vn 0.987472 -0.157794 -2.40424e-17
vn 0.993736 -0.111757 0
vn 0.98023 -0.197861 -2.35543e-17
vn 0.98023 -0.197861 2.35543e-17
vn 0.959279 -0.282461 0
vn 0.930936 -0.365182 -2.35549e-17
vn 0.930936 -0.365182 2.35549e-17
vn 0.895476 -0.445111 0
vn 0.85413 -0.520059 1.7976e-17
vn 0.85413 -0.520059 -1.7976e-17
vn 0.806528 -0.591196 0
vn 0.75396 -0.65692 3.72583e-17
vn 0.75396 -0.65692 -3.72583e-17
vn 0.696052 -0.717991 0
vn 0.63363 -0.773637 1.92837e-17
vn 0.63363 -0.773637 -1.92837e-17
vn 0.566776 -0.823872 0
vn 0.495499 -0.868609 1.03297e-17
vn 0.495499 -0.868609 -1.03297e-17
vn 0.420713 -0.907194 0
vn 0.341603 -0.939844 1.32854e-17
vn 0.341603 -0.939844 -1.32854e-17
vn 0.259991 -0.965611 0
vn 0.174661 -0.984629 2.05748e-18
vn 0.174661 -0.984629 -2.05748e-18
vn 0.087996 -0.996121 0
vn -0.0063321 -0.99998 -6.41709e-18
vn -0.0063321 -0.99998 6.41709e-18
vn -0.100604 -0.994927 0
vn -0.199833 -0.97983 1.20082e-17
vn -0.199833 -0.97983 -1.20082e-17
vn -0.297049 -0.954862 0
vn -0.389158 -0.921171 5.79166e-18
vn -0.389158 -0.921171 -5.79166e-18
vn -0.477523 -0.878619 0
vn -0.559642 -0.828734 -1.17326e-17
vn -0.559642 -0.828734 1.17326e-17
vn -0.636595 -0.771198 0
vn -0.707125 -0.707088 -1.89405e-17
vn -0.707125 -0.707088 1.89405e-17
vn -0.771231 -0.636555 0
vn -0.828761 -0.559603 2.64831e-18
vn -0.828761 -0.559603 -2.64831e-18
vn -0.87864 -0.477485 0
vn -0.921185 -0.389125 4.50369e-17
vn -0.921185 -0.389125 -4.50369e-17
vn -0.95487 -0.297023 0
vn -0.979834 -0.199815 4.75837e-17
vn -0.979834 -0.199815 -4.75837e-17
vn -0.994927 -0.100595 0
vn -0.988731 -0.149706 2.37374e-17
vn -0.988731 -0.149706 -2.37374e-17
vn -0.980111 -0.19845 0
vn -0.922317 -0.386434 -2.01397e-17
vn -0.922317 -0.386434 2.01397e-17
vn -0.82885 -0.559471 0
vn -0.707016 -0.707198 -3.50569e-17
vn -0.707016 -0.707198 3.50569e-17
vn -0.559257 -0.828994 0
vn -0.386271 -0.922385 -1.03123e-17
vn -0.386271 -0.922385 1.03123e-17
vn -0.198356 -0.98013 0
vn -0.143612 -0.989634 4.86437e-18
vn -0.143612 -0.989634 -4.86437e-18
vn -0.0884237 -0.996083 0
vn -0.175871 -0.984413 1.48212e-18
vn -0.175871 -0.984413 -1.48212e-18
vn -0.26195 -0.965082 0
vn -0.34462 -0.938742 -1.03493e-17
vn -0.34462 -0.938742 1.03493e-17
vn -0.424695 -0.905336 0
vn -0.500536 -0.865716 2.23462e-18
vn -0.500536 -0.865716 -2.23462e-18
vn -0.572712 -0.819757 0
vn -0.640346 -0.768087 -3.20007e-18
vn -0.640346 -0.768087 3.20007e-18
vn -0.703341 -0.710852 0
vn -0.761539 -0.648119 2.7332e-18
vn -0.761539 -0.648119 -2.7332e-18
vn -0.814161 -0.58064 0
vn -0.861432 -0.507874 2.00001e-17
vn -0.861432 -0.507874 -2.00001e-17
vn -0.902217 -0.431283 0
vn -0.936721 -0.350077 4.0712e-19
vn -0.936721 -0.350077 -4.0712e-19
vn -0.963933 -0.266146 0
vn -0.974753 -0.223285 4.05932e-19
vn -0.974753 -0.223285 -4.05932e-19
vn -0.983669 -0.179988 0
vn -0.990806 -0.135289 2.44123e-17
vn -0.990806 -0.135289 -2.44123e-17
vn -0.995913 -0.0903137 0
vn -0.999893 0.0146384 2.45159e-17
vn -0.999893 0.0146384 -2.45159e-17
vn -0.992843 0.119429 0
vn -0.971753 0.236001 -2.31413e-17
vn -0.971753 0.236001 2.31413e-17
vn -0.937026 0.349261 0
vn -0.889294 0.457336 1.77438e-17
vn -0.889294 0.457336 -1.77438e-17
vn -0.829149 0.559028 0
vn -0.75589 0.654698 2.43319e-17
vn -0.75589 0.654698 -2.43319e-17
vn -0.671657 0.740862 0
vn -0.625295 0.780389 -3.23709e-18
vn -0.625295 0.780389 3.23709e-18
vn -0.576612 0.817018 0
vn -0.624752 0.780823 1.323e-17
vn -0.624752 0.780823 -1.323e-17
vn -0.670625 0.741796 0
vn -0.754367 0.656453 2.04004e-17
vn -0.754367 0.656453 -2.04004e-17
vn -0.827324 0.561725 0
vn -0.887883 0.460069 -2.67465e-18
vn -0.887883 0.460069 2.67465e-18
vn -0.936011 0.351971 0
vn -0.9713 0.237857 1.40213e-18
vn -0.9713 0.237857 -1.40213e-18
vn -0.992732 0.120349 0
vn -0.999219 -0.0395254 2.4455e-17
vn -0.999219 -0.0395254 -2.4455e-17
vn -0.980123 -0.198388 0
vn -0.92235 -0.386355 -2.08559e-17
vn -0.92235 -0.386355 2.08559e-17
vn -0.82891 -0.559382 0
vn -0.707078 -0.707136 -2.06709e-17
vn -0.707078 -0.707136 2.06709e-17
vn -0.559313 -0.828956 0
vn -0.386308 -0.92237 4.94835e-18
vn -0.386308 -0.92237 -4.94835e-18
vn -0.198369 -0.980127 0
vn -0.099681 -0.995019 4.877e-18
vn -0.099681 -0.995019 -4.877e-18
vn 0 -1 0
vn 0 -1 0
vn 0 -1 0
vn 0.805548 -0.592531 0
vn 0.805548 -0.592531 4.02462e-17
vn 0.805548 -0.592531 4.02462e-17
vn 0.805548 -0.592531 -4.02462e-17
vn 0.805548 -0.592531 -4.02462e-17
vn 0 -1 0
vn 0 -1 0
vn 0 -1 0
vn 0 -1 0
vn 0 -1 0
vn -0.811382 -0.584516 0
vn -0.811382 -0.584516 7.64887e-19
vn -0.811382 -0.584516 7.64887e-19
vn -0.811382 -0.584516 -7.64887e-19
vn -0.811382 -0.584516 -7.64887e-19
vn 0 -1 0
vn 0 -1 0
vn 0 -1 0
vn 0 -1 0
vn 0 -1 0
vn 0.830606 -0.55686 0
vn 0.830606 -0.55686 -1.1193e-17
vn 0.830606 -0.55686 -1.1193e-17
vn 0.830606 -0.55686 1.1193e-17
vn 0.830606 -0.55686 1.1193e-17
vn 0 -1 0
vn 0 -1 0
vn 0 -1 0
vn 0 -1 0
vn 0 -1 0
vn -0.766959 -0.641696 0
vn -0.766959 -0.641696 1.77712e-17
vn -0.766959 -0.641696 1.77712e-17
vn -0.766959 -0.641696 -1.77712e-17
vn -0.766959 -0.641696 -1.77712e-17
vn 0 -1 0
vn 0 -1 0
vn 0 -1 0
vn 0 -1 0
vn 0 -1 0
vn 0.75836 -0.651836 0
vn 0.75836 -0.651836 1.03757e-18
vn 0.75836 -0.651836 1.03757e-18
vn 0.75836 -0.651836 -1.03757e-18
vn 0.75836 -0.651836 -1.03757e-18
vn 0 -1 0
vn 0 -1 0
vn 0.0444241 -0.999013 2.17235e-18
vn 0.0444241 -0.999013 -2.17235e-18
vn 0 -1 0
vn 0.0887606 -0.996053 0
vn 0.17684 -0.98424 2.17881e-18
vn 0.17684 -0.98424 -2.17881e-18
vn 0.263523 -0.964653 0
vn 0.347057 -0.937844 0
vn 0.347057 -0.937844 0
vn 0.427921 -0.903816 0
vn 0.504625 -0.863339 1.41937e-17
vn 0.504625 -0.863339 -1.41937e-17
vn 0.577533 -0.816367 0
vn 0.6458 -0.763507 -2.95076e-18
vn 0.6458 -0.763507 2.95076e-18
vn 0.709253 -0.704954 0
vn 0.767669 -0.640846 -3.72968e-17
vn 0.767669 -0.640846 3.72968e-17
vn 0.820311 -0.571918 0
vn 0.867282 -0.497817 -4.24626e-17
vn 0.867282 -0.497817 4.24626e-17
vn 0.907577 -0.419885 0
vn 0.941272 -0.33765 -2.23109e-17
vn 0.941272 -0.33765 2.23109e-17
vn 0.967532 -0.252748 0
vn 0.977806 -0.209511 -2.32634e-17
vn 0.977806 -0.209511 2.32634e-17
vn 0.986149 -0.16586 0
vn 0.976998 -0.213248 -2.32675e-17
vn 0.976998 -0.213248 2.32675e-17
vn 0.965571 -0.26014 0
vn 0.938786 -0.3445 -2.09157e-17
vn 0.938786 -0.3445 2.09157e-17
vn 0.904647 -0.426161 0
vn 0.864079 -0.503357 -8.4766e-19
vn 0.864079 -0.503357 8.4766e-19
vn 0.816939 -0.576724 0
vn 0.764301 -0.644859 2.00637e-17
vn 0.764301 -0.644859 -2.00637e-17
vn 0.705997 -0.708214 0
vn 0.642787 -0.766045 0
vn 0.642787 -0.766045 0
vn 0.574858 -0.818253 0
vn 0.502345 -0.864668 0
vn 0.502345 -0.864668 0
vn 0.426108 -0.904672 0
vn 0.345677 -0.938354 -3.4927e-18
vn 0.345677 -0.938354 3.4927e-18
vn 0.262617 -0.9649 0
vn 0.176277 -0.984341 -6.55237e-18
vn 0.176277 -0.984341 6.55237e-18
vn 0.0885556 -0.996071 0
vn 0.0443213 -0.999017 -3.05028e-18
vn 0.0443213 -0.999017 3.05028e-18
vn 0 -1 0
vn -0.0464303 -0.998922 0
vn -0.0464303 -0.998922 0
vn -0.0927604 -0.995688 0
vn -0.184487 -0.982835 6.74767e-18
vn -0.184487 -0.982835 -6.74767e-18
vn -0.27463 -0.96155 0
vn -0.360887 -0.932609 -4.1871e-18
vn -0.360887 -0.932609 4.1871e-18
vn -0.444156 -0.895949 0
vn -0.522561 -0.852602 -2.55872e-17
vn -0.522561 -0.852602 2.55872e-17
vn -0.596772 -0.802411 0
vn -0.665795 -0.746135 2.11901e-17
vn -0.665795 -0.746135 -2.11901e-17
vn -0.729538 -0.683941 0
vn -0.787828 -0.615895 3.75046e-17
vn -0.787828 -0.615895 -3.75046e-17
vn -0.839794 -0.542905 0
vn -0.885672 -0.464312 -2.22296e-17
vn -0.885672 -0.464312 2.22296e-17
vn -0.924214 -0.381875 0
vn -0.955592 -0.294694 1.63278e-19
vn -0.955592 -0.294694 -1.63278e-19
vn -0.978766 -0.204983 0
vn -0.987631 -0.156795 2.37653e-17
vn -0.987631 -0.156795 -2.37653e-17
vn -0.994126 -0.10823 0
vn -0.999966 0.00828068 -3.21106e-19
vn -0.999966 0.00828068 3.21106e-19
vn -0.992197 0.124679 0
vn -0.944292 0.329107 4.26655e-17
vn -0.944292 0.329107 -4.26655e-17
vn -0.854758 0.519027 0
vn -0.77099 0.636848 2.56726e-17
vn -0.77099 0.636848 -2.56726e-17
vn -0.671109 0.741359 0
vn -0.589609 0.807689 -4.17898e-18
vn -0.589609 0.807689 4.17898e-18
vn -0.501599 0.8651 0
vn -0.408689 0.912673 1.99952e-17
vn -0.408689 0.912673 -1.99952e-17
vn -0.311327 0.950303 0
vn -0.209757 0.977754 7.66025e-18
vn -0.209757 0.977754 -7.66025e-18
vn -0.105865 0.994381 0
vn -0.0530069 0.998594 0
vn -0.0530069 0.998594 0
vn 0 1 0
vn 0 1 0
vn 0 1 0
vn -1 0 0
vn -1 0 0
vn -1 0 0
vn -1 0 0
vn -1 0 0
vn 0 -1 0
vn 0 -1 0
vn 0.0529856 -0.998595 2.59767e-18
vn 0.0529856 -0.998595 -2.59767e-18
vn 0 -1 0
vn 0.105822 -0.994385 0
vn 0.209735 -0.977758 2.60846e-18
vn 0.209735 -0.977758 -2.60846e-18
vn 0.311325 -0.950304 0
vn 0.408769 -0.912638 0
vn 0.408769 -0.912638 0
vn 0.501751 -0.865012 0
vn 0.589848 -0.807514 -1.14226e-18
vn 0.589848 -0.807514 1.14226e-18
vn 0.671418 -0.741079 0
vn 0.771118 -0.636692 -2.30838e-17
vn 0.771118 -0.636692 2.30838e-17
vn 0.854751 -0.519038 0
vn 0.934574 -0.35577 2.25416e-18
vn 0.934574 -0.35577 -2.25416e-18
vn 0.983529 -0.180752 0


# Faces: 
usemtl material0
f 291/92/1 293/94/1 294/95/1
f 290/91/1 294/95/1 295/96/1
f 291/92/1 292/93/1 293/94/1
f 290/91/1 291/92/1 294/95/1
f 295/96/1 289/90/1 290/91/1
f 289/90/1 296/97/1 297/98/1
f 296/97/1 289/90/1 295/96/1
f 289/90/1 297/98/1 288/89/1
f 297/98/1 298/99/1 288/89/1
f 298/99/1 287/88/1 288/89/1
f 298/99/1 286/87/1 287/88/1
f 298/99/1 299/100/1 286/87/1
f 286/87/1 299/100/1 285/86/1
f 284/85/1 285/86/1 301/102/1
f 300/101/1 285/86/1 299/100/1
f 301/102/1 285/86/1 300/101/1
f 342/143/1 243/44/1 341/142/1
f 340/141/1 341/142/1 244/45/1
f 284/85/1 302/103/1 283/84/1
f 302/103/1 284/85/1 301/102/1
f 303/104/1 283/84/1 302/103/1
f 243/44/1 342/143/1 343/144/1
f 343/144/1 242/43/1 243/44/1
f 242/43/1 343/144/1 344/145/1
f 246/47/1 340/141/1 245/46/1
f 340/141/1 246/47/1 339/140/1
f 340/141/1 244/45/1 245/46/1
f 242/43/1 344/145/1 241/42/1
f 244/45/1 341/142/1 243/44/1
f 345/146/1 346/147/1 239/40/1
f 346/147/1 238/39/1 239/40/1
f 345/146/1 239/40/1 240/41/1
f 241/42/1 344/145/1 240/41/1
f 240/41/1 344/145/1 345/146/1
f 339/140/1 246/47/1 247/48/1
f 247/48/1 338/139/1 339/140/1
f 337/138/1 338/139/1 247/48/1
f 328/129/1 329/130/1 257/58/1
f 256/57/1 257/58/1 329/130/1
f 329/130/1 330/131/1 255/56/1
f 336/137/1 337/138/1 249/50/1
f 248/49/1 337/138/1 247/48/1
f 249/50/1 337/138/1 248/49/1
f 329/130/1 255/56/1 256/57/1
f 330/131/1 331/132/1 254/55/1
f 255/56/1 330/131/1 254/55/1
f 254/55/1 331/132/1 253/54/1
f 258/59/1 328/129/1 257/58/1
f 281/82/1 282/83/1 303/104/1
f 282/83/1 283/84/1 303/104/1
f 281/82/1 303/104/1 304/105/1
f 304/105/1 280/81/1 281/82/1
f 280/81/1 304/105/1 305/106/1
f 280/81/1 305/106/1 279/80/1
f 278/79/1 279/80/1 306/107/1
f 306/107/1 279/80/1 305/106/1
f 277/78/1 278/79/1 307/108/1
f 307/108/1 278/79/1 306/107/1
f 314/115/1 270/71/1 271/72/1
f 277/78/1 308/109/1 309/110/1
f 308/109/1 277/78/1 307/108/1
f 277/78/1 309/110/1 276/77/1
f 276/77/1 310/111/1 275/76/1
f 310/111/1 276/77/1 309/110/1
f 275/76/1 310/111/1 311/112/1
f 313/114/1 271/72/1 272/73/1
f 313/114/1 272/73/1 312/113/1
f 311/112/1 274/75/1 275/76/1
f 274/75/1 311/112/1 312/113/1
f 312/113/1 273/74/1 274/75/1
f 273/74/1 312/113/1 272/73/1
f 314/115/1 271/72/1 313/114/1
f 314/115/1 315/116/1 270/71/1
f 323/124/1 263/64/1 322/123/1
f 262/63/1 323/124/1 324/125/1
f 321/122/1 322/123/1 263/64/1
f 262/63/1 324/125/1 261/62/1
f 262/63/1 263/64/1 323/124/1
f 324/125/1 325/126/1 261/62/1
f 326/127/1 327/128/1 258/59/1
f 258/59/1 327/128/1 328/129/1
f 326/127/1 258/59/1 259/60/1
f 325/126/1 259/60/1 260/61/1
f 259/60/1 325/126/1 326/127/1
f 325/126/1 260/61/1 261/62/1
f 317/118/1 318/119/1 268/69/1
f 268/69/1 318/119/1 267/68/1
f 317/118/1 268/69/1 269/70/1
f 270/71/1 316/117/1 269/70/1
f 269/70/1 316/117/1 317/118/1
f 316/117/1 270/71/1 315/116/1
f 264/65/1 265/66/1 321/122/1
f 264/65/1 321/122/1 263/64/1
f 321/122/1 265/66/1 320/121/1
f 266/67/1 318/119/1 319/120/1
f 318/119/1 266/67/1 267/68/1
f 266/67/1 319/120/1 320/121/1
f 320/121/1 265/66/1 266/67/1
f 238/39/1 347/148/1 348/149/1
f 350/151/1 351/152/1 234/35/1
f 235/36/1 349/150/1 350/151/1
f 234/35/1 235/36/1 350/151/1
f 351/152/1 352/153/1 234/35/1
f 354/155/1 355/156/1 231/32/1
f 231/32/1 355/156/1 230/31/1
f 354/155/1 231/32/1 353/154/1
f 232/33/1 353/154/1 231/32/1
f 352/153/1 353/154/1 232/33/1
f 355/156/1 356/157/1 230/31/1
f 352/153/1 233/34/1 234/35/1
f 232/33/1 233/34/1 352/153/1
f 237/38/1 349/150/1 236/37/1
f 349/150/1 237/38/1 348/149/1
f 349/150/1 235/36/1 236/37/1
f 348/149/1 237/38/1 238/39/1
f 228/29/1 356/157/1 357/158/1
f 229/30/1 230/31/1 356/157/1
f 227/28/1 357/158/1 358/159/1
f 228/29/1 229/30/1 356/157/1
f 226/27/1 227/28/1 358/159/1
f 228/29/1 357/158/1 227/28/1
f 358/159/1 359/160/1 226/27/1
f 390/191/1 392/193/1 393/194/1
f 390/191/1 393/194/1 394/195/1
f 390/191/1 391/192/1 392/193/1
f 389/190/1 390/191/1 394/195/1
f 394/195/1 388/189/1 389/190/1
f 387/188/1 388/189/1 395/196/1
f 395/196/1 388/189/1 394/195/1
f 387/188/1 395/196/1 396/197/1
f 396/197/1 386/187/1 387/188/1
f 386/187/1 396/197/1 397/198/1
f 386/187/1 397/198/1 385/186/1
f 359/160/1 360/161/1 225/26/1
f 225/26/1 360/161/1 224/25/1
f 359/160/1 225/26/1 226/27/1
f 223/24/1 224/25/1 362/163/1
f 361/162/1 224/25/1 360/161/1
f 362/163/1 224/25/1 361/162/1
f 385/186/1 398/199/1 200/1/1
f 385/186/1 200/1/1 384/185/1
f 362/163/1 363/164/1 223/24/1
f 201/2/1 384/185/1 200/1/1
f 383/184/1 384/185/1 201/2/1
f 397/198/1 398/199/1 385/186/1
f 363/164/1 222/23/1 223/24/1
f 336/137/1 250/51/1 335/136/1
f 250/51/1 336/137/1 249/50/1
f 335/136/1 250/51/1 334/135/1
f 334/135/1 251/52/1 333/134/1
f 251/52/1 334/135/1 250/51/1
f 333/134/1 251/52/1 252/53/1
f 222/23/1 364/165/1 221/22/1
f 364/165/1 222/23/1 363/164/1
f 221/22/1 364/165/1 365/166/1
f 220/21/1 221/22/1 365/166/1
f 220/21/1 365/166/1 366/167/1
f 333/134/1 252/53/1 332/133/1
f 252/53/1 253/54/1 332/133/1
f 220/21/1 366/167/1 219/20/1
f 332/133/1 253/54/1 331/132/1
f 366/167/1 218/19/1 219/20/1
f 217/18/1 218/19/1 367/168/1
f 218/19/1 366/167/1 367/168/1
f 368/169/1 369/170/1 216/17/1
f 368/169/1 216/17/1 217/18/1
f 216/17/1 369/170/1 215/16/1
f 370/171/1 214/15/1 215/16/1
f 371/172/1 214/15/1 370/171/1
f 369/170/1 370/171/1 215/16/1
f 368/169/1 217/18/1 367/168/1
f 206/7/1 379/180/1 380/181/1
f 205/6/1 380/181/1 381/182/1
f 206/7/1 380/181/1 205/6/1
f 378/179/1 379/180/1 206/7/1
f 378/179/1 206/7/1 207/8/1
f 203/4/1 382/183/1 383/184/1
f 203/4/1 383/184/1 202/3/1
f 382/183/1 204/5/1 381/182/1
f 204/5/1 382/183/1 203/4/1
f 381/182/1 204/5/1 205/6/1
f 373/174/1 374/175/1 211/12/1
f 372/173/1 373/174/1 212/13/1
f 372/173/1 212/13/1 213/14/1
f 212/13/1 373/174/1 211/12/1
f 374/175/1 375/176/1 211/12/1
f 372/173/1 213/14/1 371/172/1
f 209/10/1 376/177/1 377/178/1
f 207/8/1 377/178/1 378/179/1
f 208/9/1 377/178/1 207/8/1
f 375/176/1 210/11/1 211/12/1
f 375/176/1 376/177/1 210/11/1
f 210/11/1 376/177/1 209/10/1
f 377/178/1 208/9/1 209/10/1
f 371/172/1 213/14/1 214/15/1
f 202/3/1 383/184/1 201/2/1
f 238/39/1 346/147/1 347/148/1
f 94/293/2 92/291/2 95/294/2
f 95/294/2 91/290/2 96/295/2
f 93/292/2 92/291/2 94/293/2
f 92/291/2 91/290/2 95/294/2
f 90/289/2 96/295/2 91/290/2
f 97/296/2 90/289/2 98/297/2
f 90/289/2 97/296/2 96/295/2
f 98/297/2 90/289/2 89/288/2
f 99/298/2 98/297/2 89/288/2
f 88/287/2 99/298/2 89/288/2
f 87/286/2 99/298/2 88/287/2
f 100/299/2 99/298/2 87/286/2
f 100/299/2 87/286/2 86/285/2
f 86/285/2 85/284/2 102/301/2
f 86/285/2 101/300/2 100/299/2
f 86/285/2 102/301/2 101/300/2
f 44/243/2 143/342/2 142/341/2
f 142/341/2 141/340/2 45/244/2
f 103/302/2 85/284/2 84/283/2
f 85/284/2 103/302/2 102/301/2
f 84/283/2 104/303/2 103/302/2
f 143/342/2 44/243/2 144/343/2
f 43/242/2 144/343/2 44/243/2
f 144/343/2 43/242/2 145/344/2
f 141/340/2 47/246/2 46/245/2
f 47/246/2 141/340/2 140/339/2
f 45/244/2 141/340/2 46/245/2
f 145/344/2 43/242/2 42/241/2
f 142/341/2 45/244/2 44/243/2
f 147/346/2 146/345/2 40/239/2
f 39/238/2 147/346/2 40/239/2
f 40/239/2 146/345/2 41/240/2
f 145/344/2 42/241/2 41/240/2
f 145/344/2 41/240/2 146/345/2
f 47/246/2 140/339/2 48/247/2
f 139/338/2 48/247/2 140/339/2
f 139/338/2 138/337/2 48/247/2
f 130/329/2 129/328/2 58/257/2
f 58/257/2 57/256/2 130/329/2
f 131/330/2 130/329/2 56/255/2
f 138/337/2 137/336/2 50/249/2
f 138/337/2 49/248/2 48/247/2
f 138/337/2 50/249/2 49/248/2
f 56/255/2 130/329/2 57/256/2
f 132/331/2 131/330/2 55/254/2
f 131/330/2 56/255/2 55/254/2
f 132/331/2 55/254/2 54/253/2
f 129/328/2 59/258/2 58/257/2
f 83/282/2 82/281/2 104/303/2
f 84/283/2 83/282/2 104/303/2
f 104/303/2 82/281/2 105/304/2
f 81/280/2 105/304/2 82/281/2
f 105/304/2 81/280/2 106/305/2
f 106/305/2 81/280/2 80/279/2
f 80/279/2 79/278/2 107/306/2
f 80/279/2 107/306/2 106/305/2
f 79/278/2 78/277/2 108/307/2
f 79/278/2 108/307/2 107/306/2
f 71/270/2 115/314/2 72/271/2
f 109/308/2 78/277/2 110/309/2
f 78/277/2 109/308/2 108/307/2
f 110/309/2 78/277/2 77/276/2
f 111/310/2 77/276/2 76/275/2
f 77/276/2 111/310/2 110/309/2
f 111/310/2 76/275/2 112/311/2
f 72/271/2 114/313/2 73/272/2
f 73/272/2 114/313/2 113/312/2
f 75/274/2 112/311/2 76/275/2
f 112/311/2 75/274/2 113/312/2
f 74/273/2 113/312/2 75/274/2
f 113/312/2 74/273/2 73/272/2
f 72/271/2 115/314/2 114/313/2
f 116/315/2 115/314/2 71/270/2
f 64/263/2 124/323/2 123/322/2
f 124/323/2 63/262/2 125/324/2
f 123/322/2 122/321/2 64/263/2
f 125/324/2 63/262/2 62/261/2
f 64/263/2 63/262/2 124/323/2
f 126/325/2 125/324/2 62/261/2
f 128/327/2 127/326/2 59/258/2
f 128/327/2 59/258/2 129/328/2
f 59/258/2 127/326/2 60/259/2
f 60/259/2 126/325/2 61/260/2
f 126/325/2 60/259/2 127/326/2
f 61/260/2 126/325/2 62/261/2
f 119/318/2 118/317/2 69/268/2
f 119/318/2 69/268/2 68/267/2
f 69/268/2 118/317/2 70/269/2
f 117/316/2 71/270/2 70/269/2
f 117/316/2 70/269/2 118/317/2
f 71/270/2 117/316/2 116/315/2
f 66/265/2 65/264/2 122/321/2
f 122/321/2 65/264/2 64/263/2
f 66/265/2 122/321/2 121/320/2
f 119/318/2 67/266/2 120/319/2
f 67/266/2 119/318/2 68/267/2
f 120/319/2 67/266/2 121/320/2
f 66/265/2 121/320/2 67/266/2
f 148/347/2 39/238/2 149/348/2
f 152/351/2 151/350/2 35/234/2
f 150/349/2 36/235/2 151/350/2
f 36/235/2 35/234/2 151/350/2
f 153/352/2 152/351/2 35/234/2
f 156/355/2 155/354/2 32/231/2
f 156/355/2 32/231/2 31/230/2
f 32/231/2 155/354/2 154/353/2
f 154/353/2 33/232/2 32/231/2
f 154/353/2 153/352/2 33/232/2
f 157/356/2 156/355/2 31/230/2
f 34/233/2 153/352/2 35/234/2
f 34/233/2 33/232/2 153/352/2
f 150/349/2 38/237/2 37/236/2
f 38/237/2 150/349/2 149/348/2
f 36/235/2 150/349/2 37/236/2
f 38/237/2 149/348/2 39/238/2
f 157/356/2 29/228/2 158/357/2
f 31/230/2 30/229/2 157/356/2
f 158/357/2 28/227/2 159/358/2
f 30/229/2 29/228/2 157/356/2
f 28/227/2 27/226/2 159/358/2
f 158/357/2 29/228/2 28/227/2
f 160/359/2 159/358/2 27/226/2
f 193/392/2 191/390/2 194/393/2
f 194/393/2 191/390/2 195/394/2
f 192/391/2 191/390/2 193/392/2
f 191/390/2 190/389/2 195/394/2
f 189/388/2 195/394/2 190/389/2
f 189/388/2 188/387/2 196/395/2
f 189/388/2 196/395/2 195/394/2
f 196/395/2 188/387/2 197/396/2
f 187/386/2 197/396/2 188/387/2
f 197/396/2 187/386/2 198/397/2
f 198/397/2 187/386/2 186/385/2
f 161/360/2 160/359/2 26/225/2
f 161/360/2 26/225/2 25/224/2
f 26/225/2 160/359/2 27/226/2
f 25/224/2 24/223/2 163/362/2
f 25/224/2 162/361/2 161/360/2
f 25/224/2 163/362/2 162/361/2
f 199/398/2 186/385/2 1/200/2
f 1/200/2 186/385/2 185/384/2
f 164/363/2 163/362/2 24/223/2
f 185/384/2 2/201/2 1/200/2
f 185/384/2 184/383/2 2/201/2
f 199/398/2 198/397/2 186/385/2
f 23/222/2 164/363/2 24/223/2
f 51/250/2 137/336/2 136/335/2
f 137/336/2 51/250/2 50/249/2
f 51/250/2 136/335/2 135/334/2
f 52/251/2 135/334/2 134/333/2
f 135/334/2 52/251/2 51/250/2
f 52/251/2 134/333/2 53/252/2
f 165/364/2 23/222/2 22/221/2
f 23/222/2 165/364/2 164/363/2
f 165/364/2 22/221/2 166/365/2
f 22/221/2 21/220/2 166/365/2
f 166/365/2 21/220/2 167/366/2
f 53/252/2 134/333/2 133/332/2
f 54/253/2 53/252/2 133/332/2
f 167/366/2 21/220/2 20/219/2
f 54/253/2 133/332/2 132/331/2
f 19/218/2 167/366/2 20/219/2
f 19/218/2 18/217/2 168/367/2
f 167/366/2 19/218/2 168/367/2
f 170/369/2 169/368/2 17/216/2
f 17/216/2 169/368/2 18/217/2
f 170/369/2 17/216/2 16/215/2
f 15/214/2 171/370/2 16/215/2
f 15/214/2 172/371/2 171/370/2
f 171/370/2 170/369/2 16/215/2
f 18/217/2 169/368/2 168/367/2
f 180/379/2 7/206/2 181/380/2
f 181/380/2 6/205/2 182/381/2
f 181/380/2 7/206/2 6/205/2
f 180/379/2 179/378/2 7/206/2
f 7/206/2 179/378/2 8/207/2
f 183/382/2 4/203/2 184/383/2
f 184/383/2 4/203/2 3/202/2
f 5/204/2 183/382/2 182/381/2
f 183/382/2 5/204/2 4/203/2
f 5/204/2 182/381/2 6/205/2
f 175/374/2 174/373/2 12/211/2
f 174/373/2 173/372/2 13/212/2
f 13/212/2 173/372/2 14/213/2
f 174/373/2 13/212/2 12/211/2
f 176/375/2 175/374/2 12/211/2
f 14/213/2 173/372/2 172/371/2
f 177/376/2 10/209/2 178/377/2
f 178/377/2 8/207/2 179/378/2
f 178/377/2 9/208/2 8/207/2
f 11/210/2 176/375/2 12/211/2
f 177/376/2 176/375/2 11/210/2
f 177/376/2 11/210/2 10/209/2
f 9/208/2 178/377/2 10/209/2
f 14/213/2 172/371/2 15/214/2
f 184/383/2 3/202/2 2/201/2
f 147/346/2 39/238/2 148/347/2
f 399/847/3 1/399/4 2/400/5
f 399/847/3 2/400/5 201/624/6
f 399/847/3 201/624/6 200/623/7
f 399/847/3 200/623/7 1/399/4
f 400/848/8 2/400/5 3/401/9
f 400/848/8 3/401/9 202/625/10
f 400/848/8 202/625/10 201/624/6
f 400/848/8 201/624/6 2/400/5
f 401/849/11 3/401/9 4/402/12
f 401/849/11 4/402/12 203/626/13
f 401/849/11 203/626/13 202/625/10
f 401/849/11 202/625/10 3/401/9
f 402/850/14 4/402/12 5/403/15
f 402/850/14 5/403/15 204/627/16
f 402/850/14 204/627/16 203/626/13
f 402/850/14 203/626/13 4/402/12
f 403/851/17 5/403/15 6/404/18
f 403/851/17 6/404/18 205/628/19
f 403/851/17 205/628/19 204/627/16
f 403/851/17 204/627/16 5/403/15
f 404/852/20 6/404/18 7/405/21
f 404/852/20 7/405/21 206/629/22
f 404/852/20 206/629/22 205/628/19
f 404/852/20 205/628/19 6/404/18
f 405/853/23 7/405/21 8/406/24
f 405/853/23 8/406/24 207/630/25
f 405/853/23 207/630/25 206/629/22
f 405/853/23 206/629/22 7/405/21
f 406/854/26 8/406/24 9/407/27
f 406/854/26 9/407/27 208/631/28
f 406/854/26 208/631/28 207/630/25
f 406/854/26 207/630/25 8/406/24
f 407/855/29 9/407/27 10/408/30
f 407/855/29 10/408/30 209/632/31
f 407/855/29 209/632/31 208/631/28
f 407/855/29 208/631/28 9/407/27
f 408/856/32 10/408/30 11/409/33
f 408/856/32 11/409/33 210/633/34
f 408/856/32 210/633/34 209/632/31
f 408/856/32 209/632/31 10/408/30
f 409/857/35 11/409/33 12/410/36
f 409/857/35 12/410/36 211/634/37
f 409/857/35 211/634/37 210/633/34
f 409/857/35 210/633/34 11/409/33
f 410/858/38 12/410/36 13/411/39
f 410/858/38 13/411/39 212/635/40
f 410/858/38 212/635/40 211/634/37
f 410/858/38 211/634/37 12/410/36
f 411/859/41 13/411/39 14/412/42
f 411/859/41 14/412/42 213/636/43
f 411/859/41 213/636/43 212/635/40
f 411/859/41 212/635/40 13/411/39
f 412/860/44 14/412/42 15/413/45
f 412/860/44 15/413/45 214/637/46
f 412/860/44 214/637/46 213/636/43
f 412/860/44 213/636/43 14/412/42
f 413/861/47 15/413/45 16/414/48
f 413/861/47 16/414/48 215/638/49
f 413/861/47 215/638/49 214/637/46
f 413/861/47 214/637/46 15/413/45
f 414/862/50 16/414/48 17/415/51
f 414/862/50 17/415/51 216/639/52
f 414/862/50 216/639/52 215/638/49
f 414/862/50 215/638/49 16/414/48
f 415/863/53 17/415/51 18/416/54
f 415/863/53 18/416/54 217/640/55
f 415/863/53 217/640/55 216/639/52
f 415/863/53 216/639/52 17/415/51
f 416/864/56 18/416/54 19/417/57
f 416/864/56 19/417/57 218/641/58
f 416/864/56 218/641/58 217/640/55
f 416/864/56 217/640/55 18/416/54
f 417/865/59 19/417/57 20/418/60
f 417/865/59 20/418/60 219/642/61
f 417/865/59 219/642/61 218/641/58
f 417/865/59 218/641/58 19/417/57
f 418/866/62 20/418/60 21/419/63
f 418/866/62 21/419/63 220/643/64
f 418/866/62 220/643/64 219/642/61
f 418/866/62 219/642/61 20/418/60
f 419/867/65 21/419/63 22/420/66
f 419/867/65 22/420/66 221/644/67
f 419/867/65 221/644/67 220/643/64
f 419/867/65 220/643/64 21/419/63
f 420/868/68 22/420/66 23/421/69
f 420/868/68 23/421/69 222/645/70
f 420/868/68 222/645/70 221/644/67
f 420/868/68 221/644/67 22/420/66
f 421/869/71 23/421/69 24/422/72
f 421/869/71 24/422/72 223/646/73
f 421/869/71 223/646/73 222/645/70
f 421/869/71 222/645/70 23/421/69
f 422/870/74 24/422/72 25/423/75
f 422/870/74 25/423/75 224/647/76
f 422/870/74 224/647/76 223/646/73
f 422/870/74 223/646/73 24/422/72
f 423/871/77 25/423/75 26/424/78
f 423/871/77 26/424/78 225/648/79
f 423/871/77 225/648/79 224/647/76
f 423/871/77 224/647/76 25/423/75
f 424/872/80 26/424/78 27/425/81
f 424/872/80 27/425/81 226/649/82
f 424/872/80 226/649/82 225/648/79
f 424/872/80 225/648/79 26/424/78
f 425/873/83 27/425/81 28/426/84
f 425/873/83 28/426/84 227/650/85
f 425/873/83 227/650/85 226/649/82
f 425/873/83 226/649/82 27/425/81
f 426/874/86 28/426/84 29/427/87
f 426/874/86 29/427/87 228/651/88
f 426/874/86 228/651/88 227/650/85
f 426/874/86 227/650/85 28/426/84
f 427/875/89 29/427/87 30/428/90
f 427/875/89 30/428/90 229/652/91
f 427/875/89 229/652/91 228/651/88
f 427/875/89 228/651/88 29/427/87
f 428/876/92 30/429/93 31/430/94
f 428/876/92 31/430/94 230/654/95
f 428/876/92 230/654/95 229/653/96
f 428/876/92 229/653/96 30/429/93
f 429/877/97 31/431/98 32/432/99
f 429/877/97 32/432/99 231/656/100
f 429/877/97 231/656/100 230/655/101
f 429/877/97 230/655/101 31/431/98
f 430/878/102 32/433/103 33/434/104
f 430/878/102 33/434/104 232/658/105
f 430/878/102 232/658/105 231/657/106
f 430/878/102 231/657/106 32/433/103
f 431/879/107 33/435/108 34/436/109
f 431/879/107 34/436/109 233/660/110
f 431/879/107 233/660/110 232/659/111
f 431/879/107 232/659/111 33/435/108
f 432/880/112 34/437/113 35/438/114
f 432/880/112 35/438/114 234/662/115
f 432/880/112 234/662/115 233/661/116
f 432/880/112 233/661/116 34/437/113
f 433/881/117 35/439/118 36/440/119
f 433/881/117 36/440/119 235/664/120
f 433/881/117 235/664/120 234/663/121
f 433/881/117 234/663/121 35/439/118
f 434/882/122 36/441/123 37/442/124
f 434/882/122 37/442/124 236/666/125
f 434/882/122 236/666/125 235/665/126
f 434/882/122 235/665/126 36/441/123
f 435/883/127 37/443/128 38/444/129
f 435/883/127 38/444/129 237/668/130
f 435/883/127 237/668/130 236/667/131
f 435/883/127 236/667/131 37/443/128
f 436/884/132 38/445/133 39/446/134
f 436/884/132 39/446/134 238/670/135
f 436/884/132 238/670/135 237/669/136
f 436/884/132 237/669/136 38/445/133
f 437/885/137 39/447/138 40/448/139
f 437/885/137 40/448/139 239/672/140
f 437/885/137 239/672/140 238/671/141
f 437/885/137 238/671/141 39/447/138
f 438/886/142 40/448/139 41/449/143
f 438/886/142 41/449/143 240/673/144
f 438/886/142 240/673/144 239/672/140
f 438/886/142 239/672/140 40/448/139
f 439/887/145 41/449/143 42/450/146
f 439/887/145 42/450/146 241/674/147
f 439/887/145 241/674/147 240/673/144
f 439/887/145 240/673/144 41/449/143
f 440/888/148 42/450/146 43/451/149
f 440/888/148 43/451/149 242/675/150
f 440/888/148 242/675/150 241/674/147
f 440/888/148 241/674/147 42/450/146
f 441/889/151 43/451/149 44/452/152
f 441/889/151 44/452/152 243/676/153
f 441/889/151 243/676/153 242/675/150
f 441/889/151 242/675/150 43/451/149
f 442/890/154 44/452/152 45/453/155
f 442/890/154 45/453/155 244/677/156
f 442/890/154 244/677/156 243/676/153
f 442/890/154 243/676/153 44/452/152
f 443/891/157 45/453/155 46/454/158
f 443/891/157 46/454/158 245/678/159
f 443/891/157 245/678/159 244/677/156
f 443/891/157 244/677/156 45/453/155
f 444/892/160 46/454/158 47/455/161
f 444/892/160 47/455/161 246/679/162
f 444/892/160 246/679/162 245/678/159
f 444/892/160 245/678/159 46/454/158
f 445/893/163 47/455/161 48/456/164
f 445/893/163 48/456/164 247/680/165
f 445/893/163 247/680/165 246/679/162
f 445/893/163 246/679/162 47/455/161
f 446/894/166 48/456/164 49/457/167
f 446/894/166 49/457/167 248/681/168
f 446/894/166 248/681/168 247/680/165
f 446/894/166 247/680/165 48/456/164
f 447/895/169 49/457/167 50/458/170
f 447/895/169 50/458/170 249/682/171
f 447/895/169 249/682/171 248/681/168
f 447/895/169 248/681/168 49/457/167
f 448/896/172 50/458/170 51/459/173
f 448/896/172 51/459/173 250/683/174
f 448/896/172 250/683/174 249/682/171
f 448/896/172 249/682/171 50/458/170
f 449/897/175 51/459/173 52/460/176
f 449/897/175 52/460/176 251/684/177
f 449/897/175 251/684/177 250/683/174
f 449/897/175 250/683/174 51/459/173
f 450/898/178 52/460/176 53/461/179
f 450/898/178 53/461/179 252/685/180
f 450/898/178 252/685/180 251/684/177
f 450/898/178 251/684/177 52/460/176
f 451/899/181 53/461/179 54/462/182
f 451/899/181 54/462/182 253/686/183
f 451/899/181 253/686/183 252/685/180
f 451/899/181 252/685/180 53/461/179
f 452/900/184 54/462/182 55/463/185
f 452/900/184 55/463/185 254/687/186
f 452/900/184 254/687/186 253/686/183
f 452/900/184 253/686/183 54/462/182
f 453/901/187 55/463/185 56/464/188
f 453/901/187 56/464/188 255/688/189
f 453/901/187 255/688/189 254/687/186
f 453/901/187 254/687/186 55/463/185
f 454/902/190 56/464/188 57/465/191
f 454/902/190 57/465/191 256/689/192
f 454/902/190 256/689/192 255/688/189
f 454/902/190 255/688/189 56/464/188
f 455/903/193 57/465/191 58/466/194
f 455/903/193 58/466/194 257/690/195
f 455/903/193 257/690/195 256/689/192
f 455/903/193 256/689/192 57/465/191
f 456/904/196 58/466/194 59/467/197
f 456/904/196 59/467/197 258/691/198
f 456/904/196 258/691/198 257/690/195
f 456/904/196 257/690/195 58/466/194
f 457/905/199 59/467/197 60/468/200
f 457/905/199 60/468/200 259/692/201
f 457/905/199 259/692/201 258/691/198
f 457/905/199 258/691/198 59/467/197
f 458/906/202 60/468/200 61/469/203
f 458/906/202 61/469/203 260/693/204
f 458/906/202 260/693/204 259/692/201
f 458/906/202 259/692/201 60/468/200
f 459/907/205 61/469/203 62/470/206
f 459/907/205 62/470/206 261/694/207
f 459/907/205 261/694/207 260/693/204
f 459/907/205 260/693/204 61/469/203
f 460/908/208 62/470/206 63/471/209
f 460/908/208 63/471/209 262/695/210
f 460/908/208 262/695/210 261/694/207
f 460/908/208 261/694/207 62/470/206
f 461/909/211 63/471/209 64/472/212
f 461/909/211 64/472/212 263/696/213
f 461/909/211 263/696/213 262/695/210
f 461/909/211 262/695/210 63/471/209
f 462/910/214 64/472/212 65/473/215
f 462/910/214 65/473/215 264/697/216
f 462/910/214 264/697/216 263/696/213
f 462/910/214 263/696/213 64/472/212
f 463/911/217 65/473/215 66/474/218
f 463/911/217 66/474/218 265/698/219
f 463/911/217 265/698/219 264/697/216
f 463/911/217 264/697/216 65/473/215
f 464/912/220 66/474/218 67/475/221
f 464/912/220 67/475/221 266/699/222
f 464/912/220 266/699/222 265/698/219
f 464/912/220 265/698/219 66/474/218
f 465/913/223 67/475/221 68/476/224
f 465/913/223 68/476/224 267/700/225
f 465/913/223 267/700/225 266/699/222
f 465/913/223 266/699/222 67/475/221
f 466/914/226 68/476/224 69/477/227
f 466/914/226 69/477/227 268/701/228
f 466/914/226 268/701/228 267/700/225
f 466/914/226 267/700/225 68/476/224
f 467/915/229 69/477/227 70/478/230
f 467/915/229 70/478/230 269/702/231
f 467/915/229 269/702/231 268/701/228
f 467/915/229 268/701/228 69/477/227
f 468/916/232 70/478/230 71/479/233
f 468/916/232 71/479/233 270/703/234
f 468/916/232 270/703/234 269/702/231
f 468/916/232 269/702/231 70/478/230
f 469/917/235 71/479/233 72/480/236
f 469/917/235 72/480/236 271/704/237
f 469/917/235 271/704/237 270/703/234
f 469/917/235 270/703/234 71/479/233
f 470/918/238 72/480/236 73/481/239
f 470/918/238 73/481/239 272/705/240
f 470/918/238 272/705/240 271/704/237
f 470/918/238 271/704/237 72/480/236
f 471/919/241 73/481/239 74/482/242
f 471/919/241 74/482/242 273/706/243
f 471/919/241 273/706/243 272/705/240
f 471/919/241 272/705/240 73/481/239
f 472/920/244 74/482/242 75/483/245
f 472/920/244 75/483/245 274/707/246
f 472/920/244 274/707/246 273/706/243
f 472/920/244 273/706/243 74/482/242
f 473/921/247 75/483/245 76/484/248
f 473/921/247 76/484/248 275/708/249
f 473/921/247 275/708/249 274/707/246
f 473/921/247 274/707/246 75/483/245
f 474/922/250 76/484/248 77/485/251
f 474/922/250 77/485/251 276/709/252
f 474/922/250 276/709/252 275/708/249
f 474/922/250 275/708/249 76/484/248
f 475/923/253 77/485/251 78/486/254
f 475/923/253 78/486/254 277/710/255
f 475/923/253 277/710/255 276/709/252
f 475/923/253 276/709/252 77/485/251
f 476/924/256 78/486/254 79/487/257
f 476/924/256 79/487/257 278/711/258
f 476/924/256 278/711/258 277/710/255
f 476/924/256 277/710/255 78/486/254
f 477/925/259 79/487/257 80/488/260
f 477/925/259 80/488/260 279/712/261
f 477/925/259 279/712/261 278/711/258
f 477/925/259 278/711/258 79/487/257
f 478/926/262 80/488/260 81/489/263
f 478/926/262 81/489/263 280/713/264
f 478/926/262 280/713/264 279/712/261
f 478/926/262 279/712/261 80/488/260
f 479/927/265 81/489/263 82/490/266
f 479/927/265 82/490/266 281/714/267
f 479/927/265 281/714/267 280/713/264
f 479/927/265 280/713/264 81/489/263
f 480/928/268 82/490/266 83/491/269
f 480/928/268 83/491/269 282/715/270
f 480/928/268 282/715/270 281/714/267
f 480/928/268 281/714/267 82/490/266
f 481/929/271 83/491/269 84/492/272
f 481/929/271 84/492/272 283/716/273
f 481/929/271 283/716/273 282/715/270
f 481/929/271 282/715/270 83/491/269
f 482/930/274 84/492/272 85/493/275
f 482/930/274 85/493/275 284/717/276
f 482/930/274 284/717/276 283/716/273
f 482/930/274 283/716/273 84/492/272
f 483/931/277 85/493/275 86/494/278
f 483/931/277 86/494/278 285/718/279
f 483/931/277 285/718/279 284/717/276
f 483/931/277 284/717/276 85/493/275
f 484/932/280 86/494/278 87/495/281
f 484/932/280 87/495/281 286/719/282
f 484/932/280 286/719/282 285/718/279
f 484/932/280 285/718/279 86/494/278
f 485/933/283 87/495/281 88/496/284
f 485/933/283 88/496/284 287/720/285
f 485/933/283 287/720/285 286/719/282
f 485/933/283 286/719/282 87/495/281
f 486/934/286 88/496/284 89/497/287
f 486/934/286 89/497/287 288/721/288
f 486/934/286 288/721/288 287/720/285
f 486/934/286 287/720/285 88/496/284
f 487/935/289 89/497/287 90/498/290
f 487/935/289 90/498/290 289/722/291
f 487/935/289 289/722/291 288/721/288
f 487/935/289 288/721/288 89/497/287
f 488/936/292 90/498/290 91/499/293
f 488/936/292 91/499/293 290/723/294
f 488/936/292 290/723/294 289/722/291
f 488/936/292 289/722/291 90/498/290
f 489/937/295 91/499/293 92/500/296
f 489/937/295 92/500/296 291/724/297
f 489/937/295 291/724/297 290/723/294
f 489/937/295 290/723/294 91/499/293
f 490/938/298 92/500/296 93/501/299
f 490/938/298 93/501/299 292/725/300
f 490/938/298 292/725/300 291/724/297
f 490/938/298 291/724/297 92/500/296
f 491/939/301 93/502/302 94/503/303
f 491/939/301 94/503/303 293/727/304
f 491/939/301 293/727/304 292/726/305
f 491/939/301 292/726/305 93/502/302
f 492/940/306 94/504/307 95/505/308
f 492/940/306 95/505/308 294/729/309
f 492/940/306 294/729/309 293/728/310
f 492/940/306 293/728/310 94/504/307
f 493/941/311 95/505/308 96/506/312
f 493/941/311 96/506/312 295/730/313
f 493/941/311 295/730/313 294/729/309
f 493/941/311 294/729/309 95/505/308
f 494/942/314 96/506/312 97/507/315
f 494/942/314 97/507/315 296/731/316
f 494/942/314 296/731/316 295/730/313
f 494/942/314 295/730/313 96/506/312
f 495/943/317 97/507/315 98/508/318
f 495/943/317 98/508/318 297/732/319
f 495/943/317 297/732/319 296/731/316
f 495/943/317 296/731/316 97/507/315
f 496/944/320 98/508/318 99/509/321
f 496/944/320 99/509/321 298/733/322
f 496/944/320 298/733/322 297/732/319
f 496/944/320 297/732/319 98/508/318
f 497/945/323 99/509/321 100/510/324
f 497/945/323 100/510/324 299/734/325
f 497/945/323 299/734/325 298/733/322
f 497/945/323 298/733/322 99/509/321
f 498/946/326 100/510/324 101/511/327
f 498/946/326 101/511/327 300/735/328
f 498/946/326 300/735/328 299/734/325
f 498/946/326 299/734/325 100/510/324
f 499/947/329 101/511/327 102/512/330
f 499/947/329 102/512/330 301/736/331
f 499/947/329 301/736/331 300/735/328
f 499/947/329 300/735/328 101/511/327
f 500/948/332 102/512/330 103/513/333
f 500/948/332 103/513/333 302/737/334
f 500/948/332 302/737/334 301/736/331
f 500/948/332 301/736/331 102/512/330
f 501/949/335 103/513/333 104/514/336
f 501/949/335 104/514/336 303/738/337
f 501/949/335 303/738/337 302/737/334
f 501/949/335 302/737/334 103/513/333
f 502/950/338 104/514/336 105/515/339
f 502/950/338 105/515/339 304/739/340
f 502/950/338 304/739/340 303/738/337
f 502/950/338 303/738/337 104/514/336
f 503/951/341 105/515/339 106/516/342
f 503/951/341 106/516/342 305/740/343
f 503/951/341 305/740/343 304/739/340
f 503/951/341 304/739/340 105/515/339
f 504/952/344 106/516/342 107/517/345
f 504/952/344 107/517/345 306/741/346
f 504/952/344 306/741/346 305/740/343
f 504/952/344 305/740/343 106/516/342
f 505/953/347 107/517/345 108/518/348
f 505/953/347 108/518/348 307/742/349
f 505/953/347 307/742/349 306/741/346
f 505/953/347 306/741/346 107/517/345
f 506/954/350 108/518/348 109/519/351
f 506/954/350 109/519/351 308/743/352
f 506/954/350 308/743/352 307/742/349
f 506/954/350 307/742/349 108/518/348
f 507/955/353 109/519/351 110/520/354
f 507/955/353 110/520/354 309/744/355
f 507/955/353 309/744/355 308/743/352
f 507/955/353 308/743/352 109/519/351
f 508/956/356 110/520/354 111/521/357
f 508/956/356 111/521/357 310/745/358
f 508/956/356 310/745/358 309/744/355
f 508/956/356 309/744/355 110/520/354
f 509/957/359 111/521/357 112/522/360
f 509/957/359 112/522/360 311/746/361
f 509/957/359 311/746/361 310/745/358
f 509/957/359 310/745/358 111/521/357
f 510/958/362 112/522/360 113/523/363
f 510/958/362 113/523/363 312/747/364
f 510/958/362 312/747/364 311/746/361
f 510/958/362 311/746/361 112/522/360
f 511/959/365 113/523/363 114/524/366
f 511/959/365 114/524/366 313/748/367
f 511/959/365 313/748/367 312/747/364
f 511/959/365 312/747/364 113/523/363
f 512/960/368 114/524/366 115/525/369
f 512/960/368 115/525/369 314/749/370
f 512/960/368 314/749/370 313/748/367
f 512/960/368 313/748/367 114/524/366
f 513/961/371 115/525/369 116/526/372
f 513/961/371 116/526/372 315/750/373
f 513/961/371 315/750/373 314/749/370
f 513/961/371 314/749/370 115/525/369
f 514/962/374 116/526/372 117/527/375
f 514/962/374 117/527/375 316/751/376
f 514/962/374 316/751/376 315/750/373
f 514/962/374 315/750/373 116/526/372
f 515/963/377 117/527/375 118/528/378
f 515/963/377 118/528/378 317/752/379
f 515/963/377 317/752/379 316/751/376
f 515/963/377 316/751/376 117/527/375
f 516/964/380 118/528/378 119/529/381
f 516/964/380 119/529/381 318/753/382
f 516/964/380 318/753/382 317/752/379
f 516/964/380 317/752/379 118/528/378
f 517/965/383 119/529/381 120/530/384
f 517/965/383 120/530/384 319/754/385
f 517/965/383 319/754/385 318/753/382
f 517/965/383 318/753/382 119/529/381
f 518/966/386 120/530/384 121/531/387
f 518/966/386 121/531/387 320/755/388
f 518/966/386 320/755/388 319/754/385
f 518/966/386 319/754/385 120/530/384
f 519/967/389 121/531/387 122/532/390
f 519/967/389 122/532/390 321/756/391
f 519/967/389 321/756/391 320/755/388
f 519/967/389 320/755/388 121/531/387
f 520/968/392 122/532/390 123/533/393
f 520/968/392 123/533/393 322/757/394
f 520/968/392 322/757/394 321/756/391
f 520/968/392 321/756/391 122/532/390
f 521/969/395 123/533/393 124/534/396
f 521/969/395 124/534/396 323/758/397
f 521/969/395 323/758/397 322/757/394
f 521/969/395 322/757/394 123/533/393
f 522/970/398 124/534/396 125/535/399
f 522/970/398 125/535/399 324/759/400
f 522/970/398 324/759/400 323/758/397
f 522/970/398 323/758/397 124/534/396
f 523/971/401 125/535/399 126/536/402
f 523/971/401 126/536/402 325/760/403
f 523/971/401 325/760/403 324/759/400
f 523/971/401 324/759/400 125/535/399
f 524/972/404 126/536/402 127/537/405
f 524/972/404 127/537/405 326/761/406
f 524/972/404 326/761/406 325/760/403
f 524/972/404 325/760/403 126/536/402
f 525/973/407 127/537/405 128/538/408
f 525/973/407 128/538/408 327/762/409
f 525/973/407 327/762/409 326/761/406
f 525/973/407 326/761/406 127/537/405
f 526/974/410 128/538/408 129/539/411
f 526/974/410 129/539/411 328/763/412
f 526/974/410 328/763/412 327/762/409
f 526/974/410 327/762/409 128/538/408
f 527/975/413 129/539/411 130/540/414
f 527/975/413 130/540/414 329/764/415
f 527/975/413 329/764/415 328/763/412
f 527/975/413 328/763/412 129/539/411
f 528/976/416 130/540/414 131/541/417
f 528/976/416 131/541/417 330/765/418
f 528/976/416 330/765/418 329/764/415
f 528/976/416 329/764/415 130/540/414
f 529/977/419 131/541/417 132/542/420
f 529/977/419 132/542/420 331/766/421
f 529/977/419 331/766/421 330/765/418
f 529/977/419 330/765/418 131/541/417
f 530/978/422 132/542/420 133/543/423
f 530/978/422 133/543/423 332/767/424
f 530/978/422 332/767/424 331/766/421
f 530/978/422 331/766/421 132/542/420
f 531/979/425 133/543/423 134/544/426
f 531/979/425 134/544/426 333/768/427
f 531/979/425 333/768/427 332/767/424
f 531/979/425 332/767/424 133/543/423
f 532/980/428 134/544/426 135/545/429
f 532/980/428 135/545/429 334/769/430
f 532/980/428 334/769/430 333/768/427
f 532/980/428 333/768/427 134/544/426
f 533/981/431 135/545/429 136/546/432
f 533/981/431 136/546/432 335/770/433
f 533/981/431 335/770/433 334/769/430
f 533/981/431 334/769/430 135/545/429
f 534/982/434 136/546/432 137/547/435
f 534/982/434 137/547/435 336/771/436
f 534/982/434 336/771/436 335/770/433
f 534/982/434 335/770/433 136/546/432
f 535/983/437 137/547/435 138/548/438
f 535/983/437 138/548/438 337/772/439
f 535/983/437 337/772/439 336/771/436
f 535/983/437 336/771/436 137/547/435
f 536/984/440 138/548/438 139/549/441
f 536/984/440 139/549/441 338/773/442
f 536/984/440 338/773/442 337/772/439
f 536/984/440 337/772/439 138/548/438
f 537/985/443 139/549/441 140/550/444
f 537/985/443 140/550/444 339/774/445
f 537/985/443 339/774/445 338/773/442
f 537/985/443 338/773/442 139/549/441
f 538/986/446 140/550/444 141/551/447
f 538/986/446 141/551/447 340/775/448
f 538/986/446 340/775/448 339/774/445
f 538/986/446 339/774/445 140/550/444
f 539/987/449 141/551/447 142/552/450
f 539/987/449 142/552/450 341/776/451
f 539/987/449 341/776/451 340/775/448
f 539/987/449 340/775/448 141/551/447
f 540/988/452 142/552/450 143/553/453
f 540/988/452 143/553/453 342/777/454
f 540/988/452 342/777/454 341/776/451
f 540/988/452 341/776/451 142/552/450
f 541/989/455 143/553/453 144/554/456
f 541/989/455 144/554/456 343/778/457
f 541/989/455 343/778/457 342/777/454
f 541/989/455 342/777/454 143/553/453
f 542/990/458 144/554/456 145/555/459
f 542/990/458 145/555/459 344/779/460
f 542/990/458 344/779/460 343/778/457
f 542/990/458 343/778/457 144/554/456
f 543/991/461 145/555/459 146/556/462
f 543/991/461 146/556/462 345/780/463
f 543/991/461 345/780/463 344/779/460
f 543/991/461 344/779/460 145/555/459
f 544/992/464 146/556/462 147/557/465
f 544/992/464 147/557/465 346/781/466
f 544/992/464 346/781/466 345/780/463
f 544/992/464 345/780/463 146/556/462
f 545/993/467 147/557/465 148/558/468
f 545/993/467 148/558/468 347/782/469
f 545/993/467 347/782/469 346/781/466
f 545/993/467 346/781/466 147/557/465
f 546/994/470 148/559/471 149/560/472
f 546/994/470 149/560/472 348/784/473
f 546/994/470 348/784/473 347/783/474
f 546/994/470 347/783/474 148/559/471
f 547/995/475 149/561/476 150/562/477
f 547/995/475 150/562/477 349/786/478
f 547/995/475 349/786/478 348/785/479
f 547/995/475 348/785/479 149/561/476
f 548/996/480 150/563/481 151/564/482
f 548/996/480 151/564/482 350/788/483
f 548/996/480 350/788/483 349/787/484
f 548/996/480 349/787/484 150/563/481
f 549/997/485 151/565/486 152/566/487
f 549/997/485 152/566/487 351/790/488
f 549/997/485 351/790/488 350/789/489
f 549/997/485 350/789/489 151/565/486
f 550/998/490 152/567/491 153/568/492
f 550/998/490 153/568/492 352/792/493
f 550/998/490 352/792/493 351/791/494
f 550/998/490 351/791/494 152/567/491
f 551/999/495 153/569/496 154/570/497
f 551/999/495 154/570/497 353/794/498
f 551/999/495 353/794/498 352/793/499
f 551/999/495 352/793/499 153/569/496
f 552/1000/500 154/571/501 155/572/502
f 552/1000/500 155/572/502 354/796/503
f 552/1000/500 354/796/503 353/795/504
f 552/1000/500 353/795/504 154/571/501
f 553/1001/505 155/573/506 156/574/507
f 553/1001/505 156/574/507 355/798/508
f 553/1001/505 355/798/508 354/797/509
f 553/1001/505 354/797/509 155/573/506
f 554/1002/510 156/575/511 157/576/512
f 554/1002/510 157/576/512 356/800/513
f 554/1002/510 356/800/513 355/799/514
f 554/1002/510 355/799/514 156/575/511
f 555/1003/515 157/577/516 158/578/517
f 555/1003/515 158/578/517 357/802/518
f 555/1003/515 357/802/518 356/801/519
f 555/1003/515 356/801/519 157/577/516
f 556/1004/520 158/578/517 159/579/521
f 556/1004/520 159/579/521 358/803/522
f 556/1004/520 358/803/522 357/802/518
f 556/1004/520 357/802/518 158/578/517
f 557/1005/523 159/579/521 160/580/524
f 557/1005/523 160/580/524 359/804/525
f 557/1005/523 359/804/525 358/803/522
f 557/1005/523 358/803/522 159/579/521
f 558/1006/526 160/580/524 161/581/527
f 558/1006/526 161/581/527 360/805/528
f 558/1006/526 360/805/528 359/804/525
f 558/1006/526 359/804/525 160/580/524
f 559/1007/529 161/581/527 162/582/530
f 559/1007/529 162/582/530 361/806/531
f 559/1007/529 361/806/531 360/805/528
f 559/1007/529 360/805/528 161/581/527
f 560/1008/532 162/582/530 163/583/533
f 560/1008/532 163/583/533 362/807/534
f 560/1008/532 362/807/534 361/806/531
f 560/1008/532 361/806/531 162/582/530
f 561/1009/535 163/583/533 164/584/536
f 561/1009/535 164/584/536 363/808/537
f 561/1009/535 363/808/537 362/807/534
f 561/1009/535 362/807/534 163/583/533
f 562/1010/538 164/584/536 165/585/539
f 562/1010/538 165/585/539 364/809/540
f 562/1010/538 364/809/540 363/808/537
f 562/1010/538 363/808/537 164/584/536
f 563/1011/541 165/585/539 166/586/542
f 563/1011/541 166/586/542 365/810/543
f 563/1011/541 365/810/543 364/809/540
f 563/1011/541 364/809/540 165/585/539
f 564/1012/544 166/586/542 167/587/545
f 564/1012/544 167/587/545 366/811/546
f 564/1012/544 366/811/546 365/810/543
f 564/1012/544 365/810/543 166/586/542
f 565/1013/547 167/587/545 168/588/548
f 565/1013/547 168/588/548 367/812/549
f 565/1013/547 367/812/549 366/811/546
f 565/1013/547 366/811/546 167/587/545
f 566/1014/550 168/588/548 169/589/551
f 566/1014/550 169/589/551 368/813/552
f 566/1014/550 368/813/552 367/812/549
f 566/1014/550 367/812/549 168/588/548
f 567/1015/553 169/589/551 170/590/554
f 567/1015/553 170/590/554 369/814/555
f 567/1015/553 369/814/555 368/813/552
f 567/1015/553 368/813/552 169/589/551
f 568/1016/556 170/590/554 171/591/557
f 568/1016/556 171/591/557 370/815/558
f 568/1016/556 370/815/558 369/814/555
f 568/1016/556 369/814/555 170/590/554
f 569/1017/559 171/591/557 172/592/560
f 569/1017/559 172/592/560 371/816/561
f 569/1017/559 371/816/561 370/815/558
f 569/1017/559 370/815/558 171/591/557
f 570/1018/562 172/592/560 173/593/563
f 570/1018/562 173/593/563 372/817/564
f 570/1018/562 372/817/564 371/816/561
f 570/1018/562 371/816/561 172/592/560
f 571/1019/565 173/593/563 174/594/566
f 571/1019/565 174/594/566 373/818/567
f 571/1019/565 373/818/567 372/817/564
f 571/1019/565 372/817/564 173/593/563
f 572/1020/568 174/594/566 175/595/569
f 572/1020/568 175/595/569 374/819/570
f 572/1020/568 374/819/570 373/818/567
f 572/1020/568 373/818/567 174/594/566
f 573/1021/571 175/595/569 176/596/572
f 573/1021/571 176/596/572 375/820/573
f 573/1021/571 375/820/573 374/819/570
f 573/1021/571 374/819/570 175/595/569
f 574/1022/574 176/596/572 177/597/575
f 574/1022/574 177/597/575 376/821/576
f 574/1022/574 376/821/576 375/820/573
f 574/1022/574 375/820/573 176/596/572
f 575/1023/577 177/597/575 178/598/578
f 575/1023/577 178/598/578 377/822/579
f 575/1023/577 377/822/579 376/821/576
f 575/1023/577 376/821/576 177/597/575
f 576/1024/580 178/598/578 179/599/581
f 576/1024/580 179/599/581 378/823/582
f 576/1024/580 378/823/582 377/822/579
f 576/1024/580 377/822/579 178/598/578
f 577/1025/583 179/599/581 180/600/584
f 577/1025/583 180/600/584 379/824/585
f 577/1025/583 379/824/585 378/823/582
f 577/1025/583 378/823/582 179/599/581
f 578/1026/586 180/600/584 181/601/587
f 578/1026/586 181/601/587 380/825/588
f 578/1026/586 380/825/588 379/824/585
f 578/1026/586 379/824/585 180/600/584
f 579/1027/589 181/601/587 182/602/590
f 579/1027/589 182/602/590 381/826/591
f 579/1027/589 381/826/591 380/825/588
f 579/1027/589 380/825/588 181/601/587
f 580/1028/592 182/602/590 183/603/593
f 580/1028/592 183/603/593 382/827/594
f 580/1028/592 382/827/594 381/826/591
f 580/1028/592 381/826/591 182/602/590
f 581/1029/595 183/603/593 184/604/596
f 581/1029/595 184/604/596 383/828/597
f 581/1029/595 383/828/597 382/827/594
f 581/1029/595 382/827/594 183/603/593
f 582/1030/598 184/604/596 185/605/599
f 582/1030/598 185/605/599 384/829/600
f 582/1030/598 384/829/600 383/828/597
f 582/1030/598 383/828/597 184/604/596
f 583/1031/601 185/605/599 186/606/602
f 583/1031/601 186/606/602 385/830/603
f 583/1031/601 385/830/603 384/829/600
f 583/1031/601 384/829/600 185/605/599
f 584/1032/604 186/606/602 187/607/605
f 584/1032/604 187/607/605 386/831/606
f 584/1032/604 386/831/606 385/830/603
f 584/1032/604 385/830/603 186/606/602
f 585/1033/607 187/607/605 188/608/608
f 585/1033/607 188/608/608 387/832/609
f 585/1033/607 387/832/609 386/831/606
f 585/1033/607 386/831/606 187/607/605
f 586/1034/610 188/608/608 189/609/611
f 586/1034/610 189/609/611 388/833/612
f 586/1034/610 388/833/612 387/832/609
f 586/1034/610 387/832/609 188/608/608
f 587/1035/613 189/609/611 190/610/614
f 587/1035/613 190/610/614 389/834/615
f 587/1035/613 389/834/615 388/833/612
f 587/1035/613 388/833/612 189/609/611
f 588/1036/616 190/610/614 191/611/617
f 588/1036/616 191/611/617 390/835/618
f 588/1036/616 390/835/618 389/834/615
f 588/1036/616 389/834/615 190/610/614
f 589/1037/619 191/611/617 192/612/620
f 589/1037/619 192/612/620 391/836/621
f 589/1037/619 391/836/621 390/835/618
f 589/1037/619 390/835/618 191/611/617
f 590/1038/622 192/613/623 193/614/624
f 590/1038/622 193/614/624 392/838/625
f 590/1038/622 392/838/625 391/837/626
f 590/1038/622 391/837/626 192/613/623
f 591/1039/627 193/615/628 194/616/629
f 591/1039/627 194/616/629 393/840/630
f 591/1039/627 393/840/630 392/839/631
f 591/1039/627 392/839/631 193/615/628
f 592/1040/632 194/616/629 195/617/633
f 592/1040/632 195/617/633 394/841/634
f 592/1040/632 394/841/634 393/840/630
f 592/1040/632 393/840/630 194/616/629
f 593/1041/635 195/617/633 196/618/636
f 593/1041/635 196/618/636 395/842/637
f 593/1041/635 395/842/637 394/841/634
f 593/1041/635 394/841/634 195/617/633
f 594/1042/638 196/618/636 197/619/639
f 594/1042/638 197/619/639 396/843/640
f 594/1042/638 396/843/640 395/842/637
f 594/1042/638 395/842/637 196/618/636
f 595/1043/641 197/619/639 198/620/642
f 595/1043/641 198/620/642 397/844/643
f 595/1043/641 397/844/643 396/843/640
f 595/1043/641 396/843/640 197/619/639
f 596/1044/644 198/620/642 199/621/645
f 596/1044/644 199/621/645 398/845/646
f 596/1044/644 398/845/646 397/844/643
f 596/1044/644 397/844/643 198/620/642
f 597/1045/647 199/621/645 1/622/4
f 597/1045/647 1/622/4 200/846/7
f 597/1045/647 200/846/7 398/845/646
f 597/1045/647 398/845/646 199/621/645
