mtllib SSR 24.mtl
# Vertex Positions: 
g groupNumber_0
v 13.9799 0.720618 -16.9263
v 13.9799 1.02112 -16.9263
v 13.971 1.08053 -16.9263
v 13.9457 1.13332 -16.9263
v 13.906 1.1764 -16.9263
v 13.8541 1.20668 -16.9263
v 13.3729 1.39845 -16.9263
v 13.3318 1.41042 -16.9263
v 13.2899 1.41436 -16.9263
v 13.2476 1.41038 -16.9263
v 13.2069 1.39858 -16.9263
v 13.1688 1.3792 -16.9263
v 13.1345 1.35247 -16.9263
v 13.106 1.3191 -16.9263
v 13.0849 1.28091 -16.9263
v 13.0718 1.2393 -16.9263
v 13.0673 1.19563 -16.9263
v 13.0673 0.556373 -16.9263
v 13.0599 0.512722 -16.9263
v 13.0394 0.474836 -16.9263
v 13.0077 0.445535 -16.9263
v 12.9673 0.427635 -16.9263
v 12.1752 0.225625 -16.9263
v 11.6301 -0.692968 -16.9263
v 10.4319 -1.01896 -16.9263
v 10.2257 -1.39671 -16.9263
v 8.5645 -1.39671 -16.9263
v 8.4586 -1.22445 -16.9263
v 7.30408 -1.22445 -16.9263
v 7.18728 -1.06791 -16.9263
v -7.87374 -1.06791 -16.9263
v -7.97765 -1.26589 -16.9263
v -9.05794 -1.26589 -16.9263
v -9.14878 -1.39671 -16.9263
v -10.8891 -1.39671 -16.9263
v -11.134 -1.02461 -16.9263
v -12.5081 -0.763551 -16.9263
v -12.9025 0.255599 -16.9263
v -13.7316 0.453782 -16.9263
v -13.7569 0.463532 -16.9263
v -13.7779 0.479464 -16.9263
v -13.7938 0.500568 -16.9263
v -13.8035 0.52583 -16.9263
v -13.9595 1.20139 -16.9263
v -13.9622 1.22551 -16.9263
v -13.9554 1.26247 -16.9263
v -13.9353 1.29505 -16.9263
v -13.9001 1.32095 -16.9263
v -13.8576 1.32993 -16.9263
v -13.4786 1.28554 -16.9263
v -13.4765 1.30305 -16.9263
v -13.8427 1.34669 -16.9263
v -13.8579 1.34761 -16.9263
v -13.8833 1.34494 -16.9263
v -13.9073 1.33709 -16.9263
v -13.9292 1.32431 -16.9263
v -13.9485 1.30684 -16.9263
v -13.9719 1.26877 -16.9263
v -13.9799 1.2256 -16.9263
v -13.9767 1.19743 -16.9263
v -13.8207 0.521866 -16.9263
v -13.8092 0.491961 -16.9263
v -13.7904 0.466981 -16.9263
v -13.7655 0.448122 -16.9263
v -13.7357 0.43658 -16.9263
v -12.9173 0.244878 -16.9263
v -12.521 -0.779081 -16.9263
v -11.1467 -1.03744 -16.9263
v -10.8986 -1.41436 -16.9263
v -9.13954 -1.41436 -16.9263
v -9.0487 -1.28354 -16.9263
v -7.96698 -1.28354 -16.9263
v -7.86305 -1.08556 -16.9263
v 7.17846 -1.08556 -16.9263
v 7.29525 -1.2421 -16.9263
v 8.44874 -1.2421 -16.9263
v 8.55464 -1.41436 -16.9263
v 10.2362 -1.41436 -16.9263
v 10.4402 -1.03499 -16.9263
v 11.6417 -0.708101 -16.9263
v 12.1831 0.20944 -16.9263
v 12.9716 0.410536 -16.9263
v 13.0175 0.430807 -16.9263
v 13.0533 0.463999 -16.9263
v 13.0766 0.506919 -16.9263
v 13.0849 0.556373 -16.9263
v 13.0849 1.19563 -16.9263
v 13.0891 1.23574 -16.9263
v 13.1011 1.27396 -16.9263
v 13.1205 1.30902 -16.9263
v 13.1467 1.33968 -16.9263
v 13.1782 1.36431 -16.9263
v 13.2134 1.38216 -16.9263
v 13.2509 1.39304 -16.9263
v 13.2899 1.39671 -16.9263
v 13.3285 1.39308 -16.9263
v 13.3664 1.38204 -16.9263
v 13.8476 1.19027 -16.9263
v 13.8949 1.16267 -16.9263
v 13.931 1.12341 -16.9263
v 13.9541 1.07528 -16.9263
v 13.9623 1.02112 -16.9263
v 13.9623 0.720618 -16.9263
v 13.9799 0.720618 16.9263
v 13.9799 1.02112 16.9263
v 13.971 1.08053 16.9263
v 13.9457 1.13332 16.9263
v 13.906 1.1764 16.9263
v 13.8541 1.20668 16.9263
v 13.3729 1.39845 16.9263
v 13.3318 1.41042 16.9263
v 13.2899 1.41436 16.9263
v 13.2476 1.41038 16.9263
v 13.2069 1.39858 16.9263
v 13.1688 1.3792 16.9263
v 13.1345 1.35247 16.9263
v 13.106 1.3191 16.9263
v 13.0849 1.28091 16.9263
v 13.0718 1.2393 16.9263
v 13.0673 1.19563 16.9263
v 13.0673 0.556373 16.9263
v 13.0599 0.512722 16.9263
v 13.0394 0.474836 16.9263
v 13.0077 0.445535 16.9263
v 12.9673 0.427635 16.9263
v 12.1752 0.225625 16.9263
v 11.6301 -0.692968 16.9263
v 10.4319 -1.01896 16.9263
v 10.2257 -1.39671 16.9263
v 8.5645 -1.39671 16.9263
v 8.4586 -1.22445 16.9263
v 7.30408 -1.22445 16.9263
v 7.18728 -1.06791 16.9263
v -7.87374 -1.06791 16.9263
v -7.97765 -1.26589 16.9263
v -9.05794 -1.26589 16.9263
v -9.14878 -1.39671 16.9263
v -10.8891 -1.39671 16.9263
v -11.134 -1.02461 16.9263
v -12.5081 -0.763551 16.9263
v -12.9025 0.255599 16.9263
v -13.7316 0.453782 16.9263
v -13.7569 0.463532 16.9263
v -13.7779 0.479464 16.9263
v -13.7938 0.500568 16.9263
v -13.8035 0.52583 16.9263
v -13.9595 1.20139 16.9263
v -13.9622 1.22551 16.9263
v -13.9554 1.26247 16.9263
v -13.9353 1.29505 16.9263
v -13.9001 1.32095 16.9263
v -13.8576 1.32993 16.9263
v -13.4786 1.28554 16.9263
v -13.4765 1.30305 16.9263
v -13.8427 1.34669 16.9263
v -13.8579 1.34761 16.9263
v -13.8833 1.34494 16.9263
v -13.9073 1.33709 16.9263
v -13.9292 1.32431 16.9263
v -13.9485 1.30684 16.9263
v -13.9719 1.26877 16.9263
v -13.9799 1.2256 16.9263
v -13.9767 1.19743 16.9263
v -13.8207 0.521866 16.9263
v -13.8092 0.491961 16.9263
v -13.7904 0.466981 16.9263
v -13.7655 0.448122 16.9263
v -13.7357 0.43658 16.9263
v -12.9173 0.244878 16.9263
v -12.521 -0.779081 16.9263
v -11.1467 -1.03744 16.9263
v -10.8986 -1.41436 16.9263
v -9.13954 -1.41436 16.9263
v -9.0487 -1.28354 16.9263
v -7.96698 -1.28354 16.9263
v -7.86305 -1.08556 16.9263
v 7.17846 -1.08556 16.9263
v 7.29525 -1.2421 16.9263
v 8.44874 -1.2421 16.9263
v 8.55464 -1.41436 16.9263
v 10.2362 -1.41436 16.9263
v 10.4402 -1.03499 16.9263
v 11.6417 -0.708101 16.9263
v 12.1831 0.20944 16.9263
v 12.9716 0.410536 16.9263
v 13.0175 0.430807 16.9263
v 13.0533 0.463999 16.9263
v 13.0766 0.506919 16.9263
v 13.0849 0.556373 16.9263
v 13.0849 1.19563 16.9263
v 13.0891 1.23574 16.9263
v 13.1011 1.27396 16.9263
v 13.1205 1.30902 16.9263
v 13.1467 1.33968 16.9263
v 13.1782 1.36431 16.9263
v 13.2134 1.38216 16.9263
v 13.2509 1.39304 16.9263
v 13.2899 1.39671 16.9263
v 13.3285 1.39308 16.9263
v 13.3664 1.38204 16.9263
v 13.8476 1.19027 16.9263
v 13.8949 1.16267 16.9263
v 13.931 1.12341 16.9263
v 13.9541 1.07528 16.9263
v 13.9623 1.02112 16.9263
v 13.9623 0.720618 16.9263
v 13.9799 0.870867 0
v 13.9755 1.05082 0
v 13.9583 1.10692 0
v 13.9258 1.15486 0
v 13.8801 1.19154 0
v 13.6135 1.30257 0
v 13.3524 1.40444 0
v 13.3109 1.41239 0
v 13.2688 1.41237 0
v 13.2272 1.40448 0
v 13.1878 1.38889 0
v 13.1517 1.36584 0
v 13.1203 1.33578 0
v 13.0954 1.30001 0
v 13.0783 1.26011 0
v 13.0695 1.21747 0
v 13.0673 0.876003 0
v 13.0636 0.534547 0
v 13.0496 0.493779 0
v 13.0236 0.460186 0
v 12.9875 0.436585 0
v 12.5713 0.32663 0
v 11.9027 -0.233671 0
v 11.031 -0.855963 0
v 10.3288 -1.20783 0
v 9.39508 -1.39671 0
v 8.51155 -1.31058 0
v 7.88134 -1.22445 0
v 7.24568 -1.14618 0
v -0.343227 -1.06791 0
v -7.92569 -1.1669 0
v -8.5178 -1.26589 0
v -9.10336 -1.3313 0
v -10.0189 -1.39671 0
v -11.0115 -1.21066 0
v -11.821 -0.894081 0
v -12.7053 -0.253976 0
v -13.3171 0.354691 0
v -13.7443 0.458657 0
v -13.7674 0.471498 0
v -13.7859 0.490016 0
v -13.7986 0.513199 0
v -13.8815 0.86361 0
v -13.9609 1.21345 0
v -13.9588 1.24399 0
v -13.9454 1.27876 0
v -13.9177 1.308 0
v -13.8789 1.32544 0
v -13.6681 1.30774 0
v -13.4776 1.29429 0
v -13.6596 1.32487 0
v -13.8503 1.34715 0
v -13.8706 1.34627 0
v -13.8953 1.34101 0
v -13.9183 1.3307 0
v -13.9389 1.31558 0
v -13.9602 1.28781 0
v -13.9759 1.24718 0
v -13.9783 1.21151 0
v -13.8987 0.859646 0
v -13.8149 0.506913 0
v -13.7998 0.479471 0
v -13.778 0.457552 0
v -13.7506 0.442351 0
v -13.3265 0.340729 0
v -12.7191 -0.267101 0
v -11.8339 -0.908258 0
v -11.0226 -1.2259 0
v -10.0191 -1.41436 0
v -9.09412 -1.34895 0
v -8.50784 -1.28354 0
v -7.91502 -1.18455 0
v -0.342296 -1.08556 0
v 7.23685 -1.16383 0
v 7.872 -1.2421 0
v 8.50169 -1.32823 0
v 9.39543 -1.41436 0
v 10.3382 -1.22467 0
v 11.0409 -0.871545 0
v 11.9124 -0.249331 0
v 12.5774 0.309988 0
v 12.9945 0.420672 0
v 13.0354 0.447403 0
v 13.065 0.485459 0
v 13.0808 0.531646 0
v 13.0849 0.876003 0
v 13.087 1.21569 0
v 13.0951 1.25485 0
v 13.1108 1.29149 0
v 13.1336 1.32435 0
v 13.1625 1.35199 0
v 13.1958 1.37324 0
v 13.2321 1.3876 0
v 13.2704 1.39487 0
v 13.3092 1.39489 0
v 13.3474 1.38756 0
v 13.607 1.28616 0
v 13.8712 1.17647 0
v 13.913 1.14304 0
v 13.9426 1.09934 0
v 13.9582 1.0482 0
v 13.9623 0.870867 0
v 13.9711 0.720618 0


# Vertex Texture Coordinates :
vt 0.391823 0.029917
vt 0.391823 0.0341278
vt 0.391698 0.0349603
vt 0.391343 0.0357
vt 0.390787 0.0363037
vt 0.39006 0.0367281
vt 0.383317 0.0394153
vt 0.382741 0.039583
vt 0.382154 0.0396382
vt 0.381561 0.0395824
vt 0.38099 0.0394171
vt 0.380456 0.0391456
vt 0.379977 0.0387709
vt 0.379577 0.0383033
vt 0.379281 0.0377683
vt 0.379097 0.0371852
vt 0.379034 0.0365733
vt 0.379034 0.0276154
vt 0.378931 0.0270038
vt 0.378643 0.0264729
vt 0.3782 0.0260623
vt 0.377633 0.0258115
vt 0.366534 0.0229807
vt 0.358895 0.0101087
vt 0.342106 0.00554067
vt 0.339215 0.000247326
vt 0.315938 0.000247326
vt 0.314454 0.00266117
vt 0.298276 0.00266117
vt 0.296639 0.00485473
vt 0.0855925 0.00485473
vt 0.0841363 0.00208053
vt 0.0689985 0.00208053
vt 0.0677256 0.000247326
vt 0.0433394 0.000247326
vt 0.0399068 0.00546145
vt 0.0206526 0.00911965
vt 0.0151252 0.0234008
vt 0.00350693 0.0261779
vt 0.00315329 0.0263145
vt 0.00285825 0.0265377
vt 0.00263593 0.0268335
vt 0.00250048 0.0271875
vt 0.000314404 0.0366539
vt 0.000275516 0.036992
vt 0.000371505 0.0375098
vt 0.000652545 0.0379664
vt 0.00114684 0.0383293
vt 0.00174125 0.0384552
vt 0.00705258 0.0378331
vt 0.00708204 0.0380785
vt 0.00195004 0.03869
vt 0.00173786 0.0387028
vt 0.0013812 0.0386654
vt 0.00104503 0.0385555
vt 0.000737879 0.0383764
vt 0.000468258 0.0381316
vt 0.000140056 0.0375981
vt 2.79384e-05 0.0369932
vt 7.33585e-05 0.0365984
vt 0.00225944 0.0271319
vt 0.00241982 0.0267129
vt 0.00268293 0.0263628
vt 0.00303204 0.0260986
vt 0.00345042 0.0259368
vt 0.0149182 0.0232505
vt 0.0204714 0.00890203
vt 0.039729 0.00528175
vt 0.0432061 0
vt 0.0678551 0
vt 0.0691279 0.0018332
vt 0.0842858 0.0018332
vt 0.0857422 0.0046074
vt 0.296516 0.0046074
vt 0.298152 0.00241384
vt 0.314316 0.00241384
vt 0.3158 0
vt 0.339363 0
vt 0.342221 0.00531605
vt 0.359057 0.00989665
vt 0.366645 0.022754
vt 0.377694 0.0255719
vt 0.378336 0.0258559
vt 0.378838 0.026321
vt 0.379165 0.0269225
vt 0.379282 0.0276154
vt 0.379282 0.0365733
vt 0.37934 0.0371353
vt 0.379508 0.0376708
vt 0.37978 0.0381622
vt 0.380147 0.0385917
vt 0.380589 0.0389368
vt 0.381081 0.0391871
vt 0.381608 0.0393394
vt 0.382154 0.0393909
vt 0.382695 0.03934
vt 0.383225 0.0391854
vt 0.389968 0.0364982
vt 0.390631 0.0361114
vt 0.391138 0.0355611
vt 0.391462 0.0348868
vt 0.391575 0.0341278
vt 0.391575 0.029917
vt 0.397729 0.029917
vt 0.397729 0.0341278
vt 0.397854 0.0349603
vt 0.398209 0.0357
vt 0.398764 0.0363037
vt 0.399491 0.0367281
vt 0.406234 0.0394153
vt 0.40681 0.039583
vt 0.407398 0.0396382
vt 0.40799 0.0395824
vt 0.408561 0.0394171
vt 0.409095 0.0391456
vt 0.409575 0.0387709
vt 0.409975 0.0383033
vt 0.410271 0.0377683
vt 0.410454 0.0371852
vt 0.410517 0.0365733
vt 0.410517 0.0276154
vt 0.41062 0.0270038
vt 0.410909 0.0264729
vt 0.411352 0.0260623
vt 0.411919 0.0258115
vt 0.423017 0.0229807
vt 0.430656 0.0101087
vt 0.447446 0.00554067
vt 0.450336 0.000247326
vt 0.473614 0.000247326
vt 0.475098 0.00266117
vt 0.491276 0.00266117
vt 0.492912 0.00485473
vt 0.703959 0.00485473
vt 0.705415 0.00208053
vt 0.720553 0.00208053
vt 0.721826 0.000247326
vt 0.746212 0.000247326
vt 0.749645 0.00546145
vt 0.768899 0.00911965
vt 0.774426 0.0234008
vt 0.786045 0.0261779
vt 0.786398 0.0263145
vt 0.786693 0.0265377
vt 0.786916 0.0268335
vt 0.787051 0.0271875
vt 0.789237 0.0366539
vt 0.789276 0.036992
vt 0.78918 0.0375098
vt 0.788899 0.0379664
vt 0.788405 0.0383293
vt 0.78781 0.0384552
vt 0.782499 0.0378331
vt 0.78247 0.0380785
vt 0.787602 0.03869
vt 0.787814 0.0387028
vt 0.78817 0.0386654
vt 0.788507 0.0385555
vt 0.788814 0.0383764
vt 0.789083 0.0381316
vt 0.789412 0.0375981
vt 0.789524 0.0369932
vt 0.789478 0.0365984
vt 0.787292 0.0271319
vt 0.787132 0.0267129
vt 0.786869 0.0263628
vt 0.78652 0.0260986
vt 0.786101 0.0259368
vt 0.774633 0.0232505
vt 0.76908 0.00890203
vt 0.749823 0.00528175
vt 0.746346 0
vt 0.721697 0
vt 0.720424 0.0018332
vt 0.705266 0.0018332
vt 0.703809 0.0046074
vt 0.493036 0.0046074
vt 0.491399 0.00241384
vt 0.475236 0.00241384
vt 0.473752 0
vt 0.450188 0
vt 0.44733 0.00531605
vt 0.430494 0.00989665
vt 0.422907 0.022754
vt 0.411858 0.0255719
vt 0.411215 0.0258559
vt 0.410713 0.026321
vt 0.410387 0.0269225
vt 0.41027 0.0276154
vt 0.41027 0.0365733
vt 0.410212 0.0371353
vt 0.410043 0.0376708
vt 0.409772 0.0381622
vt 0.409404 0.0385917
vt 0.408962 0.0389368
vt 0.40847 0.0391871
vt 0.407944 0.0393394
vt 0.407398 0.0393909
vt 0.406857 0.03934
vt 0.406326 0.0391854
vt 0.399583 0.0364982
vt 0.39892 0.0361114
vt 0.398414 0.0355611
vt 0.39809 0.0348868
vt 0.397976 0.0341278
vt 0.397976 0.029917
vt 1.14328e-05 0.0454716
vt 0.00422225 0.0454716
vt 0.00506404 0.0454716
vt 0.00588452 0.0454716
vt 0.00670506 0.0454716
vt 0.00754704 0.0454716
vt 0.0148058 0.0454716
vt 0.0154056 0.0454716
vt 0.0159958 0.0454716
vt 0.0165906 0.0454716
vt 0.0171852 0.0454716
vt 0.0177841 0.0454716
vt 0.0183928 0.0454716
vt 0.0190081 0.0454716
vt 0.0196195 0.0454716
vt 0.0202308 0.0454716
vt 0.020846 0.0454716
vt 0.0298038 0.0454716
vt 0.0304241 0.0454716
vt 0.0310282 0.0454716
vt 0.0316322 0.0454716
vt 0.0322523 0.0454716
vt 0.0437063 0.0454716
vt 0 0.525631
vt 0.0149681 0.525631
vt 0.0323681 0.525631
vt 0.0495917 0.0454716
vt 0.0556226 0.0454716
vt 0.0614672 0.0454716
vt 0.0847448 0.0454716
vt 0.0382194 0.525631
vt 0.0410529 0.525631
vt 0.0614847 0.525631
vt 0.0776628 0.525631
vt 0.0495595 0.525631
vt 0.0522963 0.525631
vt 0.0905757 0.0454716
vt 0.301622 0.0454716
vt 0.0905906 0.525631
vt 0.0937238 0.525631
vt 0.099586 0.525631
vt 0.114724 0.525631
vt 0.120574 0.525631
vt 0.122805 0.525631
vt 0.128663 0.525631
vt 0.15305 0.525631
vt 0.158871 0.525631
vt 0.165114 0.525631
vt 0.170955 0.525631
vt 0.190553 0.525631
vt 0.196433 0.525631
vt 0.211747 0.525631
vt 0.217594 0.525631
vt 0.229539 0.525631
vt 0.229918 0.525631
vt 0.230288 0.525631
vt 0.230658 0.525631
vt 0.231037 0.525631
vt 0.240753 0.525631
vt 0.241093 0.525631
vt 0.24162 0.525631
vt 0.242156 0.525631
vt 0.242769 0.525631
vt 0.243377 0.525631
vt 0.248725 0.525631
vt 0.0835214 0.525631
vt 0.0837685 0.525631
vt 0.254534 0.525631
vt 0.259702 0.525631
vt 0.259914 0.525631
vt 0.260273 0.525631
vt 0.260627 0.525631
vt 0.260982 0.525631
vt 0.261346 0.525631
vt 0.261973 0.525631
vt 0.262588 0.525631
vt 0.262985 0.525631
vt 0.272701 0.525631
vt 0.27315 0.525631
vt 0.273588 0.525631
vt 0.274026 0.525631
vt 0.274474 0.525631
vt 0.286252 0.525631
vt 0.307462 0.0454716
vt 0.322847 0.0454716
vt 0.328693 0.0454716
vt 0.348288 0.0454716
vt 0.292073 0.525631
vt 0.298397 0.525631
vt 0.354135 0.0454716
vt 0.378784 0.0454716
vt 0.307495 0.525631
vt 0.309727 0.525631
vt 0.328654 0.525631
vt 0.343811 0.525631
vt 0.315615 0.525631
vt 0.318748 0.525631
vt 0.384587 0.0454716
vt 0.595361 0.0454716
vt 0.354147 0.525631
vt 0.356884 0.525631
vt 0.384609 0.525631
vt 0.400773 0.525631
vt 0.362727 0.525631
vt 0.36556 0.525631
vt 0.40662 0.525631
vt 0.430183 0.525631
vt 0.371433 0.525631
vt 0.377469 0.525631
vt 0.43603 0.525631
vt 0.453478 0.525631
vt 0.468407 0.525631
vt 0.474226 0.525631
vt 0.485628 0.525631
vt 0.486331 0.525631
vt 0.487015 0.525631
vt 0.4877 0.525631
vt 0.488402 0.525631
vt 0.49736 0.525631
vt 0.497925 0.525631
vt 0.498487 0.525631
vt 0.499048 0.525631
vt 0.499613 0.525631
vt 0.500174 0.525631
vt 0.500726 0.525631
vt 0.501274 0.525631
vt 0.501822 0.525631
vt 0.502366 0.525631
vt 0.502919 0.525631
vt 0.510177 0.525631
vt 0.510945 0.525631
vt 0.511693 0.525631
vt 0.512441 0.525631
vt 0.513208 0.525631
vt 0.517419 0.525631
vt 0.523262 0.525631
vt 0.523509 0.525631
vt 1.14328e-05 0.51984
vt 0.00422225 0.51984
vt 0.00506404 0.51984
vt 0.00588452 0.51984
vt 0.00670506 0.51984
vt 0.00754704 0.51984
vt 0.0148058 0.51984
vt 0.0154056 0.51984
vt 0.0159958 0.51984
vt 0.0165906 0.51984
vt 0.0171852 0.51984
vt 0.0177841 0.51984
vt 0.0183928 0.51984
vt 0.0190081 0.51984
vt 0.0196195 0.51984
vt 0.0202308 0.51984
vt 0.020846 0.51984
vt 0.0298038 0.51984
vt 0.0304241 0.51984
vt 0.0310282 0.51984
vt 0.0316322 0.51984
vt 0.0322523 0.51984
vt 0.0437063 0.51984
vt 0 1
vt 0.0149681 1
vt 0.0323681 1
vt 0.0495917 0.51984
vt 0.0556226 0.51984
vt 0.0614672 0.51984
vt 0.0847448 0.51984
vt 0.0382194 1
vt 0.0410529 1
vt 0.0614847 1
vt 0.0776628 1
vt 0.0495595 1
vt 0.0522963 1
vt 0.0905757 0.51984
vt 0.301622 0.51984
vt 0.0905906 1
vt 0.0937238 1
vt 0.099586 1
vt 0.114724 1
vt 0.120574 1
vt 0.122805 1
vt 0.128663 1
vt 0.15305 1
vt 0.158871 1
vt 0.165114 1
vt 0.170955 1
vt 0.190553 1
vt 0.196433 1
vt 0.211747 1
vt 0.217594 1
vt 0.229539 1
vt 0.229918 1
vt 0.230288 1
vt 0.230658 1
vt 0.231037 1
vt 0.240753 1
vt 0.241093 1
vt 0.24162 1
vt 0.242156 1
vt 0.242769 1
vt 0.243377 1
vt 0.248725 1
vt 0.0835214 1
vt 0.0837685 1
vt 0.254534 1
vt 0.259702 1
vt 0.259914 1
vt 0.260273 1
vt 0.260627 1
vt 0.260982 1
vt 0.261346 1
vt 0.261973 1
vt 0.262588 1
vt 0.262985 1
vt 0.272701 1
vt 0.27315 1
vt 0.273588 1
vt 0.274026 1
vt 0.274474 1
vt 0.286252 1
vt 0.307462 0.51984
vt 0.322847 0.51984
vt 0.328693 0.51984
vt 0.348288 0.51984
vt 0.292073 1
vt 0.298397 1
vt 0.354135 0.51984
vt 0.378784 0.51984
vt 0.307495 1
vt 0.309727 1
vt 0.328654 1
vt 0.343811 1
vt 0.315615 1
vt 0.318748 1
vt 0.384587 0.51984
vt 0.595361 0.51984
vt 0.354147 1
vt 0.356884 1
vt 0.384609 1
vt 0.400773 1
vt 0.362727 1
vt 0.36556 1
vt 0.40662 1
vt 0.430183 1
vt 0.371433 1
vt 0.377469 1
vt 0.43603 1
vt 0.453478 1
vt 0.468407 1
vt 0.474226 1
vt 0.485628 1
vt 0.486331 1
vt 0.487015 1
vt 0.4877 1
vt 0.488402 1
vt 0.49736 1
vt 0.497925 1
vt 0.498487 1
vt 0.499048 1
vt 0.499613 1
vt 0.500174 1
vt 0.500726 1
vt 0.501274 1
vt 0.501822 1
vt 0.502366 1
vt 0.502919 1
vt 0.510177 1
vt 0.510945 1
vt 0.511693 1
vt 0.512441 1
vt 0.513208 1
vt 0.517419 1
vt 0.523262 1
vt 0.523509 1
vt 0.00211684 0.282656
vt 0.00464314 0.282656
vt 0.00547428 0.282656
vt 0.00629479 0.282656
vt 0.00712605 0.282656
vt 0.0111764 0.282656
vt 0.0151057 0.282656
vt 0.0157007 0.282656
vt 0.0162932 0.282656
vt 0.0168879 0.282656
vt 0.0174847 0.282656
vt 0.0180884 0.282656
vt 0.0187004 0.282656
vt 0.0193138 0.282656
vt 0.0199252 0.282656
vt 0.0205384 0.282656
vt 0.0253249 0.282656
vt 0.0301139 0.282656
vt 0.0307261 0.282656
vt 0.0313302 0.282656
vt 0.0319423 0.282656
vt 0.0379793 0.282656
vt 0.00748406 0.762816
vt 0.0236681 0.762816
vt 0.0526071 0.282656
vt 0.073106 0.282656
vt 0.0396361 0.762816
vt 0.0695737 0.762816
vt 0.0509279 0.762816
vt 0.196099 0.282656
vt 0.0921572 0.762816
vt 0.107155 0.762816
vt 0.121689 0.762816
vt 0.140856 0.762816
vt 0.161992 0.762816
vt 0.180754 0.762816
vt 0.20409 0.762816
vt 0.223567 0.762816
vt 0.229729 0.762816
vt 0.230103 0.762816
vt 0.230473 0.762816
vt 0.230848 0.762816
vt 0.235895 0.762816
vt 0.240923 0.762816
vt 0.241357 0.762816
vt 0.241888 0.762816
vt 0.242463 0.762816
vt 0.243073 0.762816
vt 0.246051 0.762816
vt 0.083645 0.762816
vt 0.257118 0.762816
vt 0.259808 0.762816
vt 0.260094 0.762816
vt 0.26045 0.762816
vt 0.260805 0.762816
vt 0.261164 0.762816
vt 0.26166 0.762816
vt 0.26228 0.762816
vt 0.262787 0.762816
vt 0.267843 0.762816
vt 0.272925 0.762816
vt 0.273369 0.762816
vt 0.273807 0.762816
vt 0.27425 0.762816
vt 0.280363 0.762816
vt 0.315155 0.282656
vt 0.338491 0.282656
vt 0.295235 0.762816
vt 0.36646 0.282656
vt 0.308611 0.762816
vt 0.336232 0.762816
vt 0.317181 0.762816
vt 0.489974 0.282656
vt 0.355515 0.762816
vt 0.392691 0.762816
vt 0.364143 0.762816
vt 0.418402 0.762816
vt 0.374451 0.762816
vt 0.444754 0.762816
vt 0.460943 0.762816
vt 0.479927 0.762816
vt 0.48598 0.762816
vt 0.486673 0.762816
vt 0.487357 0.762816
vt 0.488051 0.762816
vt 0.492881 0.762816
vt 0.497643 0.762816
vt 0.498206 0.762816
vt 0.498767 0.762816
vt 0.499331 0.762816
vt 0.499894 0.762816
vt 0.50045 0.762816
vt 0.501 0.762816
vt 0.501548 0.762816
vt 0.502094 0.762816
vt 0.502642 0.762816
vt 0.506548 0.762816
vt 0.510561 0.762816
vt 0.511319 0.762816
vt 0.512067 0.762816
vt 0.512825 0.762816
vt 0.515314 0.762816
vt 0.523386 0.762816


# Vertex Surface Normals: 
vn 0 0 1
vn 0 0 -1
vn 1 0 0
vn 1 0 0
vn 0.997233 0.0743435 2.34032e-17
vn 0.997233 0.0743435 -2.34032e-17
vn 1 0 0
vn 0.988946 0.148276 0
vn 0.9559 0.293691 1.66795e-18
vn 0.9559 0.293691 -1.66795e-18
vn 0.901598 0.432575 0
vn 0.82776 0.561082 -4.19029e-17
vn 0.82776 0.561082 4.19029e-17
vn 0.73574 0.677264 0
vn 0.626844 0.779145 -5.09238e-18
vn 0.626844 0.779145 5.09238e-18
vn 0.504007 0.863699 0
vn 0.438324 0.898817 8.63233e-18
vn 0.438324 0.898817 -8.63233e-18
vn 0.370209 0.928949 0
vn 0.325261 0.945624 -6.11652e-18
vn 0.325261 0.945624 6.11652e-18
vn 0.279567 0.960126 0
vn 0.187396 0.982285 2.25922e-18
vn 0.187396 0.982285 -2.25922e-18
vn 0.0935404 0.995615 0
vn -0.000146671 1 7.53676e-18
vn -0.000146671 1 -7.53676e-18
vn -0.0938324 0.995588 0
vn -0.186704 0.982416 2.37336e-18
vn -0.186704 0.982416 -2.37336e-18
vn -0.277933 0.960601 0
vn -0.367327 0.930092 -1.38709e-17
vn -0.367327 0.930092 1.38709e-17
vn -0.453444 0.891285 0
vn -0.536975 0.843598 3.91021e-18
vn -0.536975 0.843598 -3.91021e-18
vn -0.615537 0.788108 0
vn -0.691205 0.722659 -5.48572e-18
vn -0.691205 0.722659 5.48572e-18
vn -0.759954 0.649977 0
vn -0.821725 0.569885 -6.75859e-19
vn -0.821725 0.569885 6.75859e-19
vn -0.875088 0.483963 0
vn -0.919067 0.394101 -3.37261e-18
vn -0.919067 0.394101 3.37261e-18
vn -0.953847 0.300293 0
vn -0.979301 0.202408 9.91143e-19
vn -0.979301 0.202408 -9.91143e-19
vn -0.994738 0.102453 0
vn -0.998684 0.051294 2.39687e-17
vn -0.998684 0.051294 -2.39687e-17
vn -1 0 0
vn -0.996527 0.083266 2.52207e-19
vn -0.996527 0.083266 -2.52207e-19
vn -0.986134 0.165954 0
vn -0.945346 0.326068 9.84182e-19
vn -0.945346 0.326068 -9.84182e-19
vn -0.878751 0.477281 0
vn -0.789704 0.613488 1.84194e-17
vn -0.789704 0.613488 -1.84194e-17
vn -0.679744 0.733449 0
vn -0.549649 0.835396 1.90882e-17
vn -0.549649 0.835396 -1.90882e-17
vn -0.404539 0.914521 0
vn -0.326974 0.945033 8.05845e-18
vn -0.326974 0.945033 -8.05845e-18
vn -0.247137 0.96898 0
vn -0.247137 0.96898 1.33181e-17
vn -0.247137 0.96898 -1.33181e-17
vn -0.859963 0.510356 0
vn -0.859963 0.510356 0
vn -0.605522 0.795829 -1.46594e-18
vn -0.605522 0.795829 1.46594e-18
vn -0.859963 0.510356 0
vn -0.262531 0.964923 0
vn -0.262531 0.964923 -2.71751e-18
vn -0.262531 0.964923 2.71751e-18
vn -0.877697 0.479217 0
vn -0.877697 0.479217 -2.78695e-18
vn -0.877697 0.479217 -2.78695e-18
vn -0.877697 0.479217 2.78695e-18
vn -0.877697 0.479217 2.78695e-18
vn 0 1 0
vn 0 1 0
vn 0 1 0
vn 0 1 0
vn 0 1 0
vn 0.851892 0.523717 0
vn 0.851892 0.523717 3.19153e-18
vn 0.851892 0.523717 3.19153e-18
vn 0.851892 0.523717 -3.19153e-18
vn 0.851892 0.523717 -3.19153e-18
vn 0 1 0
vn 0 1 0
vn 0 1 0
vn 0 1 0
vn 0 1 0
vn 0.801501 0.597993 0
vn 0.801501 0.597993 -3.52502e-18
vn 0.801501 0.597993 -3.52502e-18
vn 0.801501 0.597993 3.52502e-18
vn 0.801501 0.597993 3.52502e-18
vn 0 1 0
vn 0 1 0
vn 0 1 0
vn 0 1 0
vn 0 1 0
vn -0.885434 0.464764 0
vn -0.885434 0.464764 3.98149e-17
vn -0.885434 0.464764 3.98149e-17
vn -0.885434 0.464764 -3.98149e-17
vn -0.885434 0.464764 -3.98149e-17
vn 0 1 0
vn 0 1 0
vn 0 1 0
vn 0 1 0
vn 0 1 0
vn -0.821412 0.570335 0
vn -0.821412 0.570335 3.37943e-18
vn -0.821412 0.570335 3.37943e-18
vn -0.821412 0.570335 -3.37943e-18
vn -0.821412 0.570335 -3.37943e-18
vn 0 1 0
vn 0 1 0
vn 0 1 0
vn 0 1 0
vn 0 1 0
vn 0.835251 0.549869 0
vn 0.835251 0.549869 -3.46075e-18
vn 0.835251 0.549869 -3.46075e-18
vn 0.835251 0.549869 3.46075e-18
vn 0.835251 0.549869 3.46075e-18
vn 0.186656 0.982425 0
vn 0.186656 0.982425 2.88644e-18
vn 0.186656 0.982425 2.88644e-18
vn 0.186656 0.982425 -2.88644e-18
vn 0.186656 0.982425 -2.88644e-18
vn 0.932585 0.360949 0
vn 0.932585 0.360949 0
vn 0.932585 0.360949 0
vn 0.932585 0.360949 0
vn 0.932585 0.360949 0
vn 0.23248 0.972601 0
vn 0.23248 0.972601 -1.23627e-17
vn 0.297092 0.954849 -6.19527e-18
vn 0.297092 0.954849 6.19527e-18
vn 0.23248 0.972601 1.23627e-17
vn 0.36037 0.932809 0
vn 0.48662 0.873614 -1.34523e-17
vn 0.48662 0.873614 1.34523e-17
vn 0.603409 0.797432 0
vn 0.708212 0.706 -1.34516e-17
vn 0.708212 0.706 1.34516e-17
vn 0.799316 0.60091 0
vn 0.875153 0.483846 -4.54125e-17
vn 0.875153 0.483846 4.54125e-17
vn 0.933964 0.357368 0
vn 0.956453 0.291887 -4.58183e-17
vn 0.956453 0.291887 4.58183e-17
vn 0.974357 0.225007 0
vn 0.985458 0.169919 -7.38898e-19
vn 0.985458 0.169919 7.38898e-19
vn 0.993447 0.114295 0
vn 0.999409 -0.0343657 1.10675e-18
vn 0.999409 -0.0343657 -1.10675e-18
vn 0.983249 -0.182266 0
vn 0.933229 -0.359281 2.35746e-17
vn 0.933229 -0.359281 -2.35746e-17
vn 0.851632 -0.524139 0
vn 0.735376 -0.677659 2.49787e-17
vn 0.735376 -0.677659 -2.49787e-17
vn 0.591849 -0.806049 0
vn 0.408665 -0.912684 -5.16322e-19
vn 0.408665 -0.912684 5.16322e-19
vn 0.207121 -0.978315 0
vn 0.0460004 -0.998941 -2.80756e-18
vn 0.0460004 -0.998941 2.80756e-18
vn -0.116333 -0.99321 0
vn -0.116333 -0.99321 3.37068e-19
vn -0.116333 -0.99321 -3.37068e-19
vn 0.992868 -0.119222 0
vn 0.992868 -0.119222 0
vn 0.992868 -0.119222 0
vn 0.992868 -0.119222 0
vn 0.992868 -0.119222 0
vn 0.118327 0.992975 0
vn 0.118327 0.992975 2.32565e-19
vn 0.0893089 0.996004 -1.33521e-18
vn 0.0893089 0.996004 1.33521e-18
vn 0.118327 0.992975 -2.32565e-19
vn 0.0602148 0.998185 0
vn -0.0221227 0.999755 4.0678e-18
vn -0.0221227 0.999755 -4.0678e-18
vn -0.10431 0.994545 0
vn -0.208751 0.977969 5.53588e-18
vn -0.208751 0.977969 -5.53588e-18
vn -0.310858 0.950456 0
vn -0.409554 0.912286 2.61983e-18
vn -0.409554 0.912286 -2.61983e-18
vn -0.503663 0.8639 0
vn -0.591159 0.806555 2.61949e-18
vn -0.591159 0.806555 -2.61949e-18
vn -0.672186 0.740382 0
vn -0.769611 0.638513 2.06886e-17
vn -0.769611 0.638513 -2.06886e-17
vn -0.851745 0.523956 0
vn -0.933273 0.359168 4.49077e-17
vn -0.933273 0.359168 -4.49077e-17
vn -0.983254 0.182239 0
vn -0.99941 0.0343509 -2.5081e-19
vn -0.99941 0.0343509 2.5081e-19
vn -0.993447 -0.114298 0
vn -0.985458 -0.169921 -5.53088e-19
vn -0.985458 -0.169921 5.53088e-19
vn -0.974357 -0.225007 0
vn -0.956442 -0.291921 2.28793e-17
vn -0.956442 -0.291921 -2.28793e-17
vn -0.933938 -0.357435 0
vn -0.875153 -0.483847 -1.99819e-17
vn -0.875153 -0.483847 1.99819e-17
vn -0.799358 -0.600855 0
vn -0.708297 -0.705914 -5.96963e-18
vn -0.708297 -0.705914 5.96963e-18
vn -0.603545 -0.797329 0
vn -0.486788 -0.87352 3.28938e-18
vn -0.486788 -0.87352 -3.28938e-18
vn -0.36057 -0.932732 0
vn -0.295031 -0.955488 -5.44199e-18
vn -0.295031 -0.955488 5.44199e-18
vn -0.228072 -0.973644 0
vn -0.228072 -0.973644 9.30478e-18
vn -0.228072 -0.973644 -9.30478e-18
vn -0.932591 -0.360936 0
vn -0.932591 -0.360936 4.37614e-17
vn -0.932591 -0.360936 4.37614e-17
vn -0.932591 -0.360936 -4.37614e-17
vn -0.932591 -0.360936 -4.37614e-17
vn -0.184756 -0.982784 0
vn -0.184756 -0.982784 -2.887e-18
vn -0.184756 -0.982784 -2.887e-18
vn -0.184756 -0.982784 2.887e-18
vn -0.184756 -0.982784 2.887e-18
vn -0.835256 -0.549861 0
vn -0.835256 -0.549861 -3.41609e-18
vn -0.835256 -0.549861 -3.41609e-18
vn -0.835256 -0.549861 3.41609e-18
vn -0.835256 -0.549861 3.41609e-18
vn 0 -1 0
vn 0 -1 0
vn 0 -1 0
vn 0 -1 0
vn 0 -1 0
vn 0.821412 -0.570335 0
vn 0.821412 -0.570335 -3.51461e-18
vn 0.821412 -0.570335 -3.51461e-18
vn 0.821412 -0.570335 3.51461e-18
vn 0.821412 -0.570335 3.51461e-18
vn 0 -1 0
vn 0 -1 0
vn 0 -1 0
vn 0 -1 0
vn 0 -1 0
vn 0.885403 -0.464825 0
vn 0.885403 -0.464825 -3.96211e-17
vn 0.885403 -0.464825 -3.96211e-17
vn 0.885403 -0.464825 3.96211e-17
vn 0.885403 -0.464825 3.96211e-17
vn 0 -1 0
vn 0 -1 0
vn 0 -1 0
vn 0 -1 0
vn 0 -1 0
vn -0.801501 -0.597993 0
vn -0.801501 -0.597993 0
vn -0.801501 -0.597993 0
vn -0.801501 -0.597993 0
vn -0.801501 -0.597993 0
vn 0 -1 0
vn 0 -1 0
vn 0 -1 0
vn 0 -1 0
vn 0 -1 0
vn -0.851892 -0.523717 0
vn -0.851892 -0.523717 -4.08516e-17
vn -0.851892 -0.523717 -4.08516e-17
vn -0.851892 -0.523717 4.08516e-17
vn -0.851892 -0.523717 4.08516e-17
vn 0 -1 0
vn 0 -1 0
vn 0 -1 0
vn 0 -1 0
vn 0 -1 0
vn 0.880764 -0.473556 0
vn 0.880764 -0.473556 -4.49535e-17
vn 0.880764 -0.473556 -4.49535e-17
vn 0.880764 -0.473556 4.49535e-17
vn 0.880764 -0.473556 4.49535e-17
vn 0.262528 -0.964924 0
vn 0.262528 -0.964924 -1.51751e-17
vn 0.606504 -0.79508 1.44506e-17
vn 0.606504 -0.79508 -1.44506e-17
vn 0.262528 -0.964924 1.51751e-17
vn 0.861223 -0.508227 0
vn 0.861223 -0.508227 4.19497e-17
vn 0.861223 -0.508227 -4.19497e-17
vn 0.247128 -0.968983 0
vn 0.247128 -0.968983 -1.25428e-18
vn 0.326892 -0.945062 9.14178e-18
vn 0.326892 -0.945062 -9.14178e-18
vn 0.247128 -0.968983 1.25428e-18
vn 0.404389 -0.914587 0
vn 0.549523 -0.835479 2.64435e-17
vn 0.549523 -0.835479 -2.64435e-17
vn 0.679643 -0.733543 0
vn 0.789629 -0.613584 1.65644e-17
vn 0.789629 -0.613584 -1.65644e-17
vn 0.878701 -0.477373 0
vn 0.945322 -0.326137 -2.38103e-17
vn 0.945322 -0.326137 2.38103e-17
vn 0.986127 -0.165994 0
vn 0.996526 -0.0832864 -2.35671e-17
vn 0.996526 -0.0832864 2.35671e-17
vn 1 0 0
vn 0.998684 -0.0512944 -2.39723e-17
vn 0.998684 -0.0512944 2.39723e-17
vn 0.994738 -0.102454 0
vn 0.979299 -0.202418 -2.40638e-17
vn 0.979299 -0.202418 2.40638e-17
vn 0.953841 -0.300312 0
vn 0.919058 -0.394122 2.11565e-17
vn 0.919058 -0.394122 -2.11565e-17
vn 0.875075 -0.483988 0
vn 0.821719 -0.569893 -1.56064e-17
vn 0.821719 -0.569893 1.56064e-17
vn 0.759959 -0.649971 0
vn 0.6912 -0.722663 -5.16489e-17
vn 0.6912 -0.722663 5.16489e-17
vn 0.615521 -0.78812 0
vn 0.53693 -0.843627 -3.90963e-18
vn 0.53693 -0.843627 3.90963e-18
vn 0.453367 -0.891324 0
vn 0.367276 -0.930112 4.25327e-18
vn 0.367276 -0.930112 -4.25327e-18
vn 0.277911 -0.960607 0
vn 0.186704 -0.982416 -1.19923e-17
vn 0.186704 -0.982416 1.19923e-17
vn 0.0938553 -0.995586 0
vn 0.000132621 -1 -1.05463e-17
vn 0.000132621 -1 1.05463e-17
vn -0.0935913 -0.995611 0
vn -0.187589 -0.982248 -8.17545e-18
vn -0.187589 -0.982248 8.17545e-18
vn -0.279896 -0.96003 0
vn -0.325424 -0.945568 8.67743e-18
vn -0.325424 -0.945568 -8.67743e-18
vn -0.370209 -0.928949 0
vn -0.438256 -0.89885 2.03829e-18
vn -0.438256 -0.89885 -2.03829e-18
vn -0.503876 -0.863776 0
vn -0.626726 -0.77924 8.27151e-18
vn -0.626726 -0.77924 -8.27151e-18
vn -0.735637 -0.677376 0
vn -0.827686 -0.561191 -4.03562e-18
vn -0.827686 -0.561191 4.03562e-18
vn -0.901549 -0.432677 0
vn -0.955878 -0.293763 -4.55518e-17
vn -0.955878 -0.293763 4.55518e-17
vn -0.98894 -0.148313 0
vn -0.997231 -0.0743624 -2.34132e-17
vn -0.997231 -0.0743624 2.34132e-17
vn -1 0 0
vn -1 0 0
vn -1 0 0
vn 0 -1 0
vn 0 -1 0
vn 0 -1 0
vn 0 -1 0
vn 0 -1 0


# Faces: 
usemtl material0
f 171/68/1 172/69/1 138/35/1
f 138/35/1 172/69/1 173/70/1
f 139/36/1 171/68/1 138/35/1
f 136/33/1 137/34/1 174/71/1
f 173/70/1 137/34/1 138/35/1
f 174/71/1 137/34/1 173/70/1
f 142/39/1 168/65/1 169/66/1
f 141/38/1 169/66/1 140/37/1
f 141/38/1 142/39/1 169/66/1
f 171/68/1 140/37/1 170/67/1
f 140/37/1 171/68/1 139/36/1
f 170/67/1 140/37/1 169/66/1
f 174/71/1 175/72/1 135/32/1
f 176/73/1 135/32/1 175/72/1
f 130/27/1 180/77/1 129/26/1
f 179/76/1 180/77/1 130/27/1
f 133/30/1 134/31/1 176/73/1
f 176/73/1 134/31/1 135/32/1
f 133/30/1 176/73/1 177/74/1
f 132/29/1 179/76/1 131/28/1
f 177/74/1 178/75/1 132/29/1
f 179/76/1 130/27/1 131/28/1
f 132/29/1 133/30/1 177/74/1
f 178/75/1 179/76/1 132/29/1
f 135/32/1 136/33/1 174/71/1
f 161/58/1 162/59/1 149/46/1
f 148/45/1 162/59/1 163/60/1
f 147/44/1 148/45/1 163/60/1
f 148/45/1 149/46/1 162/59/1
f 163/60/1 164/61/1 147/44/1
f 161/58/1 149/46/1 160/57/1
f 160/57/1 150/47/1 159/56/1
f 150/47/1 160/57/1 149/46/1
f 159/56/1 150/47/1 151/48/1
f 158/55/1 151/48/1 157/54/1
f 151/48/1 158/55/1 159/56/1
f 152/49/1 156/53/1 157/54/1
f 157/54/1 151/48/1 152/49/1
f 165/62/1 166/63/1 144/41/1
f 144/41/1 166/63/1 167/64/1
f 165/62/1 144/41/1 145/42/1
f 168/65/1 143/40/1 167/64/1
f 143/40/1 168/65/1 142/39/1
f 167/64/1 143/40/1 144/41/1
f 155/52/1 152/49/1 153/50/1
f 146/43/1 147/44/1 164/61/1
f 152/49/1 155/52/1 156/53/1
f 145/42/1 146/43/1 164/61/1
f 154/51/1 155/52/1 153/50/1
f 164/61/1 165/62/1 145/42/1
f 128/25/1 129/26/1 182/79/1
f 181/78/1 129/26/1 180/77/1
f 182/79/1 129/26/1 181/78/1
f 182/79/1 183/80/1 127/24/1
f 127/24/1 183/80/1 184/81/1
f 182/79/1 127/24/1 128/25/1
f 126/23/1 184/81/1 125/22/1
f 184/81/1 126/23/1 127/24/1
f 125/22/1 184/81/1 185/82/1
f 186/83/1 124/21/1 125/22/1
f 187/84/1 123/20/1 124/21/1
f 124/21/1 186/83/1 187/84/1
f 186/83/1 125/22/1 185/82/1
f 122/19/1 189/86/1 121/18/1
f 122/19/1 123/20/1 188/85/1
f 188/85/1 123/20/1 187/84/1
f 190/87/1 121/18/1 189/86/1
f 188/85/1 189/86/1 122/19/1
f 107/4/1 203/100/1 106/3/1
f 106/3/1 203/100/1 204/101/1
f 205/102/1 104/1/1 105/2/1
f 106/3/1 204/101/1 105/2/1
f 105/2/1 204/101/1 205/102/1
f 206/103/1 104/1/1 205/102/1
f 108/5/1 203/100/1 107/4/1
f 119/16/1 191/88/1 118/15/1
f 190/87/1 119/16/1 120/17/1
f 191/88/1 192/89/1 118/15/1
f 190/87/1 191/88/1 119/16/1
f 121/18/1 190/87/1 120/17/1
f 118/15/1 192/89/1 193/90/1
f 116/13/1 117/14/1 194/91/1
f 193/90/1 117/14/1 118/15/1
f 194/91/1 117/14/1 193/90/1
f 194/91/1 195/92/1 115/12/1
f 114/11/1 115/12/1 195/92/1
f 114/11/1 195/92/1 196/93/1
f 194/91/1 115/12/1 116/13/1
f 110/7/1 200/97/1 201/98/1
f 109/6/1 202/99/1 108/5/1
f 202/99/1 109/6/1 201/98/1
f 108/5/1 202/99/1 203/100/1
f 110/7/1 201/98/1 109/6/1
f 113/10/1 197/94/1 112/9/1
f 197/94/1 113/10/1 196/93/1
f 112/9/1 197/94/1 198/95/1
f 199/96/1 111/8/1 112/9/1
f 111/8/1 199/96/1 200/97/1
f 200/97/1 110/7/1 111/8/1
f 199/96/1 112/9/1 198/95/1
f 196/93/1 113/10/1 114/11/1
f 69/172/2 68/171/2 35/138/2
f 69/172/2 35/138/2 70/173/2
f 68/171/2 36/139/2 35/138/2
f 34/137/2 33/136/2 71/174/2
f 34/137/2 70/173/2 35/138/2
f 34/137/2 71/174/2 70/173/2
f 65/168/2 39/142/2 66/169/2
f 66/169/2 38/141/2 37/140/2
f 39/142/2 38/141/2 66/169/2
f 37/140/2 68/171/2 67/170/2
f 68/171/2 37/140/2 36/139/2
f 37/140/2 67/170/2 66/169/2
f 72/175/2 71/174/2 32/135/2
f 32/135/2 73/176/2 72/175/2
f 77/180/2 27/130/2 26/129/2
f 77/180/2 76/179/2 27/130/2
f 31/134/2 30/133/2 73/176/2
f 31/134/2 73/176/2 32/135/2
f 73/176/2 30/133/2 74/177/2
f 76/179/2 29/132/2 28/131/2
f 75/178/2 74/177/2 29/132/2
f 27/130/2 76/179/2 28/131/2
f 30/133/2 29/132/2 74/177/2
f 76/179/2 75/178/2 29/132/2
f 33/136/2 32/135/2 71/174/2
f 59/162/2 58/161/2 46/149/2
f 59/162/2 45/148/2 60/163/2
f 45/148/2 44/147/2 60/163/2
f 46/149/2 45/148/2 59/162/2
f 61/164/2 60/163/2 44/147/2
f 46/149/2 58/161/2 57/160/2
f 47/150/2 57/160/2 56/159/2
f 57/160/2 47/150/2 46/149/2
f 47/150/2 56/159/2 48/151/2
f 48/151/2 55/158/2 54/157/2
f 55/158/2 48/151/2 56/159/2
f 53/156/2 49/152/2 54/157/2
f 48/151/2 54/157/2 49/152/2
f 63/166/2 62/165/2 41/144/2
f 63/166/2 41/144/2 64/167/2
f 41/144/2 62/165/2 42/145/2
f 40/143/2 65/168/2 64/167/2
f 65/168/2 40/143/2 39/142/2
f 40/143/2 64/167/2 41/144/2
f 49/152/2 52/155/2 50/153/2
f 44/147/2 43/146/2 61/164/2
f 52/155/2 49/152/2 53/156/2
f 43/146/2 42/145/2 61/164/2
f 52/155/2 51/154/2 50/153/2
f 62/165/2 61/164/2 42/145/2
f 26/129/2 25/128/2 79/182/2
f 26/129/2 78/181/2 77/180/2
f 26/129/2 79/182/2 78/181/2
f 80/183/2 79/182/2 24/127/2
f 80/183/2 24/127/2 81/184/2
f 24/127/2 79/182/2 25/128/2
f 81/184/2 23/126/2 22/125/2
f 23/126/2 81/184/2 24/127/2
f 81/184/2 22/125/2 82/185/2
f 21/124/2 83/186/2 22/125/2
f 20/123/2 84/187/2 21/124/2
f 83/186/2 21/124/2 84/187/2
f 22/125/2 83/186/2 82/185/2
f 86/189/2 19/122/2 18/121/2
f 20/123/2 19/122/2 85/188/2
f 20/123/2 85/188/2 84/187/2
f 18/121/2 87/190/2 86/189/2
f 86/189/2 85/188/2 19/122/2
f 100/203/2 4/107/2 3/106/2
f 100/203/2 3/106/2 101/204/2
f 1/104/2 102/205/2 2/105/2
f 101/204/2 3/106/2 2/105/2
f 101/204/2 2/105/2 102/205/2
f 1/104/2 103/206/2 102/205/2
f 100/203/2 5/108/2 4/107/2
f 88/191/2 16/119/2 15/118/2
f 16/119/2 87/190/2 17/120/2
f 89/192/2 88/191/2 15/118/2
f 88/191/2 87/190/2 16/119/2
f 87/190/2 18/121/2 17/120/2
f 89/192/2 15/118/2 90/193/2
f 14/117/2 13/116/2 91/194/2
f 14/117/2 90/193/2 15/118/2
f 14/117/2 91/194/2 90/193/2
f 92/195/2 91/194/2 12/115/2
f 12/115/2 11/114/2 92/195/2
f 92/195/2 11/114/2 93/196/2
f 12/115/2 91/194/2 13/116/2
f 97/200/2 7/110/2 98/201/2
f 99/202/2 6/109/2 5/108/2
f 6/109/2 99/202/2 98/201/2
f 99/202/2 5/108/2 100/203/2
f 98/201/2 7/110/2 6/109/2
f 94/197/2 10/113/2 9/112/2
f 10/113/2 94/197/2 93/196/2
f 94/197/2 9/112/2 95/198/2
f 8/111/2 96/199/2 9/112/2
f 96/199/2 8/111/2 97/200/2
f 7/110/2 97/200/2 8/111/2
f 9/112/2 96/199/2 95/198/2
f 10/113/2 93/196/2 11/114/2
f 207/481/3 1/207/4 2/208/5
f 207/481/3 2/208/5 105/345/6
f 207/481/3 105/345/6 104/344/7
f 207/481/3 104/344/7 1/207/4
f 208/482/8 2/208/5 3/209/9
f 208/482/8 3/209/9 106/346/10
f 208/482/8 106/346/10 105/345/6
f 208/482/8 105/345/6 2/208/5
f 209/483/11 3/209/9 4/210/12
f 209/483/11 4/210/12 107/347/13
f 209/483/11 107/347/13 106/346/10
f 209/483/11 106/346/10 3/209/9
f 210/484/14 4/210/12 5/211/15
f 210/484/14 5/211/15 108/348/16
f 210/484/14 108/348/16 107/347/13
f 210/484/14 107/347/13 4/210/12
f 211/485/17 5/211/15 6/212/18
f 211/485/17 6/212/18 109/349/19
f 211/485/17 109/349/19 108/348/16
f 211/485/17 108/348/16 5/211/15
f 212/486/20 6/212/18 7/213/21
f 212/486/20 7/213/21 110/350/22
f 212/486/20 110/350/22 109/349/19
f 212/486/20 109/349/19 6/212/18
f 213/487/23 7/213/21 8/214/24
f 213/487/23 8/214/24 111/351/25
f 213/487/23 111/351/25 110/350/22
f 213/487/23 110/350/22 7/213/21
f 214/488/26 8/214/24 9/215/27
f 214/488/26 9/215/27 112/352/28
f 214/488/26 112/352/28 111/351/25
f 214/488/26 111/351/25 8/214/24
f 215/489/29 9/215/27 10/216/30
f 215/489/29 10/216/30 113/353/31
f 215/489/29 113/353/31 112/352/28
f 215/489/29 112/352/28 9/215/27
f 216/490/32 10/216/30 11/217/33
f 216/490/32 11/217/33 114/354/34
f 216/490/32 114/354/34 113/353/31
f 216/490/32 113/353/31 10/216/30
f 217/491/35 11/217/33 12/218/36
f 217/491/35 12/218/36 115/355/37
f 217/491/35 115/355/37 114/354/34
f 217/491/35 114/354/34 11/217/33
f 218/492/38 12/218/36 13/219/39
f 218/492/38 13/219/39 116/356/40
f 218/492/38 116/356/40 115/355/37
f 218/492/38 115/355/37 12/218/36
f 219/493/41 13/219/39 14/220/42
f 219/493/41 14/220/42 117/357/43
f 219/493/41 117/357/43 116/356/40
f 219/493/41 116/356/40 13/219/39
f 220/494/44 14/220/42 15/221/45
f 220/494/44 15/221/45 118/358/46
f 220/494/44 118/358/46 117/357/43
f 220/494/44 117/357/43 14/220/42
f 221/495/47 15/221/45 16/222/48
f 221/495/47 16/222/48 119/359/49
f 221/495/47 119/359/49 118/358/46
f 221/495/47 118/358/46 15/221/45
f 222/496/50 16/222/48 17/223/51
f 222/496/50 17/223/51 120/360/52
f 222/496/50 120/360/52 119/359/49
f 222/496/50 119/359/49 16/222/48
f 223/497/53 17/223/51 18/224/54
f 223/497/53 18/224/54 121/361/55
f 223/497/53 121/361/55 120/360/52
f 223/497/53 120/360/52 17/223/51
f 224/498/56 18/224/54 19/225/57
f 224/498/56 19/225/57 122/362/58
f 224/498/56 122/362/58 121/361/55
f 224/498/56 121/361/55 18/224/54
f 225/499/59 19/225/57 20/226/60
f 225/499/59 20/226/60 123/363/61
f 225/499/59 123/363/61 122/362/58
f 225/499/59 122/362/58 19/225/57
f 226/500/62 20/226/60 21/227/63
f 226/500/62 21/227/63 124/364/64
f 226/500/62 124/364/64 123/363/61
f 226/500/62 123/363/61 20/226/60
f 227/501/65 21/227/63 22/228/66
f 227/501/65 22/228/66 125/365/67
f 227/501/65 125/365/67 124/364/64
f 227/501/65 124/364/64 21/227/63
f 228/502/68 22/228/66 23/229/69
f 228/502/68 23/229/69 126/366/70
f 228/502/68 126/366/70 125/365/67
f 228/502/68 125/365/67 22/228/66
f 229/503/71 23/230/72 24/231/73
f 229/503/71 24/231/73 127/368/74
f 229/503/71 127/368/74 126/367/75
f 229/503/71 126/367/75 23/230/72
f 230/504/76 24/231/73 25/232/77
f 230/504/76 25/232/77 128/369/78
f 230/504/76 128/369/78 127/368/74
f 230/504/76 127/368/74 24/231/73
f 231/505/79 25/233/80 26/234/81
f 231/505/79 26/234/81 129/371/82
f 231/505/79 129/371/82 128/370/83
f 231/505/79 128/370/83 25/233/80
f 232/506/84 26/235/85 27/236/86
f 232/506/84 27/236/86 130/373/87
f 232/506/84 130/373/87 129/372/88
f 232/506/84 129/372/88 26/235/85
f 233/507/89 27/237/90 28/238/91
f 233/507/89 28/238/91 131/375/92
f 233/507/89 131/375/92 130/374/93
f 233/507/89 130/374/93 27/237/90
f 234/508/94 28/239/95 29/240/96
f 234/508/94 29/240/96 132/377/97
f 234/508/94 132/377/97 131/376/98
f 234/508/94 131/376/98 28/239/95
f 235/509/99 29/241/100 30/242/101
f 235/509/99 30/242/101 133/379/102
f 235/509/99 133/379/102 132/378/103
f 235/509/99 132/378/103 29/241/100
f 236/510/104 30/243/105 31/244/106
f 236/510/104 31/244/106 134/381/107
f 236/510/104 134/381/107 133/380/108
f 236/510/104 133/380/108 30/243/105
f 237/511/109 31/245/110 32/246/111
f 237/511/109 32/246/111 135/383/112
f 237/511/109 135/383/112 134/382/113
f 237/511/109 134/382/113 31/245/110
f 238/512/114 32/247/115 33/248/116
f 238/512/114 33/248/116 136/385/117
f 238/512/114 136/385/117 135/384/118
f 238/512/114 135/384/118 32/247/115
f 239/513/119 33/249/120 34/250/121
f 239/513/119 34/250/121 137/387/122
f 239/513/119 137/387/122 136/386/123
f 239/513/119 136/386/123 33/249/120
f 240/514/124 34/251/125 35/252/126
f 240/514/124 35/252/126 138/389/127
f 240/514/124 138/389/127 137/388/128
f 240/514/124 137/388/128 34/251/125
f 241/515/129 35/253/130 36/254/131
f 241/515/129 36/254/131 139/391/132
f 241/515/129 139/391/132 138/390/133
f 241/515/129 138/390/133 35/253/130
f 242/516/134 36/255/135 37/256/136
f 242/516/134 37/256/136 140/393/137
f 242/516/134 140/393/137 139/392/138
f 242/516/134 139/392/138 36/255/135
f 243/517/139 37/257/140 38/258/141
f 243/517/139 38/258/141 141/395/142
f 243/517/139 141/395/142 140/394/143
f 243/517/139 140/394/143 37/257/140
f 244/518/144 38/259/145 39/260/146
f 244/518/144 39/260/146 142/397/147
f 244/518/144 142/397/147 141/396/148
f 244/518/144 141/396/148 38/259/145
f 245/519/149 39/260/146 40/261/150
f 245/519/149 40/261/150 143/398/151
f 245/519/149 143/398/151 142/397/147
f 245/519/149 142/397/147 39/260/146
f 246/520/152 40/261/150 41/262/153
f 246/520/152 41/262/153 144/399/154
f 246/520/152 144/399/154 143/398/151
f 246/520/152 143/398/151 40/261/150
f 247/521/155 41/262/153 42/263/156
f 247/521/155 42/263/156 145/400/157
f 247/521/155 145/400/157 144/399/154
f 247/521/155 144/399/154 41/262/153
f 248/522/158 42/263/156 43/264/159
f 248/522/158 43/264/159 146/401/160
f 248/522/158 146/401/160 145/400/157
f 248/522/158 145/400/157 42/263/156
f 249/523/161 43/264/159 44/265/162
f 249/523/161 44/265/162 147/402/163
f 249/523/161 147/402/163 146/401/160
f 249/523/161 146/401/160 43/264/159
f 250/524/164 44/265/162 45/266/165
f 250/524/164 45/266/165 148/403/166
f 250/524/164 148/403/166 147/402/163
f 250/524/164 147/402/163 44/265/162
f 251/525/167 45/266/165 46/267/168
f 251/525/167 46/267/168 149/404/169
f 251/525/167 149/404/169 148/403/166
f 251/525/167 148/403/166 45/266/165
f 252/526/170 46/267/168 47/268/171
f 252/526/170 47/268/171 150/405/172
f 252/526/170 150/405/172 149/404/169
f 252/526/170 149/404/169 46/267/168
f 253/527/173 47/268/171 48/269/174
f 253/527/173 48/269/174 151/406/175
f 253/527/173 151/406/175 150/405/172
f 253/527/173 150/405/172 47/268/171
f 254/528/176 48/269/174 49/270/177
f 254/528/176 49/270/177 152/407/178
f 254/528/176 152/407/178 151/406/175
f 254/528/176 151/406/175 48/269/174
f 255/529/179 49/270/177 50/271/180
f 255/529/179 50/271/180 153/408/181
f 255/529/179 153/408/181 152/407/178
f 255/529/179 152/407/178 49/270/177
f 256/530/182 50/272/183 51/273/184
f 256/530/182 51/273/184 154/410/185
f 256/530/182 154/410/185 153/409/186
f 256/530/182 153/409/186 50/272/183
f 257/531/187 51/274/188 52/275/189
f 257/531/187 52/275/189 155/412/190
f 257/531/187 155/412/190 154/411/191
f 257/531/187 154/411/191 51/274/188
f 258/532/192 52/275/189 53/276/193
f 258/532/192 53/276/193 156/413/194
f 258/532/192 156/413/194 155/412/190
f 258/532/192 155/412/190 52/275/189
f 259/533/195 53/276/193 54/277/196
f 259/533/195 54/277/196 157/414/197
f 259/533/195 157/414/197 156/413/194
f 259/533/195 156/413/194 53/276/193
f 260/534/198 54/277/196 55/278/199
f 260/534/198 55/278/199 158/415/200
f 260/534/198 158/415/200 157/414/197
f 260/534/198 157/414/197 54/277/196
f 261/535/201 55/278/199 56/279/202
f 261/535/201 56/279/202 159/416/203
f 261/535/201 159/416/203 158/415/200
f 261/535/201 158/415/200 55/278/199
f 262/536/204 56/279/202 57/280/205
f 262/536/204 57/280/205 160/417/206
f 262/536/204 160/417/206 159/416/203
f 262/536/204 159/416/203 56/279/202
f 263/537/207 57/280/205 58/281/208
f 263/537/207 58/281/208 161/418/209
f 263/537/207 161/418/209 160/417/206
f 263/537/207 160/417/206 57/280/205
f 264/538/210 58/281/208 59/282/211
f 264/538/210 59/282/211 162/419/212
f 264/538/210 162/419/212 161/418/209
f 264/538/210 161/418/209 58/281/208
f 265/539/213 59/282/211 60/283/214
f 265/539/213 60/283/214 163/420/215
f 265/539/213 163/420/215 162/419/212
f 265/539/213 162/419/212 59/282/211
f 266/540/216 60/283/214 61/284/217
f 266/540/216 61/284/217 164/421/218
f 266/540/216 164/421/218 163/420/215
f 266/540/216 163/420/215 60/283/214
f 267/541/219 61/284/217 62/285/220
f 267/541/219 62/285/220 165/422/221
f 267/541/219 165/422/221 164/421/218
f 267/541/219 164/421/218 61/284/217
f 268/542/222 62/285/220 63/286/223
f 268/542/222 63/286/223 166/423/224
f 268/542/222 166/423/224 165/422/221
f 268/542/222 165/422/221 62/285/220
f 269/543/225 63/286/223 64/287/226
f 269/543/225 64/287/226 167/424/227
f 269/543/225 167/424/227 166/423/224
f 269/543/225 166/423/224 63/286/223
f 270/544/228 64/287/226 65/288/229
f 270/544/228 65/288/229 168/425/230
f 270/544/228 168/425/230 167/424/227
f 270/544/228 167/424/227 64/287/226
f 271/545/231 65/288/229 66/289/232
f 271/545/231 66/289/232 169/426/233
f 271/545/231 169/426/233 168/425/230
f 271/545/231 168/425/230 65/288/229
f 272/546/234 66/290/235 67/291/236
f 272/546/234 67/291/236 170/428/237
f 272/546/234 170/428/237 169/427/238
f 272/546/234 169/427/238 66/290/235
f 273/547/239 67/292/240 68/293/241
f 273/547/239 68/293/241 171/430/242
f 273/547/239 171/430/242 170/429/243
f 273/547/239 170/429/243 67/292/240
f 274/548/244 68/294/245 69/295/246
f 274/548/244 69/295/246 172/432/247
f 274/548/244 172/432/247 171/431/248
f 274/548/244 171/431/248 68/294/245
f 275/549/249 69/296/250 70/297/251
f 275/549/249 70/297/251 173/434/252
f 275/549/249 173/434/252 172/433/253
f 275/549/249 172/433/253 69/296/250
f 276/550/254 70/298/255 71/299/256
f 276/550/254 71/299/256 174/436/257
f 276/550/254 174/436/257 173/435/258
f 276/550/254 173/435/258 70/298/255
f 277/551/259 71/300/260 72/301/261
f 277/551/259 72/301/261 175/438/262
f 277/551/259 175/438/262 174/437/263
f 277/551/259 174/437/263 71/300/260
f 278/552/264 72/302/265 73/303/266
f 278/552/264 73/303/266 176/440/267
f 278/552/264 176/440/267 175/439/268
f 278/552/264 175/439/268 72/302/265
f 279/553/269 73/304/270 74/305/271
f 279/553/269 74/305/271 177/442/272
f 279/553/269 177/442/272 176/441/273
f 279/553/269 176/441/273 73/304/270
f 280/554/274 74/306/275 75/307/276
f 280/554/274 75/307/276 178/444/277
f 280/554/274 178/444/277 177/443/278
f 280/554/274 177/443/278 74/306/275
f 281/555/279 75/308/280 76/309/281
f 281/555/279 76/309/281 179/446/282
f 281/555/279 179/446/282 178/445/283
f 281/555/279 178/445/283 75/308/280
f 282/556/284 76/310/285 77/311/286
f 282/556/284 77/311/286 180/448/287
f 282/556/284 180/448/287 179/447/288
f 282/556/284 179/447/288 76/310/285
f 283/557/289 77/312/290 78/313/291
f 283/557/289 78/313/291 181/450/292
f 283/557/289 181/450/292 180/449/293
f 283/557/289 180/449/293 77/312/290
f 284/558/294 78/314/295 79/315/296
f 284/558/294 79/315/296 182/452/297
f 284/558/294 182/452/297 181/451/298
f 284/558/294 181/451/298 78/314/295
f 285/559/299 79/316/300 80/317/301
f 285/559/299 80/317/301 183/454/302
f 285/559/299 183/454/302 182/453/303
f 285/559/299 182/453/303 79/316/300
f 286/560/304 80/317/301 81/318/305
f 286/560/304 81/318/305 184/455/306
f 286/560/304 184/455/306 183/454/302
f 286/560/304 183/454/302 80/317/301
f 287/561/307 81/319/308 82/320/309
f 287/561/307 82/320/309 185/457/310
f 287/561/307 185/457/310 184/456/311
f 287/561/307 184/456/311 81/319/308
f 288/562/312 82/320/309 83/321/313
f 288/562/312 83/321/313 186/458/314
f 288/562/312 186/458/314 185/457/310
f 288/562/312 185/457/310 82/320/309
f 289/563/315 83/321/313 84/322/316
f 289/563/315 84/322/316 187/459/317
f 289/563/315 187/459/317 186/458/314
f 289/563/315 186/458/314 83/321/313
f 290/564/318 84/322/316 85/323/319
f 290/564/318 85/323/319 188/460/320
f 290/564/318 188/460/320 187/459/317
f 290/564/318 187/459/317 84/322/316
f 291/565/321 85/323/319 86/324/322
f 291/565/321 86/324/322 189/461/323
f 291/565/321 189/461/323 188/460/320
f 291/565/321 188/460/320 85/323/319
f 292/566/324 86/324/322 87/325/325
f 292/566/324 87/325/325 190/462/326
f 292/566/324 190/462/326 189/461/323
f 292/566/324 189/461/323 86/324/322
f 293/567/327 87/325/325 88/326/328
f 293/567/327 88/326/328 191/463/329
f 293/567/327 191/463/329 190/462/326
f 293/567/327 190/462/326 87/325/325
f 294/568/330 88/326/328 89/327/331
f 294/568/330 89/327/331 192/464/332
f 294/568/330 192/464/332 191/463/329
f 294/568/330 191/463/329 88/326/328
f 295/569/333 89/327/331 90/328/334
f 295/569/333 90/328/334 193/465/335
f 295/569/333 193/465/335 192/464/332
f 295/569/333 192/464/332 89/327/331
f 296/570/336 90/328/334 91/329/337
f 296/570/336 91/329/337 194/466/338
f 296/570/336 194/466/338 193/465/335
f 296/570/336 193/465/335 90/328/334
f 297/571/339 91/329/337 92/330/340
f 297/571/339 92/330/340 195/467/341
f 297/571/339 195/467/341 194/466/338
f 297/571/339 194/466/338 91/329/337
f 298/572/342 92/330/340 93/331/343
f 298/572/342 93/331/343 196/468/344
f 298/572/342 196/468/344 195/467/341
f 298/572/342 195/467/341 92/330/340
f 299/573/345 93/331/343 94/332/346
f 299/573/345 94/332/346 197/469/347
f 299/573/345 197/469/347 196/468/344
f 299/573/345 196/468/344 93/331/343
f 300/574/348 94/332/346 95/333/349
f 300/574/348 95/333/349 198/470/350
f 300/574/348 198/470/350 197/469/347
f 300/574/348 197/469/347 94/332/346
f 301/575/351 95/333/349 96/334/352
f 301/575/351 96/334/352 199/471/353
f 301/575/351 199/471/353 198/470/350
f 301/575/351 198/470/350 95/333/349
f 302/576/354 96/334/352 97/335/355
f 302/576/354 97/335/355 200/472/356
f 302/576/354 200/472/356 199/471/353
f 302/576/354 199/471/353 96/334/352
f 303/577/357 97/335/355 98/336/358
f 303/577/357 98/336/358 201/473/359
f 303/577/357 201/473/359 200/472/356
f 303/577/357 200/472/356 97/335/355
f 304/578/360 98/336/358 99/337/361
f 304/578/360 99/337/361 202/474/362
f 304/578/360 202/474/362 201/473/359
f 304/578/360 201/473/359 98/336/358
f 305/579/363 99/337/361 100/338/364
f 305/579/363 100/338/364 203/475/365
f 305/579/363 203/475/365 202/474/362
f 305/579/363 202/474/362 99/337/361
f 306/580/366 100/338/364 101/339/367
f 306/580/366 101/339/367 204/476/368
f 306/580/366 204/476/368 203/475/365
f 306/580/366 203/475/365 100/338/364
f 307/581/369 101/339/367 102/340/370
f 307/581/369 102/340/370 205/477/371
f 307/581/369 205/477/371 204/476/368
f 307/581/369 204/476/368 101/339/367
f 308/582/372 102/340/370 103/341/373
f 308/582/372 103/341/373 206/478/374
f 308/582/372 206/478/374 205/477/371
f 308/582/372 205/477/371 102/340/370
f 309/583/375 103/342/376 1/343/377
f 309/583/375 1/343/377 104/480/378
f 309/583/375 104/480/378 206/479/379
f 309/583/375 206/479/379 103/342/376
