mtllib Tough Rib.mtl
# Vertex Positions: 
g groupNumber_0
v 14.0149 -0.251037 -16.9263
v 13.9215 -0.242212 -16.9263
v 13.4795 0.199813 -16.9263
v 13.425 0.200967 -16.9263
v 13.4745 0.192281 -16.9263
v 13.9165 -0.249727 -16.9263
v 14.0149 -0.251037 16.9263
v 13.9215 -0.242212 16.9263
v 13.4795 0.199813 16.9263
v 13.425 0.200967 16.9263
v 13.4745 0.192281 16.9263
v 13.9165 -0.249727 16.9263
v 13.9682 -0.246625 0
v 13.7005 -0.0211995 0
v 13.4523 0.20039 0
v 13.4498 0.196624 0
v 13.6955 -0.0287232 0
v 13.9657 -0.250382 0
v 13.398 0.224369 -16.9263
v 13.3719 0.247024 -16.9263
v 13.356 0.251623 -16.9263
v 13.3356 0.253155 -16.9263
v 13.3151 0.251631 -16.9263
v 13.2988 0.247058 -16.9263
v 13.2721 0.220773 -16.9263
v 13.2488 0.19709 -16.9263
v 13.2247 0.193283 -16.9263
v 13.1977 0.197211 -16.9263
v 13.1727 0.222255 -16.9263
v 13.1594 0.238093 -16.9263
v 13.1317 0.252932 -16.9263
v 13.1132 0.25445 -16.9263
v 13.0962 0.253006 -16.9263
v 13.0727 0.238649 -16.9263
v 13.0524 0.208691 -16.9263
v 12.9726 0.197693 -16.9263
v 12.5827 -0.24104 -16.9263
v 11.3706 -0.24104 -16.9263
v 11.3301 -0.18061 -16.9263
v 10.4889 -0.18061 -16.9263
v 10.4339 -0.245625 -16.9263
v 9.33158 -0.245625 -16.9263
v 9.27704 -0.182161 -16.9263
v 8.47679 -0.18061 -16.9263
v 8.41822 -0.243626 -16.9263
v 7.20554 -0.243626 -16.9263
v 6.82445 0.196176 -16.9263
v 6.75337 0.197693 -16.9263
v 6.71148 0.249092 -16.9263
v 6.40636 0.249092 -16.9263
v 6.36769 0.197693 -16.9263
v 6.29922 0.197693 -16.9263
v 5.88776 -0.242661 -16.9263
v 4.67504 -0.242661 -16.9263
v 4.63847 -0.182782 -16.9263
v 3.82798 -0.182782 -16.9263
v 3.78386 -0.244005 -16.9263
v 2.64112 -0.244005 -16.9263
v 2.6072 -0.178817 -16.9263
v 1.78389 -0.178817 -16.9263
v 1.74046 -0.243626 -16.9263
v 0.527363 -0.243626 -16.9263
v 0.1634 0.193798 -16.9263
v 0.0826999 0.195384 -16.9263
v 0.0573453 0.249092 -16.9263
v -0.286933 0.249092 -16.9263
v -0.313805 0.197693 -16.9263
v -0.394781 0.197693 -16.9263
v -0.783667 -0.244212 -16.9263
v -1.98437 -0.244212 -16.9263
v -2.03868 -0.179265 -16.9263
v -2.84143 -0.179265 -16.9263
v -2.89115 -0.244488 -16.9263
v -4.02684 -0.244488 -16.9263
v -4.06322 -0.180886 -16.9263
v -4.8921 -0.180886 -16.9263
v -4.92799 -0.245625 -16.9263
v -6.14258 -0.245625 -16.9263
v -6.54089 0.196228 -16.9263
v -6.59815 0.197693 -16.9263
v -6.64757 0.249092 -16.9263
v -6.96813 0.249092 -16.9263
v -6.99176 0.197693 -16.9263
v -7.07582 0.197693 -16.9263
v -7.45826 -0.245625 -16.9263
v -8.68025 -0.245625 -16.9263
v -8.72148 -0.18061 -16.9263
v -9.52559 -0.18061 -16.9263
v -9.56642 -0.243626 -16.9263
v -10.716 -0.243626 -16.9263
v -10.754 -0.18061 -16.9263
v -11.574 -0.18061 -16.9263
v -11.6243 -0.243626 -16.9263
v -12.8257 -0.243626 -16.9263
v -13.22 0.197693 -16.9263
v -13.2885 0.197693 -16.9263
v -13.325 0.249092 -16.9263
v -13.6383 0.249092 -16.9263
v -13.6641 0.197693 -16.9263
v -13.7311 0.197693 -16.9263
v -14.0149 -0.145999 -16.9263
v -13.727 0.188868 -16.9263
v -13.6586 0.188868 -16.9263
v -13.6329 0.240267 -16.9263
v -13.3295 0.240267 -16.9263
v -13.293 0.188868 -16.9263
v -13.224 0.188868 -16.9263
v -12.831 -0.250968 -16.9263
v -11.6201 -0.252451 -16.9263
v -11.5697 -0.189435 -16.9263
v -10.759 -0.189435 -16.9263
v -10.721 -0.252451 -16.9263
v -9.56163 -0.252451 -16.9263
v -9.5208 -0.189435 -16.9263
v -8.72634 -0.189435 -16.9263
v -8.68511 -0.25445 -16.9263
v -7.45423 -0.25445 -16.9263
v -7.07179 0.188868 -16.9263
v -6.98611 0.188868 -16.9263
v -6.96248 0.240267 -16.9263
v -6.65133 0.240267 -16.9263
v -6.60191 0.188868 -16.9263
v -6.54613 0.188868 -16.9263
v -6.14782 -0.253002 -16.9263
v -4.92278 -0.25445 -16.9263
v -4.8869 -0.189711 -16.9263
v -4.06834 -0.189711 -16.9263
v -4.03196 -0.253313 -16.9263
v -2.88677 -0.253313 -16.9263
v -2.83705 -0.18809 -16.9263
v -2.04282 -0.18809 -16.9263
v -1.9885 -0.253037 -16.9263
v -0.779668 -0.253037 -16.9263
v -0.390782 0.188868 -16.9263
v -0.308461 0.188868 -16.9263
v -0.28159 0.240267 -16.9263
v 0.0517607 0.240267 -16.9263
v 0.0771153 0.186559 -16.9263
v 0.157954 0.186559 -16.9263
v 0.521916 -0.250865 -16.9263
v 1.74514 -0.252451 -16.9263
v 1.78858 -0.187642 -16.9263
v 2.60182 -0.187642 -16.9263
v 2.63574 -0.25283 -16.9263
v 3.78837 -0.25283 -16.9263
v 3.83253 -0.191607 -16.9263
v 4.6335 -0.191607 -16.9263
v 4.67008 -0.251486 -16.9263
v 5.89162 -0.251486 -16.9263
v 6.30308 0.188868 -16.9263
v 6.3721 0.188868 -16.9263
v 6.41078 0.240267 -16.9263
v 6.70728 0.240267 -16.9263
v 6.74916 0.188868 -16.9263
v 6.81911 0.188868 -16.9263
v 7.2002 -0.250934 -16.9263
v 8.42208 -0.252451 -16.9263
v 8.48065 -0.189435 -16.9263
v 9.27166 -0.189435 -16.9263
v 9.3262 -0.252899 -16.9263
v 10.438 -0.25445 -16.9263
v 10.4929 -0.189435 -16.9263
v 11.3254 -0.189435 -16.9263
v 11.3659 -0.249865 -16.9263
v 12.5867 -0.249865 -16.9263
v 12.9766 0.188868 -16.9263
v 13.0514 0.188868 -16.9263
v 13.0686 0.218131 -16.9263
v 13.0876 0.240905 -16.9263
v 13.113 0.245606 -16.9263
v 13.1296 0.244325 -16.9263
v 13.1537 0.231233 -16.9263
v 13.18 0.199856 -16.9263
v 13.2077 0.185701 -16.9263
v 13.2246 0.184519 -16.9263
v 13.2402 0.185638 -16.9263
v 13.2657 0.199609 -16.9263
v 13.279 0.21524 -16.9263
v 13.3026 0.239095 -16.9263
v 13.3356 0.244367 -16.9263
v 13.354 0.243058 -16.9263
v 13.3786 0.231185 -16.9263
v 13.4039 0.204684 -16.9263
v 13.4174 0.202306 -16.9263
v 13.398 0.224369 16.9263
v 13.3719 0.247024 16.9263
v 13.356 0.251623 16.9263
v 13.3356 0.253155 16.9263
v 13.3151 0.251631 16.9263
v 13.2988 0.247058 16.9263
v 13.2721 0.220773 16.9263
v 13.2488 0.19709 16.9263
v 13.2247 0.193283 16.9263
v 13.1977 0.197211 16.9263
v 13.1727 0.222255 16.9263
v 13.1594 0.238093 16.9263
v 13.1317 0.252932 16.9263
v 13.1132 0.25445 16.9263
v 13.0962 0.253006 16.9263
v 13.0727 0.238649 16.9263
v 13.0524 0.208691 16.9263
v 12.9726 0.197693 16.9263
v 12.5827 -0.24104 16.9263
v 11.3706 -0.24104 16.9263
v 11.3301 -0.18061 16.9263
v 10.4889 -0.18061 16.9263
v 10.4339 -0.245625 16.9263
v 9.33158 -0.245625 16.9263
v 9.27704 -0.182161 16.9263
v 8.47679 -0.18061 16.9263
v 8.41822 -0.243626 16.9263
v 7.20554 -0.243626 16.9263
v 6.82445 0.196176 16.9263
v 6.75337 0.197693 16.9263
v 6.71148 0.249092 16.9263
v 6.40636 0.249092 16.9263
v 6.36769 0.197693 16.9263
v 6.29922 0.197693 16.9263
v 5.88776 -0.242661 16.9263
v 4.67504 -0.242661 16.9263
v 4.63847 -0.182782 16.9263
v 3.82798 -0.182782 16.9263
v 3.78386 -0.244005 16.9263
v 2.64112 -0.244005 16.9263
v 2.6072 -0.178817 16.9263
v 1.78389 -0.178817 16.9263
v 1.74046 -0.243626 16.9263
v 0.527363 -0.243626 16.9263
v 0.1634 0.193798 16.9263
v 0.0826999 0.195384 16.9263
v 0.0573453 0.249092 16.9263
v -0.286933 0.249092 16.9263
v -0.313805 0.197693 16.9263
v -0.394781 0.197693 16.9263
v -0.783667 -0.244212 16.9263
v -1.98437 -0.244212 16.9263
v -2.03868 -0.179265 16.9263
v -2.84143 -0.179265 16.9263
v -2.89115 -0.244488 16.9263
v -4.02684 -0.244488 16.9263
v -4.06322 -0.180886 16.9263
v -4.8921 -0.180886 16.9263
v -4.92799 -0.245625 16.9263
v -6.14258 -0.245625 16.9263
v -6.54089 0.196228 16.9263
v -6.59815 0.197693 16.9263
v -6.64757 0.249092 16.9263
v -6.96813 0.249092 16.9263
v -6.99176 0.197693 16.9263
v -7.07582 0.197693 16.9263
v -7.45826 -0.245625 16.9263
v -8.68025 -0.245625 16.9263
v -8.72148 -0.18061 16.9263
v -9.52559 -0.18061 16.9263
v -9.56642 -0.243626 16.9263
v -10.716 -0.243626 16.9263
v -10.754 -0.18061 16.9263
v -11.574 -0.18061 16.9263
v -11.6243 -0.243626 16.9263
v -12.8257 -0.243626 16.9263
v -13.22 0.197693 16.9263
v -13.2885 0.197693 16.9263
v -13.325 0.249092 16.9263
v -13.6383 0.249092 16.9263
v -13.6641 0.197693 16.9263
v -13.7311 0.197693 16.9263
v -14.0149 -0.145999 16.9263
v -13.727 0.188868 16.9263
v -13.6586 0.188868 16.9263
v -13.6329 0.240267 16.9263
v -13.3295 0.240267 16.9263
v -13.293 0.188868 16.9263
v -13.224 0.188868 16.9263
v -12.831 -0.250968 16.9263
v -11.6201 -0.252451 16.9263
v -11.5697 -0.189435 16.9263
v -10.759 -0.189435 16.9263
v -10.721 -0.252451 16.9263
v -9.56163 -0.252451 16.9263
v -9.5208 -0.189435 16.9263
v -8.72634 -0.189435 16.9263
v -8.68511 -0.25445 16.9263
v -7.45423 -0.25445 16.9263
v -7.07179 0.188868 16.9263
v -6.98611 0.188868 16.9263
v -6.96248 0.240267 16.9263
v -6.65133 0.240267 16.9263
v -6.60191 0.188868 16.9263
v -6.54613 0.188868 16.9263
v -6.14782 -0.253002 16.9263
v -4.92278 -0.25445 16.9263
v -4.8869 -0.189711 16.9263
v -4.06834 -0.189711 16.9263
v -4.03196 -0.253313 16.9263
v -2.88677 -0.253313 16.9263
v -2.83705 -0.18809 16.9263
v -2.04282 -0.18809 16.9263
v -1.9885 -0.253037 16.9263
v -0.779668 -0.253037 16.9263
v -0.390782 0.188868 16.9263
v -0.308461 0.188868 16.9263
v -0.28159 0.240267 16.9263
v 0.0517607 0.240267 16.9263
v 0.0771153 0.186559 16.9263
v 0.157954 0.186559 16.9263
v 0.521916 -0.250865 16.9263
v 1.74514 -0.252451 16.9263
v 1.78858 -0.187642 16.9263
v 2.60182 -0.187642 16.9263
v 2.63574 -0.25283 16.9263
v 3.78837 -0.25283 16.9263
v 3.83253 -0.191607 16.9263
v 4.6335 -0.191607 16.9263
v 4.67008 -0.251486 16.9263
v 5.89162 -0.251486 16.9263
v 6.30308 0.188868 16.9263
v 6.3721 0.188868 16.9263
v 6.41078 0.240267 16.9263
v 6.70728 0.240267 16.9263
v 6.74916 0.188868 16.9263
v 6.81911 0.188868 16.9263
v 7.2002 -0.250934 16.9263
v 8.42208 -0.252451 16.9263
v 8.48065 -0.189435 16.9263
v 9.27166 -0.189435 16.9263
v 9.3262 -0.252899 16.9263
v 10.438 -0.25445 16.9263
v 10.4929 -0.189435 16.9263
v 11.3254 -0.189435 16.9263
v 11.3659 -0.249865 16.9263
v 12.5867 -0.249865 16.9263
v 12.9766 0.188868 16.9263
v 13.0514 0.188868 16.9263
v 13.0686 0.218131 16.9263
v 13.0876 0.240905 16.9263
v 13.113 0.245606 16.9263
v 13.1296 0.244325 16.9263
v 13.1537 0.231233 16.9263
v 13.18 0.199856 16.9263
v 13.2077 0.185701 16.9263
v 13.2246 0.184519 16.9263
v 13.2402 0.185638 16.9263
v 13.2657 0.199609 16.9263
v 13.279 0.21524 16.9263
v 13.3026 0.239095 16.9263
v 13.3356 0.244367 16.9263
v 13.354 0.243058 16.9263
v 13.3786 0.231185 16.9263
v 13.4039 0.204684 16.9263
v 13.4174 0.202306 16.9263
v 13.385 0.235696 0
v 13.364 0.249323 0
v 13.3458 0.252389 0
v 13.3253 0.252393 0
v 13.3069 0.249344 0
v 13.2855 0.233915 0
v 13.2605 0.208931 0
v 13.2368 0.195186 0
v 13.2112 0.195247 0
v 13.1852 0.209733 0
v 13.166 0.230174 0
v 13.1456 0.245513 0
v 13.1225 0.253691 0
v 13.1047 0.253728 0
v 13.0844 0.245827 0
v 13.0625 0.22367 0
v 13.0125 0.203192 0
v 12.7777 -0.0216736 0
v 11.9767 -0.24104 0
v 11.3503 -0.210825 0
v 10.9095 -0.18061 0
v 10.4614 -0.213117 0
v 9.88274 -0.245625 0
v 9.30431 -0.213893 0
v 8.87692 -0.181385 0
v 8.44751 -0.212118 0
v 7.81188 -0.243626 0
v 7.015 -0.0237247 0
v 6.78891 0.196935 0
v 6.73242 0.223393 0
v 6.55892 0.249092 0
v 6.38703 0.223393 0
v 6.33345 0.197693 0
v 6.09349 -0.0224837 0
v 5.2814 -0.242661 0
v 4.65676 -0.212721 0
v 4.23323 -0.182782 0
v 3.80592 -0.213393 0
v 3.21249 -0.244005 0
v 2.62416 -0.211411 0
v 2.19555 -0.178817 0
v 1.76217 -0.211221 0
v 1.13391 -0.243626 0
v 0.345382 -0.024914 0
v 0.12305 0.194591 0
v 0.0700226 0.222238 0
v -0.114794 0.249092 0
v -0.300369 0.223393 0
v -0.354293 0.197693 0
v -0.589224 -0.0232593 0
v -1.38402 -0.244212 0
v -2.01152 -0.211739 0
v -2.44005 -0.179265 0
v -2.86629 -0.211876 0
v -3.459 -0.244488 0
v -4.04503 -0.212687 0
v -4.47766 -0.180886 0
v -4.91004 -0.213255 0
v -5.53528 -0.245625 0
v -6.34174 -0.0246985 0
v -6.56952 0.196961 0
v -6.62286 0.223393 0
v -6.80785 0.249092 0
v -6.97995 0.223393 0
v -7.03379 0.197693 0
v -7.26704 -0.023966 0
v -8.06926 -0.245625 0
v -8.70086 -0.213117 0
v -9.12353 -0.18061 0
v -9.546 -0.212118 0
v -10.1412 -0.243626 0
v -10.735 -0.212118 0
v -11.164 -0.18061 0
v -11.5992 -0.212118 0
v -12.225 -0.243626 0
v -13.0229 -0.0229663 0
v -13.2542 0.197693 0
v -13.3067 0.223393 0
v -13.4816 0.249092 0
v -13.6512 0.223393 0
v -13.6976 0.197693 0
v -13.873 0.025847 0
v -13.8709 0.0214345 0
v -13.6928 0.188868 0
v -13.6457 0.214568 0
v -13.4812 0.240267 0
v -13.3113 0.214568 0
v -13.2585 0.188868 0
v -13.0275 -0.0310501 0
v -12.2255 -0.25171 0
v -11.5949 -0.220943 0
v -11.1644 -0.189435 0
v -10.74 -0.220943 0
v -10.1413 -0.252451 0
v -9.54121 -0.220943 0
v -9.12357 -0.189435 0
v -8.70572 -0.221942 0
v -8.06967 -0.25445 0
v -7.26301 -0.032791 0
v -7.02895 0.188868 0
v -6.97429 0.214568 0
v -6.8069 0.240267 0
v -6.62662 0.214568 0
v -6.57402 0.188868 0
v -6.34698 -0.0320671 0
v -5.5353 -0.253726 0
v -4.90484 -0.22208 0
v -4.47762 -0.189711 0
v -4.05015 -0.221512 0
v -3.45937 -0.253313 0
v -2.86191 -0.220701 0
v -2.43993 -0.18809 0
v -2.01566 -0.220564 0
v -1.38409 -0.253037 0
v -0.585225 -0.0320843 0
v -0.349622 0.188868 0
v -0.295026 0.214568 0
v -0.114915 0.240267 0
v 0.064438 0.213413 0
v 0.117535 0.186559 0
v 0.339935 -0.0321532 0
v 1.13353 -0.251658 0
v 1.76686 -0.220046 0
v 2.1952 -0.187642 0
v 2.61878 -0.220236 0
v 3.21206 -0.25283 0
v 3.81045 -0.222218 0
v 4.23302 -0.191607 0
v 4.65179 -0.221546 0
v 5.28085 -0.251486 0
v 6.09735 -0.0313087 0
v 6.33759 0.188868 0
v 6.39144 0.214568 0
v 6.55903 0.240267 0
v 6.72822 0.214568 0
v 6.78413 0.188868 0
v 7.00965 -0.0310329 0
v 7.81114 -0.251692 0
v 8.45137 -0.220943 0
v 8.87616 -0.189435 0
v 9.29893 -0.221167 0
v 9.88209 -0.253675 0
v 10.4655 -0.221942 0
v 10.9092 -0.189435 0
v 11.3457 -0.21965 0
v 11.9763 -0.249865 0
v 12.7817 -0.0304986 0
v 13.014 0.188868 0
v 13.06 0.2035 0
v 13.0781 0.229518 0
v 13.1003 0.243255 0
v 13.1213 0.244965 0
v 13.1417 0.237779 0
v 13.1669 0.215545 0
v 13.1938 0.192779 0
v 13.2161 0.18511 0
v 13.2324 0.185079 0
v 13.253 0.192623 0
v 13.2724 0.207424 0
v 13.2908 0.227167 0
v 13.3191 0.241731 0
v 13.3448 0.243712 0
v 13.3663 0.237122 0
v 13.3912 0.217935 0
v 13.4107 0.203495 0
v 13.4077 0.213337 0


# Vertex Texture Coordinates :
vt 0.411965 0
vt 0.410612 0.000127819
vt 0.40421 0.00653002
vt 0.397068 0.00694203
vt 0.396691 0.00727016
vt 0.396459 0.00733678
vt 0.396164 0.00735898
vt 0.395867 0.00733689
vt 0.395631 0.00727066
vt 0.395245 0.00688995
vt 0.394907 0.00654694
vt 0.394558 0.00649179
vt 0.394166 0.00654868
vt 0.393804 0.00691142
vt 0.393613 0.00714082
vt 0.393211 0.00735574
vt 0.392944 0.00737773
vt 0.392697 0.00735681
vt 0.392356 0.00714887
vt 0.392062 0.00671496
vt 0.390907 0.00655567
vt 0.38526 0.000201158
vt 0.367704 0.000201158
vt 0.367117 0.00107642
vt 0.354933 0.00107642
vt 0.354137 0.000134752
vt 0.338171 0.000134752
vt 0.337381 0.00105395
vt 0.32579 0.00107642
vt 0.324942 0.000163711
vt 0.307378 0.000163711
vt 0.301858 0.00653371
vt 0.300829 0.00655567
vt 0.300222 0.00730012
vt 0.295803 0.00730012
vt 0.295243 0.00655567
vt 0.294251 0.00655567
vt 0.288291 0.000177692
vt 0.270727 0.000177692
vt 0.270197 0.00104497
vt 0.258458 0.00104497
vt 0.257819 0.000158219
vt 0.241268 0.000158219
vt 0.240777 0.00110238
vt 0.228852 0.00110238
vt 0.228223 0.000163711
vt 0.210653 0.000163711
vt 0.205381 0.00649925
vt 0.204212 0.00652222
vt 0.203845 0.00730012
vt 0.198859 0.00730012
vt 0.198469 0.00655567
vt 0.197297 0.00655567
vt 0.191664 0.000155223
vt 0.174273 0.000155223
vt 0.173487 0.00109589
vt 0.16186 0.00109589
vt 0.16114 0.000151229
vt 0.144691 0.000151229
vt 0.144164 0.00107243
vt 0.132158 0.00107243
vt 0.131639 0.000134752
vt 0.114047 0.000134752
vt 0.108278 0.00653445
vt 0.107448 0.00655567
vt 0.106733 0.00730012
vt 0.10209 0.00730012
vt 0.101747 0.00655567
vt 0.10053 0.00655567
vt 0.0949907 0.000134752
vt 0.0772917 0.000134752
vt 0.0766946 0.00107642
vt 0.065048 0.00107642
vt 0.0644566 0.000163711
vt 0.0478059 0.000163711
vt 0.0472564 0.00107642
vt 0.0353795 0.00107642
vt 0.0346505 0.000163711
vt 0.0172496 0.000163711
vt 0.0115392 0.00655567
vt 0.0105476 0.00655567
vt 0.0100186 0.00730012
vt 0.00548051 0.00730012
vt 0.00510704 0.00655567
vt 0.00413591 0.00655567
vt 2.59709e-05 0.00157771
vt 0.00419632 0.00642785
vt 0.00518593 0.00642785
vt 0.0055594 0.0071723
vt 0.00995269 0.0071723
vt 0.0104817 0.00642785
vt 0.0114818 0.00642785
vt 0.0171732 5.73617e-05
vt 0.0347119 3.58921e-05
vt 0.0354409 0.000948602
vt 0.047184 0.000948602
vt 0.0477335 3.58921e-05
vt 0.064526 3.58921e-05
vt 0.0651174 0.000948602
vt 0.0766242 0.000948602
vt 0.0772213 6.93302e-06
vt 0.0950491 6.93302e-06
vt 0.100588 0.00642785
vt 0.101829 0.00642785
vt 0.102172 0.0071723
vt 0.106678 0.0071723
vt 0.107394 0.00642785
vt 0.108202 0.00642785
vt 0.113971 2.79033e-05
vt 0.131714 6.93302e-06
vt 0.132234 0.000944607
vt 0.14409 0.000944607
vt 0.144617 2.34097e-05
vt 0.161203 2.34097e-05
vt 0.161923 0.000968074
vt 0.173427 0.000968074
vt 0.174213 2.74041e-05
vt 0.191722 2.74041e-05
vt 0.197354 0.00642785
vt 0.198547 0.00642785
vt 0.198936 0.0071723
vt 0.203764 0.0071723
vt 0.204131 0.0063944
vt 0.205302 0.0063944
vt 0.210574 5.88595e-05
vt 0.228291 3.58921e-05
vt 0.22892 0.000974565
vt 0.240699 0.000974565
vt 0.24119 3.03999e-05
vt 0.257884 3.03999e-05
vt 0.258524 0.000917146
vt 0.270125 0.000917146
vt 0.270655 4.98724e-05
vt 0.288347 4.98724e-05
vt 0.294307 0.00642785
vt 0.295306 0.00642785
vt 0.295867 0.0071723
vt 0.300161 0.0071723
vt 0.300768 0.00642785
vt 0.301781 0.00642785
vt 0.307301 5.7861e-05
vt 0.324998 3.58921e-05
vt 0.325846 0.000948602
vt 0.337303 0.000948602
vt 0.338093 2.94014e-05
vt 0.354196 6.93302e-06
vt 0.354992 0.000948602
vt 0.367049 0.000948602
vt 0.367636 7.33391e-05
vt 0.385317 7.33391e-05
vt 0.390965 0.00642785
vt 0.392048 0.00642785
vt 0.392298 0.00685169
vt 0.392572 0.00718154
vt 0.392941 0.00724963
vt 0.393181 0.00723108
vt 0.39353 0.00704146
vt 0.39391 0.006587
vt 0.394311 0.00638198
vt 0.394556 0.00636487
vt 0.394783 0.00638107
vt 0.395153 0.00658342
vt 0.395345 0.00680981
vt 0.395686 0.00715533
vt 0.396164 0.00723169
vt 0.39643 0.00721273
vt 0.396787 0.00704077
vt 0.397153 0.00665693
vt 0.404138 0.00642092
vt 0.41054 1.89732e-05
vt 0.397349 0.00662248
vt 0.403422 0.00654672
vt 0.418026 0
vt 0.419379 0.000127819
vt 0.425781 0.00653002
vt 0.432923 0.00694203
vt 0.4333 0.00727016
vt 0.433531 0.00733678
vt 0.433827 0.00735898
vt 0.434123 0.00733689
vt 0.434359 0.00727066
vt 0.434745 0.00688995
vt 0.435083 0.00654694
vt 0.435432 0.00649179
vt 0.435824 0.00654868
vt 0.436186 0.00691142
vt 0.436378 0.00714082
vt 0.43678 0.00735574
vt 0.437047 0.00737773
vt 0.437293 0.00735681
vt 0.437635 0.00714887
vt 0.437928 0.00671496
vt 0.439083 0.00655567
vt 0.444731 0.000201158
vt 0.462287 0.000201158
vt 0.462874 0.00107642
vt 0.475058 0.00107642
vt 0.475854 0.000134752
vt 0.49182 0.000134752
vt 0.49261 0.00105395
vt 0.5042 0.00107642
vt 0.505048 0.000163711
vt 0.522613 0.000163711
vt 0.528132 0.00653371
vt 0.529162 0.00655567
vt 0.529768 0.00730012
vt 0.534188 0.00730012
vt 0.534748 0.00655567
vt 0.53574 0.00655567
vt 0.541699 0.000177692
vt 0.559264 0.000177692
vt 0.559794 0.00104497
vt 0.571532 0.00104497
vt 0.572172 0.000158219
vt 0.588723 0.000158219
vt 0.589214 0.00110238
vt 0.601139 0.00110238
vt 0.601768 0.000163711
vt 0.619338 0.000163711
vt 0.624609 0.00649925
vt 0.625778 0.00652222
vt 0.626145 0.00730012
vt 0.631132 0.00730012
vt 0.631521 0.00655567
vt 0.632694 0.00655567
vt 0.638326 0.000155223
vt 0.655717 0.000155223
vt 0.656504 0.00109589
vt 0.668131 0.00109589
vt 0.668851 0.000151229
vt 0.6853 0.000151229
vt 0.685827 0.00107243
vt 0.697832 0.00107243
vt 0.698352 0.000134752
vt 0.715944 0.000134752
vt 0.721713 0.00653445
vt 0.722542 0.00655567
vt 0.723258 0.00730012
vt 0.727901 0.00730012
vt 0.728243 0.00655567
vt 0.729461 0.00655567
vt 0.735 0.000134752
vt 0.752699 0.000134752
vt 0.753296 0.00107642
vt 0.764942 0.00107642
vt 0.765534 0.000163711
vt 0.782185 0.000163711
vt 0.782734 0.00107642
vt 0.794611 0.00107642
vt 0.79534 0.000163711
vt 0.812741 0.000163711
vt 0.818451 0.00655567
vt 0.819443 0.00655567
vt 0.819972 0.00730012
vt 0.82451 0.00730012
vt 0.824883 0.00655567
vt 0.825855 0.00655567
vt 0.829965 0.00157771
vt 0.825794 0.00642785
vt 0.824805 0.00642785
vt 0.824431 0.0071723
vt 0.820038 0.0071723
vt 0.819509 0.00642785
vt 0.818509 0.00642785
vt 0.812817 5.73617e-05
vt 0.795279 3.58921e-05
vt 0.79455 0.000948602
vt 0.782806 0.000948602
vt 0.782257 3.58921e-05
vt 0.765464 3.58921e-05
vt 0.764873 0.000948602
vt 0.753366 0.000948602
vt 0.752769 6.93302e-06
vt 0.734941 6.93302e-06
vt 0.729402 0.00642785
vt 0.728161 0.00642785
vt 0.727819 0.0071723
vt 0.723312 0.0071723
vt 0.722597 0.00642785
vt 0.721789 0.00642785
vt 0.71602 2.79033e-05
vt 0.698276 6.93302e-06
vt 0.697757 0.000944607
vt 0.685901 0.000944607
vt 0.685374 2.34097e-05
vt 0.668787 2.34097e-05
vt 0.668067 0.000968074
vt 0.656564 0.000968074
vt 0.655777 2.74041e-05
vt 0.638269 2.74041e-05
vt 0.632636 0.00642785
vt 0.631444 0.00642785
vt 0.631055 0.0071723
vt 0.626226 0.0071723
vt 0.625859 0.0063944
vt 0.624688 0.0063944
vt 0.619417 5.88595e-05
vt 0.6017 3.58921e-05
vt 0.601071 0.000974565
vt 0.589292 0.000974565
vt 0.588801 3.03999e-05
vt 0.572106 3.03999e-05
vt 0.571467 0.000917146
vt 0.559865 0.000917146
vt 0.559336 4.98724e-05
vt 0.541643 4.98724e-05
vt 0.535684 0.00642785
vt 0.534684 0.00642785
vt 0.534124 0.0071723
vt 0.529829 0.0071723
vt 0.529223 0.00642785
vt 0.52821 0.00642785
vt 0.52269 5.7861e-05
vt 0.504992 3.58921e-05
vt 0.504144 0.000948602
vt 0.492687 0.000948602
vt 0.491898 2.94014e-05
vt 0.475795 6.93302e-06
vt 0.474999 0.000948602
vt 0.462941 0.000948602
vt 0.462355 7.33391e-05
vt 0.444674 7.33391e-05
vt 0.439025 0.00642785
vt 0.437942 0.00642785
vt 0.437693 0.00685169
vt 0.437418 0.00718154
vt 0.43705 0.00724963
vt 0.43681 0.00723108
vt 0.43646 0.00704146
vt 0.43608 0.006587
vt 0.435679 0.00638198
vt 0.435435 0.00636487
vt 0.435208 0.00638107
vt 0.434838 0.00658342
vt 0.434646 0.00680981
vt 0.434304 0.00715533
vt 0.433826 0.00723169
vt 0.43356 0.00721273
vt 0.433203 0.00704077
vt 0.432837 0.00665693
vt 0.425853 0.00642092
vt 0.41945 1.89732e-05
vt 0.432641 0.00662248
vt 0.426569 0.00654672
vt 2.28359e-06 0.0133885
vt 0.00136139 0.0133885
vt 0.0104153 0.0133885
vt 0.0112036 0.0133885
vt 0 0.509687
vt 0.000727194 0.509687
vt 0.00978127 0.509687
vt 0.0112059 0.509687
vt 2.28359e-06 0.503702
vt 0.00136139 0.503702
vt 0.0104153 0.503702
vt 0.0112036 0.503702
vt 0 1
vt 0.000727194 1
vt 0.00978127 1
vt 0.0112059 1
vt 0.000681839 0.258545
vt 0.00588834 0.258545
vt 0.0108094 0.258545
vt 0.000363597 0.754843
vt 0.00525423 0.754843
vt 0.0104936 0.754843
vt 0.0172374 0.0133885
vt 0.0177375 0.0133885
vt 0.0179783 0.0133885
vt 0.0182747 0.0133885
vt 0.0185721 0.0133885
vt 0.0188171 0.0133885
vt 0.0193593 0.0133885
vt 0.0198408 0.0133885
vt 0.0201938 0.0133885
vt 0.0205902 0.0133885
vt 0.0211027 0.0133885
vt 0.0214015 0.0133885
vt 0.0218574 0.0133885
vt 0.0221254 0.0133885
vt 0.0223724 0.0133885
vt 0.0227724 0.0133885
vt 0.0232962 0.0133885
vt 0.029319 0.0133885
vt 0.0304849 0.0133885
vt 0.0389863 0.0133885
vt 0.0450063 0.0133885
vt 0.0625624 0.0133885
vt 0.0172262 0.509687
vt 0.0182799 0.509687
vt 0.0449988 0.509687
vt 0.0571831 0.509687
vt 0.0293465 0.509687
vt 0.0305795 0.509687
vt 0.0686053 0.0133885
vt 0.0845712 0.0133885
vt 0.036659 0.509687
vt 0.037871 0.509687
vt 0.0685784 0.509687
vt 0.080169 0.509687
vt 0.0906291 0.0133885
vt 0.0918751 0.0133885
vt 0.097912 0.0133885
vt 0.115476 0.0133885
vt 0.0979309 0.509687
vt 0.10636 0.509687
vt 0.0906175 0.509687
vt 0.0916473 0.509687
vt 0.112439 0.509687
vt 0.113399 0.509687
vt 0.121483 0.0133885
vt 0.125902 0.0133885
vt 0.121491 0.509687
vt 0.122422 0.509687
vt 0.131935 0.0133885
vt 0.132927 0.0133885
vt 0.138959 0.0133885
vt 0.147688 0.0133885
vt 0.153694 0.0133885
vt 0.171259 0.0133885
vt 0.131923 0.509687
vt 0.132939 0.509687
vt 0.153734 0.509687
vt 0.165473 0.509687
vt 0.139007 0.509687
vt 0.1401 0.509687
vt 0.177304 0.0133885
vt 0.193855 0.0133885
vt 0.146144 0.509687
vt 0.147208 0.509687
vt 0.177283 0.509687
vt 0.189208 0.509687
vt 0.199918 0.0133885
vt 0.201048 0.0133885
vt 0.20708 0.0133885
vt 0.22465 0.0133885
vt 0.207076 0.509687
vt 0.215318 0.509687
vt 0.199899 0.509687
vt 0.201068 0.509687
vt 0.221361 0.509687
vt 0.222221 0.509687
vt 0.23067 0.0133885
vt 0.235656 0.0133885
vt 0.230708 0.509687
vt 0.231548 0.509687
vt 0.241674 0.0133885
vt 0.242847 0.0133885
vt 0.248891 0.0133885
vt 0.257417 0.0133885
vt 0.263491 0.0133885
vt 0.280882 0.0133885
vt 0.248889 0.509687
vt 0.250116 0.509687
vt 0.2635 0.509687
vt 0.275127 0.509687
vt 0.241666 0.509687
vt 0.242854 0.509687
vt 0.286946 0.0133885
vt 0.303395 0.0133885
vt 0.256154 0.509687
vt 0.257216 0.509687
vt 0.286953 0.509687
vt 0.298958 0.509687
vt 0.309418 0.0133885
vt 0.31049 0.0133885
vt 0.31648 0.0133885
vt 0.334072 0.0133885
vt 0.316479 0.509687
vt 0.325095 0.509687
vt 0.331108 0.509687
vt 0.331938 0.509687
vt 0.332971 0.509687
vt 0.340072 0.0133885
vt 0.344715 0.0133885
vt 0.309424 0.509687
vt 0.310244 0.509687
vt 0.340109 0.509687
vt 0.341327 0.509687
vt 0.350723 0.0133885
vt 0.359203 0.0133885
vt 0.365207 0.0133885
vt 0.382906 0.0133885
vt 0.350754 0.509687
vt 0.35187 0.509687
vt 0.36524 0.509687
vt 0.376887 0.509687
vt 0.357951 0.509687
vt 0.359038 0.509687
vt 0.388954 0.0133885
vt 0.405604 0.0133885
vt 0.388905 0.509687
vt 0.389971 0.509687
vt 0.41169 0.0133885
vt 0.423567 0.0133885
vt 0.395977 0.509687
vt 0.397145 0.509687
vt 0.429637 0.0133885
vt 0.447038 0.0133885
vt 0.411667 0.509687
vt 0.420239 0.509687
vt 0.403187 0.509687
vt 0.404179 0.509687
vt 0.429621 0.509687
vt 0.430535 0.509687
vt 0.436548 0.509687
vt 0.441086 0.509687
vt 0.453064 0.0133885
vt 0.453897 0.0133885
vt 0.459938 0.0133885
vt 0.460909 0.0133885
vt 0.466952 0.0133885
vt 0.473407 0.0133885
vt 0.466981 0.509687
vt 0.473378 0.509687
vt 0.459929 0.509687
vt 0.460918 0.509687
vt 0.453064 0.509687
vt 0.453897 0.509687
vt 0.479415 0.0133885
vt 0.483808 0.0133885
vt 0.479419 0.509687
vt 0.480332 0.509687
vt 0.48985 0.0133885
vt 0.49085 0.0133885
vt 0.496912 0.0133885
vt 0.505454 0.0133885
vt 0.511507 0.0133885
vt 0.529045 0.0133885
vt 0.496888 0.509687
vt 0.498056 0.509687
vt 0.511532 0.509687
vt 0.523275 0.509687
vt 0.489817 0.509687
vt 0.490882 0.509687
vt 0.535103 0.0133885
vt 0.551895 0.0133885
vt 0.504111 0.509687
vt 0.505198 0.509687
vt 0.535112 0.509687
vt 0.546619 0.509687
vt 0.557964 0.0133885
vt 0.559079 0.0133885
vt 0.56511 0.0133885
vt 0.582938 0.0133885
vt 0.565115 0.509687
vt 0.573595 0.509687
vt 0.579628 0.509687
vt 0.580869 0.509687
vt 0.557933 0.509687
vt 0.558752 0.509687
vt 0.588948 0.0133885
vt 0.593455 0.0133885
vt 0.588949 0.509687
vt 0.589982 0.509687
vt 0.599476 0.0133885
vt 0.600284 0.0133885
vt 0.606286 0.0133885
vt 0.614902 0.0133885
vt 0.620935 0.0133885
vt 0.638678 0.0133885
vt 0.606287 0.509687
vt 0.607359 0.509687
vt 0.620946 0.509687
vt 0.632802 0.509687
vt 0.613355 0.509687
vt 0.614416 0.509687
vt 0.644736 0.0133885
vt 0.661323 0.0133885
vt 0.644714 0.509687
vt 0.645902 0.509687
vt 0.667388 0.0133885
vt 0.678892 0.0133885
vt 0.651937 0.509687
vt 0.653164 0.509687
vt 0.684975 0.0133885
vt 0.702483 0.0133885
vt 0.667381 0.509687
vt 0.675906 0.509687
vt 0.659197 0.509687
vt 0.660389 0.509687
vt 0.68499 0.509687
vt 0.68583 0.509687
vt 0.691914 0.509687
vt 0.696742 0.509687
vt 0.708561 0.0133885
vt 0.709422 0.0133885
vt 0.715469 0.0133885
vt 0.71664 0.0133885
vt 0.722647 0.0133885
vt 0.730889 0.0133885
vt 0.736943 0.0133885
vt 0.754659 0.0133885
vt 0.715489 0.509687
vt 0.716619 0.509687
vt 0.736919 0.509687
vt 0.748698 0.509687
vt 0.722645 0.509687
vt 0.723709 0.509687
vt 0.760736 0.0133885
vt 0.777431 0.0133885
vt 0.729752 0.509687
vt 0.730846 0.509687
vt 0.760709 0.509687
vt 0.772311 0.509687
vt 0.783479 0.0133885
vt 0.784495 0.0133885
vt 0.790523 0.0133885
vt 0.808215 0.0133885
vt 0.790516 0.509687
vt 0.799245 0.509687
vt 0.783487 0.509687
vt 0.784487 0.509687
vt 0.708526 0.509687
vt 0.709457 0.509687
vt 0.81422 0.0133885
vt 0.818515 0.0133885
vt 0.805293 0.509687
vt 0.806254 0.509687
vt 0.814245 0.509687
vt 0.815258 0.509687
vt 0.824542 0.0133885
vt 0.832971 0.0133885
vt 0.839001 0.0133885
vt 0.856699 0.0133885
vt 0.824543 0.509687
vt 0.825789 0.509687
vt 0.839009 0.509687
vt 0.850466 0.509687
vt 0.862746 0.0133885
vt 0.863958 0.0133885
vt 0.870024 0.0133885
vt 0.886127 0.0133885
vt 0.862735 0.509687
vt 0.863968 0.509687
vt 0.870012 0.509687
vt 0.882069 0.509687
vt 0.831821 0.509687
vt 0.832875 0.509687
vt 0.892158 0.0133885
vt 0.909839 0.0133885
vt 0.892199 0.509687
vt 0.900701 0.509687
vt 0.906802 0.509687
vt 0.907885 0.509687
vt 0.915869 0.0133885
vt 0.916361 0.0133885
vt 0.91679 0.0133885
vt 0.917165 0.0133885
vt 0.917406 0.0133885
vt 0.917803 0.0133885
vt 0.918396 0.0133885
vt 0.918846 0.0133885
vt 0.919091 0.0133885
vt 0.919319 0.0133885
vt 0.91974 0.0133885
vt 0.920037 0.0133885
vt 0.920523 0.0133885
vt 0.921007 0.0133885
vt 0.921274 0.0133885
vt 0.92167 0.0133885
vt 0.9222 0.0133885
vt 0.922399 0.0133885
vt 0.599488 0.509687
vt 0.599914 0.509687
vt 0.0172374 0.503702
vt 0.0177375 0.503702
vt 0.0179783 0.503702
vt 0.0182747 0.503702
vt 0.0185721 0.503702
vt 0.0188171 0.503702
vt 0.0193593 0.503702
vt 0.0198408 0.503702
vt 0.0201938 0.503702
vt 0.0205902 0.503702
vt 0.0211027 0.503702
vt 0.0214015 0.503702
vt 0.0218574 0.503702
vt 0.0221254 0.503702
vt 0.0223724 0.503702
vt 0.0227724 0.503702
vt 0.0232962 0.503702
vt 0.029319 0.503702
vt 0.0304849 0.503702
vt 0.0389863 0.503702
vt 0.0450063 0.503702
vt 0.0625624 0.503702
vt 0.0172262 1
vt 0.0182799 1
vt 0.0449988 1
vt 0.0571831 1
vt 0.0293465 1
vt 0.0305795 1
vt 0.0686053 0.503702
vt 0.0845712 0.503702
vt 0.036659 1
vt 0.037871 1
vt 0.0685784 1
vt 0.080169 1
vt 0.0906291 0.503702
vt 0.0918751 0.503702
vt 0.097912 0.503702
vt 0.115476 0.503702
vt 0.0979309 1
vt 0.10636 1
vt 0.0906175 1
vt 0.0916473 1
vt 0.112439 1
vt 0.113399 1
vt 0.121483 0.503702
vt 0.125902 0.503702
vt 0.121491 1
vt 0.122422 1
vt 0.131935 0.503702
vt 0.132927 0.503702
vt 0.138959 0.503702
vt 0.147688 0.503702
vt 0.153694 0.503702
vt 0.171259 0.503702
vt 0.131923 1
vt 0.132939 1
vt 0.153734 1
vt 0.165473 1
vt 0.139007 1
vt 0.1401 1
vt 0.177304 0.503702
vt 0.193855 0.503702
vt 0.146144 1
vt 0.147208 1
vt 0.177283 1
vt 0.189208 1
vt 0.199918 0.503702
vt 0.201048 0.503702
vt 0.20708 0.503702
vt 0.22465 0.503702
vt 0.207076 1
vt 0.215318 1
vt 0.199899 1
vt 0.201068 1
vt 0.221361 1
vt 0.222221 1
vt 0.23067 0.503702
vt 0.235656 0.503702
vt 0.230708 1
vt 0.231548 1
vt 0.241674 0.503702
vt 0.242847 0.503702
vt 0.248891 0.503702
vt 0.257417 0.503702
vt 0.263491 0.503702
vt 0.280882 0.503702
vt 0.248889 1
vt 0.250116 1
vt 0.2635 1
vt 0.275127 1
vt 0.241666 1
vt 0.242854 1
vt 0.286946 0.503702
vt 0.303395 0.503702
vt 0.256154 1
vt 0.257216 1
vt 0.286953 1
vt 0.298958 1
vt 0.309418 0.503702
vt 0.31049 0.503702
vt 0.31648 0.503702
vt 0.334072 0.503702
vt 0.316479 1
vt 0.325095 1
vt 0.331108 1
vt 0.331938 1
vt 0.332971 1
vt 0.340072 0.503702
vt 0.344715 0.503702
vt 0.309424 1
vt 0.310244 1
vt 0.340109 1
vt 0.341327 1
vt 0.350723 0.503702
vt 0.359203 0.503702
vt 0.365207 0.503702
vt 0.382906 0.503702
vt 0.350754 1
vt 0.35187 1
vt 0.36524 1
vt 0.376887 1
vt 0.357951 1
vt 0.359038 1
vt 0.388954 0.503702
vt 0.405604 0.503702
vt 0.388905 1
vt 0.389971 1
vt 0.41169 0.503702
vt 0.423567 0.503702
vt 0.395977 1
vt 0.397145 1
vt 0.429637 0.503702
vt 0.447038 0.503702
vt 0.411667 1
vt 0.420239 1
vt 0.403187 1
vt 0.404179 1
vt 0.429621 1
vt 0.430535 1
vt 0.436548 1
vt 0.441086 1
vt 0.453064 0.503702
vt 0.453897 0.503702
vt 0.459938 0.503702
vt 0.460909 0.503702
vt 0.466952 0.503702
vt 0.473407 0.503702
vt 0.466981 1
vt 0.473378 1
vt 0.459929 1
vt 0.460918 1
vt 0.453064 1
vt 0.453897 1
vt 0.479415 0.503702
vt 0.483808 0.503702
vt 0.479419 1
vt 0.480332 1
vt 0.48985 0.503702
vt 0.49085 0.503702
vt 0.496912 0.503702
vt 0.505454 0.503702
vt 0.511507 0.503702
vt 0.529045 0.503702
vt 0.496888 1
vt 0.498056 1
vt 0.511532 1
vt 0.523275 1
vt 0.489817 1
vt 0.490882 1
vt 0.535103 0.503702
vt 0.551895 0.503702
vt 0.504111 1
vt 0.505198 1
vt 0.535112 1
vt 0.546619 1
vt 0.557964 0.503702
vt 0.559079 0.503702
vt 0.56511 0.503702
vt 0.582938 0.503702
vt 0.565115 1
vt 0.573595 1
vt 0.579628 1
vt 0.580869 1
vt 0.557933 1
vt 0.558752 1
vt 0.588948 0.503702
vt 0.593455 0.503702
vt 0.588949 1
vt 0.589982 1
vt 0.599476 0.503702
vt 0.600284 0.503702
vt 0.606286 0.503702
vt 0.614902 0.503702
vt 0.620935 0.503702
vt 0.638678 0.503702
vt 0.606287 1
vt 0.607359 1
vt 0.620946 1
vt 0.632802 1
vt 0.613355 1
vt 0.614416 1
vt 0.644736 0.503702
vt 0.661323 0.503702
vt 0.644714 1
vt 0.645902 1
vt 0.667388 0.503702
vt 0.678892 0.503702
vt 0.651937 1
vt 0.653164 1
vt 0.684975 0.503702
vt 0.702483 0.503702
vt 0.667381 1
vt 0.675906 1
vt 0.659197 1
vt 0.660389 1
vt 0.68499 1
vt 0.68583 1
vt 0.691914 1
vt 0.696742 1
vt 0.708561 0.503702
vt 0.709422 0.503702
vt 0.715469 0.503702
vt 0.71664 0.503702
vt 0.722647 0.503702
vt 0.730889 0.503702
vt 0.736943 0.503702
vt 0.754659 0.503702
vt 0.715489 1
vt 0.716619 1
vt 0.736919 1
vt 0.748698 1
vt 0.722645 1
vt 0.723709 1
vt 0.760736 0.503702
vt 0.777431 0.503702
vt 0.729752 1
vt 0.730846 1
vt 0.760709 1
vt 0.772311 1
vt 0.783479 0.503702
vt 0.784495 0.503702
vt 0.790523 0.503702
vt 0.808215 0.503702
vt 0.790516 1
vt 0.799245 1
vt 0.783487 1
vt 0.784487 1
vt 0.708526 1
vt 0.709457 1
vt 0.81422 0.503702
vt 0.818515 0.503702
vt 0.805293 1
vt 0.806254 1
vt 0.814245 1
vt 0.815258 1
vt 0.824542 0.503702
vt 0.832971 0.503702
vt 0.839001 0.503702
vt 0.856699 0.503702
vt 0.824543 1
vt 0.825789 1
vt 0.839009 1
vt 0.850466 1
vt 0.862746 0.503702
vt 0.863958 0.503702
vt 0.870024 0.503702
vt 0.886127 0.503702
vt 0.862735 1
vt 0.863968 1
vt 0.870012 1
vt 0.882069 1
vt 0.831821 1
vt 0.832875 1
vt 0.892158 0.503702
vt 0.909839 0.503702
vt 0.892199 1
vt 0.900701 1
vt 0.906802 1
vt 0.907885 1
vt 0.915869 0.503702
vt 0.916361 0.503702
vt 0.91679 0.503702
vt 0.917165 0.503702
vt 0.917406 0.503702
vt 0.917803 0.503702
vt 0.918396 0.503702
vt 0.918846 0.503702
vt 0.919091 0.503702
vt 0.919319 0.503702
vt 0.91974 0.503702
vt 0.920037 0.503702
vt 0.920523 0.503702
vt 0.921007 0.503702
vt 0.921274 0.503702
vt 0.92167 0.503702
vt 0.9222 0.503702
vt 0.922399 0.503702
vt 0.599488 1
vt 0.599914 1
vt 0.0174874 0.258545
vt 0.0178579 0.258545
vt 0.0181265 0.258545
vt 0.0184234 0.258545
vt 0.0186946 0.258545
vt 0.0190882 0.258545
vt 0.0196 0.258545
vt 0.0200173 0.258545
vt 0.020392 0.258545
vt 0.0208465 0.258545
vt 0.0212521 0.258545
vt 0.0216294 0.258545
vt 0.0219914 0.258545
vt 0.0222489 0.258545
vt 0.0225724 0.258545
vt 0.0230343 0.258545
vt 0.029902 0.258545
vt 0.0347356 0.258545
vt 0.0537843 0.258545
vt 0.017753 0.754843
vt 0.051091 0.754843
vt 0.029963 0.754843
vt 0.0765882 0.258545
vt 0.037265 0.754843
vt 0.0743737 0.754843
vt 0.0912521 0.258545
vt 0.106694 0.258545
vt 0.102145 0.754843
vt 0.0911324 0.754843
vt 0.112919 0.754843
vt 0.123692 0.258545
vt 0.121957 0.754843
vt 0.132431 0.258545
vt 0.143324 0.258545
vt 0.162477 0.258545
vt 0.132431 0.754843
vt 0.159604 0.754843
vt 0.139553 0.754843
vt 0.18558 0.258545
vt 0.146676 0.754843
vt 0.183246 0.754843
vt 0.200483 0.258545
vt 0.215865 0.258545
vt 0.211197 0.754843
vt 0.200483 0.754843
vt 0.221791 0.754843
vt 0.233163 0.258545
vt 0.231128 0.754843
vt 0.24226 0.258545
vt 0.253154 0.258545
vt 0.272187 0.258545
vt 0.249503 0.754843
vt 0.269314 0.754843
vt 0.24226 0.754843
vt 0.29517 0.258545
vt 0.256685 0.754843
vt 0.292956 0.754843
vt 0.309954 0.258545
vt 0.325276 0.258545
vt 0.320787 0.754843
vt 0.331523 0.754843
vt 0.332454 0.754843
vt 0.342394 0.258545
vt 0.309834 0.754843
vt 0.340718 0.754843
vt 0.354963 0.258545
vt 0.374056 0.258545
vt 0.351312 0.754843
vt 0.371063 0.754843
vt 0.358494 0.754843
vt 0.397279 0.258545
vt 0.389438 0.754843
vt 0.417629 0.258545
vt 0.396561 0.754843
vt 0.438338 0.258545
vt 0.415953 0.754843
vt 0.403683 0.754843
vt 0.430078 0.754843
vt 0.438817 0.754843
vt 0.453481 0.258545
vt 0.460423 0.258545
vt 0.470179 0.258545
vt 0.470179 0.754843
vt 0.460423 0.754843
vt 0.453481 0.754843
vt 0.481611 0.258545
vt 0.479876 0.754843
vt 0.49035 0.258545
vt 0.501183 0.258545
vt 0.520276 0.258545
vt 0.497472 0.754843
vt 0.517403 0.754843
vt 0.49035 0.754843
vt 0.543499 0.258545
vt 0.504655 0.754843
vt 0.540865 0.754843
vt 0.558522 0.258545
vt 0.574024 0.258545
vt 0.569355 0.754843
vt 0.580248 0.754843
vt 0.558342 0.754843
vt 0.591202 0.258545
vt 0.589466 0.754843
vt 0.59988 0.258545
vt 0.610594 0.258545
vt 0.629807 0.258545
vt 0.606823 0.754843
vt 0.626874 0.754843
vt 0.613886 0.754843
vt 0.653029 0.258545
vt 0.645308 0.754843
vt 0.67314 0.258545
vt 0.652551 0.754843
vt 0.693729 0.258545
vt 0.671644 0.754843
vt 0.659793 0.754843
vt 0.68541 0.754843
vt 0.694328 0.754843
vt 0.708992 0.258545
vt 0.716054 0.258545
vt 0.726768 0.258545
vt 0.745801 0.258545
vt 0.716054 0.754843
vt 0.742808 0.754843
vt 0.723177 0.754843
vt 0.769084 0.258545
vt 0.730299 0.754843
vt 0.76651 0.754843
vt 0.783987 0.258545
vt 0.799369 0.258545
vt 0.79488 0.754843
vt 0.783987 0.754843
vt 0.708992 0.754843
vt 0.816367 0.258545
vt 0.805773 0.754843
vt 0.814751 0.754843
vt 0.828757 0.258545
vt 0.84785 0.258545
vt 0.825166 0.754843
vt 0.844737 0.754843
vt 0.863352 0.258545
vt 0.878075 0.258545
vt 0.863352 0.754843
vt 0.87604 0.754843
vt 0.832348 0.754843
vt 0.900999 0.258545
vt 0.89645 0.754843
vt 0.907343 0.754843
vt 0.916115 0.258545
vt 0.916576 0.258545
vt 0.916978 0.258545
vt 0.917285 0.258545
vt 0.917604 0.258545
vt 0.918099 0.258545
vt 0.918621 0.258545
vt 0.918969 0.258545
vt 0.919205 0.258545
vt 0.919529 0.258545
vt 0.919889 0.258545
vt 0.92028 0.258545
vt 0.920765 0.258545
vt 0.92114 0.258545
vt 0.921472 0.258545
vt 0.921935 0.258545
vt 0.9223 0.258545
vt 0.599701 0.754843


# Vertex Surface Normals: 
vn 0 0 1
vn 0 0 -1
vn 0.0940463 0.995568 0
vn 0.0940463 0.995568 4.74397e-18
vn 0.42576 0.904836 2.52106e-18
vn 0.42576 0.904836 -2.52106e-18
vn 0.0940463 0.995568 -4.74397e-18
vn 0.707121 0.707093 0
vn 0.392462 0.919768 -5.75144e-19
vn 0.392462 0.919768 5.75144e-19
vn 0.0211936 0.999775 0
vn 0.0211936 0.999775 -1.06733e-18
vn 0.0211936 0.999775 1.06733e-18
vn -0.172998 -0.984922 0
vn -0.172998 -0.984922 0
vn -0.461438 -0.887172 3.70965e-17
vn -0.461438 -0.887172 -3.70965e-17
vn -0.172998 -0.984922 0
vn -0.707079 -0.707134 0
vn -0.388809 -0.921318 3.9036e-17
vn -0.388809 -0.921318 -3.9036e-17
vn -0.0133182 -0.999911 0
vn -0.0133182 -0.999911 1.57489e-18
vn -0.0133182 -0.999911 -1.57489e-18
vn 0.656248 0.754545 0
vn 0.704887 0.70932 3.27893e-19
vn 0.477724 0.87851 -6.55756e-18
vn 0.477724 0.87851 6.55756e-18
vn 0.704887 0.70932 -3.27893e-19
vn 0.276633 0.960976 0
vn 0.176682 0.984268 -8.12792e-18
vn 0.176682 0.984268 8.12792e-18
vn 0.074871 0.997193 0
vn 0.000305406 1 -1.10654e-18
vn 0.000305406 1 1.10654e-18
vn -0.0742619 0.997239 0
vn -0.173142 0.984897 -1.29457e-17
vn -0.173142 0.984897 1.29457e-17
vn -0.270303 0.962775 0
vn -0.502194 0.864755 5.56903e-18
vn -0.502194 0.864755 -5.56903e-18
vn -0.702255 0.711925 0
vn -0.707281 0.706932 3.86681e-20
vn -0.707281 0.706932 -3.86681e-20
vn -0.712272 0.701904 0
vn -0.457153 0.889388 -2.29354e-17
vn -0.457153 0.889388 2.29354e-17
vn -0.15621 0.987724 0
vn -0.00641603 0.999979 -3.19446e-18
vn -0.00641603 0.999979 3.19446e-18
vn 0.143523 0.989647 0
vn 0.448625 0.89372 7.00079e-19
vn 0.448625 0.89372 -7.00079e-19
vn 0.707837 0.706376 0
vn 0.738496 0.674258 1.96555e-17
vn 0.738496 0.674258 -1.96555e-17
vn 0.767699 0.640811 0
vn 0.631186 0.775632 1.90204e-17
vn 0.631186 0.775632 -1.90204e-17
vn 0.471438 0.881899 0
vn 0.282627 0.95923 -2.82265e-18
vn 0.282627 0.95923 2.82265e-18
vn 0.0820507 0.996628 0
vn -0.00131932 0.999999 -2.07728e-18
vn -0.00131932 0.999999 2.07728e-18
vn -0.0846802 0.996408 0
vn -0.31054 0.95056 1.27802e-17
vn -0.31054 0.95056 -1.27802e-17
vn -0.519905 0.854224 0
vn -0.689903 0.723902 3.43497e-17
vn -0.689903 0.723902 -3.43497e-17
vn -0.828246 0.560364 0
vn -0.828246 0.560364 4.22417e-17
vn -0.828246 0.560364 -4.22417e-17
vn -0.136626 0.990623 0
vn -0.136626 0.990623 0
vn -0.471196 0.882029 -2.00947e-17
vn -0.471196 0.882029 2.00947e-17
vn -0.136626 0.990623 0
vn -0.747464 0.664302 0
vn -0.747464 0.664302 -3.77031e-17
vn -0.747464 0.664302 3.77031e-17
vn 0 1 0
vn 0 1 0
vn 0 1 0
vn 0 1 0
vn 0 1 0
vn 0.830663 0.556776 0
vn 0.830663 0.556776 -4.23825e-17
vn 0.830663 0.556776 -4.23825e-17
vn 0.830663 0.556776 4.23825e-17
vn 0.830663 0.556776 4.23825e-17
vn 0 1 0
vn 0 1 0
vn 0 1 0
vn 0 1 0
vn 0 1 0
vn -0.763755 0.645507 0
vn -0.763755 0.645507 3.80193e-17
vn -0.763755 0.645507 3.80193e-17
vn -0.763755 0.645507 -3.80193e-17
vn -0.763755 0.645507 -3.80193e-17
vn 0 1 0
vn 0 1 0
vn 0 1 0
vn 0 1 0
vn 0 1 0
vn 0.758442 0.651741 0
vn 0.758442 0.651741 0
vn 0.758442 0.651741 0
vn 0.758442 0.651741 0
vn 0.758442 0.651741 0
vn 0.00193847 0.999998 0
vn 0.00193847 0.999998 -7.76811e-19
vn 0.00193847 0.999998 -7.76811e-19
vn 0.00193847 0.999998 7.76811e-19
vn 0.00193847 0.999998 7.76811e-19
vn -0.732479 0.680789 0
vn -0.732479 0.680789 3.74124e-17
vn -0.732479 0.680789 3.74124e-17
vn -0.732479 0.680789 -3.74124e-17
vn -0.732479 0.680789 -3.74124e-17
vn 0 1 0
vn 0 1 0
vn 0 1 0
vn 0 1 0
vn 0 1 0
vn 0.755746 0.654865 0
vn 0.755746 0.654865 0
vn 0.755746 0.654865 0
vn 0.755746 0.654865 0
vn 0.755746 0.654865 0
vn 0.0213336 0.999772 0
vn 0.0213336 0.999772 7.85578e-19
vn 0.0213336 0.999772 7.85578e-19
vn 0.0213336 0.999772 -7.85578e-19
vn 0.0213336 0.999772 -7.85578e-19
vn 0.775207 0.631708 0
vn 0.775207 0.631708 1.99962e-17
vn 0.775207 0.631708 1.99962e-17
vn 0.775207 0.631708 -1.99962e-17
vn 0.775207 0.631708 -1.99962e-17
vn 0 1 0
vn 0 1 0
vn 0 1 0
vn 0 1 0
vn 0 1 0
vn -0.799034 0.601286 0
vn -0.799034 0.601286 -1.96914e-17
vn -0.799034 0.601286 -1.96914e-17
vn -0.799034 0.601286 1.96914e-17
vn -0.799034 0.601286 1.96914e-17
vn 0 1 0
vn 0 1 0
vn 0 1 0
vn 0 1 0
vn 0 1 0
vn -0.730667 0.682734 0
vn -0.730667 0.682734 -1.80435e-17
vn -0.730667 0.682734 -1.80435e-17
vn -0.730667 0.682734 1.80435e-17
vn -0.730667 0.682734 1.80435e-17
vn 0 1 0
vn 0 1 0
vn 0 1 0
vn 0 1 0
vn 0 1 0
vn 0.853391 0.521271 0
vn 0.853391 0.521271 4.21741e-19
vn 0.853391 0.521271 4.21741e-19
vn 0.853391 0.521271 -4.21741e-19
vn 0.853391 0.521271 -4.21741e-19
vn 0 1 0
vn 0 1 0
vn 0 1 0
vn 0 1 0
vn 0 1 0
vn -0.811257 0.58469 0
vn -0.811257 0.58469 -1.07429e-17
vn -0.811257 0.58469 -1.07429e-17
vn -0.811257 0.58469 1.07429e-17
vn -0.811257 0.58469 1.07429e-17
vn 0 1 0
vn 0 1 0
vn 0 1 0
vn 0 1 0
vn 0 1 0
vn 0.887086 0.461604 0
vn 0.887086 0.461604 0
vn 0.887086 0.461604 0
vn 0.887086 0.461604 0
vn 0.887086 0.461604 0
vn 0 1 0
vn 0 1 0
vn 0 1 0
vn 0 1 0
vn 0 1 0
vn -0.830688 0.556738 0
vn -0.830688 0.556738 0
vn -0.830688 0.556738 0
vn -0.830688 0.556738 0
vn -0.830688 0.556738 0
vn 0 1 0
vn 0 1 0
vn 0 1 0
vn 0 1 0
vn 0 1 0
vn 0.768703 0.639606 0
vn 0.768703 0.639606 0
vn 0.768703 0.639606 0
vn 0.768703 0.639606 0
vn 0.768703 0.639606 0
vn 0.0196458 0.999807 0
vn 0.0196458 0.999807 7.88069e-19
vn 0.0196458 0.999807 7.88069e-19
vn 0.0196458 0.999807 -7.88069e-19
vn 0.0196458 0.999807 -7.88069e-19
vn 0.904298 0.426901 0
vn 0.904298 0.426901 -5.73096e-18
vn 0.904298 0.426901 -5.73096e-18
vn 0.904298 0.426901 5.73096e-18
vn 0.904298 0.426901 5.73096e-18
vn 0 1 0
vn 0 1 0
vn 0 1 0
vn 0 1 0
vn 0 1 0
vn -0.886198 0.463307 0
vn -0.886198 0.463307 -5.25638e-18
vn -0.886198 0.463307 -5.25638e-18
vn -0.886198 0.463307 5.25638e-18
vn -0.886198 0.463307 5.25638e-18
vn 0 1 0
vn 0 1 0
vn 0 1 0
vn 0 1 0
vn 0 1 0
vn -0.750705 0.660637 0
vn -0.750705 0.660637 9.5577e-18
vn -0.750705 0.660637 9.5577e-18
vn -0.750705 0.660637 -9.5577e-18
vn -0.750705 0.660637 -9.5577e-18
vn 0 1 0
vn 0 1 0
vn 0 1 0
vn 0 1 0
vn 0 1 0
vn 0.767119 0.641505 0
vn 0.767119 0.641505 9.64427e-18
vn 0.767119 0.641505 9.64427e-18
vn 0.767119 0.641505 -9.64427e-18
vn 0.767119 0.641505 -9.64427e-18
vn 0 1 0
vn 0 1 0
vn 0 1 0
vn 0 1 0
vn 0 1 0
vn -0.795234 0.606303 0
vn -0.795234 0.606303 1.99841e-17
vn -0.795234 0.606303 1.99841e-17
vn -0.795234 0.606303 -1.99841e-17
vn -0.795234 0.606303 -1.99841e-17
vn 0 1 0
vn 0 1 0
vn 0 1 0
vn 0 1 0
vn 0 1 0
vn 0.867997 0.49657 0
vn 0.867997 0.49657 -2.18066e-17
vn 0.867997 0.49657 -2.18066e-17
vn 0.867997 0.49657 2.18066e-17
vn 0.867997 0.49657 2.18066e-17
vn 0 1 0
vn 0 1 0
vn 0 1 0
vn 0 1 0
vn 0 1 0
vn -0.874618 0.484812 0
vn -0.874618 0.484812 -2.27858e-17
vn -0.874618 0.484812 -2.27858e-17
vn -0.874618 0.484812 2.27858e-17
vn -0.874618 0.484812 2.27858e-17
vn 0 1 0
vn 0 1 0
vn 0 1 0
vn 0 1 0
vn 0 1 0
vn 0.742754 0.669565 0
vn 0.742754 0.669565 3.71954e-17
vn 0.742754 0.669565 3.71954e-17
vn 0.742754 0.669565 -3.71954e-17
vn 0.742754 0.669565 -3.71954e-17
vn 0.0255787 0.999673 0
vn 0.0255787 0.999673 7.88063e-19
vn 0.403482 0.914988 7.40041e-19
vn 0.403482 0.914988 -7.40041e-19
vn 0.0255787 0.999673 -7.88063e-19
vn 0.72087 0.69307 0
vn 0.72087 0.69307 5.81026e-19
vn 0.72087 0.69307 -5.81026e-19
vn 0 1 0
vn 0 1 0
vn 0 1 0
vn 0 1 0
vn 0 1 0
vn -0.908574 0.417725 0
vn -0.908574 0.417725 -4.54685e-17
vn -0.908574 0.417725 -4.54685e-17
vn -0.908574 0.417725 4.54685e-17
vn -0.908574 0.417725 4.54685e-17
vn 0 1 0
vn 0 1 0
vn 0 1 0
vn 0 1 0
vn 0 1 0
vn -0.757183 0.653203 0
vn -0.757183 0.653203 0
vn -0.757183 0.653203 0
vn -0.757183 0.653203 0
vn -0.757183 0.653203 0
vn 0 1 0
vn 0 1 0
vn 0 1 0
vn 0 1 0
vn 0 1 0
vn 0.844509 0.535542 0
vn 0.844509 0.535542 -3.8433e-19
vn 0.844509 0.535542 -3.8433e-19
vn 0.844509 0.535542 3.8433e-19
vn 0.844509 0.535542 3.8433e-19
vn 0 1 0
vn 0 1 0
vn 0 1 0
vn 0 1 0
vn 0 1 0
vn -0.839219 0.543794 0
vn -0.839219 0.543794 4.27155e-17
vn -0.839219 0.543794 4.27155e-17
vn -0.839219 0.543794 -4.27155e-17
vn -0.839219 0.543794 -4.27155e-17
vn 0 1 0
vn 0 1 0
vn 0 1 0
vn 0 1 0
vn 0 1 0
vn 0.856727 0.51577 0
vn 0.856727 0.51577 4.02287e-19
vn 0.856727 0.51577 4.02287e-19
vn 0.856727 0.51577 -4.02287e-19
vn 0.856727 0.51577 -4.02287e-19
vn 0 1 0
vn 0 1 0
vn 0 1 0
vn 0 1 0
vn 0 1 0
vn -0.781369 0.624069 0
vn -0.781369 0.624069 3.98402e-17
vn -0.781369 0.624069 3.98402e-17
vn -0.781369 0.624069 -3.98402e-17
vn -0.781369 0.624069 -3.98402e-17
vn 0 1 0
vn 0 1 0
vn 0 1 0
vn 0 1 0
vn 0 1 0
vn 0.745745 0.666231 0
vn 0.745745 0.666231 3.67588e-17
vn 0.745745 0.666231 3.67588e-17
vn 0.745745 0.666231 -3.67588e-17
vn 0.745745 0.666231 -3.67588e-17
vn 0 1 0
vn 0 1 0
vn 0 1 0
vn 0 1 0
vn 0 1 0
vn 0.815153 0.579245 0
vn 0.815153 0.579245 4.69372e-19
vn 0.815153 0.579245 4.69372e-19
vn 0.815153 0.579245 -4.69372e-19
vn 0.815153 0.579245 -4.69372e-19
vn 0 1 0
vn 0 1 0
vn 0 1 0
vn 0 1 0
vn 0 1 0
vn -0.893827 0.448412 0
vn -0.893827 0.448412 -4.47297e-17
vn -0.893827 0.448412 -4.47297e-17
vn -0.893827 0.448412 4.47297e-17
vn -0.893827 0.448412 4.47297e-17
vn 0 1 0
vn 0 1 0
vn 0 1 0
vn 0 1 0
vn 0 1 0
vn -0.771136 0.636671 0
vn -0.771136 0.636671 0
vn -0.771136 0.636671 0
vn -0.771136 0.636671 0
vn -0.771136 0.636671 0
vn 0.758245 -0.65197 0
vn 0.758245 -0.65197 3.78992e-17
vn 0.758245 -0.65197 3.78992e-17
vn 0.758245 -0.65197 -3.78992e-17
vn 0.758245 -0.65197 -3.78992e-17
vn 0 -1 0
vn 0 -1 0
vn 0 -1 0
vn 0 -1 0
vn 0 -1 0
vn 0.893827 -0.448412 0
vn 0.893827 -0.448412 -4.53989e-17
vn 0.893827 -0.448412 -4.53989e-17
vn 0.893827 -0.448412 4.53989e-17
vn 0.893827 -0.448412 4.53989e-17
vn 0 -1 0
vn 0 -1 0
vn 0 -1 0
vn 0 -1 0
vn 0 -1 0
vn -0.815153 -0.579245 0
vn -0.815153 -0.579245 -4.14925e-17
vn -0.815153 -0.579245 -4.14925e-17
vn -0.815153 -0.579245 4.14925e-17
vn -0.815153 -0.579245 4.14925e-17
vn 0 -1 0
vn 0 -1 0
vn 0 -1 0
vn 0 -1 0
vn 0 -1 0
vn -0.745733 -0.666245 0
vn -0.745733 -0.666245 0
vn -0.745733 -0.666245 0
vn -0.745733 -0.666245 0
vn -0.745733 -0.666245 0
vn -0.00122413 -0.999999 0
vn -0.00122413 -0.999999 -5.97819e-20
vn -0.00122413 -0.999999 -5.97819e-20
vn -0.00122413 -0.999999 5.97819e-20
vn -0.00122413 -0.999999 5.97819e-20
vn 0.781369 -0.624069 0
vn 0.781369 -0.624069 -3.88864e-17
vn 0.781369 -0.624069 -3.88864e-17
vn 0.781369 -0.624069 3.88864e-17
vn 0.781369 -0.624069 3.88864e-17
vn 0 -1 0
vn 0 -1 0
vn 0 -1 0
vn 0 -1 0
vn 0 -1 0
vn -0.856727 -0.51577 0
vn -0.856727 -0.51577 -4.28033e-17
vn -0.856727 -0.51577 -4.28033e-17
vn -0.856727 -0.51577 4.28033e-17
vn -0.856727 -0.51577 4.28033e-17
vn 0 -1 0
vn 0 -1 0
vn 0 -1 0
vn 0 -1 0
vn 0 -1 0
vn 0.839219 -0.543794 0
vn 0.839219 -0.543794 4.72865e-19
vn 0.839219 -0.543794 4.72865e-19
vn 0.839219 -0.543794 -4.72865e-19
vn 0.839219 -0.543794 -4.72865e-19
vn 0 -1 0
vn 0 -1 0
vn 0 -1 0
vn 0 -1 0
vn 0 -1 0
vn -0.844509 -0.535542 0
vn -0.844509 -0.535542 -4.61195e-19
vn -0.844509 -0.535542 -4.61195e-19
vn -0.844509 -0.535542 4.61195e-19
vn -0.844509 -0.535542 4.61195e-19
vn 0 -1 0
vn 0 -1 0
vn 0 -1 0
vn 0 -1 0
vn 0 -1 0
vn 0.757183 -0.653203 0
vn 0.757183 -0.653203 -6.40668e-19
vn 0.757183 -0.653203 -6.40668e-19
vn 0.757183 -0.653203 6.40668e-19
vn 0.757183 -0.653203 6.40668e-19
vn 0 -1 0
vn 0 -1 0
vn 0 -1 0
vn 0 -1 0
vn 0 -1 0
vn 0.908574 -0.417725 0
vn 0.908574 -0.417725 4.54685e-17
vn 0.908574 -0.417725 4.54685e-17
vn 0.908574 -0.417725 -4.54685e-17
vn 0.908574 -0.417725 -4.54685e-17
vn 0 -1 0
vn 0 -1 0
vn 0 -1 0
vn 0 -1 0
vn 0 -1 0
vn -0.72087 -0.69307 0
vn -0.72087 -0.69307 -5.81026e-19
vn -0.72087 -0.69307 -5.81026e-19
vn -0.72087 -0.69307 5.81026e-19
vn -0.72087 -0.69307 5.81026e-19
vn 0 -1 0
vn 0 -1 0
vn 0 -1 0
vn 0 -1 0
vn 0 -1 0
vn -0.742767 -0.66955 0
vn -0.742767 -0.66955 -3.71945e-17
vn -0.742767 -0.66955 -3.71945e-17
vn -0.742767 -0.66955 3.71945e-17
vn -0.742767 -0.66955 3.71945e-17
vn -0.00118188 -0.999999 0
vn -0.00118188 -0.999999 0
vn -0.00118188 -0.999999 0
vn -0.00118188 -0.999999 0
vn -0.00118188 -0.999999 0
vn 0.874618 -0.484812 0
vn 0.874618 -0.484812 3.9975e-19
vn 0.874618 -0.484812 3.9975e-19
vn 0.874618 -0.484812 -3.9975e-19
vn 0.874618 -0.484812 -3.9975e-19
vn 0 -1 0
vn 0 -1 0
vn 0 -1 0
vn 0 -1 0
vn 0 -1 0
vn -0.867997 -0.496569 0
vn -0.867997 -0.496569 2.14835e-17
vn -0.867997 -0.496569 2.14835e-17
vn -0.867997 -0.496569 -2.14835e-17
vn -0.867997 -0.496569 -2.14835e-17
vn 0 -1 0
vn 0 -1 0
vn 0 -1 0
vn 0 -1 0
vn 0 -1 0
vn 0.795234 -0.606303 0
vn 0.795234 -0.606303 -5.05012e-19
vn 0.795234 -0.606303 -5.05012e-19
vn 0.795234 -0.606303 5.05012e-19
vn 0.795234 -0.606303 5.05012e-19
vn 0 -1 0
vn 0 -1 0
vn 0 -1 0
vn 0 -1 0
vn 0 -1 0
vn -0.767119 -0.641505 0
vn -0.767119 -0.641505 -4.89202e-19
vn -0.767119 -0.641505 -4.89202e-19
vn -0.767119 -0.641505 4.89202e-19
vn -0.767119 -0.641505 4.89202e-19
vn 0 -1 0
vn 0 -1 0
vn 0 -1 0
vn 0 -1 0
vn 0 -1 0
vn 0.750705 -0.660637 0
vn 0.750705 -0.660637 -9.5577e-18
vn 0.750705 -0.660637 -9.5577e-18
vn 0.750705 -0.660637 9.5577e-18
vn 0.750705 -0.660637 9.5577e-18
vn 0 -1 0
vn 0 -1 0
vn 0 -1 0
vn 0 -1 0
vn 0 -1 0
vn 0.886198 -0.463307 0
vn 0.886198 -0.463307 5.20535e-18
vn 0.886198 -0.463307 5.20535e-18
vn 0.886198 -0.463307 -5.20535e-18
vn 0.886198 -0.463307 -5.20535e-18
vn 0 -1 0
vn 0 -1 0
vn 0 -1 0
vn 0 -1 0
vn 0 -1 0
vn -0.904298 -0.426901 0
vn -0.904298 -0.426901 6.97682e-19
vn -0.904298 -0.426901 6.97682e-19
vn -0.904298 -0.426901 -6.97682e-19
vn -0.904298 -0.426901 -6.97682e-19
vn 0 -1 0
vn 0 -1 0
vn 0 -1 0
vn 0 -1 0
vn 0 -1 0
vn -0.768703 -0.639606 0
vn -0.768703 -0.639606 2.63754e-18
vn -0.768703 -0.639606 2.63754e-18
vn -0.768703 -0.639606 -2.63754e-18
vn -0.768703 -0.639606 -2.63754e-18
vn -0.00129635 -0.999999 0
vn -0.00129635 -0.999999 0
vn -0.00129635 -0.999999 0
vn -0.00129635 -0.999999 0
vn -0.00129635 -0.999999 0
vn 0.830688 -0.556738 0
vn 0.830688 -0.556738 -4.55087e-19
vn 0.830688 -0.556738 -4.55087e-19
vn 0.830688 -0.556738 4.55087e-19
vn 0.830688 -0.556738 4.55087e-19
vn 0 -1 0
vn 0 -1 0
vn 0 -1 0
vn 0 -1 0
vn 0 -1 0
vn -0.887086 -0.461604 0
vn -0.887086 -0.461604 -4.02665e-19
vn -0.887086 -0.461604 -4.02665e-19
vn -0.887086 -0.461604 4.02665e-19
vn -0.887086 -0.461604 4.02665e-19
vn 0 -1 0
vn 0 -1 0
vn 0 -1 0
vn 0 -1 0
vn 0 -1 0
vn 0.81104 -0.58499 0
vn 0.81104 -0.58499 -4.70364e-19
vn 0.81104 -0.58499 -4.70364e-19
vn 0.81104 -0.58499 4.70364e-19
vn 0.81104 -0.58499 4.70364e-19
vn 0 -1 0
vn 0 -1 0
vn 0 -1 0
vn 0 -1 0
vn 0 -1 0
vn -0.853391 -0.521271 0
vn -0.853391 -0.521271 4.21741e-19
vn -0.853391 -0.521271 4.21741e-19
vn -0.853391 -0.521271 -4.21741e-19
vn -0.853391 -0.521271 -4.21741e-19
vn 0 -1 0
vn 0 -1 0
vn 0 -1 0
vn 0 -1 0
vn 0 -1 0
vn 0.730667 -0.682734 0
vn 0.730667 -0.682734 -1.80435e-17
vn 0.730667 -0.682734 -1.80435e-17
vn 0.730667 -0.682734 1.80435e-17
vn 0.730667 -0.682734 1.80435e-17
vn 0 -1 0
vn 0 -1 0
vn 0 -1 0
vn 0 -1 0
vn 0 -1 0
vn 0.799034 -0.601285 0
vn 0.799034 -0.601285 -2.06116e-17
vn 0.799034 -0.601285 -2.06116e-17
vn 0.799034 -0.601285 2.06116e-17
vn 0.799034 -0.601285 2.06116e-17
vn 0 -1 0
vn 0 -1 0
vn 0 -1 0
vn 0 -1 0
vn 0 -1 0
vn -0.775207 -0.631708 0
vn -0.775207 -0.631708 -5.35612e-19
vn -0.775207 -0.631708 -5.35612e-19
vn -0.775207 -0.631708 5.35612e-19
vn -0.775207 -0.631708 5.35612e-19
vn 0 -1 0
vn 0 -1 0
vn 0 -1 0
vn 0 -1 0
vn 0 -1 0
vn -0.755746 -0.654865 0
vn -0.755746 -0.654865 0
vn -0.755746 -0.654865 0
vn -0.755746 -0.654865 0
vn -0.755746 -0.654865 0
vn -0.00124135 -0.999999 0
vn -0.00124135 -0.999999 0
vn -0.00124135 -0.999999 0
vn -0.00124135 -0.999999 0
vn -0.00124135 -0.999999 0
vn 0.73248 -0.680789 0
vn 0.73248 -0.680789 3.755e-17
vn 0.73248 -0.680789 3.755e-17
vn 0.73248 -0.680789 -3.755e-17
vn 0.73248 -0.680789 -3.755e-17
vn 0 -1 0
vn 0 -1 0
vn 0 -1 0
vn 0 -1 0
vn 0 -1 0
vn -0.758442 -0.651741 0
vn -0.758442 -0.651741 -3.76888e-17
vn -0.758442 -0.651741 -3.76888e-17
vn -0.758442 -0.651741 3.76888e-17
vn -0.758442 -0.651741 3.76888e-17
vn -0.00139531 -0.999999 0
vn -0.00139531 -0.999999 1.54481e-18
vn -0.00139531 -0.999999 1.54481e-18
vn -0.00139531 -0.999999 -1.54481e-18
vn -0.00139531 -0.999999 -1.54481e-18
vn 0.763755 -0.645506 0
vn 0.763755 -0.645506 -3.89924e-17
vn 0.763755 -0.645506 -3.89924e-17
vn 0.763755 -0.645506 3.89924e-17
vn 0.763755 -0.645506 3.89924e-17
vn 0 -1 0
vn 0 -1 0
vn 0 -1 0
vn 0 -1 0
vn 0 -1 0
vn -0.830663 -0.556776 0
vn -0.830663 -0.556776 -4.23011e-17
vn -0.830663 -0.556776 -4.23011e-17
vn -0.830663 -0.556776 4.23011e-17
vn -0.830663 -0.556776 4.23011e-17
vn 0 -1 0
vn 0 -1 0
vn 0 -1 0
vn 0 -1 0
vn 0 -1 0
vn 0.747406 -0.664367 0
vn 0.747406 -0.664367 0
vn 0.747406 -0.664367 0
vn 0.747406 -0.664367 0
vn 0.747406 -0.664367 0
vn 0 -1 0
vn 0 -1 0
vn 0 -1 0
vn 0 -1 0
vn 0 -1 0
vn 0.861863 -0.507142 0
vn 0.861863 -0.507142 -3.92464e-19
vn 0.817757 -0.575563 -1.9642e-17
vn 0.817757 -0.575563 1.9642e-17
vn 0.861863 -0.507142 3.92464e-19
vn 0.768233 -0.64017 0
vn 0.50507 -0.863079 -1.57264e-17
vn 0.50507 -0.863079 1.57264e-17
vn 0.181831 -0.98333 0
vn 0.0528606 -0.998602 6.58829e-18
vn 0.0528606 -0.998602 -6.58829e-18
vn -0.0770018 -0.997031 0
vn -0.283141 -0.959078 1.98688e-18
vn -0.283141 -0.959078 -1.98688e-18
vn -0.476841 -0.87899 0
vn -0.633281 -0.773922 -1.94404e-17
vn -0.633281 -0.773922 1.94404e-17
vn -0.767231 -0.64137 0
vn -0.623724 -0.781645 -1.94876e-17
vn -0.623724 -0.781645 1.94876e-17
vn -0.455097 -0.890442 0
vn -0.267861 -0.963458 1.79738e-18
vn -0.267861 -0.963458 -1.79738e-18
vn -0.069805 -0.997561 0
vn 0.000724743 -1 -1.83857e-18
vn 0.000724743 -1 1.83857e-18
vn 0.0712508 -0.997458 0
vn 0.282115 -0.959381 -3.67954e-18
vn 0.282115 -0.959381 3.67954e-18
vn 0.480027 -0.877254 0
vn 0.631902 -0.775049 -1.93079e-17
vn 0.631902 -0.775049 1.93079e-17
vn 0.7626 -0.64687 0
vn 0.737437 -0.675416 -3.6955e-17
vn 0.737437 -0.675416 3.6955e-17
vn 0.711206 -0.702984 0
vn 0.457139 -0.889395 -1.55148e-17
vn 0.457139 -0.889395 1.55148e-17
vn 0.157679 -0.98749 0
vn 0.0435459 -0.999051 4.01192e-18
vn 0.0435459 -0.999051 -4.01192e-18
vn -0.07116 -0.997465 0
vn -0.257101 -0.966385 -1.0343e-17
vn -0.257101 -0.966385 1.0343e-17
vn -0.433905 -0.900959 0
vn -0.588246 -0.808682 2.56888e-17
vn -0.588246 -0.808682 -2.56888e-17
vn -0.723566 -0.690256 0
vn -0.471872 -0.881667 3.81247e-17
vn -0.471872 -0.881667 -3.81247e-17
vn -0.172998 -0.984922 0
vn -0.172998 -0.984922 0
vn -0.172998 -0.984922 0
vn 0.750416 0.660966 0
vn 0.750416 0.660966 -5.03641e-19
vn 0.750416 0.660966 5.03641e-19


# Faces: 
usemtl material0
f 274/93/1 275/94/1 260/79/1
f 279/98/1 256/75/1 278/97/1
f 251/70/1 283/102/1 284/103/1
f 281/100/1 252/71/1 253/72/1
f 251/70/1 252/71/1 283/102/1
f 244/63/1 291/110/1 243/62/1
f 283/102/1 252/71/1 282/101/1
f 281/100/1 282/101/1 252/71/1
f 260/79/1 275/94/1 259/78/1
f 258/77/1 276/95/1 277/96/1
f 276/95/1 258/77/1 259/78/1
f 258/77/1 277/96/1 257/76/1
f 259/78/1 275/94/1 276/95/1
f 279/98/1 255/74/1 256/75/1
f 278/97/1 256/75/1 277/96/1
f 280/99/1 254/73/1 255/74/1
f 280/99/1 255/74/1 279/98/1
f 281/100/1 254/73/1 280/99/1
f 256/75/1 257/76/1 277/96/1
f 290/109/1 244/63/1 289/108/1
f 244/63/1 290/109/1 291/110/1
f 274/93/1 260/79/1 273/92/1
f 240/59/1 295/114/1 239/58/1
f 295/114/1 240/59/1 294/113/1
f 296/115/1 239/58/1 295/114/1
f 293/112/1 294/113/1 240/59/1
f 298/117/1 299/118/1 236/55/1
f 299/118/1 300/119/1 235/54/1
f 299/118/1 235/54/1 236/55/1
f 228/47/1 306/125/1 307/126/1
f 298/117/1 236/55/1 297/116/1
f 292/111/1 293/112/1 241/60/1
f 292/111/1 241/60/1 242/61/1
f 293/112/1 240/59/1 241/60/1
f 296/115/1 238/57/1 239/58/1
f 242/61/1 243/62/1 292/111/1
f 228/47/1 307/126/1 227/46/1
f 228/47/1 305/124/1 306/125/1
f 227/46/1 307/126/1 308/127/1
f 227/46/1 308/127/1 226/45/1
f 237/56/1 296/115/1 297/116/1
f 237/56/1 297/116/1 236/55/1
f 226/45/1 308/127/1 309/128/1
f 292/111/1 243/62/1 291/110/1
f 267/86/1 268/87/1 266/85/1
f 269/88/1 265/84/1 268/87/1
f 268/87/1 265/84/1 266/85/1
f 253/72/1 254/73/1 281/100/1
f 262/81/1 272/91/1 273/92/1
f 261/80/1 273/92/1 260/79/1
f 250/69/1 251/70/1 284/103/1
f 249/68/1 284/103/1 285/104/1
f 265/84/1 270/89/1 264/83/1
f 265/84/1 269/88/1 270/89/1
f 270/89/1 263/82/1 264/83/1
f 263/82/1 270/89/1 271/90/1
f 263/82/1 271/90/1 262/81/1
f 261/80/1 262/81/1 273/92/1
f 249/68/1 286/105/1 248/67/1
f 286/105/1 249/68/1 285/104/1
f 248/67/1 286/105/1 247/66/1
f 250/69/1 284/103/1 249/68/1
f 272/91/1 262/81/1 271/90/1
f 246/65/1 288/107/1 289/108/1
f 245/64/1 289/108/1 244/63/1
f 300/119/1 234/53/1 235/54/1
f 305/124/1 230/49/1 304/123/1
f 305/124/1 228/47/1 229/48/1
f 300/119/1 301/120/1 233/52/1
f 296/115/1 237/56/1 238/57/1
f 229/48/1 230/49/1 305/124/1
f 245/64/1 246/65/1 289/108/1
f 246/65/1 247/66/1 287/106/1
f 287/106/1 247/66/1 286/105/1
f 246/65/1 287/106/1 288/107/1
f 301/120/1 302/121/1 233/52/1
f 233/52/1 234/53/1 300/119/1
f 233/52/1 302/121/1 232/51/1
f 232/51/1 303/122/1 231/50/1
f 303/122/1 232/51/1 302/121/1
f 231/50/1 303/122/1 230/49/1
f 304/123/1 230/49/1 303/122/1
f 225/44/1 226/45/1 309/128/1
f 309/128/1 224/43/1 225/44/1
f 310/129/1 311/130/1 224/43/1
f 311/130/1 223/42/1 224/43/1
f 312/131/1 223/42/1 311/130/1
f 310/129/1 224/43/1 309/128/1
f 323/142/1 212/31/1 322/141/1
f 212/31/1 323/142/1 211/30/1
f 211/30/1 324/143/1 210/29/1
f 220/39/1 314/133/1 315/134/1
f 322/141/1 212/31/1 321/140/1
f 313/132/1 314/133/1 220/39/1
f 222/41/1 313/132/1 221/40/1
f 313/132/1 222/41/1 312/131/1
f 221/40/1 313/132/1 220/39/1
f 312/131/1 222/41/1 223/42/1
f 219/38/1 315/134/1 316/135/1
f 213/32/1 321/140/1 212/31/1
f 320/139/1 321/140/1 214/33/1
f 316/135/1 317/136/1 217/36/1
f 220/39/1 315/134/1 219/38/1
f 211/30/1 323/142/1 324/143/1
f 219/38/1 316/135/1 218/37/1
f 326/145/1 327/146/1 208/27/1
f 327/146/1 207/26/1 208/27/1
f 328/147/1 207/26/1 327/146/1
f 326/145/1 208/27/1 325/144/1
f 12/170/1 7/1/1 8/2/1
f 203/22/1 331/150/1 332/151/1
f 331/150/1 203/22/1 204/23/1
f 12/170/1 8/2/1 11/169/1
f 331/150/1 204/23/1 330/149/1
f 204/23/1 329/148/1 330/149/1
f 325/144/1 209/28/1 210/29/1
f 209/28/1 325/144/1 208/27/1
f 206/25/1 328/147/1 329/148/1
f 328/147/1 206/25/1 207/26/1
f 329/148/1 204/23/1 205/24/1
f 329/148/1 205/24/1 206/25/1
f 341/160/1 193/12/1 340/159/1
f 342/161/1 193/12/1 341/160/1
f 210/29/1 324/143/1 325/144/1
f 203/22/1 332/151/1 202/21/1
f 316/135/1 217/36/1 218/37/1
f 321/140/1 213/32/1 214/33/1
f 320/139/1 214/33/1 319/138/1
f 201/20/1 202/21/1 332/151/1
f 201/20/1 333/152/1 334/153/1
f 196/15/1 338/157/1 195/14/1
f 200/19/1 201/20/1 334/153/1
f 333/152/1 201/20/1 332/151/1
f 338/157/1 196/15/1 337/156/1
f 317/136/1 318/137/1 217/36/1
f 318/137/1 215/34/1 216/35/1
f 215/34/1 318/137/1 319/138/1
f 319/138/1 214/33/1 215/34/1
f 318/137/1 216/35/1 217/36/1
f 335/154/1 200/19/1 334/153/1
f 336/155/1 337/156/1 198/17/1
f 335/154/1 336/155/1 199/18/1
f 336/155/1 198/17/1 199/18/1
f 198/17/1 337/156/1 197/16/1
f 337/156/1 196/15/1 197/16/1
f 335/154/1 199/18/1 200/19/1
f 192/11/1 342/161/1 343/162/1
f 194/13/1 195/14/1 339/158/1
f 343/162/1 191/10/1 192/11/1
f 193/12/1 342/161/1 192/11/1
f 339/158/1 340/159/1 194/13/1
f 10/172/1 11/169/1 9/3/1
f 9/3/1 11/169/1 8/2/1
f 349/168/1 350/171/1 185/4/1
f 345/164/1 191/10/1 344/163/1
f 344/163/1 191/10/1 343/162/1
f 340/159/1 193/12/1 194/13/1
f 191/10/1 345/164/1 190/9/1
f 345/164/1 189/8/1 190/9/1
f 188/7/1 189/8/1 346/165/1
f 189/8/1 345/164/1 346/165/1
f 186/5/1 347/166/1 348/167/1
f 186/5/1 348/167/1 185/4/1
f 187/6/1 188/7/1 347/166/1
f 187/6/1 347/166/1 186/5/1
f 347/166/1 188/7/1 346/165/1
f 185/4/1 348/167/1 349/168/1
f 339/158/1 195/14/1 338/157/1
f 109/266/2 108/265/2 94/251/2
f 90/247/2 113/270/2 112/269/2
f 117/274/2 85/242/2 118/275/2
f 86/243/2 115/272/2 87/244/2
f 86/243/2 85/242/2 117/274/2
f 125/282/2 78/235/2 77/234/2
f 86/243/2 117/274/2 116/273/2
f 116/273/2 115/272/2 86/243/2
f 109/266/2 94/251/2 93/250/2
f 110/267/2 92/249/2 111/268/2
f 92/249/2 110/267/2 93/250/2
f 111/268/2 92/249/2 91/248/2
f 109/266/2 93/250/2 110/267/2
f 89/246/2 113/270/2 90/247/2
f 90/247/2 112/269/2 111/268/2
f 88/245/2 114/271/2 89/246/2
f 89/246/2 114/271/2 113/270/2
f 88/245/2 115/272/2 114/271/2
f 91/248/2 90/247/2 111/268/2
f 78/235/2 124/281/2 123/280/2
f 124/281/2 78/235/2 125/282/2
f 94/251/2 108/265/2 107/264/2
f 129/286/2 74/231/2 73/230/2
f 74/231/2 129/286/2 128/285/2
f 73/230/2 130/287/2 129/286/2
f 128/285/2 127/284/2 74/231/2
f 133/290/2 132/289/2 70/227/2
f 134/291/2 133/290/2 69/226/2
f 69/226/2 133/290/2 70/227/2
f 140/297/2 62/219/2 141/298/2
f 70/227/2 132/289/2 131/288/2
f 127/284/2 126/283/2 75/232/2
f 75/232/2 126/283/2 76/233/2
f 74/231/2 127/284/2 75/232/2
f 72/229/2 130/287/2 73/230/2
f 77/234/2 76/233/2 126/283/2
f 141/298/2 62/219/2 61/218/2
f 139/296/2 62/219/2 140/297/2
f 141/298/2 61/218/2 142/299/2
f 142/299/2 61/218/2 60/217/2
f 130/287/2 71/228/2 131/288/2
f 131/288/2 71/228/2 70/227/2
f 142/299/2 60/217/2 143/300/2
f 77/234/2 126/283/2 125/282/2
f 102/259/2 101/258/2 100/257/2
f 99/256/2 103/260/2 102/259/2
f 99/256/2 102/259/2 100/257/2
f 88/245/2 87/244/2 115/272/2
f 106/263/2 96/253/2 107/264/2
f 107/264/2 95/252/2 94/251/2
f 85/242/2 84/241/2 118/275/2
f 118/275/2 83/240/2 119/276/2
f 104/261/2 99/256/2 98/255/2
f 103/260/2 99/256/2 104/261/2
f 97/254/2 104/261/2 98/255/2
f 104/261/2 97/254/2 105/262/2
f 105/262/2 97/254/2 96/253/2
f 96/253/2 95/252/2 107/264/2
f 120/277/2 83/240/2 82/239/2
f 83/240/2 120/277/2 119/276/2
f 120/277/2 82/239/2 81/238/2
f 118/275/2 84/241/2 83/240/2
f 96/253/2 106/263/2 105/262/2
f 122/279/2 80/237/2 123/280/2
f 123/280/2 79/236/2 78/235/2
f 68/225/2 134/291/2 69/226/2
f 64/221/2 139/296/2 138/295/2
f 62/219/2 139/296/2 63/220/2
f 135/292/2 134/291/2 67/224/2
f 71/228/2 130/287/2 72/229/2
f 64/221/2 63/220/2 139/296/2
f 80/237/2 79/236/2 123/280/2
f 81/238/2 80/237/2 121/278/2
f 81/238/2 121/278/2 120/277/2
f 121/278/2 80/237/2 122/279/2
f 136/293/2 135/292/2 67/224/2
f 68/225/2 67/224/2 134/291/2
f 136/293/2 67/224/2 66/223/2
f 137/294/2 66/223/2 65/222/2
f 66/223/2 137/294/2 136/293/2
f 137/294/2 65/222/2 64/221/2
f 64/221/2 138/295/2 137/294/2
f 60/217/2 59/216/2 143/300/2
f 58/215/2 143/300/2 59/216/2
f 145/302/2 144/301/2 58/215/2
f 57/214/2 145/302/2 58/215/2
f 57/214/2 146/303/2 145/302/2
f 58/215/2 144/301/2 143/300/2
f 46/203/2 157/314/2 156/313/2
f 157/314/2 46/203/2 45/202/2
f 158/315/2 45/202/2 44/201/2
f 148/305/2 54/211/2 149/306/2
f 46/203/2 156/313/2 155/312/2
f 148/305/2 147/304/2 54/211/2
f 147/304/2 56/213/2 55/212/2
f 56/213/2 147/304/2 146/303/2
f 147/304/2 55/212/2 54/211/2
f 56/213/2 146/303/2 57/214/2
f 149/306/2 53/210/2 150/307/2
f 155/312/2 47/204/2 46/203/2
f 155/312/2 154/311/2 48/205/2
f 151/308/2 150/307/2 51/208/2
f 149/306/2 54/211/2 53/210/2
f 157/314/2 45/202/2 158/315/2
f 150/307/2 53/210/2 52/209/2
f 161/318/2 160/317/2 42/199/2
f 41/198/2 161/318/2 42/199/2
f 41/198/2 162/319/2 161/318/2
f 42/199/2 160/317/2 159/316/2
f 1/173/2 6/342/2 2/174/2
f 165/322/2 37/194/2 166/323/2
f 37/194/2 165/322/2 38/195/2
f 2/174/2 6/342/2 5/341/2
f 38/195/2 165/322/2 164/321/2
f 163/320/2 38/195/2 164/321/2
f 43/200/2 159/316/2 44/201/2
f 159/316/2 43/200/2 42/199/2
f 162/319/2 40/197/2 163/320/2
f 40/197/2 162/319/2 41/198/2
f 38/195/2 163/320/2 39/196/2
f 39/196/2 163/320/2 40/197/2
f 27/184/2 175/332/2 174/331/2
f 27/184/2 176/333/2 175/332/2
f 158/315/2 44/201/2 159/316/2
f 166/323/2 37/194/2 36/193/2
f 51/208/2 150/307/2 52/209/2
f 47/204/2 155/312/2 48/205/2
f 48/205/2 154/311/2 153/310/2
f 36/193/2 35/192/2 166/323/2
f 167/324/2 35/192/2 168/325/2
f 172/329/2 30/187/2 29/186/2
f 35/192/2 34/191/2 168/325/2
f 35/192/2 167/324/2 166/323/2
f 30/187/2 172/329/2 171/328/2
f 152/309/2 151/308/2 51/208/2
f 49/206/2 152/309/2 50/207/2
f 152/309/2 49/206/2 153/310/2
f 48/205/2 153/310/2 49/206/2
f 50/207/2 152/309/2 51/208/2
f 34/191/2 169/326/2 168/325/2
f 171/328/2 170/327/2 32/189/2
f 170/327/2 169/326/2 33/190/2
f 32/189/2 170/327/2 33/190/2
f 171/328/2 32/189/2 31/188/2
f 30/187/2 171/328/2 31/188/2
f 33/190/2 169/326/2 34/191/2
f 176/333/2 26/183/2 177/334/2
f 29/186/2 28/185/2 173/330/2
f 25/182/2 177/334/2 26/183/2
f 176/333/2 27/184/2 26/183/2
f 174/331/2 173/330/2 28/185/2
f 5/341/2 4/344/2 3/175/2
f 5/341/2 3/175/2 2/174/2
f 184/343/2 183/340/2 19/176/2
f 25/182/2 179/336/2 178/335/2
f 25/182/2 178/335/2 177/334/2
f 27/184/2 174/331/2 28/185/2
f 179/336/2 25/182/2 24/181/2
f 23/180/2 179/336/2 24/181/2
f 23/180/2 22/179/2 180/337/2
f 179/336/2 23/180/2 180/337/2
f 181/338/2 20/177/2 182/339/2
f 182/339/2 20/177/2 19/176/2
f 22/179/2 21/178/2 181/338/2
f 181/338/2 21/178/2 20/177/2
f 22/179/2 181/338/2 180/337/2
f 182/339/2 19/176/2 183/340/2
f 29/186/2 173/330/2 172/329/2
f 13/361/3 1/345/4 2/346/5
f 13/361/3 2/346/5 8/354/6
f 13/361/3 8/354/6 7/353/7
f 13/361/3 7/353/7 1/345/4
f 14/362/8 2/346/5 3/347/9
f 14/362/8 3/347/9 9/355/10
f 14/362/8 9/355/10 8/354/6
f 14/362/8 8/354/6 2/346/5
f 15/363/11 3/347/9 4/348/12
f 15/363/11 4/348/12 10/356/13
f 15/363/11 10/356/13 9/355/10
f 15/363/11 9/355/10 3/347/9
f 16/364/14 4/349/15 5/350/16
f 16/364/14 5/350/16 11/358/17
f 16/364/14 11/358/17 10/357/18
f 16/364/14 10/357/18 4/349/15
f 17/365/19 5/350/16 6/351/20
f 17/365/19 6/351/20 12/359/21
f 17/365/19 12/359/21 11/358/17
f 17/365/19 11/358/17 5/350/16
f 18/366/22 6/351/20 1/352/23
f 18/366/22 1/352/23 7/360/24
f 18/366/22 7/360/24 12/359/21
f 18/366/22 12/359/21 6/351/20
f 351/965/25 19/367/26 20/368/27
f 351/965/25 20/368/27 186/667/28
f 351/965/25 186/667/28 185/666/29
f 351/965/25 185/666/29 19/367/26
f 352/966/30 20/368/27 21/369/31
f 352/966/30 21/369/31 187/668/32
f 352/966/30 187/668/32 186/667/28
f 352/966/30 186/667/28 20/368/27
f 353/967/33 21/369/31 22/370/34
f 353/967/33 22/370/34 188/669/35
f 353/967/33 188/669/35 187/668/32
f 353/967/33 187/668/32 21/369/31
f 354/968/36 22/370/34 23/371/37
f 354/968/36 23/371/37 189/670/38
f 354/968/36 189/670/38 188/669/35
f 354/968/36 188/669/35 22/370/34
f 355/969/39 23/371/37 24/372/40
f 355/969/39 24/372/40 190/671/41
f 355/969/39 190/671/41 189/670/38
f 355/969/39 189/670/38 23/371/37
f 356/970/42 24/372/40 25/373/43
f 356/970/42 25/373/43 191/672/44
f 356/970/42 191/672/44 190/671/41
f 356/970/42 190/671/41 24/372/40
f 357/971/45 25/373/43 26/374/46
f 357/971/45 26/374/46 192/673/47
f 357/971/45 192/673/47 191/672/44
f 357/971/45 191/672/44 25/373/43
f 358/972/48 26/374/46 27/375/49
f 358/972/48 27/375/49 193/674/50
f 358/972/48 193/674/50 192/673/47
f 358/972/48 192/673/47 26/374/46
f 359/973/51 27/375/49 28/376/52
f 359/973/51 28/376/52 194/675/53
f 359/973/51 194/675/53 193/674/50
f 359/973/51 193/674/50 27/375/49
f 360/974/54 28/376/52 29/377/55
f 360/974/54 29/377/55 195/676/56
f 360/974/54 195/676/56 194/675/53
f 360/974/54 194/675/53 28/376/52
f 361/975/57 29/377/55 30/378/58
f 361/975/57 30/378/58 196/677/59
f 361/975/57 196/677/59 195/676/56
f 361/975/57 195/676/56 29/377/55
f 362/976/60 30/378/58 31/379/61
f 362/976/60 31/379/61 197/678/62
f 362/976/60 197/678/62 196/677/59
f 362/976/60 196/677/59 30/378/58
f 363/977/63 31/379/61 32/380/64
f 363/977/63 32/380/64 198/679/65
f 363/977/63 198/679/65 197/678/62
f 363/977/63 197/678/62 31/379/61
f 364/978/66 32/380/64 33/381/67
f 364/978/66 33/381/67 199/680/68
f 364/978/66 199/680/68 198/679/65
f 364/978/66 198/679/65 32/380/64
f 365/979/69 33/381/67 34/382/70
f 365/979/69 34/382/70 200/681/71
f 365/979/69 200/681/71 199/680/68
f 365/979/69 199/680/68 33/381/67
f 366/980/72 34/382/70 35/383/73
f 366/980/72 35/383/73 201/682/74
f 366/980/72 201/682/74 200/681/71
f 366/980/72 200/681/71 34/382/70
f 367/981/75 35/384/76 36/385/77
f 367/981/75 36/385/77 202/684/78
f 367/981/75 202/684/78 201/683/79
f 367/981/75 201/683/79 35/384/76
f 368/982/80 36/385/77 37/386/81
f 368/982/80 37/386/81 203/685/82
f 368/982/80 203/685/82 202/684/78
f 368/982/80 202/684/78 36/385/77
f 369/983/83 37/387/84 38/388/85
f 369/983/83 38/388/85 204/687/86
f 369/983/83 204/687/86 203/686/87
f 369/983/83 203/686/87 37/387/84
f 370/984/88 38/389/89 39/390/90
f 370/984/88 39/390/90 205/689/91
f 370/984/88 205/689/91 204/688/92
f 370/984/88 204/688/92 38/389/89
f 371/985/93 39/391/94 40/392/95
f 371/985/93 40/392/95 206/691/96
f 371/985/93 206/691/96 205/690/97
f 371/985/93 205/690/97 39/391/94
f 372/986/98 40/393/99 41/394/100
f 372/986/98 41/394/100 207/693/101
f 372/986/98 207/693/101 206/692/102
f 372/986/98 206/692/102 40/393/99
f 373/987/103 41/395/104 42/396/105
f 373/987/103 42/396/105 208/695/106
f 373/987/103 208/695/106 207/694/107
f 373/987/103 207/694/107 41/395/104
f 374/988/108 42/397/109 43/398/110
f 374/988/108 43/398/110 209/697/111
f 374/988/108 209/697/111 208/696/112
f 374/988/108 208/696/112 42/397/109
f 375/989/113 43/399/114 44/400/115
f 375/989/113 44/400/115 210/699/116
f 375/989/113 210/699/116 209/698/117
f 375/989/113 209/698/117 43/399/114
f 376/990/118 44/401/119 45/402/120
f 376/990/118 45/402/120 211/701/121
f 376/990/118 211/701/121 210/700/122
f 376/990/118 210/700/122 44/401/119
f 377/991/123 45/403/124 46/404/125
f 377/991/123 46/404/125 212/703/126
f 377/991/123 212/703/126 211/702/127
f 377/991/123 211/702/127 45/403/124
f 378/992/128 46/405/129 47/406/130
f 378/992/128 47/406/130 213/705/131
f 378/992/128 213/705/131 212/704/132
f 378/992/128 212/704/132 46/405/129
f 379/993/133 47/407/134 48/408/135
f 379/993/133 48/408/135 214/707/136
f 379/993/133 214/707/136 213/706/137
f 379/993/133 213/706/137 47/407/134
f 380/994/138 48/409/139 49/410/140
f 380/994/138 49/410/140 215/709/141
f 380/994/138 215/709/141 214/708/142
f 380/994/138 214/708/142 48/409/139
f 381/995/143 49/411/144 50/412/145
f 381/995/143 50/412/145 216/711/146
f 381/995/143 216/711/146 215/710/147
f 381/995/143 215/710/147 49/411/144
f 382/996/148 50/413/149 51/414/150
f 382/996/148 51/414/150 217/713/151
f 382/996/148 217/713/151 216/712/152
f 382/996/148 216/712/152 50/413/149
f 383/997/153 51/415/154 52/416/155
f 383/997/153 52/416/155 218/715/156
f 383/997/153 218/715/156 217/714/157
f 383/997/153 217/714/157 51/415/154
f 384/998/158 52/417/159 53/418/160
f 384/998/158 53/418/160 219/717/161
f 384/998/158 219/717/161 218/716/162
f 384/998/158 218/716/162 52/417/159
f 385/999/163 53/419/164 54/420/165
f 385/999/163 54/420/165 220/719/166
f 385/999/163 220/719/166 219/718/167
f 385/999/163 219/718/167 53/419/164
f 386/1000/168 54/421/169 55/422/170
f 386/1000/168 55/422/170 221/721/171
f 386/1000/168 221/721/171 220/720/172
f 386/1000/168 220/720/172 54/421/169
f 387/1001/173 55/423/174 56/424/175
f 387/1001/173 56/424/175 222/723/176
f 387/1001/173 222/723/176 221/722/177
f 387/1001/173 221/722/177 55/423/174
f 388/1002/178 56/425/179 57/426/180
f 388/1002/178 57/426/180 223/725/181
f 388/1002/178 223/725/181 222/724/182
f 388/1002/178 222/724/182 56/425/179
f 389/1003/183 57/427/184 58/428/185
f 389/1003/183 58/428/185 224/727/186
f 389/1003/183 224/727/186 223/726/187
f 389/1003/183 223/726/187 57/427/184
f 390/1004/188 58/429/189 59/430/190
f 390/1004/188 59/430/190 225/729/191
f 390/1004/188 225/729/191 224/728/192
f 390/1004/188 224/728/192 58/429/189
f 391/1005/193 59/431/194 60/432/195
f 391/1005/193 60/432/195 226/731/196
f 391/1005/193 226/731/196 225/730/197
f 391/1005/193 225/730/197 59/431/194
f 392/1006/198 60/433/199 61/434/200
f 392/1006/198 61/434/200 227/733/201
f 392/1006/198 227/733/201 226/732/202
f 392/1006/198 226/732/202 60/433/199
f 393/1007/203 61/435/204 62/436/205
f 393/1007/203 62/436/205 228/735/206
f 393/1007/203 228/735/206 227/734/207
f 393/1007/203 227/734/207 61/435/204
f 394/1008/208 62/437/209 63/438/210
f 394/1008/208 63/438/210 229/737/211
f 394/1008/208 229/737/211 228/736/212
f 394/1008/208 228/736/212 62/437/209
f 395/1009/213 63/439/214 64/440/215
f 395/1009/213 64/440/215 230/739/216
f 395/1009/213 230/739/216 229/738/217
f 395/1009/213 229/738/217 63/439/214
f 396/1010/218 64/441/219 65/442/220
f 396/1010/218 65/442/220 231/741/221
f 396/1010/218 231/741/221 230/740/222
f 396/1010/218 230/740/222 64/441/219
f 397/1011/223 65/443/224 66/444/225
f 397/1011/223 66/444/225 232/743/226
f 397/1011/223 232/743/226 231/742/227
f 397/1011/223 231/742/227 65/443/224
f 398/1012/228 66/445/229 67/446/230
f 398/1012/228 67/446/230 233/745/231
f 398/1012/228 233/745/231 232/744/232
f 398/1012/228 232/744/232 66/445/229
f 399/1013/233 67/447/234 68/448/235
f 399/1013/233 68/448/235 234/747/236
f 399/1013/233 234/747/236 233/746/237
f 399/1013/233 233/746/237 67/447/234
f 400/1014/238 68/449/239 69/450/240
f 400/1014/238 69/450/240 235/749/241
f 400/1014/238 235/749/241 234/748/242
f 400/1014/238 234/748/242 68/449/239
f 401/1015/243 69/451/244 70/452/245
f 401/1015/243 70/452/245 236/751/246
f 401/1015/243 236/751/246 235/750/247
f 401/1015/243 235/750/247 69/451/244
f 402/1016/248 70/453/249 71/454/250
f 402/1016/248 71/454/250 237/753/251
f 402/1016/248 237/753/251 236/752/252
f 402/1016/248 236/752/252 70/453/249
f 403/1017/253 71/455/254 72/456/255
f 403/1017/253 72/456/255 238/755/256
f 403/1017/253 238/755/256 237/754/257
f 403/1017/253 237/754/257 71/455/254
f 404/1018/258 72/457/259 73/458/260
f 404/1018/258 73/458/260 239/757/261
f 404/1018/258 239/757/261 238/756/262
f 404/1018/258 238/756/262 72/457/259
f 405/1019/263 73/459/264 74/460/265
f 405/1019/263 74/460/265 240/759/266
f 405/1019/263 240/759/266 239/758/267
f 405/1019/263 239/758/267 73/459/264
f 406/1020/268 74/461/269 75/462/270
f 406/1020/268 75/462/270 241/761/271
f 406/1020/268 241/761/271 240/760/272
f 406/1020/268 240/760/272 74/461/269
f 407/1021/273 75/463/274 76/464/275
f 407/1021/273 76/464/275 242/763/276
f 407/1021/273 242/763/276 241/762/277
f 407/1021/273 241/762/277 75/463/274
f 408/1022/278 76/465/279 77/466/280
f 408/1022/278 77/466/280 243/765/281
f 408/1022/278 243/765/281 242/764/282
f 408/1022/278 242/764/282 76/465/279
f 409/1023/283 77/467/284 78/468/285
f 409/1023/283 78/468/285 244/767/286
f 409/1023/283 244/767/286 243/766/287
f 409/1023/283 243/766/287 77/467/284
f 410/1024/288 78/469/289 79/470/290
f 410/1024/288 79/470/290 245/769/291
f 410/1024/288 245/769/291 244/768/292
f 410/1024/288 244/768/292 78/469/289
f 411/1025/293 79/471/294 80/472/295
f 411/1025/293 80/472/295 246/771/296
f 411/1025/293 246/771/296 245/770/297
f 411/1025/293 245/770/297 79/471/294
f 412/1026/298 80/472/295 81/473/299
f 412/1026/298 81/473/299 247/772/300
f 412/1026/298 247/772/300 246/771/296
f 412/1026/298 246/771/296 80/472/295
f 413/1027/301 81/474/302 82/475/303
f 413/1027/301 82/475/303 248/774/304
f 413/1027/301 248/774/304 247/773/305
f 413/1027/301 247/773/305 81/474/302
f 414/1028/306 82/476/307 83/477/308
f 414/1028/306 83/477/308 249/776/309
f 414/1028/306 249/776/309 248/775/310
f 414/1028/306 248/775/310 82/476/307
f 415/1029/311 83/478/312 84/479/313
f 415/1029/311 84/479/313 250/778/314
f 415/1029/311 250/778/314 249/777/315
f 415/1029/311 249/777/315 83/478/312
f 416/1030/316 84/480/317 85/481/318
f 416/1030/316 85/481/318 251/780/319
f 416/1030/316 251/780/319 250/779/320
f 416/1030/316 250/779/320 84/480/317
f 417/1031/321 85/482/322 86/483/323
f 417/1031/321 86/483/323 252/782/324
f 417/1031/321 252/782/324 251/781/325
f 417/1031/321 251/781/325 85/482/322
f 418/1032/326 86/484/327 87/485/328
f 418/1032/326 87/485/328 253/784/329
f 418/1032/326 253/784/329 252/783/330
f 418/1032/326 252/783/330 86/484/327
f 419/1033/331 87/486/332 88/487/333
f 419/1033/331 88/487/333 254/786/334
f 419/1033/331 254/786/334 253/785/335
f 419/1033/331 253/785/335 87/486/332
f 420/1034/336 88/488/337 89/489/338
f 420/1034/336 89/489/338 255/788/339
f 420/1034/336 255/788/339 254/787/340
f 420/1034/336 254/787/340 88/488/337
f 421/1035/341 89/490/342 90/491/343
f 421/1035/341 90/491/343 256/790/344
f 421/1035/341 256/790/344 255/789/345
f 421/1035/341 255/789/345 89/490/342
f 422/1036/346 90/492/347 91/493/348
f 422/1036/346 91/493/348 257/792/349
f 422/1036/346 257/792/349 256/791/350
f 422/1036/346 256/791/350 90/492/347
f 423/1037/351 91/494/352 92/495/353
f 423/1037/351 92/495/353 258/794/354
f 423/1037/351 258/794/354 257/793/355
f 423/1037/351 257/793/355 91/494/352
f 424/1038/356 92/496/357 93/497/358
f 424/1038/356 93/497/358 259/796/359
f 424/1038/356 259/796/359 258/795/360
f 424/1038/356 258/795/360 92/496/357
f 425/1039/361 93/498/362 94/499/363
f 425/1039/361 94/499/363 260/798/364
f 425/1039/361 260/798/364 259/797/365
f 425/1039/361 259/797/365 93/498/362
f 426/1040/366 94/500/367 95/501/368
f 426/1040/366 95/501/368 261/800/369
f 426/1040/366 261/800/369 260/799/370
f 426/1040/366 260/799/370 94/500/367
f 427/1041/371 95/502/372 96/503/373
f 427/1041/371 96/503/373 262/802/374
f 427/1041/371 262/802/374 261/801/375
f 427/1041/371 261/801/375 95/502/372
f 428/1042/376 96/504/377 97/505/378
f 428/1042/376 97/505/378 263/804/379
f 428/1042/376 263/804/379 262/803/380
f 428/1042/376 262/803/380 96/504/377
f 429/1043/381 97/506/382 98/507/383
f 429/1043/381 98/507/383 264/806/384
f 429/1043/381 264/806/384 263/805/385
f 429/1043/381 263/805/385 97/506/382
f 430/1044/386 98/508/387 99/509/388
f 430/1044/386 99/509/388 265/808/389
f 430/1044/386 265/808/389 264/807/390
f 430/1044/386 264/807/390 98/508/387
f 431/1045/391 99/510/392 100/511/393
f 431/1045/391 100/511/393 266/810/394
f 431/1045/391 266/810/394 265/809/395
f 431/1045/391 265/809/395 99/510/392
f 432/1046/396 100/512/397 101/513/398
f 432/1046/396 101/513/398 267/812/399
f 432/1046/396 267/812/399 266/811/400
f 432/1046/396 266/811/400 100/512/397
f 433/1047/401 101/514/402 102/515/403
f 433/1047/401 102/515/403 268/814/404
f 433/1047/401 268/814/404 267/813/405
f 433/1047/401 267/813/405 101/514/402
f 434/1048/406 102/516/407 103/517/408
f 434/1048/406 103/517/408 269/816/409
f 434/1048/406 269/816/409 268/815/410
f 434/1048/406 268/815/410 102/516/407
f 435/1049/411 103/518/412 104/519/413
f 435/1049/411 104/519/413 270/818/414
f 435/1049/411 270/818/414 269/817/415
f 435/1049/411 269/817/415 103/518/412
f 436/1050/416 104/520/417 105/521/418
f 436/1050/416 105/521/418 271/820/419
f 436/1050/416 271/820/419 270/819/420
f 436/1050/416 270/819/420 104/520/417
f 437/1051/421 105/522/422 106/523/423
f 437/1051/421 106/523/423 272/822/424
f 437/1051/421 272/822/424 271/821/425
f 437/1051/421 271/821/425 105/522/422
f 438/1052/426 106/524/427 107/525/428
f 438/1052/426 107/525/428 273/824/429
f 438/1052/426 273/824/429 272/823/430
f 438/1052/426 272/823/430 106/524/427
f 439/1053/431 107/526/432 108/527/433
f 439/1053/431 108/527/433 274/826/434
f 439/1053/431 274/826/434 273/825/435
f 439/1053/431 273/825/435 107/526/432
f 440/1054/436 108/528/437 109/529/438
f 440/1054/436 109/529/438 275/828/439
f 440/1054/436 275/828/439 274/827/440
f 440/1054/436 274/827/440 108/528/437
f 441/1055/441 109/530/442 110/531/443
f 441/1055/441 110/531/443 276/830/444
f 441/1055/441 276/830/444 275/829/445
f 441/1055/441 275/829/445 109/530/442
f 442/1056/446 110/532/447 111/533/448
f 442/1056/446 111/533/448 277/832/449
f 442/1056/446 277/832/449 276/831/450
f 442/1056/446 276/831/450 110/532/447
f 443/1057/451 111/534/452 112/535/453
f 443/1057/451 112/535/453 278/834/454
f 443/1057/451 278/834/454 277/833/455
f 443/1057/451 277/833/455 111/534/452
f 444/1058/456 112/536/457 113/537/458
f 444/1058/456 113/537/458 279/836/459
f 444/1058/456 279/836/459 278/835/460
f 444/1058/456 278/835/460 112/536/457
f 445/1059/461 113/538/462 114/539/463
f 445/1059/461 114/539/463 280/838/464
f 445/1059/461 280/838/464 279/837/465
f 445/1059/461 279/837/465 113/538/462
f 446/1060/466 114/540/467 115/541/468
f 446/1060/466 115/541/468 281/840/469
f 446/1060/466 281/840/469 280/839/470
f 446/1060/466 280/839/470 114/540/467
f 447/1061/471 115/542/472 116/543/473
f 447/1061/471 116/543/473 282/842/474
f 447/1061/471 282/842/474 281/841/475
f 447/1061/471 281/841/475 115/542/472
f 448/1062/476 116/544/477 117/545/478
f 448/1062/476 117/545/478 283/844/479
f 448/1062/476 283/844/479 282/843/480
f 448/1062/476 282/843/480 116/544/477
f 449/1063/481 117/546/482 118/547/483
f 449/1063/481 118/547/483 284/846/484
f 449/1063/481 284/846/484 283/845/485
f 449/1063/481 283/845/485 117/546/482
f 450/1064/486 118/548/487 119/549/488
f 450/1064/486 119/549/488 285/848/489
f 450/1064/486 285/848/489 284/847/490
f 450/1064/486 284/847/490 118/548/487
f 451/1065/491 119/550/492 120/551/493
f 451/1065/491 120/551/493 286/850/494
f 451/1065/491 286/850/494 285/849/495
f 451/1065/491 285/849/495 119/550/492
f 452/1066/496 120/552/497 121/553/498
f 452/1066/496 121/553/498 287/852/499
f 452/1066/496 287/852/499 286/851/500
f 452/1066/496 286/851/500 120/552/497
f 453/1067/501 121/554/502 122/555/503
f 453/1067/501 122/555/503 288/854/504
f 453/1067/501 288/854/504 287/853/505
f 453/1067/501 287/853/505 121/554/502
f 454/1068/506 122/556/507 123/557/508
f 454/1068/506 123/557/508 289/856/509
f 454/1068/506 289/856/509 288/855/510
f 454/1068/506 288/855/510 122/556/507
f 455/1069/511 123/558/512 124/559/513
f 455/1069/511 124/559/513 290/858/514
f 455/1069/511 290/858/514 289/857/515
f 455/1069/511 289/857/515 123/558/512
f 456/1070/516 124/560/517 125/561/518
f 456/1070/516 125/561/518 291/860/519
f 456/1070/516 291/860/519 290/859/520
f 456/1070/516 290/859/520 124/560/517
f 457/1071/521 125/562/522 126/563/523
f 457/1071/521 126/563/523 292/862/524
f 457/1071/521 292/862/524 291/861/525
f 457/1071/521 291/861/525 125/562/522
f 458/1072/526 126/564/527 127/565/528
f 458/1072/526 127/565/528 293/864/529
f 458/1072/526 293/864/529 292/863/530
f 458/1072/526 292/863/530 126/564/527
f 459/1073/531 127/566/532 128/567/533
f 459/1073/531 128/567/533 294/866/534
f 459/1073/531 294/866/534 293/865/535
f 459/1073/531 293/865/535 127/566/532
f 460/1074/536 128/568/537 129/569/538
f 460/1074/536 129/569/538 295/868/539
f 460/1074/536 295/868/539 294/867/540
f 460/1074/536 294/867/540 128/568/537
f 461/1075/541 129/570/542 130/571/543
f 461/1075/541 130/571/543 296/870/544
f 461/1075/541 296/870/544 295/869/545
f 461/1075/541 295/869/545 129/570/542
f 462/1076/546 130/572/547 131/573/548
f 462/1076/546 131/573/548 297/872/549
f 462/1076/546 297/872/549 296/871/550
f 462/1076/546 296/871/550 130/572/547
f 463/1077/551 131/574/552 132/575/553
f 463/1077/551 132/575/553 298/874/554
f 463/1077/551 298/874/554 297/873/555
f 463/1077/551 297/873/555 131/574/552
f 464/1078/556 132/576/557 133/577/558
f 464/1078/556 133/577/558 299/876/559
f 464/1078/556 299/876/559 298/875/560
f 464/1078/556 298/875/560 132/576/557
f 465/1079/561 133/578/562 134/579/563
f 465/1079/561 134/579/563 300/878/564
f 465/1079/561 300/878/564 299/877/565
f 465/1079/561 299/877/565 133/578/562
f 466/1080/566 134/580/567 135/581/568
f 466/1080/566 135/581/568 301/880/569
f 466/1080/566 301/880/569 300/879/570
f 466/1080/566 300/879/570 134/580/567
f 467/1081/571 135/582/572 136/583/573
f 467/1081/571 136/583/573 302/882/574
f 467/1081/571 302/882/574 301/881/575
f 467/1081/571 301/881/575 135/582/572
f 468/1082/576 136/584/577 137/585/578
f 468/1082/576 137/585/578 303/884/579
f 468/1082/576 303/884/579 302/883/580
f 468/1082/576 302/883/580 136/584/577
f 469/1083/581 137/586/582 138/587/583
f 469/1083/581 138/587/583 304/886/584
f 469/1083/581 304/886/584 303/885/585
f 469/1083/581 303/885/585 137/586/582
f 470/1084/586 138/588/587 139/589/588
f 470/1084/586 139/589/588 305/888/589
f 470/1084/586 305/888/589 304/887/590
f 470/1084/586 304/887/590 138/588/587
f 471/1085/591 139/590/592 140/591/593
f 471/1085/591 140/591/593 306/890/594
f 471/1085/591 306/890/594 305/889/595
f 471/1085/591 305/889/595 139/590/592
f 472/1086/596 140/592/597 141/593/598
f 472/1086/596 141/593/598 307/892/599
f 472/1086/596 307/892/599 306/891/600
f 472/1086/596 306/891/600 140/592/597
f 473/1087/601 141/594/602 142/595/603
f 473/1087/601 142/595/603 308/894/604
f 473/1087/601 308/894/604 307/893/605
f 473/1087/601 307/893/605 141/594/602
f 474/1088/606 142/596/607 143/597/608
f 474/1088/606 143/597/608 309/896/609
f 474/1088/606 309/896/609 308/895/610
f 474/1088/606 308/895/610 142/596/607
f 475/1089/611 143/598/612 144/599/613
f 475/1089/611 144/599/613 310/898/614
f 475/1089/611 310/898/614 309/897/615
f 475/1089/611 309/897/615 143/598/612
f 476/1090/616 144/600/617 145/601/618
f 476/1090/616 145/601/618 311/900/619
f 476/1090/616 311/900/619 310/899/620
f 476/1090/616 310/899/620 144/600/617
f 477/1091/621 145/602/622 146/603/623
f 477/1091/621 146/603/623 312/902/624
f 477/1091/621 312/902/624 311/901/625
f 477/1091/621 311/901/625 145/602/622
f 478/1092/626 146/604/627 147/605/628
f 478/1092/626 147/605/628 313/904/629
f 478/1092/626 313/904/629 312/903/630
f 478/1092/626 312/903/630 146/604/627
f 479/1093/631 147/606/632 148/607/633
f 479/1093/631 148/607/633 314/906/634
f 479/1093/631 314/906/634 313/905/635
f 479/1093/631 313/905/635 147/606/632
f 480/1094/636 148/608/637 149/609/638
f 480/1094/636 149/609/638 315/908/639
f 480/1094/636 315/908/639 314/907/640
f 480/1094/636 314/907/640 148/608/637
f 481/1095/641 149/610/642 150/611/643
f 481/1095/641 150/611/643 316/910/644
f 481/1095/641 316/910/644 315/909/645
f 481/1095/641 315/909/645 149/610/642
f 482/1096/646 150/612/647 151/613/648
f 482/1096/646 151/613/648 317/912/649
f 482/1096/646 317/912/649 316/911/650
f 482/1096/646 316/911/650 150/612/647
f 483/1097/651 151/614/652 152/615/653
f 483/1097/651 152/615/653 318/914/654
f 483/1097/651 318/914/654 317/913/655
f 483/1097/651 317/913/655 151/614/652
f 484/1098/656 152/616/657 153/617/658
f 484/1098/656 153/617/658 319/916/659
f 484/1098/656 319/916/659 318/915/660
f 484/1098/656 318/915/660 152/616/657
f 485/1099/661 153/618/662 154/619/663
f 485/1099/661 154/619/663 320/918/664
f 485/1099/661 320/918/664 319/917/665
f 485/1099/661 319/917/665 153/618/662
f 486/1100/666 154/620/667 155/621/668
f 486/1100/666 155/621/668 321/920/669
f 486/1100/666 321/920/669 320/919/670
f 486/1100/666 320/919/670 154/620/667
f 487/1101/671 155/622/672 156/623/673
f 487/1101/671 156/623/673 322/922/674
f 487/1101/671 322/922/674 321/921/675
f 487/1101/671 321/921/675 155/622/672
f 488/1102/676 156/624/677 157/625/678
f 488/1102/676 157/625/678 323/924/679
f 488/1102/676 323/924/679 322/923/680
f 488/1102/676 322/923/680 156/624/677
f 489/1103/681 157/626/682 158/627/683
f 489/1103/681 158/627/683 324/926/684
f 489/1103/681 324/926/684 323/925/685
f 489/1103/681 323/925/685 157/626/682
f 490/1104/686 158/628/687 159/629/688
f 490/1104/686 159/629/688 325/928/689
f 490/1104/686 325/928/689 324/927/690
f 490/1104/686 324/927/690 158/628/687
f 491/1105/691 159/630/692 160/631/693
f 491/1105/691 160/631/693 326/930/694
f 491/1105/691 326/930/694 325/929/695
f 491/1105/691 325/929/695 159/630/692
f 492/1106/696 160/632/697 161/633/698
f 492/1106/696 161/633/698 327/932/699
f 492/1106/696 327/932/699 326/931/700
f 492/1106/696 326/931/700 160/632/697
f 493/1107/701 161/634/702 162/635/703
f 493/1107/701 162/635/703 328/934/704
f 493/1107/701 328/934/704 327/933/705
f 493/1107/701 327/933/705 161/634/702
f 494/1108/706 162/636/707 163/637/708
f 494/1108/706 163/637/708 329/936/709
f 494/1108/706 329/936/709 328/935/710
f 494/1108/706 328/935/710 162/636/707
f 495/1109/711 163/638/712 164/639/713
f 495/1109/711 164/639/713 330/938/714
f 495/1109/711 330/938/714 329/937/715
f 495/1109/711 329/937/715 163/638/712
f 496/1110/716 164/640/717 165/641/718
f 496/1110/716 165/641/718 331/940/719
f 496/1110/716 331/940/719 330/939/720
f 496/1110/716 330/939/720 164/640/717
f 497/1111/721 165/642/722 166/643/723
f 497/1111/721 166/643/723 332/942/724
f 497/1111/721 332/942/724 331/941/725
f 497/1111/721 331/941/725 165/642/722
f 498/1112/726 166/644/727 167/645/728
f 498/1112/726 167/645/728 333/944/729
f 498/1112/726 333/944/729 332/943/730
f 498/1112/726 332/943/730 166/644/727
f 499/1113/731 167/646/732 168/647/733
f 499/1113/731 168/647/733 334/946/734
f 499/1113/731 334/946/734 333/945/735
f 499/1113/731 333/945/735 167/646/732
f 500/1114/736 168/647/733 169/648/737
f 500/1114/736 169/648/737 335/947/738
f 500/1114/736 335/947/738 334/946/734
f 500/1114/736 334/946/734 168/647/733
f 501/1115/739 169/648/737 170/649/740
f 501/1115/739 170/649/740 336/948/741
f 501/1115/739 336/948/741 335/947/738
f 501/1115/739 335/947/738 169/648/737
f 502/1116/742 170/649/740 171/650/743
f 502/1116/742 171/650/743 337/949/744
f 502/1116/742 337/949/744 336/948/741
f 502/1116/742 336/948/741 170/649/740
f 503/1117/745 171/650/743 172/651/746
f 503/1117/745 172/651/746 338/950/747
f 503/1117/745 338/950/747 337/949/744
f 503/1117/745 337/949/744 171/650/743
f 504/1118/748 172/651/746 173/652/749
f 504/1118/748 173/652/749 339/951/750
f 504/1118/748 339/951/750 338/950/747
f 504/1118/748 338/950/747 172/651/746
f 505/1119/751 173/652/749 174/653/752
f 505/1119/751 174/653/752 340/952/753
f 505/1119/751 340/952/753 339/951/750
f 505/1119/751 339/951/750 173/652/749
f 506/1120/754 174/653/752 175/654/755
f 506/1120/754 175/654/755 341/953/756
f 506/1120/754 341/953/756 340/952/753
f 506/1120/754 340/952/753 174/653/752
f 507/1121/757 175/654/755 176/655/758
f 507/1121/757 176/655/758 342/954/759
f 507/1121/757 342/954/759 341/953/756
f 507/1121/757 341/953/756 175/654/755
f 508/1122/760 176/655/758 177/656/761
f 508/1122/760 177/656/761 343/955/762
f 508/1122/760 343/955/762 342/954/759
f 508/1122/760 342/954/759 176/655/758
f 509/1123/763 177/656/761 178/657/764
f 509/1123/763 178/657/764 344/956/765
f 509/1123/763 344/956/765 343/955/762
f 509/1123/763 343/955/762 177/656/761
f 510/1124/766 178/657/764 179/658/767
f 510/1124/766 179/658/767 345/957/768
f 510/1124/766 345/957/768 344/956/765
f 510/1124/766 344/956/765 178/657/764
f 511/1125/769 179/658/767 180/659/770
f 511/1125/769 180/659/770 346/958/771
f 511/1125/769 346/958/771 345/957/768
f 511/1125/769 345/957/768 179/658/767
f 512/1126/772 180/659/770 181/660/773
f 512/1126/772 181/660/773 347/959/774
f 512/1126/772 347/959/774 346/958/771
f 512/1126/772 346/958/771 180/659/770
f 513/1127/775 181/660/773 182/661/776
f 513/1127/775 182/661/776 348/960/777
f 513/1127/775 348/960/777 347/959/774
f 513/1127/775 347/959/774 181/660/773
f 514/1128/778 182/661/776 183/662/779
f 514/1128/778 183/662/779 349/961/780
f 514/1128/778 349/961/780 348/960/777
f 514/1128/778 348/960/777 182/661/776
f 515/1129/781 183/662/779 184/663/782
f 515/1129/781 184/663/782 350/962/783
f 515/1129/781 350/962/783 349/961/780
f 515/1129/781 349/961/780 183/662/779
f 516/1130/784 184/664/785 19/665/26
f 516/1130/784 19/665/26 185/964/29
f 516/1130/784 185/964/29 350/963/786
f 516/1130/784 350/963/786 184/664/785
