mtllib Ultra Span.mtl
# Vertex Positions: 
g groupNumber_0
v 13.8289 -0.534464 -16.9263
v 13.9808 -0.242239 -16.9263
v 13.8235 -0.525639 -16.9263
v 12.6549 -0.525639 -16.9263
v 12.1541 0.53393 -16.9263
v 11.8012 0.536463 -16.9263
v 11.7642 0.475809 -16.9263
v 11.3668 0.475809 -16.9263
v 11.3099 0.535102 -16.9263
v 10.7145 0.536463 -16.9263
v 10.672 0.475809 -16.9263
v 10.2454 0.475809 -16.9263
v 10.2031 0.536463 -16.9263
v 9.85329 0.536463 -16.9263
v 9.3675 -0.527638 -16.9263
v 8.17564 -0.527638 -16.9263
v 7.68754 0.533895 -16.9263
v 7.35112 0.536463 -16.9263
v 7.302 0.475809 -16.9263
v 6.88974 0.475809 -16.9263
v 6.83848 0.534947 -16.9263
v 6.23193 0.536463 -16.9263
v 6.18267 0.473585 -16.9263
v 5.78189 0.473585 -16.9263
v 5.73253 0.536463 -16.9263
v 5.38056 0.536463 -16.9263
v 4.88695 -0.527638 -16.9263
v 3.71619 -0.527638 -16.9263
v 3.20809 0.533947 -16.9263
v 2.86137 0.536463 -16.9263
v 2.82331 0.473499 -16.9263
v 2.42501 0.473499 -16.9263
v 2.37465 0.536463 -16.9263
v 1.76445 0.536463 -16.9263
v 1.72863 0.475326 -16.9263
v 1.32699 0.475326 -16.9263
v 1.27894 0.536463 -16.9263
v 0.914525 0.536463 -16.9263
v 0.426185 -0.527638 -16.9263
v -0.758743 -0.527638 -16.9263
v -1.26123 0.53393 -16.9263
v -1.60649 0.536463 -16.9263
v -1.65462 0.475809 -16.9263
v -2.05902 0.475809 -16.9263
v -2.11162 0.536463 -16.9263
v -2.70679 0.536463 -16.9263
v -2.75378 0.475809 -16.9263
v -3.16368 0.475809 -16.9263
v -3.21292 0.536463 -16.9263
v -3.56594 0.536463 -16.9263
v -4.06334 -0.527638 -16.9263
v -5.22583 -0.527638 -16.9263
v -5.73168 0.533947 -16.9263
v -6.08865 0.536463 -16.9263
v -6.1211 0.475809 -16.9263
v -6.54432 0.475809 -16.9263
v -6.5851 0.536463 -16.9263
v -7.17145 0.536463 -16.9263
v -7.22406 0.477601 -16.9263
v -7.64579 0.477601 -16.9263
v -7.6819 0.536463 -16.9263
v -8.03189 0.536463 -16.9263
v -8.54563 -0.527638 -16.9263
v -9.69743 -0.527638 -16.9263
v -10.2078 0.533964 -16.9263
v -10.5535 0.536463 -16.9263
v -10.5896 0.472 -16.9263
v -11.0129 0.472 -16.9263
v -11.0602 0.536463 -16.9263
v -11.6446 0.536463 -16.9263
v -11.6841 0.475809 -16.9263
v -12.1178 0.475809 -16.9263
v -12.1577 0.536463 -16.9263
v -12.4971 0.536463 -16.9263
v -13.0016 -0.522088 -16.9263
v -13.9808 -0.522088 -16.9263
v -12.996 -0.530913 -16.9263
v -12.4915 0.527638 -16.9263
v -12.1624 0.527638 -16.9263
v -12.1226 0.466984 -16.9263
v -11.6793 0.466984 -16.9263
v -11.6398 0.527638 -16.9263
v -11.0646 0.527638 -16.9263
v -11.0174 0.463175 -16.9263
v -10.5844 0.463175 -16.9263
v -10.5483 0.527638 -16.9263
v -10.2145 0.527638 -16.9263
v -9.70419 -0.533947 -16.9263
v -8.54008 -0.536463 -16.9263
v -8.02634 0.527638 -16.9263
v -7.68683 0.527638 -16.9263
v -7.65072 0.468776 -16.9263
v -7.22011 0.468776 -16.9263
v -7.1675 0.527638 -16.9263
v -6.58981 0.527638 -16.9263
v -6.54901 0.466984 -16.9263
v -6.11583 0.466984 -16.9263
v -6.08337 0.527638 -16.9263
v -5.73846 0.527638 -16.9263
v -5.2326 -0.533947 -16.9263
v -4.05772 -0.536463 -16.9263
v -3.56032 0.527638 -16.9263
v -3.21713 0.527638 -16.9263
v -3.16788 0.466984 -16.9263
v -2.74947 0.466984 -16.9263
v -2.70245 0.527638 -16.9263
v -2.11566 0.527638 -16.9263
v -2.06305 0.466984 -16.9263
v -1.65034 0.466984 -16.9263
v -1.60222 0.527638 -16.9263
v -1.26801 0.527638 -16.9263
v -0.765517 -0.533947 -16.9263
v 0.431839 -0.536463 -16.9263
v 0.920179 0.527638 -16.9263
v 1.27466 0.527638 -16.9263
v 1.32272 0.466501 -16.9263
v 1.73366 0.466501 -16.9263
v 1.76948 0.527638 -16.9263
v 2.37037 0.527638 -16.9263
v 2.42074 0.464674 -16.9263
v 2.82827 0.464674 -16.9263
v 2.86633 0.527638 -16.9263
v 3.20134 0.527638 -16.9263
v 3.70943 -0.533947 -16.9263
v 4.8926 -0.536463 -16.9263
v 5.38621 0.527638 -16.9263
v 5.72825 0.527638 -16.9263
v 5.77762 0.46476 -16.9263
v 6.18695 0.46476 -16.9263
v 6.23621 0.527638 -16.9263
v 6.83314 0.527638 -16.9263
v 6.8844 0.468501 -16.9263
v 7.3062 0.466984 -16.9263
v 7.35533 0.527638 -16.9263
v 7.68071 0.527638 -16.9263
v 8.16881 -0.533878 -16.9263
v 9.37315 -0.536463 -16.9263
v 9.85894 0.527638 -16.9263
v 10.1985 0.527638 -16.9263
v 10.2408 0.466984 -16.9263
v 10.6766 0.466984 -16.9263
v 10.7191 0.527638 -16.9263
v 11.3048 0.527638 -16.9263
v 11.3617 0.468346 -16.9263
v 11.7692 0.466984 -16.9263
v 11.8062 0.527638 -16.9263
v 12.1473 0.527638 -16.9263
v 12.6481 -0.531948 -16.9263
v 13.8289 -0.534464 16.9263
v 13.9808 -0.242239 16.9263
v 13.8235 -0.525639 16.9263
v 12.6549 -0.525639 16.9263
v 12.1541 0.53393 16.9263
v 11.8012 0.536463 16.9263
v 11.7642 0.475809 16.9263
v 11.3668 0.475809 16.9263
v 11.3099 0.535102 16.9263
v 10.7145 0.536463 16.9263
v 10.672 0.475809 16.9263
v 10.2454 0.475809 16.9263
v 10.2031 0.536463 16.9263
v 9.85329 0.536463 16.9263
v 9.3675 -0.527638 16.9263
v 8.17564 -0.527638 16.9263
v 7.68754 0.533895 16.9263
v 7.35112 0.536463 16.9263
v 7.302 0.475809 16.9263
v 6.88974 0.475809 16.9263
v 6.83848 0.534947 16.9263
v 6.23193 0.536463 16.9263
v 6.18267 0.473585 16.9263
v 5.78189 0.473585 16.9263
v 5.73253 0.536463 16.9263
v 5.38056 0.536463 16.9263
v 4.88695 -0.527638 16.9263
v 3.71619 -0.527638 16.9263
v 3.20809 0.533947 16.9263
v 2.86137 0.536463 16.9263
v 2.82331 0.473499 16.9263
v 2.42501 0.473499 16.9263
v 2.37465 0.536463 16.9263
v 1.76445 0.536463 16.9263
v 1.72863 0.475326 16.9263
v 1.32699 0.475326 16.9263
v 1.27894 0.536463 16.9263
v 0.914525 0.536463 16.9263
v 0.426185 -0.527638 16.9263
v -0.758743 -0.527638 16.9263
v -1.26123 0.53393 16.9263
v -1.60649 0.536463 16.9263
v -1.65462 0.475809 16.9263
v -2.05902 0.475809 16.9263
v -2.11162 0.536463 16.9263
v -2.70679 0.536463 16.9263
v -2.75378 0.475809 16.9263
v -3.16368 0.475809 16.9263
v -3.21292 0.536463 16.9263
v -3.56594 0.536463 16.9263
v -4.06334 -0.527638 16.9263
v -5.22583 -0.527638 16.9263
v -5.73168 0.533947 16.9263
v -6.08865 0.536463 16.9263
v -6.1211 0.475809 16.9263
v -6.54432 0.475809 16.9263
v -6.5851 0.536463 16.9263
v -7.17145 0.536463 16.9263
v -7.22406 0.477601 16.9263
v -7.64579 0.477601 16.9263
v -7.6819 0.536463 16.9263
v -8.03189 0.536463 16.9263
v -8.54563 -0.527638 16.9263
v -9.69743 -0.527638 16.9263
v -10.2078 0.533964 16.9263
v -10.5535 0.536463 16.9263
v -10.5896 0.472 16.9263
v -11.0129 0.472 16.9263
v -11.0602 0.536463 16.9263
v -11.6446 0.536463 16.9263
v -11.6841 0.475809 16.9263
v -12.1178 0.475809 16.9263
v -12.1577 0.536463 16.9263
v -12.4971 0.536463 16.9263
v -13.0016 -0.522088 16.9263
v -13.9808 -0.522088 16.9263
v -12.996 -0.530913 16.9263
v -12.4915 0.527638 16.9263
v -12.1624 0.527638 16.9263
v -12.1226 0.466984 16.9263
v -11.6793 0.466984 16.9263
v -11.6398 0.527638 16.9263
v -11.0646 0.527638 16.9263
v -11.0174 0.463175 16.9263
v -10.5844 0.463175 16.9263
v -10.5483 0.527638 16.9263
v -10.2145 0.527638 16.9263
v -9.70419 -0.533947 16.9263
v -8.54008 -0.536463 16.9263
v -8.02634 0.527638 16.9263
v -7.68683 0.527638 16.9263
v -7.65072 0.468776 16.9263
v -7.22011 0.468776 16.9263
v -7.1675 0.527638 16.9263
v -6.58981 0.527638 16.9263
v -6.54901 0.466984 16.9263
v -6.11583 0.466984 16.9263
v -6.08337 0.527638 16.9263
v -5.73846 0.527638 16.9263
v -5.2326 -0.533947 16.9263
v -4.05772 -0.536463 16.9263
v -3.56032 0.527638 16.9263
v -3.21713 0.527638 16.9263
v -3.16788 0.466984 16.9263
v -2.74947 0.466984 16.9263
v -2.70245 0.527638 16.9263
v -2.11566 0.527638 16.9263
v -2.06305 0.466984 16.9263
v -1.65034 0.466984 16.9263
v -1.60222 0.527638 16.9263
v -1.26801 0.527638 16.9263
v -0.765517 -0.533947 16.9263
v 0.431839 -0.536463 16.9263
v 0.920179 0.527638 16.9263
v 1.27466 0.527638 16.9263
v 1.32272 0.466501 16.9263
v 1.73366 0.466501 16.9263
v 1.76948 0.527638 16.9263
v 2.37037 0.527638 16.9263
v 2.42074 0.464674 16.9263
v 2.82827 0.464674 16.9263
v 2.86633 0.527638 16.9263
v 3.20134 0.527638 16.9263
v 3.70943 -0.533947 16.9263
v 4.8926 -0.536463 16.9263
v 5.38621 0.527638 16.9263
v 5.72825 0.527638 16.9263
v 5.77762 0.46476 16.9263
v 6.18695 0.46476 16.9263
v 6.23621 0.527638 16.9263
v 6.83314 0.527638 16.9263
v 6.8844 0.468501 16.9263
v 7.3062 0.466984 16.9263
v 7.35533 0.527638 16.9263
v 7.68071 0.527638 16.9263
v 8.16881 -0.533878 16.9263
v 9.37315 -0.536463 16.9263
v 9.85894 0.527638 16.9263
v 10.1985 0.527638 16.9263
v 10.2408 0.466984 16.9263
v 10.6766 0.466984 16.9263
v 10.7191 0.527638 16.9263
v 11.3048 0.527638 16.9263
v 11.3617 0.468346 16.9263
v 11.7692 0.466984 16.9263
v 11.8062 0.527638 16.9263
v 12.1473 0.527638 16.9263
v 12.6481 -0.531948 16.9263
v 13.9048 -0.388352 0
v 13.9022 -0.383939 0
v 13.2392 -0.525639 0
v 12.4045 0.00414534 0
v 11.9776 0.535197 0
v 11.7827 0.506136 0
v 11.5655 0.475809 0
v 11.3383 0.505455 0
v 11.0122 0.535783 0
v 10.6932 0.506136 0
v 10.4587 0.475809 0
v 10.2243 0.506136 0
v 10.0282 0.536463 0
v 9.61039 0.0044125 0
v 8.77157 -0.527638 0
v 7.93159 0.0031284 0
v 7.51933 0.535179 0
v 7.32656 0.506136 0
v 7.09587 0.475809 0
v 6.86411 0.505378 0
v 6.53521 0.535705 0
v 6.2073 0.505024 0
v 5.98228 0.473585 0
v 5.75721 0.505024 0
v 5.55654 0.536463 0
v 5.13375 0.0044125 0
v 4.30157 -0.527638 0
v 3.46214 0.00315425 0
v 3.03473 0.535205 0
v 2.84234 0.504981 0
v 2.62416 0.473499 0
v 2.39983 0.504981 0
v 2.06955 0.536463 0
v 1.74654 0.505895 0
v 1.52781 0.475326 0
v 1.30296 0.505895 0
v 1.09673 0.536463 0
v 0.670355 0.0044125 0
v -0.166279 -0.527638 0
v -1.00999 0.00314563 0
v -1.43386 0.535197 0
v -1.63056 0.506136 0
v -1.85682 0.475809 0
v -2.08532 0.506136 0
v -2.40921 0.536463 0
v -2.73029 0.506136 0
v -2.95873 0.475809 0
v -3.1883 0.506136 0
v -3.38943 0.536463 0
v -3.81464 0.0044125 0
v -4.64459 -0.527638 0
v -5.47876 0.00315425 0
v -5.91016 0.535205 0
v -6.10487 0.506136 0
v -6.33271 0.475809 0
v -6.56471 0.506136 0
v -6.87828 0.536463 0
v -7.19775 0.507032 0
v -7.43492 0.477601 0
v -7.66385 0.507032 0
v -7.8569 0.536463 0
v -8.28876 0.0044125 0
v -9.12153 -0.527638 0
v -9.95259 0.00316287 0
v -10.3806 0.535214 0
v -10.5715 0.504232 0
v -10.8013 0.472 0
v -11.0366 0.504232 0
v -11.3524 0.536463 0
v -11.6643 0.506136 0
v -11.901 0.475809 0
v -12.1378 0.506136 0
v -12.3274 0.536463 0
v -12.7494 0.00718755 0
v -13.4912 -0.522088 0
v -13.4884 -0.526501 0
v -12.7438 -0.00163745 0
v -12.327 0.527638 0
v -12.1425 0.497311 0
v -11.9009 0.466984 0
v -11.6595 0.497311 0
v -11.3522 0.527638 0
v -11.041 0.495407 0
v -10.8009 0.463175 0
v -10.5663 0.495407 0
v -10.3814 0.527638 0
v -9.95935 -0.00315425 0
v -9.12214 -0.535205 0
v -8.28321 -0.0044125 0
v -7.85659 0.527638 0
v -7.66878 0.498207 0
v -7.43542 0.468776 0
v -7.19381 0.498207 0
v -6.87866 0.527638 0
v -6.56941 0.497311 0
v -6.33242 0.466984 0
v -6.0996 0.497311 0
v -5.91091 0.527638 0
v -5.48553 -0.00315425 0
v -4.64516 -0.535205 0
v -3.80902 -0.0044125 0
v -3.38872 0.527638 0
v -3.1925 0.497311 0
v -2.95868 0.466984 0
v -2.72596 0.497311 0
v -2.40905 0.527638 0
v -2.08935 0.497311 0
v -1.8567 0.466984 0
v -1.62628 0.497311 0
v -1.43511 0.527638 0
v -1.01676 -0.00315425 0
v -0.166839 -0.535205 0
v 0.676009 -0.0044125 0
v 1.09742 0.527638 0
v 1.29869 0.49707 0
v 1.52819 0.466501 0
v 1.75157 0.49707 0
v 2.06993 0.527638 0
v 2.39556 0.496156 0
v 2.62451 0.464674 0
v 2.8473 0.496156 0
v 3.03384 0.527638 0
v 3.45538 -0.00315425 0
v 4.30102 -0.535205 0
v 5.13941 -0.0044125 0
v 5.55723 0.527638 0
v 5.75294 0.496199 0
v 5.98228 0.46476 0
v 6.21158 0.496199 0
v 6.53467 0.527638 0
v 6.85877 0.49807 0
v 7.0953 0.467742 0
v 7.33077 0.497311 0
v 7.51802 0.527638 0
v 7.92476 -0.00311978 0
v 8.77098 -0.535171 0
v 9.61604 -0.0044125 0
v 10.0287 0.527638 0
v 10.2197 0.497311 0
v 10.4587 0.466984 0
v 10.6979 0.497311 0
v 11.012 0.527638 0
v 11.3333 0.497992 0
v 11.5655 0.467665 0
v 11.7877 0.497311 0
v 11.9767 0.527638 0
v 12.3977 -0.00215454 0
v 13.2385 -0.533206 0


# Vertex Texture Coordinates :
vt 0.38583 2.77372e-05
vt 0.387937 0.00408166
vt 0.385755 0.000150163
vt 0.369543 0.000150163
vt 0.362596 0.0148492
vt 0.3577 0.0148843
vt 0.357188 0.0140429
vt 0.351674 0.0140429
vt 0.350884 0.0148654
vt 0.342625 0.0148843
vt 0.342035 0.0140429
vt 0.336117 0.0140429
vt 0.335531 0.0148843
vt 0.330678 0.0148843
vt 0.323938 0.000122426
vt 0.307404 0.000122426
vt 0.300633 0.0148487
vt 0.295966 0.0148843
vt 0.295284 0.0140429
vt 0.289565 0.0140429
vt 0.288854 0.0148633
vt 0.28044 0.0148843
vt 0.279756 0.014012
vt 0.274197 0.014012
vt 0.273512 0.0148843
vt 0.268629 0.0148843
vt 0.261781 0.000122426
vt 0.24554 0.000122426
vt 0.238491 0.0148494
vt 0.233681 0.0148843
vt 0.233153 0.0140108
vt 0.227628 0.0140108
vt 0.226929 0.0148843
vt 0.218464 0.0148843
vt 0.217967 0.0140362
vt 0.212395 0.0140362
vt 0.211729 0.0148843
vt 0.206673 0.0148843
vt 0.199899 0.000122426
vt 0.183461 0.000122426
vt 0.17649 0.0148492
vt 0.1717 0.0148843
vt 0.171033 0.0140429
vt 0.165423 0.0140429
vt 0.164693 0.0148843
vt 0.156436 0.0148843
vt 0.155784 0.0140429
vt 0.150098 0.0140429
vt 0.149415 0.0148843
vt 0.144518 0.0148843
vt 0.137617 0.000122426
vt 0.12149 0.000122426
vt 0.114473 0.0148494
vt 0.109521 0.0148843
vt 0.109071 0.0140429
vt 0.1032 0.0140429
vt 0.102634 0.0148843
vt 0.0944996 0.0148843
vt 0.0937698 0.0140678
vt 0.0879192 0.0140678
vt 0.0874183 0.0148843
vt 0.0825631 0.0148843
vt 0.0754361 0.000122426
vt 0.0594576 0.000122426
vt 0.0523781 0.0148497
vt 0.0475822 0.0148843
vt 0.0470813 0.01399
vt 0.041208 0.01399
vt 0.040553 0.0148843
vt 0.0324454 0.0148843
vt 0.0318978 0.0140429
vt 0.0258801 0.0140429
vt 0.0253277 0.0148843
vt 0.0206184 0.0148843
vt 0.0136205 0.00019942
vt 3.64697e-05 0.00019942
vt 0.013698 7.69945e-05
vt 0.0206959 0.0147619
vt 0.0252617 0.0147619
vt 0.0258141 0.0139205
vt 0.0319643 0.0139205
vt 0.0325119 0.0147619
vt 0.0404908 0.0147619
vt 0.0411458 0.0138676
vt 0.047153 0.0138676
vt 0.047654 0.0147619
vt 0.0522844 0.0147619
vt 0.0593638 3.49106e-05
vt 0.0755131 0
vt 0.0826401 0.0147619
vt 0.0873499 0.0147619
vt 0.0878508 0.0139453
vt 0.0938246 0.0139453
vt 0.0945544 0.0147619
vt 0.102568 0.0147619
vt 0.103134 0.0139205
vt 0.109144 0.0139205
vt 0.109594 0.0147619
vt 0.114379 0.0147619
vt 0.121397 3.49106e-05
vt 0.137695 0
vt 0.144596 0.0147619
vt 0.149356 0.0147619
vt 0.15004 0.0139205
vt 0.155844 0.0139205
vt 0.156496 0.0147619
vt 0.164637 0.0147619
vt 0.165367 0.0139205
vt 0.171092 0.0139205
vt 0.171759 0.0147619
vt 0.176396 0.0147619
vt 0.183367 3.49106e-05
vt 0.199977 0
vt 0.206752 0.0147619
vt 0.211669 0.0147619
vt 0.212336 0.0139138
vt 0.218037 0.0139138
vt 0.218534 0.0147619
vt 0.22687 0.0147619
vt 0.227569 0.0138884
vt 0.233222 0.0138884
vt 0.23375 0.0147619
vt 0.238397 0.0147619
vt 0.245446 3.49106e-05
vt 0.26186 0
vt 0.268707 0.0147619
vt 0.273452 0.0147619
vt 0.274137 0.0138896
vt 0.279816 0.0138896
vt 0.280499 0.0147619
vt 0.28878 0.0147619
vt 0.289491 0.0139415
vt 0.295343 0.0139205
vt 0.296024 0.0147619
vt 0.300538 0.0147619
vt 0.307309 3.5867e-05
vt 0.324017 0
vt 0.330756 0.0147619
vt 0.335467 0.0147619
vt 0.336053 0.0139205
vt 0.342099 0.0139205
vt 0.342689 0.0147619
vt 0.350814 0.0147619
vt 0.351604 0.0139393
vt 0.357256 0.0139205
vt 0.357769 0.0147619
vt 0.362502 0.0147619
vt 0.369449 6.26477e-05
vt 0.395866 2.77372e-05
vt 0.39376 0.00408166
vt 0.395941 0.000150163
vt 0.412153 0.000150163
vt 0.419101 0.0148492
vt 0.423996 0.0148843
vt 0.424509 0.0140429
vt 0.430022 0.0140429
vt 0.430812 0.0148654
vt 0.439071 0.0148843
vt 0.439661 0.0140429
vt 0.445579 0.0140429
vt 0.446165 0.0148843
vt 0.451019 0.0148843
vt 0.457758 0.000122426
vt 0.474292 0.000122426
vt 0.481063 0.0148487
vt 0.48573 0.0148843
vt 0.486412 0.0140429
vt 0.492131 0.0140429
vt 0.492842 0.0148633
vt 0.501257 0.0148843
vt 0.50194 0.014012
vt 0.5075 0.014012
vt 0.508185 0.0148843
vt 0.513067 0.0148843
vt 0.519915 0.000122426
vt 0.536157 0.000122426
vt 0.543205 0.0148494
vt 0.548015 0.0148843
vt 0.548543 0.0140108
vt 0.554069 0.0140108
vt 0.554767 0.0148843
vt 0.563232 0.0148843
vt 0.563729 0.0140362
vt 0.569301 0.0140362
vt 0.569968 0.0148843
vt 0.575023 0.0148843
vt 0.581798 0.000122426
vt 0.598236 0.000122426
vt 0.605206 0.0148492
vt 0.609996 0.0148843
vt 0.610664 0.0140429
vt 0.616274 0.0140429
vt 0.617004 0.0148843
vt 0.62526 0.0148843
vt 0.625912 0.0140429
vt 0.631598 0.0140429
vt 0.632282 0.0148843
vt 0.637179 0.0148843
vt 0.644079 0.000122426
vt 0.660206 0.000122426
vt 0.667223 0.0148494
vt 0.672175 0.0148843
vt 0.672626 0.0140429
vt 0.678497 0.0140429
vt 0.679063 0.0148843
vt 0.687197 0.0148843
vt 0.687927 0.0140678
vt 0.693777 0.0140678
vt 0.694278 0.0148843
vt 0.699133 0.0148843
vt 0.70626 0.000122426
vt 0.722239 0.000122426
vt 0.729318 0.0148497
vt 0.734114 0.0148843
vt 0.734615 0.01399
vt 0.740488 0.01399
vt 0.741143 0.0148843
vt 0.749251 0.0148843
vt 0.749799 0.0140429
vt 0.755816 0.0140429
vt 0.756369 0.0148843
vt 0.761078 0.0148843
vt 0.768076 0.00019942
vt 0.78166 0.00019942
vt 0.767998 7.69945e-05
vt 0.761 0.0147619
vt 0.756435 0.0147619
vt 0.755882 0.0139205
vt 0.749732 0.0139205
vt 0.749184 0.0147619
vt 0.741206 0.0147619
vt 0.740551 0.0138676
vt 0.734543 0.0138676
vt 0.734042 0.0147619
vt 0.729412 0.0147619
vt 0.722333 3.49106e-05
vt 0.706183 0
vt 0.699056 0.0147619
vt 0.694346 0.0147619
vt 0.693846 0.0139453
vt 0.687872 0.0139453
vt 0.687142 0.0147619
vt 0.679128 0.0147619
vt 0.678562 0.0139205
vt 0.672552 0.0139205
vt 0.672102 0.0147619
vt 0.667317 0.0147619
vt 0.6603 3.49106e-05
vt 0.644001 0
vt 0.637101 0.0147619
vt 0.63234 0.0147619
vt 0.631657 0.0139205
vt 0.625852 0.0139205
vt 0.6252 0.0147619
vt 0.61706 0.0147619
vt 0.61633 0.0139205
vt 0.610604 0.0139205
vt 0.609937 0.0147619
vt 0.6053 0.0147619
vt 0.59833 3.49106e-05
vt 0.581719 0
vt 0.574945 0.0147619
vt 0.570027 0.0147619
vt 0.56936 0.0139138
vt 0.563659 0.0139138
vt 0.563162 0.0147619
vt 0.554827 0.0147619
vt 0.554128 0.0138884
vt 0.548474 0.0138884
vt 0.547946 0.0147619
vt 0.543299 0.0147619
vt 0.53625 3.49106e-05
vt 0.519837 0
vt 0.512989 0.0147619
vt 0.508244 0.0147619
vt 0.507559 0.0138896
vt 0.501881 0.0138896
vt 0.501197 0.0147619
vt 0.492916 0.0147619
vt 0.492205 0.0139415
vt 0.486354 0.0139205
vt 0.485672 0.0147619
vt 0.481158 0.0147619
vt 0.474387 3.5867e-05
vt 0.45768 0
vt 0.45094 0.0147619
vt 0.446229 0.0147619
vt 0.445643 0.0139205
vt 0.439597 0.0139205
vt 0.439007 0.0147619
vt 0.430883 0.0147619
vt 0.430093 0.0139393
vt 0.42444 0.0139205
vt 0.423927 0.0147619
vt 0.419195 0.0147619
vt 0.412248 6.26477e-05
vt 0 0.0206274
vt 0.00456859 0.0206274
vt 3.62806e-05 0.495985
vt 0.00453231 0.495985
vt 0.0103444 0.0206274
vt 0.0265568 0.0206274
vt 0.0103215 0.495985
vt 0.0265796 0.495985
vt 0.032341 0.0206274
vt 0.0372367 0.0206274
vt 0.032347 0.495985
vt 0.0333324 0.495985
vt 0.0430389 0.0206274
vt 0.0485524 0.0206274
vt 0.0429896 0.495985
vt 0.0441301 0.495985
vt 0.0543928 0.0206274
vt 0.0626518 0.0206274
vt 0.0543395 0.495985
vt 0.0553672 0.495985
vt 0.0684621 0.0206274
vt 0.0743797 0.0206274
vt 0.0611052 0.495985
vt 0.0621307 0.495985
vt 0.0684782 0.495985
vt 0.0733317 0.495985
vt 0.0801614 0.0206274
vt 0.0963888 0.0206274
vt 0.102194 0.0206274
vt 0.118728 0.0206274
vt 0.0801709 0.495985
vt 0.0963793 0.495985
vt 0.102165 0.495985
vt 0.106832 0.495985
vt 0.112614 0.495985
vt 0.113697 0.495985
vt 0.124513 0.0206274
vt 0.130232 0.0206274
vt 0.124536 0.495985
vt 0.125622 0.495985
vt 0.136006 0.0206274
vt 0.144421 0.0206274
vt 0.135991 0.495985
vt 0.137099 0.495985
vt 0.150218 0.0206274
vt 0.155777 0.0206274
vt 0.142869 0.495985
vt 0.143978 0.495985
vt 0.150212 0.495985
vt 0.155095 0.495985
vt 0.161543 0.0206274
vt 0.177816 0.0206274
vt 0.161559 0.495985
vt 0.177801 0.495985
vt 0.183587 0.0206274
vt 0.199914 0.0206274
vt 0.183556 0.495985
vt 0.188366 0.495985
vt 0.194107 0.495985
vt 0.195127 0.495985
vt 0.205728 0.0206274
vt 0.211253 0.0206274
vt 0.205695 0.495985
vt 0.206814 0.495985
vt 0.217042 0.0206274
vt 0.225507 0.0206274
vt 0.217057 0.495985
vt 0.218039 0.495985
vt 0.231272 0.0206274
vt 0.236844 0.0206274
vt 0.223831 0.495985
vt 0.224909 0.495985
vt 0.231301 0.495985
vt 0.236357 0.495985
vt 0.242619 0.0206274
vt 0.258862 0.0206274
vt 0.26465 0.0206274
vt 0.281088 0.0206274
vt 0.264665 0.495985
vt 0.280958 0.495985
vt 0.242613 0.495985
vt 0.247403 0.495985
vt 0.253184 0.495985
vt 0.254259 0.495985
vt 0.286861 0.0206274
vt 0.292471 0.0206274
vt 0.286873 0.495985
vt 0.287987 0.495985
vt 0.298264 0.0206274
vt 0.306521 0.0206274
vt 0.298248 0.495985
vt 0.299313 0.495985
vt 0.312333 0.0206274
vt 0.318019 0.0206274
vt 0.305118 0.495985
vt 0.306202 0.495985
vt 0.312326 0.495985
vt 0.317224 0.495985
vt 0.323826 0.0206274
vt 0.340121 0.0206274
vt 0.323795 0.495985
vt 0.339922 0.495985
vt 0.345945 0.0206274
vt 0.362258 0.0206274
vt 0.34595 0.495985
vt 0.350902 0.495985
vt 0.35672 0.495985
vt 0.357674 0.495985
vt 0.368077 0.0206274
vt 0.373949 0.0206274
vt 0.368041 0.495985
vt 0.369055 0.495985
vt 0.37973 0.0206274
vt 0.387864 0.0206274
vt 0.379752 0.495985
vt 0.380848 0.495985
vt 0.393656 0.0206274
vt 0.399506 0.0206274
vt 0.386643 0.495985
vt 0.387601 0.495985
vt 0.393637 0.495985
vt 0.398493 0.495985
vt 0.405296 0.0206274
vt 0.421689 0.0206274
vt 0.405331 0.495985
vt 0.42131 0.495985
vt 0.427451 0.0206274
vt 0.443791 0.0206274
vt 0.427433 0.495985
vt 0.432229 0.495985
vt 0.437975 0.495985
vt 0.439 0.495985
vt 0.449596 0.0206274
vt 0.455469 0.0206274
vt 0.44957 0.495985
vt 0.450679 0.495985
vt 0.461262 0.0206274
vt 0.46937 0.0206274
vt 0.46126 0.495985
vt 0.462264 0.495985
vt 0.475149 0.0206274
vt 0.481166 0.0206274
vt 0.468023 0.495985
vt 0.46903 0.495985
vt 0.475172 0.495985
vt 0.479882 0.495985
vt 0.486936 0.0206274
vt 0.503203 0.0206274
vt 0.486959 0.495985
vt 0.500543 0.495985
vt 0.50899 0.0206274
vt 0.522653 0.0206274
vt 0.52844 0.0206274
vt 0.544707 0.0206274
vt 0.508952 0.495985
vt 0.513518 0.495985
vt 0.519274 0.495985
vt 0.52028 0.495985
vt 0.528454 0.495985
vt 0.534604 0.495985
vt 0.540372 0.495985
vt 0.541375 0.495985
vt 0.550471 0.0206274
vt 0.55845 0.0206274
vt 0.550466 0.495985
vt 0.551575 0.495985
vt 0.56424 0.0206274
vt 0.570248 0.0206274
vt 0.55733 0.495985
vt 0.558355 0.495985
vt 0.564241 0.495985
vt 0.568871 0.495985
vt 0.576043 0.0206274
vt 0.592383 0.0206274
vt 0.576024 0.495985
vt 0.592173 0.495985
vt 0.598145 0.0206274
vt 0.614537 0.0206274
vt 0.598196 0.495985
vt 0.602906 0.495985
vt 0.608729 0.495985
vt 0.609687 0.495985
vt 0.620323 0.0206274
vt 0.626297 0.0206274
vt 0.620297 0.495985
vt 0.621393 0.495985
vt 0.632087 0.0206274
vt 0.640101 0.0206274
vt 0.63209 0.495985
vt 0.633104 0.495985
vt 0.645873 0.0206274
vt 0.651883 0.0206274
vt 0.638884 0.495985
vt 0.639839 0.495985
vt 0.645855 0.495985
vt 0.65064 0.495985
vt 0.65769 0.0206274
vt 0.674004 0.0206274
vt 0.657697 0.495985
vt 0.673996 0.495985
vt 0.679828 0.0206274
vt 0.696123 0.0206274
vt 0.679805 0.495985
vt 0.684566 0.495985
vt 0.690357 0.495985
vt 0.691441 0.495985
vt 0.701927 0.0206274
vt 0.707732 0.0206274
vt 0.701947 0.495985
vt 0.703011 0.495985
vt 0.713486 0.0206274
vt 0.721626 0.0206274
vt 0.713502 0.495985
vt 0.714616 0.495985
vt 0.727363 0.0206274
vt 0.733088 0.0206274
vt 0.720401 0.495985
vt 0.721475 0.495985
vt 0.727391 0.495985
vt 0.732028 0.495985
vt 0.738875 0.0206274
vt 0.755169 0.0206274
vt 0.76096 0.0206274
vt 0.77757 0.0206274
vt 0.738844 0.495985
vt 0.755086 0.495985
vt 0.760959 0.495985
vt 0.765877 0.495985
vt 0.771649 0.495985
vt 0.772728 0.495985
vt 0.783326 0.0206274
vt 0.789027 0.0206274
vt 0.783335 0.495985
vt 0.784318 0.495985
vt 0.794793 0.0206274
vt 0.803129 0.0206274
vt 0.79479 0.495985
vt 0.795908 0.495985
vt 0.808918 0.0206274
vt 0.814571 0.0206274
vt 0.801661 0.495985
vt 0.802681 0.495985
vt 0.808905 0.495985
vt 0.813552 0.495985
vt 0.820378 0.0206274
vt 0.836705 0.0206274
vt 0.84252 0.0206274
vt 0.858934 0.0206274
vt 0.820348 0.495985
vt 0.836621 0.495985
vt 0.842507 0.495985
vt 0.847252 0.495985
vt 0.853039 0.495985
vt 0.854148 0.495985
vt 0.864742 0.0206274
vt 0.870421 0.0206274
vt 0.864734 0.495985
vt 0.865842 0.495985
vt 0.876225 0.0206274
vt 0.884506 0.0206274
vt 0.876211 0.495985
vt 0.877297 0.495985
vt 0.890338 0.0206274
vt 0.89619 0.0206274
vt 0.883092 0.495985
vt 0.884174 0.495985
vt 0.890319 0.495985
vt 0.894833 0.495985
vt 0.902014 0.0206274
vt 0.918222 0.0206274
vt 0.924007 0.0206274
vt 0.940715 0.0206274
vt 0.902004 0.495985
vt 0.918232 0.495985
vt 0.924044 0.495985
vt 0.928755 0.495985
vt 0.934543 0.495985
vt 0.935568 0.495985
vt 0.946479 0.0206274
vt 0.952525 0.0206274
vt 0.946466 0.495985
vt 0.947493 0.495985
vt 0.958281 0.0206274
vt 0.966406 0.0206274
vt 0.958276 0.495985
vt 0.959416 0.495985
vt 0.972186 0.0206274
vt 0.977839 0.0206274
vt 0.965176 0.495985
vt 0.966161 0.495985
vt 0.972188 0.495985
vt 0.97692 0.495985
vt 0.983623 0.0206274
vt 0.999881 0.0206274
vt 0.983619 0.495985
vt 1 0.495985
vt 0 0.490252
vt 0.00456859 0.490252
vt 3.62806e-05 0.965609
vt 0.00453231 0.965609
vt 0.0103444 0.490252
vt 0.0265568 0.490252
vt 0.0103215 0.965609
vt 0.0265796 0.965609
vt 0.032341 0.490252
vt 0.0372367 0.490252
vt 0.032347 0.965609
vt 0.0333324 0.965609
vt 0.0430389 0.490252
vt 0.0485524 0.490252
vt 0.0429896 0.965609
vt 0.0441301 0.965609
vt 0.0543928 0.490252
vt 0.0626518 0.490252
vt 0.0543395 0.965609
vt 0.0553672 0.965609
vt 0.0684621 0.490252
vt 0.0743797 0.490252
vt 0.0611052 0.965609
vt 0.0621307 0.965609
vt 0.0684782 0.965609
vt 0.0733317 0.965609
vt 0.0801614 0.490252
vt 0.0963888 0.490252
vt 0.102194 0.490252
vt 0.118728 0.490252
vt 0.0801709 0.965609
vt 0.0963793 0.965609
vt 0.102165 0.965609
vt 0.106832 0.965609
vt 0.112614 0.965609
vt 0.113697 0.965609
vt 0.124513 0.490252
vt 0.130232 0.490252
vt 0.124536 0.965609
vt 0.125622 0.965609
vt 0.136006 0.490252
vt 0.144421 0.490252
vt 0.135991 0.965609
vt 0.137099 0.965609
vt 0.150218 0.490252
vt 0.155777 0.490252
vt 0.142869 0.965609
vt 0.143978 0.965609
vt 0.150212 0.965609
vt 0.155095 0.965609
vt 0.161543 0.490252
vt 0.177816 0.490252
vt 0.161559 0.965609
vt 0.177801 0.965609
vt 0.183587 0.490252
vt 0.199914 0.490252
vt 0.183556 0.965609
vt 0.188366 0.965609
vt 0.194107 0.965609
vt 0.195127 0.965609
vt 0.205728 0.490252
vt 0.211253 0.490252
vt 0.205695 0.965609
vt 0.206814 0.965609
vt 0.217042 0.490252
vt 0.225507 0.490252
vt 0.217057 0.965609
vt 0.218039 0.965609
vt 0.231272 0.490252
vt 0.236844 0.490252
vt 0.223831 0.965609
vt 0.224909 0.965609
vt 0.231301 0.965609
vt 0.236357 0.965609
vt 0.242619 0.490252
vt 0.258862 0.490252
vt 0.26465 0.490252
vt 0.281088 0.490252
vt 0.264665 0.965609
vt 0.280958 0.965609
vt 0.242613 0.965609
vt 0.247403 0.965609
vt 0.253184 0.965609
vt 0.254259 0.965609
vt 0.286861 0.490252
vt 0.292471 0.490252
vt 0.286873 0.965609
vt 0.287987 0.965609
vt 0.298264 0.490252
vt 0.306521 0.490252
vt 0.298248 0.965609
vt 0.299313 0.965609
vt 0.312333 0.490252
vt 0.318019 0.490252
vt 0.305118 0.965609
vt 0.306202 0.965609
vt 0.312326 0.965609
vt 0.317224 0.965609
vt 0.323826 0.490252
vt 0.340121 0.490252
vt 0.323795 0.965609
vt 0.339922 0.965609
vt 0.345945 0.490252
vt 0.362258 0.490252
vt 0.34595 0.965609
vt 0.350902 0.965609
vt 0.35672 0.965609
vt 0.357674 0.965609
vt 0.368077 0.490252
vt 0.373949 0.490252
vt 0.368041 0.965609
vt 0.369055 0.965609
vt 0.37973 0.490252
vt 0.387864 0.490252
vt 0.379752 0.965609
vt 0.380848 0.965609
vt 0.393656 0.490252
vt 0.399506 0.490252
vt 0.386643 0.965609
vt 0.387601 0.965609
vt 0.393637 0.965609
vt 0.398493 0.965609
vt 0.405296 0.490252
vt 0.421689 0.490252
vt 0.405331 0.965609
vt 0.42131 0.965609
vt 0.427451 0.490252
vt 0.443791 0.490252
vt 0.427433 0.965609
vt 0.432229 0.965609
vt 0.437975 0.965609
vt 0.439 0.965609
vt 0.449596 0.490252
vt 0.455469 0.490252
vt 0.44957 0.965609
vt 0.450679 0.965609
vt 0.461262 0.490252
vt 0.46937 0.490252
vt 0.46126 0.965609
vt 0.462264 0.965609
vt 0.475149 0.490252
vt 0.481166 0.490252
vt 0.468023 0.965609
vt 0.46903 0.965609
vt 0.475172 0.965609
vt 0.479882 0.965609
vt 0.486936 0.490252
vt 0.503203 0.490252
vt 0.486959 0.965609
vt 0.500543 0.965609
vt 0.50899 0.490252
vt 0.522653 0.490252
vt 0.52844 0.490252
vt 0.544707 0.490252
vt 0.508952 0.965609
vt 0.513518 0.965609
vt 0.519274 0.965609
vt 0.52028 0.965609
vt 0.528454 0.965609
vt 0.534604 0.965609
vt 0.540372 0.965609
vt 0.541375 0.965609
vt 0.550471 0.490252
vt 0.55845 0.490252
vt 0.550466 0.965609
vt 0.551575 0.965609
vt 0.56424 0.490252
vt 0.570248 0.490252
vt 0.55733 0.965609
vt 0.558355 0.965609
vt 0.564241 0.965609
vt 0.568871 0.965609
vt 0.576043 0.490252
vt 0.592383 0.490252
vt 0.576024 0.965609
vt 0.592173 0.965609
vt 0.598145 0.490252
vt 0.614537 0.490252
vt 0.598196 0.965609
vt 0.602906 0.965609
vt 0.608729 0.965609
vt 0.609687 0.965609
vt 0.620323 0.490252
vt 0.626297 0.490252
vt 0.620297 0.965609
vt 0.621393 0.965609
vt 0.632087 0.490252
vt 0.640101 0.490252
vt 0.63209 0.965609
vt 0.633104 0.965609
vt 0.645873 0.490252
vt 0.651883 0.490252
vt 0.638884 0.965609
vt 0.639839 0.965609
vt 0.645855 0.965609
vt 0.65064 0.965609
vt 0.65769 0.490252
vt 0.674004 0.490252
vt 0.657697 0.965609
vt 0.673996 0.965609
vt 0.679828 0.490252
vt 0.696123 0.490252
vt 0.679805 0.965609
vt 0.684566 0.965609
vt 0.690357 0.965609
vt 0.691441 0.965609
vt 0.701927 0.490252
vt 0.707732 0.490252
vt 0.701947 0.965609
vt 0.703011 0.965609
vt 0.713486 0.490252
vt 0.721626 0.490252
vt 0.713502 0.965609
vt 0.714616 0.965609
vt 0.727363 0.490252
vt 0.733088 0.490252
vt 0.720401 0.965609
vt 0.721475 0.965609
vt 0.727391 0.965609
vt 0.732028 0.965609
vt 0.738875 0.490252
vt 0.755169 0.490252
vt 0.76096 0.490252
vt 0.77757 0.490252
vt 0.738844 0.965609
vt 0.755086 0.965609
vt 0.760959 0.965609
vt 0.765877 0.965609
vt 0.771649 0.965609
vt 0.772728 0.965609
vt 0.783326 0.490252
vt 0.789027 0.490252
vt 0.783335 0.965609
vt 0.784318 0.965609
vt 0.794793 0.490252
vt 0.803129 0.490252
vt 0.79479 0.965609
vt 0.795908 0.965609
vt 0.808918 0.490252
vt 0.814571 0.490252
vt 0.801661 0.965609
vt 0.802681 0.965609
vt 0.808905 0.965609
vt 0.813552 0.965609
vt 0.820378 0.490252
vt 0.836705 0.490252
vt 0.84252 0.490252
vt 0.858934 0.490252
vt 0.820348 0.965609
vt 0.836621 0.965609
vt 0.842507 0.965609
vt 0.847252 0.965609
vt 0.853039 0.965609
vt 0.854148 0.965609
vt 0.864742 0.490252
vt 0.870421 0.490252
vt 0.864734 0.965609
vt 0.865842 0.965609
vt 0.876225 0.490252
vt 0.884506 0.490252
vt 0.876211 0.965609
vt 0.877297 0.965609
vt 0.890338 0.490252
vt 0.89619 0.490252
vt 0.883092 0.965609
vt 0.884174 0.965609
vt 0.890319 0.965609
vt 0.894833 0.965609
vt 0.902014 0.490252
vt 0.918222 0.490252
vt 0.924007 0.490252
vt 0.940715 0.490252
vt 0.902004 0.965609
vt 0.918232 0.965609
vt 0.924044 0.965609
vt 0.928755 0.965609
vt 0.934543 0.965609
vt 0.935568 0.965609
vt 0.946479 0.490252
vt 0.952525 0.490252
vt 0.946466 0.965609
vt 0.947493 0.965609
vt 0.958281 0.490252
vt 0.966406 0.490252
vt 0.958276 0.965609
vt 0.959416 0.965609
vt 0.972186 0.490252
vt 0.977839 0.490252
vt 0.965176 0.965609
vt 0.966161 0.965609
vt 0.972188 0.965609
vt 0.97692 0.965609
vt 0.983623 0.490252
vt 0.999881 0.490252
vt 0.983619 0.965609
vt 1 0.965609
vt 0.0022843 0.25544
vt 0.0022843 0.730797
vt 0.0184506 0.25544
vt 0.0184506 0.730797
vt 0.0347888 0.25544
vt 0.0328397 0.730797
vt 0.0457957 0.25544
vt 0.0435599 0.730797
vt 0.0585223 0.25544
vt 0.0548534 0.730797
vt 0.0714209 0.25544
vt 0.061618 0.730797
vt 0.070905 0.730797
vt 0.0882751 0.25544
vt 0.110461 0.25544
vt 0.0882751 0.730797
vt 0.104499 0.730797
vt 0.113155 0.730797
vt 0.127372 0.25544
vt 0.125079 0.730797
vt 0.140214 0.25544
vt 0.136545 0.730797
vt 0.152998 0.25544
vt 0.143424 0.730797
vt 0.152654 0.730797
vt 0.16968 0.25544
vt 0.16968 0.730797
vt 0.191751 0.25544
vt 0.185961 0.730797
vt 0.194617 0.730797
vt 0.20849 0.25544
vt 0.206255 0.730797
vt 0.221274 0.25544
vt 0.217548 0.730797
vt 0.234058 0.25544
vt 0.22437 0.730797
vt 0.233829 0.730797
vt 0.25074 0.25544
vt 0.272869 0.25544
vt 0.272811 0.730797
vt 0.245008 0.730797
vt 0.253721 0.730797
vt 0.289666 0.25544
vt 0.28743 0.730797
vt 0.302392 0.25544
vt 0.298781 0.730797
vt 0.315176 0.25544
vt 0.30566 0.730797
vt 0.314775 0.730797
vt 0.331973 0.25544
vt 0.331858 0.730797
vt 0.354101 0.25544
vt 0.348426 0.730797
vt 0.357197 0.730797
vt 0.371013 0.25544
vt 0.368548 0.730797
vt 0.383797 0.25544
vt 0.3803 0.730797
vt 0.396581 0.25544
vt 0.387122 0.730797
vt 0.396065 0.730797
vt 0.413492 0.25544
vt 0.41332 0.730797
vt 0.435621 0.25544
vt 0.429831 0.730797
vt 0.438487 0.730797
vt 0.452532 0.25544
vt 0.450125 0.730797
vt 0.465316 0.25544
vt 0.461762 0.730797
vt 0.478158 0.25544
vt 0.468527 0.730797
vt 0.477527 0.730797
vt 0.495069 0.25544
vt 0.493751 0.730797
vt 0.515822 0.25544
vt 0.536574 0.25544
vt 0.511235 0.730797
vt 0.519777 0.730797
vt 0.531529 0.730797
vt 0.540874 0.730797
vt 0.55446 0.25544
vt 0.55102 0.730797
vt 0.567244 0.25544
vt 0.557842 0.730797
vt 0.566556 0.730797
vt 0.584213 0.25544
vt 0.584098 0.730797
vt 0.606341 0.25544
vt 0.600551 0.730797
vt 0.609208 0.730797
vt 0.62331 0.25544
vt 0.620845 0.730797
vt 0.636094 0.25544
vt 0.632597 0.730797
vt 0.648878 0.25544
vt 0.639362 0.730797
vt 0.648247 0.730797
vt 0.665847 0.25544
vt 0.665847 0.730797
vt 0.687975 0.25544
vt 0.682185 0.730797
vt 0.690899 0.730797
vt 0.704829 0.25544
vt 0.702479 0.730797
vt 0.717556 0.25544
vt 0.714059 0.730797
vt 0.730225 0.25544
vt 0.720938 0.730797
vt 0.729709 0.730797
vt 0.747022 0.25544
vt 0.769265 0.25544
vt 0.746965 0.730797
vt 0.763418 0.730797
vt 0.772189 0.730797
vt 0.786177 0.25544
vt 0.783826 0.730797
vt 0.798961 0.25544
vt 0.795349 0.730797
vt 0.811745 0.25544
vt 0.802171 0.730797
vt 0.811229 0.730797
vt 0.828541 0.25544
vt 0.850727 0.25544
vt 0.828484 0.730797
vt 0.84488 0.730797
vt 0.853593 0.730797
vt 0.867581 0.25544
vt 0.865288 0.730797
vt 0.880365 0.25544
vt 0.876754 0.730797
vt 0.893264 0.25544
vt 0.883633 0.730797
vt 0.892576 0.730797
vt 0.910118 0.25544
vt 0.932361 0.25544
vt 0.910118 0.730797
vt 0.926399 0.730797
vt 0.935055 0.730797
vt 0.949502 0.25544
vt 0.94698 0.730797
vt 0.962343 0.25544
vt 0.958846 0.730797
vt 0.975013 0.25544
vt 0.965668 0.730797
vt 0.974554 0.730797
vt 0.991752 0.25544
vt 0.991809 0.730797


# Vertex Surface Normals: 
vn 0 0 1
vn 0 0 -1
vn 0.887347 -0.461102 0
vn 0.887347 -0.461102 -1.49406e-18
vn 0.887347 -0.461102 -1.49406e-18
vn 0.887347 -0.461102 1.49406e-18
vn 0.887347 -0.461102 1.49406e-18
vn -0.874438 0.485137 0
vn -0.874438 0.485137 3.94765e-17
vn -0.874438 0.485137 3.94765e-17
vn -0.874438 0.485137 -3.94765e-17
vn -0.874438 0.485137 -3.94765e-17
vn 0 1 0
vn 0 1 0
vn 0 1 0
vn 0 1 0
vn 0 1 0
vn 0.904106 0.427308 0
vn 0.904106 0.427308 0
vn 0.904106 0.427308 0
vn 0.904106 0.427308 0
vn 0.904106 0.427308 0
vn 0.00717966 0.999974 0
vn 0.00717966 0.999974 0
vn 0.00717966 0.999974 0
vn 0.00717966 0.999974 0
vn 0.00717966 0.999974 0
vn -0.853983 0.520301 0
vn -0.853983 0.520301 4.01004e-17
vn -0.853983 0.520301 4.01004e-17
vn -0.853983 0.520301 -4.01004e-17
vn -0.853983 0.520301 -4.01004e-17
vn 0 1 0
vn 0 1 0
vn 0 1 0
vn 0 1 0
vn 0 1 0
vn 0.72122 0.692706 0
vn 0.72122 0.692706 0
vn 0.72122 0.692706 0
vn 0.72122 0.692706 0
vn 0.72122 0.692706 0
vn 0.00228719 0.999997 0
vn 0.00228719 0.999997 -1.07071e-19
vn 0.00228719 0.999997 -1.07071e-19
vn 0.00228719 0.999997 1.07071e-19
vn 0.00228719 0.999997 1.07071e-19
vn -0.818718 0.574196 0
vn -0.818718 0.574196 0
vn -0.818718 0.574196 0
vn -0.818718 0.574196 0
vn -0.818718 0.574196 0
vn 0 1 0
vn 0 1 0
vn 0 1 0
vn 0 1 0
vn 0 1 0
vn 0.820468 0.571693 0
vn 0.820468 0.571693 3.85942e-17
vn 0.820468 0.571693 3.85942e-17
vn 0.820468 0.571693 -3.85942e-17
vn 0.820468 0.571693 -3.85942e-17
vn 0 1 0
vn 0 1 0
vn 0 1 0
vn 0 1 0
vn 0 1 0
vn -0.909687 0.415294 0
vn -0.909687 0.415294 0
vn -0.909687 0.415294 0
vn -0.909687 0.415294 0
vn -0.909687 0.415294 0
vn 0 1 0
vn 0 1 0
vn 0 1 0
vn 0 1 0
vn 0 1 0
vn 0.908558 0.417759 0
vn 0.908558 0.417759 0
vn 0.908558 0.417759 0
vn 0.908558 0.417759 0
vn 0.908558 0.417759 0
vn 0.00763375 0.999971 0
vn 0.00763375 0.999971 0
vn 0.00763375 0.999971 0
vn 0.00763375 0.999971 0
vn 0.00763375 0.999971 0
vn -0.777106 0.62937 0
vn -0.777106 0.62937 0
vn -0.777106 0.62937 0
vn -0.777106 0.62937 0
vn -0.777106 0.62937 0
vn 0 1 0
vn 0 1 0
vn 0 1 0
vn 0 1 0
vn 0 1 0
vn 0.755638 0.654989 0
vn 0.755638 0.654989 0
vn 0.755638 0.654989 0
vn 0.755638 0.654989 0
vn 0.755638 0.654989 0
vn 0.0025007 0.999997 0
vn 0.0025007 0.999997 0
vn 0.0025007 0.999997 0
vn 0.0025007 0.999997 0
vn 0.0025007 0.999997 0
vn -0.787186 0.616715 0
vn -0.787186 0.616715 -1.85023e-17
vn -0.787186 0.616715 -1.85023e-17
vn -0.787186 0.616715 1.85023e-17
vn -0.787186 0.616715 1.85023e-17
vn 0 1 0
vn 0 1 0
vn 0 1 0
vn 0 1 0
vn 0 1 0
vn 0.786558 0.617517 0
vn 0.786558 0.617517 1.85519e-17
vn 0.786558 0.617517 1.85519e-17
vn 0.786558 0.617517 -1.85519e-17
vn 0.786558 0.617517 -1.85519e-17
vn 0 1 0
vn 0 1 0
vn 0 1 0
vn 0 1 0
vn 0 1 0
vn -0.90715 0.420807 0
vn -0.90715 0.420807 2.09134e-17
vn -0.90715 0.420807 2.09134e-17
vn -0.90715 0.420807 -2.09134e-17
vn -0.90715 0.420807 -2.09134e-17
vn 0 1 0
vn 0 1 0
vn 0 1 0
vn 0 1 0
vn 0 1 0
vn 0.902009 0.431717 0
vn 0.902009 0.431717 8.77585e-18
vn 0.902009 0.431717 8.77585e-18
vn 0.902009 0.431717 -8.77585e-18
vn 0.902009 0.431717 -8.77585e-18
vn 0.00725772 0.999974 0
vn 0.00725772 0.999974 8.12724e-20
vn 0.00725772 0.999974 8.12724e-20
vn 0.00725772 0.999974 -8.12724e-20
vn 0.00725772 0.999974 -8.12724e-20
vn -0.855814 0.517284 0
vn -0.855814 0.517284 0
vn -0.855814 0.517284 0
vn -0.855814 0.517284 0
vn -0.855814 0.517284 0
vn 0 1 0
vn 0 1 0
vn 0 1 0
vn 0 1 0
vn 0 1 0
vn 0.780911 0.624643 0
vn 0.780911 0.624643 9.06892e-18
vn 0.780911 0.624643 9.06892e-18
vn 0.780911 0.624643 -9.06892e-18
vn 0.780911 0.624643 -9.06892e-18
vn 0 1 0
vn 0 1 0
vn 0 1 0
vn 0 1 0
vn 0 1 0
vn -0.862833 0.505488 0
vn -0.862833 0.505488 0
vn -0.862833 0.505488 0
vn -0.862833 0.505488 0
vn -0.862833 0.505488 0
vn 0 1 0
vn 0 1 0
vn 0 1 0
vn 0 1 0
vn 0 1 0
vn 0.786203 0.617968 0
vn 0.786203 0.617968 0
vn 0.786203 0.617968 0
vn 0.786203 0.617968 0
vn 0.786203 0.617968 0
vn 0 1 0
vn 0 1 0
vn 0 1 0
vn 0 1 0
vn 0 1 0
vn -0.908862 0.417097 0
vn -0.908862 0.417097 -1.10283e-18
vn -0.908862 0.417097 -1.10283e-18
vn -0.908862 0.417097 1.10283e-18
vn -0.908862 0.417097 1.10283e-18
vn 0 1 0
vn 0 1 0
vn 0 1 0
vn 0 1 0
vn 0 1 0
vn 0.903856 0.427838 0
vn 0.903856 0.427838 -5.49648e-18
vn 0.903856 0.427838 -5.49648e-18
vn 0.903856 0.427838 5.49648e-18
vn 0.903856 0.427838 5.49648e-18
vn 0.00733844 0.999973 0
vn 0.00733844 0.999973 3.70998e-20
vn 0.00733844 0.999973 3.70998e-20
vn 0.00733844 0.999973 -3.70998e-20
vn 0.00733844 0.999973 -3.70998e-20
vn -0.783382 0.621541 0
vn -0.783382 0.621541 0
vn -0.783382 0.621541 0
vn -0.783382 0.621541 0
vn -0.783382 0.621541 0
vn 0 1 0
vn 0 1 0
vn 0 1 0
vn 0 1 0
vn 0 1 0
vn 0.755455 0.6552 0
vn 0.755455 0.6552 8.85089e-18
vn 0.755455 0.6552 8.85089e-18
vn 0.755455 0.6552 -8.85089e-18
vn 0.755455 0.6552 -8.85089e-18
vn 0 1 0
vn 0 1 0
vn 0 1 0
vn 0 1 0
vn 0 1 0
vn -0.790548 0.6124 0
vn -0.790548 0.6124 0
vn -0.790548 0.6124 0
vn -0.790548 0.6124 0
vn -0.790548 0.6124 0
vn 0 1 0
vn 0 1 0
vn 0 1 0
vn 0 1 0
vn 0 1 0
vn 0.77635 0.630302 0
vn 0.77635 0.630302 9.16198e-18
vn 0.77635 0.630302 9.16198e-18
vn 0.77635 0.630302 -9.16198e-18
vn 0.77635 0.630302 -9.16198e-18
vn 0 1 0
vn 0 1 0
vn 0 1 0
vn 0 1 0
vn 0 1 0
vn -0.905914 0.423462 0
vn -0.905914 0.423462 -2.08843e-17
vn -0.905914 0.423462 -2.08843e-17
vn -0.905914 0.423462 2.08843e-17
vn -0.905914 0.423462 2.08843e-17
vn 0 1 0
vn 0 1 0
vn 0 1 0
vn 0 1 0
vn 0 1 0
vn 0.90275 0.430166 0
vn 0.90275 0.430166 -2.1958e-17
vn 0.90275 0.430166 -2.1958e-17
vn 0.90275 0.430166 2.1958e-17
vn 0.90275 0.430166 2.1958e-17
vn 0.00704956 0.999975 0
vn 0.00704956 0.999975 1.65027e-19
vn 0.00704956 0.999975 1.65027e-19
vn 0.00704956 0.999975 -1.65027e-19
vn 0.00704956 0.999975 -1.65027e-19
vn -0.881707 0.471797 0
vn -0.881707 0.471797 -2.07394e-17
vn -0.881707 0.471797 -2.07394e-17
vn -0.881707 0.471797 2.07394e-17
vn -0.881707 0.471797 2.07394e-17
vn 0 1 0
vn 0 1 0
vn 0 1 0
vn 0 1 0
vn 0 1 0
vn 0.829867 0.557961 0
vn 0.829867 0.557961 3.9037e-17
vn 0.829867 0.557961 3.9037e-17
vn 0.829867 0.557961 -3.9037e-17
vn 0.829867 0.557961 -3.9037e-17
vn 0 1 0
vn 0 1 0
vn 0 1 0
vn 0 1 0
vn 0 1 0
vn -0.745624 0.666367 0
vn -0.745624 0.666367 -3.50294e-17
vn -0.745624 0.666367 -3.50294e-17
vn -0.745624 0.666367 3.50294e-17
vn -0.745624 0.666367 3.50294e-17
vn 0 1 0
vn 0 1 0
vn 0 1 0
vn 0 1 0
vn 0 1 0
vn 0.852386 0.522913 0
vn 0.852386 0.522913 4.00525e-17
vn 0.852386 0.522913 4.00525e-17
vn 0.852386 0.522913 -4.00525e-17
vn 0.852386 0.522913 -4.00525e-17
vn 0 1 0
vn 0 1 0
vn 0 1 0
vn 0 1 0
vn 0 1 0
vn -0.900538 0.434778 0
vn -0.900538 0.434778 -4.15151e-17
vn -0.900538 0.434778 -4.15151e-17
vn -0.900538 0.434778 4.15151e-17
vn -0.900538 0.434778 4.15151e-17
vn 0 1 0
vn 0 1 0
vn 0 1 0
vn 0 1 0
vn 0 1 0
vn 0.901276 0.433246 0
vn 0.901276 0.433246 -4.2746e-17
vn 0.901276 0.433246 -4.2746e-17
vn 0.901276 0.433246 4.2746e-17
vn 0.901276 0.433246 4.2746e-17
vn 0.0072292 0.999974 0
vn 0.0072292 0.999974 3.40873e-19
vn 0.0072292 0.999974 3.40873e-19
vn 0.0072292 0.999974 -3.40873e-19
vn 0.0072292 0.999974 -3.40873e-19
vn -0.872446 0.48871 0
vn -0.872446 0.48871 0
vn -0.872446 0.48871 0
vn -0.872446 0.48871 0
vn -0.872446 0.48871 0
vn 0 1 0
vn 0 1 0
vn 0 1 0
vn 0 1 0
vn 0 1 0
vn 0.806782 0.590849 0
vn 0.806782 0.590849 0
vn 0.806782 0.590849 0
vn 0.806782 0.590849 0
vn 0.806782 0.590849 0
vn 0 1 0
vn 0 1 0
vn 0 1 0
vn 0 1 0
vn 0 1 0
vn -0.838155 0.545432 0
vn -0.838155 0.545432 0
vn -0.838155 0.545432 0
vn -0.838155 0.545432 0
vn -0.838155 0.545432 0
vn 0 1 0
vn 0 1 0
vn 0 1 0
vn 0 1 0
vn 0 1 0
vn 0.835976 0.548765 0
vn 0.835976 0.548765 3.92538e-17
vn 0.835976 0.548765 3.92538e-17
vn 0.835976 0.548765 -3.92538e-17
vn 0.835976 0.548765 -3.92538e-17
vn 0 1 0
vn 0 1 0
vn 0 1 0
vn 0 1 0
vn 0 1 0
vn -0.902739 0.430188 0
vn -0.902739 0.430188 0
vn -0.902739 0.430188 0
vn -0.902739 0.430188 0
vn -0.902739 0.430188 0
vn 0 1 0
vn 0 1 0
vn 0 1 0
vn 0 1 0
vn 0 1 0
vn -0.00896103 -0.99996 0
vn -0.00896103 -0.99996 -5.36595e-18
vn -0.00896103 -0.99996 -5.36595e-18
vn -0.00896103 -0.99996 5.36595e-18
vn -0.00896103 -0.99996 5.36595e-18
vn 0.902739 -0.430188 0
vn 0.902739 -0.430188 4.18421e-17
vn 0.902739 -0.430188 4.18421e-17
vn 0.902739 -0.430188 -4.18421e-17
vn 0.902739 -0.430188 -4.18421e-17
vn 0 -1 0
vn 0 -1 0
vn 0 -1 0
vn 0 -1 0
vn 0 -1 0
vn -0.835976 -0.548765 0
vn -0.835976 -0.548765 -3.92538e-17
vn -0.835976 -0.548765 -3.92538e-17
vn -0.835976 -0.548765 3.92538e-17
vn -0.835976 -0.548765 3.92538e-17
vn 0 -1 0
vn 0 -1 0
vn 0 -1 0
vn 0 -1 0
vn 0 -1 0
vn 0.838155 -0.545432 0
vn 0.838155 -0.545432 0
vn 0.838155 -0.545432 0
vn 0.838155 -0.545432 0
vn 0.838155 -0.545432 0
vn 0 -1 0
vn 0 -1 0
vn 0 -1 0
vn 0 -1 0
vn 0 -1 0
vn -0.806782 -0.590849 0
vn -0.806782 -0.590849 0
vn -0.806782 -0.590849 0
vn -0.806782 -0.590849 0
vn -0.806782 -0.590849 0
vn 0 -1 0
vn 0 -1 0
vn 0 -1 0
vn 0 -1 0
vn 0 -1 0
vn 0.872446 -0.48871 0
vn 0.872446 -0.48871 -4.09841e-17
vn 0.872446 -0.48871 -4.09841e-17
vn 0.872446 -0.48871 4.09841e-17
vn 0.872446 -0.48871 4.09841e-17
vn 0 -1 0
vn 0 -1 0
vn 0 -1 0
vn 0 -1 0
vn 0 -1 0
vn -0.901273 -0.433252 0
vn -0.901273 -0.433252 4.16505e-17
vn -0.901273 -0.433252 4.16505e-17
vn -0.901273 -0.433252 -4.16505e-17
vn -0.901273 -0.433252 -4.16505e-17
vn -0.00216174 -0.999998 0
vn -0.00216174 -0.999998 -2.88163e-18
vn -0.00216174 -0.999998 -2.88163e-18
vn -0.00216174 -0.999998 2.88163e-18
vn -0.00216174 -0.999998 2.88163e-18
vn 0.900538 -0.434778 0
vn 0.900538 -0.434778 -4.15151e-17
vn 0.900538 -0.434778 -4.15151e-17
vn 0.900538 -0.434778 4.15151e-17
vn 0.900538 -0.434778 4.15151e-17
vn 0 -1 0
vn 0 -1 0
vn 0 -1 0
vn 0 -1 0
vn 0 -1 0
vn -0.852386 -0.522913 0
vn -0.852386 -0.522913 4.00525e-17
vn -0.852386 -0.522913 4.00525e-17
vn -0.852386 -0.522913 -4.00525e-17
vn -0.852386 -0.522913 -4.00525e-17
vn 0 -1 0
vn 0 -1 0
vn 0 -1 0
vn 0 -1 0
vn 0 -1 0
vn 0.745624 -0.666367 0
vn 0.745624 -0.666367 0
vn 0.745624 -0.666367 0
vn 0.745624 -0.666367 0
vn 0.745624 -0.666367 0
vn 0 -1 0
vn 0 -1 0
vn 0 -1 0
vn 0 -1 0
vn 0 -1 0
vn -0.829758 -0.558124 0
vn -0.829758 -0.558124 -3.89614e-17
vn -0.829758 -0.558124 -3.89614e-17
vn -0.829758 -0.558124 3.89614e-17
vn -0.829758 -0.558124 3.89614e-17
vn 0 -1 0
vn 0 -1 0
vn 0 -1 0
vn 0 -1 0
vn 0 -1 0
vn 0.881707 -0.471797 0
vn 0.881707 -0.471797 2.07394e-17
vn 0.881707 -0.471797 2.07394e-17
vn 0.881707 -0.471797 -2.07394e-17
vn 0.881707 -0.471797 -2.07394e-17
vn 0 -1 0
vn 0 -1 0
vn 0 -1 0
vn 0 -1 0
vn 0 -1 0
vn -0.90275 -0.430166 0
vn -0.90275 -0.430166 -2.08601e-17
vn -0.90275 -0.430166 -2.08601e-17
vn -0.90275 -0.430166 2.08601e-17
vn -0.90275 -0.430166 2.08601e-17
vn -0.00214192 -0.999998 0
vn -0.00214192 -0.999998 -2.82886e-18
vn -0.00214192 -0.999998 -2.82886e-18
vn -0.00214192 -0.999998 2.82886e-18
vn -0.00214192 -0.999998 2.82886e-18
vn 0.905914 -0.423462 0
vn 0.905914 -0.423462 0
vn 0.905914 -0.423462 0
vn 0.905914 -0.423462 0
vn 0.905914 -0.423462 0
vn 0 -1 0
vn 0 -1 0
vn 0 -1 0
vn 0 -1 0
vn 0 -1 0
vn -0.77635 -0.630302 0
vn -0.77635 -0.630302 -9.16198e-18
vn -0.77635 -0.630302 -9.16198e-18
vn -0.77635 -0.630302 9.16198e-18
vn -0.77635 -0.630302 9.16198e-18
vn 0 -1 0
vn 0 -1 0
vn 0 -1 0
vn 0 -1 0
vn 0 -1 0
vn 0.790331 -0.61268 0
vn 0.790331 -0.61268 -9.26011e-18
vn 0.790331 -0.61268 -9.26011e-18
vn 0.790331 -0.61268 9.26011e-18
vn 0.790331 -0.61268 9.26011e-18
vn 0 -1 0
vn 0 -1 0
vn 0 -1 0
vn 0 -1 0
vn 0 -1 0
vn -0.755455 -0.6552 0
vn -0.755455 -0.6552 0
vn -0.755455 -0.6552 0
vn -0.755455 -0.6552 0
vn -0.755455 -0.6552 0
vn 0 -1 0
vn 0 -1 0
vn 0 -1 0
vn 0 -1 0
vn 0 -1 0
vn 0.783382 -0.621541 0
vn 0.783382 -0.621541 0
vn 0.783382 -0.621541 0
vn 0.783382 -0.621541 0
vn 0.783382 -0.621541 0
vn 0 -1 0
vn 0 -1 0
vn 0 -1 0
vn 0 -1 0
vn 0 -1 0
vn -0.903858 -0.427832 0
vn -0.903858 -0.427832 0
vn -0.903858 -0.427832 0
vn -0.903858 -0.427832 0
vn -0.903858 -0.427832 0
vn -0.00210171 -0.999998 0
vn -0.00210171 -0.999998 -2.88402e-18
vn -0.00210171 -0.999998 -2.88402e-18
vn -0.00210171 -0.999998 2.88402e-18
vn -0.00210171 -0.999998 2.88402e-18
vn 0.908862 -0.417097 0
vn 0.908862 -0.417097 1.10283e-18
vn 0.908862 -0.417097 1.10283e-18
vn 0.908862 -0.417097 -1.10283e-18
vn 0.908862 -0.417097 -1.10283e-18
vn 0 -1 0
vn 0 -1 0
vn 0 -1 0
vn 0 -1 0
vn 0 -1 0
vn -0.786203 -0.617968 0
vn -0.786203 -0.617968 0
vn -0.786203 -0.617968 0
vn -0.786203 -0.617968 0
vn -0.786203 -0.617968 0
vn 0 -1 0
vn 0 -1 0
vn 0 -1 0
vn 0 -1 0
vn 0 -1 0
vn 0.862833 -0.505488 0
vn 0.862833 -0.505488 0
vn 0.862833 -0.505488 0
vn 0.862833 -0.505488 0
vn 0.862833 -0.505488 0
vn 0 -1 0
vn 0 -1 0
vn 0 -1 0
vn 0 -1 0
vn 0 -1 0
vn -0.780911 -0.624643 0
vn -0.780911 -0.624643 -9.06892e-18
vn -0.780911 -0.624643 -9.06892e-18
vn -0.780911 -0.624643 9.06892e-18
vn -0.780911 -0.624643 9.06892e-18
vn 0 -1 0
vn 0 -1 0
vn 0 -1 0
vn 0 -1 0
vn 0 -1 0
vn 0.855814 -0.517284 0
vn 0.855814 -0.517284 -1.00801e-17
vn 0.855814 -0.517284 -1.00801e-17
vn 0.855814 -0.517284 1.00801e-17
vn 0.855814 -0.517284 1.00801e-17
vn 0 -1 0
vn 0 -1 0
vn 0 -1 0
vn 0 -1 0
vn 0 -1 0
vn -0.902009 -0.431717 0
vn -0.902009 -0.431717 1.09698e-17
vn -0.902009 -0.431717 1.09698e-17
vn -0.902009 -0.431717 -1.09698e-17
vn -0.902009 -0.431717 -1.09698e-17
vn -0.00212691 -0.999998 0
vn -0.00212691 -0.999998 -2.87678e-18
vn -0.00212691 -0.999998 -2.87678e-18
vn -0.00212691 -0.999998 2.87678e-18
vn -0.00212691 -0.999998 2.87678e-18
vn 0.90715 -0.420807 0
vn 0.90715 -0.420807 2.09134e-17
vn 0.90715 -0.420807 2.09134e-17
vn 0.90715 -0.420807 -2.09134e-17
vn 0.90715 -0.420807 -2.09134e-17
vn 0 -1 0
vn 0 -1 0
vn 0 -1 0
vn 0 -1 0
vn 0 -1 0
vn -0.786558 -0.617517 0
vn -0.786558 -0.617517 -1.85519e-17
vn -0.786558 -0.617517 -1.85519e-17
vn -0.786558 -0.617517 1.85519e-17
vn -0.786558 -0.617517 1.85519e-17
vn 0 -1 0
vn 0 -1 0
vn 0 -1 0
vn 0 -1 0
vn 0 -1 0
vn 0.787186 -0.616715 0
vn 0.787186 -0.616715 -1.85023e-17
vn 0.787186 -0.616715 -1.85023e-17
vn 0.787186 -0.616715 1.85023e-17
vn 0.787186 -0.616715 1.85023e-17
vn 0 -1 0
vn 0 -1 0
vn 0 -1 0
vn 0 -1 0
vn 0 -1 0
vn -0.755638 -0.654989 0
vn -0.755638 -0.654989 0
vn -0.755638 -0.654989 0
vn -0.755638 -0.654989 0
vn -0.755638 -0.654989 0
vn -0.00359592 -0.999994 0
vn -0.00359592 -0.999994 0
vn -0.00359592 -0.999994 0
vn -0.00359592 -0.999994 0
vn -0.00359592 -0.999994 0
vn 0.777106 -0.62937 0
vn 0.777106 -0.62937 0
vn 0.777106 -0.62937 0
vn 0.777106 -0.62937 0
vn 0.777106 -0.62937 0
vn 0 -1 0
vn 0 -1 0
vn 0 -1 0
vn 0 -1 0
vn 0 -1 0
vn -0.908555 -0.417765 0
vn -0.908555 -0.417765 0
vn -0.908555 -0.417765 0
vn -0.908555 -0.417765 0
vn -0.908555 -0.417765 0
vn -0.00214678 -0.999998 0
vn -0.00214678 -0.999998 -2.87529e-18
vn -0.00214678 -0.999998 -2.87529e-18
vn -0.00214678 -0.999998 2.87529e-18
vn -0.00214678 -0.999998 2.87529e-18
vn 0.909687 -0.415294 0
vn 0.909687 -0.415294 0
vn 0.909687 -0.415294 0
vn 0.909687 -0.415294 0
vn 0.909687 -0.415294 0
vn 0 -1 0
vn 0 -1 0
vn 0 -1 0
vn 0 -1 0
vn 0 -1 0
vn -0.820468 -0.571693 0
vn -0.820468 -0.571693 0
vn -0.820468 -0.571693 0
vn -0.820468 -0.571693 0
vn -0.820468 -0.571693 0
vn 0 -1 0
vn 0 -1 0
vn 0 -1 0
vn 0 -1 0
vn 0 -1 0
vn 0.818718 -0.574196 0
vn 0.818718 -0.574196 7.70236e-17
vn 0.818718 -0.574196 7.70236e-17
vn 0.818718 -0.574196 -7.70236e-17
vn 0.818718 -0.574196 -7.70236e-17
vn 0 -1 0
vn 0 -1 0
vn 0 -1 0
vn 0 -1 0
vn 0 -1 0
vn -0.72122 -0.692706 0
vn -0.72122 -0.692706 3.39478e-17
vn -0.72122 -0.692706 3.39478e-17
vn -0.72122 -0.692706 -3.39478e-17
vn -0.72122 -0.692706 -3.39478e-17
vn -0.00334177 -0.999994 0
vn -0.00334177 -0.999994 0
vn -0.00334177 -0.999994 0
vn -0.00334177 -0.999994 0
vn -0.00334177 -0.999994 0
vn 0.853983 -0.520301 0
vn 0.853983 -0.520301 0
vn 0.853983 -0.520301 0
vn 0.853983 -0.520301 0
vn 0.853983 -0.520301 0
vn 0 -1 0
vn 0 -1 0
vn 0 -1 0
vn 0 -1 0
vn 0 -1 0
vn -0.904109 -0.427302 0
vn -0.904109 -0.427302 0
vn -0.904109 -0.427302 0
vn -0.904109 -0.427302 0
vn -0.904109 -0.427302 0
vn -0.00213113 -0.999998 0
vn -0.00213113 -0.999998 9.82226e-20
vn -0.00213113 -0.999998 9.82226e-20
vn -0.00213113 -0.999998 -9.82226e-20
vn -0.00213113 -0.999998 -9.82226e-20


# Faces: 
usemtl material0
f 224/76/1 225/77/1 223/75/1
f 223/75/1 225/77/1 226/78/1
f 236/88/1 237/89/1 212/64/1
f 212/64/1 235/87/1 236/88/1
f 211/63/1 212/64/1 237/89/1
f 211/63/1 237/89/1 238/90/1
f 232/84/1 233/85/1 215/67/1
f 228/80/1 229/81/1 219/71/1
f 219/71/1 220/72/1 228/80/1
f 219/71/1 229/81/1 230/82/1
f 240/92/1 241/93/1 208/60/1
f 234/86/1 215/67/1 233/85/1
f 231/83/1 232/84/1 216/68/1
f 208/60/1 241/93/1 207/59/1
f 232/84/1 215/67/1 216/68/1
f 239/91/1 240/92/1 208/60/1
f 227/79/1 228/80/1 220/72/1
f 200/52/1 248/100/1 249/101/1
f 244/96/1 245/97/1 203/55/1
f 247/99/1 248/100/1 200/52/1
f 250/102/1 199/51/1 249/101/1
f 261/113/1 187/39/1 188/40/1
f 188/40/1 260/112/1 261/113/1
f 249/101/1 199/51/1 200/52/1
f 188/40/1 259/111/1 260/112/1
f 244/96/1 203/55/1 204/56/1
f 246/98/1 203/55/1 245/97/1
f 195/47/1 196/48/1 252/104/1
f 252/104/1 196/48/1 251/103/1
f 252/104/1 253/105/1 195/47/1
f 204/56/1 243/95/1 244/96/1
f 256/108/1 191/43/1 192/44/1
f 191/43/1 256/108/1 257/109/1
f 258/110/1 191/43/1 257/109/1
f 256/108/1 192/44/1 255/107/1
f 195/47/1 253/105/1 254/106/1
f 226/78/1 227/79/1 221/73/1
f 230/82/1 231/83/1 217/69/1
f 230/82/1 218/70/1 219/71/1
f 214/66/1 215/67/1 234/86/1
f 212/64/1 213/65/1 235/87/1
f 238/90/1 210/62/1 211/63/1
f 238/90/1 239/91/1 209/61/1
f 209/61/1 239/91/1 208/60/1
f 234/86/1 235/87/1 214/66/1
f 222/74/1 226/78/1 221/73/1
f 218/70/1 230/82/1 217/69/1
f 220/72/1 221/73/1 227/79/1
f 217/69/1 231/83/1 216/68/1
f 210/62/1 238/90/1 209/61/1
f 235/87/1 213/65/1 214/66/1
f 207/59/1 242/94/1 206/58/1
f 226/78/1 222/74/1 223/75/1
f 243/95/1 205/57/1 206/58/1
f 242/94/1 207/59/1 241/93/1
f 246/98/1 247/99/1 202/54/1
f 203/55/1 246/98/1 202/54/1
f 250/102/1 251/103/1 197/49/1
f 250/102/1 198/50/1 199/51/1
f 254/106/1 255/107/1 193/45/1
f 195/47/1 254/106/1 194/46/1
f 200/52/1 201/53/1 247/99/1
f 204/56/1 205/57/1 243/95/1
f 202/54/1 247/99/1 201/53/1
f 197/49/1 198/50/1 250/102/1
f 259/111/1 189/41/1 190/42/1
f 189/41/1 259/111/1 188/40/1
f 194/46/1 254/106/1 193/45/1
f 255/107/1 192/44/1 193/45/1
f 197/49/1 251/103/1 196/48/1
f 259/111/1 190/42/1 258/110/1
f 258/110/1 190/42/1 191/43/1
f 243/95/1 206/58/1 242/94/1
f 179/31/1 268/120/1 269/121/1
f 176/28/1 273/125/1 175/27/1
f 273/125/1 176/28/1 272/124/1
f 175/27/1 273/125/1 274/126/1
f 276/128/1 277/129/1 171/23/1
f 272/124/1 176/28/1 271/123/1
f 264/116/1 265/117/1 183/35/1
f 183/35/1 184/36/1 264/116/1
f 183/35/1 265/117/1 266/118/1
f 269/121/1 270/122/1 179/31/1
f 180/32/1 268/120/1 179/31/1
f 276/128/1 171/23/1 172/24/1
f 275/127/1 276/128/1 172/24/1
f 267/119/1 268/120/1 180/32/1
f 277/129/1 278/130/1 171/23/1
f 263/115/1 264/116/1 184/36/1
f 284/136/1 285/137/1 164/16/1
f 164/16/1 283/135/1 284/136/1
f 163/15/1 164/16/1 285/137/1
f 296/148/1 149/1/1 152/4/1
f 151/3/1 152/4/1 149/1/1
f 150/2/1 151/3/1 149/1/1
f 296/148/1 152/4/1 295/147/1
f 167/19/1 281/133/1 282/134/1
f 167/19/1 168/20/1 281/133/1
f 163/15/1 285/137/1 286/138/1
f 287/139/1 288/140/1 160/12/1
f 288/140/1 159/11/1 160/12/1
f 168/20/1 280/132/1 281/133/1
f 289/141/1 290/142/1 159/11/1
f 156/8/1 292/144/1 293/145/1
f 291/143/1 292/144/1 156/8/1
f 293/145/1 155/7/1 156/8/1
f 289/141/1 159/11/1 288/140/1
f 168/20/1 279/131/1 280/132/1
f 262/114/1 263/115/1 185/37/1
f 266/118/1 267/119/1 181/33/1
f 266/118/1 182/34/1 183/35/1
f 270/122/1 271/123/1 178/30/1
f 274/126/1 275/127/1 173/25/1
f 278/130/1 170/22/1 171/23/1
f 172/24/1 173/25/1 275/127/1
f 174/26/1 175/27/1 274/126/1
f 176/28/1 177/29/1 271/123/1
f 270/122/1 178/30/1 179/31/1
f 186/38/1 262/114/1 185/37/1
f 182/34/1 266/118/1 181/33/1
f 184/36/1 185/37/1 263/115/1
f 181/33/1 267/119/1 180/32/1
f 174/26/1 274/126/1 173/25/1
f 271/123/1 177/29/1 178/30/1
f 278/130/1 279/131/1 170/22/1
f 186/38/1 187/39/1 262/114/1
f 168/20/1 169/21/1 279/131/1
f 282/134/1 166/18/1 167/19/1
f 164/16/1 165/17/1 283/135/1
f 286/138/1 162/14/1 163/15/1
f 282/134/1 283/135/1 166/18/1
f 290/142/1 158/10/1 159/11/1
f 290/142/1 291/143/1 158/10/1
f 157/9/1 291/143/1 156/8/1
f 154/6/1 155/7/1 294/146/1
f 293/145/1 294/146/1 155/7/1
f 286/138/1 287/139/1 161/13/1
f 283/135/1 165/17/1 166/18/1
f 161/13/1 162/14/1 286/138/1
f 295/147/1 153/5/1 154/6/1
f 153/5/1 295/147/1 152/4/1
f 158/10/1 291/143/1 157/9/1
f 161/13/1 287/139/1 160/12/1
f 154/6/1 294/146/1 295/147/1
f 279/131/1 169/21/1 170/22/1
f 262/114/1 187/39/1 261/113/1
f 77/225/2 76/224/2 75/223/2
f 77/225/2 75/223/2 78/226/2
f 89/237/2 88/236/2 64/212/2
f 87/235/2 64/212/2 88/236/2
f 64/212/2 63/211/2 89/237/2
f 89/237/2 63/211/2 90/238/2
f 85/233/2 84/232/2 67/215/2
f 81/229/2 80/228/2 71/219/2
f 72/220/2 71/219/2 80/228/2
f 81/229/2 71/219/2 82/230/2
f 93/241/2 92/240/2 60/208/2
f 67/215/2 86/234/2 85/233/2
f 84/232/2 83/231/2 68/216/2
f 93/241/2 60/208/2 59/207/2
f 67/215/2 84/232/2 68/216/2
f 92/240/2 91/239/2 60/208/2
f 80/228/2 79/227/2 72/220/2
f 100/248/2 52/200/2 101/249/2
f 97/245/2 96/244/2 55/203/2
f 100/248/2 99/247/2 52/200/2
f 51/199/2 102/250/2 101/249/2
f 39/187/2 113/261/2 40/188/2
f 112/260/2 40/188/2 113/261/2
f 51/199/2 101/249/2 52/200/2
f 111/259/2 40/188/2 112/260/2
f 55/203/2 96/244/2 56/204/2
f 55/203/2 98/246/2 97/245/2
f 48/196/2 47/195/2 104/252/2
f 48/196/2 104/252/2 103/251/2
f 105/253/2 104/252/2 47/195/2
f 95/243/2 56/204/2 96/244/2
f 43/191/2 108/256/2 44/192/2
f 108/256/2 43/191/2 109/257/2
f 43/191/2 110/258/2 109/257/2
f 44/192/2 108/256/2 107/255/2
f 105/253/2 47/195/2 106/254/2
f 79/227/2 78/226/2 73/221/2
f 83/231/2 82/230/2 69/217/2
f 70/218/2 82/230/2 71/219/2
f 67/215/2 66/214/2 86/234/2
f 65/213/2 64/212/2 87/235/2
f 62/210/2 90/238/2 63/211/2
f 91/239/2 90/238/2 61/209/2
f 91/239/2 61/209/2 60/208/2
f 87/235/2 86/234/2 66/214/2
f 78/226/2 74/222/2 73/221/2
f 82/230/2 70/218/2 69/217/2
f 73/221/2 72/220/2 79/227/2
f 83/231/2 69/217/2 68/216/2
f 90/238/2 62/210/2 61/209/2
f 65/213/2 87/235/2 66/214/2
f 94/242/2 59/207/2 58/206/2
f 74/222/2 78/226/2 75/223/2
f 57/205/2 95/243/2 58/206/2
f 59/207/2 94/242/2 93/241/2
f 99/247/2 98/246/2 54/202/2
f 98/246/2 55/203/2 54/202/2
f 103/251/2 102/250/2 49/197/2
f 50/198/2 102/250/2 51/199/2
f 107/255/2 106/254/2 45/193/2
f 106/254/2 47/195/2 46/194/2
f 53/201/2 52/200/2 99/247/2
f 57/205/2 56/204/2 95/243/2
f 99/247/2 54/202/2 53/201/2
f 50/198/2 49/197/2 102/250/2
f 41/189/2 111/259/2 42/190/2
f 111/259/2 41/189/2 40/188/2
f 106/254/2 46/194/2 45/193/2
f 44/192/2 107/255/2 45/193/2
f 103/251/2 49/197/2 48/196/2
f 42/190/2 111/259/2 110/258/2
f 42/190/2 110/258/2 43/191/2
f 58/206/2 95/243/2 94/242/2
f 120/268/2 31/179/2 121/269/2
f 125/273/2 28/176/2 27/175/2
f 28/176/2 125/273/2 124/272/2
f 125/273/2 27/175/2 126/274/2
f 129/277/2 128/276/2 23/171/2
f 28/176/2 124/272/2 123/271/2
f 117/265/2 116/264/2 35/183/2
f 36/184/2 35/183/2 116/264/2
f 117/265/2 35/183/2 118/266/2
f 122/270/2 121/269/2 31/179/2
f 120/268/2 32/180/2 31/179/2
f 23/171/2 128/276/2 24/172/2
f 128/276/2 127/275/2 24/172/2
f 120/268/2 119/267/2 32/180/2
f 130/278/2 129/277/2 23/171/2
f 116/264/2 115/263/2 36/184/2
f 137/285/2 136/284/2 16/164/2
f 135/283/2 16/164/2 136/284/2
f 16/164/2 15/163/2 137/285/2
f 1/149/2 148/296/2 4/152/2
f 4/152/2 3/151/2 1/149/2
f 3/151/2 2/150/2 1/149/2
f 4/152/2 148/296/2 147/295/2
f 133/281/2 19/167/2 134/282/2
f 20/168/2 19/167/2 133/281/2
f 137/285/2 15/163/2 138/286/2
f 140/288/2 139/287/2 12/160/2
f 11/159/2 140/288/2 12/160/2
f 132/280/2 20/168/2 133/281/2
f 142/290/2 141/289/2 11/159/2
f 144/292/2 8/156/2 145/293/2
f 144/292/2 143/291/2 8/156/2
f 7/155/2 145/293/2 8/156/2
f 11/159/2 141/289/2 140/288/2
f 131/279/2 20/168/2 132/280/2
f 115/263/2 114/262/2 37/185/2
f 119/267/2 118/266/2 33/181/2
f 34/182/2 118/266/2 35/183/2
f 123/271/2 122/270/2 30/178/2
f 127/275/2 126/274/2 25/173/2
f 22/170/2 130/278/2 23/171/2
f 25/173/2 24/172/2 127/275/2
f 27/175/2 26/174/2 126/274/2
f 29/177/2 28/176/2 123/271/2
f 30/178/2 122/270/2 31/179/2
f 114/262/2 38/186/2 37/185/2
f 118/266/2 34/182/2 33/181/2
f 37/185/2 36/184/2 115/263/2
f 119/267/2 33/181/2 32/180/2
f 126/274/2 26/174/2 25/173/2
f 29/177/2 123/271/2 30/178/2
f 131/279/2 130/278/2 22/170/2
f 39/187/2 38/186/2 114/262/2
f 21/169/2 20/168/2 131/279/2
f 18/166/2 134/282/2 19/167/2
f 17/165/2 16/164/2 135/283/2
f 14/162/2 138/286/2 15/163/2
f 135/283/2 134/282/2 18/166/2
f 10/158/2 142/290/2 11/159/2
f 143/291/2 142/290/2 10/158/2
f 143/291/2 9/157/2 8/156/2
f 7/155/2 6/154/2 146/294/2
f 146/294/2 145/293/2 7/155/2
f 139/287/2 138/286/2 13/161/2
f 17/165/2 135/283/2 18/166/2
f 14/162/2 13/161/2 138/286/2
f 5/153/2 147/295/2 6/154/2
f 147/295/2 5/153/2 4/152/2
f 143/291/2 10/158/2 9/157/2
f 139/287/2 13/161/2 12/160/2
f 146/294/2 6/154/2 147/295/2
f 21/169/2 131/279/2 22/170/2
f 39/187/2 114/262/2 113/261/2
f 297/889/3 1/297/4 2/298/5
f 297/889/3 2/298/5 150/594/6
f 297/889/3 150/594/6 149/593/7
f 297/889/3 149/593/7 1/297/4
f 298/890/8 2/299/9 3/300/10
f 298/890/8 3/300/10 151/596/11
f 298/890/8 151/596/11 150/595/12
f 298/890/8 150/595/12 2/299/9
f 299/891/13 3/301/14 4/302/15
f 299/891/13 4/302/15 152/598/16
f 299/891/13 152/598/16 151/597/17
f 299/891/13 151/597/17 3/301/14
f 300/892/18 4/303/19 5/304/20
f 300/892/18 5/304/20 153/600/21
f 300/892/18 153/600/21 152/599/22
f 300/892/18 152/599/22 4/303/19
f 301/893/23 5/305/24 6/306/25
f 301/893/23 6/306/25 154/602/26
f 301/893/23 154/602/26 153/601/27
f 301/893/23 153/601/27 5/305/24
f 302/894/28 6/307/29 7/308/30
f 302/894/28 7/308/30 155/604/31
f 302/894/28 155/604/31 154/603/32
f 302/894/28 154/603/32 6/307/29
f 303/895/33 7/309/34 8/310/35
f 303/895/33 8/310/35 156/606/36
f 303/895/33 156/606/36 155/605/37
f 303/895/33 155/605/37 7/309/34
f 304/896/38 8/311/39 9/312/40
f 304/896/38 9/312/40 157/608/41
f 304/896/38 157/608/41 156/607/42
f 304/896/38 156/607/42 8/311/39
f 305/897/43 9/313/44 10/314/45
f 305/897/43 10/314/45 158/610/46
f 305/897/43 158/610/46 157/609/47
f 305/897/43 157/609/47 9/313/44
f 306/898/48 10/315/49 11/316/50
f 306/898/48 11/316/50 159/612/51
f 306/898/48 159/612/51 158/611/52
f 306/898/48 158/611/52 10/315/49
f 307/899/53 11/317/54 12/318/55
f 307/899/53 12/318/55 160/614/56
f 307/899/53 160/614/56 159/613/57
f 307/899/53 159/613/57 11/317/54
f 308/900/58 12/319/59 13/320/60
f 308/900/58 13/320/60 161/616/61
f 308/900/58 161/616/61 160/615/62
f 308/900/58 160/615/62 12/319/59
f 309/901/63 13/321/64 14/322/65
f 309/901/63 14/322/65 162/618/66
f 309/901/63 162/618/66 161/617/67
f 309/901/63 161/617/67 13/321/64
f 310/902/68 14/323/69 15/324/70
f 310/902/68 15/324/70 163/620/71
f 310/902/68 163/620/71 162/619/72
f 310/902/68 162/619/72 14/323/69
f 311/903/73 15/325/74 16/326/75
f 311/903/73 16/326/75 164/622/76
f 311/903/73 164/622/76 163/621/77
f 311/903/73 163/621/77 15/325/74
f 312/904/78 16/327/79 17/328/80
f 312/904/78 17/328/80 165/624/81
f 312/904/78 165/624/81 164/623/82
f 312/904/78 164/623/82 16/327/79
f 313/905/83 17/329/84 18/330/85
f 313/905/83 18/330/85 166/626/86
f 313/905/83 166/626/86 165/625/87
f 313/905/83 165/625/87 17/329/84
f 314/906/88 18/331/89 19/332/90
f 314/906/88 19/332/90 167/628/91
f 314/906/88 167/628/91 166/627/92
f 314/906/88 166/627/92 18/331/89
f 315/907/93 19/333/94 20/334/95
f 315/907/93 20/334/95 168/630/96
f 315/907/93 168/630/96 167/629/97
f 315/907/93 167/629/97 19/333/94
f 316/908/98 20/335/99 21/336/100
f 316/908/98 21/336/100 169/632/101
f 316/908/98 169/632/101 168/631/102
f 316/908/98 168/631/102 20/335/99
f 317/909/103 21/337/104 22/338/105
f 317/909/103 22/338/105 170/634/106
f 317/909/103 170/634/106 169/633/107
f 317/909/103 169/633/107 21/337/104
f 318/910/108 22/339/109 23/340/110
f 318/910/108 23/340/110 171/636/111
f 318/910/108 171/636/111 170/635/112
f 318/910/108 170/635/112 22/339/109
f 319/911/113 23/341/114 24/342/115
f 319/911/113 24/342/115 172/638/116
f 319/911/113 172/638/116 171/637/117
f 319/911/113 171/637/117 23/341/114
f 320/912/118 24/343/119 25/344/120
f 320/912/118 25/344/120 173/640/121
f 320/912/118 173/640/121 172/639/122
f 320/912/118 172/639/122 24/343/119
f 321/913/123 25/345/124 26/346/125
f 321/913/123 26/346/125 174/642/126
f 321/913/123 174/642/126 173/641/127
f 321/913/123 173/641/127 25/345/124
f 322/914/128 26/347/129 27/348/130
f 322/914/128 27/348/130 175/644/131
f 322/914/128 175/644/131 174/643/132
f 322/914/128 174/643/132 26/347/129
f 323/915/133 27/349/134 28/350/135
f 323/915/133 28/350/135 176/646/136
f 323/915/133 176/646/136 175/645/137
f 323/915/133 175/645/137 27/349/134
f 324/916/138 28/351/139 29/352/140
f 324/916/138 29/352/140 177/648/141
f 324/916/138 177/648/141 176/647/142
f 324/916/138 176/647/142 28/351/139
f 325/917/143 29/353/144 30/354/145
f 325/917/143 30/354/145 178/650/146
f 325/917/143 178/650/146 177/649/147
f 325/917/143 177/649/147 29/353/144
f 326/918/148 30/355/149 31/356/150
f 326/918/148 31/356/150 179/652/151
f 326/918/148 179/652/151 178/651/152
f 326/918/148 178/651/152 30/355/149
f 327/919/153 31/357/154 32/358/155
f 327/919/153 32/358/155 180/654/156
f 327/919/153 180/654/156 179/653/157
f 327/919/153 179/653/157 31/357/154
f 328/920/158 32/359/159 33/360/160
f 328/920/158 33/360/160 181/656/161
f 328/920/158 181/656/161 180/655/162
f 328/920/158 180/655/162 32/359/159
f 329/921/163 33/361/164 34/362/165
f 329/921/163 34/362/165 182/658/166
f 329/921/163 182/658/166 181/657/167
f 329/921/163 181/657/167 33/361/164
f 330/922/168 34/363/169 35/364/170
f 330/922/168 35/364/170 183/660/171
f 330/922/168 183/660/171 182/659/172
f 330/922/168 182/659/172 34/363/169
f 331/923/173 35/365/174 36/366/175
f 331/923/173 36/366/175 184/662/176
f 331/923/173 184/662/176 183/661/177
f 331/923/173 183/661/177 35/365/174
f 332/924/178 36/367/179 37/368/180
f 332/924/178 37/368/180 185/664/181
f 332/924/178 185/664/181 184/663/182
f 332/924/178 184/663/182 36/367/179
f 333/925/183 37/369/184 38/370/185
f 333/925/183 38/370/185 186/666/186
f 333/925/183 186/666/186 185/665/187
f 333/925/183 185/665/187 37/369/184
f 334/926/188 38/371/189 39/372/190
f 334/926/188 39/372/190 187/668/191
f 334/926/188 187/668/191 186/667/192
f 334/926/188 186/667/192 38/371/189
f 335/927/193 39/373/194 40/374/195
f 335/927/193 40/374/195 188/670/196
f 335/927/193 188/670/196 187/669/197
f 335/927/193 187/669/197 39/373/194
f 336/928/198 40/375/199 41/376/200
f 336/928/198 41/376/200 189/672/201
f 336/928/198 189/672/201 188/671/202
f 336/928/198 188/671/202 40/375/199
f 337/929/203 41/377/204 42/378/205
f 337/929/203 42/378/205 190/674/206
f 337/929/203 190/674/206 189/673/207
f 337/929/203 189/673/207 41/377/204
f 338/930/208 42/379/209 43/380/210
f 338/930/208 43/380/210 191/676/211
f 338/930/208 191/676/211 190/675/212
f 338/930/208 190/675/212 42/379/209
f 339/931/213 43/381/214 44/382/215
f 339/931/213 44/382/215 192/678/216
f 339/931/213 192/678/216 191/677/217
f 339/931/213 191/677/217 43/381/214
f 340/932/218 44/383/219 45/384/220
f 340/932/218 45/384/220 193/680/221
f 340/932/218 193/680/221 192/679/222
f 340/932/218 192/679/222 44/383/219
f 341/933/223 45/385/224 46/386/225
f 341/933/223 46/386/225 194/682/226
f 341/933/223 194/682/226 193/681/227
f 341/933/223 193/681/227 45/385/224
f 342/934/228 46/387/229 47/388/230
f 342/934/228 47/388/230 195/684/231
f 342/934/228 195/684/231 194/683/232
f 342/934/228 194/683/232 46/387/229
f 343/935/233 47/389/234 48/390/235
f 343/935/233 48/390/235 196/686/236
f 343/935/233 196/686/236 195/685/237
f 343/935/233 195/685/237 47/389/234
f 344/936/238 48/391/239 49/392/240
f 344/936/238 49/392/240 197/688/241
f 344/936/238 197/688/241 196/687/242
f 344/936/238 196/687/242 48/391/239
f 345/937/243 49/393/244 50/394/245
f 345/937/243 50/394/245 198/690/246
f 345/937/243 198/690/246 197/689/247
f 345/937/243 197/689/247 49/393/244
f 346/938/248 50/395/249 51/396/250
f 346/938/248 51/396/250 199/692/251
f 346/938/248 199/692/251 198/691/252
f 346/938/248 198/691/252 50/395/249
f 347/939/253 51/397/254 52/398/255
f 347/939/253 52/398/255 200/694/256
f 347/939/253 200/694/256 199/693/257
f 347/939/253 199/693/257 51/397/254
f 348/940/258 52/399/259 53/400/260
f 348/940/258 53/400/260 201/696/261
f 348/940/258 201/696/261 200/695/262
f 348/940/258 200/695/262 52/399/259
f 349/941/263 53/401/264 54/402/265
f 349/941/263 54/402/265 202/698/266
f 349/941/263 202/698/266 201/697/267
f 349/941/263 201/697/267 53/401/264
f 350/942/268 54/403/269 55/404/270
f 350/942/268 55/404/270 203/700/271
f 350/942/268 203/700/271 202/699/272
f 350/942/268 202/699/272 54/403/269
f 351/943/273 55/405/274 56/406/275
f 351/943/273 56/406/275 204/702/276
f 351/943/273 204/702/276 203/701/277
f 351/943/273 203/701/277 55/405/274
f 352/944/278 56/407/279 57/408/280
f 352/944/278 57/408/280 205/704/281
f 352/944/278 205/704/281 204/703/282
f 352/944/278 204/703/282 56/407/279
f 353/945/283 57/409/284 58/410/285
f 353/945/283 58/410/285 206/706/286
f 353/945/283 206/706/286 205/705/287
f 353/945/283 205/705/287 57/409/284
f 354/946/288 58/411/289 59/412/290
f 354/946/288 59/412/290 207/708/291
f 354/946/288 207/708/291 206/707/292
f 354/946/288 206/707/292 58/411/289
f 355/947/293 59/413/294 60/414/295
f 355/947/293 60/414/295 208/710/296
f 355/947/293 208/710/296 207/709/297
f 355/947/293 207/709/297 59/413/294
f 356/948/298 60/415/299 61/416/300
f 356/948/298 61/416/300 209/712/301
f 356/948/298 209/712/301 208/711/302
f 356/948/298 208/711/302 60/415/299
f 357/949/303 61/417/304 62/418/305
f 357/949/303 62/418/305 210/714/306
f 357/949/303 210/714/306 209/713/307
f 357/949/303 209/713/307 61/417/304
f 358/950/308 62/419/309 63/420/310
f 358/950/308 63/420/310 211/716/311
f 358/950/308 211/716/311 210/715/312
f 358/950/308 210/715/312 62/419/309
f 359/951/313 63/421/314 64/422/315
f 359/951/313 64/422/315 212/718/316
f 359/951/313 212/718/316 211/717/317
f 359/951/313 211/717/317 63/421/314
f 360/952/318 64/423/319 65/424/320
f 360/952/318 65/424/320 213/720/321
f 360/952/318 213/720/321 212/719/322
f 360/952/318 212/719/322 64/423/319
f 361/953/323 65/425/324 66/426/325
f 361/953/323 66/426/325 214/722/326
f 361/953/323 214/722/326 213/721/327
f 361/953/323 213/721/327 65/425/324
f 362/954/328 66/427/329 67/428/330
f 362/954/328 67/428/330 215/724/331
f 362/954/328 215/724/331 214/723/332
f 362/954/328 214/723/332 66/427/329
f 363/955/333 67/429/334 68/430/335
f 363/955/333 68/430/335 216/726/336
f 363/955/333 216/726/336 215/725/337
f 363/955/333 215/725/337 67/429/334
f 364/956/338 68/431/339 69/432/340
f 364/956/338 69/432/340 217/728/341
f 364/956/338 217/728/341 216/727/342
f 364/956/338 216/727/342 68/431/339
f 365/957/343 69/433/344 70/434/345
f 365/957/343 70/434/345 218/730/346
f 365/957/343 218/730/346 217/729/347
f 365/957/343 217/729/347 69/433/344
f 366/958/348 70/435/349 71/436/350
f 366/958/348 71/436/350 219/732/351
f 366/958/348 219/732/351 218/731/352
f 366/958/348 218/731/352 70/435/349
f 367/959/353 71/437/354 72/438/355
f 367/959/353 72/438/355 220/734/356
f 367/959/353 220/734/356 219/733/357
f 367/959/353 219/733/357 71/437/354
f 368/960/358 72/439/359 73/440/360
f 368/960/358 73/440/360 221/736/361
f 368/960/358 221/736/361 220/735/362
f 368/960/358 220/735/362 72/439/359
f 369/961/363 73/441/364 74/442/365
f 369/961/363 74/442/365 222/738/366
f 369/961/363 222/738/366 221/737/367
f 369/961/363 221/737/367 73/441/364
f 370/962/368 74/443/369 75/444/370
f 370/962/368 75/444/370 223/740/371
f 370/962/368 223/740/371 222/739/372
f 370/962/368 222/739/372 74/443/369
f 371/963/373 75/445/374 76/446/375
f 371/963/373 76/446/375 224/742/376
f 371/963/373 224/742/376 223/741/377
f 371/963/373 223/741/377 75/445/374
f 372/964/378 76/447/379 77/448/380
f 372/964/378 77/448/380 225/744/381
f 372/964/378 225/744/381 224/743/382
f 372/964/378 224/743/382 76/447/379
f 373/965/383 77/449/384 78/450/385
f 373/965/383 78/450/385 226/746/386
f 373/965/383 226/746/386 225/745/387
f 373/965/383 225/745/387 77/449/384
f 374/966/388 78/451/389 79/452/390
f 374/966/388 79/452/390 227/748/391
f 374/966/388 227/748/391 226/747/392
f 374/966/388 226/747/392 78/451/389
f 375/967/393 79/453/394 80/454/395
f 375/967/393 80/454/395 228/750/396
f 375/967/393 228/750/396 227/749/397
f 375/967/393 227/749/397 79/453/394
f 376/968/398 80/455/399 81/456/400
f 376/968/398 81/456/400 229/752/401
f 376/968/398 229/752/401 228/751/402
f 376/968/398 228/751/402 80/455/399
f 377/969/403 81/457/404 82/458/405
f 377/969/403 82/458/405 230/754/406
f 377/969/403 230/754/406 229/753/407
f 377/969/403 229/753/407 81/457/404
f 378/970/408 82/459/409 83/460/410
f 378/970/408 83/460/410 231/756/411
f 378/970/408 231/756/411 230/755/412
f 378/970/408 230/755/412 82/459/409
f 379/971/413 83/461/414 84/462/415
f 379/971/413 84/462/415 232/758/416
f 379/971/413 232/758/416 231/757/417
f 379/971/413 231/757/417 83/461/414
f 380/972/418 84/463/419 85/464/420
f 380/972/418 85/464/420 233/760/421
f 380/972/418 233/760/421 232/759/422
f 380/972/418 232/759/422 84/463/419
f 381/973/423 85/465/424 86/466/425
f 381/973/423 86/466/425 234/762/426
f 381/973/423 234/762/426 233/761/427
f 381/973/423 233/761/427 85/465/424
f 382/974/428 86/467/429 87/468/430
f 382/974/428 87/468/430 235/764/431
f 382/974/428 235/764/431 234/763/432
f 382/974/428 234/763/432 86/467/429
f 383/975/433 87/469/434 88/470/435
f 383/975/433 88/470/435 236/766/436
f 383/975/433 236/766/436 235/765/437
f 383/975/433 235/765/437 87/469/434
f 384/976/438 88/471/439 89/472/440
f 384/976/438 89/472/440 237/768/441
f 384/976/438 237/768/441 236/767/442
f 384/976/438 236/767/442 88/471/439
f 385/977/443 89/473/444 90/474/445
f 385/977/443 90/474/445 238/770/446
f 385/977/443 238/770/446 237/769/447
f 385/977/443 237/769/447 89/473/444
f 386/978/448 90/475/449 91/476/450
f 386/978/448 91/476/450 239/772/451
f 386/978/448 239/772/451 238/771/452
f 386/978/448 238/771/452 90/475/449
f 387/979/453 91/477/454 92/478/455
f 387/979/453 92/478/455 240/774/456
f 387/979/453 240/774/456 239/773/457
f 387/979/453 239/773/457 91/477/454
f 388/980/458 92/479/459 93/480/460
f 388/980/458 93/480/460 241/776/461
f 388/980/458 241/776/461 240/775/462
f 388/980/458 240/775/462 92/479/459
f 389/981/463 93/481/464 94/482/465
f 389/981/463 94/482/465 242/778/466
f 389/981/463 242/778/466 241/777/467
f 389/981/463 241/777/467 93/481/464
f 390/982/468 94/483/469 95/484/470
f 390/982/468 95/484/470 243/780/471
f 390/982/468 243/780/471 242/779/472
f 390/982/468 242/779/472 94/483/469
f 391/983/473 95/485/474 96/486/475
f 391/983/473 96/486/475 244/782/476
f 391/983/473 244/782/476 243/781/477
f 391/983/473 243/781/477 95/485/474
f 392/984/478 96/487/479 97/488/480
f 392/984/478 97/488/480 245/784/481
f 392/984/478 245/784/481 244/783/482
f 392/984/478 244/783/482 96/487/479
f 393/985/483 97/489/484 98/490/485
f 393/985/483 98/490/485 246/786/486
f 393/985/483 246/786/486 245/785/487
f 393/985/483 245/785/487 97/489/484
f 394/986/488 98/491/489 99/492/490
f 394/986/488 99/492/490 247/788/491
f 394/986/488 247/788/491 246/787/492
f 394/986/488 246/787/492 98/491/489
f 395/987/493 99/493/494 100/494/495
f 395/987/493 100/494/495 248/790/496
f 395/987/493 248/790/496 247/789/497
f 395/987/493 247/789/497 99/493/494
f 396/988/498 100/495/499 101/496/500
f 396/988/498 101/496/500 249/792/501
f 396/988/498 249/792/501 248/791/502
f 396/988/498 248/791/502 100/495/499
f 397/989/503 101/497/504 102/498/505
f 397/989/503 102/498/505 250/794/506
f 397/989/503 250/794/506 249/793/507
f 397/989/503 249/793/507 101/497/504
f 398/990/508 102/499/509 103/500/510
f 398/990/508 103/500/510 251/796/511
f 398/990/508 251/796/511 250/795/512
f 398/990/508 250/795/512 102/499/509
f 399/991/513 103/501/514 104/502/515
f 399/991/513 104/502/515 252/798/516
f 399/991/513 252/798/516 251/797/517
f 399/991/513 251/797/517 103/501/514
f 400/992/518 104/503/519 105/504/520
f 400/992/518 105/504/520 253/800/521
f 400/992/518 253/800/521 252/799/522
f 400/992/518 252/799/522 104/503/519
f 401/993/523 105/505/524 106/506/525
f 401/993/523 106/506/525 254/802/526
f 401/993/523 254/802/526 253/801/527
f 401/993/523 253/801/527 105/505/524
f 402/994/528 106/507/529 107/508/530
f 402/994/528 107/508/530 255/804/531
f 402/994/528 255/804/531 254/803/532
f 402/994/528 254/803/532 106/507/529
f 403/995/533 107/509/534 108/510/535
f 403/995/533 108/510/535 256/806/536
f 403/995/533 256/806/536 255/805/537
f 403/995/533 255/805/537 107/509/534
f 404/996/538 108/511/539 109/512/540
f 404/996/538 109/512/540 257/808/541
f 404/996/538 257/808/541 256/807/542
f 404/996/538 256/807/542 108/511/539
f 405/997/543 109/513/544 110/514/545
f 405/997/543 110/514/545 258/810/546
f 405/997/543 258/810/546 257/809/547
f 405/997/543 257/809/547 109/513/544
f 406/998/548 110/515/549 111/516/550
f 406/998/548 111/516/550 259/812/551
f 406/998/548 259/812/551 258/811/552
f 406/998/548 258/811/552 110/515/549
f 407/999/553 111/517/554 112/518/555
f 407/999/553 112/518/555 260/814/556
f 407/999/553 260/814/556 259/813/557
f 407/999/553 259/813/557 111/517/554
f 408/1000/558 112/519/559 113/520/560
f 408/1000/558 113/520/560 261/816/561
f 408/1000/558 261/816/561 260/815/562
f 408/1000/558 260/815/562 112/519/559
f 409/1001/563 113/521/564 114/522/565
f 409/1001/563 114/522/565 262/818/566
f 409/1001/563 262/818/566 261/817/567
f 409/1001/563 261/817/567 113/521/564
f 410/1002/568 114/523/569 115/524/570
f 410/1002/568 115/524/570 263/820/571
f 410/1002/568 263/820/571 262/819/572
f 410/1002/568 262/819/572 114/523/569
f 411/1003/573 115/525/574 116/526/575
f 411/1003/573 116/526/575 264/822/576
f 411/1003/573 264/822/576 263/821/577
f 411/1003/573 263/821/577 115/525/574
f 412/1004/578 116/527/579 117/528/580
f 412/1004/578 117/528/580 265/824/581
f 412/1004/578 265/824/581 264/823/582
f 412/1004/578 264/823/582 116/527/579
f 413/1005/583 117/529/584 118/530/585
f 413/1005/583 118/530/585 266/826/586
f 413/1005/583 266/826/586 265/825/587
f 413/1005/583 265/825/587 117/529/584
f 414/1006/588 118/531/589 119/532/590
f 414/1006/588 119/532/590 267/828/591
f 414/1006/588 267/828/591 266/827/592
f 414/1006/588 266/827/592 118/531/589
f 415/1007/593 119/533/594 120/534/595
f 415/1007/593 120/534/595 268/830/596
f 415/1007/593 268/830/596 267/829/597
f 415/1007/593 267/829/597 119/533/594
f 416/1008/598 120/535/599 121/536/600
f 416/1008/598 121/536/600 269/832/601
f 416/1008/598 269/832/601 268/831/602
f 416/1008/598 268/831/602 120/535/599
f 417/1009/603 121/537/604 122/538/605
f 417/1009/603 122/538/605 270/834/606
f 417/1009/603 270/834/606 269/833/607
f 417/1009/603 269/833/607 121/537/604
f 418/1010/608 122/539/609 123/540/610
f 418/1010/608 123/540/610 271/836/611
f 418/1010/608 271/836/611 270/835/612
f 418/1010/608 270/835/612 122/539/609
f 419/1011/613 123/541/614 124/542/615
f 419/1011/613 124/542/615 272/838/616
f 419/1011/613 272/838/616 271/837/617
f 419/1011/613 271/837/617 123/541/614
f 420/1012/618 124/543/619 125/544/620
f 420/1012/618 125/544/620 273/840/621
f 420/1012/618 273/840/621 272/839/622
f 420/1012/618 272/839/622 124/543/619
f 421/1013/623 125/545/624 126/546/625
f 421/1013/623 126/546/625 274/842/626
f 421/1013/623 274/842/626 273/841/627
f 421/1013/623 273/841/627 125/545/624
f 422/1014/628 126/547/629 127/548/630
f 422/1014/628 127/548/630 275/844/631
f 422/1014/628 275/844/631 274/843/632
f 422/1014/628 274/843/632 126/547/629
f 423/1015/633 127/549/634 128/550/635
f 423/1015/633 128/550/635 276/846/636
f 423/1015/633 276/846/636 275/845/637
f 423/1015/633 275/845/637 127/549/634
f 424/1016/638 128/551/639 129/552/640
f 424/1016/638 129/552/640 277/848/641
f 424/1016/638 277/848/641 276/847/642
f 424/1016/638 276/847/642 128/551/639
f 425/1017/643 129/553/644 130/554/645
f 425/1017/643 130/554/645 278/850/646
f 425/1017/643 278/850/646 277/849/647
f 425/1017/643 277/849/647 129/553/644
f 426/1018/648 130/555/649 131/556/650
f 426/1018/648 131/556/650 279/852/651
f 426/1018/648 279/852/651 278/851/652
f 426/1018/648 278/851/652 130/555/649
f 427/1019/653 131/557/654 132/558/655
f 427/1019/653 132/558/655 280/854/656
f 427/1019/653 280/854/656 279/853/657
f 427/1019/653 279/853/657 131/557/654
f 428/1020/658 132/559/659 133/560/660
f 428/1020/658 133/560/660 281/856/661
f 428/1020/658 281/856/661 280/855/662
f 428/1020/658 280/855/662 132/559/659
f 429/1021/663 133/561/664 134/562/665
f 429/1021/663 134/562/665 282/858/666
f 429/1021/663 282/858/666 281/857/667
f 429/1021/663 281/857/667 133/561/664
f 430/1022/668 134/563/669 135/564/670
f 430/1022/668 135/564/670 283/860/671
f 430/1022/668 283/860/671 282/859/672
f 430/1022/668 282/859/672 134/563/669
f 431/1023/673 135/565/674 136/566/675
f 431/1023/673 136/566/675 284/862/676
f 431/1023/673 284/862/676 283/861/677
f 431/1023/673 283/861/677 135/565/674
f 432/1024/678 136/567/679 137/568/680
f 432/1024/678 137/568/680 285/864/681
f 432/1024/678 285/864/681 284/863/682
f 432/1024/678 284/863/682 136/567/679
f 433/1025/683 137/569/684 138/570/685
f 433/1025/683 138/570/685 286/866/686
f 433/1025/683 286/866/686 285/865/687
f 433/1025/683 285/865/687 137/569/684
f 434/1026/688 138/571/689 139/572/690
f 434/1026/688 139/572/690 287/868/691
f 434/1026/688 287/868/691 286/867/692
f 434/1026/688 286/867/692 138/571/689
f 435/1027/693 139/573/694 140/574/695
f 435/1027/693 140/574/695 288/870/696
f 435/1027/693 288/870/696 287/869/697
f 435/1027/693 287/869/697 139/573/694
f 436/1028/698 140/575/699 141/576/700
f 436/1028/698 141/576/700 289/872/701
f 436/1028/698 289/872/701 288/871/702
f 436/1028/698 288/871/702 140/575/699
f 437/1029/703 141/577/704 142/578/705
f 437/1029/703 142/578/705 290/874/706
f 437/1029/703 290/874/706 289/873/707
f 437/1029/703 289/873/707 141/577/704
f 438/1030/708 142/579/709 143/580/710
f 438/1030/708 143/580/710 291/876/711
f 438/1030/708 291/876/711 290/875/712
f 438/1030/708 290/875/712 142/579/709
f 439/1031/713 143/581/714 144/582/715
f 439/1031/713 144/582/715 292/878/716
f 439/1031/713 292/878/716 291/877/717
f 439/1031/713 291/877/717 143/581/714
f 440/1032/718 144/583/719 145/584/720
f 440/1032/718 145/584/720 293/880/721
f 440/1032/718 293/880/721 292/879/722
f 440/1032/718 292/879/722 144/583/719
f 441/1033/723 145/585/724 146/586/725
f 441/1033/723 146/586/725 294/882/726
f 441/1033/723 294/882/726 293/881/727
f 441/1033/723 293/881/727 145/585/724
f 442/1034/728 146/587/729 147/588/730
f 442/1034/728 147/588/730 295/884/731
f 442/1034/728 295/884/731 294/883/732
f 442/1034/728 294/883/732 146/587/729
f 443/1035/733 147/589/734 148/590/735
f 443/1035/733 148/590/735 296/886/736
f 443/1035/733 296/886/736 295/885/737
f 443/1035/733 295/885/737 147/589/734
f 444/1036/738 148/591/739 1/592/740
f 444/1036/738 1/592/740 149/888/741
f 444/1036/738 149/888/741 296/887/742
f 444/1036/738 296/887/742 148/591/739
