mtllib New-PR-01.mtl
# Vertex Positions: 
g groupNumber_0
v 15.9326 -0.646845 -16.9263
v 16.0806 -0.31234 -16.9263
v 16.0483 -0.298068 -16.9263
v 15.9097 -0.611545 -16.9263
v 14.8451 -0.611597 -16.9263
v 14.0342 0.638968 -16.9263
v 11.4857 0.647017 -16.9263
v 10.7753 -0.611597 -16.9263
v 9.71758 -0.611597 -16.9263
v 8.90675 0.638968 -16.9263
v 6.35815 0.647017 -16.9263
v 5.64785 -0.611597 -16.9263
v 4.59098 -0.611597 -16.9263
v 3.78015 0.638968 -16.9263
v 1.23155 0.647017 -16.9263
v 0.521244 -0.611597 -16.9263
v -0.532413 -0.611597 -16.9263
v -1.34324 0.638968 -16.9263
v -3.89184 0.647017 -16.9263
v -4.60215 -0.611597 -16.9263
v -5.65657 -0.611597 -16.9263
v -6.4674 0.638968 -16.9263
v -9.01603 0.647017 -16.9263
v -9.72634 -0.611597 -16.9263
v -10.7868 -0.611597 -16.9263
v -11.5976 0.638968 -16.9263
v -14.1462 0.647017 -16.9263
v -14.8566 -0.611597 -16.9263
v -15.9097 -0.611717 -16.9263
v -16.0483 -0.29824 -16.9263
v -16.0806 -0.312512 -16.9263
v -15.9326 -0.647017 -16.9263
v -14.8359 -0.646897 -16.9263
v -14.1256 0.611717 -16.9263
v -11.622 0.611717 -16.9263
v -10.8112 -0.638847 -16.9263
v -9.70573 -0.646897 -16.9263
v -8.99542 0.611717 -16.9263
v -6.4918 0.611717 -16.9263
v -5.68097 -0.638847 -16.9263
v -4.58154 -0.646897 -16.9263
v -3.87123 0.611717 -16.9263
v -1.36765 0.611717 -16.9263
v -0.55682 -0.638847 -16.9263
v 0.541858 -0.646897 -16.9263
v 1.25217 0.611717 -16.9263
v 3.75574 0.611717 -16.9263
v 4.56658 -0.638847 -16.9263
v 5.66846 -0.646897 -16.9263
v 6.37877 0.611717 -16.9263
v 8.88235 0.611717 -16.9263
v 9.69318 -0.638847 -16.9263
v 10.796 -0.646897 -16.9263
v 11.5063 0.611717 -16.9263
v 14.0098 0.611717 -16.9263
v 14.8207 -0.638847 -16.9263
v 15.9326 -0.646845 16.9263
v 16.0806 -0.31234 16.9263
v 16.0483 -0.298068 16.9263
v 15.9097 -0.611545 16.9263
v 14.8451 -0.611597 16.9263
v 14.0342 0.638968 16.9263
v 11.4857 0.647017 16.9263
v 10.7753 -0.611597 16.9263
v 9.71758 -0.611597 16.9263
v 8.90675 0.638968 16.9263
v 6.35815 0.647017 16.9263
v 5.64785 -0.611597 16.9263
v 4.59098 -0.611597 16.9263
v 3.78015 0.638968 16.9263
v 1.23155 0.647017 16.9263
v 0.521244 -0.611597 16.9263
v -0.532413 -0.611597 16.9263
v -1.34324 0.638968 16.9263
v -3.89184 0.647017 16.9263
v -4.60215 -0.611597 16.9263
v -5.65657 -0.611597 16.9263
v -6.4674 0.638968 16.9263
v -9.01603 0.647017 16.9263
v -9.72634 -0.611597 16.9263
v -10.7868 -0.611597 16.9263
v -11.5976 0.638968 16.9263
v -14.1462 0.647017 16.9263
v -14.8566 -0.611597 16.9263
v -15.9097 -0.611717 16.9263
v -16.0483 -0.29824 16.9263
v -16.0806 -0.312512 16.9263
v -15.9326 -0.647017 16.9263
v -14.8359 -0.646897 16.9263
v -14.1256 0.611717 16.9263
v -11.622 0.611717 16.9263
v -10.8112 -0.638847 16.9263
v -9.70573 -0.646897 16.9263
v -8.99542 0.611717 16.9263
v -6.4918 0.611717 16.9263
v -5.68097 -0.638847 16.9263
v -4.58154 -0.646897 16.9263
v -3.87123 0.611717 16.9263
v -1.36765 0.611717 16.9263
v -0.55682 -0.638847 16.9263
v 0.541858 -0.646897 16.9263
v 1.25217 0.611717 16.9263
v 3.75574 0.611717 16.9263
v 4.56658 -0.638847 16.9263
v 5.66846 -0.646897 16.9263
v 6.37877 0.611717 16.9263
v 8.88235 0.611717 16.9263
v 9.69318 -0.638847 16.9263
v 10.796 -0.646897 16.9263
v 11.5063 0.611717 16.9263
v 14.0098 0.611717 16.9263
v 14.8207 -0.638847 16.9263
v 16.0066 -0.479592 0
v 16.0644 -0.305204 0
v 15.979 -0.454806 0
v 15.3774 -0.611571 0
v 14.4397 0.0136856 0
v 12.76 0.642993 0
v 11.1305 0.0177103 0
v 10.2465 -0.611597 0
v 9.31217 0.0136856 0
v 7.63245 0.642993 0
v 6.003 0.0177103 0
v 5.11941 -0.611597 0
v 4.18557 0.0136856 0
v 2.50585 0.642993 0
v 0.876398 0.0177103 0
v -0.00558458 -0.611597 0
v -0.937829 0.0136856 0
v -2.61754 0.642993 0
v -4.247 0.0177103 0
v -5.12936 -0.611597 0
v -6.06198 0.0136856 0
v -7.74171 0.642993 0
v -9.37119 0.0177103 0
v -10.2566 -0.611597 0
v -11.1922 0.0136856 0
v -12.8719 0.642993 0
v -14.5014 0.0177103 0
v -15.3831 -0.611657 0
v -15.979 -0.454979 0
v -16.0644 -0.305376 0
v -16.0066 -0.479765 0
v -15.3843 -0.646957 0
v -14.4808 -0.0175897 0
v -12.8738 0.611717 0
v -11.2166 -0.013565 0
v -10.2585 -0.642872 0
v -9.35057 -0.0175897 0
v -7.74361 0.611717 0
v -6.08639 -0.013565 0
v -5.13126 -0.642872 0
v -4.22638 -0.0175897 0
v -2.61944 0.611717 0
v -0.962235 -0.013565 0
v -0.00748057 -0.642872 0
v 0.897013 -0.0175897 0
v 2.50396 0.611717 0
v 4.16116 -0.013565 0
v 5.11752 -0.642872 0
v 6.02361 -0.0175897 0
v 7.63056 0.611717 0
v 9.28776 -0.013565 0
v 10.2446 -0.642872 0
v 11.1511 -0.0175897 0
v 12.7581 0.611717 0
v 14.4153 -0.013565 0
v 15.3766 -0.642846 0


# Vertex Texture Coordinates :
vt 0.458462 2.46839e-06
vt 0.46058 0.00479293
vt 0.460118 0.00499731
vt 0.458133 0.000508
vt 0.442887 0.00050726
vt 0.431275 0.0184166
vt 0.394776 0.0185319
vt 0.384604 0.00050726
vt 0.369456 0.00050726
vt 0.357844 0.0184166
vt 0.321345 0.0185319
vt 0.311173 0.00050726
vt 0.296038 0.00050726
vt 0.284426 0.0184166
vt 0.247927 0.0185319
vt 0.237755 0.00050726
vt 0.222666 0.00050726
vt 0.211054 0.0184166
vt 0.174555 0.0185319
vt 0.164383 0.00050726
vt 0.149282 0.00050726
vt 0.137671 0.0184166
vt 0.101172 0.0185319
vt 0.0909992 0.00050726
vt 0.0758125 0.00050726
vt 0.0642006 0.0184166
vt 0.0277021 0.0185319
vt 0.0175292 0.00050726
vt 0.00244768 0.000505532
vt 0.000462088 0.00499484
vt 0 0.00479046
vt 0.00211889 0
vt 0.0178244 1.72781e-06
vt 0.0279973 0.0180264
vt 0.063851 0.0180264
vt 0.075463 0.000117003
vt 0.0912944 1.72781e-06
vt 0.101467 0.0180264
vt 0.137321 0.0180264
vt 0.148933 0.000117003
vt 0.164678 1.72781e-06
vt 0.17485 0.0180264
vt 0.210704 0.0180264
vt 0.222316 0.000117003
vt 0.23805 1.72781e-06
vt 0.248223 0.0180264
vt 0.284076 0.0180264
vt 0.295688 0.000117003
vt 0.311468 1.72781e-06
vt 0.321641 0.0180264
vt 0.357494 0.0180264
vt 0.369106 0.000117003
vt 0.384899 1.72781e-06
vt 0.395072 0.0180264
vt 0.430925 0.0180264
vt 0.442537 0.000117003
vt 0.468695 2.46839e-06
vt 0.466576 0.00479293
vt 0.467038 0.00499731
vt 0.469024 0.000508
vt 0.48427 0.00050726
vt 0.495881 0.0184166
vt 0.53238 0.0185319
vt 0.542552 0.00050726
vt 0.5577 0.00050726
vt 0.569312 0.0184166
vt 0.605811 0.0185319
vt 0.615983 0.00050726
vt 0.631119 0.00050726
vt 0.642731 0.0184166
vt 0.679229 0.0185319
vt 0.689401 0.00050726
vt 0.704491 0.00050726
vt 0.716103 0.0184166
vt 0.752601 0.0185319
vt 0.762774 0.00050726
vt 0.777874 0.00050726
vt 0.789486 0.0184166
vt 0.825985 0.0185319
vt 0.836157 0.00050726
vt 0.851344 0.00050726
vt 0.862956 0.0184166
vt 0.899454 0.0185319
vt 0.909627 0.00050726
vt 0.924709 0.000505532
vt 0.926694 0.00499484
vt 0.927156 0.00479046
vt 0.925037 0
vt 0.909332 1.72781e-06
vt 0.899159 0.0180264
vt 0.863305 0.0180264
vt 0.851693 0.000117003
vt 0.835862 1.72781e-06
vt 0.82569 0.0180264
vt 0.789835 0.0180264
vt 0.778223 0.000117003
vt 0.762478 1.72781e-06
vt 0.752306 0.0180264
vt 0.716452 0.0180264
vt 0.70484 0.000117003
vt 0.689106 1.72781e-06
vt 0.678934 0.0180264
vt 0.64308 0.0180264
vt 0.631468 0.000117003
vt 0.615688 1.72781e-06
vt 0.605516 0.0180264
vt 0.569662 0.0180264
vt 0.55805 0.000117003
vt 0.542257 1.72781e-06
vt 0.532085 0.0180264
vt 0.496231 0.0180264
vt 0.484619 0.000117003
vt 5.3115e-06 0.0244752
vt 0.00524346 0.0244752
vt 4.54501e-06 0.515197
vt 0.000509816 0.515197
vt 0.0112367 0.0244752
vt 0.0161455 0.0244752
vt 0.0221059 0.0244752
vt 0.0373518 0.0244752
vt 0.0433205 0.0244752
vt 0.0646649 0.0244752
vt 0.0706596 0.0244752
vt 0.107158 0.0244752
vt 0.0432892 0.515197
vt 0.0639861 0.515197
vt 0.0220956 0.515197
vt 0.0372438 0.515197
vt 0.0706617 0.515197
vt 0.0920061 0.515197
vt 0.113151 0.0244752
vt 0.14965 0.0244752
vt 0.113122 0.515197
vt 0.133819 0.515197
vt 0.155612 0.0244752
vt 0.170748 0.0244752
vt 0.176712 0.0244752
vt 0.198057 0.0244752
vt 0.204052 0.0244752
vt 0.24055 0.0244752
vt 0.176681 0.515197
vt 0.197378 0.515197
vt 0.155635 0.515197
vt 0.170725 0.515197
vt 0.204054 0.515197
vt 0.225398 0.515197
vt 0.246543 0.0244752
vt 0.283042 0.0244752
vt 0.246514 0.515197
vt 0.267211 0.515197
vt 0.289022 0.0244752
vt 0.304122 0.0244752
vt 0.310104 0.0244752
vt 0.331449 0.0244752
vt 0.337443 0.0244752
vt 0.373942 0.0244752
vt 0.310073 0.515197
vt 0.33077 0.515197
vt 0.337447 0.515197
vt 0.352634 0.515197
vt 0.379937 0.0244752
vt 0.401281 0.0244752
vt 0.407276 0.0244752
vt 0.443775 0.0244752
vt 0.379905 0.515197
vt 0.400603 0.515197
vt 0.289031 0.515197
vt 0.304113 0.515197
vt 0.0112367 0.515197
vt 0.0161455 0.515197
vt 0.0980068 0.515197
vt 0.0985121 0.515197
vt 0.2314 0.515197
vt 0.236638 0.515197
vt 0.407257 0.515197
vt 0.422962 0.515197
vt 0.449738 0.0244752
vt 0.470435 0.0244752
vt 0.476366 0.0244752
vt 0.51222 0.0244752
vt 0.476401 0.515197
vt 0.497745 0.515197
vt 0.449744 0.515197
vt 0.465576 0.515197
vt 0.51815 0.0244752
vt 0.538847 0.0244752
vt 0.544778 0.0244752
vt 0.580632 0.0244752
vt 0.544813 0.515197
vt 0.566157 0.515197
vt 0.5182 0.515197
vt 0.533945 0.515197
vt 0.586562 0.0244752
vt 0.607259 0.0244752
vt 0.61319 0.0244752
vt 0.649044 0.0244752
vt 0.613225 0.515197
vt 0.634569 0.515197
vt 0.586558 0.515197
vt 0.602293 0.515197
vt 0.654975 0.0244752
vt 0.675672 0.0244752
vt 0.681602 0.0244752
vt 0.717456 0.0244752
vt 0.681637 0.515197
vt 0.702981 0.515197
vt 0.655007 0.515197
vt 0.670787 0.515197
vt 0.723387 0.0244752
vt 0.744084 0.0244752
vt 0.750015 0.0244752
vt 0.785868 0.0244752
vt 0.750049 0.515197
vt 0.771394 0.515197
vt 0.723412 0.515197
vt 0.739206 0.515197
vt 0.791799 0.0244752
vt 0.812496 0.0244752
vt 0.818427 0.0244752
vt 0.854281 0.0244752
vt 0.818461 0.515197
vt 0.839806 0.515197
vt 0.791818 0.515197
vt 0.807743 0.515197
vt 5.3115e-06 0.509279
vt 0.00524346 0.509279
vt 4.54501e-06 1
vt 0.000509816 1
vt 0.0112367 0.509279
vt 0.0161455 0.509279
vt 0.0221059 0.509279
vt 0.0373518 0.509279
vt 0.0433205 0.509279
vt 0.0646649 0.509279
vt 0.0706596 0.509279
vt 0.107158 0.509279
vt 0.0432892 1
vt 0.0639861 1
vt 0.0220956 1
vt 0.0372438 1
vt 0.0706617 1
vt 0.0920061 1
vt 0.113151 0.509279
vt 0.14965 0.509279
vt 0.113122 1
vt 0.133819 1
vt 0.155612 0.509279
vt 0.170748 0.509279
vt 0.176712 0.509279
vt 0.198057 0.509279
vt 0.204052 0.509279
vt 0.24055 0.509279
vt 0.176681 1
vt 0.197378 1
vt 0.155635 1
vt 0.170725 1
vt 0.204054 1
vt 0.225398 1
vt 0.246543 0.509279
vt 0.283042 0.509279
vt 0.246514 1
vt 0.267211 1
vt 0.289022 0.509279
vt 0.304122 0.509279
vt 0.310104 0.509279
vt 0.331449 0.509279
vt 0.337443 0.509279
vt 0.373942 0.509279
vt 0.310073 1
vt 0.33077 1
vt 0.337447 1
vt 0.352634 1
vt 0.379937 0.509279
vt 0.401281 0.509279
vt 0.407276 0.509279
vt 0.443775 0.509279
vt 0.379905 1
vt 0.400603 1
vt 0.289031 1
vt 0.304113 1
vt 0.0112367 1
vt 0.0161455 1
vt 0.0980068 1
vt 0.0985121 1
vt 0.2314 1
vt 0.236638 1
vt 0.407257 1
vt 0.422962 1
vt 0.449738 0.509279
vt 0.470435 0.509279
vt 0.476366 0.509279
vt 0.51222 0.509279
vt 0.476401 1
vt 0.497745 1
vt 0.449744 1
vt 0.465576 1
vt 0.51815 0.509279
vt 0.538847 0.509279
vt 0.544778 0.509279
vt 0.580632 0.509279
vt 0.544813 1
vt 0.566157 1
vt 0.5182 1
vt 0.533945 1
vt 0.586562 0.509279
vt 0.607259 0.509279
vt 0.61319 0.509279
vt 0.649044 0.509279
vt 0.613225 1
vt 0.634569 1
vt 0.586558 1
vt 0.602293 1
vt 0.654975 0.509279
vt 0.675672 0.509279
vt 0.681602 0.509279
vt 0.717456 0.509279
vt 0.681637 1
vt 0.702981 1
vt 0.655007 1
vt 0.670787 1
vt 0.723387 0.509279
vt 0.744084 0.509279
vt 0.750015 0.509279
vt 0.785868 0.509279
vt 0.750049 1
vt 0.771394 1
vt 0.723412 1
vt 0.739206 1
vt 0.791799 0.509279
vt 0.812496 0.509279
vt 0.818427 0.509279
vt 0.854281 0.509279
vt 0.818461 1
vt 0.839806 1
vt 0.791818 1
vt 0.807743 1
vt 0.00262438 0.266877
vt 0.00025718 0.757598
vt 0.0136911 0.266877
vt 0.0297289 0.266877
vt 0.0539927 0.266877
vt 0.088909 0.266877
vt 0.0536376 0.757598
vt 0.0296697 0.757598
vt 0.0813339 0.757598
vt 0.1314 0.266877
vt 0.12347 0.757598
vt 0.16318 0.266877
vt 0.187385 0.266877
vt 0.222301 0.266877
vt 0.18703 0.757598
vt 0.16318 0.757598
vt 0.214726 0.757598
vt 0.264792 0.266877
vt 0.256862 0.757598
vt 0.296572 0.266877
vt 0.320777 0.266877
vt 0.355693 0.266877
vt 0.320422 0.757598
vt 0.34504 0.757598
vt 0.390609 0.266877
vt 0.425525 0.266877
vt 0.390254 0.757598
vt 0.296572 0.757598
vt 0.0136911 0.757598
vt 0.0982594 0.757598
vt 0.234019 0.757598
vt 0.41511 0.757598
vt 0.460087 0.266877
vt 0.494293 0.266877
vt 0.487073 0.757598
vt 0.45766 0.757598
vt 0.528499 0.266877
vt 0.562705 0.266877
vt 0.555485 0.757598
vt 0.526072 0.757598
vt 0.596911 0.266877
vt 0.631117 0.266877
vt 0.623897 0.757598
vt 0.594425 0.757598
vt 0.665323 0.266877
vt 0.699529 0.266877
vt 0.692309 0.757598
vt 0.662897 0.757598
vt 0.733735 0.266877
vt 0.767941 0.266877
vt 0.760721 0.757598
vt 0.731309 0.757598
vt 0.802148 0.266877
vt 0.836354 0.266877
vt 0.829134 0.757598
vt 0.79978 0.757598


# Vertex Surface Normals: 
vn 0 0 1
vn 0 0 -1
vn 0.914533 -0.404511 0
vn 0.914533 -0.404511 -4.8705e-17
vn 0.914533 -0.404511 -4.8705e-17
vn 0.914533 -0.404511 4.8705e-17
vn 0.914533 -0.404511 4.8705e-17
vn 0.404506 0.914535 0
vn 0.404506 0.914535 0
vn 0.404506 0.914535 0
vn 0.404506 0.914535 0
vn 0.404506 0.914535 0
vn -0.91454 0.404495 0
vn -0.91454 0.404495 4.92587e-17
vn -0.91454 0.404495 4.92587e-17
vn -0.91454 0.404495 -4.92587e-17
vn -0.91454 0.404495 -4.92587e-17
vn -4.85756e-05 1 0
vn -4.85756e-05 1 -2.54614e-21
vn -4.85756e-05 1 -2.54614e-21
vn -4.85756e-05 1 2.54614e-21
vn -4.85756e-05 1 2.54614e-21
vn 0.839067 0.544028 0
vn 0.839067 0.544028 -4.2689e-17
vn 0.839067 0.544028 -4.2689e-17
vn 0.839067 0.544028 4.2689e-17
vn 0.839067 0.544028 4.2689e-17
vn 0.00315834 0.999995 0
vn 0.00315834 0.999995 -6.48611e-18
vn 0.00315834 0.999995 -6.48611e-18
vn 0.00315834 0.999995 6.48611e-18
vn 0.00315834 0.999995 6.48611e-18
vn -0.870883 0.49149 0
vn -0.870883 0.49149 4.51926e-17
vn -0.870883 0.49149 4.51926e-17
vn -0.870883 0.49149 -4.51926e-17
vn -0.870883 0.49149 -4.51926e-17
vn 0 1 0
vn 0 1 0
vn 0 1 0
vn 0 1 0
vn 0 1 0
vn 0.839067 0.544028 0
vn 0.839067 0.544028 -4.37836e-17
vn 0.839067 0.544028 -4.37836e-17
vn 0.839067 0.544028 4.37836e-17
vn 0.839067 0.544028 4.37836e-17
vn 0.00315834 0.999995 0
vn 0.00315834 0.999995 -6.15299e-18
vn 0.00315834 0.999995 -6.15299e-18
vn 0.00315834 0.999995 6.15299e-18
vn 0.00315834 0.999995 6.15299e-18
vn -0.870883 0.49149 0
vn -0.870883 0.49149 -2.25963e-17
vn -0.870883 0.49149 -2.25963e-17
vn -0.870883 0.49149 2.25963e-17
vn -0.870883 0.49149 2.25963e-17
vn 0 1 0
vn 0 1 0
vn 0 1 0
vn 0 1 0
vn 0 1 0
vn 0.839067 0.544028 0
vn 0.839067 0.544028 -2.18918e-17
vn 0.839067 0.544028 -2.18918e-17
vn 0.839067 0.544028 2.18918e-17
vn 0.839067 0.544028 2.18918e-17
vn 0.00315834 0.999995 0
vn 0.00315834 0.999995 -6.36854e-18
vn 0.00315834 0.999995 -6.36854e-18
vn 0.00315834 0.999995 6.36854e-18
vn 0.00315834 0.999995 6.36854e-18
vn -0.870883 0.49149 0
vn -0.870883 0.49149 -1.12981e-18
vn -0.870883 0.49149 -1.12981e-18
vn -0.870883 0.49149 1.12981e-18
vn -0.870883 0.49149 1.12981e-18
vn 0 1 0
vn 0 1 0
vn 0 1 0
vn 0 1 0
vn 0 1 0
vn 0.839067 0.544028 0
vn 0.839067 0.544028 2.18918e-18
vn 0.839067 0.544028 2.18918e-18
vn 0.839067 0.544028 -2.18918e-18
vn 0.839067 0.544028 -2.18918e-18
vn 0.00315834 0.999995 0
vn 0.00315834 0.999995 -6.36854e-18
vn 0.00315834 0.999995 -6.36854e-18
vn 0.00315834 0.999995 6.36854e-18
vn 0.00315834 0.999995 6.36854e-18
vn -0.870883 0.49149 0
vn -0.870883 0.49149 1.12981e-17
vn -0.870883 0.49149 1.12981e-17
vn -0.870883 0.49149 -1.12981e-17
vn -0.870883 0.49149 -1.12981e-17
vn 0 1 0
vn 0 1 0
vn 0 1 0
vn 0 1 0
vn 0 1 0
vn 0.839067 0.544028 0
vn 0.839067 0.544028 2.18918e-17
vn 0.839067 0.544028 2.18918e-17
vn 0.839067 0.544028 -2.18918e-17
vn 0.839067 0.544028 -2.18918e-17
vn 0.00315829 0.999995 0
vn 0.00315829 0.999995 -6.23128e-18
vn 0.00315829 0.999995 -6.23128e-18
vn 0.00315829 0.999995 6.23128e-18
vn 0.00315829 0.999995 6.23128e-18
vn -0.870883 0.49149 0
vn -0.870883 0.49149 -4.51926e-17
vn -0.870883 0.49149 -4.51926e-17
vn -0.870883 0.49149 4.51926e-17
vn -0.870883 0.49149 4.51926e-17
vn 0 1 0
vn 0 1 0
vn 0 1 0
vn 0 1 0
vn 0 1 0
vn 0.839067 0.544028 0
vn 0.839067 0.544028 0
vn 0.839067 0.544028 0
vn 0.839067 0.544028 0
vn 0.839067 0.544028 0
vn 0.00315834 0.999995 0
vn 0.00315834 0.999995 -5.99622e-18
vn 0.00315834 0.999995 -5.99622e-18
vn 0.00315834 0.999995 5.99622e-18
vn 0.00315834 0.999995 5.99622e-18
vn -0.870873 0.491508 0
vn -0.870873 0.491508 0
vn -0.870873 0.491508 0
vn -0.870873 0.491508 0
vn -0.870873 0.491508 0
vn -0.000114564 1 0
vn -0.000114564 1 -3.24611e-18
vn -0.000114564 1 -3.24611e-18
vn -0.000114564 1 3.24611e-18
vn -0.000114564 1 3.24611e-18
vn 0.91454 0.404495 0
vn 0.91454 0.404495 4.92587e-17
vn 0.91454 0.404495 4.92587e-17
vn 0.91454 0.404495 -4.92587e-17
vn 0.91454 0.404495 -4.92587e-17
vn -0.404506 0.914535 0
vn -0.404506 0.914535 4.29208e-17
vn -0.404506 0.914535 4.29208e-17
vn -0.404506 0.914535 -4.29208e-17
vn -0.404506 0.914535 -4.29208e-17
vn -0.914533 -0.404511 0
vn -0.914533 -0.404511 -4.8705e-17
vn -0.914533 -0.404511 -4.8705e-17
vn -0.914533 -0.404511 4.8705e-17
vn -0.914533 -0.404511 4.8705e-17
vn 0.000110012 -1 0
vn 0.000110012 -1 3.24957e-18
vn 0.000110012 -1 3.24957e-18
vn 0.000110012 -1 -3.24957e-18
vn 0.000110012 -1 -3.24957e-18
vn 0.870873 -0.491508 0
vn 0.870873 -0.491508 0
vn 0.870873 -0.491508 0
vn 0.870873 -0.491508 0
vn 0.870873 -0.491508 0
vn 0 -1 0
vn 0 -1 0
vn 0 -1 0
vn 0 -1 0
vn 0 -1 0
vn -0.839067 -0.544028 0
vn -0.839067 -0.544028 4.37836e-17
vn -0.839067 -0.544028 4.37836e-17
vn -0.839067 -0.544028 -4.37836e-17
vn -0.839067 -0.544028 -4.37836e-17
vn -0.00728121 -0.999973 0
vn -0.00728121 -0.999973 -3.71672e-19
vn -0.00728121 -0.999973 -3.71672e-19
vn -0.00728121 -0.999973 3.71672e-19
vn -0.00728121 -0.999973 3.71672e-19
vn 0.870883 -0.49149 0
vn 0.870883 -0.49149 -4.51926e-17
vn 0.870883 -0.49149 -4.51926e-17
vn 0.870883 -0.49149 4.51926e-17
vn 0.870883 -0.49149 4.51926e-17
vn 0 -1 0
vn 0 -1 0
vn 0 -1 0
vn 0 -1 0
vn 0 -1 0
vn -0.839067 -0.544028 0
vn -0.839067 -0.544028 0
vn -0.839067 -0.544028 0
vn -0.839067 -0.544028 0
vn -0.839067 -0.544028 0
vn -0.00732116 -0.999973 0
vn -0.00732116 -0.999973 -1.86877e-19
vn -0.00732116 -0.999973 -1.86877e-19
vn -0.00732116 -0.999973 1.86877e-19
vn -0.00732116 -0.999973 1.86877e-19
vn 0.870883 -0.49149 0
vn 0.870883 -0.49149 -1.12981e-17
vn 0.870883 -0.49149 -1.12981e-17
vn 0.870883 -0.49149 1.12981e-17
vn 0.870883 -0.49149 1.12981e-17
vn 0 -1 0
vn 0 -1 0
vn 0 -1 0
vn 0 -1 0
vn 0 -1 0
vn -0.839067 -0.544028 0
vn -0.839067 -0.544028 -5.47295e-18
vn -0.839067 -0.544028 -5.47295e-18
vn -0.839067 -0.544028 5.47295e-18
vn -0.839067 -0.544028 5.47295e-18
vn -0.00732621 -0.999973 0
vn -0.00732621 -0.999973 0
vn -0.00732621 -0.999973 0
vn -0.00732621 -0.999973 0
vn -0.00732621 -0.999973 0
vn 0.870883 -0.49149 0
vn 0.870883 -0.49149 1.12981e-18
vn 0.870883 -0.49149 1.12981e-18
vn 0.870883 -0.49149 -1.12981e-18
vn 0.870883 -0.49149 -1.12981e-18
vn 0 -1 0
vn 0 -1 0
vn 0 -1 0
vn 0 -1 0
vn 0 -1 0
vn -0.839067 -0.544028 0
vn -0.839067 -0.544028 -1.09459e-17
vn -0.839067 -0.544028 -1.09459e-17
vn -0.839067 -0.544028 1.09459e-17
vn -0.839067 -0.544028 1.09459e-17
vn -0.0073049 -0.999973 0
vn -0.0073049 -0.999973 0
vn -0.0073049 -0.999973 0
vn -0.0073049 -0.999973 0
vn -0.0073049 -0.999973 0
vn 0.870883 -0.49149 0
vn 0.870883 -0.49149 -2.25963e-17
vn 0.870883 -0.49149 -2.25963e-17
vn 0.870883 -0.49149 2.25963e-17
vn 0.870883 -0.49149 2.25963e-17
vn 0 -1 0
vn 0 -1 0
vn 0 -1 0
vn 0 -1 0
vn 0 -1 0
vn -0.839067 -0.544028 0
vn -0.839067 -0.544028 -4.2689e-17
vn -0.839067 -0.544028 -4.2689e-17
vn -0.839067 -0.544028 4.2689e-17
vn -0.839067 -0.544028 4.2689e-17
vn -0.00729896 -0.999973 0
vn -0.00729896 -0.999973 3.72598e-19
vn -0.00729896 -0.999973 3.72598e-19
vn -0.00729896 -0.999973 -3.72598e-19
vn -0.00729896 -0.999973 -3.72598e-19
vn 0.870883 -0.49149 0
vn 0.870883 -0.49149 -4.51926e-17
vn 0.870883 -0.49149 -4.51926e-17
vn 0.870883 -0.49149 4.51926e-17
vn 0.870883 -0.49149 4.51926e-17
vn 0 -1 0
vn 0 -1 0
vn 0 -1 0
vn 0 -1 0
vn 0 -1 0
vn -0.839067 -0.544028 0
vn -0.839067 -0.544028 0
vn -0.839067 -0.544028 0
vn -0.839067 -0.544028 0
vn -0.839067 -0.544028 0
vn -0.00719227 -0.999974 0
vn -0.00719227 -0.999974 -3.6946e-19
vn -0.00719227 -0.999974 -3.6946e-19
vn -0.00719227 -0.999974 3.6946e-19
vn -0.00719227 -0.999974 3.6946e-19


# Faces: 
usemtl material0
f 85/29/1 88/32/1 89/33/1
f 90/34/1 84/28/1 89/33/1
f 85/29/1 89/33/1 84/28/1
f 81/25/1 93/37/1 80/24/1
f 91/35/1 92/36/1 81/25/1
f 81/25/1 92/36/1 93/37/1
f 88/32/1 85/29/1 87/31/1
f 96/40/1 97/41/1 77/21/1
f 77/21/1 97/41/1 76/20/1
f 73/17/1 100/44/1 101/45/1
f 76/20/1 97/41/1 98/42/1
f 99/43/1 100/44/1 73/17/1
f 93/37/1 94/38/1 80/24/1
f 95/39/1 96/40/1 77/21/1
f 87/31/1 85/29/1 86/30/1
f 84/28/1 90/34/1 83/27/1
f 83/27/1 91/35/1 82/26/1
f 91/35/1 83/27/1 90/34/1
f 82/26/1 91/35/1 81/25/1
f 95/39/1 78/22/1 79/23/1
f 94/38/1 79/23/1 80/24/1
f 77/21/1 78/22/1 95/39/1
f 99/43/1 74/18/1 75/19/1
f 74/18/1 99/43/1 73/17/1
f 98/42/1 99/43/1 75/19/1
f 75/19/1 76/20/1 98/42/1
f 95/39/1 79/23/1 94/38/1
f 104/48/1 105/49/1 69/13/1
f 72/16/1 101/45/1 102/46/1
f 69/13/1 103/47/1 104/48/1
f 68/12/1 69/13/1 105/49/1
f 105/49/1 106/50/1 68/12/1
f 101/45/1 72/16/1 73/17/1
f 112/56/1 57/1/1 61/5/1
f 64/8/1 109/53/1 110/54/1
f 64/8/1 65/9/1 109/53/1
f 111/55/1 112/56/1 61/5/1
f 60/4/1 61/5/1 57/1/1
f 107/51/1 108/52/1 65/9/1
f 57/1/1 58/2/1 60/4/1
f 109/53/1 65/9/1 108/52/1
f 102/46/1 103/47/1 71/15/1
f 106/50/1 67/11/1 68/12/1
f 69/13/1 70/14/1 103/47/1
f 71/15/1 103/47/1 70/14/1
f 67/11/1 107/51/1 66/10/1
f 107/51/1 67/11/1 106/50/1
f 102/46/1 71/15/1 72/16/1
f 66/10/1 107/51/1 65/9/1
f 111/55/1 62/6/1 63/7/1
f 111/55/1 61/5/1 62/6/1
f 110/54/1 111/55/1 63/7/1
f 110/54/1 63/7/1 64/8/1
f 58/2/1 59/3/1 60/4/1
f 32/88/2 29/85/2 33/89/2
f 28/84/2 34/90/2 33/89/2
f 33/89/2 29/85/2 28/84/2
f 37/93/2 25/81/2 24/80/2
f 36/92/2 35/91/2 25/81/2
f 36/92/2 25/81/2 37/93/2
f 29/85/2 32/88/2 31/87/2
f 41/97/2 40/96/2 21/77/2
f 41/97/2 21/77/2 20/76/2
f 44/100/2 17/73/2 45/101/2
f 41/97/2 20/76/2 42/98/2
f 44/100/2 43/99/2 17/73/2
f 38/94/2 37/93/2 24/80/2
f 40/96/2 39/95/2 21/77/2
f 29/85/2 31/87/2 30/86/2
f 34/90/2 28/84/2 27/83/2
f 35/91/2 27/83/2 26/82/2
f 27/83/2 35/91/2 34/90/2
f 35/91/2 26/82/2 25/81/2
f 22/78/2 39/95/2 23/79/2
f 23/79/2 38/94/2 24/80/2
f 22/78/2 21/77/2 39/95/2
f 18/74/2 43/99/2 19/75/2
f 43/99/2 18/74/2 17/73/2
f 43/99/2 42/98/2 19/75/2
f 20/76/2 19/75/2 42/98/2
f 23/79/2 39/95/2 38/94/2
f 49/105/2 48/104/2 13/69/2
f 45/101/2 16/72/2 46/102/2
f 47/103/2 13/69/2 48/104/2
f 13/69/2 12/68/2 49/105/2
f 50/106/2 49/105/2 12/68/2
f 16/72/2 45/101/2 17/73/2
f 1/57/2 56/112/2 5/61/2
f 53/109/2 8/64/2 54/110/2
f 9/65/2 8/64/2 53/109/2
f 56/112/2 55/111/2 5/61/2
f 5/61/2 4/60/2 1/57/2
f 52/108/2 51/107/2 9/65/2
f 2/58/2 1/57/2 4/60/2
f 9/65/2 53/109/2 52/108/2
f 47/103/2 46/102/2 15/71/2
f 11/67/2 50/106/2 12/68/2
f 14/70/2 13/69/2 47/103/2
f 47/103/2 15/71/2 14/70/2
f 51/107/2 11/67/2 10/66/2
f 11/67/2 51/107/2 50/106/2
f 15/71/2 46/102/2 16/72/2
f 51/107/2 10/66/2 9/65/2
f 6/62/2 55/111/2 7/63/2
f 5/61/2 55/111/2 6/62/2
f 55/111/2 54/110/2 7/63/2
f 7/63/2 54/110/2 8/64/2
f 3/59/2 2/58/2 4/60/2
f 113/337/3 1/113/4 2/114/5
f 113/337/3 2/114/5 58/226/6
f 113/337/3 58/226/6 57/225/7
f 113/337/3 57/225/7 1/113/4
f 114/338/8 2/115/9 3/116/10
f 114/338/8 3/116/10 59/228/11
f 114/338/8 59/228/11 58/227/12
f 114/338/8 58/227/12 2/115/9
f 115/339/13 3/117/14 4/118/15
f 115/339/13 4/118/15 60/230/16
f 115/339/13 60/230/16 59/229/17
f 115/339/13 59/229/17 3/117/14
f 116/340/18 4/119/19 5/120/20
f 116/340/18 5/120/20 61/232/21
f 116/340/18 61/232/21 60/231/22
f 116/340/18 60/231/22 4/119/19
f 117/341/23 5/121/24 6/122/25
f 117/341/23 6/122/25 62/234/26
f 117/341/23 62/234/26 61/233/27
f 117/341/23 61/233/27 5/121/24
f 118/342/28 6/123/29 7/124/30
f 118/342/28 7/124/30 63/236/31
f 118/342/28 63/236/31 62/235/32
f 118/342/28 62/235/32 6/123/29
f 119/343/33 7/125/34 8/126/35
f 119/343/33 8/126/35 64/238/36
f 119/343/33 64/238/36 63/237/37
f 119/343/33 63/237/37 7/125/34
f 120/344/38 8/127/39 9/128/40
f 120/344/38 9/128/40 65/240/41
f 120/344/38 65/240/41 64/239/42
f 120/344/38 64/239/42 8/127/39
f 121/345/43 9/129/44 10/130/45
f 121/345/43 10/130/45 66/242/46
f 121/345/43 66/242/46 65/241/47
f 121/345/43 65/241/47 9/129/44
f 122/346/48 10/131/49 11/132/50
f 122/346/48 11/132/50 67/244/51
f 122/346/48 67/244/51 66/243/52
f 122/346/48 66/243/52 10/131/49
f 123/347/53 11/133/54 12/134/55
f 123/347/53 12/134/55 68/246/56
f 123/347/53 68/246/56 67/245/57
f 123/347/53 67/245/57 11/133/54
f 124/348/58 12/135/59 13/136/60
f 124/348/58 13/136/60 69/248/61
f 124/348/58 69/248/61 68/247/62
f 124/348/58 68/247/62 12/135/59
f 125/349/63 13/137/64 14/138/65
f 125/349/63 14/138/65 70/250/66
f 125/349/63 70/250/66 69/249/67
f 125/349/63 69/249/67 13/137/64
f 126/350/68 14/139/69 15/140/70
f 126/350/68 15/140/70 71/252/71
f 126/350/68 71/252/71 70/251/72
f 126/350/68 70/251/72 14/139/69
f 127/351/73 15/141/74 16/142/75
f 127/351/73 16/142/75 72/254/76
f 127/351/73 72/254/76 71/253/77
f 127/351/73 71/253/77 15/141/74
f 128/352/78 16/143/79 17/144/80
f 128/352/78 17/144/80 73/256/81
f 128/352/78 73/256/81 72/255/82
f 128/352/78 72/255/82 16/143/79
f 129/353/83 17/145/84 18/146/85
f 129/353/83 18/146/85 74/258/86
f 129/353/83 74/258/86 73/257/87
f 129/353/83 73/257/87 17/145/84
f 130/354/88 18/147/89 19/148/90
f 130/354/88 19/148/90 75/260/91
f 130/354/88 75/260/91 74/259/92
f 130/354/88 74/259/92 18/147/89
f 131/355/93 19/149/94 20/150/95
f 131/355/93 20/150/95 76/262/96
f 131/355/93 76/262/96 75/261/97
f 131/355/93 75/261/97 19/149/94
f 132/356/98 20/151/99 21/152/100
f 132/356/98 21/152/100 77/264/101
f 132/356/98 77/264/101 76/263/102
f 132/356/98 76/263/102 20/151/99
f 133/357/103 21/153/104 22/154/105
f 133/357/103 22/154/105 78/266/106
f 133/357/103 78/266/106 77/265/107
f 133/357/103 77/265/107 21/153/104
f 134/358/108 22/155/109 23/156/110
f 134/358/108 23/156/110 79/268/111
f 134/358/108 79/268/111 78/267/112
f 134/358/108 78/267/112 22/155/109
f 135/359/113 23/157/114 24/158/115
f 135/359/113 24/158/115 80/270/116
f 135/359/113 80/270/116 79/269/117
f 135/359/113 79/269/117 23/157/114
f 136/360/118 24/159/119 25/160/120
f 136/360/118 25/160/120 81/272/121
f 136/360/118 81/272/121 80/271/122
f 136/360/118 80/271/122 24/159/119
f 137/361/123 25/161/124 26/162/125
f 137/361/123 26/162/125 82/274/126
f 137/361/123 82/274/126 81/273/127
f 137/361/123 81/273/127 25/161/124
f 138/362/128 26/163/129 27/164/130
f 138/362/128 27/164/130 83/276/131
f 138/362/128 83/276/131 82/275/132
f 138/362/128 82/275/132 26/163/129
f 139/363/133 27/165/134 28/166/135
f 139/363/133 28/166/135 84/278/136
f 139/363/133 84/278/136 83/277/137
f 139/363/133 83/277/137 27/165/134
f 140/364/138 28/167/139 29/168/140
f 140/364/138 29/168/140 85/280/141
f 140/364/138 85/280/141 84/279/142
f 140/364/138 84/279/142 28/167/139
f 141/365/143 29/169/144 30/170/145
f 141/365/143 30/170/145 86/282/146
f 141/365/143 86/282/146 85/281/147
f 141/365/143 85/281/147 29/169/144
f 142/366/148 30/171/149 31/172/150
f 142/366/148 31/172/150 87/284/151
f 142/366/148 87/284/151 86/283/152
f 142/366/148 86/283/152 30/171/149
f 143/367/153 31/173/154 32/174/155
f 143/367/153 32/174/155 88/286/156
f 143/367/153 88/286/156 87/285/157
f 143/367/153 87/285/157 31/173/154
f 144/368/158 32/175/159 33/176/160
f 144/368/158 33/176/160 89/288/161
f 144/368/158 89/288/161 88/287/162
f 144/368/158 88/287/162 32/175/159
f 145/369/163 33/177/164 34/178/165
f 145/369/163 34/178/165 90/290/166
f 145/369/163 90/290/166 89/289/167
f 145/369/163 89/289/167 33/177/164
f 146/370/168 34/179/169 35/180/170
f 146/370/168 35/180/170 91/292/171
f 146/370/168 91/292/171 90/291/172
f 146/370/168 90/291/172 34/179/169
f 147/371/173 35/181/174 36/182/175
f 147/371/173 36/182/175 92/294/176
f 147/371/173 92/294/176 91/293/177
f 147/371/173 91/293/177 35/181/174
f 148/372/178 36/183/179 37/184/180
f 148/372/178 37/184/180 93/296/181
f 148/372/178 93/296/181 92/295/182
f 148/372/178 92/295/182 36/183/179
f 149/373/183 37/185/184 38/186/185
f 149/373/183 38/186/185 94/298/186
f 149/373/183 94/298/186 93/297/187
f 149/373/183 93/297/187 37/185/184
f 150/374/188 38/187/189 39/188/190
f 150/374/188 39/188/190 95/300/191
f 150/374/188 95/300/191 94/299/192
f 150/374/188 94/299/192 38/187/189
f 151/375/193 39/189/194 40/190/195
f 151/375/193 40/190/195 96/302/196
f 151/375/193 96/302/196 95/301/197
f 151/375/193 95/301/197 39/189/194
f 152/376/198 40/191/199 41/192/200
f 152/376/198 41/192/200 97/304/201
f 152/376/198 97/304/201 96/303/202
f 152/376/198 96/303/202 40/191/199
f 153/377/203 41/193/204 42/194/205
f 153/377/203 42/194/205 98/306/206
f 153/377/203 98/306/206 97/305/207
f 153/377/203 97/305/207 41/193/204
f 154/378/208 42/195/209 43/196/210
f 154/378/208 43/196/210 99/308/211
f 154/378/208 99/308/211 98/307/212
f 154/378/208 98/307/212 42/195/209
f 155/379/213 43/197/214 44/198/215
f 155/379/213 44/198/215 100/310/216
f 155/379/213 100/310/216 99/309/217
f 155/379/213 99/309/217 43/197/214
f 156/380/218 44/199/219 45/200/220
f 156/380/218 45/200/220 101/312/221
f 156/380/218 101/312/221 100/311/222
f 156/380/218 100/311/222 44/199/219
f 157/381/223 45/201/224 46/202/225
f 157/381/223 46/202/225 102/314/226
f 157/381/223 102/314/226 101/313/227
f 157/381/223 101/313/227 45/201/224
f 158/382/228 46/203/229 47/204/230
f 158/382/228 47/204/230 103/316/231
f 158/382/228 103/316/231 102/315/232
f 158/382/228 102/315/232 46/203/229
f 159/383/233 47/205/234 48/206/235
f 159/383/233 48/206/235 104/318/236
f 159/383/233 104/318/236 103/317/237
f 159/383/233 103/317/237 47/205/234
f 160/384/238 48/207/239 49/208/240
f 160/384/238 49/208/240 105/320/241
f 160/384/238 105/320/241 104/319/242
f 160/384/238 104/319/242 48/207/239
f 161/385/243 49/209/244 50/210/245
f 161/385/243 50/210/245 106/322/246
f 161/385/243 106/322/246 105/321/247
f 161/385/243 105/321/247 49/209/244
f 162/386/248 50/211/249 51/212/250
f 162/386/248 51/212/250 107/324/251
f 162/386/248 107/324/251 106/323/252
f 162/386/248 106/323/252 50/211/249
f 163/387/253 51/213/254 52/214/255
f 163/387/253 52/214/255 108/326/256
f 163/387/253 108/326/256 107/325/257
f 163/387/253 107/325/257 51/213/254
f 164/388/258 52/215/259 53/216/260
f 164/388/258 53/216/260 109/328/261
f 164/388/258 109/328/261 108/327/262
f 164/388/258 108/327/262 52/215/259
f 165/389/263 53/217/264 54/218/265
f 165/389/263 54/218/265 110/330/266
f 165/389/263 110/330/266 109/329/267
f 165/389/263 109/329/267 53/217/264
f 166/390/268 54/219/269 55/220/270
f 166/390/268 55/220/270 111/332/271
f 166/390/268 111/332/271 110/331/272
f 166/390/268 110/331/272 54/219/269
f 167/391/273 55/221/274 56/222/275
f 167/391/273 56/222/275 112/334/276
f 167/391/273 112/334/276 111/333/277
f 167/391/273 111/333/277 55/221/274
f 168/392/278 56/223/279 1/224/280
f 168/392/278 1/224/280 57/336/281
f 168/392/278 57/336/281 112/335/282
f 168/392/278 112/335/282 56/223/279
