mtllib Wide Span.mtl
# Vertex Positions: 
g groupNumber_0
v 13.7098 -0.460158 -16.9263
v 13.9805 -0.114018 -16.9263
v 13.7055 -0.451333 -16.9263
v 13.0002 -0.451333 -16.9263
v 12.2291 0.452609 -16.9263
v 10.9575 0.45416 -16.9263
v 10.8273 0.318631 -16.9263
v 10.0691 0.318631 -16.9263
v 9.94069 0.452798 -16.9263
v 8.05073 0.45416 -16.9263
v 7.90591 0.303997 -16.9263
v 7.20067 0.303997 -16.9263
v 7.06433 0.45416 -16.9263
v 5.77815 0.45416 -16.9263
v 5.01079 -0.451333 -16.9263
v 4.31148 -0.451333 -16.9263
v 3.51974 0.45266 -16.9263
v 2.26587 0.45416 -16.9263
v 2.13891 0.318631 -16.9263
v 1.37837 0.318631 -16.9263
v 1.24707 0.45416 -16.9263
v -0.641226 0.45416 -16.9263
v -0.745988 0.318631 -16.9263
v -1.50627 0.318631 -16.9263
v -1.63786 0.45416 -16.9263
v -2.90772 0.45416 -16.9263
v -3.69209 -0.451333 -16.9263
v -4.38882 -0.451333 -16.9263
v -5.1665 0.452626 -16.9263
v -6.42869 0.45416 -16.9263
v -6.55413 0.318631 -16.9263
v -7.32368 0.318631 -16.9263
v -7.4398 0.45416 -16.9263
v -9.32392 0.45416 -16.9263
v -9.45482 0.318631 -16.9263
v -10.213 0.318631 -16.9263
v -10.3425 0.460158 -16.9263
v -11.6148 0.460158 -16.9263
v -12.3737 -0.451333 -16.9263
v -13.0936 -0.451333 -16.9263
v -13.7782 0.428202 -16.9263
v -13.9805 0.428202 -16.9263
v -13.7825 0.419377 -16.9263
v -13.0992 -0.458469 -16.9263
v -12.3695 -0.460158 -16.9263
v -11.6106 0.451333 -16.9263
v -10.3464 0.451333 -16.9263
v -10.2169 0.309806 -16.9263
v -9.45106 0.309806 -16.9263
v -9.32017 0.445335 -16.9263
v -7.44387 0.445335 -16.9263
v -7.32908 0.31134 -16.9263
v -6.55027 0.309806 -16.9263
v -6.42482 0.445335 -16.9263
v -5.17186 0.445335 -16.9263
v -4.39418 -0.458641 -16.9263
v -3.68806 -0.460158 -16.9263
v -2.90368 0.445335 -16.9263
v -1.64159 0.445335 -16.9263
v -1.50999 0.309806 -16.9263
v -0.741645 0.309806 -16.9263
v -0.636882 0.445335 -16.9263
v 1.24334 0.445335 -16.9263
v 1.37465 0.309806 -16.9263
v 2.1427 0.309806 -16.9263
v 2.26966 0.445335 -16.9263
v 3.51444 0.445335 -16.9263
v 4.30617 -0.458641 -16.9263
v 5.01486 -0.460158 -16.9263
v 5.78222 0.445335 -16.9263
v 7.0604 0.445335 -16.9263
v 7.19674 0.295172 -16.9263
v 7.90963 0.295172 -16.9263
v 8.05445 0.445335 -16.9263
v 9.93562 0.445335 -16.9263
v 10.0653 0.309806 -16.9263
v 10.8311 0.309806 -16.9263
v 10.9613 0.445335 -16.9263
v 12.2237 0.445335 -16.9263
v 12.9949 -0.458607 -16.9263
v 13.7098 -0.460158 16.9263
v 13.9805 -0.114018 16.9263
v 13.7055 -0.451333 16.9263
v 13.0002 -0.451333 16.9263
v 12.2291 0.452609 16.9263
v 10.9575 0.45416 16.9263
v 10.8273 0.318631 16.9263
v 10.0691 0.318631 16.9263
v 9.94069 0.452798 16.9263
v 8.05073 0.45416 16.9263
v 7.90591 0.303997 16.9263
v 7.20067 0.303997 16.9263
v 7.06433 0.45416 16.9263
v 5.77815 0.45416 16.9263
v 5.01079 -0.451333 16.9263
v 4.31148 -0.451333 16.9263
v 3.51974 0.45266 16.9263
v 2.26587 0.45416 16.9263
v 2.13891 0.318631 16.9263
v 1.37837 0.318631 16.9263
v 1.24707 0.45416 16.9263
v -0.641226 0.45416 16.9263
v -0.745988 0.318631 16.9263
v -1.50627 0.318631 16.9263
v -1.63786 0.45416 16.9263
v -2.90772 0.45416 16.9263
v -3.69209 -0.451333 16.9263
v -4.38882 -0.451333 16.9263
v -5.1665 0.452626 16.9263
v -6.42869 0.45416 16.9263
v -6.55413 0.318631 16.9263
v -7.32368 0.318631 16.9263
v -7.4398 0.45416 16.9263
v -9.32392 0.45416 16.9263
v -9.45482 0.318631 16.9263
v -10.213 0.318631 16.9263
v -10.3425 0.460158 16.9263
v -11.6148 0.460158 16.9263
v -12.3737 -0.451333 16.9263
v -13.0936 -0.451333 16.9263
v -13.7782 0.428202 16.9263
v -13.9805 0.428202 16.9263
v -13.7825 0.419377 16.9263
v -13.0992 -0.458469 16.9263
v -12.3695 -0.460158 16.9263
v -11.6106 0.451333 16.9263
v -10.3464 0.451333 16.9263
v -10.2169 0.309806 16.9263
v -9.45106 0.309806 16.9263
v -9.32017 0.445335 16.9263
v -7.44387 0.445335 16.9263
v -7.32908 0.31134 16.9263
v -6.55027 0.309806 16.9263
v -6.42482 0.445335 16.9263
v -5.17186 0.445335 16.9263
v -4.39418 -0.458641 16.9263
v -3.68806 -0.460158 16.9263
v -2.90368 0.445335 16.9263
v -1.64159 0.445335 16.9263
v -1.50999 0.309806 16.9263
v -0.741645 0.309806 16.9263
v -0.636882 0.445335 16.9263
v 1.24334 0.445335 16.9263
v 1.37465 0.309806 16.9263
v 2.1427 0.309806 16.9263
v 2.26966 0.445335 16.9263
v 3.51444 0.445335 16.9263
v 4.30617 -0.458641 16.9263
v 5.01486 -0.460158 16.9263
v 5.78222 0.445335 16.9263
v 7.0604 0.445335 16.9263
v 7.19674 0.295172 16.9263
v 7.90963 0.295172 16.9263
v 8.05445 0.445335 16.9263
v 9.93562 0.445335 16.9263
v 10.0653 0.309806 16.9263
v 10.8311 0.309806 16.9263
v 10.9613 0.445335 16.9263
v 12.2237 0.445335 16.9263
v 12.9949 -0.458607 16.9263
v 13.8452 -0.287088 0
v 13.843 -0.282676 0
v 13.3529 -0.451333 0
v 12.6146 0.000637745 0
v 11.5933 0.453384 0
v 10.8924 0.386395 0
v 10.4482 0.318631 0
v 10.0049 0.385715 0
v 8.99571 0.453479 0
v 7.97832 0.379079 0
v 7.55329 0.303997 0
v 7.1325 0.379079 0
v 6.42124 0.45416 0
v 5.39447 0.00141338 0
v 4.66113 -0.451333 0
v 3.91561 0.000663597 0
v 2.89281 0.45341 0
v 2.20239 0.386395 0
v 1.75864 0.318631 0
v 1.31272 0.386395 0
v 0.30292 0.45416 0
v -0.693607 0.386395 0
v -1.12613 0.318631 0
v -1.57207 0.386395 0
v -2.27279 0.45416 0
v -3.2999 0.00141338 0
v -4.04045 -0.451333 0
v -4.77766 0.000646365 0
v -5.79759 0.453393 0
v -6.49141 0.386395 0
v -6.93891 0.318631 0
v -7.38174 0.386395 0
v -8.38186 0.45416 0
v -9.38937 0.386395 0
v -9.83391 0.318631 0
v -10.2778 0.389395 0
v -10.9786 0.460158 0
v -11.9942 0.0044125 0
v -12.7336 -0.451333 0
v -13.4359 -0.0115656 0
v -13.8794 0.428202 0
v -13.8815 0.42379 0
v -13.4409 -0.019546 0
v -12.7344 -0.459314 0
v -11.9901 -0.0044125 0
v -10.9785 0.451333 0
v -10.2817 0.38057 0
v -9.83398 0.309806 0
v -9.38561 0.37757 0
v -8.38202 0.445335 0
v -7.38647 0.378337 0
v -6.93967 0.310573 0
v -6.48755 0.37757 0
v -5.79834 0.445335 0
v -4.78302 -0.00665322 0
v -4.04112 -0.4594 0
v -3.29587 -0.00741162 0
v -2.27264 0.445335 0
v -1.57579 0.37757 0
v -1.12582 0.309806 0
v -0.689264 0.37757 0
v 0.30323 0.445335 0
v 1.309 0.37757 0
v 1.75867 0.309806 0
v 2.20618 0.37757 0
v 2.89205 0.445335 0
v 3.9103 -0.00665322 0
v 4.66051 -0.4594 0
v 5.39854 -0.00741162 0
v 6.42131 0.445335 0
v 7.12857 0.370254 0
v 7.55318 0.295172 0
v 7.98204 0.370254 0
v 8.99504 0.445335 0
v 10.0005 0.37757 0
v 10.4482 0.309806 0
v 10.8962 0.37757 0
v 11.5925 0.445335 0
v 12.6093 -0.00663599 0
v 13.3523 -0.459383 0


# Vertex Texture Coordinates :
vt 0.398712 0
vt 0.402611 0.00498368
vt 0.39865 0.000127061
vt 0.388496 0.000127061
vt 0.377393 0.0131419
vt 0.359085 0.0131643
vt 0.357211 0.0112129
vt 0.346294 0.0112129
vt 0.344445 0.0131446
vt 0.317234 0.0131643
vt 0.315149 0.0110022
vt 0.304995 0.0110022
vt 0.303032 0.0131643
vt 0.284514 0.0131643
vt 0.273465 0.000127061
vt 0.263397 0.000127061
vt 0.251997 0.0131427
vt 0.233944 0.0131643
vt 0.232116 0.0112129
vt 0.221166 0.0112129
vt 0.219275 0.0131643
vt 0.192088 0.0131643
vt 0.19058 0.0112129
vt 0.179633 0.0112129
vt 0.177739 0.0131643
vt 0.159455 0.0131643
vt 0.148162 0.000127061
vt 0.138131 0.000127061
vt 0.126934 0.0131422
vt 0.108761 0.0131643
vt 0.106955 0.0112129
vt 0.0958748 0.0112129
vt 0.0942029 0.0131643
vt 0.0670756 0.0131643
vt 0.065191 0.0112129
vt 0.0542746 0.0112129
vt 0.0524102 0.0132506
vt 0.034092 0.0132506
vt 0.0231655 0.000127061
vt 0.0128003 0.000127061
vt 0.0029436 0.0127905
vt 3.01221e-05 0.0127905
vt 0.00288156 0.0126634
vt 0.0127191 2.43204e-05
vt 0.023225 0
vt 0.0341516 0.0131236
vt 0.0523541 0.0131236
vt 0.0542186 0.0110859
vt 0.0652451 0.0110859
vt 0.0671297 0.0130372
vt 0.0941444 0.0130372
vt 0.0957972 0.0111079
vt 0.10701 0.0110859
vt 0.108816 0.0130372
vt 0.126856 0.0130372
vt 0.138053 2.18387e-05
vt 0.14822 0
vt 0.159513 0.0130372
vt 0.177685 0.0130372
vt 0.17958 0.0110859
vt 0.190642 0.0110859
vt 0.192151 0.0130372
vt 0.219222 0.0130372
vt 0.221112 0.0110859
vt 0.232171 0.0110859
vt 0.233999 0.0130372
vt 0.251921 0.0130372
vt 0.26332 2.18387e-05
vt 0.273524 0
vt 0.284572 0.0130372
vt 0.302975 0.0130372
vt 0.304938 0.0108752
vt 0.315202 0.0108752
vt 0.317287 0.0130372
vt 0.344372 0.0130372
vt 0.34624 0.0110859
vt 0.357266 0.0110859
vt 0.35914 0.0130372
vt 0.377315 0.0130372
vt 0.388419 2.23349e-05
vt 0.412559 0
vt 0.408661 0.00498368
vt 0.412621 0.000127061
vt 0.422775 0.000127061
vt 0.433878 0.0131419
vt 0.452186 0.0131643
vt 0.45406 0.0112129
vt 0.464977 0.0112129
vt 0.466826 0.0131446
vt 0.494038 0.0131643
vt 0.496123 0.0110022
vt 0.506277 0.0110022
vt 0.50824 0.0131643
vt 0.526758 0.0131643
vt 0.537806 0.000127061
vt 0.547875 0.000127061
vt 0.559274 0.0131427
vt 0.577327 0.0131643
vt 0.579155 0.0112129
vt 0.590105 0.0112129
vt 0.591996 0.0131643
vt 0.619183 0.0131643
vt 0.620692 0.0112129
vt 0.631638 0.0112129
vt 0.633533 0.0131643
vt 0.651816 0.0131643
vt 0.663109 0.000127061
vt 0.673141 0.000127061
vt 0.684338 0.0131422
vt 0.70251 0.0131643
vt 0.704317 0.0112129
vt 0.715397 0.0112129
vt 0.717068 0.0131643
vt 0.744196 0.0131643
vt 0.74608 0.0112129
vt 0.756997 0.0112129
vt 0.758861 0.0132506
vt 0.777179 0.0132506
vt 0.788106 0.000127061
vt 0.798471 0.000127061
vt 0.808328 0.0127905
vt 0.811241 0.0127905
vt 0.80839 0.0126634
vt 0.798552 2.43204e-05
vt 0.788046 0
vt 0.77712 0.0131236
vt 0.758917 0.0131236
vt 0.757053 0.0110859
vt 0.746026 0.0110859
vt 0.744142 0.0130372
vt 0.717127 0.0130372
vt 0.715474 0.0111079
vt 0.704261 0.0110859
vt 0.702455 0.0130372
vt 0.684415 0.0130372
vt 0.673218 2.18387e-05
vt 0.663051 0
vt 0.651758 0.0130372
vt 0.633586 0.0130372
vt 0.631692 0.0110859
vt 0.620629 0.0110859
vt 0.619121 0.0130372
vt 0.59205 0.0130372
vt 0.590159 0.0110859
vt 0.579101 0.0110859
vt 0.577273 0.0130372
vt 0.559351 0.0130372
vt 0.547951 2.18387e-05
vt 0.537748 0
vt 0.526699 0.0130372
vt 0.508296 0.0130372
vt 0.506333 0.0108752
vt 0.496069 0.0108752
vt 0.493984 0.0130372
vt 0.466899 0.0130372
vt 0.465032 0.0110859
vt 0.454006 0.0110859
vt 0.452132 0.0130372
vt 0.433956 0.0130372
vt 0.422852 2.23349e-05
vt 2.90612e-05 0.0192388
vt 0.00635654 0.0192388
vt 0 0.512594
vt 0.0062666 0.512594
vt 0.0123953 0.0192388
vt 0.0225493 0.0192388
vt 0.0285527 0.0192388
vt 0.0456604 0.0192388
vt 0.0516328 0.0192388
vt 0.0699405 0.0192388
vt 0.0123711 0.512594
vt 0.0150767 0.512594
vt 0.0285542 0.512594
vt 0.0394711 0.512594
vt 0.0516555 0.512594
vt 0.0543294 0.512594
vt 0.0759183 0.0192388
vt 0.10313 0.0192388
vt 0.0603558 0.512594
vt 0.0633594 0.512594
vt 0.0759389 0.512594
vt 0.0860929 0.512594
vt 0.0921098 0.512594
vt 0.09503 0.512594
vt 0.109121 0.0192388
vt 0.12764 0.0192388
vt 0.109122 0.512594
vt 0.126211 0.512594
vt 0.133635 0.0192388
vt 0.143704 0.0192388
vt 0.149712 0.0192388
vt 0.167014 0.0192388
vt 0.173017 0.0192388
vt 0.19107 0.0192388
vt 0.133643 0.512594
vt 0.136317 0.512594
vt 0.149735 0.512594
vt 0.160685 0.512594
vt 0.173009 0.512594
vt 0.175726 0.512594
vt 0.197068 0.0192388
vt 0.224255 0.0192388
vt 0.181702 0.512594
vt 0.184169 0.512594
vt 0.197037 0.512594
vt 0.207984 0.512594
vt 0.213942 0.512594
vt 0.216662 0.512594
vt 0.230257 0.0192388
vt 0.248541 0.0192388
vt 0.230239 0.512594
vt 0.247488 0.512594
vt 0.254553 0.0192388
vt 0.264584 0.0192388
vt 0.270619 0.0192388
vt 0.287787 0.0192388
vt 0.293797 0.0192388
vt 0.311969 0.0192388
vt 0.25455 0.512594
vt 0.257209 0.512594
vt 0.270629 0.512594
vt 0.281708 0.512594
vt 0.293804 0.512594
vt 0.296374 0.512594
vt 0.317938 0.0192388
vt 0.345065 0.0192388
vt 0.30236 0.512594
vt 0.305072 0.512594
vt 0.317952 0.512594
vt 0.328868 0.512594
vt 0.33488 0.512594
vt 0.337642 0.512594
vt 0.35102 0.0192388
vt 0.369338 0.0192388
vt 0.351046 0.512594
vt 0.368123 0.512594
vt 0.375345 0.0192388
vt 0.38571 0.0192388
vt 0.391722 0.0192388
vt 0.407769 0.0192388
vt 0.375323 0.512594
vt 0.378236 0.512594
vt 0.391714 0.512594
vt 0.394568 0.512594
vt 0.413751 0.0192388
vt 0.429768 0.0192388
vt 0.41377 0.512594
vt 0.424276 0.512594
vt 0.435771 0.0192388
vt 0.452848 0.0192388
vt 0.458829 0.0192388
vt 0.477031 0.0192388
vt 0.400566 0.512594
vt 0.403328 0.512594
vt 0.435762 0.512594
vt 0.446788 0.512594
vt 0.458839 0.512594
vt 0.461552 0.512594
vt 0.483041 0.0192388
vt 0.510056 0.0192388
vt 0.467552 0.512594
vt 0.470093 0.512594
vt 0.483028 0.512594
vt 0.494242 0.512594
vt 0.500276 0.512594
vt 0.502935 0.512594
vt 0.516087 0.0192388
vt 0.534127 0.0192388
vt 0.516106 0.512594
vt 0.533275 0.512594
vt 0.540134 0.0192388
vt 0.550301 0.0192388
vt 0.556287 0.0192388
vt 0.573535 0.0192388
vt 0.579506 0.0192388
vt 0.597677 0.0192388
vt 0.540109 0.512594
vt 0.542829 0.512594
vt 0.556286 0.512594
vt 0.567349 0.512594
vt 0.579504 0.512594
vt 0.581971 0.512594
vt 0.603674 0.0192388
vt 0.630745 0.0192388
vt 0.587947 0.512594
vt 0.590664 0.512594
vt 0.603648 0.512594
vt 0.614707 0.512594
vt 0.620692 0.512594
vt 0.623366 0.512594
vt 0.636748 0.0192388
vt 0.65467 0.0192388
vt 0.636761 0.512594
vt 0.654062 0.512594
vt 0.660658 0.0192388
vt 0.670862 0.0192388
vt 0.67685 0.0192388
vt 0.693939 0.0192388
vt 0.699932 0.0192388
vt 0.718335 0.0192388
vt 0.66067 0.512594
vt 0.663591 0.512594
vt 0.676871 0.512594
vt 0.687135 0.512594
vt 0.699957 0.512594
vt 0.70296 0.512594
vt 0.724329 0.0192388
vt 0.751414 0.0192388
vt 0.708973 0.512594
vt 0.711674 0.512594
vt 0.724326 0.512594
vt 0.735352 0.512594
vt 0.741338 0.512594
vt 0.744043 0.512594
vt 0.757402 0.0192388
vt 0.775577 0.0192388
vt 0.7574 0.512594
vt 0.774508 0.512594
vt 0.781572 0.0192388
vt 0.791865 0.0192388
vt 2.90612e-05 0.506645
vt 0.00635654 0.506645
vt 0 1
vt 0.0062666 1
vt 0.0123953 0.506645
vt 0.0225493 0.506645
vt 0.0285527 0.506645
vt 0.0456604 0.506645
vt 0.0516328 0.506645
vt 0.0699405 0.506645
vt 0.0123711 1
vt 0.0150767 1
vt 0.0285542 1
vt 0.0394711 1
vt 0.0516555 1
vt 0.0543294 1
vt 0.0759183 0.506645
vt 0.10313 0.506645
vt 0.0603558 1
vt 0.0633594 1
vt 0.0759389 1
vt 0.0860929 1
vt 0.0921098 1
vt 0.09503 1
vt 0.109121 0.506645
vt 0.12764 0.506645
vt 0.109122 1
vt 0.126211 1
vt 0.133635 0.506645
vt 0.143704 0.506645
vt 0.149712 0.506645
vt 0.167014 0.506645
vt 0.173017 0.506645
vt 0.19107 0.506645
vt 0.133643 1
vt 0.136317 1
vt 0.149735 1
vt 0.160685 1
vt 0.173009 1
vt 0.175726 1
vt 0.197068 0.506645
vt 0.224255 0.506645
vt 0.181702 1
vt 0.184169 1
vt 0.197037 1
vt 0.207984 1
vt 0.213942 1
vt 0.216662 1
vt 0.230257 0.506645
vt 0.248541 0.506645
vt 0.230239 1
vt 0.247488 1
vt 0.254553 0.506645
vt 0.264584 0.506645
vt 0.270619 0.506645
vt 0.287787 0.506645
vt 0.293797 0.506645
vt 0.311969 0.506645
vt 0.25455 1
vt 0.257209 1
vt 0.270629 1
vt 0.281708 1
vt 0.293804 1
vt 0.296374 1
vt 0.317938 0.506645
vt 0.345065 0.506645
vt 0.30236 1
vt 0.305072 1
vt 0.317952 1
vt 0.328868 1
vt 0.33488 1
vt 0.337642 1
vt 0.35102 0.506645
vt 0.369338 0.506645
vt 0.351046 1
vt 0.368123 1
vt 0.375345 0.506645
vt 0.38571 0.506645
vt 0.391722 0.506645
vt 0.407769 0.506645
vt 0.375323 1
vt 0.378236 1
vt 0.391714 1
vt 0.394568 1
vt 0.413751 0.506645
vt 0.429768 0.506645
vt 0.41377 1
vt 0.424276 1
vt 0.435771 0.506645
vt 0.452848 0.506645
vt 0.458829 0.506645
vt 0.477031 0.506645
vt 0.400566 1
vt 0.403328 1
vt 0.435762 1
vt 0.446788 1
vt 0.458839 1
vt 0.461552 1
vt 0.483041 0.506645
vt 0.510056 0.506645
vt 0.467552 1
vt 0.470093 1
vt 0.483028 1
vt 0.494242 1
vt 0.500276 1
vt 0.502935 1
vt 0.516087 0.506645
vt 0.534127 0.506645
vt 0.516106 1
vt 0.533275 1
vt 0.540134 0.506645
vt 0.550301 0.506645
vt 0.556287 0.506645
vt 0.573535 0.506645
vt 0.579506 0.506645
vt 0.597677 0.506645
vt 0.540109 1
vt 0.542829 1
vt 0.556286 1
vt 0.567349 1
vt 0.579504 1
vt 0.581971 1
vt 0.603674 0.506645
vt 0.630745 0.506645
vt 0.587947 1
vt 0.590664 1
vt 0.603648 1
vt 0.614707 1
vt 0.620692 1
vt 0.623366 1
vt 0.636748 0.506645
vt 0.65467 0.506645
vt 0.636761 1
vt 0.654062 1
vt 0.660658 0.506645
vt 0.670862 0.506645
vt 0.67685 0.506645
vt 0.693939 0.506645
vt 0.699932 0.506645
vt 0.718335 0.506645
vt 0.66067 1
vt 0.663591 1
vt 0.676871 1
vt 0.687135 1
vt 0.699957 1
vt 0.70296 1
vt 0.724329 0.506645
vt 0.751414 0.506645
vt 0.708973 1
vt 0.711674 1
vt 0.724326 1
vt 0.735352 1
vt 0.741338 1
vt 0.744043 1
vt 0.757402 0.506645
vt 0.775577 0.506645
vt 0.7574 1
vt 0.774508 1
vt 0.781572 0.506645
vt 0.791865 0.506645
vt 0.0031928 0.262942
vt 0.0031333 0.756297
vt 0.0174723 0.262942
vt 0.0371065 0.262942
vt 0.0607866 0.262942
vt 0.0137239 0.756297
vt 0.0340126 0.756297
vt 0.0529924 0.756297
vt 0.0895241 0.262942
vt 0.0618576 0.756297
vt 0.0810159 0.756297
vt 0.0935699 0.756297
vt 0.11838 0.262942
vt 0.117667 0.756297
vt 0.138669 0.262942
vt 0.158363 0.262942
vt 0.182043 0.262942
vt 0.13498 0.756297
vt 0.15521 0.756297
vt 0.174368 0.756297
vt 0.210662 0.262942
vt 0.182936 0.756297
vt 0.20251 0.756297
vt 0.215302 0.756297
vt 0.239399 0.262942
vt 0.238863 0.756297
vt 0.259569 0.262942
vt 0.279203 0.262942
vt 0.302883 0.262942
vt 0.25588 0.756297
vt 0.276169 0.756297
vt 0.295089 0.756297
vt 0.331501 0.262942
vt 0.303716 0.756297
vt 0.32341 0.756297
vt 0.336261 0.756297
vt 0.360179 0.262942
vt 0.359584 0.756297
vt 0.380528 0.262942
vt 0.399745 0.262942
vt 0.376779 0.756297
vt 0.393141 0.756297
vt 0.42176 0.262942
vt 0.419023 0.756297
vt 0.444309 0.262942
vt 0.46793 0.262942
vt 0.401947 0.756297
vt 0.441275 0.756297
vt 0.460195 0.756297
vt 0.496548 0.262942
vt 0.468822 0.756297
vt 0.488635 0.756297
vt 0.501606 0.756297
vt 0.525107 0.262942
vt 0.524691 0.756297
vt 0.545217 0.262942
vt 0.564911 0.262942
vt 0.588591 0.262942
vt 0.541469 0.756297
vt 0.561817 0.756297
vt 0.580738 0.756297
vt 0.61721 0.262942
vt 0.589305 0.756297
vt 0.609178 0.756297
vt 0.622029 0.756297
vt 0.645709 0.262942
vt 0.645412 0.756297
vt 0.66576 0.262942
vt 0.685394 0.262942
vt 0.709134 0.262942
vt 0.662131 0.756297
vt 0.682003 0.756297
vt 0.701459 0.756297
vt 0.737871 0.262942
vt 0.710324 0.756297
vt 0.729839 0.756297
vt 0.742691 0.756297
vt 0.76649 0.262942
vt 0.765954 0.756297
vt 0.786719 0.262942


# Vertex Surface Normals: 
vn 0 0 1
vn 0 0 -1
vn 0.787626 -0.616154 0
vn 0.787626 -0.616154 3.78851e-17
vn 0.787626 -0.616154 3.78851e-17
vn 0.787626 -0.616154 -3.78851e-17
vn 0.787626 -0.616154 -3.78851e-17
vn -0.775001 0.63196 0
vn -0.775001 0.63196 3.75274e-17
vn -0.775001 0.63196 3.75274e-17
vn -0.775001 0.63196 -3.75274e-17
vn -0.775001 0.63196 -3.75274e-17
vn 0 1 0
vn 0 1 0
vn 0 1 0
vn 0 1 0
vn 0 1 0
vn 0.76076 0.649034 0
vn 0.76076 0.649034 -3.47308e-17
vn 0.76076 0.649034 -3.47308e-17
vn 0.76076 0.649034 3.47308e-17
vn 0.76076 0.649034 3.47308e-17
vn 0.00121997 0.999999 0
vn 0.00121997 0.999999 5.36969e-20
vn 0.00121997 0.999999 5.36969e-20
vn 0.00121997 0.999999 -5.36969e-20
vn 0.00121997 0.999999 -5.36969e-20
vn -0.721226 0.6927 0
vn -0.721226 0.6927 0
vn -0.721226 0.6927 0
vn -0.721226 0.6927 0
vn -0.721226 0.6927 0
vn 0 1 0
vn 0 1 0
vn 0 1 0
vn 0 1 0
vn 0 1 0
vn 0.722436 0.691437 0
vn 0.722436 0.691437 0
vn 0.722436 0.691437 0
vn 0.722436 0.691437 0
vn 0.722436 0.691437 0
vn 0.000720469 1 0
vn 0.000720469 1 -3.05979e-20
vn 0.000720469 1 -3.05979e-20
vn 0.000720469 1 3.05979e-20
vn 0.000720469 1 3.05979e-20
vn -0.719797 0.694185 0
vn -0.719797 0.694185 3.41623e-17
vn -0.719797 0.694185 3.41623e-17
vn -0.719797 0.694185 -3.41623e-17
vn -0.719797 0.694185 -3.41623e-17
vn 0 1 0
vn 0 1 0
vn 0 1 0
vn 0 1 0
vn 0 1 0
vn 0.740363 0.672207 0
vn 0.740363 0.672207 0
vn 0.740363 0.672207 0
vn 0.740363 0.672207 0
vn 0.740363 0.672207 0
vn 0 1 0
vn 0 1 0
vn 0 1 0
vn 0 1 0
vn 0 1 0
vn -0.762898 0.646519 0
vn -0.762898 0.646519 -1.79116e-17
vn -0.762898 0.646519 -1.79116e-17
vn -0.762898 0.646519 1.79116e-17
vn -0.762898 0.646519 1.79116e-17
vn 0 1 0
vn 0 1 0
vn 0 1 0
vn 0 1 0
vn 0 1 0
vn 0.752272 0.658853 0
vn 0.752272 0.658853 -8.32302e-18
vn 0.752272 0.658853 -8.32302e-18
vn 0.752272 0.658853 8.32302e-18
vn 0.752272 0.658853 8.32302e-18
vn 0.00119594 0.999999 0
vn 0.00119594 0.999999 0
vn 0.00119594 0.999999 0
vn 0.00119594 0.999999 0
vn 0.00119594 0.999999 0
vn -0.729795 0.683666 0
vn -0.729795 0.683666 0
vn -0.729795 0.683666 0
vn -0.729795 0.683666 0
vn -0.729795 0.683666 0
vn 0 1 0
vn 0 1 0
vn 0 1 0
vn 0 1 0
vn 0 1 0
vn 0.718207 0.695829 0
vn 0.718207 0.695829 -8.23174e-18
vn 0.718207 0.695829 -8.23174e-18
vn 0.718207 0.695829 8.23174e-18
vn 0.718207 0.695829 8.23174e-18
vn 0 1 0
vn 0 1 0
vn 0 1 0
vn 0 1 0
vn 0 1 0
vn -0.791185 0.611576 0
vn -0.791185 0.611576 0
vn -0.791185 0.611576 0
vn -0.791185 0.611576 0
vn -0.791185 0.611576 0
vn 0 1 0
vn 0 1 0
vn 0 1 0
vn 0 1 0
vn 0 1 0
vn 0.717432 0.696629 0
vn 0.717432 0.696629 4.21683e-18
vn 0.717432 0.696629 4.21683e-18
vn 0.717432 0.696629 -4.21683e-18
vn 0.717432 0.696629 -4.21683e-18
vn 0 1 0
vn 0 1 0
vn 0 1 0
vn 0 1 0
vn 0 1 0
vn -0.755849 0.654746 0
vn -0.755849 0.654746 0
vn -0.755849 0.654746 0
vn -0.755849 0.654746 0
vn -0.755849 0.654746 0
vn 0 1 0
vn 0 1 0
vn 0 1 0
vn 0 1 0
vn 0 1 0
vn 0.758069 0.652175 0
vn 0.758069 0.652175 0
vn 0.758069 0.652175 0
vn 0.758069 0.652175 0
vn 0.758069 0.652175 0
vn 0.00121537 0.999999 0
vn 0.00121537 0.999999 2.70528e-20
vn 0.00121537 0.999999 2.70528e-20
vn 0.00121537 0.999999 -2.70528e-20
vn 0.00121537 0.999999 -2.70528e-20
vn -0.73388 0.67928 0
vn -0.73388 0.67928 0
vn -0.73388 0.67928 0
vn -0.73388 0.67928 0
vn -0.73388 0.67928 0
vn 0 1 0
vn 0 1 0
vn 0 1 0
vn 0 1 0
vn 0 1 0
vn 0.759386 0.65064 0
vn 0.759386 0.65064 0
vn 0.759386 0.65064 0
vn 0.759386 0.65064 0
vn 0.759386 0.65064 0
vn 0 1 0
vn 0 1 0
vn 0 1 0
vn 0 1 0
vn 0 1 0
vn -0.719304 0.694696 0
vn -0.719304 0.694696 -3.31888e-17
vn -0.719304 0.694696 -3.31888e-17
vn -0.719304 0.694696 3.31888e-17
vn -0.719304 0.694696 3.31888e-17
vn 0 1 0
vn 0 1 0
vn 0 1 0
vn 0 1 0
vn 0 1 0
vn 0.737769 0.675053 0
vn 0.737769 0.675053 -6.80986e-17
vn 0.737769 0.675053 -6.80986e-17
vn 0.737769 0.675053 6.80986e-17
vn 0.737769 0.675053 6.80986e-17
vn 0 1 0
vn 0 1 0
vn 0 1 0
vn 0 1 0
vn 0 1 0
vn -0.768502 0.639847 0
vn -0.768502 0.639847 3.47951e-17
vn -0.768502 0.639847 3.47951e-17
vn -0.768502 0.639847 -3.47951e-17
vn -0.768502 0.639847 -3.47951e-17
vn 0 1 0
vn 0 1 0
vn 0 1 0
vn 0 1 0
vn 0 1 0
vn 0.789131 0.614225 0
vn 0.789131 0.614225 -1.12358e-18
vn 0.789131 0.614225 -1.12358e-18
vn 0.789131 0.614225 1.12358e-18
vn 0.789131 0.614225 1.12358e-18
vn 0 1 0
vn 0 1 0
vn 0 1 0
vn 0 1 0
vn 0 1 0
vn -0.0445163 -0.999009 0
vn -0.0445163 -0.999009 2.05902e-18
vn -0.0445163 -0.999009 2.05902e-18
vn -0.0445163 -0.999009 -2.05902e-18
vn -0.0445163 -0.999009 -2.05902e-18
vn -0.789136 -0.614218 0
vn -0.789136 -0.614218 -3.48997e-17
vn -0.789136 -0.614218 -3.48997e-17
vn -0.789136 -0.614218 3.48997e-17
vn -0.789136 -0.614218 3.48997e-17
vn -0.00231492 -0.999997 0
vn -0.00231492 -0.999997 2.74868e-18
vn -0.00231492 -0.999997 2.74868e-18
vn -0.00231492 -0.999997 -2.74868e-18
vn -0.00231492 -0.999997 -2.74868e-18
vn 0.768502 -0.639847 0
vn 0.768502 -0.639847 0
vn 0.768502 -0.639847 0
vn 0.768502 -0.639847 0
vn 0.768502 -0.639847 0
vn 0 -1 0
vn 0 -1 0
vn 0 -1 0
vn 0 -1 0
vn 0 -1 0
vn -0.737769 -0.675053 0
vn -0.737769 -0.675053 -1.03809e-18
vn -0.737769 -0.675053 -1.03809e-18
vn -0.737769 -0.675053 1.03809e-18
vn -0.737769 -0.675053 1.03809e-18
vn 0 -1 0
vn 0 -1 0
vn 0 -1 0
vn 0 -1 0
vn 0 -1 0
vn 0.719304 -0.694696 0
vn 0.719304 -0.694696 0
vn 0.719304 -0.694696 0
vn 0.719304 -0.694696 0
vn 0.719304 -0.694696 0
vn 0 -1 0
vn 0 -1 0
vn 0 -1 0
vn 0 -1 0
vn 0 -1 0
vn -0.759422 -0.650598 0
vn -0.759422 -0.650598 -9.0316e-19
vn -0.759422 -0.650598 -9.0316e-19
vn -0.759422 -0.650598 9.0316e-19
vn -0.759422 -0.650598 9.0316e-19
vn -0.00196971 -0.999998 0
vn -0.00196971 -0.999998 4.42513e-20
vn -0.00196971 -0.999998 4.42513e-20
vn -0.00196971 -0.999998 -4.42513e-20
vn -0.00196971 -0.999998 -4.42513e-20
vn 0.73388 -0.67928 0
vn 0.73388 -0.67928 -1.6824e-17
vn 0.73388 -0.67928 -1.6824e-17
vn 0.73388 -0.67928 1.6824e-17
vn 0.73388 -0.67928 1.6824e-17
vn 0 -1 0
vn 0 -1 0
vn 0 -1 0
vn 0 -1 0
vn 0 -1 0
vn -0.758075 -0.652168 0
vn -0.758075 -0.652168 3.46041e-17
vn -0.758075 -0.652168 3.46041e-17
vn -0.758075 -0.652168 -3.46041e-17
vn -0.758075 -0.652168 -3.46041e-17
vn -0.00214807 -0.999998 0
vn -0.00214807 -0.999998 4.8874e-20
vn -0.00214807 -0.999998 4.8874e-20
vn -0.00214807 -0.999998 -4.8874e-20
vn -0.00214807 -0.999998 -4.8874e-20
vn 0.755849 -0.654746 0
vn 0.755849 -0.654746 9.39301e-18
vn 0.755849 -0.654746 9.39301e-18
vn 0.755849 -0.654746 -9.39301e-18
vn 0.755849 -0.654746 -9.39301e-18
vn 0 -1 0
vn 0 -1 0
vn 0 -1 0
vn 0 -1 0
vn 0 -1 0
vn -0.717432 -0.696629 0
vn -0.717432 -0.696629 7.16862e-18
vn -0.717432 -0.696629 7.16862e-18
vn -0.717432 -0.696629 -7.16862e-18
vn -0.717432 -0.696629 -7.16862e-18
vn 0 -1 0
vn 0 -1 0
vn 0 -1 0
vn 0 -1 0
vn 0 -1 0
vn 0.791185 -0.611576 0
vn 0.791185 -0.611576 0
vn 0.791185 -0.611576 0
vn 0.791185 -0.611576 0
vn 0.791185 -0.611576 0
vn 0 -1 0
vn 0 -1 0
vn 0 -1 0
vn 0 -1 0
vn 0 -1 0
vn -0.718207 -0.695829 0
vn -0.718207 -0.695829 -1.05535e-18
vn -0.718207 -0.695829 -1.05535e-18
vn -0.718207 -0.695829 1.05535e-18
vn -0.718207 -0.695829 1.05535e-18
vn 0 -1 0
vn 0 -1 0
vn 0 -1 0
vn 0 -1 0
vn 0 -1 0
vn 0.729795 -0.683666 0
vn 0.729795 -0.683666 0
vn 0.729795 -0.683666 0
vn 0.729795 -0.683666 0
vn 0.729795 -0.683666 0
vn 0 -1 0
vn 0 -1 0
vn 0 -1 0
vn 0 -1 0
vn 0 -1 0
vn -0.752266 -0.65886 0
vn -0.752266 -0.65886 0
vn -0.752266 -0.65886 0
vn -0.752266 -0.65886 0
vn -0.752266 -0.65886 0
vn -0.00214028 -0.999998 0
vn -0.00214028 -0.999998 0
vn -0.00214028 -0.999998 0
vn -0.00214028 -0.999998 0
vn -0.00214028 -0.999998 0
vn 0.762898 -0.646519 0
vn 0.762898 -0.646519 1.6858e-17
vn 0.762898 -0.646519 1.6858e-17
vn 0.762898 -0.646519 -1.6858e-17
vn 0.762898 -0.646519 -1.6858e-17
vn 0 -1 0
vn 0 -1 0
vn 0 -1 0
vn 0 -1 0
vn 0 -1 0
vn -0.740363 -0.672207 0
vn -0.740363 -0.672207 0
vn -0.740363 -0.672207 0
vn -0.740363 -0.672207 0
vn -0.740363 -0.672207 0
vn 0 -1 0
vn 0 -1 0
vn 0 -1 0
vn 0 -1 0
vn 0 -1 0
vn 0.719797 -0.694185 0
vn 0.719797 -0.694185 0
vn 0.719797 -0.694185 0
vn 0.719797 -0.694185 0
vn 0.719797 -0.694185 0
vn 0 -1 0
vn 0 -1 0
vn 0 -1 0
vn 0 -1 0
vn 0 -1 0
vn -0.72251 -0.69136 0
vn -0.72251 -0.69136 -1.0617e-18
vn -0.72251 -0.69136 -1.0617e-18
vn -0.72251 -0.69136 1.0617e-18
vn -0.72251 -0.69136 1.0617e-18
vn 0 -1 0
vn 0 -1 0
vn 0 -1 0
vn 0 -1 0
vn 0 -1 0
vn 0.721226 -0.6927 0
vn 0.721226 -0.6927 3.32778e-17
vn 0.721226 -0.6927 3.32778e-17
vn 0.721226 -0.6927 -3.32778e-17
vn 0.721226 -0.6927 -3.32778e-17
vn 0 -1 0
vn 0 -1 0
vn 0 -1 0
vn 0 -1 0
vn 0 -1 0
vn -0.76076 -0.649034 0
vn -0.76076 -0.649034 3.36784e-17
vn -0.76076 -0.649034 3.36784e-17
vn -0.76076 -0.649034 -3.36784e-17
vn -0.76076 -0.649034 -3.36784e-17
vn -0.00216991 -0.999998 0
vn -0.00216991 -0.999998 2.95458e-18
vn -0.00216991 -0.999998 2.95458e-18
vn -0.00216991 -0.999998 -2.95458e-18
vn -0.00216991 -0.999998 -2.95458e-18


# Faces: 
usemtl material0
f 124/44/1 120/40/1 123/43/1
f 120/40/1 124/44/1 125/45/1
f 126/46/1 119/39/1 125/45/1
f 125/45/1 119/39/1 120/40/1
f 115/35/1 116/36/1 129/49/1
f 112/32/1 132/52/1 133/53/1
f 129/49/1 130/50/1 115/35/1
f 116/36/1 128/48/1 129/49/1
f 131/51/1 132/52/1 112/32/1
f 116/36/1 127/47/1 128/48/1
f 108/28/1 137/57/1 107/27/1
f 137/57/1 108/28/1 136/56/1
f 138/58/1 107/27/1 137/57/1
f 111/31/1 133/53/1 134/54/1
f 136/56/1 108/28/1 135/55/1
f 140/60/1 103/23/1 104/24/1
f 103/23/1 140/60/1 141/61/1
f 102/22/1 103/23/1 142/62/1
f 104/24/1 139/59/1 140/60/1
f 133/53/1 111/31/1 112/32/1
f 122/42/1 123/43/1 121/41/1
f 123/43/1 120/40/1 121/41/1
f 114/34/1 115/35/1 130/50/1
f 130/50/1 131/51/1 114/34/1
f 118/38/1 126/46/1 117/37/1
f 117/37/1 127/47/1 116/36/1
f 127/47/1 117/37/1 126/46/1
f 126/46/1 118/38/1 119/39/1
f 114/34/1 131/51/1 113/33/1
f 110/30/1 134/54/1 135/55/1
f 134/54/1 110/30/1 111/31/1
f 109/29/1 135/55/1 108/28/1
f 138/58/1 106/26/1 107/27/1
f 105/25/1 138/58/1 139/59/1
f 110/30/1 135/55/1 109/29/1
f 105/25/1 106/26/1 138/58/1
f 105/25/1 139/59/1 104/24/1
f 113/33/1 131/51/1 112/32/1
f 103/23/1 141/61/1 142/62/1
f 96/16/1 148/68/1 149/69/1
f 150/70/1 95/15/1 149/69/1
f 149/69/1 95/15/1 96/16/1
f 96/16/1 147/67/1 148/68/1
f 144/64/1 100/20/1 143/63/1
f 100/20/1 144/64/1 99/19/1
f 99/19/1 145/65/1 146/66/1
f 145/65/1 99/19/1 144/64/1
f 152/72/1 92/12/1 151/71/1
f 152/72/1 153/73/1 92/12/1
f 84/4/1 160/80/1 81/1/1
f 83/3/1 81/1/1 82/2/1
f 81/1/1 83/3/1 84/4/1
f 159/79/1 160/80/1 84/4/1
f 154/74/1 91/11/1 153/73/1
f 153/73/1 91/11/1 92/12/1
f 88/8/1 156/76/1 87/7/1
f 87/7/1 156/76/1 157/77/1
f 156/76/1 88/8/1 155/75/1
f 142/62/1 143/63/1 101/21/1
f 146/66/1 147/67/1 98/18/1
f 150/70/1 94/14/1 95/15/1
f 96/16/1 97/17/1 147/67/1
f 146/66/1 98/18/1 99/19/1
f 143/63/1 100/20/1 101/21/1
f 98/18/1 147/67/1 97/17/1
f 93/13/1 150/70/1 151/71/1
f 150/70/1 93/13/1 94/14/1
f 142/62/1 101/21/1 102/22/1
f 154/74/1 155/75/1 90/10/1
f 157/77/1 158/78/1 87/7/1
f 158/78/1 159/79/1 86/6/1
f 88/8/1 89/9/1 155/75/1
f 151/71/1 92/12/1 93/13/1
f 86/6/1 87/7/1 158/78/1
f 86/6/1 159/79/1 85/5/1
f 155/75/1 89/9/1 90/10/1
f 159/79/1 84/4/1 85/5/1
f 154/74/1 90/10/1 91/11/1
f 40/120/2 44/124/2 43/123/2
f 44/124/2 40/120/2 45/125/2
f 39/119/2 46/126/2 45/125/2
f 39/119/2 45/125/2 40/120/2
f 36/116/2 35/115/2 49/129/2
f 52/132/2 32/112/2 53/133/2
f 50/130/2 49/129/2 35/115/2
f 48/128/2 36/116/2 49/129/2
f 52/132/2 51/131/2 32/112/2
f 47/127/2 36/116/2 48/128/2
f 57/137/2 28/108/2 27/107/2
f 28/108/2 57/137/2 56/136/2
f 27/107/2 58/138/2 57/137/2
f 53/133/2 31/111/2 54/134/2
f 28/108/2 56/136/2 55/135/2
f 23/103/2 60/140/2 24/104/2
f 60/140/2 23/103/2 61/141/2
f 23/103/2 22/102/2 62/142/2
f 59/139/2 24/104/2 60/140/2
f 31/111/2 53/133/2 32/112/2
f 43/123/2 42/122/2 41/121/2
f 40/120/2 43/123/2 41/121/2
f 35/115/2 34/114/2 50/130/2
f 51/131/2 50/130/2 34/114/2
f 46/126/2 38/118/2 37/117/2
f 47/127/2 37/117/2 36/116/2
f 37/117/2 47/127/2 46/126/2
f 38/118/2 46/126/2 39/119/2
f 51/131/2 34/114/2 33/113/2
f 54/134/2 30/110/2 55/135/2
f 30/110/2 54/134/2 31/111/2
f 55/135/2 29/109/2 28/108/2
f 26/106/2 58/138/2 27/107/2
f 58/138/2 25/105/2 59/139/2
f 55/135/2 30/110/2 29/109/2
f 26/106/2 25/105/2 58/138/2
f 59/139/2 25/105/2 24/104/2
f 51/131/2 33/113/2 32/112/2
f 61/141/2 23/103/2 62/142/2
f 68/148/2 16/96/2 69/149/2
f 15/95/2 70/150/2 69/149/2
f 15/95/2 69/149/2 16/96/2
f 67/147/2 16/96/2 68/148/2
f 20/100/2 64/144/2 63/143/2
f 64/144/2 20/100/2 19/99/2
f 65/145/2 19/99/2 66/146/2
f 19/99/2 65/145/2 64/144/2
f 12/92/2 72/152/2 71/151/2
f 73/153/2 72/152/2 12/92/2
f 80/160/2 4/84/2 1/81/2
f 1/81/2 3/83/2 2/82/2
f 3/83/2 1/81/2 4/84/2
f 80/160/2 79/159/2 4/84/2
f 11/91/2 74/154/2 73/153/2
f 11/91/2 73/153/2 12/92/2
f 76/156/2 8/88/2 7/87/2
f 76/156/2 7/87/2 77/157/2
f 8/88/2 76/156/2 75/155/2
f 63/143/2 62/142/2 21/101/2
f 67/147/2 66/146/2 18/98/2
f 14/94/2 70/150/2 15/95/2
f 17/97/2 16/96/2 67/147/2
f 18/98/2 66/146/2 19/99/2
f 20/100/2 63/143/2 21/101/2
f 67/147/2 18/98/2 17/97/2
f 70/150/2 13/93/2 71/151/2
f 13/93/2 70/150/2 14/94/2
f 21/101/2 62/142/2 22/102/2
f 75/155/2 74/154/2 10/90/2
f 78/158/2 77/157/2 7/87/2
f 79/159/2 78/158/2 6/86/2
f 9/89/2 8/88/2 75/155/2
f 12/92/2 71/151/2 13/93/2
f 7/87/2 6/86/2 78/158/2
f 79/159/2 6/86/2 5/85/2
f 9/89/2 75/155/2 10/90/2
f 4/84/2 79/159/2 5/85/2
f 10/90/2 74/154/2 11/91/2
f 161/481/3 1/161/4 2/162/5
f 161/481/3 2/162/5 82/322/6
f 161/481/3 82/322/6 81/321/7
f 161/481/3 81/321/7 1/161/4
f 162/482/8 2/163/9 3/164/10
f 162/482/8 3/164/10 83/324/11
f 162/482/8 83/324/11 82/323/12
f 162/482/8 82/323/12 2/163/9
f 163/483/13 3/165/14 4/166/15
f 163/483/13 4/166/15 84/326/16
f 163/483/13 84/326/16 83/325/17
f 163/483/13 83/325/17 3/165/14
f 164/484/18 4/167/19 5/168/20
f 164/484/18 5/168/20 85/328/21
f 164/484/18 85/328/21 84/327/22
f 164/484/18 84/327/22 4/167/19
f 165/485/23 5/169/24 6/170/25
f 165/485/23 6/170/25 86/330/26
f 165/485/23 86/330/26 85/329/27
f 165/485/23 85/329/27 5/169/24
f 166/486/28 6/171/29 7/172/30
f 166/486/28 7/172/30 87/332/31
f 166/486/28 87/332/31 86/331/32
f 166/486/28 86/331/32 6/171/29
f 167/487/33 7/173/34 8/174/35
f 167/487/33 8/174/35 88/334/36
f 167/487/33 88/334/36 87/333/37
f 167/487/33 87/333/37 7/173/34
f 168/488/38 8/175/39 9/176/40
f 168/488/38 9/176/40 89/336/41
f 168/488/38 89/336/41 88/335/42
f 168/488/38 88/335/42 8/175/39
f 169/489/43 9/177/44 10/178/45
f 169/489/43 10/178/45 90/338/46
f 169/489/43 90/338/46 89/337/47
f 169/489/43 89/337/47 9/177/44
f 170/490/48 10/179/49 11/180/50
f 170/490/48 11/180/50 91/340/51
f 170/490/48 91/340/51 90/339/52
f 170/490/48 90/339/52 10/179/49
f 171/491/53 11/181/54 12/182/55
f 171/491/53 12/182/55 92/342/56
f 171/491/53 92/342/56 91/341/57
f 171/491/53 91/341/57 11/181/54
f 172/492/58 12/183/59 13/184/60
f 172/492/58 13/184/60 93/344/61
f 172/492/58 93/344/61 92/343/62
f 172/492/58 92/343/62 12/183/59
f 173/493/63 13/185/64 14/186/65
f 173/493/63 14/186/65 94/346/66
f 173/493/63 94/346/66 93/345/67
f 173/493/63 93/345/67 13/185/64
f 174/494/68 14/187/69 15/188/70
f 174/494/68 15/188/70 95/348/71
f 174/494/68 95/348/71 94/347/72
f 174/494/68 94/347/72 14/187/69
f 175/495/73 15/189/74 16/190/75
f 175/495/73 16/190/75 96/350/76
f 175/495/73 96/350/76 95/349/77
f 175/495/73 95/349/77 15/189/74
f 176/496/78 16/191/79 17/192/80
f 176/496/78 17/192/80 97/352/81
f 176/496/78 97/352/81 96/351/82
f 176/496/78 96/351/82 16/191/79
f 177/497/83 17/193/84 18/194/85
f 177/497/83 18/194/85 98/354/86
f 177/497/83 98/354/86 97/353/87
f 177/497/83 97/353/87 17/193/84
f 178/498/88 18/195/89 19/196/90
f 178/498/88 19/196/90 99/356/91
f 178/498/88 99/356/91 98/355/92
f 178/498/88 98/355/92 18/195/89
f 179/499/93 19/197/94 20/198/95
f 179/499/93 20/198/95 100/358/96
f 179/499/93 100/358/96 99/357/97
f 179/499/93 99/357/97 19/197/94
f 180/500/98 20/199/99 21/200/100
f 180/500/98 21/200/100 101/360/101
f 180/500/98 101/360/101 100/359/102
f 180/500/98 100/359/102 20/199/99
f 181/501/103 21/201/104 22/202/105
f 181/501/103 22/202/105 102/362/106
f 181/501/103 102/362/106 101/361/107
f 181/501/103 101/361/107 21/201/104
f 182/502/108 22/203/109 23/204/110
f 182/502/108 23/204/110 103/364/111
f 182/502/108 103/364/111 102/363/112
f 182/502/108 102/363/112 22/203/109
f 183/503/113 23/205/114 24/206/115
f 183/503/113 24/206/115 104/366/116
f 183/503/113 104/366/116 103/365/117
f 183/503/113 103/365/117 23/205/114
f 184/504/118 24/207/119 25/208/120
f 184/504/118 25/208/120 105/368/121
f 184/504/118 105/368/121 104/367/122
f 184/504/118 104/367/122 24/207/119
f 185/505/123 25/209/124 26/210/125
f 185/505/123 26/210/125 106/370/126
f 185/505/123 106/370/126 105/369/127
f 185/505/123 105/369/127 25/209/124
f 186/506/128 26/211/129 27/212/130
f 186/506/128 27/212/130 107/372/131
f 186/506/128 107/372/131 106/371/132
f 186/506/128 106/371/132 26/211/129
f 187/507/133 27/213/134 28/214/135
f 187/507/133 28/214/135 108/374/136
f 187/507/133 108/374/136 107/373/137
f 187/507/133 107/373/137 27/213/134
f 188/508/138 28/215/139 29/216/140
f 188/508/138 29/216/140 109/376/141
f 188/508/138 109/376/141 108/375/142
f 188/508/138 108/375/142 28/215/139
f 189/509/143 29/217/144 30/218/145
f 189/509/143 30/218/145 110/378/146
f 189/509/143 110/378/146 109/377/147
f 189/509/143 109/377/147 29/217/144
f 190/510/148 30/219/149 31/220/150
f 190/510/148 31/220/150 111/380/151
f 190/510/148 111/380/151 110/379/152
f 190/510/148 110/379/152 30/219/149
f 191/511/153 31/221/154 32/222/155
f 191/511/153 32/222/155 112/382/156
f 191/511/153 112/382/156 111/381/157
f 191/511/153 111/381/157 31/221/154
f 192/512/158 32/223/159 33/224/160
f 192/512/158 33/224/160 113/384/161
f 192/512/158 113/384/161 112/383/162
f 192/512/158 112/383/162 32/223/159
f 193/513/163 33/225/164 34/226/165
f 193/513/163 34/226/165 114/386/166
f 193/513/163 114/386/166 113/385/167
f 193/513/163 113/385/167 33/225/164
f 194/514/168 34/227/169 35/228/170
f 194/514/168 35/228/170 115/388/171
f 194/514/168 115/388/171 114/387/172
f 194/514/168 114/387/172 34/227/169
f 195/515/173 35/229/174 36/230/175
f 195/515/173 36/230/175 116/390/176
f 195/515/173 116/390/176 115/389/177
f 195/515/173 115/389/177 35/229/174
f 196/516/178 36/231/179 37/232/180
f 196/516/178 37/232/180 117/392/181
f 196/516/178 117/392/181 116/391/182
f 196/516/178 116/391/182 36/231/179
f 197/517/183 37/233/184 38/234/185
f 197/517/183 38/234/185 118/394/186
f 197/517/183 118/394/186 117/393/187
f 197/517/183 117/393/187 37/233/184
f 198/518/188 38/235/189 39/236/190
f 198/518/188 39/236/190 119/396/191
f 198/518/188 119/396/191 118/395/192
f 198/518/188 118/395/192 38/235/189
f 199/519/193 39/237/194 40/238/195
f 199/519/193 40/238/195 120/398/196
f 199/519/193 120/398/196 119/397/197
f 199/519/193 119/397/197 39/237/194
f 200/520/198 40/239/199 41/240/200
f 200/520/198 41/240/200 121/400/201
f 200/520/198 121/400/201 120/399/202
f 200/520/198 120/399/202 40/239/199
f 201/521/203 41/241/204 42/242/205
f 201/521/203 42/242/205 122/402/206
f 201/521/203 122/402/206 121/401/207
f 201/521/203 121/401/207 41/241/204
f 202/522/208 42/243/209 43/244/210
f 202/522/208 43/244/210 123/404/211
f 202/522/208 123/404/211 122/403/212
f 202/522/208 122/403/212 42/243/209
f 203/523/213 43/245/214 44/246/215
f 203/523/213 44/246/215 124/406/216
f 203/523/213 124/406/216 123/405/217
f 203/523/213 123/405/217 43/245/214
f 204/524/218 44/247/219 45/248/220
f 204/524/218 45/248/220 125/408/221
f 204/524/218 125/408/221 124/407/222
f 204/524/218 124/407/222 44/247/219
f 205/525/223 45/249/224 46/250/225
f 205/525/223 46/250/225 126/410/226
f 205/525/223 126/410/226 125/409/227
f 205/525/223 125/409/227 45/249/224
f 206/526/228 46/251/229 47/252/230
f 206/526/228 47/252/230 127/412/231
f 206/526/228 127/412/231 126/411/232
f 206/526/228 126/411/232 46/251/229
f 207/527/233 47/253/234 48/254/235
f 207/527/233 48/254/235 128/414/236
f 207/527/233 128/414/236 127/413/237
f 207/527/233 127/413/237 47/253/234
f 208/528/238 48/255/239 49/256/240
f 208/528/238 49/256/240 129/416/241
f 208/528/238 129/416/241 128/415/242
f 208/528/238 128/415/242 48/255/239
f 209/529/243 49/257/244 50/258/245
f 209/529/243 50/258/245 130/418/246
f 209/529/243 130/418/246 129/417/247
f 209/529/243 129/417/247 49/257/244
f 210/530/248 50/259/249 51/260/250
f 210/530/248 51/260/250 131/420/251
f 210/530/248 131/420/251 130/419/252
f 210/530/248 130/419/252 50/259/249
f 211/531/253 51/261/254 52/262/255
f 211/531/253 52/262/255 132/422/256
f 211/531/253 132/422/256 131/421/257
f 211/531/253 131/421/257 51/261/254
f 212/532/258 52/263/259 53/264/260
f 212/532/258 53/264/260 133/424/261
f 212/532/258 133/424/261 132/423/262
f 212/532/258 132/423/262 52/263/259
f 213/533/263 53/265/264 54/266/265
f 213/533/263 54/266/265 134/426/266
f 213/533/263 134/426/266 133/425/267
f 213/533/263 133/425/267 53/265/264
f 214/534/268 54/267/269 55/268/270
f 214/534/268 55/268/270 135/428/271
f 214/534/268 135/428/271 134/427/272
f 214/534/268 134/427/272 54/267/269
f 215/535/273 55/269/274 56/270/275
f 215/535/273 56/270/275 136/430/276
f 215/535/273 136/430/276 135/429/277
f 215/535/273 135/429/277 55/269/274
f 216/536/278 56/271/279 57/272/280
f 216/536/278 57/272/280 137/432/281
f 216/536/278 137/432/281 136/431/282
f 216/536/278 136/431/282 56/271/279
f 217/537/283 57/273/284 58/274/285
f 217/537/283 58/274/285 138/434/286
f 217/537/283 138/434/286 137/433/287
f 217/537/283 137/433/287 57/273/284
f 218/538/288 58/275/289 59/276/290
f 218/538/288 59/276/290 139/436/291
f 218/538/288 139/436/291 138/435/292
f 218/538/288 138/435/292 58/275/289
f 219/539/293 59/277/294 60/278/295
f 219/539/293 60/278/295 140/438/296
f 219/539/293 140/438/296 139/437/297
f 219/539/293 139/437/297 59/277/294
f 220/540/298 60/279/299 61/280/300
f 220/540/298 61/280/300 141/440/301
f 220/540/298 141/440/301 140/439/302
f 220/540/298 140/439/302 60/279/299
f 221/541/303 61/281/304 62/282/305
f 221/541/303 62/282/305 142/442/306
f 221/541/303 142/442/306 141/441/307
f 221/541/303 141/441/307 61/281/304
f 222/542/308 62/283/309 63/284/310
f 222/542/308 63/284/310 143/444/311
f 222/542/308 143/444/311 142/443/312
f 222/542/308 142/443/312 62/283/309
f 223/543/313 63/285/314 64/286/315
f 223/543/313 64/286/315 144/446/316
f 223/543/313 144/446/316 143/445/317
f 223/543/313 143/445/317 63/285/314
f 224/544/318 64/287/319 65/288/320
f 224/544/318 65/288/320 145/448/321
f 224/544/318 145/448/321 144/447/322
f 224/544/318 144/447/322 64/287/319
f 225/545/323 65/289/324 66/290/325
f 225/545/323 66/290/325 146/450/326
f 225/545/323 146/450/326 145/449/327
f 225/545/323 145/449/327 65/289/324
f 226/546/328 66/291/329 67/292/330
f 226/546/328 67/292/330 147/452/331
f 226/546/328 147/452/331 146/451/332
f 226/546/328 146/451/332 66/291/329
f 227/547/333 67/293/334 68/294/335
f 227/547/333 68/294/335 148/454/336
f 227/547/333 148/454/336 147/453/337
f 227/547/333 147/453/337 67/293/334
f 228/548/338 68/295/339 69/296/340
f 228/548/338 69/296/340 149/456/341
f 228/548/338 149/456/341 148/455/342
f 228/548/338 148/455/342 68/295/339
f 229/549/343 69/297/344 70/298/345
f 229/549/343 70/298/345 150/458/346
f 229/549/343 150/458/346 149/457/347
f 229/549/343 149/457/347 69/297/344
f 230/550/348 70/299/349 71/300/350
f 230/550/348 71/300/350 151/460/351
f 230/550/348 151/460/351 150/459/352
f 230/550/348 150/459/352 70/299/349
f 231/551/353 71/301/354 72/302/355
f 231/551/353 72/302/355 152/462/356
f 231/551/353 152/462/356 151/461/357
f 231/551/353 151/461/357 71/301/354
f 232/552/358 72/303/359 73/304/360
f 232/552/358 73/304/360 153/464/361
f 232/552/358 153/464/361 152/463/362
f 232/552/358 152/463/362 72/303/359
f 233/553/363 73/305/364 74/306/365
f 233/553/363 74/306/365 154/466/366
f 233/553/363 154/466/366 153/465/367
f 233/553/363 153/465/367 73/305/364
f 234/554/368 74/307/369 75/308/370
f 234/554/368 75/308/370 155/468/371
f 234/554/368 155/468/371 154/467/372
f 234/554/368 154/467/372 74/307/369
f 235/555/373 75/309/374 76/310/375
f 235/555/373 76/310/375 156/470/376
f 235/555/373 156/470/376 155/469/377
f 235/555/373 155/469/377 75/309/374
f 236/556/378 76/311/379 77/312/380
f 236/556/378 77/312/380 157/472/381
f 236/556/378 157/472/381 156/471/382
f 236/556/378 156/471/382 76/311/379
f 237/557/383 77/313/384 78/314/385
f 237/557/383 78/314/385 158/474/386
f 237/557/383 158/474/386 157/473/387
f 237/557/383 157/473/387 77/313/384
f 238/558/388 78/315/389 79/316/390
f 238/558/388 79/316/390 159/476/391
f 238/558/388 159/476/391 158/475/392
f 238/558/388 158/475/392 78/315/389
f 239/559/393 79/317/394 80/318/395
f 239/559/393 80/318/395 160/478/396
f 239/559/393 160/478/396 159/477/397
f 239/559/393 159/477/397 79/317/394
f 240/560/398 80/319/399 1/320/400
f 240/560/398 1/320/400 81/480/401
f 240/560/398 81/480/401 160/479/402
f 240/560/398 160/479/402 80/319/399
