mtllib WS300-200.mtl
# Vertex Positions: 
g groupNumber_0
v 13.5815 -0.56087 -16.9263
v 13.5996 -0.530603 -16.9263
v 13.5216 -0.483789 -16.9263
v 13.4623 -0.45852 -16.9263
v 13.3989 -0.450073 -16.9263
v 13.3423 -0.4568 -16.9263
v 13.2884 -0.477033 -16.9263
v 13.2086 -0.518882 -16.9263
v 12.7793 -0.518882 -16.9263
v 12.7793 0.490477 -16.9263
v 12.775 0.53296 -16.9263
v 12.7626 0.572555 -16.9263
v 12.7432 0.608406 -16.9263
v 12.7174 0.639657 -16.9263
v 12.6861 0.665453 -16.9263
v 12.6503 0.684938 -16.9263
v 12.6107 0.697257 -16.9263
v 12.5682 0.701553 -16.9263
v 1.63676 0.701553 -16.9263
v 0.271817 0.254339 -16.9263
v -1.07474 0.701553 -16.9263
v -12.0644 0.701553 -16.9263
v -12.0971 0.698339 -16.9263
v -12.1279 0.688895 -16.9263
v -12.1563 0.673521 -16.9263
v -12.1814 0.652516 -16.9263
v -12.2015 0.627733 -16.9263
v -12.2161 0.59997 -16.9263
v -12.2251 0.569902 -16.9263
v -12.2282 0.538206 -16.9263
v -12.2273 0.47833 -16.9263
v -12.2267 0.415521 -16.9263
v -12.2264 0.347961 -16.9263
v -12.2263 0.276918 -16.9263
v -12.2264 0.207084 -16.9263
v -12.2266 0.136337 -16.9263
v -12.227 0.0657782 -16.9263
v -12.2274 -0.00349307 -16.9263
v -12.2279 -0.0703757 -16.9263
v -12.2285 -0.133769 -16.9263
v -12.229 -0.192573 -16.9263
v -12.2296 -0.245687 -16.9263
v -12.2268 -0.275697 -16.9263
v -12.2187 -0.302654 -16.9263
v -12.2055 -0.327524 -16.9263
v -12.1874 -0.349691 -16.9263
v -12.1651 -0.368236 -16.9263
v -12.1399 -0.381811 -16.9263
v -12.1125 -0.39015 -16.9263
v -12.0836 -0.392988 -16.9263
v -11.5408 -0.392988 -16.9263
v -11.512 -0.398849 -16.9263
v -11.4883 -0.414822 -16.9263
v -11.4724 -0.438494 -16.9263
v -11.4666 -0.467449 -16.9263
v -11.4724 -0.496405 -16.9263
v -11.4884 -0.520076 -16.9263
v -11.5121 -0.536049 -16.9263
v -11.541 -0.54191 -16.9263
v -12.4713 -0.54191 -16.9263
v -12.8198 -0.666253 -16.9263
v -13.5996 -0.666253 -16.9263
v -13.5996 -0.701553 -16.9263
v -12.8136 -0.701553 -16.9263
v -12.4682 -0.57721 -16.9263
v -11.541 -0.57721 -16.9263
v -11.4984 -0.568573 -16.9263
v -11.4635 -0.54503 -16.9263
v -11.4399 -0.510137 -16.9263
v -11.4313 -0.467449 -16.9263
v -11.4399 -0.424761 -16.9263
v -11.4634 -0.389869 -16.9263
v -11.4982 -0.366326 -16.9263
v -11.5408 -0.357688 -16.9263
v -12.0836 -0.357688 -16.9263
v -12.1263 -0.349217 -16.9263
v -12.1624 -0.32487 -16.9263
v -12.186 -0.28923 -16.9263
v -12.1943 -0.247222 -16.9263
v -12.1937 -0.192871 -16.9263
v -12.1932 -0.134013 -16.9263
v -12.1926 -0.070558 -16.9263
v -12.1921 -0.00360721 -16.9263
v -12.1917 0.0657383 -16.9263
v -12.1913 0.136377 -16.9263
v -12.1911 0.207209 -16.9263
v -12.191 0.277132 -16.9263
v -12.1911 0.348272 -16.9263
v -12.1914 0.415932 -16.9263
v -12.192 0.478845 -16.9263
v -12.1928 0.53574 -16.9263
v -12.1834 0.586602 -16.9263
v -12.1562 0.627782 -16.9263
v -12.1143 0.656325 -16.9263
v -12.0644 0.666253 -16.9263
v -1.08044 0.666253 -16.9263
v 0.271748 0.217178 -16.9263
v 1.64242 0.666253 -16.9263
v 12.5682 0.666253 -16.9263
v 12.6036 0.662676 -16.9263
v 12.6365 0.65242 -16.9263
v 12.6664 0.636196 -16.9263
v 12.6924 0.614716 -16.9263
v 12.7139 0.588693 -16.9263
v 12.7301 0.558837 -16.9263
v 12.7404 0.525861 -16.9263
v 12.744 0.490477 -16.9263
v 12.744 -0.554182 -16.9263
v 13.2173 -0.554182 -16.9263
v 13.3048 -0.508299 -16.9263
v 13.3508 -0.491063 -16.9263
v 13.399 -0.485329 -16.9263
v 13.4529 -0.492523 -16.9263
v 13.5035 -0.514056 -16.9263
v 13.5815 -0.56087 16.9263
v 13.5996 -0.530603 16.9263
v 13.5216 -0.483789 16.9263
v 13.4623 -0.45852 16.9263
v 13.3989 -0.450073 16.9263
v 13.3423 -0.4568 16.9263
v 13.2884 -0.477033 16.9263
v 13.2086 -0.518882 16.9263
v 12.7793 -0.518882 16.9263
v 12.7793 0.490477 16.9263
v 12.775 0.53296 16.9263
v 12.7626 0.572555 16.9263
v 12.7432 0.608406 16.9263
v 12.7174 0.639657 16.9263
v 12.6861 0.665453 16.9263
v 12.6503 0.684938 16.9263
v 12.6107 0.697257 16.9263
v 12.5682 0.701553 16.9263
v 1.63676 0.701553 16.9263
v 0.271817 0.254339 16.9263
v -1.07474 0.701553 16.9263
v -12.0644 0.701553 16.9263
v -12.0971 0.698339 16.9263
v -12.1279 0.688895 16.9263
v -12.1563 0.673521 16.9263
v -12.1814 0.652516 16.9263
v -12.2015 0.627733 16.9263
v -12.2161 0.59997 16.9263
v -12.2251 0.569902 16.9263
v -12.2282 0.538206 16.9263
v -12.2273 0.47833 16.9263
v -12.2267 0.415521 16.9263
v -12.2264 0.347961 16.9263
v -12.2263 0.276918 16.9263
v -12.2264 0.207084 16.9263
v -12.2266 0.136337 16.9263
v -12.227 0.0657782 16.9263
v -12.2274 -0.00349307 16.9263
v -12.2279 -0.0703757 16.9263
v -12.2285 -0.133769 16.9263
v -12.229 -0.192573 16.9263
v -12.2296 -0.245687 16.9263
v -12.2268 -0.275697 16.9263
v -12.2187 -0.302654 16.9263
v -12.2055 -0.327524 16.9263
v -12.1874 -0.349691 16.9263
v -12.1651 -0.368236 16.9263
v -12.1399 -0.381811 16.9263
v -12.1125 -0.39015 16.9263
v -12.0836 -0.392988 16.9263
v -11.5408 -0.392988 16.9263
v -11.512 -0.398849 16.9263
v -11.4883 -0.414822 16.9263
v -11.4724 -0.438494 16.9263
v -11.4666 -0.467449 16.9263
v -11.4724 -0.496405 16.9263
v -11.4884 -0.520076 16.9263
v -11.5121 -0.536049 16.9263
v -11.541 -0.54191 16.9263
v -12.4713 -0.54191 16.9263
v -12.8198 -0.666253 16.9263
v -13.5996 -0.666253 16.9263
v -13.5996 -0.701553 16.9263
v -12.8136 -0.701553 16.9263
v -12.4682 -0.57721 16.9263
v -11.541 -0.57721 16.9263
v -11.4984 -0.568573 16.9263
v -11.4635 -0.54503 16.9263
v -11.4399 -0.510137 16.9263
v -11.4313 -0.467449 16.9263
v -11.4399 -0.424761 16.9263
v -11.4634 -0.389869 16.9263
v -11.4982 -0.366326 16.9263
v -11.5408 -0.357688 16.9263
v -12.0836 -0.357688 16.9263
v -12.1263 -0.349217 16.9263
v -12.1624 -0.32487 16.9263
v -12.186 -0.28923 16.9263
v -12.1943 -0.247222 16.9263
v -12.1937 -0.192871 16.9263
v -12.1932 -0.134013 16.9263
v -12.1926 -0.070558 16.9263
v -12.1921 -0.00360721 16.9263
v -12.1917 0.0657383 16.9263
v -12.1913 0.136377 16.9263
v -12.1911 0.207209 16.9263
v -12.191 0.277132 16.9263
v -12.1911 0.348272 16.9263
v -12.1914 0.415932 16.9263
v -12.192 0.478845 16.9263
v -12.1928 0.53574 16.9263
v -12.1834 0.586602 16.9263
v -12.1562 0.627782 16.9263
v -12.1143 0.656325 16.9263
v -12.0644 0.666253 16.9263
v -1.08044 0.666253 16.9263
v 0.271748 0.217178 16.9263
v 1.64242 0.666253 16.9263
v 12.5682 0.666253 16.9263
v 12.6036 0.662676 16.9263
v 12.6365 0.65242 16.9263
v 12.6664 0.636196 16.9263
v 12.6924 0.614716 16.9263
v 12.7139 0.588693 16.9263
v 12.7301 0.558837 16.9263
v 12.7404 0.525861 16.9263
v 12.744 0.490477 16.9263
v 12.744 -0.554182 16.9263
v 13.2173 -0.554182 16.9263
v 13.3048 -0.508299 16.9263
v 13.3508 -0.491063 16.9263
v 13.399 -0.485329 16.9263
v 13.4529 -0.492523 16.9263
v 13.5035 -0.514056 16.9263
v 13.5906 -0.545737 0
v 13.5606 -0.507196 0
v 13.4919 -0.471155 0
v 13.4306 -0.454297 0
v 13.3706 -0.453436 0
v 13.3154 -0.466916 0
v 13.2485 -0.497958 0
v 12.9939 -0.518882 0
v 12.7793 -0.0142027 0
v 12.7771 0.511719 0
v 12.7688 0.552758 0
v 12.7529 0.590481 0
v 12.7303 0.624032 0
v 12.7017 0.652555 0
v 12.6682 0.675196 0
v 12.6305 0.691098 0
v 12.5894 0.699405 0
v 7.10247 0.701553 0
v 0.954289 0.477946 0
v -0.40146 0.477946 0
v -6.56957 0.701553 0
v -12.0807 0.699946 0
v -12.1125 0.693617 0
v -12.1421 0.681208 0
v -12.1688 0.663018 0
v -12.1914 0.640124 0
v -12.2088 0.613851 0
v -12.2206 0.584936 0
v -12.2266 0.554054 0
v -12.2277 0.508268 0
v -12.227 0.446926 0
v -12.2266 0.381741 0
v -12.2264 0.31244 0
v -12.2264 0.242001 0
v -12.2265 0.171711 0
v -12.2268 0.101058 0
v -12.2272 0.0311425 0
v -12.2277 -0.0369344 0
v -12.2282 -0.102072 0
v -12.2287 -0.163171 0
v -12.2293 -0.21913 0
v -12.2282 -0.260692 0
v -12.2228 -0.289175 0
v -12.2121 -0.315089 0
v -12.1965 -0.338607 0
v -12.1763 -0.358963 0
v -12.1525 -0.375023 0
v -12.1262 -0.38598 0
v -12.0981 -0.391569 0
v -11.8122 -0.392988 0
v -11.5264 -0.395919 0
v -11.5002 -0.406836 0
v -11.4804 -0.426658 0
v -11.4695 -0.452972 0
v -11.4695 -0.481927 0
v -11.4804 -0.50824 0
v -11.5002 -0.528063 0
v -11.5266 -0.53898 0
v -12.0062 -0.54191 0
v -12.6456 -0.604082 0
v -13.2097 -0.666253 0
v -13.5996 -0.683903 0
v -13.2066 -0.701553 0
v -12.6409 -0.639382 0
v -12.0046 -0.57721 0
v -11.5197 -0.572891 0
v -11.4809 -0.556801 0
v -11.4517 -0.527584 0
v -11.4356 -0.488793 0
v -11.4356 -0.446105 0
v -11.4516 -0.407315 0
v -11.4808 -0.378097 0
v -11.5195 -0.362007 0
v -11.8122 -0.357688 0
v -12.105 -0.353452 0
v -12.1443 -0.337043 0
v -12.1742 -0.30705 0
v -12.1901 -0.268226 0
v -12.194 -0.220047 0
v -12.1934 -0.163442 0
v -12.1929 -0.102286 0
v -12.1924 -0.0370826 0
v -12.1919 0.0310655 0
v -12.1915 0.101058 0
v -12.1912 0.171793 0
v -12.1911 0.24217 0
v -12.1911 0.312702 0
v -12.1913 0.382102 0
v -12.1917 0.447389 0
v -12.1924 0.507292 0
v -12.1881 0.561171 0
v -12.1698 0.607192 0
v -12.1352 0.642053 0
v -12.0893 0.661289 0
v -6.57242 0.666253 0
v -0.404347 0.441715 0
v 0.957082 0.441715 0
v 7.1053 0.666253 0
v 12.5859 0.664465 0
v 12.6201 0.657548 0
v 12.6515 0.644308 0
v 12.6794 0.625456 0
v 12.7032 0.601705 0
v 12.722 0.573765 0
v 12.7353 0.542349 0
v 12.7422 0.508169 0
v 12.744 -0.0318527 0
v 12.9806 -0.554182 0
v 13.261 -0.531241 0
v 13.3278 -0.499681 0
v 13.3749 -0.488196 0
v 13.426 -0.488926 0
v 13.4782 -0.50329 0
v 13.5425 -0.537463 0


# Vertex Texture Coordinates :
vt 0.417008 0.00215833
vt 0.417286 0.00262268
vt 0.416089 0.00334089
vt 0.415178 0.00372856
vt 0.414207 0.00385816
vt 0.413338 0.00375496
vt 0.412511 0.00344455
vt 0.411286 0.0028025
vt 0.4047 0.0028025
vt 0.4047 0.0182879
vt 0.404634 0.0189397
vt 0.404445 0.0195471
vt 0.404146 0.0200971
vt 0.40375 0.0205766
vt 0.403271 0.0209723
vt 0.402721 0.0212713
vt 0.402113 0.0214603
vt 0.401462 0.0215262
vt 0.233754 0.0215262
vt 0.212813 0.0146651
vt 0.192155 0.0215262
vt 0.0235534 0.0215262
vt 0.0230523 0.0214769
vt 0.0225788 0.021332
vt 0.0221437 0.0210961
vt 0.0217581 0.0207739
vt 0.0214504 0.0203936
vt 0.0212256 0.0199677
vt 0.0210877 0.0195064
vt 0.0210408 0.0190201
vt 0.021054 0.0181015
vt 0.0210626 0.0171379
vt 0.0210674 0.0161014
vt 0.0210689 0.0150115
vt 0.0210677 0.0139401
vt 0.0210643 0.0128548
vt 0.021059 0.0117722
vt 0.0210524 0.0107095
vt 0.0210447 0.0096834
vt 0.0210364 0.00871083
vt 0.0210279 0.00780867
vt 0.0210195 0.00699381
vt 0.0210617 0.0065334
vt 0.0211859 0.00611984
vt 0.0213885 0.00573828
vt 0.0216655 0.0053982
vt 0.0220083 0.00511369
vt 0.0223946 0.00490543
vt 0.0228147 0.00477749
vt 0.0232588 0.00473394
vt 0.0315856 0.00473394
vt 0.0320287 0.00464402
vt 0.0323909 0.00439897
vt 0.0326354 0.0040358
vt 0.0327251 0.00359158
vt 0.0326351 0.00314735
vt 0.0323901 0.00278418
vt 0.0320269 0.00253913
vt 0.0315827 0.00244921
vt 0.0173103 0.00244921
vt 0.0119642 0.000541566
vt 0 0.000541566
vt 0 0
vt 0.0120586 0
vt 0.0173576 0.00190764
vt 0.0315827 0.00190764
vt 0.0322375 0.00204016
vt 0.0327728 0.00240135
vt 0.0331341 0.00293667
vt 0.0332666 0.00359158
vt 0.0331343 0.00424649
vt 0.0327737 0.0047818
vt 0.0322393 0.00514299
vt 0.0315856 0.00527551
vt 0.0232588 0.00527551
vt 0.0226033 0.00540548
vt 0.0220503 0.00577899
vt 0.0216872 0.00632578
vt 0.021561 0.00697026
vt 0.0215694 0.0078041
vt 0.021578 0.00870709
vt 0.0215862 0.0096806
vt 0.0215939 0.0107077
vt 0.0216006 0.0117716
vt 0.0216058 0.0128554
vt 0.0216093 0.013942
vt 0.0216105 0.0150148
vt 0.021609 0.0161062
vt 0.0216042 0.0171442
vt 0.0215956 0.0181094
vt 0.0215828 0.0189823
vt 0.0217273 0.0197626
vt 0.0221444 0.0203944
vt 0.0227884 0.0208323
vt 0.0235534 0.0209846
vt 0.192067 0.0209846
vt 0.212812 0.014095
vt 0.233841 0.0209846
vt 0.401462 0.0209846
vt 0.402004 0.0209297
vt 0.40251 0.0207724
vt 0.402968 0.0205235
vt 0.403368 0.020194
vt 0.403697 0.0197947
vt 0.403946 0.0193367
vt 0.404103 0.0188308
vt 0.404158 0.0182879
vt 0.404158 0.00226093
vt 0.41142 0.00226093
vt 0.412763 0.00296486
vt 0.413468 0.0032293
vt 0.414208 0.00331727
vt 0.415035 0.0032069
vt 0.415811 0.00287654
vt 0.423906 0.00215833
vt 0.423628 0.00262268
vt 0.424825 0.00334089
vt 0.425736 0.00372856
vt 0.426708 0.00385816
vt 0.427576 0.00375496
vt 0.428403 0.00344455
vt 0.429628 0.0028025
vt 0.436214 0.0028025
vt 0.436214 0.0182879
vt 0.43628 0.0189397
vt 0.436469 0.0195471
vt 0.436768 0.0200971
vt 0.437164 0.0205766
vt 0.437643 0.0209723
vt 0.438193 0.0212713
vt 0.438801 0.0214603
vt 0.439453 0.0215262
vt 0.60716 0.0215262
vt 0.628101 0.0146651
vt 0.64876 0.0215262
vt 0.817361 0.0215262
vt 0.817862 0.0214769
vt 0.818335 0.021332
vt 0.81877 0.0210961
vt 0.819156 0.0207739
vt 0.819464 0.0203936
vt 0.819689 0.0199677
vt 0.819827 0.0195064
vt 0.819873 0.0190201
vt 0.81986 0.0181015
vt 0.819852 0.0171379
vt 0.819847 0.0161014
vt 0.819845 0.0150115
vt 0.819846 0.0139401
vt 0.81985 0.0128548
vt 0.819855 0.0117722
vt 0.819862 0.0107095
vt 0.819869 0.0096834
vt 0.819878 0.00871083
vt 0.819886 0.00780867
vt 0.819895 0.00699381
vt 0.819853 0.0065334
vt 0.819728 0.00611984
vt 0.819526 0.00573828
vt 0.819249 0.0053982
vt 0.818906 0.00511369
vt 0.81852 0.00490543
vt 0.818099 0.00477749
vt 0.817655 0.00473394
vt 0.809329 0.00473394
vt 0.808885 0.00464402
vt 0.808523 0.00439897
vt 0.808279 0.0040358
vt 0.808189 0.00359158
vt 0.808279 0.00314735
vt 0.808524 0.00278418
vt 0.808887 0.00253913
vt 0.809331 0.00244921
vt 0.823604 0.00244921
vt 0.82895 0.000541566
vt 0.840914 0.000541566
vt 0.840914 0
vt 0.828856 0
vt 0.823557 0.00190764
vt 0.809331 0.00190764
vt 0.808677 0.00204016
vt 0.808141 0.00240135
vt 0.80778 0.00293667
vt 0.807648 0.00359158
vt 0.80778 0.00424649
vt 0.80814 0.0047818
vt 0.808675 0.00514299
vt 0.809329 0.00527551
vt 0.817655 0.00527551
vt 0.818311 0.00540548
vt 0.818864 0.00577899
vt 0.819227 0.00632578
vt 0.819353 0.00697026
vt 0.819345 0.0078041
vt 0.819336 0.00870709
vt 0.819328 0.0096806
vt 0.81932 0.0107077
vt 0.819314 0.0117716
vt 0.819308 0.0128554
vt 0.819305 0.013942
vt 0.819304 0.0150148
vt 0.819305 0.0161062
vt 0.81931 0.0171442
vt 0.819319 0.0181094
vt 0.819331 0.0189823
vt 0.819187 0.0197626
vt 0.81877 0.0203944
vt 0.818126 0.0208323
vt 0.817361 0.0209846
vt 0.648847 0.0209846
vt 0.628102 0.014095
vt 0.607074 0.0209846
vt 0.439453 0.0209846
vt 0.43891 0.0209297
vt 0.438404 0.0207724
vt 0.437946 0.0205235
vt 0.437547 0.020194
vt 0.437217 0.0197947
vt 0.436968 0.0193367
vt 0.436811 0.0188308
vt 0.436756 0.0182879
vt 0.436756 0.00226093
vt 0.429494 0.00226093
vt 0.428151 0.00296486
vt 0.427446 0.0032293
vt 0.426706 0.00331727
vt 0.425879 0.0032069
vt 0.425103 0.00287654
vt 4.51196e-05 0.0278807
vt 0.000586423 0.0278807
vt 0.00701941 0.0278807
vt 0.00841521 0.0278807
vt 0.00940515 0.0278807
vt 0.0103854 0.0278807
vt 0.0112597 0.0278807
vt 0.0121431 0.0278807
vt 0.0135261 0.0278807
vt 0.0201127 0.0278807
vt 0.0265001 0.0278807
vt 0.0419855 0.0278807
vt 0.0426406 0.0278807
vt 0.0432768 0.0278807
vt 0.0439028 0.0278807
vt 0.0445245 0.0278807
vt 0.0451462 0.0278807
vt 0.0457722 0.0278807
vt 0.0464083 0.0278807
vt 0.0470634 0.0278807
vt 0.214771 0.0278807
vt 0.236807 0.0278807
vt 0.258575 0.0278807
vt 0.427177 0.0278807
vt 0.433566 0.0278807
vt 0.434069 0.0278807
vt 0.434565 0.0278807
vt 0.43506 0.0278807
vt 0.435562 0.0278807
vt 0.436051 0.0278807
vt 0.436533 0.0278807
vt 0.437014 0.0278807
vt 0.437503 0.0278807
vt 0.438422 0.0278807
vt 0.439385 0.0278807
vt 0.440422 0.0278807
vt 0.441512 0.0278807
vt 0.442583 0.0278807
vt 0.443668 0.0278807
vt 0.444751 0.0278807
vt 0.445814 0.0278807
vt 0.44684 0.0278807
vt 0.447812 0.0278807
vt 0.448715 0.0278807
vt 0.449529 0.0278807
vt 0.449992 0.0278807
vt 0.450424 0.0278807
vt 0.450856 0.0278807
vt 0.451294 0.0278807
vt 0.45174 0.0278807
vt 0.452179 0.0278807
vt 0.452618 0.0278807
vt 0.453064 0.0278807
vt 0.461391 0.0278807
vt 0.461843 0.0278807
vt 0.46228 0.0278807
vt 0.462718 0.0278807
vt 0.463171 0.0278807
vt 0.463624 0.0278807
vt 0.464063 0.0278807
vt 0.464501 0.0278807
vt 0.464954 0.0278807
vt 0.479226 0.0278807
vt 0.484903 0.0278807
vt 0.496867 0.0278807
vt 0.503302 0.0278807
vt 0.503843 0.0278807
vt 0.510239 0.0278807
vt 0.522298 0.0278807
vt 0.52793 0.0278807
vt 0.542155 0.0278807
vt 0.542823 0.0278807
vt 0.543469 0.0278807
vt 0.544115 0.0278807
vt 0.544783 0.0278807
vt 0.545451 0.0278807
vt 0.546096 0.0278807
vt 0.546741 0.0278807
vt 0.547408 0.0278807
vt 0.555735 0.0278807
vt 0.556403 0.0278807
vt 0.557071 0.0278807
vt 0.557727 0.0278807
vt 0.558384 0.0278807
vt 0.559218 0.0278807
vt 0.560121 0.0278807
vt 0.561094 0.0278807
vt 0.562121 0.0278807
vt 0.563185 0.0278807
vt 0.564269 0.0278807
vt 0.565356 0.0278807
vt 0.566429 0.0278807
vt 0.56752 0.0278807
vt 0.568558 0.0278807
vt 0.569523 0.0278807
vt 0.570396 0.0278807
vt 0.57119 0.0278807
vt 0.571947 0.0278807
vt 0.572726 0.0278807
vt 0.573506 0.0278807
vt 0.742019 0.0278807
vt 0.763878 0.0278807
vt 0.786007 0.0278807
vt 0.953628 0.0278807
vt 0.959993 0.0278807
vt 0.960539 0.0278807
vt 0.961069 0.0278807
vt 0.96159 0.0278807
vt 0.962108 0.0278807
vt 0.962626 0.0278807
vt 0.963147 0.0278807
vt 0.963677 0.0278807
vt 0.964222 0.0278807
vt 0.980249 0.0278807
vt 0.98665 0.0278807
vt 0.993912 0.0278807
vt 0.995428 0.0278807
vt 0.996182 0.0278807
vt 0.996927 0.0278807
vt 0.997761 0.0278807
vt 0.998604 0.0278807
vt 1 0.0278807
vt 4.51196e-05 0.547241
vt 0.000586423 0.547241
vt 0.00701941 0.547241
vt 0.00841521 0.547241
vt 0.00940515 0.547241
vt 0.0103854 0.547241
vt 0.0112597 0.547241
vt 0.0121431 0.547241
vt 0.0135261 0.547241
vt 0.0201127 0.547241
vt 0.0265001 0.547241
vt 0.0419855 0.547241
vt 0.0426406 0.547241
vt 0.0432768 0.547241
vt 0.0439028 0.547241
vt 0.0445245 0.547241
vt 0.0451462 0.547241
vt 0.0457722 0.547241
vt 0.0464083 0.547241
vt 0.0470634 0.547241
vt 0.214771 0.547241
vt 0.236807 0.547241
vt 0.258575 0.547241
vt 0.427177 0.547241
vt 0.433566 0.547241
vt 0.434069 0.547241
vt 0.434565 0.547241
vt 0.43506 0.547241
vt 0.435562 0.547241
vt 0.436051 0.547241
vt 0.436533 0.547241
vt 0.437014 0.547241
vt 0.437503 0.547241
vt 0.438422 0.547241
vt 0.439385 0.547241
vt 0.440422 0.547241
vt 0.441512 0.547241
vt 0.442583 0.547241
vt 0.443668 0.547241
vt 0.444751 0.547241
vt 0.445814 0.547241
vt 0.44684 0.547241
vt 0.447812 0.547241
vt 0.448715 0.547241
vt 0.449529 0.547241
vt 0.449992 0.547241
vt 0.450424 0.547241
vt 0.450856 0.547241
vt 0.451294 0.547241
vt 0.45174 0.547241
vt 0.452179 0.547241
vt 0.452618 0.547241
vt 0.453064 0.547241
vt 0.461391 0.547241
vt 0.461843 0.547241
vt 0.46228 0.547241
vt 0.462718 0.547241
vt 0.463171 0.547241
vt 0.463624 0.547241
vt 0.464063 0.547241
vt 0.464501 0.547241
vt 0.464954 0.547241
vt 0.479226 0.547241
vt 0.484903 0.547241
vt 0.496867 0.547241
vt 0.503302 0.547241
vt 0.503843 0.547241
vt 0.510239 0.547241
vt 0.522298 0.547241
vt 0.52793 0.547241
vt 0.542155 0.547241
vt 0.542823 0.547241
vt 0.543469 0.547241
vt 0.544115 0.547241
vt 0.544783 0.547241
vt 0.545451 0.547241
vt 0.546096 0.547241
vt 0.546741 0.547241
vt 0.547408 0.547241
vt 0.555735 0.547241
vt 0.556403 0.547241
vt 0.557071 0.547241
vt 0.557727 0.547241
vt 0.558384 0.547241
vt 0.559218 0.547241
vt 0.560121 0.547241
vt 0.561094 0.547241
vt 0.562121 0.547241
vt 0.563185 0.547241
vt 0.564269 0.547241
vt 0.565356 0.547241
vt 0.566429 0.547241
vt 0.56752 0.547241
vt 0.568558 0.547241
vt 0.569523 0.547241
vt 0.570396 0.547241
vt 0.57119 0.547241
vt 0.571947 0.547241
vt 0.572726 0.547241
vt 0.573506 0.547241
vt 0.742019 0.547241
vt 0.763878 0.547241
vt 0.786007 0.547241
vt 0.953628 0.547241
vt 0.959993 0.547241
vt 0.960539 0.547241
vt 0.961069 0.547241
vt 0.96159 0.547241
vt 0.962108 0.547241
vt 0.962626 0.547241
vt 0.963147 0.547241
vt 0.963677 0.547241
vt 0.964222 0.547241
vt 0.980249 0.547241
vt 0.98665 0.547241
vt 0.993912 0.547241
vt 0.995428 0.547241
vt 0.996182 0.547241
vt 0.996927 0.547241
vt 0.997761 0.547241
vt 0.998604 0.547241
vt 1 0.547241
vt 0.000315771 0.287561
vt 0.00771731 0.287561
vt 0.00891018 0.287561
vt 0.00989529 0.287561
vt 0.0108226 0.287561
vt 0.0117014 0.287561
vt 0.0128346 0.287561
vt 0.0168194 0.287561
vt 0.0342428 0.287561
vt 0.0423131 0.287561
vt 0.0429587 0.287561
vt 0.0435898 0.287561
vt 0.0442136 0.287561
vt 0.0448353 0.287561
vt 0.0454592 0.287561
vt 0.0460903 0.287561
vt 0.0467359 0.287561
vt 0.130917 0.287561
vt 0.225789 0.287561
vt 0.247691 0.287561
vt 0.342876 0.287561
vt 0.433818 0.287561
vt 0.434317 0.287561
vt 0.434812 0.287561
vt 0.435311 0.287561
vt 0.435807 0.287561
vt 0.436292 0.287561
vt 0.436774 0.287561
vt 0.437259 0.287561
vt 0.437962 0.287561
vt 0.438903 0.287561
vt 0.439903 0.287561
vt 0.440967 0.287561
vt 0.442047 0.287561
vt 0.443126 0.287561
vt 0.44421 0.287561
vt 0.445282 0.287561
vt 0.446327 0.287561
vt 0.447326 0.287561
vt 0.448263 0.287561
vt 0.449122 0.287561
vt 0.449761 0.287561
vt 0.450208 0.287561
vt 0.45064 0.287561
vt 0.451075 0.287561
vt 0.451517 0.287561
vt 0.451959 0.287561
vt 0.452398 0.287561
vt 0.452841 0.287561
vt 0.457227 0.287561
vt 0.461617 0.287561
vt 0.462062 0.287561
vt 0.462499 0.287561
vt 0.462945 0.287561
vt 0.463398 0.287561
vt 0.463844 0.287561
vt 0.464282 0.287561
vt 0.464727 0.287561
vt 0.47209 0.287561
vt 0.482064 0.287561
vt 0.490885 0.287561
vt 0.503572 0.287561
vt 0.516269 0.287561
vt 0.525114 0.287561
vt 0.535042 0.287561
vt 0.542489 0.287561
vt 0.543146 0.287561
vt 0.543792 0.287561
vt 0.544449 0.287561
vt 0.545117 0.287561
vt 0.545774 0.287561
vt 0.546419 0.287561
vt 0.547075 0.287561
vt 0.551572 0.287561
vt 0.556069 0.287561
vt 0.556737 0.287561
vt 0.557399 0.287561
vt 0.558055 0.287561
vt 0.558801 0.287561
vt 0.559669 0.287561
vt 0.560608 0.287561
vt 0.561608 0.287561
vt 0.562653 0.287561
vt 0.563727 0.287561
vt 0.564812 0.287561
vt 0.565892 0.287561
vt 0.566974 0.287561
vt 0.568039 0.287561
vt 0.569041 0.287561
vt 0.56996 0.287561
vt 0.570793 0.287561
vt 0.571568 0.287561
vt 0.572336 0.287561
vt 0.573116 0.287561
vt 0.657762 0.287561
vt 0.752949 0.287561
vt 0.774943 0.287561
vt 0.869817 0.287561
vt 0.960266 0.287561
vt 0.960804 0.287561
vt 0.96133 0.287561
vt 0.961849 0.287561
vt 0.962367 0.287561
vt 0.962886 0.287561
vt 0.963412 0.287561
vt 0.963949 0.287561
vt 0.972236 0.287561
vt 0.990281 0.287561
vt 0.99467 0.287561
vt 0.995805 0.287561
vt 0.996554 0.287561
vt 0.997344 0.287561
vt 0.998183 0.287561
vt 0.999302 0.287561


# Vertex Surface Normals: 
vn 0 0 1
vn 0 0 -1
vn 0.857837 -0.513921 0
vn 0.857837 -0.513921 -8.9542e-17
vn 0.857837 -0.513921 -8.9542e-17
vn 0.857837 -0.513921 8.9542e-17
vn 0.857837 -0.513921 8.9542e-17
vn 0.514551 0.85746 0
vn 0.514551 0.85746 2.78625e-18
vn 0.454162 0.890919 1.39645e-18
vn 0.454162 0.890919 -1.39645e-18
vn 0.514551 0.85746 -2.78625e-18
vn 0.391608 0.920132 0
vn 0.264311 0.964438 -7.77366e-18
vn 0.264311 0.964438 7.77366e-18
vn 0.132211 0.991222 0
vn 0.00713977 0.999975 -7.76407e-18
vn 0.00713977 0.999975 7.76407e-18
vn -0.118044 0.993008 0
vn -0.236414 0.971652 7.76472e-19
vn -0.236414 0.971652 -7.76472e-19
vn -0.351363 0.936239 0
vn -0.408596 0.912715 2.50036e-17
vn -0.408596 0.912715 -2.50036e-17
vn -0.464264 0.885697 0
vn -0.239064 0.971004 2.49071e-17
vn -0.239064 0.971004 -2.49071e-17
vn 0 1 0
vn 0 1 0
vn 0 1 0
vn 1 0 0
vn 1 0 0
vn 0.998731 0.0503717 0
vn 0.998731 0.0503717 0
vn 1 0 0
vn 0.994925 0.100616 0
vn 0.979827 0.199848 4.80455e-19
vn 0.979827 0.199848 -4.80455e-19
vn 0.954857 0.297067 0
vn 0.921166 0.38917 1.2614e-18
vn 0.921166 0.38917 -1.2614e-18
vn 0.878616 0.477529 0
vn 0.828737 0.559639 -4.07174e-17
vn 0.828737 0.559639 4.07174e-17
vn 0.771208 0.636583 0
vn 0.707107 0.707107 -4.27533e-17
vn 0.707107 0.707107 4.27533e-17
vn 0.636583 0.771208 0
vn 0.559639 0.828737 -1.25812e-18
vn 0.559639 0.828737 1.25812e-18
vn 0.477529 0.878616 0
vn 0.38917 0.921166 -1.55632e-18
vn 0.38917 0.921166 1.55632e-18
vn 0.297067 0.954857 0
vn 0.199848 0.979827 3.72022e-18
vn 0.199848 0.979827 -3.72022e-18
vn 0.100616 0.994925 0
vn 0.0503717 0.998731 5.25699e-18
vn 0.0503717 0.998731 -5.25699e-18
vn 0 1 0
vn -0.15765 0.987495 2.7871e-18
vn -0.15765 0.987495 -2.7871e-18
vn -0.311356 0.950293 0
vn 0.00201787 0.999998 4.65901e-18
vn 0.00201787 0.999998 -4.65901e-18
vn 0.315189 0.949029 0
vn 0.159642 0.987175 1.69396e-18
vn 0.159642 0.987175 -1.69396e-18
vn 0 1 0
vn -0.0490347 0.998797 1.62716e-18
vn -0.0490347 0.998797 -1.62716e-18
vn -0.0979514 0.995191 0
vn -0.196224 0.980559 6.54542e-20
vn -0.196224 0.980559 -6.54542e-20
vn -0.29256 0.956247 0
vn -0.386503 0.922288 -1.5679e-18
vn -0.386503 0.922288 1.5679e-18
vn -0.47659 0.879126 0
vn -0.561722 0.827326 0
vn -0.561722 0.827326 0
vn -0.641276 0.767311 0
vn -0.712687 0.701482 -1.02475e-18
vn -0.712687 0.701482 1.02475e-18
vn -0.777376 0.629036 0
vn -0.834809 0.55054 -1.02476e-18
vn -0.834809 0.55054 1.02476e-18
vn -0.884344 0.466836 0
vn -0.925621 0.378451 -4.69737e-19
vn -0.925621 0.378451 4.69737e-19
vn -0.958091 0.286465 0
vn -0.98137 0.192129 -3.13325e-19
vn -0.98137 0.192129 3.13325e-19
vn -0.995383 0.0959784 0
vn -0.999166 0.0408428 1.31867e-19
vn -0.999166 0.0408428 -1.31867e-19
vn -0.999896 -0.0144175 0
vn -0.999932 -0.011664 -3.89758e-20
vn -0.999932 -0.011664 3.89758e-20
vn -0.99996 -0.00891031 0
vn -0.999977 -0.00677895 -7.28643e-21
vn -0.999977 -0.00677895 7.28643e-21
vn -0.999989 -0.00464757 0
vn -0.999995 -0.00301401 8.74383e-21
vn -0.999995 -0.00301401 -8.74383e-21
vn -0.999999 -0.00138044 0
vn -1 -0.000114646 1.04576e-21
vn -1 -0.000114646 -1.04576e-21
vn -0.999999 0.00115114 0
vn -0.999998 0.00215862 -2.80035e-21
vn -0.999998 0.00215862 2.80035e-21
vn -0.999995 0.00316609 0
vn -0.999992 0.00400506 -6.66106e-21
vn -0.999992 0.00400506 6.66106e-21
vn -0.999988 0.00484403 0
vn -0.999985 0.00555348 -5.29073e-21
vn -0.999985 0.00555348 5.29073e-21
vn -0.99998 0.00626293 0
vn -0.999976 0.00686993 -2.91117e-21
vn -0.999976 0.00686993 2.91117e-21
vn -0.999972 0.00747693 0
vn -0.999968 0.00800192 -1.48115e-21
vn -0.999968 0.00800192 1.48115e-21
vn -0.999964 0.0085269 0
vn -0.99996 0.00898466 0
vn -0.99996 0.00898466 0
vn -0.999955 0.00944241 0
vn -0.999952 0.00984384 0
vn -0.999952 0.00984384 0
vn -0.999948 0.0102453 0
vn -0.99918 -0.0404985 3.62323e-20
vn -0.99918 -0.0404985 -3.62323e-20
vn -0.995838 -0.0911379 0
vn -0.981701 -0.19043 2.69999e-19
vn -0.981701 -0.19043 -2.69999e-19
vn -0.957688 -0.287807 0
vn -0.924918 -0.380167 2.33577e-19
vn -0.924918 -0.380167 -2.33577e-19
vn -0.883264 -0.468876 0
vn -0.833259 -0.552883 0
vn -0.833259 -0.552883 0
vn -0.77529 -0.631605 0
vn -0.710347 -0.703851 6.31205e-19
vn -0.710347 -0.703851 -6.31205e-19
vn -0.638701 -0.769455 0
vn -0.559363 -0.828923 6.3133e-19
vn -0.559363 -0.828923 -6.3133e-19
vn -0.474526 -0.880242 0
vn -0.384832 -0.922987 -7.86631e-19
vn -0.384832 -0.922987 7.86631e-19
vn -0.29134 -0.95662 0
vn -0.195427 -0.980718 2.86642e-20
vn -0.195427 -0.980718 -2.86642e-20
vn -0.097603 -0.995225 0
vn -0.0488599 -0.998806 8.12243e-19
vn -0.0488599 -0.998806 -8.12243e-19
vn 0 -1 0
vn -0.0999358 -0.994994 -7.97864e-19
vn -0.0999358 -0.994994 7.97864e-19
vn -0.198871 -0.980026 0
vn -0.387112 -0.922033 -1.4905e-18
vn -0.387112 -0.922033 1.4905e-18
vn -0.560334 -0.828267 0
vn -0.707945 -0.706267 -1.14738e-18
vn -0.707945 -0.706267 1.14738e-18
vn -0.829594 -0.558367 0
vn -0.922683 -0.38556 -4.67628e-19
vn -0.922683 -0.38556 4.67628e-19
vn -0.980223 -0.197897 0
vn -1 0.000250299 1.64331e-19
vn -1 0.000250299 -1.64331e-19
vn -0.980124 0.198388 0
vn -0.922357 0.386339 -7.70322e-19
vn -0.922357 0.386339 7.70322e-19
vn -0.828929 0.559353 0
vn -0.707107 0.707107 -9.33622e-19
vn -0.707107 0.707107 9.33622e-19
vn -0.559353 0.828929 0
vn -0.386339 0.922357 1.62879e-18
vn -0.386339 0.922357 -1.62879e-18
vn -0.198388 0.980124 0
vn -0.0996904 0.995019 1.6053e-18
vn -0.0996904 0.995019 -1.6053e-18
vn 0 1 0
vn -0.170535 0.985352 1.52168e-18
vn -0.170535 0.985352 -1.52168e-18
vn -0.336074 0.941836 0
vn -0.170535 0.985352 1.52168e-18
vn -0.170535 0.985352 -1.52168e-18
vn 0 1 0
vn 0 1 0
vn 0 1 0
vn -1 0 0
vn -1 0 0
vn -1 0 0
vn -1 0 0
vn -1 0 0
vn 0 -1 0
vn 0 -1 0
vn 0.171919 -0.985111 1.53411e-18
vn 0.171919 -0.985111 -1.53411e-18
vn 0 -1 0
vn 0.338718 -0.940888 0
vn 0.171919 -0.985111 1.53411e-18
vn 0.171919 -0.985111 -1.53411e-18
vn 0 -1 0
vn 0.0996739 -0.99502 1.60115e-18
vn 0.0996739 -0.99502 -1.60115e-18
vn 0.198355 -0.98013 0
vn 0.386295 -0.922375 1.62458e-18
vn 0.386295 -0.922375 -1.62458e-18
vn 0.559301 -0.828965 0
vn 0.707075 -0.707139 0
vn 0.707075 -0.707139 0
vn 0.828914 -0.559376 0
vn 0.922354 -0.386346 -1.67072e-19
vn 0.922354 -0.386346 1.67072e-19
vn 0.980126 -0.198376 0
vn 1 -0.000169632 1.14283e-23
vn 1 -0.000169632 -1.14283e-23
vn 0.980193 0.198044 0
vn 0.922575 0.385818 1.67075e-19
vn 0.922575 0.385818 -1.67075e-19
vn 0.829365 0.558707 0
vn 0.707644 0.70657 -6.91614e-19
vn 0.707644 0.70657 6.91614e-19
vn 0.559966 0.828515 0
vn 0.386819 0.922156 -6.92344e-19
vn 0.386819 0.922156 6.92344e-19
vn 0.198683 0.980064 0
vn 0.0998402 0.995003 0
vn 0.0998402 0.995003 0
vn 0 1 0
vn 0.0977123 0.995215 8.04762e-19
vn 0.0977123 0.995215 -8.04762e-19
vn 0.194489 0.980905 0
vn 0.384721 0.923033 1.28993e-19
vn 0.384721 0.923033 -1.28993e-19
vn 0.559742 0.828667 0
vn 0.709872 0.704331 -6.87531e-19
vn 0.709872 0.704331 6.87531e-19
vn 0.833027 0.553232 0
vn 0.924993 0.379985 -8.49884e-20
vn 0.924993 0.379985 8.49884e-20
vn 0.981372 0.19212 0
vn 0.995808 0.0914695 -8.37867e-20
vn 0.995808 0.0914695 8.37867e-20
vn 0.999949 -0.0101263 0
vn 0.999952 -0.00978 0
vn 0.999952 -0.00978 0
vn 0.999956 -0.0094337 0
vn 0.99996 -0.00897617 0
vn 0.99996 -0.00897617 0
vn 0.999964 -0.00851863 0
vn 0.999968 -0.00799407 0
vn 0.999968 -0.00799407 0
vn 0.999972 -0.0074695 0
vn 0.999976 -0.00686277 0
vn 0.999976 -0.00686277 0
vn 0.99998 -0.00625604 0
vn 0.999985 -0.00554739 0
vn 0.999985 -0.00554739 0
vn 0.999988 -0.00483874 0
vn 0.999992 -0.00400052 -1.3985e-21
vn 0.999992 -0.00400052 1.3985e-21
vn 0.999995 -0.00316231 0
vn 0.999998 -0.00215599 -3.25793e-21
vn 0.999998 -0.00215599 3.25793e-21
vn 0.999999 -0.00114968 0
vn 1 0.000114436 -1.85943e-21
vn 1 0.000114436 1.85943e-21
vn 0.999999 0.00137855 0
vn 0.999995 0.0030097 0
vn 0.999995 0.0030097 0
vn 0.999989 0.00464084 0
vn 0.999977 0.00676816 0
vn 0.999977 0.00676816 0
vn 0.99996 0.00889545 0
vn 0.999931 0.0117855 2.4379e-20
vn 0.999931 0.0117855 -2.4379e-20
vn 0.999892 0.0146755 0
vn 0.996456 -0.0841146 2.44986e-20
vn 0.996456 -0.0841146 -2.44986e-20
vn 0.983283 -0.182083 0
vn 0.927418 -0.374027 -9.18019e-19
vn 0.927418 -0.374027 9.18019e-19
vn 0.834489 -0.551024 0
vn 0.711897 -0.702284 -2.31798e-18
vn 0.711897 -0.702284 2.31798e-18
vn 0.562317 -0.826922 0
vn 0.38653 -0.922277 -3.02541e-18
vn 0.38653 -0.922277 3.02541e-18
vn 0.195285 -0.980747 0
vn 0.0981157 -0.995175 -1.59826e-18
vn 0.0981157 -0.995175 1.59826e-18
vn 0 -1 0
vn -0.159638 -0.987176 5.62238e-19
vn -0.159638 -0.987176 -5.62238e-19
vn -0.315182 -0.949031 0
vn -0.00201883 -0.999998 4.04728e-18
vn -0.00201883 -0.999998 -4.04728e-18
vn 0.311348 -0.950296 0
vn 0.157645 -0.987496 3.33018e-18
vn 0.157645 -0.987496 -3.33018e-18
vn 0 -1 0
vn -0.0503516 -0.998732 0
vn -0.0503516 -0.998732 0
vn -0.100576 -0.994929 0
vn -0.199789 -0.979839 0
vn -0.199789 -0.979839 0
vn -0.29699 -0.954881 0
vn -0.3891 -0.921196 2.21849e-17
vn -0.3891 -0.921196 -2.21849e-17
vn -0.477467 -0.87865 0
vn -0.559598 -0.828764 2.21806e-17
vn -0.559598 -0.828764 -2.21806e-17
vn -0.636563 -0.771225 0
vn -0.707107 -0.707107 -1.06241e-18
vn -0.707107 -0.707107 1.06241e-18
vn -0.771225 -0.636562 0
vn -0.828764 -0.559598 -1.83623e-18
vn -0.828764 -0.559598 1.83623e-18
vn -0.87865 -0.477467 0
vn -0.921196 -0.3891 -2.89337e-19
vn -0.921196 -0.3891 2.89337e-19
vn -0.954881 -0.29699 0
vn -0.979839 -0.199789 6.5274e-19
vn -0.979839 -0.199789 -6.5274e-19
vn -0.994929 -0.100575 0
vn -0.998732 -0.0503516 1.67441e-19
vn -0.998732 -0.0503516 -1.67441e-19
vn -1 0 0
vn -1 0 0
vn -1 0 0
vn 0 -1 0
vn 0 -1 0
vn 0.239002 -0.971019 0
vn 0.239002 -0.971019 0
vn 0 -1 0
vn 0.46415 -0.885756 0
vn 0.408419 -0.912794 1.83652e-17
vn 0.408419 -0.912794 -1.83652e-17
vn 0.351121 -0.93633 0
vn 0.236301 -0.97168 1.84632e-17
vn 0.236301 -0.97168 -1.84632e-17
vn 0.118071 -0.993005 0
vn -0.00714872 -0.999974 -8.15238e-19
vn -0.00714872 -0.999974 8.15238e-19
vn -0.132256 -0.991216 0
vn -0.264454 -0.964398 -5.92852e-20
vn -0.264454 -0.964398 5.92852e-20
vn -0.39184 -0.920033 0
vn -0.454274 -0.890862 7.51866e-19
vn -0.454274 -0.890862 -7.51866e-19
vn -0.514551 -0.85746 0
vn -0.514551 -0.85746 0
vn -0.514551 -0.85746 0


# Faces: 
usemtl material0
f 177/63/1 175/61/1 176/62/1
f 175/61/1 177/63/1 178/64/1
f 179/65/1 174/60/1 175/61/1
f 179/65/1 173/59/1 174/60/1
f 175/61/1 178/64/1 179/65/1
f 194/80/1 155/41/1 156/42/1
f 194/80/1 154/40/1 155/41/1
f 193/79/1 157/43/1 192/78/1
f 156/42/1 193/79/1 194/80/1
f 195/81/1 153/39/1 154/40/1
f 192/78/1 157/43/1 158/44/1
f 193/79/1 156/42/1 157/43/1
f 158/44/1 159/45/1 192/78/1
f 161/47/1 191/77/1 160/46/1
f 162/48/1 190/76/1 161/47/1
f 189/75/1 164/50/1 165/51/1
f 162/48/1 163/49/1 190/76/1
f 189/75/1 163/49/1 164/50/1
f 173/59/1 179/65/1 180/66/1
f 163/49/1 189/75/1 190/76/1
f 195/81/1 196/82/1 153/39/1
f 152/38/1 153/39/1 196/82/1
f 190/76/1 191/77/1 161/47/1
f 192/78/1 159/45/1 191/77/1
f 195/81/1 154/40/1 194/80/1
f 159/45/1 160/46/1 191/77/1
f 197/83/1 152/38/1 196/82/1
f 198/84/1 150/36/1 151/37/1
f 200/86/1 148/34/1 149/35/1
f 202/88/1 146/32/1 147/33/1
f 147/33/1 148/34/1 201/87/1
f 149/35/1 150/36/1 199/85/1
f 203/89/1 145/31/1 146/32/1
f 143/29/1 144/30/1 205/91/1
f 205/91/1 144/30/1 145/31/1
f 143/29/1 206/92/1 142/28/1
f 206/92/1 141/27/1 142/28/1
f 206/92/1 143/29/1 205/91/1
f 205/91/1 145/31/1 204/90/1
f 204/90/1 145/31/1 203/89/1
f 152/38/1 197/83/1 151/37/1
f 200/86/1 149/35/1 199/85/1
f 200/86/1 201/87/1 148/34/1
f 199/85/1 150/36/1 198/84/1
f 202/88/1 203/89/1 146/32/1
f 147/33/1 201/87/1 202/88/1
f 207/93/1 141/27/1 206/92/1
f 140/26/1 207/93/1 139/25/1
f 140/26/1 141/27/1 207/93/1
f 208/94/1 138/24/1 139/25/1
f 139/25/1 207/93/1 208/94/1
f 208/94/1 209/95/1 137/23/1
f 136/22/1 137/23/1 209/95/1
f 208/94/1 137/23/1 138/24/1
f 197/83/1 198/84/1 151/37/1
f 173/59/1 181/67/1 172/58/1
f 181/67/1 173/59/1 180/66/1
f 172/58/1 181/67/1 182/68/1
f 182/68/1 170/56/1 171/57/1
f 222/108/1 223/109/1 123/9/1
f 182/68/1 171/57/1 172/58/1
f 186/72/1 167/53/1 168/54/1
f 170/56/1 184/70/1 169/55/1
f 184/70/1 170/56/1 183/69/1
f 185/71/1 168/54/1 184/70/1
f 184/70/1 168/54/1 169/55/1
f 170/56/1 182/68/1 183/69/1
f 185/71/1 186/72/1 168/54/1
f 123/9/1 221/107/1 222/108/1
f 122/8/1 223/109/1 224/110/1
f 223/109/1 122/8/1 123/9/1
f 122/8/1 224/110/1 121/7/1
f 115/1/1 116/2/1 228/114/1
f 118/4/1 227/113/1 228/114/1
f 228/114/1 116/2/1 117/3/1
f 224/110/1 120/6/1 121/7/1
f 120/6/1 224/110/1 225/111/1
f 120/6/1 225/111/1 119/5/1
f 227/113/1 118/4/1 226/112/1
f 118/4/1 119/5/1 226/112/1
f 226/112/1 119/5/1 225/111/1
f 117/3/1 118/4/1 228/114/1
f 188/74/1 165/51/1 187/73/1
f 187/73/1 165/51/1 166/52/1
f 188/74/1 189/75/1 165/51/1
f 210/96/1 136/22/1 209/95/1
f 186/72/1 187/73/1 166/52/1
f 136/22/1 210/96/1 135/21/1
f 134/20/1 211/97/1 212/98/1
f 166/52/1 167/53/1 186/72/1
f 211/97/1 134/20/1 210/96/1
f 135/21/1 210/96/1 134/20/1
f 134/20/1 212/98/1 133/19/1
f 213/99/1 132/18/1 212/98/1
f 132/18/1 213/99/1 214/100/1
f 214/100/1 131/17/1 132/18/1
f 212/98/1 132/18/1 133/19/1
f 219/105/1 220/106/1 126/12/1
f 127/13/1 218/104/1 219/105/1
f 124/10/1 125/11/1 220/106/1
f 126/12/1 220/106/1 125/11/1
f 220/106/1 221/107/1 124/10/1
f 127/13/1 219/105/1 126/12/1
f 130/16/1 215/101/1 129/15/1
f 131/17/1 214/100/1 130/16/1
f 215/101/1 216/102/1 129/15/1
f 130/16/1 214/100/1 215/101/1
f 218/104/1 128/14/1 217/103/1
f 128/14/1 218/104/1 127/13/1
f 129/15/1 216/102/1 128/14/1
f 128/14/1 216/102/1 217/103/1
f 124/10/1 221/107/1 123/9/1
f 61/175/2 63/177/2 62/176/2
f 63/177/2 61/175/2 64/178/2
f 60/174/2 65/179/2 61/175/2
f 59/173/2 65/179/2 60/174/2
f 64/178/2 61/175/2 65/179/2
f 41/155/2 80/194/2 42/156/2
f 40/154/2 80/194/2 41/155/2
f 43/157/2 79/193/2 78/192/2
f 79/193/2 42/156/2 80/194/2
f 39/153/2 81/195/2 40/154/2
f 43/157/2 78/192/2 44/158/2
f 42/156/2 79/193/2 43/157/2
f 45/159/2 44/158/2 78/192/2
f 77/191/2 47/161/2 46/160/2
f 76/190/2 48/162/2 47/161/2
f 50/164/2 75/189/2 51/165/2
f 49/163/2 48/162/2 76/190/2
f 49/163/2 75/189/2 50/164/2
f 65/179/2 59/173/2 66/180/2
f 75/189/2 49/163/2 76/190/2
f 82/196/2 81/195/2 39/153/2
f 39/153/2 38/152/2 82/196/2
f 77/191/2 76/190/2 47/161/2
f 45/159/2 78/192/2 77/191/2
f 40/154/2 81/195/2 80/194/2
f 46/160/2 45/159/2 77/191/2
f 38/152/2 83/197/2 82/196/2
f 36/150/2 84/198/2 37/151/2
f 34/148/2 86/200/2 35/149/2
f 32/146/2 88/202/2 33/147/2
f 34/148/2 33/147/2 87/201/2
f 36/150/2 35/149/2 85/199/2
f 31/145/2 89/203/2 32/146/2
f 30/144/2 29/143/2 91/205/2
f 30/144/2 91/205/2 31/145/2
f 92/206/2 29/143/2 28/142/2
f 27/141/2 92/206/2 28/142/2
f 29/143/2 92/206/2 91/205/2
f 31/145/2 91/205/2 90/204/2
f 31/145/2 90/204/2 89/203/2
f 83/197/2 38/152/2 37/151/2
f 35/149/2 86/200/2 85/199/2
f 87/201/2 86/200/2 34/148/2
f 36/150/2 85/199/2 84/198/2
f 89/203/2 88/202/2 32/146/2
f 87/201/2 33/147/2 88/202/2
f 27/141/2 93/207/2 92/206/2
f 93/207/2 26/140/2 25/139/2
f 27/141/2 26/140/2 93/207/2
f 24/138/2 94/208/2 25/139/2
f 93/207/2 25/139/2 94/208/2
f 95/209/2 94/208/2 23/137/2
f 23/137/2 22/136/2 95/209/2
f 23/137/2 94/208/2 24/138/2
f 84/198/2 83/197/2 37/151/2
f 67/181/2 59/173/2 58/172/2
f 59/173/2 67/181/2 66/180/2
f 67/181/2 58/172/2 68/182/2
f 56/170/2 68/182/2 57/171/2
f 109/223/2 108/222/2 9/123/2
f 57/171/2 68/182/2 58/172/2
f 53/167/2 72/186/2 54/168/2
f 70/184/2 56/170/2 55/169/2
f 56/170/2 70/184/2 69/183/2
f 54/168/2 71/185/2 70/184/2
f 54/168/2 70/184/2 55/169/2
f 68/182/2 56/170/2 69/183/2
f 72/186/2 71/185/2 54/168/2
f 107/221/2 9/123/2 108/222/2
f 109/223/2 8/122/2 110/224/2
f 8/122/2 109/223/2 9/123/2
f 110/224/2 8/122/2 7/121/2
f 2/116/2 1/115/2 114/228/2
f 113/227/2 4/118/2 114/228/2
f 2/116/2 114/228/2 3/117/2
f 6/120/2 110/224/2 7/121/2
f 110/224/2 6/120/2 111/225/2
f 111/225/2 6/120/2 5/119/2
f 4/118/2 113/227/2 112/226/2
f 5/119/2 4/118/2 112/226/2
f 5/119/2 112/226/2 111/225/2
f 4/118/2 3/117/2 114/228/2
f 51/165/2 74/188/2 73/187/2
f 51/165/2 73/187/2 52/166/2
f 75/189/2 74/188/2 51/165/2
f 22/136/2 96/210/2 95/209/2
f 73/187/2 72/186/2 52/166/2
f 96/210/2 22/136/2 21/135/2
f 97/211/2 20/134/2 98/212/2
f 53/167/2 52/166/2 72/186/2
f 20/134/2 97/211/2 96/210/2
f 96/210/2 21/135/2 20/134/2
f 98/212/2 20/134/2 19/133/2
f 18/132/2 99/213/2 98/212/2
f 99/213/2 18/132/2 100/214/2
f 17/131/2 100/214/2 18/132/2
f 18/132/2 98/212/2 19/133/2
f 106/220/2 105/219/2 12/126/2
f 104/218/2 13/127/2 105/219/2
f 11/125/2 10/124/2 106/220/2
f 106/220/2 12/126/2 11/125/2
f 107/221/2 106/220/2 10/124/2
f 105/219/2 13/127/2 12/126/2
f 101/215/2 16/130/2 15/129/2
f 100/214/2 17/131/2 16/130/2
f 102/216/2 101/215/2 15/129/2
f 100/214/2 16/130/2 101/215/2
f 14/128/2 104/218/2 103/217/2
f 104/218/2 14/128/2 13/127/2
f 102/216/2 15/129/2 14/128/2
f 102/216/2 14/128/2 103/217/2
f 107/221/2 10/124/2 9/123/2
f 229/473/3 1/229/4 2/230/5
f 229/473/3 2/230/5 116/352/6
f 229/473/3 116/352/6 115/351/7
f 229/473/3 115/351/7 1/229/4
f 230/474/8 2/231/9 3/232/10
f 230/474/8 3/232/10 117/354/11
f 230/474/8 117/354/11 116/353/12
f 230/474/8 116/353/12 2/231/9
f 231/475/13 3/232/10 4/233/14
f 231/475/13 4/233/14 118/355/15
f 231/475/13 118/355/15 117/354/11
f 231/475/13 117/354/11 3/232/10
f 232/476/16 4/233/14 5/234/17
f 232/476/16 5/234/17 119/356/18
f 232/476/16 119/356/18 118/355/15
f 232/476/16 118/355/15 4/233/14
f 233/477/19 5/234/17 6/235/20
f 233/477/19 6/235/20 120/357/21
f 233/477/19 120/357/21 119/356/18
f 233/477/19 119/356/18 5/234/17
f 234/478/22 6/235/20 7/236/23
f 234/478/22 7/236/23 121/358/24
f 234/478/22 121/358/24 120/357/21
f 234/478/22 120/357/21 6/235/20
f 235/479/25 7/236/23 8/237/26
f 235/479/25 8/237/26 122/359/27
f 235/479/25 122/359/27 121/358/24
f 235/479/25 121/358/24 7/236/23
f 236/480/28 8/237/26 9/238/29
f 236/480/28 9/238/29 123/360/30
f 236/480/28 123/360/30 122/359/27
f 236/480/28 122/359/27 8/237/26
f 237/481/31 9/239/32 10/240/33
f 237/481/31 10/240/33 124/362/34
f 237/481/31 124/362/34 123/361/35
f 237/481/31 123/361/35 9/239/32
f 238/482/36 10/240/33 11/241/37
f 238/482/36 11/241/37 125/363/38
f 238/482/36 125/363/38 124/362/34
f 238/482/36 124/362/34 10/240/33
f 239/483/39 11/241/37 12/242/40
f 239/483/39 12/242/40 126/364/41
f 239/483/39 126/364/41 125/363/38
f 239/483/39 125/363/38 11/241/37
f 240/484/42 12/242/40 13/243/43
f 240/484/42 13/243/43 127/365/44
f 240/484/42 127/365/44 126/364/41
f 240/484/42 126/364/41 12/242/40
f 241/485/45 13/243/43 14/244/46
f 241/485/45 14/244/46 128/366/47
f 241/485/45 128/366/47 127/365/44
f 241/485/45 127/365/44 13/243/43
f 242/486/48 14/244/46 15/245/49
f 242/486/48 15/245/49 129/367/50
f 242/486/48 129/367/50 128/366/47
f 242/486/48 128/366/47 14/244/46
f 243/487/51 15/245/49 16/246/52
f 243/487/51 16/246/52 130/368/53
f 243/487/51 130/368/53 129/367/50
f 243/487/51 129/367/50 15/245/49
f 244/488/54 16/246/52 17/247/55
f 244/488/54 17/247/55 131/369/56
f 244/488/54 131/369/56 130/368/53
f 244/488/54 130/368/53 16/246/52
f 245/489/57 17/247/55 18/248/58
f 245/489/57 18/248/58 132/370/59
f 245/489/57 132/370/59 131/369/56
f 245/489/57 131/369/56 17/247/55
f 246/490/60 18/248/58 19/249/61
f 246/490/60 19/249/61 133/371/62
f 246/490/60 133/371/62 132/370/59
f 246/490/60 132/370/59 18/248/58
f 247/491/63 19/249/61 20/250/64
f 247/491/63 20/250/64 134/372/65
f 247/491/63 134/372/65 133/371/62
f 247/491/63 133/371/62 19/249/61
f 248/492/66 20/250/64 21/251/67
f 248/492/66 21/251/67 135/373/68
f 248/492/66 135/373/68 134/372/65
f 248/492/66 134/372/65 20/250/64
f 249/493/69 21/251/67 22/252/70
f 249/493/69 22/252/70 136/374/71
f 249/493/69 136/374/71 135/373/68
f 249/493/69 135/373/68 21/251/67
f 250/494/72 22/253/70 23/254/73
f 250/494/72 23/254/73 137/376/74
f 250/494/72 137/376/74 136/375/71
f 250/494/72 136/375/71 22/253/70
f 251/495/75 23/254/73 24/255/76
f 251/495/75 24/255/76 138/377/77
f 251/495/75 138/377/77 137/376/74
f 251/495/75 137/376/74 23/254/73
f 252/496/78 24/255/76 25/256/79
f 252/496/78 25/256/79 139/378/80
f 252/496/78 139/378/80 138/377/77
f 252/496/78 138/377/77 24/255/76
f 253/497/81 25/256/79 26/257/82
f 253/497/81 26/257/82 140/379/83
f 253/497/81 140/379/83 139/378/80
f 253/497/81 139/378/80 25/256/79
f 254/498/84 26/257/82 27/258/85
f 254/498/84 27/258/85 141/380/86
f 254/498/84 141/380/86 140/379/83
f 254/498/84 140/379/83 26/257/82
f 255/499/87 27/258/85 28/259/88
f 255/499/87 28/259/88 142/381/89
f 255/499/87 142/381/89 141/380/86
f 255/499/87 141/380/86 27/258/85
f 256/500/90 28/259/88 29/260/91
f 256/500/90 29/260/91 143/382/92
f 256/500/90 143/382/92 142/381/89
f 256/500/90 142/381/89 28/259/88
f 257/501/93 29/260/91 30/261/94
f 257/501/93 30/261/94 144/383/95
f 257/501/93 144/383/95 143/382/92
f 257/501/93 143/382/92 29/260/91
f 258/502/96 30/261/94 31/262/97
f 258/502/96 31/262/97 145/384/98
f 258/502/96 145/384/98 144/383/95
f 258/502/96 144/383/95 30/261/94
f 259/503/99 31/262/97 32/263/100
f 259/503/99 32/263/100 146/385/101
f 259/503/99 146/385/101 145/384/98
f 259/503/99 145/384/98 31/262/97
f 260/504/102 32/263/100 33/264/103
f 260/504/102 33/264/103 147/386/104
f 260/504/102 147/386/104 146/385/101
f 260/504/102 146/385/101 32/263/100
f 261/505/105 33/264/103 34/265/106
f 261/505/105 34/265/106 148/387/107
f 261/505/105 148/387/107 147/386/104
f 261/505/105 147/386/104 33/264/103
f 262/506/108 34/265/106 35/266/109
f 262/506/108 35/266/109 149/388/110
f 262/506/108 149/388/110 148/387/107
f 262/506/108 148/387/107 34/265/106
f 263/507/111 35/266/109 36/267/112
f 263/507/111 36/267/112 150/389/113
f 263/507/111 150/389/113 149/388/110
f 263/507/111 149/388/110 35/266/109
f 264/508/114 36/267/112 37/268/115
f 264/508/114 37/268/115 151/390/116
f 264/508/114 151/390/116 150/389/113
f 264/508/114 150/389/113 36/267/112
f 265/509/117 37/268/115 38/269/118
f 265/509/117 38/269/118 152/391/119
f 265/509/117 152/391/119 151/390/116
f 265/509/117 151/390/116 37/268/115
f 266/510/120 38/269/118 39/270/121
f 266/510/120 39/270/121 153/392/122
f 266/510/120 153/392/122 152/391/119
f 266/510/120 152/391/119 38/269/118
f 267/511/123 39/270/121 40/271/124
f 267/511/123 40/271/124 154/393/125
f 267/511/123 154/393/125 153/392/122
f 267/511/123 153/392/122 39/270/121
f 268/512/126 40/271/124 41/272/127
f 268/512/126 41/272/127 155/394/128
f 268/512/126 155/394/128 154/393/125
f 268/512/126 154/393/125 40/271/124
f 269/513/129 41/272/127 42/273/130
f 269/513/129 42/273/130 156/395/131
f 269/513/129 156/395/131 155/394/128
f 269/513/129 155/394/128 41/272/127
f 270/514/132 42/273/130 43/274/133
f 270/514/132 43/274/133 157/396/134
f 270/514/132 157/396/134 156/395/131
f 270/514/132 156/395/131 42/273/130
f 271/515/135 43/274/133 44/275/136
f 271/515/135 44/275/136 158/397/137
f 271/515/135 158/397/137 157/396/134
f 271/515/135 157/396/134 43/274/133
f 272/516/138 44/275/136 45/276/139
f 272/516/138 45/276/139 159/398/140
f 272/516/138 159/398/140 158/397/137
f 272/516/138 158/397/137 44/275/136
f 273/517/141 45/276/139 46/277/142
f 273/517/141 46/277/142 160/399/143
f 273/517/141 160/399/143 159/398/140
f 273/517/141 159/398/140 45/276/139
f 274/518/144 46/277/142 47/278/145
f 274/518/144 47/278/145 161/400/146
f 274/518/144 161/400/146 160/399/143
f 274/518/144 160/399/143 46/277/142
f 275/519/147 47/278/145 48/279/148
f 275/519/147 48/279/148 162/401/149
f 275/519/147 162/401/149 161/400/146
f 275/519/147 161/400/146 47/278/145
f 276/520/150 48/279/148 49/280/151
f 276/520/150 49/280/151 163/402/152
f 276/520/150 163/402/152 162/401/149
f 276/520/150 162/401/149 48/279/148
f 277/521/153 49/280/151 50/281/154
f 277/521/153 50/281/154 164/403/155
f 277/521/153 164/403/155 163/402/152
f 277/521/153 163/402/152 49/280/151
f 278/522/156 50/281/154 51/282/157
f 278/522/156 51/282/157 165/404/158
f 278/522/156 165/404/158 164/403/155
f 278/522/156 164/403/155 50/281/154
f 279/523/159 51/282/157 52/283/160
f 279/523/159 52/283/160 166/405/161
f 279/523/159 166/405/161 165/404/158
f 279/523/159 165/404/158 51/282/157
f 280/524/162 52/283/160 53/284/163
f 280/524/162 53/284/163 167/406/164
f 280/524/162 167/406/164 166/405/161
f 280/524/162 166/405/161 52/283/160
f 281/525/165 53/284/163 54/285/166
f 281/525/165 54/285/166 168/407/167
f 281/525/165 168/407/167 167/406/164
f 281/525/165 167/406/164 53/284/163
f 282/526/168 54/285/166 55/286/169
f 282/526/168 55/286/169 169/408/170
f 282/526/168 169/408/170 168/407/167
f 282/526/168 168/407/167 54/285/166
f 283/527/171 55/286/169 56/287/172
f 283/527/171 56/287/172 170/409/173
f 283/527/171 170/409/173 169/408/170
f 283/527/171 169/408/170 55/286/169
f 284/528/174 56/287/172 57/288/175
f 284/528/174 57/288/175 171/410/176
f 284/528/174 171/410/176 170/409/173
f 284/528/174 170/409/173 56/287/172
f 285/529/177 57/288/175 58/289/178
f 285/529/177 58/289/178 172/411/179
f 285/529/177 172/411/179 171/410/176
f 285/529/177 171/410/176 57/288/175
f 286/530/180 58/289/178 59/290/181
f 286/530/180 59/290/181 173/412/182
f 286/530/180 173/412/182 172/411/179
f 286/530/180 172/411/179 58/289/178
f 287/531/183 59/290/181 60/291/184
f 287/531/183 60/291/184 174/413/185
f 287/531/183 174/413/185 173/412/182
f 287/531/183 173/412/182 59/290/181
f 288/532/186 60/291/184 61/292/187
f 288/532/186 61/292/187 175/414/188
f 288/532/186 175/414/188 174/413/185
f 288/532/186 174/413/185 60/291/184
f 289/533/189 61/292/187 62/293/190
f 289/533/189 62/293/190 176/415/191
f 289/533/189 176/415/191 175/414/188
f 289/533/189 175/414/188 61/292/187
f 290/534/192 62/294/193 63/295/194
f 290/534/192 63/295/194 177/417/195
f 290/534/192 177/417/195 176/416/196
f 290/534/192 176/416/196 62/294/193
f 291/535/197 63/296/198 64/297/199
f 291/535/197 64/297/199 178/419/200
f 291/535/197 178/419/200 177/418/201
f 291/535/197 177/418/201 63/296/198
f 292/536/202 64/297/199 65/298/203
f 292/536/202 65/298/203 179/420/204
f 292/536/202 179/420/204 178/419/200
f 292/536/202 178/419/200 64/297/199
f 293/537/205 65/298/203 66/299/206
f 293/537/205 66/299/206 180/421/207
f 293/537/205 180/421/207 179/420/204
f 293/537/205 179/420/204 65/298/203
f 294/538/208 66/299/206 67/300/209
f 294/538/208 67/300/209 181/422/210
f 294/538/208 181/422/210 180/421/207
f 294/538/208 180/421/207 66/299/206
f 295/539/211 67/300/209 68/301/212
f 295/539/211 68/301/212 182/423/213
f 295/539/211 182/423/213 181/422/210
f 295/539/211 181/422/210 67/300/209
f 296/540/214 68/301/212 69/302/215
f 296/540/214 69/302/215 183/424/216
f 296/540/214 183/424/216 182/423/213
f 296/540/214 182/423/213 68/301/212
f 297/541/217 69/302/215 70/303/218
f 297/541/217 70/303/218 184/425/219
f 297/541/217 184/425/219 183/424/216
f 297/541/217 183/424/216 69/302/215
f 298/542/220 70/303/218 71/304/221
f 298/542/220 71/304/221 185/426/222
f 298/542/220 185/426/222 184/425/219
f 298/542/220 184/425/219 70/303/218
f 299/543/223 71/304/221 72/305/224
f 299/543/223 72/305/224 186/427/225
f 299/543/223 186/427/225 185/426/222
f 299/543/223 185/426/222 71/304/221
f 300/544/226 72/305/224 73/306/227
f 300/544/226 73/306/227 187/428/228
f 300/544/226 187/428/228 186/427/225
f 300/544/226 186/427/225 72/305/224
f 301/545/229 73/306/227 74/307/230
f 301/545/229 74/307/230 188/429/231
f 301/545/229 188/429/231 187/428/228
f 301/545/229 187/428/228 73/306/227
f 302/546/232 74/307/230 75/308/233
f 302/546/232 75/308/233 189/430/234
f 302/546/232 189/430/234 188/429/231
f 302/546/232 188/429/231 74/307/230
f 303/547/235 75/308/233 76/309/236
f 303/547/235 76/309/236 190/431/237
f 303/547/235 190/431/237 189/430/234
f 303/547/235 189/430/234 75/308/233
f 304/548/238 76/309/236 77/310/239
f 304/548/238 77/310/239 191/432/240
f 304/548/238 191/432/240 190/431/237
f 304/548/238 190/431/237 76/309/236
f 305/549/241 77/310/239 78/311/242
f 305/549/241 78/311/242 192/433/243
f 305/549/241 192/433/243 191/432/240
f 305/549/241 191/432/240 77/310/239
f 306/550/244 78/311/242 79/312/245
f 306/550/244 79/312/245 193/434/246
f 306/550/244 193/434/246 192/433/243
f 306/550/244 192/433/243 78/311/242
f 307/551/247 79/312/245 80/313/248
f 307/551/247 80/313/248 194/435/249
f 307/551/247 194/435/249 193/434/246
f 307/551/247 193/434/246 79/312/245
f 308/552/250 80/313/248 81/314/251
f 308/552/250 81/314/251 195/436/252
f 308/552/250 195/436/252 194/435/249
f 308/552/250 194/435/249 80/313/248
f 309/553/253 81/314/251 82/315/254
f 309/553/253 82/315/254 196/437/255
f 309/553/253 196/437/255 195/436/252
f 309/553/253 195/436/252 81/314/251
f 310/554/256 82/315/254 83/316/257
f 310/554/256 83/316/257 197/438/258
f 310/554/256 197/438/258 196/437/255
f 310/554/256 196/437/255 82/315/254
f 311/555/259 83/316/257 84/317/260
f 311/555/259 84/317/260 198/439/261
f 311/555/259 198/439/261 197/438/258
f 311/555/259 197/438/258 83/316/257
f 312/556/262 84/317/260 85/318/263
f 312/556/262 85/318/263 199/440/264
f 312/556/262 199/440/264 198/439/261
f 312/556/262 198/439/261 84/317/260
f 313/557/265 85/318/263 86/319/266
f 313/557/265 86/319/266 200/441/267
f 313/557/265 200/441/267 199/440/264
f 313/557/265 199/440/264 85/318/263
f 314/558/268 86/319/266 87/320/269
f 314/558/268 87/320/269 201/442/270
f 314/558/268 201/442/270 200/441/267
f 314/558/268 200/441/267 86/319/266
f 315/559/271 87/320/269 88/321/272
f 315/559/271 88/321/272 202/443/273
f 315/559/271 202/443/273 201/442/270
f 315/559/271 201/442/270 87/320/269
f 316/560/274 88/321/272 89/322/275
f 316/560/274 89/322/275 203/444/276
f 316/560/274 203/444/276 202/443/273
f 316/560/274 202/443/273 88/321/272
f 317/561/277 89/322/275 90/323/278
f 317/561/277 90/323/278 204/445/279
f 317/561/277 204/445/279 203/444/276
f 317/561/277 203/444/276 89/322/275
f 318/562/280 90/323/278 91/324/281
f 318/562/280 91/324/281 205/446/282
f 318/562/280 205/446/282 204/445/279
f 318/562/280 204/445/279 90/323/278
f 319/563/283 91/324/281 92/325/284
f 319/563/283 92/325/284 206/447/285
f 319/563/283 206/447/285 205/446/282
f 319/563/283 205/446/282 91/324/281
f 320/564/286 92/325/284 93/326/287
f 320/564/286 93/326/287 207/448/288
f 320/564/286 207/448/288 206/447/285
f 320/564/286 206/447/285 92/325/284
f 321/565/289 93/326/287 94/327/290
f 321/565/289 94/327/290 208/449/291
f 321/565/289 208/449/291 207/448/288
f 321/565/289 207/448/288 93/326/287
f 322/566/292 94/327/290 95/328/293
f 322/566/292 95/328/293 209/450/294
f 322/566/292 209/450/294 208/449/291
f 322/566/292 208/449/291 94/327/290
f 323/567/295 95/328/293 96/329/296
f 323/567/295 96/329/296 210/451/297
f 323/567/295 210/451/297 209/450/294
f 323/567/295 209/450/294 95/328/293
f 324/568/298 96/329/296 97/330/299
f 324/568/298 97/330/299 211/452/300
f 324/568/298 211/452/300 210/451/297
f 324/568/298 210/451/297 96/329/296
f 325/569/301 97/330/299 98/331/302
f 325/569/301 98/331/302 212/453/303
f 325/569/301 212/453/303 211/452/300
f 325/569/301 211/452/300 97/330/299
f 326/570/304 98/331/302 99/332/305
f 326/570/304 99/332/305 213/454/306
f 326/570/304 213/454/306 212/453/303
f 326/570/304 212/453/303 98/331/302
f 327/571/307 99/333/305 100/334/308
f 327/571/307 100/334/308 214/456/309
f 327/571/307 214/456/309 213/455/306
f 327/571/307 213/455/306 99/333/305
f 328/572/310 100/334/308 101/335/311
f 328/572/310 101/335/311 215/457/312
f 328/572/310 215/457/312 214/456/309
f 328/572/310 214/456/309 100/334/308
f 329/573/313 101/335/311 102/336/314
f 329/573/313 102/336/314 216/458/315
f 329/573/313 216/458/315 215/457/312
f 329/573/313 215/457/312 101/335/311
f 330/574/316 102/336/314 103/337/317
f 330/574/316 103/337/317 217/459/318
f 330/574/316 217/459/318 216/458/315
f 330/574/316 216/458/315 102/336/314
f 331/575/319 103/337/317 104/338/320
f 331/575/319 104/338/320 218/460/321
f 331/575/319 218/460/321 217/459/318
f 331/575/319 217/459/318 103/337/317
f 332/576/322 104/338/320 105/339/323
f 332/576/322 105/339/323 219/461/324
f 332/576/322 219/461/324 218/460/321
f 332/576/322 218/460/321 104/338/320
f 333/577/325 105/339/323 106/340/326
f 333/577/325 106/340/326 220/462/327
f 333/577/325 220/462/327 219/461/324
f 333/577/325 219/461/324 105/339/323
f 334/578/328 106/340/326 107/341/329
f 334/578/328 107/341/329 221/463/330
f 334/578/328 221/463/330 220/462/327
f 334/578/328 220/462/327 106/340/326
f 335/579/331 107/341/329 108/342/332
f 335/579/331 108/342/332 222/464/333
f 335/579/331 222/464/333 221/463/330
f 335/579/331 221/463/330 107/341/329
f 336/580/334 108/343/335 109/344/336
f 336/580/334 109/344/336 223/466/337
f 336/580/334 223/466/337 222/465/338
f 336/580/334 222/465/338 108/343/335
f 337/581/339 109/344/336 110/345/340
f 337/581/339 110/345/340 224/467/341
f 337/581/339 224/467/341 223/466/337
f 337/581/339 223/466/337 109/344/336
f 338/582/342 110/345/340 111/346/343
f 338/582/342 111/346/343 225/468/344
f 338/582/342 225/468/344 224/467/341
f 338/582/342 224/467/341 110/345/340
f 339/583/345 111/346/343 112/347/346
f 339/583/345 112/347/346 226/469/347
f 339/583/345 226/469/347 225/468/344
f 339/583/345 225/468/344 111/346/343
f 340/584/348 112/347/346 113/348/349
f 340/584/348 113/348/349 227/470/350
f 340/584/348 227/470/350 226/469/347
f 340/584/348 226/469/347 112/347/346
f 341/585/351 113/348/349 114/349/352
f 341/585/351 114/349/352 228/471/353
f 341/585/351 228/471/353 227/470/350
f 341/585/351 227/470/350 113/348/349
f 342/586/354 114/349/352 1/350/355
f 342/586/354 1/350/355 115/472/356
f 342/586/354 115/472/356 228/471/353
f 342/586/354 228/471/353 114/349/352
