mtllib WS.mtl
# Vertex Positions: 
g groupNumber_0
v 14.7184 -0.5991 -16.9263
v 14.7443 -0.575142 -16.9263
v 14.7214 -0.55782 -16.9263
v 14.7036 -0.548451 -16.9263
v 14.6799 -0.539183 -16.9263
v 14.65 -0.531154 -16.9263
v 14.6136 -0.525501 -16.9263
v 14.5702 -0.523364 -16.9263
v 14.5298 -0.525953 -16.9263
v 14.4915 -0.53291 -16.9263
v 14.456 -0.543015 -16.9263
v 14.424 -0.555053 -16.9263
v 14.3961 -0.567805 -16.9263
v 14.3729 -0.580053 -16.9263
v 14.3552 -0.590581 -16.9263
v 14.0251 -0.59817 -16.9263
v 13.9789 -0.588824 -16.9263
v 13.9412 -0.563352 -16.9263
v 13.9157 -0.525599 -16.9263
v 13.9064 -0.479411 -16.9263
v 13.9064 0.554837 -16.9263
v 13.902 0.598239 -16.9263
v 13.8894 0.638688 -16.9263
v 13.8695 0.675312 -16.9263
v 13.8431 0.707237 -16.9263
v 13.8112 0.733588 -16.9263
v 13.7746 0.753492 -16.9263
v 13.7341 0.766075 -16.9263
v 13.6907 0.770464 -16.9263
v 1.80691 0.770464 -16.9263
v 0.25097 0.314391 -16.9263
v -1.11279 0.768947 -16.9263
v -12.9964 0.769843 -16.9263
v -13.0416 0.765273 -16.9263
v -13.0837 0.75217 -16.9263
v -13.1218 0.731444 -16.9263
v -13.1551 0.704005 -16.9263
v -13.1825 0.670763 -16.9263
v -13.2033 0.632629 -16.9263
v -13.2164 0.590512 -16.9263
v -13.2209 0.545323 -16.9263
v -13.2209 -0.273954 -16.9263
v -13.2176 -0.307163 -16.9263
v -13.2079 -0.338113 -16.9263
v -13.1927 -0.366135 -16.9263
v -13.1725 -0.390562 -16.9263
v -13.1481 -0.410725 -16.9263
v -13.1201 -0.425954 -16.9263
v -13.0891 -0.435582 -16.9263
v -13.0559 -0.43894 -16.9263
v -12.4586 -0.43894 -16.9263
v -12.4264 -0.44546 -16.9263
v -12.4 -0.463226 -16.9263
v -12.3823 -0.489551 -16.9263
v -12.3758 -0.521744 -16.9263
v -12.3823 -0.553931 -16.9263
v -12.4 -0.580244 -16.9263
v -12.4264 -0.597998 -16.9263
v -12.4586 -0.604513 -16.9263
v -13.4657 -0.604513 -16.9263
v -13.8463 -0.735164 -16.9263
v -14.7443 -0.735164 -16.9263
v -14.7443 -0.770464 -16.9263
v -13.8403 -0.770464 -16.9263
v -13.4628 -0.639813 -16.9263
v -12.4586 -0.639813 -16.9263
v -12.4126 -0.630522 -16.9263
v -12.3751 -0.605198 -16.9263
v -12.3498 -0.567664 -16.9263
v -12.3405 -0.521744 -16.9263
v -12.3498 -0.475818 -16.9263
v -12.3751 -0.438272 -16.9263
v -12.4126 -0.412937 -16.9263
v -12.4586 -0.40364 -16.9263
v -13.0559 -0.40364 -16.9263
v -13.1064 -0.393431 -16.9263
v -13.1476 -0.365608 -16.9263
v -13.1754 -0.32438 -16.9263
v -13.1856 -0.273954 -16.9263
v -13.1856 0.545323 -16.9263
v -13.1818 0.583413 -16.9263
v -13.1707 0.618911 -16.9263
v -13.1533 0.65105 -16.9263
v -13.1301 0.679064 -16.9263
v -13.1021 0.702187 -16.9263
v -13.07 0.719652 -16.9263
v -13.0345 0.730693 -16.9263
v -12.9964 0.734543 -16.9263
v -1.12123 0.734543 -16.9263
v 0.245058 0.27916 -16.9263
v 1.80944 0.735164 -16.9263
v 13.6907 0.735164 -16.9263
v 13.727 0.731493 -16.9263
v 13.7608 0.720969 -16.9263
v 13.7915 0.704322 -16.9263
v 13.8182 0.682283 -16.9263
v 13.8402 0.655584 -16.9263
v 13.8569 0.624956 -16.9263
v 13.8674 0.59113 -16.9263
v 13.8711 0.554837 -16.9263
v 13.8711 -0.479411 -16.9263
v 13.8742 -0.510418 -16.9263
v 13.8832 -0.539317 -16.9263
v 13.8974 -0.565484 -16.9263
v 13.9162 -0.588293 -16.9263
v 13.939 -0.607121 -16.9263
v 13.9652 -0.621343 -16.9263
v 13.9941 -0.630334 -16.9263
v 14.0251 -0.63347 -16.9263
v 14.3549 -0.63347 -16.9263
v 14.3772 -0.618596 -16.9263
v 14.3971 -0.607149 -16.9263
v 14.4232 -0.594089 -16.9263
v 14.4546 -0.581062 -16.9263
v 14.4901 -0.569717 -16.9263
v 14.529 -0.561702 -16.9263
v 14.5702 -0.558664 -16.9263
v 14.6076 -0.560384 -16.9263
v 14.6389 -0.564924 -16.9263
v 14.6645 -0.571349 -16.9263
v 14.6847 -0.578727 -16.9263
v 14.7103 -0.592608 -16.9263
v 14.7184 -0.5991 16.9263
v 14.7443 -0.575142 16.9263
v 14.7214 -0.55782 16.9263
v 14.7036 -0.548451 16.9263
v 14.6799 -0.539183 16.9263
v 14.65 -0.531154 16.9263
v 14.6136 -0.525501 16.9263
v 14.5702 -0.523364 16.9263
v 14.5298 -0.525953 16.9263
v 14.4915 -0.53291 16.9263
v 14.456 -0.543015 16.9263
v 14.424 -0.555053 16.9263
v 14.3961 -0.567805 16.9263
v 14.3729 -0.580053 16.9263
v 14.3552 -0.590581 16.9263
v 14.0251 -0.59817 16.9263
v 13.9789 -0.588824 16.9263
v 13.9412 -0.563352 16.9263
v 13.9157 -0.525599 16.9263
v 13.9064 -0.479411 16.9263
v 13.9064 0.554837 16.9263
v 13.902 0.598239 16.9263
v 13.8894 0.638688 16.9263
v 13.8695 0.675312 16.9263
v 13.8431 0.707237 16.9263
v 13.8112 0.733588 16.9263
v 13.7746 0.753492 16.9263
v 13.7341 0.766075 16.9263
v 13.6907 0.770464 16.9263
v 1.80691 0.770464 16.9263
v 0.25097 0.314391 16.9263
v -1.11279 0.768947 16.9263
v -12.9964 0.769843 16.9263
v -13.0416 0.765273 16.9263
v -13.0837 0.75217 16.9263
v -13.1218 0.731444 16.9263
v -13.1551 0.704005 16.9263
v -13.1825 0.670763 16.9263
v -13.2033 0.632629 16.9263
v -13.2164 0.590512 16.9263
v -13.2209 0.545323 16.9263
v -13.2209 -0.273954 16.9263
v -13.2176 -0.307163 16.9263
v -13.2079 -0.338113 16.9263
v -13.1927 -0.366135 16.9263
v -13.1725 -0.390562 16.9263
v -13.1481 -0.410725 16.9263
v -13.1201 -0.425954 16.9263
v -13.0891 -0.435582 16.9263
v -13.0559 -0.43894 16.9263
v -12.4586 -0.43894 16.9263
v -12.4264 -0.44546 16.9263
v -12.4 -0.463226 16.9263
v -12.3823 -0.489551 16.9263
v -12.3758 -0.521744 16.9263
v -12.3823 -0.553931 16.9263
v -12.4 -0.580244 16.9263
v -12.4264 -0.597998 16.9263
v -12.4586 -0.604513 16.9263
v -13.4657 -0.604513 16.9263
v -13.8463 -0.735164 16.9263
v -14.7443 -0.735164 16.9263
v -14.7443 -0.770464 16.9263
v -13.8403 -0.770464 16.9263
v -13.4628 -0.639813 16.9263
v -12.4586 -0.639813 16.9263
v -12.4126 -0.630522 16.9263
v -12.3751 -0.605198 16.9263
v -12.3498 -0.567664 16.9263
v -12.3405 -0.521744 16.9263
v -12.3498 -0.475818 16.9263
v -12.3751 -0.438272 16.9263
v -12.4126 -0.412937 16.9263
v -12.4586 -0.40364 16.9263
v -13.0559 -0.40364 16.9263
v -13.1064 -0.393431 16.9263
v -13.1476 -0.365608 16.9263
v -13.1754 -0.32438 16.9263
v -13.1856 -0.273954 16.9263
v -13.1856 0.545323 16.9263
v -13.1818 0.583413 16.9263
v -13.1707 0.618911 16.9263
v -13.1533 0.65105 16.9263
v -13.1301 0.679064 16.9263
v -13.1021 0.702187 16.9263
v -13.07 0.719652 16.9263
v -13.0345 0.730693 16.9263
v -12.9964 0.734543 16.9263
v -1.12123 0.734543 16.9263
v 0.245058 0.27916 16.9263
v 1.80944 0.735164 16.9263
v 13.6907 0.735164 16.9263
v 13.727 0.731493 16.9263
v 13.7608 0.720969 16.9263
v 13.7915 0.704322 16.9263
v 13.8182 0.682283 16.9263
v 13.8402 0.655584 16.9263
v 13.8569 0.624956 16.9263
v 13.8674 0.59113 16.9263
v 13.8711 0.554837 16.9263
v 13.8711 -0.479411 16.9263
v 13.8742 -0.510418 16.9263
v 13.8832 -0.539317 16.9263
v 13.8974 -0.565484 16.9263
v 13.9162 -0.588293 16.9263
v 13.939 -0.607121 16.9263
v 13.9652 -0.621343 16.9263
v 13.9941 -0.630334 16.9263
v 14.0251 -0.63347 16.9263
v 14.3549 -0.63347 16.9263
v 14.3772 -0.618596 16.9263
v 14.3971 -0.607149 16.9263
v 14.4232 -0.594089 16.9263
v 14.4546 -0.581062 16.9263
v 14.4901 -0.569717 16.9263
v 14.529 -0.561702 16.9263
v 14.5702 -0.558664 16.9263
v 14.6076 -0.560384 16.9263
v 14.6389 -0.564924 16.9263
v 14.6645 -0.571349 16.9263
v 14.6847 -0.578727 16.9263
v 14.7103 -0.592608 16.9263
v 14.7314 -0.587121 0
v 14.7329 -0.566481 0
v 14.7125 -0.553136 0
v 14.6917 -0.543817 0
v 14.665 -0.535168 0
v 14.6318 -0.528327 0
v 14.5919 -0.524432 0
v 14.55 -0.524659 0
v 14.5106 -0.529431 0
v 14.4738 -0.537962 0
v 14.44 -0.549034 0
v 14.41 -0.561429 0
v 14.3845 -0.573929 0
v 14.3641 -0.585317 0
v 14.1902 -0.594375 0
v 14.002 -0.593497 0
v 13.9601 -0.576088 0
v 13.9284 -0.544476 0
v 13.911 -0.502505 0
v 13.9064 0.0377131 0
v 13.9042 0.576538 0
v 13.8957 0.618464 0
v 13.8794 0.657 0
v 13.8563 0.691275 0
v 13.8272 0.720412 0
v 13.7929 0.74354 0
v 13.7544 0.759784 0
v 13.7124 0.76827 0
v 7.74882 0.770464 0
v 1.02894 0.542427 0
v -0.430908 0.541669 0
v -7.05458 0.769395 0
v -13.019 0.767558 0
v -13.0626 0.758722 0
v -13.1028 0.741807 0
v -13.1385 0.717724 0
v -13.1688 0.687384 0
v -13.1929 0.651696 0
v -13.2098 0.61157 0
v -13.2186 0.567917 0
v -13.2209 0.135684 0
v -13.2192 -0.290558 0
v -13.2128 -0.322638 0
v -13.2003 -0.352124 0
v -13.1826 -0.378349 0
v -13.1603 -0.400644 0
v -13.1341 -0.41834 0
v -13.1046 -0.430768 0
v -13.0725 -0.437261 0
v -12.7572 -0.43894 0
v -12.4425 -0.4422 0
v -12.4132 -0.454343 0
v -12.3912 -0.476388 0
v -12.379 -0.505647 0
v -12.379 -0.537838 0
v -12.3912 -0.567088 0
v -12.4132 -0.589121 0
v -12.4425 -0.601255 0
v -12.9621 -0.604513 0
v -13.656 -0.669838 0
v -14.2953 -0.735164 0
v -14.7443 -0.752814 0
v -14.2923 -0.770464 0
v -13.6515 -0.705138 0
v -12.9607 -0.639813 0
v -12.4356 -0.635167 0
v -12.3939 -0.61786 0
v -12.3624 -0.586431 0
v -12.3451 -0.544704 0
v -12.3451 -0.498781 0
v -12.3624 -0.457045 0
v -12.3939 -0.425605 0
v -12.4356 -0.408288 0
v -12.7572 -0.40364 0
v -13.0811 -0.398536 0
v -13.127 -0.37952 0
v -13.1615 -0.344994 0
v -13.1805 -0.299167 0
v -13.1856 0.135684 0
v -13.1837 0.564368 0
v -13.1763 0.601162 0
v -13.162 0.63498 0
v -13.1417 0.665057 0
v -13.1161 0.690625 0
v -13.086 0.710919 0
v -13.0522 0.725172 0
v -13.0154 0.732618 0
v -7.0588 0.734543 0
v -0.438087 0.506851 0
v 1.02725 0.507162 0
v 7.75008 0.735164 0
v 13.7089 0.733329 0
v 13.7439 0.726231 0
v 13.7762 0.712645 0
v 13.8048 0.693302 0
v 13.8292 0.668933 0
v 13.8485 0.64027 0
v 13.8621 0.608043 0
v 13.8692 0.572984 0
v 13.8711 0.0377131 0
v 13.8726 -0.494915 0
v 13.8787 -0.524868 0
v 13.8903 -0.5524 0
v 13.9068 -0.576888 0
v 13.9276 -0.597707 0
v 13.9521 -0.614232 0
v 13.9797 -0.625838 0
v 14.0096 -0.631902 0
v 14.19 -0.63347 0
v 14.366 -0.626033 0
v 14.3871 -0.612873 0
v 14.4102 -0.600619 0
v 14.4389 -0.587576 0
v 14.4724 -0.57539 0
v 14.5096 -0.56571 0
v 14.5496 -0.560183 0
v 14.5889 -0.559524 0
v 14.6232 -0.562654 0
v 14.6517 -0.568137 0
v 14.6746 -0.575038 0
v 14.6975 -0.585667 0
v 14.7143 -0.595854 0


# Vertex Texture Coordinates :
vt 0.423444 0.00246287
vt 0.423817 0.00280721
vt 0.423488 0.00305617
vt 0.423231 0.00319081
vt 0.422891 0.00332401
vt 0.422462 0.00343942
vt 0.421938 0.00352066
vt 0.421314 0.00355137
vt 0.420733 0.00351416
vt 0.420183 0.00341418
vt 0.419674 0.00326894
vt 0.419213 0.00309593
vt 0.418812 0.00291266
vt 0.418479 0.00273662
vt 0.418225 0.00258532
vt 0.41348 0.00247625
vt 0.412817 0.00261056
vt 0.412274 0.00297665
vt 0.411908 0.00351925
vt 0.411774 0.00418307
vt 0.411774 0.0190475
vt 0.411711 0.0196713
vt 0.41153 0.0202526
vt 0.411244 0.020779
vt 0.410865 0.0212378
vt 0.410406 0.0216165
vt 0.40988 0.0219026
vt 0.409298 0.0220835
vt 0.408674 0.0221465
vt 0.237878 0.0221465
vt 0.215516 0.0155918
vt 0.195915 0.0221247
vt 0.0251219 0.0221376
vt 0.0244723 0.0220719
vt 0.0238669 0.0218836
vt 0.0233187 0.0215857
vt 0.0228409 0.0211914
vt 0.0224465 0.0207136
vt 0.0221486 0.0201655
vt 0.0219603 0.0195602
vt 0.0218946 0.0189108
vt 0.0218946 0.00713594
vt 0.0219429 0.00665866
vt 0.0220812 0.00621384
vt 0.0223001 0.00581109
vt 0.0225899 0.00546003
vt 0.022941 0.00517024
vt 0.0233438 0.00495136
vt 0.0237887 0.00481299
vt 0.0242661 0.00476473
vt 0.0328514 0.00476473
vt 0.0333142 0.00467102
vt 0.0336926 0.00441568
vt 0.0339478 0.00403735
vt 0.0340415 0.00357466
vt 0.0339478 0.00311205
vt 0.0336926 0.00273388
vt 0.0333142 0.00247871
vt 0.0328514 0.00238509
vt 0.0183764 0.00238509
vt 0.0129072 0.000507339
vt 0 0.000507339
vt 0 0
vt 0.0129926 0
vt 0.018419 0.00187775
vt 0.0328514 0.00187775
vt 0.0335115 0.00201128
vt 0.0340511 0.00237524
vt 0.0344152 0.00291468
vt 0.0345488 0.00357466
vt 0.0344152 0.00423471
vt 0.0340511 0.00477432
vt 0.0335115 0.00513846
vt 0.0328514 0.00527206
vt 0.0242661 0.00527206
vt 0.0235412 0.00541879
vt 0.0229486 0.00581867
vt 0.0225487 0.00641121
vt 0.0224019 0.00713594
vt 0.0224019 0.0189108
vt 0.0224573 0.0194582
vt 0.022616 0.0199684
vt 0.0228671 0.0204303
vt 0.0231995 0.0208329
vt 0.0236023 0.0211652
vt 0.0240643 0.0214163
vt 0.0245745 0.0215749
vt 0.0251219 0.0216303
vt 0.195794 0.0216303
vt 0.215431 0.0150854
vt 0.237914 0.0216392
vt 0.408674 0.0216392
vt 0.409196 0.0215864
vt 0.409682 0.0214352
vt 0.410123 0.0211959
vt 0.410506 0.0208792
vt 0.410823 0.0204955
vt 0.411062 0.0200553
vt 0.411214 0.0195691
vt 0.411266 0.0190475
vt 0.411266 0.00418307
vt 0.411311 0.00373743
vt 0.411441 0.00332209
vt 0.411645 0.00294602
vt 0.411916 0.0026182
vt 0.412243 0.0023476
vt 0.412619 0.0021432
vt 0.413035 0.00201398
vt 0.41348 0.00196891
vt 0.41822 0.00196891
vt 0.41854 0.00218267
vt 0.418827 0.00234719
vt 0.419202 0.0025349
vt 0.419653 0.00272212
vt 0.420164 0.00288517
vt 0.420722 0.00300037
vt 0.421314 0.00304403
vt 0.421852 0.00301931
vt 0.422302 0.00295406
vt 0.42267 0.00286172
vt 0.42296 0.00275568
vt 0.423328 0.00255619
vt 0.430131 0.00246287
vt 0.429758 0.00280721
vt 0.430087 0.00305617
vt 0.430344 0.00319081
vt 0.430684 0.00332401
vt 0.431113 0.00343942
vt 0.431637 0.00352066
vt 0.432261 0.00355137
vt 0.432842 0.00351416
vt 0.433392 0.00341418
vt 0.433901 0.00326894
vt 0.434362 0.00309593
vt 0.434763 0.00291266
vt 0.435096 0.00273662
vt 0.43535 0.00258532
vt 0.440095 0.00247625
vt 0.440758 0.00261056
vt 0.441301 0.00297665
vt 0.441667 0.00351925
vt 0.441801 0.00418307
vt 0.441801 0.0190475
vt 0.441864 0.0196713
vt 0.442045 0.0202526
vt 0.442331 0.020779
vt 0.44271 0.0212378
vt 0.443169 0.0216165
vt 0.443695 0.0219026
vt 0.444277 0.0220835
vt 0.444901 0.0221465
vt 0.615697 0.0221465
vt 0.63806 0.0155918
vt 0.65766 0.0221247
vt 0.828453 0.0221376
vt 0.829103 0.0220719
vt 0.829708 0.0218836
vt 0.830256 0.0215857
vt 0.830734 0.0211914
vt 0.831129 0.0207136
vt 0.831426 0.0201655
vt 0.831615 0.0195602
vt 0.83168 0.0189108
vt 0.83168 0.00713594
vt 0.831632 0.00665866
vt 0.831494 0.00621384
vt 0.831275 0.00581109
vt 0.830985 0.00546003
vt 0.830634 0.00517024
vt 0.830231 0.00495136
vt 0.829786 0.00481299
vt 0.829309 0.00476473
vt 0.820724 0.00476473
vt 0.820261 0.00467102
vt 0.819883 0.00441568
vt 0.819627 0.00403735
vt 0.819534 0.00357466
vt 0.819627 0.00311205
vt 0.819883 0.00273388
vt 0.820261 0.00247871
vt 0.820724 0.00238509
vt 0.835199 0.00238509
vt 0.840668 0.000507339
vt 0.853575 0.000507339
vt 0.853575 0
vt 0.840582 0
vt 0.835156 0.00187775
vt 0.820724 0.00187775
vt 0.820064 0.00201128
vt 0.819524 0.00237524
vt 0.81916 0.00291468
vt 0.819026 0.00357466
vt 0.81916 0.00423471
vt 0.819524 0.00477432
vt 0.820064 0.00513846
vt 0.820724 0.00527206
vt 0.829309 0.00527206
vt 0.830034 0.00541879
vt 0.830626 0.00581867
vt 0.831026 0.00641121
vt 0.831173 0.00713594
vt 0.831173 0.0189108
vt 0.831118 0.0194582
vt 0.830959 0.0199684
vt 0.830708 0.0204303
vt 0.830376 0.0208329
vt 0.829973 0.0211652
vt 0.829511 0.0214163
vt 0.829001 0.0215749
vt 0.828453 0.0216303
vt 0.657781 0.0216303
vt 0.638145 0.0150854
vt 0.615661 0.0216392
vt 0.444901 0.0216392
vt 0.444379 0.0215864
vt 0.443893 0.0214352
vt 0.443453 0.0211959
vt 0.443069 0.0208792
vt 0.442752 0.0204955
vt 0.442513 0.0200553
vt 0.442361 0.0195691
vt 0.442309 0.0190475
vt 0.442309 0.00418307
vt 0.442264 0.00373743
vt 0.442134 0.00332209
vt 0.44193 0.00294602
vt 0.44166 0.0026182
vt 0.441332 0.0023476
vt 0.440956 0.0021432
vt 0.44054 0.00201398
vt 0.440095 0.00196891
vt 0.435355 0.00196891
vt 0.435035 0.00218267
vt 0.434748 0.00234719
vt 0.434373 0.0025349
vt 0.433923 0.00272212
vt 0.433411 0.00288517
vt 0.432853 0.00300037
vt 0.432261 0.00304403
vt 0.431723 0.00301931
vt 0.431273 0.00295406
vt 0.430905 0.00286172
vt 0.430615 0.00275568
vt 0.430247 0.00255619
vt 4.23914e-05 0.0281187
vt 0.000549719 0.0281187
vt 0.0065726 0.0281187
vt 0.00698506 0.0281187
vt 0.00727526 0.0281187
vt 0.00764069 0.0281187
vt 0.00808512 0.0281187
vt 0.00861517 0.0281187
vt 0.00923999 0.0281187
vt 0.0098217 0.0281187
vt 0.0103806 0.0281187
vt 0.0109107 0.0281187
vt 0.0114024 0.0281187
vt 0.0118435 0.0281187
vt 0.0122199 0.0281187
vt 0.0125163 0.0281187
vt 0.0172618 0.0281187
vt 0.017939 0.0281187
vt 0.0185934 0.0281187
vt 0.019248 0.0281187
vt 0.0199252 0.0281187
vt 0.0347897 0.0281187
vt 0.0354166 0.0281187
vt 0.0360255 0.0281187
vt 0.0366245 0.0281187
vt 0.0372195 0.0281187
vt 0.0378145 0.0281187
vt 0.0384136 0.0281187
vt 0.0390225 0.0281187
vt 0.0396495 0.0281187
vt 0.210446 0.0281187
vt 0.233749 0.0281187
vt 0.25441 0.0281187
vt 0.425203 0.0281187
vt 0.431195 0.0281187
vt 0.431848 0.0281187
vt 0.432482 0.0281187
vt 0.433106 0.0281187
vt 0.433726 0.0281187
vt 0.434345 0.0281187
vt 0.434969 0.0281187
vt 0.435603 0.0281187
vt 0.436256 0.0281187
vt 0.448031 0.0281187
vt 0.44851 0.0281187
vt 0.448976 0.0281187
vt 0.449435 0.0281187
vt 0.44989 0.0281187
vt 0.450345 0.0281187
vt 0.450803 0.0281187
vt 0.451269 0.0281187
vt 0.451749 0.0281187
vt 0.460335 0.0281187
vt 0.460807 0.0281187
vt 0.461263 0.0281187
vt 0.46172 0.0281187
vt 0.462192 0.0281187
vt 0.462664 0.0281187
vt 0.46312 0.0281187
vt 0.463576 0.0281187
vt 0.464048 0.0281187
vt 0.478523 0.0281187
vt 0.484306 0.0281187
vt 0.497213 0.0281187
vt 0.503208 0.0281187
vt 0.503716 0.0281187
vt 0.509731 0.0281187
vt 0.522724 0.0281187
vt 0.528466 0.0281187
vt 0.542898 0.0281187
vt 0.543572 0.0281187
vt 0.544223 0.0281187
vt 0.544873 0.0281187
vt 0.545547 0.0281187
vt 0.54622 0.0281187
vt 0.546871 0.0281187
vt 0.547522 0.0281187
vt 0.548196 0.0281187
vt 0.556781 0.0281187
vt 0.557521 0.0281187
vt 0.558235 0.0281187
vt 0.55895 0.0281187
vt 0.55969 0.0281187
vt 0.571465 0.0281187
vt 0.572015 0.0281187
vt 0.572549 0.0281187
vt 0.573075 0.0281187
vt 0.573597 0.0281187
vt 0.574119 0.0281187
vt 0.574645 0.0281187
vt 0.575179 0.0281187
vt 0.575729 0.0281187
vt 0.746401 0.0281187
vt 0.7671 0.0281187
vt 0.790519 0.0281187
vt 0.96128 0.0281187
vt 0.967287 0.0281187
vt 0.967812 0.0281187
vt 0.968321 0.0281187
vt 0.968822 0.0281187
vt 0.96932 0.0281187
vt 0.969817 0.0281187
vt 0.970318 0.0281187
vt 0.970827 0.0281187
vt 0.971352 0.0281187
vt 0.986216 0.0281187
vt 0.986664 0.0281187
vt 0.987099 0.0281187
vt 0.987527 0.0281187
vt 0.987952 0.0281187
vt 0.988377 0.0281187
vt 0.988805 0.0281187
vt 0.98924 0.0281187
vt 0.989688 0.0281187
vt 0.994428 0.0281187
vt 0.994812 0.0281187
vt 0.995143 0.0281187
vt 0.995563 0.0281187
vt 0.996051 0.0281187
vt 0.996587 0.0281187
vt 0.997157 0.0281187
vt 0.997751 0.0281187
vt 0.998289 0.0281187
vt 0.998744 0.0281187
vt 0.999123 0.0281187
vt 0.999432 0.0281187
vt 0.999851 0.0281187
vt 1 0.0281187
vt 4.23914e-05 0.514655
vt 0.000549719 0.514655
vt 0.0065726 0.514655
vt 0.00698506 0.514655
vt 0.00727526 0.514655
vt 0.00764069 0.514655
vt 0.00808512 0.514655
vt 0.00861517 0.514655
vt 0.00923999 0.514655
vt 0.0098217 0.514655
vt 0.0103806 0.514655
vt 0.0109107 0.514655
vt 0.0114024 0.514655
vt 0.0118435 0.514655
vt 0.0122199 0.514655
vt 0.0125163 0.514655
vt 0.0172618 0.514655
vt 0.017939 0.514655
vt 0.0185934 0.514655
vt 0.019248 0.514655
vt 0.0199252 0.514655
vt 0.0347897 0.514655
vt 0.0354166 0.514655
vt 0.0360255 0.514655
vt 0.0366245 0.514655
vt 0.0372195 0.514655
vt 0.0378145 0.514655
vt 0.0384136 0.514655
vt 0.0390225 0.514655
vt 0.0396495 0.514655
vt 0.210446 0.514655
vt 0.233749 0.514655
vt 0.25441 0.514655
vt 0.425203 0.514655
vt 0.431195 0.514655
vt 0.431848 0.514655
vt 0.432482 0.514655
vt 0.433106 0.514655
vt 0.433726 0.514655
vt 0.434345 0.514655
vt 0.434969 0.514655
vt 0.435603 0.514655
vt 0.436256 0.514655
vt 0.448031 0.514655
vt 0.44851 0.514655
vt 0.448976 0.514655
vt 0.449435 0.514655
vt 0.44989 0.514655
vt 0.450345 0.514655
vt 0.450803 0.514655
vt 0.451269 0.514655
vt 0.451749 0.514655
vt 0.460335 0.514655
vt 0.460807 0.514655
vt 0.461263 0.514655
vt 0.46172 0.514655
vt 0.462192 0.514655
vt 0.462664 0.514655
vt 0.46312 0.514655
vt 0.463576 0.514655
vt 0.464048 0.514655
vt 0.478523 0.514655
vt 0.484306 0.514655
vt 0.497213 0.514655
vt 0.503208 0.514655
vt 0.503716 0.514655
vt 0.509731 0.514655
vt 0.522724 0.514655
vt 0.528466 0.514655
vt 0.542898 0.514655
vt 0.543572 0.514655
vt 0.544223 0.514655
vt 0.544873 0.514655
vt 0.545547 0.514655
vt 0.54622 0.514655
vt 0.546871 0.514655
vt 0.547522 0.514655
vt 0.548196 0.514655
vt 0.556781 0.514655
vt 0.557521 0.514655
vt 0.558235 0.514655
vt 0.55895 0.514655
vt 0.55969 0.514655
vt 0.571465 0.514655
vt 0.572015 0.514655
vt 0.572549 0.514655
vt 0.573075 0.514655
vt 0.573597 0.514655
vt 0.574119 0.514655
vt 0.574645 0.514655
vt 0.575179 0.514655
vt 0.575729 0.514655
vt 0.746401 0.514655
vt 0.7671 0.514655
vt 0.790519 0.514655
vt 0.96128 0.514655
vt 0.967287 0.514655
vt 0.967812 0.514655
vt 0.968321 0.514655
vt 0.968822 0.514655
vt 0.96932 0.514655
vt 0.969817 0.514655
vt 0.970318 0.514655
vt 0.970827 0.514655
vt 0.971352 0.514655
vt 0.986216 0.514655
vt 0.986664 0.514655
vt 0.987099 0.514655
vt 0.987527 0.514655
vt 0.987952 0.514655
vt 0.988377 0.514655
vt 0.988805 0.514655
vt 0.98924 0.514655
vt 0.989688 0.514655
vt 0.994428 0.514655
vt 0.994812 0.514655
vt 0.995143 0.514655
vt 0.995563 0.514655
vt 0.996051 0.514655
vt 0.996587 0.514655
vt 0.997157 0.514655
vt 0.997751 0.514655
vt 0.998289 0.514655
vt 0.998744 0.514655
vt 0.999123 0.514655
vt 0.999432 0.514655
vt 0.999851 0.514655
vt 1 0.514655
vt 0.000296055 0.271387
vt 0.00677883 0.271387
vt 0.00713016 0.271387
vt 0.00745798 0.271387
vt 0.00786291 0.271387
vt 0.00835015 0.271387
vt 0.00892758 0.271387
vt 0.00953085 0.271387
vt 0.0101012 0.271387
vt 0.0106457 0.271387
vt 0.0111566 0.271387
vt 0.011623 0.271387
vt 0.0120317 0.271387
vt 0.0123681 0.271387
vt 0.014889 0.271387
vt 0.0176004 0.271387
vt 0.0182662 0.271387
vt 0.0189207 0.271387
vt 0.0195866 0.271387
vt 0.0273575 0.271387
vt 0.0351032 0.271387
vt 0.035721 0.271387
vt 0.036325 0.271387
vt 0.036922 0.271387
vt 0.037517 0.271387
vt 0.038114 0.271387
vt 0.038718 0.271387
vt 0.039336 0.271387
vt 0.125048 0.271387
vt 0.222098 0.271387
vt 0.244079 0.271387
vt 0.339806 0.271387
vt 0.431522 0.271387
vt 0.432165 0.271387
vt 0.432794 0.271387
vt 0.433416 0.271387
vt 0.434036 0.271387
vt 0.434657 0.271387
vt 0.435286 0.271387
vt 0.435929 0.271387
vt 0.442143 0.271387
vt 0.44827 0.271387
vt 0.448743 0.271387
vt 0.449205 0.271387
vt 0.449662 0.271387
vt 0.450117 0.271387
vt 0.450574 0.271387
vt 0.451036 0.271387
vt 0.451509 0.271387
vt 0.456042 0.271387
vt 0.460571 0.271387
vt 0.461035 0.271387
vt 0.461491 0.271387
vt 0.461956 0.271387
vt 0.462428 0.271387
vt 0.462892 0.271387
vt 0.463348 0.271387
vt 0.463812 0.271387
vt 0.471286 0.271387
vt 0.481415 0.271387
vt 0.49076 0.271387
vt 0.503462 0.271387
vt 0.516227 0.271387
vt 0.525595 0.271387
vt 0.535682 0.271387
vt 0.543235 0.271387
vt 0.543897 0.271387
vt 0.544548 0.271387
vt 0.54521 0.271387
vt 0.545883 0.271387
vt 0.546546 0.271387
vt 0.547197 0.271387
vt 0.547859 0.271387
vt 0.552488 0.271387
vt 0.557151 0.271387
vt 0.557878 0.271387
vt 0.558593 0.271387
vt 0.55932 0.271387
vt 0.565577 0.271387
vt 0.57174 0.271387
vt 0.572282 0.271387
vt 0.572812 0.271387
vt 0.573336 0.271387
vt 0.573858 0.271387
vt 0.574382 0.271387
vt 0.574912 0.271387
vt 0.575454 0.271387
vt 0.661065 0.271387
vt 0.756751 0.271387
vt 0.77881 0.271387
vt 0.8759 0.271387
vt 0.96755 0.271387
vt 0.968066 0.271387
vt 0.968571 0.271387
vt 0.969071 0.271387
vt 0.969568 0.271387
vt 0.970068 0.271387
vt 0.970573 0.271387
vt 0.971089 0.271387
vt 0.978784 0.271387
vt 0.98644 0.271387
vt 0.986881 0.271387
vt 0.987313 0.271387
vt 0.987739 0.271387
vt 0.988164 0.271387
vt 0.988591 0.271387
vt 0.989022 0.271387
vt 0.989464 0.271387
vt 0.992058 0.271387
vt 0.99462 0.271387
vt 0.994978 0.271387
vt 0.995353 0.271387
vt 0.995807 0.271387
vt 0.996319 0.271387
vt 0.996872 0.271387
vt 0.997454 0.271387
vt 0.99802 0.271387
vt 0.998516 0.271387
vt 0.998934 0.271387
vt 0.999278 0.271387
vt 0.999642 0.271387
vt 0.999925 0.271387


# Vertex Surface Normals: 
vn 0 0 1
vn 0 0 -1
vn 0.678726 -0.734392 0
vn 0.678726 -0.734392 -3.51503e-17
vn 0.678726 -0.734392 -3.51503e-17
vn 0.678726 -0.734392 3.51503e-17
vn 0.678726 -0.734392 3.51503e-17
vn 0.603588 0.797296 0
vn 0.603588 0.797296 0
vn 0.535611 0.844465 1.20586e-17
vn 0.535611 0.844465 -1.20586e-17
vn 0.603588 0.797296 0
vn 0.463967 0.885853 0
vn 0.41486 0.909885 1.20353e-17
vn 0.41486 0.909885 -1.20353e-17
vn 0.364513 0.931198 0
vn 0.312564 0.949897 -5.17511e-18
vn 0.312564 0.949897 5.17511e-18
vn 0.259662 0.9657 0
vn 0.206772 0.978389 -5.17487e-18
vn 0.206772 0.978389 5.17487e-18
vn 0.15327 0.988184 0
vn 0.101354 0.99485 -2.54657e-18
vn 0.101354 0.99485 2.54657e-18
vn 0.0491595 0.998791 0
vn -0.00741917 0.999972 -8.88652e-19
vn -0.00741917 0.999972 8.88652e-19
vn -0.0639741 0.997952 0
vn -0.12163 0.992575 -4.57427e-18
vn -0.12163 0.992575 4.57427e-18
vn -0.178879 0.983871 0
vn -0.226706 0.973963 -6.22988e-18
vn -0.226706 0.973963 6.22988e-18
vn -0.273992 0.961732 0
vn -0.313188 0.949691 1.06253e-17
vn -0.313188 0.949691 -1.06253e-17
vn -0.351858 0.936053 0
vn -0.383899 0.923375 1.06226e-17
vn -0.383899 0.923375 -1.06226e-17
vn -0.415484 0.9096 0
vn -0.441751 0.897138 0
vn -0.441751 0.897138 0
vn -0.467643 0.883917 0
vn -0.489275 0.87213 1.32195e-17
vn -0.489275 0.87213 -1.32195e-17
vn -0.51061 0.859813 0
vn -0.275817 0.96121 1.36623e-17
vn -0.275817 0.96121 -1.36623e-17
vn -0.0229837 0.999736 0
vn 0.0882318 0.9961 1.58929e-18
vn 0.0882318 0.9961 -1.58929e-18
vn 0.198355 0.98013 0
vn 0.386325 0.922363 3.11343e-17
vn 0.386325 0.922363 -3.11343e-17
vn 0.559356 0.828927 0
vn 0.707141 0.707072 7.63648e-18
vn 0.707141 0.707072 -7.63648e-18
vn 0.828982 0.559276 0
vn 0.922391 0.386258 -2.20396e-17
vn 0.922391 0.386258 2.20396e-17
vn 0.98014 0.198308 0
vn 0.995023 0.0996502 -1.57872e-19
vn 0.995023 0.0996502 1.57872e-19
vn 1 0 0
vn 0.998731 0.050366 -1.60977e-19
vn 0.998731 0.050366 1.60977e-19
vn 0.994927 0.100604 0
vn 0.97983 0.199833 2.46691e-17
vn 0.97983 0.199833 -2.46691e-17
vn 0.954862 0.297049 0
vn 0.921171 0.389157 2.4825e-17
vn 0.921171 0.389157 -2.4825e-17
vn 0.87862 0.477522 0
vn 0.828734 0.559642 0
vn 0.828734 0.559642 0
vn 0.771198 0.636595 0
vn 0.707087 0.707126 3.43612e-17
vn 0.707087 0.707126 -3.43612e-17
vn 0.636553 0.771233 0
vn 0.559599 0.828763 3.43637e-17
vn 0.559599 0.828763 -3.43637e-17
vn 0.477479 0.878643 0
vn 0.389119 0.921188 1.55257e-18
vn 0.389119 0.921188 -1.55257e-18
vn 0.297015 0.954873 0
vn 0.199809 0.979835 -2.05986e-18
vn 0.199809 0.979835 2.05986e-18
vn 0.100591 0.994928 0
vn 0.0503592 0.998731 -3.59916e-18
vn 0.0503592 0.998731 3.59916e-18
vn 0 1 0
vn -0.142083 0.989855 0
vn -0.142083 0.989855 0
vn -0.281283 0.959625 0
vn 0.0182995 0.999833 -2.83211e-18
vn 0.0182995 0.999833 2.83211e-18
vn 0.31621 0.948689 0
vn 0.16021 0.987083 -1.45026e-18
vn 0.16021 0.987083 1.45026e-18
vn 7.54231e-05 1 0
vn -0.0503223 0.998733 2.81007e-19
vn -0.0503223 0.998733 -2.81007e-19
vn -0.100592 0.994928 0
vn -0.19981 0.979835 -7.15587e-18
vn -0.19981 0.979835 7.15587e-18
vn -0.297015 0.954873 0
vn -0.389115 0.921189 -1.99946e-17
vn -0.389115 0.921189 1.99946e-17
vn -0.477472 0.878647 0
vn -0.559587 0.828771 -1.25799e-17
vn -0.559587 0.828771 1.25799e-17
vn -0.636538 0.771246 0
vn -0.70707 0.707144 -1.87965e-17
vn -0.70707 0.707144 1.87965e-17
vn -0.771179 0.636619 0
vn -0.828716 0.55967 -2.0051e-17
vn -0.828716 0.55967 2.0051e-17
vn -0.878602 0.477554 0
vn -0.921158 0.389189 0
vn -0.921158 0.389189 0
vn -0.954853 0.29708 0
vn -0.979825 0.199856 0
vn -0.979825 0.199856 0
vn -0.994925 0.100619 0
vn -0.99873 0.0503733 0
vn -0.99873 0.0503733 0
vn -1 0 0
vn -0.998731 -0.050366 -2.57803e-17
vn -0.998731 -0.050366 2.57803e-17
vn -0.994927 -0.100604 0
vn -0.97983 -0.199834 -2.58779e-17
vn -0.97983 -0.199834 2.58779e-17
vn -0.954862 -0.29705 0
vn -0.921171 -0.389159 -4.5687e-17
vn -0.921171 -0.389159 4.5687e-17
vn -0.878618 -0.477525 0
vn -0.828732 -0.559646 -6.57277e-17
vn -0.828732 -0.559646 6.57277e-17
vn -0.771194 -0.636601 0
vn -0.707081 -0.707132 -2.00481e-17
vn -0.707081 -0.707132 2.00481e-17
vn -0.636545 -0.771239 0
vn -0.55959 -0.828769 0
vn -0.55959 -0.828769 0
vn -0.477469 -0.878648 0
vn -0.389109 -0.921192 -8.50429e-18
vn -0.389109 -0.921192 8.50429e-18
vn -0.297006 -0.954876 0
vn -0.199802 -0.979836 -6.69647e-18
vn -0.199802 -0.979836 6.69647e-18
vn -0.100586 -0.994928 0
vn -0.0503568 -0.998731 1.80294e-18
vn -0.0503568 -0.998731 -1.80294e-18
vn 0 -1 0
vn -0.0997191 -0.995016 5.16194e-18
vn -0.0997191 -0.995016 -5.16194e-18
vn -0.198444 -0.980112 0
vn -0.386409 -0.922328 -9.52842e-18
vn -0.386409 -0.922328 9.52842e-18
vn -0.559431 -0.828877 0
vn -0.707149 -0.707065 7.56401e-18
vn -0.707149 -0.707065 -7.56401e-18
vn -0.828944 -0.559332 0
vn -0.922356 -0.38634 4.83613e-17
vn -0.922356 -0.38634 -4.83613e-17
vn -0.980118 -0.198416 0
vn -1 1.63023e-05 1.59253e-19
vn -1 1.63023e-05 -1.59253e-19
vn -0.980111 0.198448 0
vn -0.92231 0.386452 -3.99606e-18
vn -0.92231 0.386452 3.99606e-18
vn -0.828827 0.559505 0
vn -0.706966 0.707248 5.74234e-18
vn -0.706966 0.707248 -5.74234e-18
vn -0.559174 0.82905 0
vn -0.386192 0.922418 -1.0889e-17
vn -0.386192 0.922418 1.0889e-17
vn -0.198287 0.980144 0
vn -0.0996392 0.995024 5.15611e-18
vn -0.0996392 0.995024 -5.15611e-18
vn 0 1 0
vn -0.164607 0.986359 -6.98993e-18
vn -0.164607 0.986359 6.98993e-18
vn -0.324723 0.945809 0
vn -0.164607 0.986359 -6.98993e-18
vn -0.164607 0.986359 6.98993e-18
vn 0 1 0
vn 0 1 0
vn 0 1 0
vn -1 0 0
vn -1 0 0
vn -1 0 0
vn -1 0 0
vn -1 0 0
vn 0 -1 0
vn 0 -1 0
vn 0.165802 -0.986159 0
vn 0.165802 -0.986159 0
vn 0 -1 0
vn 0.327014 -0.945019 0
vn 0.165802 -0.986159 0
vn 0.165802 -0.986159 0
vn 0 -1 0
vn 0.0996392 -0.995024 3.56825e-18
vn 0.0996392 -0.995024 -3.56825e-18
vn 0.198287 -0.980144 0
vn 0.386195 -0.922417 1.97271e-17
vn 0.386195 -0.922417 -1.97271e-17
vn 0.55918 -0.829046 0
vn 0.706978 -0.707235 3.79494e-17
vn 0.706978 -0.707235 -3.79494e-17
vn 0.828843 -0.559481 0
vn 0.922321 -0.386425 7.35991e-17
vn 0.922321 -0.386425 -7.35991e-17
vn 0.980117 -0.198419 0
vn 1 -1.14261e-05 5.15767e-17
vn 1 -1.14261e-05 -5.15767e-17
vn 0.980122 0.198397 0
vn 0.922354 0.386347 2.21802e-17
vn 0.922354 0.386347 -2.21802e-17
vn 0.828925 0.55936 0
vn 0.707107 0.707107 7.60593e-18
vn 0.707107 0.707107 -7.60593e-18
vn 0.55936 0.828925 0
vn 0.386347 0.922354 -1.03102e-17
vn 0.386347 0.922354 1.03102e-17
vn 0.198397 0.980122 0
vn 0.0996952 0.995018 4.36205e-18
vn 0.0996952 0.995018 -4.36205e-18
vn 0 1 0
vn 0.0996953 0.995018 -5.15855e-18
vn 0.0996953 0.995018 5.15855e-18
vn 0.198397 0.980122 0
vn 0.386334 0.922359 -5.23402e-18
vn 0.386334 0.922359 5.23402e-18
vn 0.559337 0.82894 0
vn 0.707075 0.707138 -2.18621e-17
vn 0.707075 0.707138 2.18621e-17
vn 0.828891 0.559411 0
vn 0.922333 0.386395 -2.20543e-17
vn 0.922333 0.386395 2.20543e-17
vn 0.980113 0.19844 0
vn 0.995016 0.099717 -1.67419e-19
vn 0.995016 0.099717 1.67419e-19
vn 1 0 0
vn 0.99873 -0.0503733 -2.59367e-17
vn 0.99873 -0.0503733 2.59367e-17
vn 0.994925 -0.100619 0
vn 0.979824 -0.199864 -2.6035e-17
vn 0.979824 -0.199864 2.6035e-17
vn 0.954848 -0.297095 0
vn 0.921147 -0.389216 0
vn 0.921147 -0.389216 0
vn 0.878582 -0.477591 0
vn 0.828686 -0.559714 2.00443e-17
vn 0.828686 -0.559714 -2.00443e-17
vn 0.771138 -0.636668 0
vn 0.70702 -0.707193 1.87928e-17
vn 0.70702 -0.707193 -1.87928e-17
vn 0.636479 -0.771294 0
vn 0.559527 -0.828812 1.25976e-17
vn 0.559527 -0.828812 -1.25976e-17
vn 0.477411 -0.87868 0
vn 0.389061 -0.921212 2.92899e-17
vn 0.389061 -0.921212 -2.92899e-17
vn 0.29697 -0.954887 0
vn 0.199779 -0.979841 1.80567e-17
vn 0.199779 -0.979841 -1.80567e-17
vn 0.100576 -0.994929 0
vn 0.0503521 -0.998732 2.60377e-18
vn 0.0503521 -0.998732 -2.60377e-18
vn 0 -1 0
vn -0.160167 -0.98709 -1.63972e-18
vn -0.160167 -0.98709 1.63972e-18
vn -0.316199 -0.948693 0
vn -0.019043 -0.999819 2.95253e-19
vn -0.019043 -0.999819 -2.95253e-19
vn 0.279844 -0.960045 0
vn 0.141341 -0.989961 1.91965e-18
vn 0.141341 -0.989961 -1.91965e-18
vn 0 -1 0
vn -0.05037 -0.998731 -2.60416e-18
vn -0.05037 -0.998731 2.60416e-18
vn -0.100612 -0.994926 0
vn -0.199841 -0.979828 -5.7204e-18
vn -0.199841 -0.979828 5.7204e-18
vn -0.297056 -0.95486 0
vn -0.389154 -0.921173 -1.69436e-17
vn -0.389154 -0.921173 1.69436e-17
vn -0.47751 -0.878626 0
vn -0.559618 -0.828751 2.71985e-18
vn -0.559618 -0.828751 -2.71985e-18
vn -0.636561 -0.771226 0
vn -0.707084 -0.70713 -3.4831e-18
vn -0.707084 -0.70713 3.4831e-18
vn -0.771185 -0.636611 0
vn -0.828716 -0.559669 -4.20954e-17
vn -0.828716 -0.559669 4.20954e-17
vn -0.878598 -0.477561 0
vn -0.921153 -0.389201 2.76479e-18
vn -0.921153 -0.389201 -2.76479e-18
vn -0.954848 -0.297096 0
vn -0.979823 -0.199869 5.05412e-17
vn -0.979823 -0.199869 -5.05412e-17
vn -0.994924 -0.100628 0
vn -0.99873 -0.0503782 2.56124e-17
vn -0.99873 -0.0503782 -2.56124e-17
vn -1 0 0
vn -0.998731 -0.0503617 -8.13864e-20
vn -0.998731 -0.0503617 8.13864e-20
vn -0.994927 -0.100596 0
vn -0.979834 -0.199811 -8.16946e-20
vn -0.979834 -0.199811 8.16946e-20
vn -0.954873 -0.297015 0
vn -0.921192 -0.389109 2.2855e-17
vn -0.921192 -0.389109 -2.2855e-17
vn -0.878652 -0.477463 0
vn -0.82878 -0.559574 2.79312e-18
vn -0.82878 -0.559574 -2.79312e-18
vn -0.771259 -0.636522 0
vn -0.70716 -0.707054 -3.50789e-18
vn -0.70716 -0.707054 3.50789e-18
vn -0.636638 -0.771163 0
vn -0.559689 -0.828703 2.89611e-17
vn -0.559689 -0.828703 -2.89611e-17
vn -0.477573 -0.878592 0
vn -0.389204 -0.921151 1.24142e-17
vn -0.389204 -0.921151 -1.24142e-17
vn -0.297092 -0.954849 0
vn -0.199864 -0.979824 2.61743e-18
vn -0.199864 -0.979824 -2.61743e-18
vn -0.100621 -0.994925 0
vn -0.0503747 -0.99873 2.60755e-18
vn -0.0503747 -0.99873 -2.60755e-18
vn 0 -1 0
vn 0.290599 -0.956845 1.50475e-17
vn 0.290599 -0.956845 -1.50475e-17
vn 0.556117 -0.831104 0
vn 0.527133 -0.849783 2.86969e-17
vn 0.527133 -0.849783 -2.86969e-17
vn 0.497523 -0.867451 0
vn 0.472528 -0.881316 1.42875e-17
vn 0.472528 -0.881316 -1.42875e-17
vn 0.447146 -0.894461 0
vn 0.415782 -0.909464 -1.14345e-17
vn 0.415782 -0.909464 1.14345e-17
vn 0.383915 -0.923369 0
vn 0.344194 -0.938899 -1.93144e-17
vn 0.344194 -0.938899 1.93144e-17
vn 0.303847 -0.952721 0
vn 0.253304 -0.967387 -1.31131e-17
vn 0.253304 -0.967387 1.31131e-17
vn 0.202059 -0.979373 0
vn 0.13812 -0.990415 -5.23681e-18
vn 0.13812 -0.990415 5.23681e-18
vn 0.0736003 -0.997288 0
vn 0.0138583 -0.999904 -1.618e-18
vn 0.0138583 -0.999904 1.618e-18
vn -0.0459333 -0.998945 0
vn -0.0947627 -0.9955 -9.0415e-18
vn -0.0947627 -0.9955 9.0415e-18
vn -0.143365 -0.98967 0
vn -0.19366 -0.981069 -5.8578e-18
vn -0.19366 -0.981069 5.8578e-18
vn -0.243451 -0.969913 0
vn -0.293644 -0.955915 1.56752e-18
vn -0.293644 -0.955915 -1.56752e-18
vn -0.34304 -0.939321 0
vn -0.41106 -0.911608 -1.23649e-17
vn -0.41106 -0.911608 1.23649e-17
vn -0.476863 -0.878977 0
vn -0.553121 -0.833101 -1.23805e-17
vn -0.553121 -0.833101 1.23805e-17
vn -0.624998 -0.780626 0
vn -0.624998 -0.780626 0
vn -0.624998 -0.780626 0


# Faces: 
usemtl material0
f 185/63/1 183/61/1 184/62/1
f 183/61/1 185/63/1 186/64/1
f 187/65/1 182/60/1 183/61/1
f 187/65/1 188/66/1 181/59/1
f 181/59/1 182/60/1 187/65/1
f 187/65/1 183/61/1 186/64/1
f 170/48/1 171/49/1 198/76/1
f 198/76/1 169/47/1 170/48/1
f 171/49/1 197/75/1 198/76/1
f 173/51/1 197/75/1 172/50/1
f 172/50/1 197/75/1 171/49/1
f 196/74/1 197/75/1 173/51/1
f 188/66/1 180/58/1 181/59/1
f 199/77/1 169/47/1 198/76/1
f 179/57/1 180/58/1 190/68/1
f 189/67/1 180/58/1 188/66/1
f 190/68/1 180/58/1 189/67/1
f 190/68/1 191/69/1 178/56/1
f 192/70/1 177/55/1 178/56/1
f 178/56/1 191/69/1 192/70/1
f 190/68/1 178/56/1 179/57/1
f 195/73/1 174/52/1 194/72/1
f 196/74/1 173/51/1 195/73/1
f 174/52/1 175/53/1 194/72/1
f 173/51/1 174/52/1 195/73/1
f 176/54/1 192/70/1 193/71/1
f 192/70/1 176/54/1 177/55/1
f 193/71/1 194/72/1 176/54/1
f 176/54/1 194/72/1 175/53/1
f 201/79/1 164/42/1 165/43/1
f 200/78/1 165/43/1 166/44/1
f 200/78/1 167/45/1 199/77/1
f 201/79/1 165/43/1 200/78/1
f 200/78/1 166/44/1 167/45/1
f 164/42/1 201/79/1 202/80/1
f 162/40/1 163/41/1 203/81/1
f 202/80/1 163/41/1 164/42/1
f 203/81/1 161/39/1 162/40/1
f 203/81/1 163/41/1 202/80/1
f 204/82/1 160/38/1 161/39/1
f 205/83/1 159/37/1 160/38/1
f 205/83/1 160/38/1 204/82/1
f 204/82/1 161/39/1 203/81/1
f 199/77/1 167/45/1 168/46/1
f 207/85/1 158/36/1 159/37/1
f 207/85/1 159/37/1 206/84/1
f 168/46/1 169/47/1 199/77/1
f 152/30/1 153/31/1 213/91/1
f 208/86/1 209/87/1 157/35/1
f 212/90/1 153/31/1 211/89/1
f 155/33/1 211/89/1 154/32/1
f 207/85/1 208/86/1 158/36/1
f 208/86/1 157/35/1 158/36/1
f 155/33/1 209/87/1 210/88/1
f 157/35/1 209/87/1 156/34/1
f 155/33/1 156/34/1 209/87/1
f 210/88/1 211/89/1 155/33/1
f 211/89/1 153/31/1 154/32/1
f 153/31/1 212/90/1 213/91/1
f 206/84/1 159/37/1 205/83/1
f 229/107/1 139/17/1 228/106/1
f 230/108/1 139/17/1 229/107/1
f 138/16/1 231/109/1 232/110/1
f 137/15/1 232/110/1 233/111/1
f 231/109/1 138/16/1 230/108/1
f 234/112/1 136/14/1 233/111/1
f 228/106/1 140/18/1 227/105/1
f 228/106/1 139/17/1 140/18/1
f 226/104/1 140/18/1 141/19/1
f 140/18/1 226/104/1 227/105/1
f 137/15/1 138/16/1 232/110/1
f 136/14/1 137/15/1 233/111/1
f 234/112/1 135/13/1 136/14/1
f 230/108/1 138/16/1 139/17/1
f 234/112/1 235/113/1 135/13/1
f 235/113/1 236/114/1 134/12/1
f 244/122/1 123/1/1 124/2/1
f 127/5/1 242/120/1 243/121/1
f 244/122/1 125/3/1 243/121/1
f 124/2/1 125/3/1 244/122/1
f 133/11/1 236/114/1 237/115/1
f 239/117/1 131/9/1 238/116/1
f 237/115/1 238/116/1 132/10/1
f 236/114/1 133/11/1 134/12/1
f 129/7/1 240/118/1 241/119/1
f 242/120/1 128/6/1 241/119/1
f 243/121/1 125/3/1 126/4/1
f 239/117/1 240/118/1 130/8/1
f 235/113/1 134/12/1 135/13/1
f 243/121/1 126/4/1 127/5/1
f 218/96/1 219/97/1 147/25/1
f 217/95/1 218/96/1 147/25/1
f 146/24/1 220/98/1 145/23/1
f 147/25/1 219/97/1 146/24/1
f 220/98/1 221/99/1 145/23/1
f 146/24/1 219/97/1 220/98/1
f 217/95/1 147/25/1 148/26/1
f 214/92/1 151/29/1 213/91/1
f 151/29/1 214/92/1 215/93/1
f 215/93/1 150/28/1 151/29/1
f 213/91/1 151/29/1 152/30/1
f 216/94/1 148/26/1 149/27/1
f 148/26/1 216/94/1 217/95/1
f 150/28/1 215/93/1 149/27/1
f 149/27/1 215/93/1 216/94/1
f 226/104/1 141/19/1 225/103/1
f 237/115/1 132/10/1 133/11/1
f 225/103/1 141/19/1 224/102/1
f 128/6/1 129/7/1 241/119/1
f 131/9/1 132/10/1 238/116/1
f 131/9/1 239/117/1 130/8/1
f 242/120/1 127/5/1 128/6/1
f 129/7/1 130/8/1 240/118/1
f 142/20/1 222/100/1 223/101/1
f 221/99/1 222/100/1 143/21/1
f 145/23/1 221/99/1 144/22/1
f 223/101/1 224/102/1 142/20/1
f 142/20/1 224/102/1 141/19/1
f 221/99/1 143/21/1 144/22/1
f 143/21/1 222/100/1 142/20/1
f 61/183/2 63/185/2 62/184/2
f 63/185/2 61/183/2 64/186/2
f 60/182/2 65/187/2 61/183/2
f 66/188/2 65/187/2 59/181/2
f 60/182/2 59/181/2 65/187/2
f 61/183/2 65/187/2 64/186/2
f 49/171/2 48/170/2 76/198/2
f 47/169/2 76/198/2 48/170/2
f 75/197/2 49/171/2 76/198/2
f 75/197/2 51/173/2 50/172/2
f 75/197/2 50/172/2 49/171/2
f 75/197/2 74/196/2 51/173/2
f 58/180/2 66/188/2 59/181/2
f 47/169/2 77/199/2 76/198/2
f 58/180/2 57/179/2 68/190/2
f 58/180/2 67/189/2 66/188/2
f 58/180/2 68/190/2 67/189/2
f 69/191/2 68/190/2 56/178/2
f 55/177/2 70/192/2 56/178/2
f 69/191/2 56/178/2 70/192/2
f 56/178/2 68/190/2 57/179/2
f 52/174/2 73/195/2 72/194/2
f 51/173/2 74/196/2 73/195/2
f 53/175/2 52/174/2 72/194/2
f 52/174/2 51/173/2 73/195/2
f 70/192/2 54/176/2 71/193/2
f 54/176/2 70/192/2 55/177/2
f 72/194/2 71/193/2 54/176/2
f 72/194/2 54/176/2 53/175/2
f 42/164/2 79/201/2 43/165/2
f 43/165/2 78/200/2 44/166/2
f 45/167/2 78/200/2 77/199/2
f 43/165/2 79/201/2 78/200/2
f 44/166/2 78/200/2 45/167/2
f 79/201/2 42/164/2 80/202/2
f 41/163/2 40/162/2 81/203/2
f 41/163/2 80/202/2 42/164/2
f 39/161/2 81/203/2 40/162/2
f 41/163/2 81/203/2 80/202/2
f 38/160/2 82/204/2 39/161/2
f 37/159/2 83/205/2 38/160/2
f 38/160/2 83/205/2 82/204/2
f 39/161/2 82/204/2 81/203/2
f 45/167/2 77/199/2 46/168/2
f 36/158/2 85/207/2 37/159/2
f 37/159/2 85/207/2 84/206/2
f 47/169/2 46/168/2 77/199/2
f 31/153/2 30/152/2 91/213/2
f 87/209/2 86/208/2 35/157/2
f 31/153/2 90/212/2 89/211/2
f 89/211/2 33/155/2 32/154/2
f 86/208/2 85/207/2 36/158/2
f 35/157/2 86/208/2 36/158/2
f 87/209/2 33/155/2 88/210/2
f 87/209/2 35/157/2 34/156/2
f 34/156/2 33/155/2 87/209/2
f 89/211/2 88/210/2 33/155/2
f 31/153/2 89/211/2 32/154/2
f 90/212/2 31/153/2 91/213/2
f 37/159/2 84/206/2 83/205/2
f 17/139/2 107/229/2 106/228/2
f 17/139/2 108/230/2 107/229/2
f 109/231/2 16/138/2 110/232/2
f 110/232/2 15/137/2 111/233/2
f 16/138/2 109/231/2 108/230/2
f 14/136/2 112/234/2 111/233/2
f 18/140/2 106/228/2 105/227/2
f 17/139/2 106/228/2 18/140/2
f 18/140/2 104/226/2 19/141/2
f 104/226/2 18/140/2 105/227/2
f 16/138/2 15/137/2 110/232/2
f 15/137/2 14/136/2 111/233/2
f 13/135/2 112/234/2 14/136/2
f 16/138/2 108/230/2 17/139/2
f 113/235/2 112/234/2 13/135/2
f 114/236/2 113/235/2 12/134/2
f 1/123/2 122/244/2 2/124/2
f 120/242/2 5/127/2 121/243/2
f 3/125/2 122/244/2 121/243/2
f 3/125/2 2/124/2 122/244/2
f 114/236/2 11/133/2 115/237/2
f 9/131/2 117/239/2 116/238/2
f 116/238/2 115/237/2 10/132/2
f 11/133/2 114/236/2 12/134/2
f 118/240/2 7/129/2 119/241/2
f 6/128/2 120/242/2 119/241/2
f 3/125/2 121/243/2 4/126/2
f 118/240/2 117/239/2 8/130/2
f 12/134/2 113/235/2 13/135/2
f 4/126/2 121/243/2 5/127/2
f 97/219/2 96/218/2 25/147/2
f 96/218/2 95/217/2 25/147/2
f 98/220/2 24/146/2 23/145/2
f 97/219/2 25/147/2 24/146/2
f 99/221/2 98/220/2 23/145/2
f 97/219/2 24/146/2 98/220/2
f 25/147/2 95/217/2 26/148/2
f 29/151/2 92/214/2 91/213/2
f 92/214/2 29/151/2 93/215/2
f 28/150/2 93/215/2 29/151/2
f 29/151/2 91/213/2 30/152/2
f 26/148/2 94/216/2 27/149/2
f 94/216/2 26/148/2 95/217/2
f 93/215/2 28/150/2 27/149/2
f 93/215/2 27/149/2 94/216/2
f 19/141/2 104/226/2 103/225/2
f 10/132/2 115/237/2 11/133/2
f 19/141/2 103/225/2 102/224/2
f 7/129/2 6/128/2 119/241/2
f 10/132/2 9/131/2 116/238/2
f 117/239/2 9/131/2 8/130/2
f 5/127/2 120/242/2 6/128/2
f 8/130/2 7/129/2 118/240/2
f 100/222/2 20/142/2 101/223/2
f 100/222/2 99/221/2 21/143/2
f 99/221/2 23/145/2 22/144/2
f 102/224/2 101/223/2 20/142/2
f 102/224/2 20/142/2 19/141/2
f 21/143/2 99/221/2 22/144/2
f 100/222/2 21/143/2 20/142/2
f 245/501/3 1/245/4 2/246/5
f 245/501/3 2/246/5 124/374/6
f 245/501/3 124/374/6 123/373/7
f 245/501/3 123/373/7 1/245/4
f 246/502/8 2/247/9 3/248/10
f 246/502/8 3/248/10 125/376/11
f 246/502/8 125/376/11 124/375/12
f 246/502/8 124/375/12 2/247/9
f 247/503/13 3/248/10 4/249/14
f 247/503/13 4/249/14 126/377/15
f 247/503/13 126/377/15 125/376/11
f 247/503/13 125/376/11 3/248/10
f 248/504/16 4/249/14 5/250/17
f 248/504/16 5/250/17 127/378/18
f 248/504/16 127/378/18 126/377/15
f 248/504/16 126/377/15 4/249/14
f 249/505/19 5/250/17 6/251/20
f 249/505/19 6/251/20 128/379/21
f 249/505/19 128/379/21 127/378/18
f 249/505/19 127/378/18 5/250/17
f 250/506/22 6/251/20 7/252/23
f 250/506/22 7/252/23 129/380/24
f 250/506/22 129/380/24 128/379/21
f 250/506/22 128/379/21 6/251/20
f 251/507/25 7/252/23 8/253/26
f 251/507/25 8/253/26 130/381/27
f 251/507/25 130/381/27 129/380/24
f 251/507/25 129/380/24 7/252/23
f 252/508/28 8/253/26 9/254/29
f 252/508/28 9/254/29 131/382/30
f 252/508/28 131/382/30 130/381/27
f 252/508/28 130/381/27 8/253/26
f 253/509/31 9/254/29 10/255/32
f 253/509/31 10/255/32 132/383/33
f 253/509/31 132/383/33 131/382/30
f 253/509/31 131/382/30 9/254/29
f 254/510/34 10/255/32 11/256/35
f 254/510/34 11/256/35 133/384/36
f 254/510/34 133/384/36 132/383/33
f 254/510/34 132/383/33 10/255/32
f 255/511/37 11/256/35 12/257/38
f 255/511/37 12/257/38 134/385/39
f 255/511/37 134/385/39 133/384/36
f 255/511/37 133/384/36 11/256/35
f 256/512/40 12/257/38 13/258/41
f 256/512/40 13/258/41 135/386/42
f 256/512/40 135/386/42 134/385/39
f 256/512/40 134/385/39 12/257/38
f 257/513/43 13/258/41 14/259/44
f 257/513/43 14/259/44 136/387/45
f 257/513/43 136/387/45 135/386/42
f 257/513/43 135/386/42 13/258/41
f 258/514/46 14/259/44 15/260/47
f 258/514/46 15/260/47 137/388/48
f 258/514/46 137/388/48 136/387/45
f 258/514/46 136/387/45 14/259/44
f 259/515/49 15/260/47 16/261/50
f 259/515/49 16/261/50 138/389/51
f 259/515/49 138/389/51 137/388/48
f 259/515/49 137/388/48 15/260/47
f 260/516/52 16/261/50 17/262/53
f 260/516/52 17/262/53 139/390/54
f 260/516/52 139/390/54 138/389/51
f 260/516/52 138/389/51 16/261/50
f 261/517/55 17/262/53 18/263/56
f 261/517/55 18/263/56 140/391/57
f 261/517/55 140/391/57 139/390/54
f 261/517/55 139/390/54 17/262/53
f 262/518/58 18/263/56 19/264/59
f 262/518/58 19/264/59 141/392/60
f 262/518/58 141/392/60 140/391/57
f 262/518/58 140/391/57 18/263/56
f 263/519/61 19/264/59 20/265/62
f 263/519/61 20/265/62 142/393/63
f 263/519/61 142/393/63 141/392/60
f 263/519/61 141/392/60 19/264/59
f 264/520/64 20/265/62 21/266/65
f 264/520/64 21/266/65 143/394/66
f 264/520/64 143/394/66 142/393/63
f 264/520/64 142/393/63 20/265/62
f 265/521/67 21/266/65 22/267/68
f 265/521/67 22/267/68 144/395/69
f 265/521/67 144/395/69 143/394/66
f 265/521/67 143/394/66 21/266/65
f 266/522/70 22/267/68 23/268/71
f 266/522/70 23/268/71 145/396/72
f 266/522/70 145/396/72 144/395/69
f 266/522/70 144/395/69 22/267/68
f 267/523/73 23/268/71 24/269/74
f 267/523/73 24/269/74 146/397/75
f 267/523/73 146/397/75 145/396/72
f 267/523/73 145/396/72 23/268/71
f 268/524/76 24/269/74 25/270/77
f 268/524/76 25/270/77 147/398/78
f 268/524/76 147/398/78 146/397/75
f 268/524/76 146/397/75 24/269/74
f 269/525/79 25/270/77 26/271/80
f 269/525/79 26/271/80 148/399/81
f 269/525/79 148/399/81 147/398/78
f 269/525/79 147/398/78 25/270/77
f 270/526/82 26/271/80 27/272/83
f 270/526/82 27/272/83 149/400/84
f 270/526/82 149/400/84 148/399/81
f 270/526/82 148/399/81 26/271/80
f 271/527/85 27/272/83 28/273/86
f 271/527/85 28/273/86 150/401/87
f 271/527/85 150/401/87 149/400/84
f 271/527/85 149/400/84 27/272/83
f 272/528/88 28/273/86 29/274/89
f 272/528/88 29/274/89 151/402/90
f 272/528/88 151/402/90 150/401/87
f 272/528/88 150/401/87 28/273/86
f 273/529/91 29/274/89 30/275/92
f 273/529/91 30/275/92 152/403/93
f 273/529/91 152/403/93 151/402/90
f 273/529/91 151/402/90 29/274/89
f 274/530/94 30/275/92 31/276/95
f 274/530/94 31/276/95 153/404/96
f 274/530/94 153/404/96 152/403/93
f 274/530/94 152/403/93 30/275/92
f 275/531/97 31/276/95 32/277/98
f 275/531/97 32/277/98 154/405/99
f 275/531/97 154/405/99 153/404/96
f 275/531/97 153/404/96 31/276/95
f 276/532/100 32/277/98 33/278/101
f 276/532/100 33/278/101 155/406/102
f 276/532/100 155/406/102 154/405/99
f 276/532/100 154/405/99 32/277/98
f 277/533/103 33/279/101 34/280/104
f 277/533/103 34/280/104 156/408/105
f 277/533/103 156/408/105 155/407/102
f 277/533/103 155/407/102 33/279/101
f 278/534/106 34/280/104 35/281/107
f 278/534/106 35/281/107 157/409/108
f 278/534/106 157/409/108 156/408/105
f 278/534/106 156/408/105 34/280/104
f 279/535/109 35/281/107 36/282/110
f 279/535/109 36/282/110 158/410/111
f 279/535/109 158/410/111 157/409/108
f 279/535/109 157/409/108 35/281/107
f 280/536/112 36/282/110 37/283/113
f 280/536/112 37/283/113 159/411/114
f 280/536/112 159/411/114 158/410/111
f 280/536/112 158/410/111 36/282/110
f 281/537/115 37/283/113 38/284/116
f 281/537/115 38/284/116 160/412/117
f 281/537/115 160/412/117 159/411/114
f 281/537/115 159/411/114 37/283/113
f 282/538/118 38/284/116 39/285/119
f 282/538/118 39/285/119 161/413/120
f 282/538/118 161/413/120 160/412/117
f 282/538/118 160/412/117 38/284/116
f 283/539/121 39/285/119 40/286/122
f 283/539/121 40/286/122 162/414/123
f 283/539/121 162/414/123 161/413/120
f 283/539/121 161/413/120 39/285/119
f 284/540/124 40/286/122 41/287/125
f 284/540/124 41/287/125 163/415/126
f 284/540/124 163/415/126 162/414/123
f 284/540/124 162/414/123 40/286/122
f 285/541/127 41/287/125 42/288/128
f 285/541/127 42/288/128 164/416/129
f 285/541/127 164/416/129 163/415/126
f 285/541/127 163/415/126 41/287/125
f 286/542/130 42/288/128 43/289/131
f 286/542/130 43/289/131 165/417/132
f 286/542/130 165/417/132 164/416/129
f 286/542/130 164/416/129 42/288/128
f 287/543/133 43/289/131 44/290/134
f 287/543/133 44/290/134 166/418/135
f 287/543/133 166/418/135 165/417/132
f 287/543/133 165/417/132 43/289/131
f 288/544/136 44/290/134 45/291/137
f 288/544/136 45/291/137 167/419/138
f 288/544/136 167/419/138 166/418/135
f 288/544/136 166/418/135 44/290/134
f 289/545/139 45/291/137 46/292/140
f 289/545/139 46/292/140 168/420/141
f 289/545/139 168/420/141 167/419/138
f 289/545/139 167/419/138 45/291/137
f 290/546/142 46/292/140 47/293/143
f 290/546/142 47/293/143 169/421/144
f 290/546/142 169/421/144 168/420/141
f 290/546/142 168/420/141 46/292/140
f 291/547/145 47/293/143 48/294/146
f 291/547/145 48/294/146 170/422/147
f 291/547/145 170/422/147 169/421/144
f 291/547/145 169/421/144 47/293/143
f 292/548/148 48/294/146 49/295/149
f 292/548/148 49/295/149 171/423/150
f 292/548/148 171/423/150 170/422/147
f 292/548/148 170/422/147 48/294/146
f 293/549/151 49/295/149 50/296/152
f 293/549/151 50/296/152 172/424/153
f 293/549/151 172/424/153 171/423/150
f 293/549/151 171/423/150 49/295/149
f 294/550/154 50/296/152 51/297/155
f 294/550/154 51/297/155 173/425/156
f 294/550/154 173/425/156 172/424/153
f 294/550/154 172/424/153 50/296/152
f 295/551/157 51/297/155 52/298/158
f 295/551/157 52/298/158 174/426/159
f 295/551/157 174/426/159 173/425/156
f 295/551/157 173/425/156 51/297/155
f 296/552/160 52/298/158 53/299/161
f 296/552/160 53/299/161 175/427/162
f 296/552/160 175/427/162 174/426/159
f 296/552/160 174/426/159 52/298/158
f 297/553/163 53/299/161 54/300/164
f 297/553/163 54/300/164 176/428/165
f 297/553/163 176/428/165 175/427/162
f 297/553/163 175/427/162 53/299/161
f 298/554/166 54/300/164 55/301/167
f 298/554/166 55/301/167 177/429/168
f 298/554/166 177/429/168 176/428/165
f 298/554/166 176/428/165 54/300/164
f 299/555/169 55/301/167 56/302/170
f 299/555/169 56/302/170 178/430/171
f 299/555/169 178/430/171 177/429/168
f 299/555/169 177/429/168 55/301/167
f 300/556/172 56/302/170 57/303/173
f 300/556/172 57/303/173 179/431/174
f 300/556/172 179/431/174 178/430/171
f 300/556/172 178/430/171 56/302/170
f 301/557/175 57/303/173 58/304/176
f 301/557/175 58/304/176 180/432/177
f 301/557/175 180/432/177 179/431/174
f 301/557/175 179/431/174 57/303/173
f 302/558/178 58/304/176 59/305/179
f 302/558/178 59/305/179 181/433/180
f 302/558/178 181/433/180 180/432/177
f 302/558/178 180/432/177 58/304/176
f 303/559/181 59/305/179 60/306/182
f 303/559/181 60/306/182 182/434/183
f 303/559/181 182/434/183 181/433/180
f 303/559/181 181/433/180 59/305/179
f 304/560/184 60/306/182 61/307/185
f 304/560/184 61/307/185 183/435/186
f 304/560/184 183/435/186 182/434/183
f 304/560/184 182/434/183 60/306/182
f 305/561/187 61/307/185 62/308/188
f 305/561/187 62/308/188 184/436/189
f 305/561/187 184/436/189 183/435/186
f 305/561/187 183/435/186 61/307/185
f 306/562/190 62/309/191 63/310/192
f 306/562/190 63/310/192 185/438/193
f 306/562/190 185/438/193 184/437/194
f 306/562/190 184/437/194 62/309/191
f 307/563/195 63/311/196 64/312/197
f 307/563/195 64/312/197 186/440/198
f 307/563/195 186/440/198 185/439/199
f 307/563/195 185/439/199 63/311/196
f 308/564/200 64/312/197 65/313/201
f 308/564/200 65/313/201 187/441/202
f 308/564/200 187/441/202 186/440/198
f 308/564/200 186/440/198 64/312/197
f 309/565/203 65/313/201 66/314/204
f 309/565/203 66/314/204 188/442/205
f 309/565/203 188/442/205 187/441/202
f 309/565/203 187/441/202 65/313/201
f 310/566/206 66/314/204 67/315/207
f 310/566/206 67/315/207 189/443/208
f 310/566/206 189/443/208 188/442/205
f 310/566/206 188/442/205 66/314/204
f 311/567/209 67/315/207 68/316/210
f 311/567/209 68/316/210 190/444/211
f 311/567/209 190/444/211 189/443/208
f 311/567/209 189/443/208 67/315/207
f 312/568/212 68/316/210 69/317/213
f 312/568/212 69/317/213 191/445/214
f 312/568/212 191/445/214 190/444/211
f 312/568/212 190/444/211 68/316/210
f 313/569/215 69/317/213 70/318/216
f 313/569/215 70/318/216 192/446/217
f 313/569/215 192/446/217 191/445/214
f 313/569/215 191/445/214 69/317/213
f 314/570/218 70/318/216 71/319/219
f 314/570/218 71/319/219 193/447/220
f 314/570/218 193/447/220 192/446/217
f 314/570/218 192/446/217 70/318/216
f 315/571/221 71/319/219 72/320/222
f 315/571/221 72/320/222 194/448/223
f 315/571/221 194/448/223 193/447/220
f 315/571/221 193/447/220 71/319/219
f 316/572/224 72/320/222 73/321/225
f 316/572/224 73/321/225 195/449/226
f 316/572/224 195/449/226 194/448/223
f 316/572/224 194/448/223 72/320/222
f 317/573/227 73/321/225 74/322/228
f 317/573/227 74/322/228 196/450/229
f 317/573/227 196/450/229 195/449/226
f 317/573/227 195/449/226 73/321/225
f 318/574/230 74/322/228 75/323/231
f 318/574/230 75/323/231 197/451/232
f 318/574/230 197/451/232 196/450/229
f 318/574/230 196/450/229 74/322/228
f 319/575/233 75/323/231 76/324/234
f 319/575/233 76/324/234 198/452/235
f 319/575/233 198/452/235 197/451/232
f 319/575/233 197/451/232 75/323/231
f 320/576/236 76/324/234 77/325/237
f 320/576/236 77/325/237 199/453/238
f 320/576/236 199/453/238 198/452/235
f 320/576/236 198/452/235 76/324/234
f 321/577/239 77/325/237 78/326/240
f 321/577/239 78/326/240 200/454/241
f 321/577/239 200/454/241 199/453/238
f 321/577/239 199/453/238 77/325/237
f 322/578/242 78/326/240 79/327/243
f 322/578/242 79/327/243 201/455/244
f 322/578/242 201/455/244 200/454/241
f 322/578/242 200/454/241 78/326/240
f 323/579/245 79/327/243 80/328/246
f 323/579/245 80/328/246 202/456/247
f 323/579/245 202/456/247 201/455/244
f 323/579/245 201/455/244 79/327/243
f 324/580/248 80/328/246 81/329/249
f 324/580/248 81/329/249 203/457/250
f 324/580/248 203/457/250 202/456/247
f 324/580/248 202/456/247 80/328/246
f 325/581/251 81/329/249 82/330/252
f 325/581/251 82/330/252 204/458/253
f 325/581/251 204/458/253 203/457/250
f 325/581/251 203/457/250 81/329/249
f 326/582/254 82/330/252 83/331/255
f 326/582/254 83/331/255 205/459/256
f 326/582/254 205/459/256 204/458/253
f 326/582/254 204/458/253 82/330/252
f 327/583/257 83/331/255 84/332/258
f 327/583/257 84/332/258 206/460/259
f 327/583/257 206/460/259 205/459/256
f 327/583/257 205/459/256 83/331/255
f 328/584/260 84/332/258 85/333/261
f 328/584/260 85/333/261 207/461/262
f 328/584/260 207/461/262 206/460/259
f 328/584/260 206/460/259 84/332/258
f 329/585/263 85/333/261 86/334/264
f 329/585/263 86/334/264 208/462/265
f 329/585/263 208/462/265 207/461/262
f 329/585/263 207/461/262 85/333/261
f 330/586/266 86/334/264 87/335/267
f 330/586/266 87/335/267 209/463/268
f 330/586/266 209/463/268 208/462/265
f 330/586/266 208/462/265 86/334/264
f 331/587/269 87/335/267 88/336/270
f 331/587/269 88/336/270 210/464/271
f 331/587/269 210/464/271 209/463/268
f 331/587/269 209/463/268 87/335/267
f 332/588/272 88/336/270 89/337/273
f 332/588/272 89/337/273 211/465/274
f 332/588/272 211/465/274 210/464/271
f 332/588/272 210/464/271 88/336/270
f 333/589/275 89/337/273 90/338/276
f 333/589/275 90/338/276 212/466/277
f 333/589/275 212/466/277 211/465/274
f 333/589/275 211/465/274 89/337/273
f 334/590/278 90/338/276 91/339/279
f 334/590/278 91/339/279 213/467/280
f 334/590/278 213/467/280 212/466/277
f 334/590/278 212/466/277 90/338/276
f 335/591/281 91/339/279 92/340/282
f 335/591/281 92/340/282 214/468/283
f 335/591/281 214/468/283 213/467/280
f 335/591/281 213/467/280 91/339/279
f 336/592/284 92/341/282 93/342/285
f 336/592/284 93/342/285 215/470/286
f 336/592/284 215/470/286 214/469/283
f 336/592/284 214/469/283 92/341/282
f 337/593/287 93/342/285 94/343/288
f 337/593/287 94/343/288 216/471/289
f 337/593/287 216/471/289 215/470/286
f 337/593/287 215/470/286 93/342/285
f 338/594/290 94/343/288 95/344/291
f 338/594/290 95/344/291 217/472/292
f 338/594/290 217/472/292 216/471/289
f 338/594/290 216/471/289 94/343/288
f 339/595/293 95/344/291 96/345/294
f 339/595/293 96/345/294 218/473/295
f 339/595/293 218/473/295 217/472/292
f 339/595/293 217/472/292 95/344/291
f 340/596/296 96/345/294 97/346/297
f 340/596/296 97/346/297 219/474/298
f 340/596/296 219/474/298 218/473/295
f 340/596/296 218/473/295 96/345/294
f 341/597/299 97/346/297 98/347/300
f 341/597/299 98/347/300 220/475/301
f 341/597/299 220/475/301 219/474/298
f 341/597/299 219/474/298 97/346/297
f 342/598/302 98/347/300 99/348/303
f 342/598/302 99/348/303 221/476/304
f 342/598/302 221/476/304 220/475/301
f 342/598/302 220/475/301 98/347/300
f 343/599/305 99/348/303 100/349/306
f 343/599/305 100/349/306 222/477/307
f 343/599/305 222/477/307 221/476/304
f 343/599/305 221/476/304 99/348/303
f 344/600/308 100/349/306 101/350/309
f 344/600/308 101/350/309 223/478/310
f 344/600/308 223/478/310 222/477/307
f 344/600/308 222/477/307 100/349/306
f 345/601/311 101/350/309 102/351/312
f 345/601/311 102/351/312 224/479/313
f 345/601/311 224/479/313 223/478/310
f 345/601/311 223/478/310 101/350/309
f 346/602/314 102/351/312 103/352/315
f 346/602/314 103/352/315 225/480/316
f 346/602/314 225/480/316 224/479/313
f 346/602/314 224/479/313 102/351/312
f 347/603/317 103/352/315 104/353/318
f 347/603/317 104/353/318 226/481/319
f 347/603/317 226/481/319 225/480/316
f 347/603/317 225/480/316 103/352/315
f 348/604/320 104/353/318 105/354/321
f 348/604/320 105/354/321 227/482/322
f 348/604/320 227/482/322 226/481/319
f 348/604/320 226/481/319 104/353/318
f 349/605/323 105/354/321 106/355/324
f 349/605/323 106/355/324 228/483/325
f 349/605/323 228/483/325 227/482/322
f 349/605/323 227/482/322 105/354/321
f 350/606/326 106/355/324 107/356/327
f 350/606/326 107/356/327 229/484/328
f 350/606/326 229/484/328 228/483/325
f 350/606/326 228/483/325 106/355/324
f 351/607/329 107/356/327 108/357/330
f 351/607/329 108/357/330 230/485/331
f 351/607/329 230/485/331 229/484/328
f 351/607/329 229/484/328 107/356/327
f 352/608/332 108/357/330 109/358/333
f 352/608/332 109/358/333 231/486/334
f 352/608/332 231/486/334 230/485/331
f 352/608/332 230/485/331 108/357/330
f 353/609/335 109/358/333 110/359/336
f 353/609/335 110/359/336 232/487/337
f 353/609/335 232/487/337 231/486/334
f 353/609/335 231/486/334 109/358/333
f 354/610/338 110/359/336 111/360/339
f 354/610/338 111/360/339 233/488/340
f 354/610/338 233/488/340 232/487/337
f 354/610/338 232/487/337 110/359/336
f 355/611/341 111/360/339 112/361/342
f 355/611/341 112/361/342 234/489/343
f 355/611/341 234/489/343 233/488/340
f 355/611/341 233/488/340 111/360/339
f 356/612/344 112/361/342 113/362/345
f 356/612/344 113/362/345 235/490/346
f 356/612/344 235/490/346 234/489/343
f 356/612/344 234/489/343 112/361/342
f 357/613/347 113/362/345 114/363/348
f 357/613/347 114/363/348 236/491/349
f 357/613/347 236/491/349 235/490/346
f 357/613/347 235/490/346 113/362/345
f 358/614/350 114/363/348 115/364/351
f 358/614/350 115/364/351 237/492/352
f 358/614/350 237/492/352 236/491/349
f 358/614/350 236/491/349 114/363/348
f 359/615/353 115/364/351 116/365/354
f 359/615/353 116/365/354 238/493/355
f 359/615/353 238/493/355 237/492/352
f 359/615/353 237/492/352 115/364/351
f 360/616/356 116/365/354 117/366/357
f 360/616/356 117/366/357 239/494/358
f 360/616/356 239/494/358 238/493/355
f 360/616/356 238/493/355 116/365/354
f 361/617/359 117/366/357 118/367/360
f 361/617/359 118/367/360 240/495/361
f 361/617/359 240/495/361 239/494/358
f 361/617/359 239/494/358 117/366/357
f 362/618/362 118/367/360 119/368/363
f 362/618/362 119/368/363 241/496/364
f 362/618/362 241/496/364 240/495/361
f 362/618/362 240/495/361 118/367/360
f 363/619/365 119/368/363 120/369/366
f 363/619/365 120/369/366 242/497/367
f 363/619/365 242/497/367 241/496/364
f 363/619/365 241/496/364 119/368/363
f 364/620/368 120/369/366 121/370/369
f 364/620/368 121/370/369 243/498/370
f 364/620/368 243/498/370 242/497/367
f 364/620/368 242/497/367 120/369/366
f 365/621/371 121/370/369 122/371/372
f 365/621/371 122/371/372 244/499/373
f 365/621/371 244/499/373 243/498/370
f 365/621/371 243/498/370 121/370/369
f 366/622/374 122/371/372 1/372/375
f 366/622/374 1/372/375 123/500/376
f 366/622/374 123/500/376 244/499/373
f 366/622/374 244/499/373 122/371/372
